ISO-10303-21;
HEADER;
FILE_DESCRIPTION (( 'STEP AP203' ),
    '1' );
FILE_NAME('P03_Head_keeper_mouth.step','2026-09-14T00:00:00',('Wamotech'),('Wamotech'),'SolidWorks 2025','SolidWorks 2025','');
FILE_SCHEMA (( 'CONFIG_CONTROL_DESIGN' ));
ENDSEC;

DATA;
#1 = VERTEX_POINT ( 'NONE', #571 ) ;
#2 = VERTEX_POINT ( 'NONE', #1082 ) ;
#3 = DIRECTION ( 'NONE',  ( 0.7071067811865475727, -0.7071067811865475727, 0.000000000000000000 ) ) ;
#4 = DIRECTION ( 'NONE',  ( 0.7071067811865474617, -0.7071067811865474617, 0.000000000000000000 ) ) ;
#5 = ORIENTED_EDGE ( 'NONE', *, *, #750, .F. ) ;
#6 = EDGE_LOOP ( 'NONE', ( #440, #198, #804, #822 ) ) ;
#7 = EDGE_CURVE ( 'NONE', #830, #1116, #678, .T. ) ;
#8 = DIRECTION ( 'NONE',  ( 0.000000000000000000, 1.000000000000000000, 0.000000000000000000 ) ) ;
#9 = DIRECTION ( 'NONE',  ( 0.000000000000000000, 0.000000000000000000, -1.000000000000000000 ) ) ;
#10 = ORIENTED_EDGE ( 'NONE', *, *, #645, .F. ) ;
#11 = VECTOR ( 'NONE', #1181, 1000.000000000000000 ) ;
#12 = DIRECTION ( 'NONE',  ( 0.000000000000000000, 0.000000000000000000, 1.000000000000000000 ) ) ;
#13 = CARTESIAN_POINT ( 'NONE',  ( 108.7000000000000028, -51.00000000000000000, 142.4119090000000085 ) ) ;
#14 = AXIS2_PLACEMENT_3D ( 'NONE', #470, #459, #253 ) ;
#15 = EDGE_CURVE ( 'NONE', #278, #1128, #874, .T. ) ;
#16 = LINE ( 'NONE', #395, #1280 ) ;
#17 = ORIENTED_EDGE ( 'NONE', *, *, #200, .T. ) ;
#18 = PLANE ( 'NONE',  #312 ) ;
#19 = LINE ( 'NONE', #866, #782 ) ;
#20 = DIRECTION ( 'NONE',  ( 0.000000000000000000, -1.000000000000000000, 0.000000000000000000 ) ) ;
#21 = CARTESIAN_POINT ( 'NONE',  ( 104.5000000000000000, 8.000000000000000000, 107.5000000000000142 ) ) ;
#22 = ADVANCED_FACE ( 'NONE', ( #1078 ), #1295, .F. ) ;
#23 = CARTESIAN_POINT ( 'NONE',  ( 106.0500000000000114, 57.70000000000000284, 152.2119089999999915 ) ) ;
#24 = FACE_OUTER_BOUND ( 'NONE', #791, .T. ) ;
#25 = DIRECTION ( 'NONE',  ( 0.000000000000000000, 0.000000000000000000, 1.000000000000000000 ) ) ;
#26 = ORIENTED_EDGE ( 'NONE', *, *, #526, .F. ) ;
#27 = EDGE_CURVE ( 'NONE', #1128, #1165, #131, .T. ) ;
#28 = LINE ( 'NONE', #516, #1310 ) ;
#29 = AXIS2_PLACEMENT_3D ( 'NONE', #669, #222, #118 ) ;
#30 = DIRECTION ( 'NONE',  ( 0.000000000000000000, -0.000000000000000000, -1.000000000000000000 ) ) ;
#31 = CARTESIAN_POINT ( 'NONE',  ( 68.00000000000000000, 3.000000000000000000, 108.2118049999999982 ) ) ;
#32 = VECTOR ( 'NONE', #1186, 1000.000000000000000 ) ;
#33 = PLANE ( 'NONE',  #14 ) ;
#34 = AXIS2_PLACEMENT_3D ( 'NONE', #1255, #427, #531 ) ;
#35 = CARTESIAN_POINT ( 'NONE',  ( 104.4000000000000057, -57.70000000000000284, 152.2119090000000199 ) ) ;
#36 = CC_DESIGN_PERSON_AND_ORGANIZATION_ASSIGNMENT ( #422, #177, ( #180 ) ) ;
#37 = APPROVAL_ROLE ( '' ) ;
#38 = EDGE_CURVE ( 'NONE', #420, #520, #145, .T. ) ;
#39 = LINE ( 'NONE', #244, #415 ) ;
#40 = DIRECTION ( 'NONE',  ( 0.000000000000000000, 0.000000000000000000, -1.000000000000000000 ) ) ;
#41 = DIRECTION ( 'NONE',  ( 0.000000000000000000, 0.000000000000000000, -1.000000000000000000 ) ) ;
#42 = VERTEX_POINT ( 'NONE', #974 ) ;
#43 = EDGE_CURVE ( 'NONE', #731, #640, #473, .T. ) ;
#44 = CC_DESIGN_APPROVAL ( #1000, ( #797 ) ) ;
#45 = DIRECTION ( 'NONE',  ( 1.000000000000000000, 0.000000000000000000, 0.000000000000000000 ) ) ;
#46 = CARTESIAN_POINT ( 'NONE',  ( 107.6500000000000057, -57.70000000000000284, 152.1119090000000256 ) ) ;
#47 = DIRECTION ( 'NONE',  ( 0.000000000000000000, -1.000000000000000000, 0.000000000000000000 ) ) ;
#48 = ORIENTED_EDGE ( 'NONE', *, *, #885, .F. ) ;
#49 = LINE ( 'NONE', #773, #673 ) ;
#50 = VECTOR ( 'NONE', #568, 1000.000000000000000 ) ;
#51 = EDGE_CURVE ( 'NONE', #230, #1254, #247, .T. ) ;
#52 = CARTESIAN_POINT ( 'NONE',  ( 0.000000000000000000, 0.000000000000000000, 108.0119049999999987 ) ) ;
#53 = CARTESIAN_POINT ( 'NONE',  ( 100.4999999999999858, 8.000000000000000000, 107.5000000000000142 ) ) ;
#54 = VECTOR ( 'NONE', #1196, 1000.000000000000000 ) ;
#55 = ORIENTED_EDGE ( 'NONE', *, *, #591, .F. ) ;
#56 = CARTESIAN_POINT ( 'NONE',  ( 0.000000000000000000, 0.000000000000000000, 0.000000000000000000 ) ) ;
#57 = LINE ( 'NONE', #1284, #831 ) ;
#58 = EDGE_LOOP ( 'NONE', ( #631, #5, #1040, #1159 ) ) ;
#59 = FACE_BOUND ( 'NONE', #500, .T. ) ;
#60 = PLANE ( 'NONE',  #694 ) ;
#61 = CARTESIAN_POINT ( 'NONE',  ( 104.5000000000000000, -8.000000000000000000, 137.1119089999999971 ) ) ;
#62 = EDGE_LOOP ( 'NONE', ( #368, #95 ) ) ;
#63 = EDGE_CURVE ( 'NONE', #751, #2, #997, .T. ) ;
#64 = LINE ( 'NONE', #155, #710 ) ;
#65 = PLANE ( 'NONE',  #299 ) ;
#66 = VECTOR ( 'NONE', #1332, 1000.000000000000000 ) ;
#67 = ORIENTED_EDGE ( 'NONE', *, *, #1014, .T. ) ;
#68 = CARTESIAN_POINT ( 'NONE',  ( 104.5000000000000000, -8.000000000000000000, 146.1119089999999971 ) ) ;
#69 = LINE ( 'NONE', #924, #387 ) ;
#70 = DIRECTION ( 'NONE',  ( 0.000000000000000000, -1.000000000000000000, 0.000000000000000000 ) ) ;
#71 = EDGE_LOOP ( 'NONE', ( #1139, #294, #26, #67, #1054, #818, #1325, #55, #106, #505, #711, #607 ) ) ;
#72 = ORIENTED_EDGE ( 'NONE', *, *, #618, .F. ) ;
#73 = EDGE_CURVE ( 'NONE', #1183, #304, #451, .T. ) ;
#74 = LINE ( 'NONE', #498, #524 ) ;
#75 = VERTEX_POINT ( 'NONE', #21 ) ;
#76 = DIRECTION ( 'NONE',  ( 0.000000000000000000, -0.000000000000000000, -1.000000000000000000 ) ) ;
#77 = DIRECTION ( 'NONE',  ( -0.000000000000000000, -0.000000000000000000, -1.000000000000000000 ) ) ;
#78 = VECTOR ( 'NONE', #281, 1000.000000000000000 ) ;
#79 = ORIENTED_EDGE ( 'NONE', *, *, #993, .T. ) ;
#80 = VECTOR ( 'NONE', #265, 1000.000000000000000 ) ;
#81 = EDGE_LOOP ( 'NONE', ( #339, #615, #467, #109 ) ) ;
#82 = DATE_AND_TIME ( #1361, #204 ) ;
#83 = ORIENTED_EDGE ( 'NONE', *, *, #303, .T. ) ;
#84 = EDGE_CURVE ( 'NONE', #1116, #1052, #446, .T. ) ;
#85 = DIRECTION ( 'NONE',  ( 0.000000000000000000, 0.000000000000000000, -1.000000000000000000 ) ) ;
#86 = LINE ( 'NONE', #510, #987 ) ;
#87 = ORIENTED_EDGE ( 'NONE', *, *, #15, .T. ) ;
#88 = VERTEX_POINT ( 'NONE', #347 ) ;
#89 = ORIENTED_EDGE ( 'NONE', *, *, #518, .F. ) ;
#90 = LINE ( 'NONE', #291, #277 ) ;
#91 = EDGE_CURVE ( 'NONE', #215, #1128, #887, .T. ) ;
#92 = CARTESIAN_POINT ( 'NONE',  ( 102.7500000000000142, -57.70000000000000284, 140.1119089999999971 ) ) ;
#93 = CARTESIAN_POINT ( 'NONE',  ( 108.7000000000000028, -51.00000000000000000, 142.4119090000000085 ) ) ;
#94 = ORIENTED_EDGE ( 'NONE', *, *, #91, .T. ) ;
#95 = ORIENTED_EDGE ( 'NONE', *, *, #736, .F. ) ;
#96 = ORIENTED_EDGE ( 'NONE', *, *, #1033, .T. ) ;
#97 = DIRECTION ( 'NONE',  ( 0.000000000000000000, -0.000000000000000000, 1.000000000000000000 ) ) ;
#98 = DIRECTION ( 'NONE',  ( 1.000000000000000000, 0.000000000000000000, -0.000000000000000000 ) ) ;
#99 = LINE ( 'NONE', #1064, #476 ) ;
#100 = CC_DESIGN_PERSON_AND_ORGANIZATION_ASSIGNMENT ( #370, #262, ( #797 ) ) ;
#101 = ORIENTED_EDGE ( 'NONE', *, *, #1305, .T. ) ;
#102 = ORIENTED_EDGE ( 'NONE', *, *, #855, .T. ) ;
#103 = VECTOR ( 'NONE', #20, 1000.000000000000000 ) ;
#104 = AXIS2_PLACEMENT_3D ( 'NONE', #959, #121, #430 ) ;
#105 = CIRCLE ( 'NONE', #567, 4.000000000000003553 ) ;
#106 = ORIENTED_EDGE ( 'NONE', *, *, #878, .T. ) ;
#107 = DIRECTION ( 'NONE',  ( 0.000000000000000000, 0.000000000000000000, 1.000000000000000000 ) ) ;
#108 = LINE ( 'NONE', #643, #920 ) ;
#109 = ORIENTED_EDGE ( 'NONE', *, *, #63, .T. ) ;
#110 = ADVANCED_FACE ( 'NONE', ( #137 ), #561, .F. ) ;
#111 = VERTEX_POINT ( 'NONE', #1094 ) ;
#112 = LINE ( 'NONE', #449, #1355 ) ;
#113 = DIRECTION ( 'NONE',  ( 0.000000000000000000, 1.000000000000000000, 0.000000000000000000 ) ) ;
#114 = VECTOR ( 'NONE', #557, 1000.000000000000000 ) ;
#115 = EDGE_LOOP ( 'NONE', ( #1153, #827, #525, #206, #1103, #1023, #271, #1257 ) ) ;
#116 = EDGE_CURVE ( 'NONE', #1190, #255, #814, .T. ) ;
#117 = CARTESIAN_POINT ( 'NONE',  ( 110.5000000000000000, -8.000000000000000000, 146.1119089999999971 ) ) ;
#118 = DIRECTION ( 'NONE',  ( 1.000000000000000000, 0.000000000000000000, 0.000000000000000000 ) ) ;
#119 = EDGE_LOOP ( 'NONE', ( #688, #1262, #375, #48, #843, #1022, #17, #1041 ) ) ;
#120 = CARTESIAN_POINT ( 'NONE',  ( 64.00000000000000000, 3.000000000000000000, 108.2118049999999982 ) ) ;
#121 = DIRECTION ( 'NONE',  ( 0.000000000000000000, -0.000000000000000000, -1.000000000000000000 ) ) ;
#122 = VECTOR ( 'NONE', #107, 1000.000000000000000 ) ;
#123 = CARTESIAN_POINT ( 'NONE',  ( 101.5000000000000000, -8.000000000000000000, 137.1119089999999971 ) ) ;
#124 = ADVANCED_FACE ( 'NONE', ( #582 ), #286, .F. ) ;
#125 = VECTOR ( 'NONE', #978, 1000.000000000000000 ) ;
#126 = CARTESIAN_POINT ( 'NONE',  ( 98.29999999999999716, 64.20000000000000284, 142.4119090000000085 ) ) ;
#127 = CARTESIAN_POINT ( 'NONE',  ( 63.50000000000000000, -8.000000000000000000, 103.5000000000000142 ) ) ;
#128 = DIRECTION ( 'NONE',  ( 1.000000000000000000, 0.000000000000000000, 0.000000000000000000 ) ) ;
#129 = CARTESIAN_POINT ( 'NONE',  ( 104.4000000000000057, -57.70000000000000284, 152.2119089999999915 ) ) ;
#130 = EDGE_CURVE ( 'NONE', #1254, #1006, #1230, .T. ) ;
#131 = LINE ( 'NONE', #991, #1037 ) ;
#132 =( GEOMETRIC_REPRESENTATION_CONTEXT ( 3 ) GLOBAL_UNCERTAINTY_ASSIGNED_CONTEXT ( ( #1180 ) ) GLOBAL_UNIT_ASSIGNED_CONTEXT ( ( #377, #269, #806 ) ) REPRESENTATION_CONTEXT ( 'NONE', 'WORKASPACE' ) );
#133 = CARTESIAN_POINT ( 'NONE',  ( 0.000000000000000000, 0.000000000000000000, 152.1119090000000256 ) ) ;
#134 = DIRECTION ( 'NONE',  ( 1.000000000000000000, 0.000000000000000000, 0.000000000000000000 ) ) ;
#135 = DIRECTION ( 'NONE',  ( -1.000000000000000000, 0.000000000000000000, 0.000000000000000000 ) ) ;
#136 = PLANE ( 'NONE',  #1283 ) ;
#137 = FACE_OUTER_BOUND ( 'NONE', #1047, .T. ) ;
#138 = EDGE_CURVE ( 'NONE', #1167, #154, #173, .T. ) ;
#139 = AXIS2_PLACEMENT_3D ( 'NONE', #735, #1164, #1038 ) ;
#140 = LINE ( 'NONE', #776, #504 ) ;
#141 = DIRECTION ( 'NONE',  ( 1.000000000000000000, 0.000000000000000000, 0.000000000000000000 ) ) ;
#142 = VECTOR ( 'NONE', #260, 1000.000000000000000 ) ;
#143 = DIRECTION ( 'NONE',  ( 1.000000000000000000, -0.000000000000000000, 0.000000000000000000 ) ) ;
#144 = AXIS2_PLACEMENT_3D ( 'NONE', #1382, #1270, #698 ) ;
#145 = LINE ( 'NONE', #126, #346 ) ;
#146 = ORIENTED_EDGE ( 'NONE', *, *, #360, .F. ) ;
#147 = CIRCLE ( 'NONE', #723, 3.000000000000002665 ) ;
#148 = EDGE_CURVE ( 'NONE', #308, #640, #1004, .T. ) ;
#149 = DATE_TIME_ROLE ( 'creation_date' ) ;
#150 = DIRECTION ( 'NONE',  ( 0.000000000000000000, 1.000000000000000000, 0.000000000000000000 ) ) ;
#151 = CARTESIAN_POINT ( 'NONE',  ( 104.5000000000000000, -8.000000000000000000, 146.1119089999999971 ) ) ;
#152 = DIRECTION ( 'NONE',  ( 1.000000000000000000, 0.000000000000000000, 0.000000000000000000 ) ) ;
#153 = DIRECTION ( 'NONE',  ( -0.000000000000000000, -0.000000000000000000, -1.000000000000000000 ) ) ;
#154 = VERTEX_POINT ( 'NONE', #700 ) ;
#155 = CARTESIAN_POINT ( 'NONE',  ( 104.5000000000000000, 8.000000000000000000, 146.1119089999999971 ) ) ;
#156 = ADVANCED_FACE ( 'NONE', ( #1029 ), #391, .F. ) ;
#157 = CARTESIAN_POINT ( 'NONE',  ( 104.4000000000000057, 57.70000000000000284, 152.2119089999999915 ) ) ;
#158 = DIRECTION ( 'NONE',  ( -0.000000000000000000, 0.000000000000000000, -1.000000000000000000 ) ) ;
#159 = DIRECTION ( 'NONE',  ( 0.000000000000000000, 0.000000000000000000, 1.000000000000000000 ) ) ;
#160 = ORIENTED_EDGE ( 'NONE', *, *, #599, .T. ) ;
#161 = CARTESIAN_POINT ( 'NONE',  ( 101.1500000000000057, -57.70000000000000284, 152.2119090000000199 ) ) ;
#162 = EDGE_LOOP ( 'NONE', ( #1244, #1018, #1334, #408 ) ) ;
#163 = DIRECTION ( 'NONE',  ( -0.7071067811865474617, -0.7071067811865474617, 0.000000000000000000 ) ) ;
#164 = VECTOR ( 'NONE', #77, 1000.000000000000000 ) ;
#165 = EDGE_CURVE ( 'NONE', #1165, #1234, #1213, .T. ) ;
#166 = CARTESIAN_POINT ( 'NONE',  ( 64.00000000000000000, -3.000000000000000000, 108.2118049999999982 ) ) ;
#167 = DIRECTION ( 'NONE',  ( 0.7071067811865474617, 0.7071067811865474617, 0.000000000000000000 ) ) ;
#168 = VECTOR ( 'NONE', #574, 1000.000000000000000 ) ;
#169 = ORIENTED_EDGE ( 'NONE', *, *, #862, .F. ) ;
#170 = CARTESIAN_POINT ( 'NONE',  ( 108.7000000000000028, 51.00000000000000000, 140.1119089999999971 ) ) ;
#171 = DIRECTION ( 'NONE',  ( 0.000000000000000000, 1.000000000000000000, 0.000000000000000000 ) ) ;
#172 = DIRECTION ( 'NONE',  ( 0.000000000000000000, 0.000000000000000000, -1.000000000000000000 ) ) ;
#173 = LINE ( 'NONE', #707, #1233 ) ;
#174 = EDGE_CURVE ( 'NONE', #935, #288, #1222, .T. ) ;
#175 = ORIENTED_EDGE ( 'NONE', *, *, #454, .F. ) ;
#176 = ORIENTED_EDGE ( 'NONE', *, *, #687, .F. ) ;
#177 = PERSON_AND_ORGANIZATION_ROLE ( 'classification_officer' ) ;
#178 = LINE ( 'NONE', #601, #188 ) ;
#179 = CARTESIAN_POINT ( 'NONE',  ( 67.09995000000000687, 3.000000000000000000, 109.1118549999999914 ) ) ;
#180 = SECURITY_CLASSIFICATION ( '', '', #686 ) ;
#181 = CARTESIAN_POINT ( 'NONE',  ( 102.7500000000000142, -57.70000000000000284, 152.2119089999999915 ) ) ;
#182 = CARTESIAN_POINT ( 'NONE',  ( 99.29999999999999716, 65.20000000000000284, 140.1119089999999971 ) ) ;
#183 = VERTEX_POINT ( 'NONE', #374 ) ;
#184 = ORIENTED_EDGE ( 'NONE', *, *, #1354, .T. ) ;
#185 = EDGE_CURVE ( 'NONE', #598, #385, #267, .T. ) ;
#186 = DIRECTION ( 'NONE',  ( -0.000000000000000000, -0.000000000000000000, -1.000000000000000000 ) ) ;
#187 = PLANE ( 'NONE',  #139 ) ;
#188 = VECTOR ( 'NONE', #1025, 1000.000000000000000 ) ;
#189 = ORIENTED_EDGE ( 'NONE', *, *, #423, .F. ) ;
#190 = CIRCLE ( 'NONE', #545, 3.250000000000002665 ) ;
#191 = EDGE_LOOP ( 'NONE', ( #937, #1066, #371, #184 ) ) ;
#192 = ADVANCED_FACE ( 'NONE', ( #684 ), #1108, .T. ) ;
#193 = VECTOR ( 'NONE', #333, 1000.000000000000000 ) ;
#194 = ORIENTED_EDGE ( 'NONE', *, *, #869, .T. ) ;
#195 = DIRECTION ( 'NONE',  ( 0.000000000000000000, -1.000000000000000000, 0.000000000000000000 ) ) ;
#196 = DIRECTION ( 'NONE',  ( 0.000000000000000000, -0.000000000000000000, -1.000000000000000000 ) ) ;
#197 = ORIENTED_EDGE ( 'NONE', *, *, #84, .F. ) ;
#198 = ORIENTED_EDGE ( 'NONE', *, *, #218, .F. ) ;
#199 = VERTEX_POINT ( 'NONE', #276 ) ;
#200 = EDGE_CURVE ( 'NONE', #551, #1190, #147, .T. ) ;
#201 = CARTESIAN_POINT ( 'NONE',  ( 104.5000000000000000, 8.000000000000000000, 107.5000000000000142 ) ) ;
#202 = CARTESIAN_POINT ( 'NONE',  ( 63.50000000000000000, 8.000000000000000000, 103.5000000000000142 ) ) ;
#203 = CARTESIAN_POINT ( 'NONE',  ( 104.4000000000000057, 57.70000000000000284, 152.1119090000000256 ) ) ;
#204 = LOCAL_TIME ( 18, 28, 55.00000000000000000, #610 ) ;
#205 = ORIENTED_EDGE ( 'NONE', *, *, #618, .T. ) ;
#206 = ORIENTED_EDGE ( 'NONE', *, *, #358, .T. ) ;
#207 = ORIENTED_EDGE ( 'NONE', *, *, #941, .F. ) ;
#208 = FACE_OUTER_BOUND ( 'NONE', #119, .T. ) ;
#209 = CARTESIAN_POINT ( 'NONE',  ( 109.5000000000000000, 65.20000000000000284, 152.1119090000000256 ) ) ;
#210 = EDGE_CURVE ( 'NONE', #416, #42, #487, .T. ) ;
#211 = VECTOR ( 'NONE', #1170, 1000.000000000000000 ) ;
#212 = VERTEX_POINT ( 'NONE', #61 ) ;
#213 = VECTOR ( 'NONE', #1347, 1000.000000000000000 ) ;
#214 = VECTOR ( 'NONE', #246, 1000.000000000000000 ) ;
#215 = VERTEX_POINT ( 'NONE', #908 ) ;
#216 = DIRECTION ( 'NONE',  ( 1.000000000000000000, 0.000000000000000000, -0.000000000000000000 ) ) ;
#217 = LINE ( 'NONE', #1366, #433 ) ;
#218 = EDGE_CURVE ( 'NONE', #1190, #1369, #1337, .T. ) ;
#219 = ORIENTED_EDGE ( 'NONE', *, *, #750, .T. ) ;
#220 = ADVANCED_FACE ( 'NONE', ( #24 ), #971, .F. ) ;
#221 = DIRECTION ( 'NONE',  ( 0.000000000000000000, 0.000000000000000000, 1.000000000000000000 ) ) ;
#222 = DIRECTION ( 'NONE',  ( 0.000000000000000000, -0.000000000000000000, -1.000000000000000000 ) ) ;
#223 = APPLICATION_CONTEXT ( 'configuration controlled 3d designs of mechanical parts and assemblies' ) ;
#224 = EDGE_LOOP ( 'NONE', ( #1142, #702 ) ) ;
#225 = EDGE_CURVE ( 'NONE', #405, #1317, #112, .T. ) ;
#226 = CARTESIAN_POINT ( 'NONE',  ( 99.29999999999999716, -65.20000000000000284, 152.1119090000000256 ) ) ;
#227 = CARTESIAN_POINT ( 'NONE',  ( 68.00000000000000000, 3.000000000000000000, 103.5000000000000142 ) ) ;
#228 = CARTESIAN_POINT ( 'NONE',  ( 110.5000000000000000, -64.20000000000000284, 152.1119090000000256 ) ) ;
#229 = ORIENTED_EDGE ( 'NONE', *, *, #406, .T. ) ;
#230 = VERTEX_POINT ( 'NONE', #976 ) ;
#231 = VECTOR ( 'NONE', #458, 1000.000000000000000 ) ;
#232 = LINE ( 'NONE', #1008, #66 ) ;
#233 = ADVANCED_FACE ( 'NONE', ( #1075 ), #553, .F. ) ;
#234 = DIRECTION ( 'NONE',  ( 1.000000000000000000, 0.000000000000000000, 0.000000000000000000 ) ) ;
#235 = VECTOR ( 'NONE', #606, 1000.000000000000114 ) ;
#236 = DIRECTION ( 'NONE',  ( 0.000000000000000000, 0.000000000000000000, 1.000000000000000000 ) ) ;
#237 = EDGE_LOOP ( 'NONE', ( #829, #918, #1134, #685 ) ) ;
#238 = CARTESIAN_POINT ( 'NONE',  ( 104.5000000000000000, -8.000000000000000000, 98.00000000000000000 ) ) ;
#239 = CARTESIAN_POINT ( 'NONE',  ( 98.29999999999999716, 53.39999999999999858, 142.4119090000000085 ) ) ;
#240 = DIRECTION ( 'NONE',  ( 0.000000000000000000, 1.000000000000000000, 0.000000000000000000 ) ) ;
#241 = EDGE_CURVE ( 'NONE', #1317, #1116, #19, .T. ) ;
#242 = CARTESIAN_POINT ( 'NONE',  ( 108.7000000000000028, -53.39999999999999858, 142.4119090000000085 ) ) ;
#243 = CARTESIAN_POINT ( 'NONE',  ( 99.29999999999999716, 65.20000000000000284, 140.1119089999999971 ) ) ;
#244 = CARTESIAN_POINT ( 'NONE',  ( 65.09994999999999266, -3.000000000000000000, 107.1118550000000056 ) ) ;
#245 = CARTESIAN_POINT ( 'NONE',  ( 104.4000000000000057, 57.70000000000000284, 148.9119090000000085 ) ) ;
#246 = DIRECTION ( 'NONE',  ( -1.000000000000000000, 0.000000000000000000, 0.000000000000000000 ) ) ;
#247 = LINE ( 'NONE', #576, #1148 ) ;
#248 = EDGE_CURVE ( 'NONE', #583, #1246, #925, .T. ) ;
#249 = DATE_AND_TIME ( #362, #602 ) ;
#250 = AXIS2_PLACEMENT_3D ( 'NONE', #93, #722, #320 ) ;
#251 = FACE_OUTER_BOUND ( 'NONE', #1182, .T. ) ;
#252 = AXIS2_PLACEMENT_3D ( 'NONE', #689, #800, #45 ) ;
#253 = DIRECTION ( 'NONE',  ( 0.000000000000000000, 0.000000000000000000, 1.000000000000000000 ) ) ;
#254 = ORIENTED_EDGE ( 'NONE', *, *, #862, .T. ) ;
#255 = VERTEX_POINT ( 'NONE', #337 ) ;
#256 = EDGE_CURVE ( 'NONE', #919, #935, #190, .T. ) ;
#257 = PERSON_AND_ORGANIZATION ( #348, #537 ) ;
#258 = CARTESIAN_POINT ( 'NONE',  ( 104.5000000000000000, 8.000000000000000000, 137.1119089999999971 ) ) ;
#259 = DIRECTION ( 'NONE',  ( -0.000000000000000000, 0.000000000000000000, 1.000000000000000000 ) ) ;
#260 = DIRECTION ( 'NONE',  ( 1.000000000000000000, 0.000000000000000000, 0.000000000000000000 ) ) ;
#261 = EDGE_LOOP ( 'NONE', ( #600, #909 ) ) ;
#262 = PERSON_AND_ORGANIZATION_ROLE ( 'design_supplier' ) ;
#263 = ADVANCED_FACE ( 'NONE', ( #208 ), #848, .F. ) ;
#264 = ORIENTED_EDGE ( 'NONE', *, *, #765, .T. ) ;
#265 = DIRECTION ( 'NONE',  ( -0.000000000000000000, -0.000000000000000000, -1.000000000000000000 ) ) ;
#266 = CARTESIAN_POINT ( 'NONE',  ( 64.00000000000000000, 3.000000000000000000, 103.5000000000000000 ) ) ;
#267 = LINE ( 'NONE', #1242, #1095 ) ;
#268 = ORIENTED_EDGE ( 'NONE', *, *, #988, .T. ) ;
#269 =( NAMED_UNIT ( * ) PLANE_ANGLE_UNIT ( ) SI_UNIT ( $, .RADIAN. ) );
#270 = DIRECTION ( 'NONE',  ( 1.000000000000000000, 0.000000000000000000, 0.000000000000000000 ) ) ;
#271 = ORIENTED_EDGE ( 'NONE', *, *, #1260, .T. ) ;
#272 = ADVANCED_FACE ( 'NONE', ( #1282, #734 ), #325, .T. ) ;
#273 = CARTESIAN_POINT ( 'NONE',  ( 109.5000000000000000, -65.20000000000000284, 152.1119090000000256 ) ) ;
#274 = CARTESIAN_POINT ( 'NONE',  ( 102.7500000000000142, 57.70000000000000284, 152.2119089999999915 ) ) ;
#275 = AXIS2_PLACEMENT_3D ( 'NONE', #1063, #541, #234 ) ;
#276 = CARTESIAN_POINT ( 'NONE',  ( 64.00000000000000000, 3.000000000000000000, 106.0119049999999987 ) ) ;
#277 = VECTOR ( 'NONE', #938, 1000.000000000000000 ) ;
#278 = VERTEX_POINT ( 'NONE', #642 ) ;
#279 = ORIENTED_EDGE ( 'NONE', *, *, #687, .T. ) ;
#280 = DIRECTION ( 'NONE',  ( -0.000000000000000000, 1.000000000000000000, 0.000000000000000000 ) ) ;
#281 = DIRECTION ( 'NONE',  ( 1.000000000000000000, 0.000000000000000000, 0.000000000000000000 ) ) ;
#282 = VERTEX_POINT ( 'NONE', #1162 ) ;
#283 = CARTESIAN_POINT ( 'NONE',  ( 106.0500000000000114, -57.70000000000000284, 152.2119089999999915 ) ) ;
#284 = EDGE_CURVE ( 'NONE', #696, #215, #1174, .T. ) ;
#285 = DIRECTION ( 'NONE',  ( 0.000000000000000000, 0.000000000000000000, -1.000000000000000000 ) ) ;
#286 = CYLINDRICAL_SURFACE ( 'NONE', #323, 4.000000000000003553 ) ;
#287 = ORIENTED_EDGE ( 'NONE', *, *, #563, .F. ) ;
#288 = VERTEX_POINT ( 'NONE', #1056 ) ;
#289 = DIRECTION ( 'NONE',  ( 0.000000000000000000, 1.000000000000000000, 0.000000000000000000 ) ) ;
#290 = ORIENTED_EDGE ( 'NONE', *, *, #956, .F. ) ;
#291 = CARTESIAN_POINT ( 'NONE',  ( 98.29999999999999716, 64.20000000000000284, 140.1119089999999971 ) ) ;
#292 = AXIS2_PLACEMENT_3D ( 'NONE', #56, #1016, #565 ) ;
#293 = CARTESIAN_POINT ( 'NONE',  ( 104.4000000000000057, -57.70000000000000284, 152.2119089999999915 ) ) ;
#294 = ORIENTED_EDGE ( 'NONE', *, *, #1315, .T. ) ;
#295 = ORIENTED_EDGE ( 'NONE', *, *, #563, .T. ) ;
#296 = ORIENTED_EDGE ( 'NONE', *, *, #225, .F. ) ;
#297 = DIRECTION ( 'NONE',  ( 0.000000000000000000, -0.000000000000000000, 1.000000000000000000 ) ) ;
#298 = DIRECTION ( 'NONE',  ( 1.000000000000000000, 0.000000000000000000, 0.000000000000000000 ) ) ;
#299 = AXIS2_PLACEMENT_3D ( 'NONE', #1237, #1017, #1129 ) ;
#300 = VERTEX_POINT ( 'NONE', #953 ) ;
#301 = AXIS2_PLACEMENT_3D ( 'NONE', #35, #460, #882 ) ;
#302 = ORIENTED_EDGE ( 'NONE', *, *, #130, .F. ) ;
#303 = EDGE_CURVE ( 'NONE', #1, #520, #646, .T. ) ;
#304 = VERTEX_POINT ( 'NONE', #530 ) ;
#305 = CARTESIAN_POINT ( 'NONE',  ( 100.4999999999999858, 8.000000000000000000, 103.5000000000000142 ) ) ;
#306 = DIRECTION ( 'NONE',  ( 0.7071067811865474617, 0.7071067811865474617, 0.000000000000000000 ) ) ;
#307 = DIRECTION ( 'NONE',  ( -1.000000000000000000, 0.000000000000000000, 0.000000000000000000 ) ) ;
#308 = VERTEX_POINT ( 'NONE', #739 ) ;
#309 = ORIENTED_EDGE ( 'NONE', *, *, #1358, .T. ) ;
#310 = PRODUCT_DEFINITION ( '未知', '', #797, #386 ) ;
#311 = ORIENTED_EDGE ( 'NONE', *, *, #869, .F. ) ;
#312 = AXIS2_PLACEMENT_3D ( 'NONE', #865, #336, #758 ) ;
#313 = EDGE_CURVE ( 'NONE', #382, #654, #1070, .T. ) ;
#314 = DIRECTION ( 'NONE',  ( 0.000000000000000000, -0.000000000000000000, -1.000000000000000000 ) ) ;
#315 = DIRECTION ( 'NONE',  ( -0.7071067811865474617, 0.7071067811865474617, 0.000000000000000000 ) ) ;
#316 = ORIENTED_EDGE ( 'NONE', *, *, #1051, .F. ) ;
#317 = ORIENTED_EDGE ( 'NONE', *, *, #1145, .T. ) ;
#318 = DIRECTION ( 'NONE',  ( 1.000000000000000000, 0.000000000000000000, 0.000000000000000000 ) ) ;
#319 = EDGE_CURVE ( 'NONE', #985, #1109, #1034, .T. ) ;
#320 = DIRECTION ( 'NONE',  ( 0.000000000000000000, 0.000000000000000000, -1.000000000000000000 ) ) ;
#321 = VECTOR ( 'NONE', #1199, 1000.000000000000000 ) ;
#322 = VERTEX_POINT ( 'NONE', #227 ) ;
#323 = AXIS2_PLACEMENT_3D ( 'NONE', #53, #481, #1330 ) ;
#324 = ORIENTED_EDGE ( 'NONE', *, *, #1074, .F. ) ;
#325 = PLANE ( 'NONE',  #1007 ) ;
#326 = AXIS2_PLACEMENT_3D ( 'NONE', #1312, #343, #1084 ) ;
#327 = CARTESIAN_POINT ( 'NONE',  ( 102.7500000000000142, -57.70000000000000284, 148.9119090000000085 ) ) ;
#328 = EDGE_CURVE ( 'NONE', #354, #288, #1261, .T. ) ;
#329 = ORIENTED_EDGE ( 'NONE', *, *, #1135, .T. ) ;
#330 = LINE ( 'NONE', #127, #425 ) ;
#331 = CARTESIAN_POINT ( 'NONE',  ( 98.29999999999999716, 51.00000000000000000, 152.1119090000000256 ) ) ;
#332 = LINE ( 'NONE', #450, #1055 ) ;
#333 = DIRECTION ( 'NONE',  ( -0.000000000000000000, -0.000000000000000000, -1.000000000000000000 ) ) ;
#334 = ORIENTED_EDGE ( 'NONE', *, *, #15, .F. ) ;
#335 = EDGE_CURVE ( 'NONE', #1165, #1343, #437, .T. ) ;
#336 = DIRECTION ( 'NONE',  ( 0.000000000000000000, 0.000000000000000000, 1.000000000000000000 ) ) ;
#337 = CARTESIAN_POINT ( 'NONE',  ( 110.5000000000000000, 8.000000000000000000, 140.1119089999999971 ) ) ;
#338 = FACE_OUTER_BOUND ( 'NONE', #71, .T. ) ;
#339 = ORIENTED_EDGE ( 'NONE', *, *, #518, .T. ) ;
#340 = VECTOR ( 'NONE', #1294, 1000.000000000000000 ) ;
#341 = CC_DESIGN_PERSON_AND_ORGANIZATION_ASSIGNMENT ( #257, #469, ( #310 ) ) ;
#342 = CARTESIAN_POINT ( 'NONE',  ( 102.7500000000000142, 57.70000000000000284, 140.1119089999999971 ) ) ;
#343 = DIRECTION ( 'NONE',  ( 0.000000000000000000, 1.000000000000000000, 0.000000000000000000 ) ) ;
#344 = AXIS2_PLACEMENT_3D ( 'NONE', #493, #1356, #721 ) ;
#345 = CARTESIAN_POINT ( 'NONE',  ( 108.7000000000000028, 53.39999999999999858, 142.4119090000000085 ) ) ;
#346 = VECTOR ( 'NONE', #1087, 1000.000000000000000 ) ;
#347 = CARTESIAN_POINT ( 'NONE',  ( 64.00000000000000000, 3.000000000000000000, 103.5000000000000000 ) ) ;
#348 = PERSON ( '未', '未', '未', ('未'), ('未'), ('未') ) ;
#349 = DIRECTION ( 'NONE',  ( -1.000000000000000000, 0.000000000000000000, 0.000000000000000000 ) ) ;
#350 = CYLINDRICAL_SURFACE ( 'NONE', #637, 1.649999999999998579 ) ;
#351 = CARTESIAN_POINT ( 'NONE',  ( 63.50000000000000000, 8.000000000000000000, 103.5000000000000142 ) ) ;
#352 = EDGE_CURVE ( 'NONE', #608, #111, #968, .T. ) ;
#353 = FACE_OUTER_BOUND ( 'NONE', #717, .T. ) ;
#354 = VERTEX_POINT ( 'NONE', #989 ) ;
#355 = APPROVAL_STATUS ( 'not_yet_approved' ) ;
#356 = DIRECTION ( 'NONE',  ( -1.000000000000000000, 0.000000000000000000, 0.000000000000000000 ) ) ;
#357 = CYLINDRICAL_SURFACE ( 'NONE', #743, 1.649999999999998579 ) ;
#358 = EDGE_CURVE ( 'NONE', #644, #756, #746, .T. ) ;
#359 = ORIENTED_EDGE ( 'NONE', *, *, #1068, .F. ) ;
#360 = EDGE_CURVE ( 'NONE', #1258, #851, #808, .T. ) ;
#361 = VERTEX_POINT ( 'NONE', #1306 ) ;
#362 = CALENDAR_DATE ( 2026, 14, 9 ) ;
#363 = AXIS2_PLACEMENT_3D ( 'NONE', #1012, #699, #158 ) ;
#364 = VECTOR ( 'NONE', #671, 1000.000000000000000 ) ;
#365 = FACE_OUTER_BOUND ( 'NONE', #842, .T. ) ;
#366 = CARTESIAN_POINT ( 'NONE',  ( 63.50000000000000000, 8.000000000000000000, 98.00000000000000000 ) ) ;
#367 = DIRECTION ( 'NONE',  ( 0.7071067811865474617, -0.7071067811865474617, 0.000000000000000000 ) ) ;
#368 = ORIENTED_EDGE ( 'NONE', *, *, #319, .F. ) ;
#369 = EDGE_CURVE ( 'NONE', #1362, #1161, #39, .T. ) ;
#370 = PERSON_AND_ORGANIZATION ( #348, #537 ) ;
#371 = ORIENTED_EDGE ( 'NONE', *, *, #376, .F. ) ;
#372 = FACE_OUTER_BOUND ( 'NONE', #237, .T. ) ;
#373 = LINE ( 'NONE', #1241, #1229 ) ;
#374 = CARTESIAN_POINT ( 'NONE',  ( 101.1500000000000057, -57.70000000000000284, 148.9119090000000085 ) ) ;
#375 = ORIENTED_EDGE ( 'NONE', *, *, #973, .F. ) ;
#376 = EDGE_CURVE ( 'NONE', #888, #598, #566, .T. ) ;
#377 =( LENGTH_UNIT ( ) NAMED_UNIT ( * ) SI_UNIT ( .MILLI., .METRE. ) );
#378 = LINE ( 'NONE', #921, #894 ) ;
#379 = LINE ( 'NONE', #1335, #1208 ) ;
#380 = FACE_OUTER_BOUND ( 'NONE', #1384, .T. ) ;
#381 = CARTESIAN_POINT ( 'NONE',  ( 109.5000000000000000, -65.20000000000000284, 140.1119089999999971 ) ) ;
#382 = VERTEX_POINT ( 'NONE', #668 ) ;
#383 = ORIENTED_EDGE ( 'NONE', *, *, #1105, .T. ) ;
#384 = FACE_OUTER_BOUND ( 'NONE', #6, .T. ) ;
#385 = VERTEX_POINT ( 'NONE', #1204 ) ;
#386 = DESIGN_CONTEXT ( 'detailed design', #511, 'design' ) ;
#387 = VECTOR ( 'NONE', #1345, 1000.000000000000000 ) ;
#388 = PLANE ( 'NONE',  #876 ) ;
#389 = FACE_OUTER_BOUND ( 'NONE', #762, .T. ) ;
#390 = VECTOR ( 'NONE', #167, 1000.000000000000114 ) ;
#391 = PLANE ( 'NONE',  #1057 ) ;
#392 = CIRCLE ( 'NONE', #639, 1.649999999999998579 ) ;
#393 = VERTEX_POINT ( 'NONE', #558 ) ;
#394 = ORIENTED_EDGE ( 'NONE', *, *, #726, .T. ) ;
#395 = CARTESIAN_POINT ( 'NONE',  ( 110.5000000000000000, -64.20000000000000284, 140.1119089999999971 ) ) ;
#396 = FACE_OUTER_BOUND ( 'NONE', #115, .T. ) ;
#397 = ADVANCED_FACE ( 'NONE', ( #251 ), #350, .F. ) ;
#398 = DIRECTION ( 'NONE',  ( -1.000000000000000000, 0.000000000000000000, 0.000000000000000000 ) ) ;
#399 = ORIENTED_EDGE ( 'NONE', *, *, #116, .F. ) ;
#400 = ORIENTED_EDGE ( 'NONE', *, *, #779, .F. ) ;
#401 = ORIENTED_EDGE ( 'NONE', *, *, #138, .T. ) ;
#402 = LINE ( 'NONE', #1239, #948 ) ;
#403 = DIRECTION ( 'NONE',  ( -1.000000000000000000, 0.000000000000000000, 0.000000000000000000 ) ) ;
#404 = ADVANCED_FACE ( 'NONE', ( #1090 ), #981, .T. ) ;
#405 = VERTEX_POINT ( 'NONE', #1198 ) ;
#406 = EDGE_CURVE ( 'NONE', #278, #696, #140, .T. ) ;
#407 = ORIENTED_EDGE ( 'NONE', *, *, #423, .T. ) ;
#408 = ORIENTED_EDGE ( 'NONE', *, *, #1105, .F. ) ;
#409 = LINE ( 'NONE', #201, #1059 ) ;
#410 = CARTESIAN_POINT ( 'NONE',  ( 110.5000000000000000, -64.20000000000000284, 152.1119090000000256 ) ) ;
#411 = PLANE ( 'NONE',  #501 ) ;
#412 = AXIS2_PLACEMENT_3D ( 'NONE', #872, #760, #1307 ) ;
#413 = VERTEX_POINT ( 'NONE', #1298 ) ;
#414 = PRODUCT_RELATED_PRODUCT_CATEGORY ( 'detail', '', ( #1363 ) ) ;
#415 = VECTOR ( 'NONE', #766, 1000.000000000000114 ) ;
#416 = VERTEX_POINT ( 'NONE', #662 ) ;
#417 = ORIENTED_EDGE ( 'NONE', *, *, #789, .F. ) ;
#418 = CARTESIAN_POINT ( 'NONE',  ( 106.0500000000000114, 57.70000000000000284, 148.9119090000000085 ) ) ;
#419 = CARTESIAN_POINT ( 'NONE',  ( 99.29999999999999716, -65.20000000000000284, 152.1119090000000256 ) ) ;
#420 = VERTEX_POINT ( 'NONE', #239 ) ;
#421 = ORIENTED_EDGE ( 'NONE', *, *, #43, .T. ) ;
#422 = PERSON_AND_ORGANIZATION ( #348, #537 ) ;
#423 = EDGE_CURVE ( 'NONE', #823, #215, #1328, .T. ) ;
#424 = ORIENTED_EDGE ( 'NONE', *, *, #810, .T. ) ;
#425 = VECTOR ( 'NONE', #1083, 1000.000000000000000 ) ;
#426 = CARTESIAN_POINT ( 'NONE',  ( 104.4000000000000057, 57.70000000000000284, 148.9119090000000085 ) ) ;
#427 = DIRECTION ( 'NONE',  ( -0.7071067811865475727, 0.7071067811865475727, 0.000000000000000000 ) ) ;
#428 = ORIENTED_EDGE ( 'NONE', *, *, #1268, .F. ) ;
#429 = ORIENTED_EDGE ( 'NONE', *, *, #1305, .F. ) ;
#430 = DIRECTION ( 'NONE',  ( 1.000000000000000000, 0.000000000000000000, 0.000000000000000000 ) ) ;
#431 = CARTESIAN_POINT ( 'NONE',  ( 104.4000000000000057, -57.70000000000000284, 148.9119090000000085 ) ) ;
#432 = ADVANCED_FACE ( 'NONE', ( #587 ), #357, .F. ) ;
#433 = VECTOR ( 'NONE', #1374, 1000.000000000000000 ) ;
#434 = EDGE_LOOP ( 'NONE', ( #1151, #803, #296, #1121 ) ) ;
#435 = AXIS2_PLACEMENT_3D ( 'NONE', #905, #983, #886 ) ;
#436 = DIRECTION ( 'NONE',  ( 1.000000000000000000, 0.000000000000000000, 0.000000000000000000 ) ) ;
#437 = LINE ( 'NONE', #1288, #1169 ) ;
#438 = CARTESIAN_POINT ( 'NONE',  ( 110.5000000000000000, 8.000000000000000000, 103.5000000000000142 ) ) ;
#439 = ADVANCED_FACE ( 'NONE', ( #372 ), #485, .F. ) ;
#440 = ORIENTED_EDGE ( 'NONE', *, *, #931, .F. ) ;
#441 = LINE ( 'NONE', #23, #114 ) ;
#442 = CARTESIAN_POINT ( 'NONE',  ( 99.29999999999999716, 65.20000000000000284, 152.1119090000000256 ) ) ;
#443 = DIRECTION ( 'NONE',  ( -0.000000000000000000, 1.000000000000000000, -0.000000000000000000 ) ) ;
#444 = VECTOR ( 'NONE', #674, 1000.000000000000000 ) ;
#445 = ADVANCED_FACE ( 'NONE', ( #365 ), #136, .T. ) ;
#446 = LINE ( 'NONE', #1303, #364 ) ;
#447 = ADVANCED_BREP_SHAPE_REPRESENTATION ( 'P03_Head_keeper_mouth', ( #550, #292 ), #132 ) ;
#448 = DIRECTION ( 'NONE',  ( 1.000000000000000000, 0.000000000000000000, 0.000000000000000000 ) ) ;
#449 = CARTESIAN_POINT ( 'NONE',  ( 108.7000000000000028, 51.00000000000000000, 142.4119090000000085 ) ) ;
#450 = CARTESIAN_POINT ( 'NONE',  ( 110.5000000000000000, -8.000000000000000000, 98.00000000000000000 ) ) ;
#451 = LINE ( 'NONE', #1316, #1191 ) ;
#452 = AXIS2_PLACEMENT_3D ( 'NONE', #129, #977, #135 ) ;
#453 = CIRCLE ( 'NONE', #805, 3.000000000000002665 ) ;
#454 = EDGE_CURVE ( 'NONE', #230, #709, #1227, .T. ) ;
#455 = LINE ( 'NONE', #752, #1272 ) ;
#456 = CARTESIAN_POINT ( 'NONE',  ( 104.4000000000000057, -57.70000000000000284, 140.1119089999999971 ) ) ;
#457 = AXIS2_PLACEMENT_3D ( 'NONE', #1140, #1048, #97 ) ;
#458 = DIRECTION ( 'NONE',  ( -0.000000000000000000, -0.000000000000000000, -1.000000000000000000 ) ) ;
#459 = DIRECTION ( 'NONE',  ( -1.000000000000000000, 0.000000000000000000, 0.000000000000000000 ) ) ;
#460 = DIRECTION ( 'NONE',  ( 0.000000000000000000, 0.000000000000000000, -1.000000000000000000 ) ) ;
#461 = CARTESIAN_POINT ( 'NONE',  ( 104.5000000000000000, 8.000000000000000000, 137.1119089999999971 ) ) ;
#462 = EDGE_CURVE ( 'NONE', #393, #1183, #695, .T. ) ;
#463 = CARTESIAN_POINT ( 'NONE',  ( 98.29999999999999716, -64.20000000000000284, 152.1119090000000256 ) ) ;
#464 = EDGE_CURVE ( 'NONE', #640, #322, #49, .T. ) ;
#465 = DIRECTION ( 'NONE',  ( -0.7071067811865475727, 0.000000000000000000, 0.7071067811865475727 ) ) ;
#466 = CIRCLE ( 'NONE', #663, 3.250000000000002665 ) ;
#467 = ORIENTED_EDGE ( 'NONE', *, *, #810, .F. ) ;
#468 = ORIENTED_EDGE ( 'NONE', *, *, #471, .T. ) ;
#469 = PERSON_AND_ORGANIZATION_ROLE ( 'creator' ) ;
#470 = CARTESIAN_POINT ( 'NONE',  ( 68.00000000000000000, -3.000000000000000000, 108.2118049999999982 ) ) ;
#471 = EDGE_CURVE ( 'NONE', #300, #416, #1219, .T. ) ;
#472 = LINE ( 'NONE', #1020, #1346 ) ;
#473 = LINE ( 'NONE', #868, #193 ) ;
#474 = ORIENTED_EDGE ( 'NONE', *, *, #352, .T. ) ;
#475 = LINE ( 'NONE', #461, #624 ) ;
#476 = VECTOR ( 'NONE', #307, 1000.000000000000000 ) ;
#477 = ORIENTED_EDGE ( 'NONE', *, *, #779, .T. ) ;
#478 = VECTOR ( 'NONE', #590, 1000.000000000000000 ) ;
#479 = DIRECTION ( 'NONE',  ( 0.000000000000000000, 1.000000000000000000, 0.000000000000000000 ) ) ;
#480 = PLANE ( 'NONE',  #1166 ) ;
#481 = DIRECTION ( 'NONE',  ( 0.000000000000000000, -1.000000000000000000, 0.000000000000000000 ) ) ;
#482 = ADVANCED_FACE ( 'NONE', ( #1092, #59 ), #995, .T. ) ;
#483 = ORIENTED_EDGE ( 'NONE', *, *, #1201, .T. ) ;
#484 = CARTESIAN_POINT ( 'NONE',  ( 110.5000000000000000, 8.000000000000000000, 98.00000000000000000 ) ) ;
#485 = CYLINDRICAL_SURFACE ( 'NONE', #1301, 3.250000000000002665 ) ;
#486 = DIRECTION ( 'NONE',  ( 0.000000000000000000, -0.000000000000000000, 1.000000000000000000 ) ) ;
#487 = LINE ( 'NONE', #381, #390 ) ;
#488 = ORIENTED_EDGE ( 'NONE', *, *, #284, .F. ) ;
#489 = ADVANCED_FACE ( 'NONE', ( #353 ), #1112, .F. ) ;
#490 = CARTESIAN_POINT ( 'NONE',  ( 64.00000000000000000, -2.999999999999997780, 106.0119049999999987 ) ) ;
#491 = LINE ( 'NONE', #693, #78 ) ;
#492 = ORIENTED_EDGE ( 'NONE', *, *, #218, .T. ) ;
#493 = CARTESIAN_POINT ( 'NONE',  ( 104.4000000000000057, 57.70000000000000284, 140.1119089999999971 ) ) ;
#494 = DIRECTION ( 'NONE',  ( 0.000000000000000000, -1.000000000000000000, 0.000000000000000000 ) ) ;
#495 = DIRECTION ( 'NONE',  ( 0.000000000000000000, -1.000000000000000000, 0.000000000000000000 ) ) ;
#496 = ORIENTED_EDGE ( 'NONE', *, *, #1315, .F. ) ;
#497 = ORIENTED_EDGE ( 'NONE', *, *, #556, .F. ) ;
#498 = CARTESIAN_POINT ( 'NONE',  ( 110.5000000000000000, 8.000000000000000000, 98.00000000000000000 ) ) ;
#499 = EDGE_CURVE ( 'NONE', #1161, #731, #379, .T. ) ;
#500 = EDGE_LOOP ( 'NONE', ( #952, #1286, #1035, #1348 ) ) ;
#501 = AXIS2_PLACEMENT_3D ( 'NONE', #1265, #741, #1050 ) ;
#502 = CARTESIAN_POINT ( 'NONE',  ( 104.5000000000000000, -8.000000000000000000, 107.5000000000000142 ) ) ;
#503 = LINE ( 'NONE', #181, #1299 ) ;
#504 = VECTOR ( 'NONE', #150, 1000.000000000000000 ) ;
#505 = ORIENTED_EDGE ( 'NONE', *, *, #638, .T. ) ;
#506 = ORIENTED_EDGE ( 'NONE', *, *, #1285, .F. ) ;
#507 = DATE_TIME_ROLE ( 'classification_date' ) ;
#508 = ADVANCED_FACE ( 'NONE', ( #1314 ), #33, .F. ) ;
#509 = CARTESIAN_POINT ( 'NONE',  ( 104.4000000000000057, -57.70000000000000284, 140.1119089999999971 ) ) ;
#510 = CARTESIAN_POINT ( 'NONE',  ( 110.5000000000000000, 64.20000000000000284, 140.1119089999999971 ) ) ;
#511 = APPLICATION_CONTEXT ( 'configuration controlled 3d designs of mechanical parts and assemblies' ) ;
#512 = EDGE_LOOP ( 'NONE', ( #497, #1110, #1026, #10 ) ) ;
#513 = ORIENTED_EDGE ( 'NONE', *, *, #579, .T. ) ;
#514 = ORIENTED_EDGE ( 'NONE', *, *, #1367, .F. ) ;
#515 = DIRECTION ( 'NONE',  ( 0.000000000000000000, 0.000000000000000000, -1.000000000000000000 ) ) ;
#516 = CARTESIAN_POINT ( 'NONE',  ( 109.5000000000000000, -65.20000000000000284, 152.1119090000000256 ) ) ;
#517 = CARTESIAN_POINT ( 'NONE',  ( 68.00000000000000000, -3.000000000000000000, 108.0119049999999987 ) ) ;
#518 = EDGE_CURVE ( 'NONE', #2, #1254, #881, .T. ) ;
#519 = ORIENTED_EDGE ( 'NONE', *, *, #369, .F. ) ;
#520 = VERTEX_POINT ( 'NONE', #670 ) ;
#521 = EDGE_LOOP ( 'NONE', ( #532, #1173, #309, #914 ) ) ;
#522 = CARTESIAN_POINT ( 'NONE',  ( 110.5000000000000000, -8.000000000000000000, 98.00000000000000000 ) ) ;
#523 = LINE ( 'NONE', #947, #211 ) ;
#524 = VECTOR ( 'NONE', #398, 1000.000000000000000 ) ;
#525 = ORIENTED_EDGE ( 'NONE', *, *, #540, .T. ) ;
#526 = EDGE_CURVE ( 'NONE', #413, #823, #569, .T. ) ;
#527 = VECTOR ( 'NONE', #195, 1000.000000000000000 ) ;
#528 = ORIENTED_EDGE ( 'NONE', *, *, #499, .T. ) ;
#529 = ORIENTED_EDGE ( 'NONE', *, *, #360, .T. ) ;
#530 = CARTESIAN_POINT ( 'NONE',  ( 107.6500000000000057, -57.70000000000000284, 148.9119090000000085 ) ) ;
#531 = DIRECTION ( 'NONE',  ( -0.7071067811865474617, -0.7071067811865474617, 0.000000000000000000 ) ) ;
#532 = ORIENTED_EDGE ( 'NONE', *, *, #540, .F. ) ;
#533 = ORIENTED_EDGE ( 'NONE', *, *, #328, .T. ) ;
#534 = VECTOR ( 'NONE', #661, 1000.000000000000000 ) ;
#535 = CARTESIAN_POINT ( 'NONE',  ( 68.00000000000000000, 3.000000000000000000, 108.2118049999999982 ) ) ;
#536 = FACE_OUTER_BOUND ( 'NONE', #1269, .T. ) ;
#537 = ORGANIZATION ( '未', '未', '' ) ;
#538 = ORIENTED_EDGE ( 'NONE', *, *, #548, .T. ) ;
#539 = DIRECTION ( 'NONE',  ( -0.000000000000000000, 0.000000000000000000, -1.000000000000000000 ) ) ;
#540 = EDGE_CURVE ( 'NONE', #212, #644, #1100, .T. ) ;
#541 = DIRECTION ( 'NONE',  ( 0.000000000000000000, 0.000000000000000000, 1.000000000000000000 ) ) ;
#542 = LINE ( 'NONE', #351, #103 ) ;
#543 = AXIS2_PLACEMENT_3D ( 'NONE', #647, #772, #1009 ) ;
#544 = EDGE_LOOP ( 'NONE', ( #519, #383, #796, #929, #1252 ) ) ;
#545 = AXIS2_PLACEMENT_3D ( 'NONE', #634, #753, #547 ) ;
#546 = FACE_BOUND ( 'NONE', #62, .T. ) ;
#547 = DIRECTION ( 'NONE',  ( 1.000000000000000000, 0.000000000000000000, 0.000000000000000000 ) ) ;
#548 = EDGE_CURVE ( 'NONE', #420, #830, #785, .T. ) ;
#549 = DIRECTION ( 'NONE',  ( -0.000000000000000000, -0.000000000000000000, -1.000000000000000000 ) ) ;
#550 = MANIFOLD_SOLID_BREP ( 'Mouth_hanger_upper_root_R3', #1117 ) ;
#551 = VERTEX_POINT ( 'NONE', #258 ) ;
#552 = CARTESIAN_POINT ( 'NONE',  ( 104.4000000000000057, 57.70000000000000284, 152.2119090000000199 ) ) ;
#553 = PLANE ( 'NONE',  #614 ) ;
#554 = PLANE ( 'NONE',  #543 ) ;
#555 = DIRECTION ( 'NONE',  ( -1.000000000000000000, 0.000000000000000000, 0.000000000000000000 ) ) ;
#556 = EDGE_CURVE ( 'NONE', #641, #75, #105, .T. ) ;
#557 = DIRECTION ( 'NONE',  ( 0.000000000000000000, 0.000000000000000000, -1.000000000000000000 ) ) ;
#558 = CARTESIAN_POINT ( 'NONE',  ( 101.1500000000000057, -57.70000000000000284, 152.1119090000000256 ) ) ;
#559 = DIRECTION ( 'NONE',  ( 1.000000000000000000, 0.000000000000000000, 0.000000000000000000 ) ) ;
#560 = DIRECTION ( 'NONE',  ( -1.000000000000000000, 0.000000000000000000, 0.000000000000000000 ) ) ;
#561 = CYLINDRICAL_SURFACE ( 'NONE', #301, 3.250000000000002665 ) ;
#562 = CIRCLE ( 'NONE', #29, 3.250000000000002665 ) ;
#563 = EDGE_CURVE ( 'NONE', #1275, #42, #402, .T. ) ;
#564 = AXIS2_PLACEMENT_3D ( 'NONE', #456, #30, #134 ) ;
#565 = DIRECTION ( 'NONE',  ( 1.000000000000000000, 0.000000000000000000, 0.000000000000000000 ) ) ;
#566 = LINE ( 'NONE', #463, #1098 ) ;
#567 = AXIS2_PLACEMENT_3D ( 'NONE', #682, #1372, #832 ) ;
#568 = DIRECTION ( 'NONE',  ( -1.000000000000000000, 0.000000000000000000, 0.000000000000000000 ) ) ;
#569 = LINE ( 'NONE', #676, #1118 ) ;
#570 = AXIS2_PLACEMENT_3D ( 'NONE', #666, #47, #778 ) ;
#571 = CARTESIAN_POINT ( 'NONE',  ( 98.29999999999999716, 51.00000000000000000, 140.1119089999999971 ) ) ;
#572 = EDGE_LOOP ( 'NONE', ( #146, #1176 ) ) ;
#573 = PERSON_AND_ORGANIZATION ( #348, #537 ) ;
#574 = DIRECTION ( 'NONE',  ( -0.000000000000000000, -0.000000000000000000, -1.000000000000000000 ) ) ;
#575 = CARTESIAN_POINT ( 'NONE',  ( 66.00000000000000000, 0.000000000000000000, 108.0119049999999987 ) ) ;
#576 = CARTESIAN_POINT ( 'NONE',  ( 99.29999999999999716, 65.20000000000000284, 152.1119090000000256 ) ) ;
#577 = ORIENTED_EDGE ( 'NONE', *, *, #680, .F. ) ;
#578 = APPROVAL_DATE_TIME ( #1104, #1000 ) ;
#579 = EDGE_CURVE ( 'NONE', #1246, #583, #1171, .T. ) ;
#580 = DIRECTION ( 'NONE',  ( 0.000000000000000000, 0.000000000000000000, -1.000000000000000000 ) ) ;
#581 = CARTESIAN_POINT ( 'NONE',  ( 106.0500000000000114, -57.70000000000000284, 148.9119090000000085 ) ) ;
#582 = FACE_OUTER_BOUND ( 'NONE', #512, .T. ) ;
#583 = VERTEX_POINT ( 'NONE', #946 ) ;
#584 = CIRCLE ( 'NONE', #1187, 1.649999999999998579 ) ;
#585 = ORIENTED_EDGE ( 'NONE', *, *, #313, .T. ) ;
#586 = AXIS2_PLACEMENT_3D ( 'NONE', #426, #1276, #318 ) ;
#587 = FACE_OUTER_BOUND ( 'NONE', #724, .T. ) ;
#588 = APPROVAL ( #355, '未' ) ;
#589 = FACE_OUTER_BOUND ( 'NONE', #592, .T. ) ;
#590 = DIRECTION ( 'NONE',  ( 0.000000000000000000, 0.000000000000000000, -1.000000000000000000 ) ) ;
#591 = EDGE_CURVE ( 'NONE', #709, #888, #1147, .T. ) ;
#592 = EDGE_LOOP ( 'NONE', ( #1158, #87, #655, #901 ) ) ;
#593 = FACE_OUTER_BOUND ( 'NONE', #926, .T. ) ;
#594 = EDGE_LOOP ( 'NONE', ( #483, #317, #1377, #83 ) ) ;
#595 = LINE ( 'NONE', #283, #1235 ) ;
#596 = CARTESIAN_POINT ( 'NONE',  ( 100.0999999999999943, -53.39999999999999858, 142.4119090000000085 ) ) ;
#597 = DIRECTION ( 'NONE',  ( -0.7071067811865475727, -0.7071067811865475727, 0.000000000000000000 ) ) ;
#598 = VERTEX_POINT ( 'NONE', #1155 ) ;
#599 = EDGE_CURVE ( 'NONE', #199, #1362, #1247, .T. ) ;
#600 = ORIENTED_EDGE ( 'NONE', *, *, #462, .T. ) ;
#601 = CARTESIAN_POINT ( 'NONE',  ( 0.000000000000000000, -8.000000000000000000, 140.1119089999999971 ) ) ;
#602 = LOCAL_TIME ( 18, 28, 55.00000000000000000, #889 ) ;
#603 = ORIENTED_EDGE ( 'NONE', *, *, #1240, .T. ) ;
#604 = DIRECTION ( 'NONE',  ( -0.7071067811865474617, 0.000000000000000000, -0.7071067811865474617 ) ) ;
#605 = CARTESIAN_POINT ( 'NONE',  ( 110.5000000000000000, 64.20000000000000284, 152.1119090000000256 ) ) ;
#606 = DIRECTION ( 'NONE',  ( -0.7071067811865474617, -0.7071067811865474617, 0.000000000000000000 ) ) ;
#607 = ORIENTED_EDGE ( 'NONE', *, *, #38, .T. ) ;
#608 = VERTEX_POINT ( 'NONE', #418 ) ;
#609 = ADVANCED_FACE ( 'NONE', ( #396 ), #1122, .F. ) ;
#610 = COORDINATED_UNIVERSAL_TIME_OFFSET ( 8, 0, .AHEAD. ) ;
#611 = VECTOR ( 'NONE', #240, 1000.000000000000000 ) ;
#612 = FACE_OUTER_BOUND ( 'NONE', #594, .T. ) ;
#613 = LINE ( 'NONE', #517, #740 ) ;
#614 = AXIS2_PLACEMENT_3D ( 'NONE', #535, #859, #314 ) ;
#615 = ORIENTED_EDGE ( 'NONE', *, *, #51, .F. ) ;
#616 = ORIENTED_EDGE ( 'NONE', *, *, #1002, .T. ) ;
#617 = ORIENTED_EDGE ( 'NONE', *, *, #1051, .T. ) ;
#618 = EDGE_CURVE ( 'NONE', #1146, #751, #1344, .T. ) ;
#619 = CARTESIAN_POINT ( 'NONE',  ( 64.00000000000000000, 3.100000000000000089, 106.0119049999999987 ) ) ;
#620 = FACE_OUTER_BOUND ( 'NONE', #897, .T. ) ;
#621 = ORIENTED_EDGE ( 'NONE', *, *, #185, .T. ) ;
#622 = ORIENTED_EDGE ( 'NONE', *, *, #1290, .T. ) ;
#623 = APPROVAL_DATE_TIME ( #838, #1123 ) ;
#624 = VECTOR ( 'NONE', #280, 1000.000000000000000 ) ;
#625 = ORIENTED_EDGE ( 'NONE', *, *, #993, .F. ) ;
#626 = DIRECTION ( 'NONE',  ( 0.000000000000000000, -1.000000000000000000, 0.000000000000000000 ) ) ;
#627 = ADVANCED_FACE ( 'NONE', ( #915 ), #388, .T. ) ;
#628 = DIRECTION ( 'NONE',  ( -0.000000000000000000, 0.000000000000000000, 1.000000000000000000 ) ) ;
#629 = CARTESIAN_POINT ( 'NONE',  ( 100.4999999999999858, -8.000000000000000000, 103.5000000000000142 ) ) ;
#630 = ORIENTED_EDGE ( 'NONE', *, *, #1096, .F. ) ;
#631 = ORIENTED_EDGE ( 'NONE', *, *, #1033, .F. ) ;
#632 = APPROVAL_ROLE ( '' ) ;
#633 = ORIENTED_EDGE ( 'NONE', *, *, #210, .F. ) ;
#634 = CARTESIAN_POINT ( 'NONE',  ( 104.4000000000000057, 57.70000000000000284, 152.1119090000000256 ) ) ;
#635 = VECTOR ( 'NONE', #892, 1000.000000000000000 ) ;
#636 = FACE_OUTER_BOUND ( 'NONE', #1214, .T. ) ;
#637 = AXIS2_PLACEMENT_3D ( 'NONE', #884, #675, #879 ) ;
#638 = EDGE_CURVE ( 'NONE', #1006, #830, #90, .T. ) ;
#639 = AXIS2_PLACEMENT_3D ( 'NONE', #509, #76, #923 ) ;
#640 = VERTEX_POINT ( 'NONE', #714 ) ;
#641 = VERTEX_POINT ( 'NONE', #305 ) ;
#642 = CARTESIAN_POINT ( 'NONE',  ( 108.7000000000000028, -53.39999999999999858, 142.4119090000000085 ) ) ;
#643 = CARTESIAN_POINT ( 'NONE',  ( 110.5000000000000000, 64.20000000000000284, 152.1119090000000256 ) ) ;
#644 = VERTEX_POINT ( 'NONE', #502 ) ;
#645 = EDGE_CURVE ( 'NONE', #75, #644, #409, .T. ) ;
#646 = LINE ( 'NONE', #331, #122 ) ;
#647 = CARTESIAN_POINT ( 'NONE',  ( 104.5000000000000000, 8.000000000000000000, 146.1119089999999971 ) ) ;
#648 = ORIENTED_EDGE ( 'NONE', *, *, #911, .F. ) ;
#649 = ADVANCED_FACE ( 'NONE', ( #812 ), #840, .F. ) ;
#650 = CARTESIAN_POINT ( 'NONE',  ( 108.7000000000000028, 53.39999999999999858, 142.4119090000000085 ) ) ;
#651 = DIRECTION ( 'NONE',  ( 0.000000000000000000, 0.000000000000000000, 1.000000000000000000 ) ) ;
#652 = CARTESIAN_POINT ( 'NONE',  ( 101.1500000000000057, 57.70000000000000284, 152.1119090000000256 ) ) ;
#653 = AXIS2_PLACEMENT_3D ( 'NONE', #293, #9, #403 ) ;
#654 = VERTEX_POINT ( 'NONE', #522 ) ;
#655 = ORIENTED_EDGE ( 'NONE', *, *, #27, .T. ) ;
#656 = AXIS2_PLACEMENT_3D ( 'NONE', #1080, #651, #128 ) ;
#657 = DIRECTION ( 'NONE',  ( -0.000000000000000000, -0.000000000000000000, -1.000000000000000000 ) ) ;
#658 = DIRECTION ( 'NONE',  ( 0.000000000000000000, 0.000000000000000000, 1.000000000000000000 ) ) ;
#659 = LINE ( 'NONE', #1081, #11 ) ;
#660 = DIRECTION ( 'NONE',  ( 0.000000000000000000, 0.000000000000000000, -1.000000000000000000 ) ) ;
#661 = DIRECTION ( 'NONE',  ( 1.000000000000000000, 0.000000000000000000, 0.000000000000000000 ) ) ;
#662 = CARTESIAN_POINT ( 'NONE',  ( 109.5000000000000000, -65.20000000000000284, 140.1119089999999971 ) ) ;
#663 = AXIS2_PLACEMENT_3D ( 'NONE', #962, #12, #436 ) ;
#664 = FACE_OUTER_BOUND ( 'NONE', #1371, .T. ) ;
#665 = ADVANCED_FACE ( 'NONE', ( #612 ), #1036, .T. ) ;
#666 = CARTESIAN_POINT ( 'NONE',  ( 109.5000000000000000, 65.20000000000000284, 152.1119090000000256 ) ) ;
#667 = FACE_OUTER_BOUND ( 'NONE', #1031, .T. ) ;
#668 = CARTESIAN_POINT ( 'NONE',  ( 110.5000000000000000, -8.000000000000000000, 140.1119089999999971 ) ) ;
#669 = CARTESIAN_POINT ( 'NONE',  ( 104.4000000000000057, -57.70000000000000284, 152.1119090000000256 ) ) ;
#670 = CARTESIAN_POINT ( 'NONE',  ( 98.29999999999999716, 51.00000000000000000, 142.4119090000000085 ) ) ;
#671 = DIRECTION ( 'NONE',  ( 0.000000000000000000, -1.000000000000000000, 0.000000000000000000 ) ) ;
#672 = AXIS2_PLACEMENT_3D ( 'NONE', #798, #807, #270 ) ;
#673 = VECTOR ( 'NONE', #479, 1000.000000000000000 ) ;
#674 = DIRECTION ( 'NONE',  ( 0.000000000000000000, 0.000000000000000000, -1.000000000000000000 ) ) ;
#675 = DIRECTION ( 'NONE',  ( 0.000000000000000000, 0.000000000000000000, -1.000000000000000000 ) ) ;
#676 = CARTESIAN_POINT ( 'NONE',  ( 98.29999999999999716, -50.99999999999999289, 152.1119090000000256 ) ) ;
#677 = DIRECTION ( 'NONE',  ( -0.000000000000000000, 1.000000000000000000, 0.000000000000000000 ) ) ;
#678 = LINE ( 'NONE', #1309, #784 ) ;
#679 = ORIENTED_EDGE ( 'NONE', *, *, #376, .T. ) ;
#680 = EDGE_CURVE ( 'NONE', #1109, #851, #595, .T. ) ;
#681 = CALENDAR_DATE ( 2026, 14, 9 ) ;
#682 = CARTESIAN_POINT ( 'NONE',  ( 100.4999999999999858, 8.000000000000000000, 107.5000000000000142 ) ) ;
#683 = CYLINDRICAL_SURFACE ( 'NONE', #1005, 3.250000000000002665 ) ;
#684 = FACE_OUTER_BOUND ( 'NONE', #1381, .T. ) ;
#685 = ORIENTED_EDGE ( 'NONE', *, *, #1042, .F. ) ;
#686 = SECURITY_CLASSIFICATION_LEVEL ( 'unclassified' ) ;
#687 = EDGE_CURVE ( 'NONE', #737, #199, #705, .T. ) ;
#688 = ORIENTED_EDGE ( 'NONE', *, *, #956, .T. ) ;
#689 = CARTESIAN_POINT ( 'NONE',  ( 0.000000000000000000, 0.000000000000000000, 103.5000000000000142 ) ) ;
#690 = FACE_BOUND ( 'NONE', #261, .T. ) ;
#691 = DIRECTION ( 'NONE',  ( 0.000000000000000000, -1.000000000000000000, 0.000000000000000000 ) ) ;
#692 = EDGE_LOOP ( 'NONE', ( #401, #1010, #207, #857 ) ) ;
#693 = CARTESIAN_POINT ( 'NONE',  ( 99.29999999999999716, -65.20000000000000284, 140.1119089999999971 ) ) ;
#694 = AXIS2_PLACEMENT_3D ( 'NONE', #596, #677, #486 ) ;
#695 = CIRCLE ( 'NONE', #875, 3.250000000000002665 ) ;
#696 = VERTEX_POINT ( 'NONE', #1027 ) ;
#697 = VECTOR ( 'NONE', #1263, 1000.000000000000114 ) ;
#698 = DIRECTION ( 'NONE',  ( 0.000000000000000000, -0.000000000000000000, 1.000000000000000000 ) ) ;
#699 = DIRECTION ( 'NONE',  ( 1.000000000000000000, 0.000000000000000000, -0.000000000000000000 ) ) ;
#700 = CARTESIAN_POINT ( 'NONE',  ( 63.50000000000000000, -8.000000000000000000, 98.00000000000000000 ) ) ;
#701 = ORIENTED_EDGE ( 'NONE', *, *, #73, .T. ) ;
#702 = ORIENTED_EDGE ( 'NONE', *, *, #248, .F. ) ;
#703 = FACE_BOUND ( 'NONE', #224, .T. ) ;
#704 = ORIENTED_EDGE ( 'NONE', *, *, #1290, .F. ) ;
#705 = LINE ( 'NONE', #179, #811 ) ;
#706 = CARTESIAN_POINT ( 'NONE',  ( 104.4000000000000057, 57.70000000000000284, 152.2119090000000199 ) ) ;
#707 = CARTESIAN_POINT ( 'NONE',  ( 63.50000000000000000, 8.000000000000000000, 98.00000000000000000 ) ) ;
#708 = EDGE_CURVE ( 'NONE', #851, #1258, #392, .T. ) ;
#709 = VERTEX_POINT ( 'NONE', #930 ) ;
#710 = VECTOR ( 'NONE', #1097, 1000.000000000000000 ) ;
#711 = ORIENTED_EDGE ( 'NONE', *, *, #548, .F. ) ;
#712 = CARTESIAN_POINT ( 'NONE',  ( 110.5000000000000000, 64.20000000000000284, 140.1119089999999971 ) ) ;
#713 = ORIENTED_EDGE ( 'NONE', *, *, #464, .T. ) ;
#714 = CARTESIAN_POINT ( 'NONE',  ( 68.00000000000000000, -3.000000000000000000, 103.5000000000000000 ) ) ;
#715 = CARTESIAN_POINT ( 'NONE',  ( 98.29999999999999716, 53.39999999999999858, 140.1119089999999971 ) ) ;
#716 = ORIENTED_EDGE ( 'NONE', *, *, #1278, .T. ) ;
#717 = EDGE_LOOP ( 'NONE', ( #585, #254, #290, #622, #417, #311, #295, #616 ) ) ;
#718 = ADVANCED_FACE ( 'NONE', ( #1365 ), #825, .F. ) ;
#719 = ORIENTED_EDGE ( 'NONE', *, *, #248, .T. ) ;
#720 = VECTOR ( 'NONE', #443, 1000.000000000000000 ) ;
#721 = DIRECTION ( 'NONE',  ( 1.000000000000000000, 0.000000000000000000, 0.000000000000000000 ) ) ;
#722 = DIRECTION ( 'NONE',  ( 0.000000000000000000, -1.000000000000000000, -0.000000000000000000 ) ) ;
#723 = AXIS2_PLACEMENT_3D ( 'NONE', #795, #691, #1114 ) ;
#724 = EDGE_LOOP ( 'NONE', ( #1370, #1350, #719, #630 ) ) ;
#725 = ORIENTED_EDGE ( 'NONE', *, *, #27, .F. ) ;
#726 = EDGE_CURVE ( 'NONE', #1039, #2, #86, .T. ) ;
#727 = ORIENTED_EDGE ( 'NONE', *, *, #1145, .F. ) ;
#728 = CARTESIAN_POINT ( 'NONE',  ( 110.5000000000000000, 64.20000000000000284, 152.1119090000000256 ) ) ;
#729 = DIRECTION ( 'NONE',  ( 0.000000000000000000, 1.000000000000000000, 0.000000000000000000 ) ) ;
#730 = CARTESIAN_POINT ( 'NONE',  ( 98.29999999999999716, -50.99999999999999289, 140.1119089999999971 ) ) ;
#731 = VERTEX_POINT ( 'NONE', #932 ) ;
#732 = ORIENTED_EDGE ( 'NONE', *, *, #708, .T. ) ;
#733 = ORIENTED_EDGE ( 'NONE', *, *, #988, .F. ) ;
#734 = FACE_OUTER_BOUND ( 'NONE', #1353, .T. ) ;
#735 = CARTESIAN_POINT ( 'NONE',  ( 0.000000000000000000, 0.000000000000000000, 98.00000000000000000 ) ) ;
#736 = EDGE_CURVE ( 'NONE', #1109, #985, #584, .T. ) ;
#737 = VERTEX_POINT ( 'NONE', #1044 ) ;
#738 = ORIENTED_EDGE ( 'NONE', *, *, #1096, .T. ) ;
#739 = CARTESIAN_POINT ( 'NONE',  ( 64.00000000000000000, -3.000000000000000000, 103.5000000000000000 ) ) ;
#740 = VECTOR ( 'NONE', #1271, 1000.000000000000000 ) ;
#741 = DIRECTION ( 'NONE',  ( -0.000000000000000000, 0.000000000000000000, 1.000000000000000000 ) ) ;
#742 = EDGE_CURVE ( 'NONE', #1234, #385, #854, .T. ) ;
#743 = AXIS2_PLACEMENT_3D ( 'NONE', #157, #898, #560 ) ;
#744 = VECTOR ( 'NONE', #1019, 1000.000000000000000 ) ;
#745 = VERTEX_POINT ( 'NONE', #1157 ) ;
#746 = CIRCLE ( 'NONE', #326, 4.000000000000003553 ) ;
#747 = ORIENTED_EDGE ( 'NONE', *, *, #7, .F. ) ;
#748 = DIRECTION ( 'NONE',  ( 0.000000000000000000, -0.000000000000000000, -1.000000000000000000 ) ) ;
#749 = DIRECTION ( 'NONE',  ( 0.000000000000000000, 1.000000000000000000, 0.000000000000000000 ) ) ;
#750 = EDGE_CURVE ( 'NONE', #935, #919, #945, .T. ) ;
#751 = VERTEX_POINT ( 'NONE', #209 ) ;
#752 = CARTESIAN_POINT ( 'NONE',  ( 110.5000000000000000, -64.20000000000000284, 140.1119089999999971 ) ) ;
#753 = DIRECTION ( 'NONE',  ( 0.000000000000000000, -0.000000000000000000, -1.000000000000000000 ) ) ;
#754 = LINE ( 'NONE', #767, #1206 ) ;
#755 = CARTESIAN_POINT ( 'NONE',  ( 109.5000000000000000, 65.20000000000000284, 152.1119090000000256 ) ) ;
#756 = VERTEX_POINT ( 'NONE', #629 ) ;
#757 = ADVANCED_FACE ( 'NONE', ( #636 ), #940, .T. ) ;
#758 = DIRECTION ( 'NONE',  ( 1.000000000000000000, 0.000000000000000000, -0.000000000000000000 ) ) ;
#759 = CARTESIAN_POINT ( 'NONE',  ( 104.4000000000000057, 57.70000000000000284, 148.9119090000000085 ) ) ;
#760 = DIRECTION ( 'NONE',  ( 1.000000000000000000, 0.000000000000000000, -0.000000000000000000 ) ) ;
#761 = CIRCLE ( 'NONE', #672, 3.250000000000002665 ) ;
#762 = EDGE_LOOP ( 'NONE', ( #1209, #96, #733, #1273 ) ) ;
#763 = AXIS2_PLACEMENT_3D ( 'NONE', #1179, #1293, #748 ) ;
#764 = DIRECTION ( 'NONE',  ( -1.000000000000000000, 0.000000000000000000, 0.000000000000000000 ) ) ;
#765 = EDGE_CURVE ( 'NONE', #731, #282, #613, .T. ) ;
#766 = DIRECTION ( 'NONE',  ( 0.7071067811865474617, -0.000000000000000000, 0.7071067811865474617 ) ) ;
#767 = CARTESIAN_POINT ( 'NONE',  ( 68.00000000000000000, 3.000000000000000000, 103.5000000000000000 ) ) ;
#768 = CARTESIAN_POINT ( 'NONE',  ( 108.7000000000000028, 0.000000000000000000, 140.1119089999999971 ) ) ;
#769 = CARTESIAN_POINT ( 'NONE',  ( 98.29999999999999716, -64.20000000000000284, 140.1119089999999971 ) ) ;
#770 = DIRECTION ( 'NONE',  ( 0.000000000000000000, 0.000000000000000000, 1.000000000000000000 ) ) ;
#771 = VECTOR ( 'NONE', #448, 1000.000000000000000 ) ;
#772 = DIRECTION ( 'NONE',  ( 1.000000000000000000, 0.000000000000000000, -0.000000000000000000 ) ) ;
#773 = CARTESIAN_POINT ( 'NONE',  ( 68.00000000000000000, -3.000000000000000000, 103.5000000000000000 ) ) ;
#774 = ORIENTED_EDGE ( 'NONE', *, *, #821, .F. ) ;
#775 = COORDINATED_UNIVERSAL_TIME_OFFSET ( 8, 0, .AHEAD. ) ;
#776 = CARTESIAN_POINT ( 'NONE',  ( 108.7000000000000028, -53.39999999999999858, 142.4119090000000085 ) ) ;
#777 = CARTESIAN_POINT ( 'NONE',  ( 66.00000000000000000, 3.100000000000000089, 108.0119049999999987 ) ) ;
#778 = DIRECTION ( 'NONE',  ( 0.000000000000000000, -0.000000000000000000, -1.000000000000000000 ) ) ;
#779 = EDGE_CURVE ( 'NONE', #282, #737, #217, .T. ) ;
#780 = VECTOR ( 'NONE', #1224, 1000.000000000000000 ) ;
#781 = ORIENTED_EDGE ( 'NONE', *, *, #369, .T. ) ;
#782 = VECTOR ( 'NONE', #852, 1000.000000000000000 ) ;
#783 = APPROVAL_STATUS ( 'not_yet_approved' ) ;
#784 = VECTOR ( 'NONE', #1202, 1000.000000000000000 ) ;
#785 = LINE ( 'NONE', #1319, #1351 ) ;
#786 = DIRECTION ( 'NONE',  ( -0.7071067811865474617, 0.7071067811865474617, 0.000000000000000000 ) ) ;
#787 = DIRECTION ( 'NONE',  ( -0.000000000000000000, -0.000000000000000000, -1.000000000000000000 ) ) ;
#788 = ORIENTED_EDGE ( 'NONE', *, *, #471, .F. ) ;
#789 = EDGE_CURVE ( 'NONE', #1146, #1039, #108, .T. ) ;
#790 = APPROVAL_ROLE ( '' ) ;
#791 = EDGE_LOOP ( 'NONE', ( #1137, #1127, #175, #1053 ) ) ;
#792 = DIRECTION ( 'NONE',  ( 0.7071067811865474617, 0.000000000000000000, 0.7071067811865474617 ) ) ;
#793 = AXIS2_PLACEMENT_3D ( 'NONE', #552, #1292, #349 ) ;
#794 = CARTESIAN_POINT ( 'NONE',  ( 101.5000000000000000, 8.000000000000000000, 140.1119089999999971 ) ) ;
#795 = CARTESIAN_POINT ( 'NONE',  ( 101.5000000000000000, 8.000000000000000000, 137.1119089999999971 ) ) ;
#796 = ORIENTED_EDGE ( 'NONE', *, *, #148, .T. ) ;
#797 = PRODUCT_DEFINITION_FORMATION_WITH_SPECIFIED_SOURCE ( '任何', '', #1363, .NOT_KNOWN. ) ;
#798 = CARTESIAN_POINT ( 'NONE',  ( 104.4000000000000057, -57.70000000000000284, 148.9119090000000085 ) ) ;
#799 = ADVANCED_FACE ( 'NONE', ( #1277 ), #411, .F. ) ;
#800 = DIRECTION ( 'NONE',  ( -0.000000000000000000, 0.000000000000000000, 1.000000000000000000 ) ) ;
#801 = DIRECTION ( 'NONE',  ( 0.7071067811865475727, 0.7071067811865475727, -0.000000000000000000 ) ) ;
#802 = CARTESIAN_POINT ( 'NONE',  ( 101.5000000000000000, -8.000000000000000000, 140.1119089999999971 ) ) ;
#803 = ORIENTED_EDGE ( 'NONE', *, *, #891, .F. ) ;
#804 = ORIENTED_EDGE ( 'NONE', *, *, #200, .F. ) ;
#805 = AXIS2_PLACEMENT_3D ( 'NONE', #123, #860, #236 ) ;
#806 =( NAMED_UNIT ( * ) SI_UNIT ( $, .STERADIAN. ) SOLID_ANGLE_UNIT ( ) );
#807 = DIRECTION ( 'NONE',  ( 0.000000000000000000, 0.000000000000000000, 1.000000000000000000 ) ) ;
#808 = CIRCLE ( 'NONE', #564, 1.649999999999998579 ) ;
#809 = ORIENTED_EDGE ( 'NONE', *, *, #91, .F. ) ;
#810 = EDGE_CURVE ( 'NONE', #751, #230, #99, .T. ) ;
#811 = VECTOR ( 'NONE', #604, 1000.000000000000114 ) ;
#812 = FACE_OUTER_BOUND ( 'NONE', #544, .T. ) ;
#813 = CARTESIAN_POINT ( 'NONE',  ( 108.7000000000000028, 53.39999999999999858, 140.1119089999999971 ) ) ;
#814 = LINE ( 'NONE', #917, #142 ) ;
#815 = ORIENTED_EDGE ( 'NONE', *, *, #84, .T. ) ;
#816 = ORIENTED_EDGE ( 'NONE', *, *, #1014, .F. ) ;
#817 = LINE ( 'NONE', #1333, #780 ) ;
#818 = ORIENTED_EDGE ( 'NONE', *, *, #165, .T. ) ;
#819 = CARTESIAN_POINT ( 'NONE',  ( 98.29999999999999716, 64.20000000000000284, 152.1119090000000256 ) ) ;
#820 = LINE ( 'NONE', #166, #164 ) ;
#821 = EDGE_CURVE ( 'NONE', #1052, #1, #523, .T. ) ;
#822 = ORIENTED_EDGE ( 'NONE', *, *, #1376, .F. ) ;
#823 = VERTEX_POINT ( 'NONE', #730 ) ;
#824 = APPROVAL_STATUS ( 'not_yet_approved' ) ;
#825 = PLANE ( 'NONE',  #34 ) ;
#826 = LINE ( 'NONE', #1256, #720 ) ;
#827 = ORIENTED_EDGE ( 'NONE', *, *, #931, .T. ) ;
#828 = ADVANCED_FACE ( 'NONE', ( #1383 ), #1141, .F. ) ;
#829 = ORIENTED_EDGE ( 'NONE', *, *, #73, .F. ) ;
#830 = VERTEX_POINT ( 'NONE', #715 ) ;
#831 = VECTOR ( 'NONE', #549, 1000.000000000000000 ) ;
#832 = DIRECTION ( 'NONE',  ( 0.000000000000000000, 0.000000000000000000, -1.000000000000000000 ) ) ;
#833 = PLANE ( 'NONE',  #1364 ) ;
#834 = DIRECTION ( 'NONE',  ( 0.000000000000000000, 0.000000000000000000, 1.000000000000000000 ) ) ;
#835 = VECTOR ( 'NONE', #163, 1000.000000000000114 ) ;
#836 = ORIENTED_EDGE ( 'NONE', *, *, #891, .T. ) ;
#837 = EDGE_LOOP ( 'NONE', ( #648, #934 ) ) ;
#838 = DATE_AND_TIME ( #928, #1136 ) ;
#839 = ORIENTED_EDGE ( 'NONE', *, *, #994, .F. ) ;
#840 = PLANE ( 'NONE',  #457 ) ;
#841 = DIRECTION ( 'NONE',  ( 0.000000000000000000, -0.000000000000000000, 1.000000000000000000 ) ) ;
#842 = EDGE_LOOP ( 'NONE', ( #781, #1238, #279, #160 ) ) ;
#843 = ORIENTED_EDGE ( 'NONE', *, *, #556, .T. ) ;
#844 = VECTOR ( 'NONE', #764, 1000.000000000000000 ) ;
#845 = COORDINATED_UNIVERSAL_TIME_OFFSET ( 8, 0, .AHEAD. ) ;
#846 = ORIENTED_EDGE ( 'NONE', *, *, #1042, .T. ) ;
#847 = ADVANCED_FACE ( 'NONE', ( #620 ), #187, .F. ) ;
#848 = PLANE ( 'NONE',  #763 ) ;
#849 = DIRECTION ( 'NONE',  ( -0.000000000000000000, -0.000000000000000000, -1.000000000000000000 ) ) ;
#850 = ORIENTED_EDGE ( 'NONE', *, *, #951, .T. ) ;
#851 = VERTEX_POINT ( 'NONE', #1149 ) ;
#852 = DIRECTION ( 'NONE',  ( 0.000000000000000000, 0.000000000000000000, -1.000000000000000000 ) ) ;
#853 = ADVANCED_FACE ( 'NONE', ( #536 ), #960, .F. ) ;
#854 = LINE ( 'NONE', #1058, #1032 ) ;
#855 = EDGE_CURVE ( 'NONE', #756, #641, #826, .T. ) ;
#856 = VECTOR ( 'NONE', #1106, 1000.000000000000000 ) ;
#857 = ORIENTED_EDGE ( 'NONE', *, *, #973, .T. ) ;
#858 = LINE ( 'NONE', #1178, #906 ) ;
#859 = DIRECTION ( 'NONE',  ( 0.000000000000000000, -1.000000000000000000, 0.000000000000000000 ) ) ;
#860 = DIRECTION ( 'NONE',  ( 0.000000000000000000, 1.000000000000000000, 0.000000000000000000 ) ) ;
#861 = CC_DESIGN_PERSON_AND_ORGANIZATION_ASSIGNMENT ( #903, #1216, ( #1363 ) ) ;
#862 = EDGE_CURVE ( 'NONE', #654, #895, #332, .T. ) ;
#863 = ORIENTED_EDGE ( 'NONE', *, *, #726, .F. ) ;
#864 = VECTOR ( 'NONE', #657, 1000.000000000000000 ) ;
#865 = CARTESIAN_POINT ( 'NONE',  ( 104.4000000000000057, -57.70000000000000284, 148.9119090000000085 ) ) ;
#866 = CARTESIAN_POINT ( 'NONE',  ( 108.7000000000000028, 53.39999999999999858, 142.4119090000000085 ) ) ;
#867 = LINE ( 'NONE', #228, #611 ) ;
#868 = CARTESIAN_POINT ( 'NONE',  ( 68.00000000000000000, -3.000000000000000000, 108.2118049999999982 ) ) ;
#869 = EDGE_CURVE ( 'NONE', #1275, #1146, #867, .T. ) ;
#870 = CYLINDRICAL_SURFACE ( 'NONE', #793, 3.250000000000002665 ) ;
#871 = DIRECTION ( 'NONE',  ( 0.7071067811865474617, 0.7071067811865474617, 0.000000000000000000 ) ) ;
#872 = CARTESIAN_POINT ( 'NONE',  ( 98.29999999999999716, 64.20000000000000284, 152.1119090000000256 ) ) ;
#873 = AXIS2_PLACEMENT_3D ( 'NONE', #245, #25, #559 ) ;
#874 = LINE ( 'NONE', #242, #1380 ) ;
#875 = AXIS2_PLACEMENT_3D ( 'NONE', #1205, #1011, #990 ) ;
#876 = AXIS2_PLACEMENT_3D ( 'NONE', #1043, #1131, #515 ) ;
#877 = FACE_OUTER_BOUND ( 'NONE', #692, .T. ) ;
#878 = EDGE_CURVE ( 'NONE', #709, #1006, #1076, .T. ) ;
#879 = DIRECTION ( 'NONE',  ( -1.000000000000000000, 0.000000000000000000, 0.000000000000000000 ) ) ;
#880 = DIRECTION ( 'NONE',  ( -1.000000000000000000, 0.000000000000000000, 0.000000000000000000 ) ) ;
#881 = LINE ( 'NONE', #1200, #214 ) ;
#882 = DIRECTION ( 'NONE',  ( -1.000000000000000000, 0.000000000000000000, 0.000000000000000000 ) ) ;
#883 = CARTESIAN_POINT ( 'NONE',  ( 101.5000000000000000, -8.000000000000000000, 140.1119089999999971 ) ) ;
#884 = CARTESIAN_POINT ( 'NONE',  ( 104.4000000000000057, 57.70000000000000284, 152.2119089999999915 ) ) ;
#885 = EDGE_CURVE ( 'NONE', #641, #745, #966, .T. ) ;
#886 = DIRECTION ( 'NONE',  ( 0.000000000000000000, 0.000000000000000000, 1.000000000000000000 ) ) ;
#887 = LINE ( 'NONE', #768, #54 ) ;
#888 = VERTEX_POINT ( 'NONE', #1175 ) ;
#889 = COORDINATED_UNIVERSAL_TIME_OFFSET ( 8, 0, .AHEAD. ) ;
#890 = CARTESIAN_POINT ( 'NONE',  ( 0.000000000000000000, -51.00000000000000000, 140.1119089999999971 ) ) ;
#891 = EDGE_CURVE ( 'NONE', #1317, #420, #972, .T. ) ;
#892 = DIRECTION ( 'NONE',  ( 0.000000000000000000, -1.000000000000000000, 0.000000000000000000 ) ) ;
#893 = ORIENTED_EDGE ( 'NONE', *, *, #1240, .F. ) ;
#894 = VECTOR ( 'NONE', #1138, 1000.000000000000000 ) ;
#895 = VERTEX_POINT ( 'NONE', #484 ) ;
#896 = COORDINATED_UNIVERSAL_TIME_OFFSET ( 8, 0, .AHEAD. ) ;
#897 = EDGE_LOOP ( 'NONE', ( #1360, #1359, #324, #169 ) ) ;
#898 = DIRECTION ( 'NONE',  ( 0.000000000000000000, 0.000000000000000000, -1.000000000000000000 ) ) ;
#899 = DIRECTION ( 'NONE',  ( 1.000000000000000000, 0.000000000000000000, 0.000000000000000000 ) ) ;
#900 = CARTESIAN_POINT ( 'NONE',  ( 101.1500000000000057, 57.70000000000000284, 152.2119090000000199 ) ) ;
#901 = ORIENTED_EDGE ( 'NONE', *, *, #335, .T. ) ;
#902 = ADVANCED_FACE ( 'NONE', ( #338 ), #1300, .F. ) ;
#903 = PERSON_AND_ORGANIZATION ( #348, #537 ) ;
#904 = CARTESIAN_POINT ( 'NONE',  ( 101.5000000000000000, 8.000000000000000000, 137.1119089999999971 ) ) ;
#905 = CARTESIAN_POINT ( 'NONE',  ( 110.5000000000000000, -64.20000000000000284, 152.1119090000000256 ) ) ;
#906 = VECTOR ( 'NONE', #1287, 1000.000000000000000 ) ;
#907 = DIRECTION ( 'NONE',  ( 1.000000000000000000, 0.000000000000000000, 0.000000000000000000 ) ) ;
#908 = CARTESIAN_POINT ( 'NONE',  ( 108.7000000000000028, -51.00000000000000000, 140.1119089999999971 ) ) ;
#909 = ORIENTED_EDGE ( 'NONE', *, *, #994, .T. ) ;
#910 = CC_DESIGN_APPROVAL ( #588, ( #310 ) ) ;
#911 = EDGE_CURVE ( 'NONE', #111, #608, #1144, .T. ) ;
#912 = APPLICATION_PROTOCOL_DEFINITION ( 'international standard', 'config_control_design', 1994, #511 ) ;
#913 = CARTESIAN_POINT ( 'NONE',  ( 98.29999999999999716, 64.20000000000000284, 140.1119089999999971 ) ) ;
#914 = ORIENTED_EDGE ( 'NONE', *, *, #645, .T. ) ;
#915 = FACE_OUTER_BOUND ( 'NONE', #943, .T. ) ;
#916 = DIRECTION ( 'NONE',  ( 0.000000000000000000, 0.000000000000000000, -1.000000000000000000 ) ) ;
#917 = CARTESIAN_POINT ( 'NONE',  ( 0.000000000000000000, 8.000000000000000000, 140.1119089999999971 ) ) ;
#918 = ORIENTED_EDGE ( 'NONE', *, *, #462, .F. ) ;
#919 = VERTEX_POINT ( 'NONE', #1071 ) ;
#920 = VECTOR ( 'NONE', #849, 1000.000000000000000 ) ;
#921 = CARTESIAN_POINT ( 'NONE',  ( 98.29999999999999716, 64.20000000000000284, 142.4119090000000085 ) ) ;
#922 = EDGE_LOOP ( 'NONE', ( #1291, #287, #506, #468 ) ) ;
#923 = DIRECTION ( 'NONE',  ( 1.000000000000000000, 0.000000000000000000, 0.000000000000000000 ) ) ;
#924 = CARTESIAN_POINT ( 'NONE',  ( 63.50000000000000000, -8.000000000000000000, 103.5000000000000142 ) ) ;
#925 = CIRCLE ( 'NONE', #104, 1.649999999999998579 ) ;
#926 = EDGE_LOOP ( 'NONE', ( #399, #492, #359, #942, #633, #316, #1061, #1143, #725, #809, #189, #496, #774, #197, #747, #1015, #302, #89, #863, #704 ) ) ;
#927 = ORIENTED_EDGE ( 'NONE', *, *, #63, .F. ) ;
#928 = CALENDAR_DATE ( 2026, 14, 9 ) ;
#929 = ORIENTED_EDGE ( 'NONE', *, *, #43, .F. ) ;
#930 = CARTESIAN_POINT ( 'NONE',  ( 98.29999999999999716, 64.20000000000000284, 152.1119090000000256 ) ) ;
#931 = EDGE_CURVE ( 'NONE', #1369, #212, #453, .T. ) ;
#932 = CARTESIAN_POINT ( 'NONE',  ( 68.00000000000000000, -3.000000000000000000, 108.0119049999999987 ) ) ;
#933 = AXIS2_PLACEMENT_3D ( 'NONE', #202, #98, #539 ) ;
#934 = ORIENTED_EDGE ( 'NONE', *, *, #352, .F. ) ;
#935 = VERTEX_POINT ( 'NONE', #652 ) ;
#936 = CC_DESIGN_SECURITY_CLASSIFICATION ( #180, ( #797 ) ) ;
#937 = ORIENTED_EDGE ( 'NONE', *, *, #742, .T. ) ;
#938 = DIRECTION ( 'NONE',  ( 0.000000000000000000, -1.000000000000000000, 0.000000000000000000 ) ) ;
#939 = CARTESIAN_POINT ( 'NONE',  ( 0.000000000000000000, 0.000000000000000000, 142.4119090000000085 ) ) ;
#940 = PLANE ( 'NONE',  #250 ) ;
#941 = EDGE_CURVE ( 'NONE', #745, #361, #542, .T. ) ;
#942 = ORIENTED_EDGE ( 'NONE', *, *, #1002, .F. ) ;
#943 = EDGE_LOOP ( 'NONE', ( #998, #944, #836, #538 ) ) ;
#944 = ORIENTED_EDGE ( 'NONE', *, *, #241, .F. ) ;
#945 = CIRCLE ( 'NONE', #1320, 3.250000000000002665 ) ;
#946 = CARTESIAN_POINT ( 'NONE',  ( 106.0500000000000114, 57.70000000000000284, 140.1119089999999971 ) ) ;
#947 = CARTESIAN_POINT ( 'NONE',  ( 0.000000000000000000, 51.00000000000000000, 140.1119089999999971 ) ) ;
#948 = VECTOR ( 'NONE', #186, 1000.000000000000000 ) ;
#949 = EDGE_LOOP ( 'NONE', ( #816, #893, #1327, #957 ) ) ;
#950 = ORIENTED_EDGE ( 'NONE', *, *, #591, .T. ) ;
#951 = EDGE_CURVE ( 'NONE', #322, #88, #754, .T. ) ;
#952 = ORIENTED_EDGE ( 'NONE', *, *, #148, .F. ) ;
#953 = CARTESIAN_POINT ( 'NONE',  ( 109.5000000000000000, -65.20000000000000284, 152.1119090000000256 ) ) ;
#954 = DIRECTION ( 'NONE',  ( 1.000000000000000000, 0.000000000000000000, 0.000000000000000000 ) ) ;
#955 = ORIENTED_EDGE ( 'NONE', *, *, #1226, .F. ) ;
#956 = EDGE_CURVE ( 'NONE', #255, #895, #659, .T. ) ;
#957 = ORIENTED_EDGE ( 'NONE', *, *, #1088, .F. ) ;
#958 = APPROVAL_PERSON_ORGANIZATION ( #1152, #1123, #632 ) ;
#959 = CARTESIAN_POINT ( 'NONE',  ( 104.4000000000000057, 57.70000000000000284, 140.1119089999999971 ) ) ;
#960 = CYLINDRICAL_SURFACE ( 'NONE', #653, 1.649999999999998579 ) ;
#961 = EDGE_LOOP ( 'NONE', ( #815, #727, #1223, #1279 ) ) ;
#962 = CARTESIAN_POINT ( 'NONE',  ( 104.4000000000000057, -57.70000000000000284, 148.9119090000000085 ) ) ;
#963 = CC_DESIGN_PERSON_AND_ORGANIZATION_ASSIGNMENT ( #999, #1326, ( #797 ) ) ;
#964 = DIRECTION ( 'NONE',  ( -0.000000000000000000, -1.000000000000000000, 0.000000000000000000 ) ) ;
#965 = VECTOR ( 'NONE', #285, 1000.000000000000000 ) ;
#966 = LINE ( 'NONE', #438, #50 ) ;
#967 = ADVANCED_FACE ( 'NONE', ( #1091 ), #554, .F. ) ;
#968 = CIRCLE ( 'NONE', #656, 1.649999999999998579 ) ;
#969 = EDGE_LOOP ( 'NONE', ( #1102, #421, #713, #625 ) ) ;
#970 = FACE_OUTER_BOUND ( 'NONE', #1062, .T. ) ;
#971 = PLANE ( 'NONE',  #1189 ) ;
#972 = LINE ( 'NONE', #345, #321 ) ;
#973 = EDGE_CURVE ( 'NONE', #745, #1167, #57, .T. ) ;
#974 = CARTESIAN_POINT ( 'NONE',  ( 110.5000000000000000, -64.20000000000000284, 140.1119089999999971 ) ) ;
#975 = LINE ( 'NONE', #226, #534 ) ;
#976 = CARTESIAN_POINT ( 'NONE',  ( 99.29999999999999716, 65.20000000000000284, 152.1119090000000256 ) ) ;
#977 = DIRECTION ( 'NONE',  ( 0.000000000000000000, 0.000000000000000000, -1.000000000000000000 ) ) ;
#978 = DIRECTION ( 'NONE',  ( -0.000000000000000000, -0.000000000000000000, -1.000000000000000000 ) ) ;
#979 = ADVANCED_FACE ( 'NONE', ( #664 ), #1085, .F. ) ;
#980 = FACE_OUTER_BOUND ( 'NONE', #58, .T. ) ;
#981 = PLANE ( 'NONE',  #986 ) ;
#982 = LINE ( 'NONE', #31, #231 ) ;
#983 = DIRECTION ( 'NONE',  ( -1.000000000000000000, 0.000000000000000000, 0.000000000000000000 ) ) ;
#984 = AXIS2_PLACEMENT_3D ( 'NONE', #52, #259, #907 ) ;
#985 = VERTEX_POINT ( 'NONE', #327 ) ;
#986 = AXIS2_PLACEMENT_3D ( 'NONE', #1099, #356, #770 ) ;
#987 = VECTOR ( 'NONE', #315, 1000.000000000000114 ) ;
#988 = EDGE_CURVE ( 'NONE', #288, #354, #1093, .T. ) ;
#989 = CARTESIAN_POINT ( 'NONE',  ( 107.6500000000000057, 57.70000000000000284, 148.9119090000000085 ) ) ;
#990 = DIRECTION ( 'NONE',  ( 1.000000000000000000, 0.000000000000000000, 0.000000000000000000 ) ) ;
#991 = CARTESIAN_POINT ( 'NONE',  ( 0.000000000000000000, -53.39999999999999858, 140.1119089999999971 ) ) ;
#992 = ORIENTED_EDGE ( 'NONE', *, *, #1135, .F. ) ;
#993 = EDGE_CURVE ( 'NONE', #282, #322, #982, .T. ) ;
#994 = EDGE_CURVE ( 'NONE', #1183, #393, #562, .T. ) ;
#995 = PLANE ( 'NONE',  #252 ) ;
#996 = PLANE ( 'NONE',  #984 ) ;
#997 = LINE ( 'NONE', #755, #125 ) ;
#998 = ORIENTED_EDGE ( 'NONE', *, *, #7, .T. ) ;
#999 = PERSON_AND_ORGANIZATION ( #348, #537 ) ;
#1000 = APPROVAL ( #783, '未' ) ;
#1001 = CARTESIAN_POINT ( 'NONE',  ( 99.29999999999999716, 65.20000000000000284, 152.1119090000000256 ) ) ;
#1002 = EDGE_CURVE ( 'NONE', #42, #382, #16, .T. ) ;
#1003 = CARTESIAN_POINT ( 'NONE',  ( 66.00000000000000000, -3.000000000000000000, 108.0119049999999987 ) ) ;
#1004 = LINE ( 'NONE', #1125, #213 ) ;
#1005 = AXIS2_PLACEMENT_3D ( 'NONE', #706, #916, #1248 ) ;
#1006 = VERTEX_POINT ( 'NONE', #913 ) ;
#1007 = AXIS2_PLACEMENT_3D ( 'NONE', #759, #221, #216 ) ;
#1008 = CARTESIAN_POINT ( 'NONE',  ( 98.29999999999999716, -64.20000000000000284, 152.1119090000000256 ) ) ;
#1009 = DIRECTION ( 'NONE',  ( -0.000000000000000000, 0.000000000000000000, -1.000000000000000000 ) ) ;
#1010 = ORIENTED_EDGE ( 'NONE', *, *, #1184, .F. ) ;
#1011 = DIRECTION ( 'NONE',  ( 0.000000000000000000, -0.000000000000000000, -1.000000000000000000 ) ) ;
#1012 = CARTESIAN_POINT ( 'NONE',  ( 64.00000000000000000, 3.000000000000000000, 108.2118049999999982 ) ) ;
#1013 = CARTESIAN_POINT ( 'NONE',  ( 108.7000000000000028, -53.39999999999999858, 142.4119090000000085 ) ) ;
#1014 = EDGE_CURVE ( 'NONE', #413, #1343, #378, .T. ) ;
#1015 = ORIENTED_EDGE ( 'NONE', *, *, #638, .F. ) ;
#1016 = DIRECTION ( 'NONE',  ( 0.000000000000000000, 0.000000000000000000, 1.000000000000000000 ) ) ;
#1017 = DIRECTION ( 'NONE',  ( -0.000000000000000000, 0.000000000000000000, 1.000000000000000000 ) ) ;
#1018 = ORIENTED_EDGE ( 'NONE', *, *, #1323, .T. ) ;
#1019 = DIRECTION ( 'NONE',  ( 0.000000000000000000, -1.000000000000000000, 0.000000000000000000 ) ) ;
#1020 = CARTESIAN_POINT ( 'NONE',  ( 100.0999999999999943, 51.00000000000000000, 142.4119090000000085 ) ) ;
#1021 = CARTESIAN_POINT ( 'NONE',  ( 98.29999999999999716, 64.20000000000000284, 140.1119089999999971 ) ) ;
#1022 = ORIENTED_EDGE ( 'NONE', *, *, #1358, .F. ) ;
#1023 = ORIENTED_EDGE ( 'NONE', *, *, #1184, .T. ) ;
#1024 = ADVANCED_FACE ( 'NONE', ( #384 ), #1352, .F. ) ;
#1025 = DIRECTION ( 'NONE',  ( -1.000000000000000000, 0.000000000000000000, -0.000000000000000000 ) ) ;
#1026 = ORIENTED_EDGE ( 'NONE', *, *, #358, .F. ) ;
#1027 = CARTESIAN_POINT ( 'NONE',  ( 108.7000000000000028, -51.00000000000000000, 142.4119090000000085 ) ) ;
#1028 = CARTESIAN_POINT ( 'NONE',  ( 98.29999999999999716, -53.39999999999999858, 140.1119089999999971 ) ) ;
#1029 = FACE_OUTER_BOUND ( 'NONE', #1266, .T. ) ;
#1030 = ORIENTED_EDGE ( 'NONE', *, *, #319, .T. ) ;
#1031 = EDGE_LOOP ( 'NONE', ( #679, #1046, #1130, #194, #205, #424, #1281, #950 ) ) ;
#1032 = VECTOR ( 'NONE', #4, 1000.000000000000114 ) ;
#1033 = EDGE_CURVE ( 'NONE', #919, #354, #817, .T. ) ;
#1034 = CIRCLE ( 'NONE', #275, 1.649999999999998579 ) ;
#1035 = ORIENTED_EDGE ( 'NONE', *, *, #951, .F. ) ;
#1036 = PLANE ( 'NONE',  #144 ) ;
#1037 = VECTOR ( 'NONE', #555, 1000.000000000000000 ) ;
#1038 = DIRECTION ( 'NONE',  ( 1.000000000000000000, 0.000000000000000000, 0.000000000000000000 ) ) ;
#1039 = VERTEX_POINT ( 'NONE', #712 ) ;
#1040 = ORIENTED_EDGE ( 'NONE', *, *, #174, .T. ) ;
#1041 = ORIENTED_EDGE ( 'NONE', *, *, #116, .T. ) ;
#1042 = EDGE_CURVE ( 'NONE', #304, #183, #761, .T. ) ;
#1043 = CARTESIAN_POINT ( 'NONE',  ( 108.7000000000000028, 53.39999999999999858, 142.4119090000000085 ) ) ;
#1044 = CARTESIAN_POINT ( 'NONE',  ( 66.00000000000000000, 3.000000000000000000, 108.0119049999999987 ) ) ;
#1045 = ORIENTED_EDGE ( 'NONE', *, *, #789, .T. ) ;
#1046 = ORIENTED_EDGE ( 'NONE', *, *, #1268, .T. ) ;
#1047 = EDGE_LOOP ( 'NONE', ( #839, #701, #429, #514 ) ) ;
#1048 = DIRECTION ( 'NONE',  ( 0.000000000000000000, 1.000000000000000000, 0.000000000000000000 ) ) ;
#1049 = LINE ( 'NONE', #1197, #844 ) ;
#1050 = DIRECTION ( 'NONE',  ( 1.000000000000000000, 0.000000000000000000, 0.000000000000000000 ) ) ;
#1051 = EDGE_CURVE ( 'NONE', #385, #416, #491, .T. ) ;
#1052 = VERTEX_POINT ( 'NONE', #170 ) ;
#1053 = ORIENTED_EDGE ( 'NONE', *, *, #51, .T. ) ;
#1054 = ORIENTED_EDGE ( 'NONE', *, *, #335, .F. ) ;
#1055 = VECTOR ( 'NONE', #749, 1000.000000000000000 ) ;
#1056 = CARTESIAN_POINT ( 'NONE',  ( 101.1500000000000057, 57.70000000000000284, 148.9119090000000085 ) ) ;
#1057 = AXIS2_PLACEMENT_3D ( 'NONE', #1322, #597, #367 ) ;
#1058 = CARTESIAN_POINT ( 'NONE',  ( 98.29999999999999716, -64.20000000000000284, 140.1119089999999971 ) ) ;
#1059 = VECTOR ( 'NONE', #626, 1000.000000000000000 ) ;
#1060 = ADVANCED_FACE ( 'NONE', ( #703, #1120, #593 ), #65, .F. ) ;
#1061 = ORIENTED_EDGE ( 'NONE', *, *, #742, .F. ) ;
#1062 = EDGE_LOOP ( 'NONE', ( #101, #846 ) ) ;
#1063 = CARTESIAN_POINT ( 'NONE',  ( 104.4000000000000057, -57.70000000000000284, 148.9119090000000085 ) ) ;
#1064 = CARTESIAN_POINT ( 'NONE',  ( 109.5000000000000000, 65.20000000000000284, 152.1119090000000256 ) ) ;
#1065 = AXIS2_PLACEMENT_3D ( 'NONE', #939, #628, #1264 ) ;
#1066 = ORIENTED_EDGE ( 'NONE', *, *, #185, .F. ) ;
#1067 = CC_DESIGN_DATE_AND_TIME_ASSIGNMENT ( #249, #149, ( #310 ) ) ;
#1068 = EDGE_CURVE ( 'NONE', #382, #1369, #178, .T. ) ;
#1069 = APPROVAL_PERSON_ORGANIZATION ( #1311, #588, #37 ) ;
#1070 = LINE ( 'NONE', #117, #1379 ) ;
#1071 = CARTESIAN_POINT ( 'NONE',  ( 107.6500000000000057, 57.70000000000000284, 152.1119090000000256 ) ) ;
#1072 = ORIENTED_EDGE ( 'NONE', *, *, #885, .T. ) ;
#1073 = LINE ( 'NONE', #120, #864 ) ;
#1074 = EDGE_CURVE ( 'NONE', #895, #1167, #74, .T. ) ;
#1075 = FACE_OUTER_BOUND ( 'NONE', #1218, .T. ) ;
#1076 = LINE ( 'NONE', #1289, #340 ) ;
#1077 = VECTOR ( 'NONE', #964, 1000.000000000000000 ) ;
#1078 = FACE_OUTER_BOUND ( 'NONE', #81, .T. ) ;
#1079 = LINE ( 'NONE', #238, #771 ) ;
#1080 = CARTESIAN_POINT ( 'NONE',  ( 104.4000000000000057, 57.70000000000000284, 148.9119090000000085 ) ) ;
#1081 = CARTESIAN_POINT ( 'NONE',  ( 110.5000000000000000, 8.000000000000000000, 146.1119089999999971 ) ) ;
#1082 = CARTESIAN_POINT ( 'NONE',  ( 109.5000000000000000, 65.20000000000000284, 140.1119089999999971 ) ) ;
#1083 = DIRECTION ( 'NONE',  ( 1.000000000000000000, 0.000000000000000000, 0.000000000000000000 ) ) ;
#1084 = DIRECTION ( 'NONE',  ( 0.000000000000000000, 0.000000000000000000, 1.000000000000000000 ) ) ;
#1085 = CYLINDRICAL_SURFACE ( 'NONE', #452, 1.649999999999998579 ) ;
#1086 = CARTESIAN_POINT ( 'NONE',  ( 104.4000000000000057, -57.70000000000000284, 152.2119090000000199 ) ) ;
#1087 = DIRECTION ( 'NONE',  ( 0.000000000000000000, -1.000000000000000000, 0.000000000000000000 ) ) ;
#1088 = EDGE_CURVE ( 'NONE', #1343, #278, #1107, .T. ) ;
#1089 = MECHANICAL_CONTEXT ( 'NONE', #223, 'mechanical' ) ;
#1090 = FACE_OUTER_BOUND ( 'NONE', #961, .T. ) ;
#1091 = FACE_OUTER_BOUND ( 'NONE', #521, .T. ) ;
#1092 = FACE_OUTER_BOUND ( 'NONE', #1338, .T. ) ;
#1093 = CIRCLE ( 'NONE', #873, 3.250000000000002665 ) ;
#1094 = CARTESIAN_POINT ( 'NONE',  ( 102.7500000000000142, 57.70000000000000284, 148.9119090000000085 ) ) ;
#1095 = VECTOR ( 'NONE', #787, 1000.000000000000000 ) ;
#1096 = EDGE_CURVE ( 'NONE', #111, #1246, #1212, .T. ) ;
#1097 = DIRECTION ( 'NONE',  ( -0.000000000000000000, -0.000000000000000000, -1.000000000000000000 ) ) ;
#1098 = VECTOR ( 'NONE', #1193, 1000.000000000000114 ) ;
#1099 = CARTESIAN_POINT ( 'NONE',  ( 108.7000000000000028, 51.00000000000000000, 142.4119090000000085 ) ) ;
#1100 = LINE ( 'NONE', #151, #168 ) ;
#1101 = LINE ( 'NONE', #575, #635 ) ;
#1102 = ORIENTED_EDGE ( 'NONE', *, *, #765, .F. ) ;
#1103 = ORIENTED_EDGE ( 'NONE', *, *, #1278, .F. ) ;
#1104 = DATE_AND_TIME ( #681, #1368 ) ;
#1105 = EDGE_CURVE ( 'NONE', #1362, #308, #820, .T. ) ;
#1106 = DIRECTION ( 'NONE',  ( 1.000000000000000000, 0.000000000000000000, 0.000000000000000000 ) ) ;
#1107 = LINE ( 'NONE', #1228, #1231 ) ;
#1108 = PLANE ( 'NONE',  #1349 ) ;
#1109 = VERTEX_POINT ( 'NONE', #581 ) ;
#1110 = ORIENTED_EDGE ( 'NONE', *, *, #855, .F. ) ;
#1111 = ADVANCED_FACE ( 'NONE', ( #389 ), #683, .F. ) ;
#1112 = PLANE ( 'NONE',  #435 ) ;
#1113 = FACE_BOUND ( 'NONE', #1150, .T. ) ;
#1114 = DIRECTION ( 'NONE',  ( 0.000000000000000000, 0.000000000000000000, -1.000000000000000000 ) ) ;
#1115 = AXIS2_PLACEMENT_3D ( 'NONE', #904, #1245, #1341 ) ;
#1116 = VERTEX_POINT ( 'NONE', #813 ) ;
#1117 = CLOSED_SHELL ( 'NONE', ( #1111, #110, #853, #432, #1126, #649, #233, #1177, #508, #1060, #902, #482, #397, #979, #1195, #828, #718, #489, #156, #22, #220, #1215, #1154, #192, #757, #799, #665, #404, #627, #1249, #439, #1342, #1251, #272, #967, #609, #263, #847, #1296, #445, #124, #1024 ) ) ;
#1118 = VECTOR ( 'NONE', #40, 1000.000000000000000 ) ;
#1119 = LINE ( 'NONE', #161, #444 ) ;
#1120 = FACE_BOUND ( 'NONE', #572, .T. ) ;
#1121 = ORIENTED_EDGE ( 'NONE', *, *, #1201, .F. ) ;
#1122 = PLANE ( 'NONE',  #1302 ) ;
#1123 = APPROVAL ( #824, '未' ) ;
#1124 = CARTESIAN_POINT ( 'NONE',  ( 108.7000000000000028, -53.39999999999999858, 140.1119089999999971 ) ) ;
#1125 = CARTESIAN_POINT ( 'NONE',  ( 64.00000000000000000, -3.000000000000000000, 103.5000000000000000 ) ) ;
#1126 = ADVANCED_FACE ( 'NONE', ( #1132 ), #1221, .F. ) ;
#1127 = ORIENTED_EDGE ( 'NONE', *, *, #878, .F. ) ;
#1128 = VERTEX_POINT ( 'NONE', #1124 ) ;
#1129 = DIRECTION ( 'NONE',  ( 1.000000000000000000, 0.000000000000000000, 0.000000000000000000 ) ) ;
#1130 = ORIENTED_EDGE ( 'NONE', *, *, #1285, .T. ) ;
#1131 = DIRECTION ( 'NONE',  ( 0.000000000000000000, -1.000000000000000000, -0.000000000000000000 ) ) ;
#1132 = FACE_OUTER_BOUND ( 'NONE', #162, .T. ) ;
#1133 = DIRECTION ( 'NONE',  ( -1.000000000000000000, 0.000000000000000000, 0.000000000000000000 ) ) ;
#1134 = ORIENTED_EDGE ( 'NONE', *, *, #1367, .T. ) ;
#1135 = EDGE_CURVE ( 'NONE', #985, #1258, #503, .T. ) ;
#1136 = LOCAL_TIME ( 18, 28, 55.00000000000000000, #845 ) ;
#1137 = ORIENTED_EDGE ( 'NONE', *, *, #130, .T. ) ;
#1138 = DIRECTION ( 'NONE',  ( 0.000000000000000000, -1.000000000000000000, 0.000000000000000000 ) ) ;
#1139 = ORIENTED_EDGE ( 'NONE', *, *, #303, .F. ) ;
#1140 = CARTESIAN_POINT ( 'NONE',  ( 64.00000000000000000, -3.000000000000000000, 108.2118049999999982 ) ) ;
#1141 = PLANE ( 'NONE',  #1259 ) ;
#1142 = ORIENTED_EDGE ( 'NONE', *, *, #579, .F. ) ;
#1143 = ORIENTED_EDGE ( 'NONE', *, *, #165, .F. ) ;
#1144 = CIRCLE ( 'NONE', #1378, 1.649999999999998579 ) ;
#1145 = EDGE_CURVE ( 'NONE', #405, #1052, #373, .T. ) ;
#1146 = VERTEX_POINT ( 'NONE', #605 ) ;
#1147 = LINE ( 'NONE', #819, #527 ) ;
#1148 = VECTOR ( 'NONE', #153, 1000.000000000000000 ) ;
#1149 = CARTESIAN_POINT ( 'NONE',  ( 106.0500000000000114, -57.70000000000000284, 140.1119089999999971 ) ) ;
#1150 = EDGE_LOOP ( 'NONE', ( #219, #1331 ) ) ;
#1151 = ORIENTED_EDGE ( 'NONE', *, *, #38, .F. ) ;
#1152 = PERSON_AND_ORGANIZATION ( #348, #537 ) ;
#1153 = ORIENTED_EDGE ( 'NONE', *, *, #1068, .T. ) ;
#1154 = ADVANCED_FACE ( 'NONE', ( #589 ), #60, .T. ) ;
#1155 = CARTESIAN_POINT ( 'NONE',  ( 99.29999999999999716, -65.20000000000000284, 152.1119090000000256 ) ) ;
#1156 = PLANE ( 'NONE',  #933 ) ;
#1157 = CARTESIAN_POINT ( 'NONE',  ( 63.50000000000000000, 8.000000000000000000, 103.5000000000000142 ) ) ;
#1158 = ORIENTED_EDGE ( 'NONE', *, *, #1088, .T. ) ;
#1159 = ORIENTED_EDGE ( 'NONE', *, *, #328, .F. ) ;
#1160 = LOCAL_TIME ( 18, 28, 55.00000000000000000, #775 ) ;
#1161 = VERTEX_POINT ( 'NONE', #1003 ) ;
#1162 = CARTESIAN_POINT ( 'NONE',  ( 68.00000000000000000, 3.000000000000000000, 108.0119049999999987 ) ) ;
#1163 = EDGE_CURVE ( 'NONE', #737, #1161, #1101, .T. ) ;
#1164 = DIRECTION ( 'NONE',  ( -0.000000000000000000, 0.000000000000000000, 1.000000000000000000 ) ) ;
#1165 = VERTEX_POINT ( 'NONE', #1028 ) ;
#1166 = AXIS2_PLACEMENT_3D ( 'NONE', #1357, #801, #786 ) ;
#1167 = VERTEX_POINT ( 'NONE', #366 ) ;
#1168 = DIRECTION ( 'NONE',  ( -0.000000000000000000, -0.000000000000000000, -1.000000000000000000 ) ) ;
#1169 = VECTOR ( 'NONE', #658, 1000.000000000000000 ) ;
#1170 = DIRECTION ( 'NONE',  ( -1.000000000000000000, 0.000000000000000000, 0.000000000000000000 ) ) ;
#1171 = CIRCLE ( 'NONE', #344, 1.649999999999998579 ) ;
#1172 = ORIENTED_EDGE ( 'NONE', *, *, #526, .T. ) ;
#1173 = ORIENTED_EDGE ( 'NONE', *, *, #1376, .T. ) ;
#1174 = LINE ( 'NONE', #13, #32 ) ;
#1175 = CARTESIAN_POINT ( 'NONE',  ( 98.29999999999999716, -64.20000000000000284, 152.1119090000000256 ) ) ;
#1176 = ORIENTED_EDGE ( 'NONE', *, *, #708, .F. ) ;
#1177 = ADVANCED_FACE ( 'NONE', ( #380 ), #996, .T. ) ;
#1178 = CARTESIAN_POINT ( 'NONE',  ( 98.29999999999999716, 64.20000000000000284, 140.1119089999999971 ) ) ;
#1179 = CARTESIAN_POINT ( 'NONE',  ( 110.5000000000000000, 8.000000000000000000, 146.1119089999999971 ) ) ;
#1180 = UNCERTAINTY_MEASURE_WITH_UNIT (LENGTH_MEASURE( 1.000000000000000082E-05 ), #377, 'distance_accuracy_value', 'NONE');
#1181 = DIRECTION ( 'NONE',  ( -0.000000000000000000, -0.000000000000000000, -1.000000000000000000 ) ) ;
#1182 = EDGE_LOOP ( 'NONE', ( #955, #474, #738, #513 ) ) ;
#1183 = VERTEX_POINT ( 'NONE', #46 ) ;
#1184 = EDGE_CURVE ( 'NONE', #361, #154, #69, .T. ) ;
#1185 = CARTESIAN_POINT ( 'NONE',  ( 98.29999999999999716, -53.39999999999999858, 142.4119090000000085 ) ) ;
#1186 = DIRECTION ( 'NONE',  ( 0.000000000000000000, 0.000000000000000000, -1.000000000000000000 ) ) ;
#1187 = AXIS2_PLACEMENT_3D ( 'NONE', #431, #834, #954 ) ;
#1188 = DIRECTION ( 'NONE',  ( 0.000000000000000000, 0.000000000000000000, 1.000000000000000000 ) ) ;
#1189 = AXIS2_PLACEMENT_3D ( 'NONE', #442, #3, #871 ) ;
#1190 = VERTEX_POINT ( 'NONE', #794 ) ;
#1191 = VECTOR ( 'NONE', #41, 1000.000000000000000 ) ;
#1192 = FACE_OUTER_BOUND ( 'NONE', #434, .T. ) ;
#1193 = DIRECTION ( 'NONE',  ( 0.7071067811865474617, -0.7071067811865474617, 0.000000000000000000 ) ) ;
#1194 = CARTESIAN_POINT ( 'NONE',  ( 104.4000000000000057, 57.70000000000000284, 148.9119090000000085 ) ) ;
#1195 = ADVANCED_FACE ( 'NONE', ( #1336 ), #480, .F. ) ;
#1196 = DIRECTION ( 'NONE',  ( 0.000000000000000000, -1.000000000000000000, 0.000000000000000000 ) ) ;
#1197 = CARTESIAN_POINT ( 'NONE',  ( 108.7000000000000028, -51.00000000000000000, 142.4119090000000085 ) ) ;
#1198 = CARTESIAN_POINT ( 'NONE',  ( 108.7000000000000028, 51.00000000000000000, 142.4119090000000085 ) ) ;
#1199 = DIRECTION ( 'NONE',  ( -1.000000000000000000, 0.000000000000000000, 0.000000000000000000 ) ) ;
#1200 = CARTESIAN_POINT ( 'NONE',  ( 109.5000000000000000, 65.20000000000000284, 140.1119089999999971 ) ) ;
#1201 = EDGE_CURVE ( 'NONE', #520, #405, #472, .T. ) ;
#1202 = DIRECTION ( 'NONE',  ( 1.000000000000000000, 0.000000000000000000, 0.000000000000000000 ) ) ;
#1203 = CALENDAR_DATE ( 2026, 14, 9 ) ;
#1204 = CARTESIAN_POINT ( 'NONE',  ( 99.29999999999999716, -65.20000000000000284, 140.1119089999999971 ) ) ;
#1205 = CARTESIAN_POINT ( 'NONE',  ( 104.4000000000000057, -57.70000000000000284, 152.1119090000000256 ) ) ;
#1206 = VECTOR ( 'NONE', #880, 1000.000000000000000 ) ;
#1207 = ORIENTED_EDGE ( 'NONE', *, *, #736, .T. ) ;
#1208 = VECTOR ( 'NONE', #143, 1000.000000000000000 ) ;
#1209 = ORIENTED_EDGE ( 'NONE', *, *, #256, .F. ) ;
#1210 = EDGE_CURVE ( 'NONE', #88, #308, #1329, .T. ) ;
#1211 = DIRECTION ( 'NONE',  ( 0.000000000000000000, 0.000000000000000000, -1.000000000000000000 ) ) ;
#1212 = LINE ( 'NONE', #274, #965 ) ;
#1213 = LINE ( 'NONE', #1021, #1324 ) ;
#1214 = EDGE_LOOP ( 'NONE', ( #407, #488, #603, #1172 ) ) ;
#1215 = ADVANCED_FACE ( 'NONE', ( #690, #1113, #667 ), #833, .T. ) ;
#1216 = PERSON_AND_ORGANIZATION_ROLE ( 'design_owner' ) ;
#1217 = VECTOR ( 'NONE', #494, 1000.000000000000000 ) ;
#1218 = EDGE_LOOP ( 'NONE', ( #176, #400, #79, #850, #1250 ) ) ;
#1219 = LINE ( 'NONE', #273, #80 ) ;
#1220 = PRODUCT_DEFINITION_SHAPE ( 'NONE', 'NONE',  #310 ) ;
#1221 = PLANE ( 'NONE',  #363 ) ;
#1222 = LINE ( 'NONE', #900, #478 ) ;
#1223 = ORIENTED_EDGE ( 'NONE', *, *, #225, .T. ) ;
#1224 = DIRECTION ( 'NONE',  ( 0.000000000000000000, 0.000000000000000000, -1.000000000000000000 ) ) ;
#1225 = CC_DESIGN_DATE_AND_TIME_ASSIGNMENT ( #82, #507, ( #180 ) ) ;
#1226 = EDGE_CURVE ( 'NONE', #608, #583, #441, .T. ) ;
#1227 = LINE ( 'NONE', #1001, #835 ) ;
#1228 = CARTESIAN_POINT ( 'NONE',  ( 100.0999999999999943, -53.39999999999999858, 142.4119090000000085 ) ) ;
#1229 = VECTOR ( 'NONE', #172, 1000.000000000000000 ) ;
#1230 = LINE ( 'NONE', #182, #235 ) ;
#1231 = VECTOR ( 'NONE', #152, 1000.000000000000000 ) ;
#1232 = ORIENTED_EDGE ( 'NONE', *, *, #1163, .T. ) ;
#1233 = VECTOR ( 'NONE', #70, 1000.000000000000000 ) ;
#1234 = VERTEX_POINT ( 'NONE', #769 ) ;
#1235 = VECTOR ( 'NONE', #85, 1000.000000000000000 ) ;
#1236 = APPLICATION_PROTOCOL_DEFINITION ( 'international standard', 'config_control_design', 1994, #223 ) ;
#1237 = CARTESIAN_POINT ( 'NONE',  ( 0.000000000000000000, 0.000000000000000000, 140.1119089999999971 ) ) ;
#1238 = ORIENTED_EDGE ( 'NONE', *, *, #1163, .F. ) ;
#1239 = CARTESIAN_POINT ( 'NONE',  ( 110.5000000000000000, -64.20000000000000284, 152.1119090000000256 ) ) ;
#1240 = EDGE_CURVE ( 'NONE', #696, #413, #1049, .T. ) ;
#1241 = CARTESIAN_POINT ( 'NONE',  ( 108.7000000000000028, 51.00000000000000000, 142.4119090000000085 ) ) ;
#1242 = CARTESIAN_POINT ( 'NONE',  ( 99.29999999999999716, -65.20000000000000284, 152.1119090000000256 ) ) ;
#1243 = ORIENTED_EDGE ( 'NONE', *, *, #680, .T. ) ;
#1244 = ORIENTED_EDGE ( 'NONE', *, *, #599, .F. ) ;
#1245 = DIRECTION ( 'NONE',  ( 0.000000000000000000, -1.000000000000000000, 0.000000000000000000 ) ) ;
#1246 = VERTEX_POINT ( 'NONE', #342 ) ;
#1247 = LINE ( 'NONE', #619, #744 ) ;
#1248 = DIRECTION ( 'NONE',  ( -1.000000000000000000, 0.000000000000000000, 0.000000000000000000 ) ) ;
#1249 = ADVANCED_FACE ( 'NONE', ( #1192 ), #1297, .F. ) ;
#1250 = ORIENTED_EDGE ( 'NONE', *, *, #1323, .F. ) ;
#1251 = ADVANCED_FACE ( 'NONE', ( #980 ), #870, .F. ) ;
#1252 = ORIENTED_EDGE ( 'NONE', *, *, #499, .F. ) ;
#1253 = SHAPE_DEFINITION_REPRESENTATION ( #1220, #447 ) ;
#1254 = VERTEX_POINT ( 'NONE', #243 ) ;
#1255 = CARTESIAN_POINT ( 'NONE',  ( 109.5000000000000000, -65.20000000000000284, 152.1119090000000256 ) ) ;
#1256 = CARTESIAN_POINT ( 'NONE',  ( 100.4999999999999858, 0.000000000000000000, 103.5000000000000142 ) ) ;
#1257 = ORIENTED_EDGE ( 'NONE', *, *, #313, .F. ) ;
#1258 = VERTEX_POINT ( 'NONE', #92 ) ;
#1259 = AXIS2_PLACEMENT_3D ( 'NONE', #419, #113, #841 ) ;
#1260 = EDGE_CURVE ( 'NONE', #154, #654, #1079, .T. ) ;
#1261 = CIRCLE ( 'NONE', #586, 3.250000000000002665 ) ;
#1262 = ORIENTED_EDGE ( 'NONE', *, *, #1074, .T. ) ;
#1263 = DIRECTION ( 'NONE',  ( -0.7071067811865474617, 0.7071067811865474617, 0.000000000000000000 ) ) ;
#1264 = DIRECTION ( 'NONE',  ( 1.000000000000000000, 0.000000000000000000, 0.000000000000000000 ) ) ;
#1265 = CARTESIAN_POINT ( 'NONE',  ( 0.000000000000000000, 0.000000000000000000, 142.4119090000000085 ) ) ;
#1266 = EDGE_LOOP ( 'NONE', ( #394, #927, #72, #1045 ) ) ;
#1267 = ORIENTED_EDGE ( 'NONE', *, *, #284, .T. ) ;
#1268 = EDGE_CURVE ( 'NONE', #598, #300, #975, .T. ) ;
#1269 = EDGE_LOOP ( 'NONE', ( #1030, #1243, #732, #992 ) ) ;
#1270 = DIRECTION ( 'NONE',  ( -0.000000000000000000, 1.000000000000000000, 0.000000000000000000 ) ) ;
#1271 = DIRECTION ( 'NONE',  ( 0.000000000000000000, 1.000000000000000000, 0.000000000000000000 ) ) ;
#1272 = VECTOR ( 'NONE', #729, 1000.000000000000000 ) ;
#1273 = ORIENTED_EDGE ( 'NONE', *, *, #174, .F. ) ;
#1274 = APPROVAL_PERSON_ORGANIZATION ( #573, #1000, #790 ) ;
#1275 = VERTEX_POINT ( 'NONE', #410 ) ;
#1276 = DIRECTION ( 'NONE',  ( 0.000000000000000000, 0.000000000000000000, 1.000000000000000000 ) ) ;
#1277 = FACE_OUTER_BOUND ( 'NONE', #949, .T. ) ;
#1278 = EDGE_CURVE ( 'NONE', #361, #756, #330, .T. ) ;
#1279 = ORIENTED_EDGE ( 'NONE', *, *, #241, .T. ) ;
#1280 = VECTOR ( 'NONE', #289, 1000.000000000000000 ) ;
#1281 = ORIENTED_EDGE ( 'NONE', *, *, #454, .T. ) ;
#1282 = FACE_BOUND ( 'NONE', #837, .T. ) ;
#1283 = AXIS2_PLACEMENT_3D ( 'NONE', #777, #465, #792 ) ;
#1284 = CARTESIAN_POINT ( 'NONE',  ( 63.50000000000000000, 8.000000000000000000, 103.5000000000000142 ) ) ;
#1285 = EDGE_CURVE ( 'NONE', #300, #1275, #28, .T. ) ;
#1286 = ORIENTED_EDGE ( 'NONE', *, *, #1210, .F. ) ;
#1287 = DIRECTION ( 'NONE',  ( 0.000000000000000000, -1.000000000000000000, 0.000000000000000000 ) ) ;
#1288 = CARTESIAN_POINT ( 'NONE',  ( 98.29999999999999716, -53.40000000000000568, 152.1119090000000256 ) ) ;
#1289 = CARTESIAN_POINT ( 'NONE',  ( 98.29999999999999716, 64.20000000000000284, 152.1119090000000256 ) ) ;
#1290 = EDGE_CURVE ( 'NONE', #255, #1039, #455, .T. ) ;
#1291 = ORIENTED_EDGE ( 'NONE', *, *, #210, .T. ) ;
#1292 = DIRECTION ( 'NONE',  ( 0.000000000000000000, 0.000000000000000000, -1.000000000000000000 ) ) ;
#1293 = DIRECTION ( 'NONE',  ( 0.000000000000000000, -1.000000000000000000, 0.000000000000000000 ) ) ;
#1294 = DIRECTION ( 'NONE',  ( -0.000000000000000000, -0.000000000000000000, -1.000000000000000000 ) ) ;
#1295 = PLANE ( 'NONE',  #570 ) ;
#1296 = ADVANCED_FACE ( 'NONE', ( #877 ), #1156, .F. ) ;
#1297 = PLANE ( 'NONE',  #1065 ) ;
#1298 = CARTESIAN_POINT ( 'NONE',  ( 98.29999999999999716, -51.00000000000000000, 142.4119090000000085 ) ) ;
#1299 = VECTOR ( 'NONE', #1321, 1000.000000000000000 ) ;
#1300 = PLANE ( 'NONE',  #412 ) ;
#1301 = AXIS2_PLACEMENT_3D ( 'NONE', #1086, #580, #1308 ) ;
#1302 = AXIS2_PLACEMENT_3D ( 'NONE', #68, #171, #297 ) ;
#1303 = CARTESIAN_POINT ( 'NONE',  ( 108.7000000000000028, 0.000000000000000000, 140.1119089999999971 ) ) ;
#1304 = DIRECTION ( 'NONE',  ( -0.000000000000000000, 0.000000000000000000, 1.000000000000000000 ) ) ;
#1305 = EDGE_CURVE ( 'NONE', #183, #304, #466, .T. ) ;
#1306 = CARTESIAN_POINT ( 'NONE',  ( 63.50000000000000000, -8.000000000000000000, 103.5000000000000142 ) ) ;
#1307 = DIRECTION ( 'NONE',  ( -0.000000000000000000, 0.000000000000000000, -1.000000000000000000 ) ) ;
#1308 = DIRECTION ( 'NONE',  ( -1.000000000000000000, 0.000000000000000000, 0.000000000000000000 ) ) ;
#1309 = CARTESIAN_POINT ( 'NONE',  ( 0.000000000000000000, 53.39999999999999858, 140.1119089999999971 ) ) ;
#1310 = VECTOR ( 'NONE', #306, 1000.000000000000114 ) ;
#1311 = PERSON_AND_ORGANIZATION ( #348, #537 ) ;
#1312 = CARTESIAN_POINT ( 'NONE',  ( 100.4999999999999858, -8.000000000000000000, 107.5000000000000142 ) ) ;
#1313 = CC_DESIGN_APPROVAL ( #1123, ( #180 ) ) ;
#1314 = FACE_OUTER_BOUND ( 'NONE', #969, .T. ) ;
#1315 = EDGE_CURVE ( 'NONE', #1, #823, #858, .T. ) ;
#1316 = CARTESIAN_POINT ( 'NONE',  ( 107.6500000000000057, -57.70000000000000284, 152.2119090000000199 ) ) ;
#1317 = VERTEX_POINT ( 'NONE', #650 ) ;
#1318 = DATE_AND_TIME ( #1203, #1160 ) ;
#1319 = CARTESIAN_POINT ( 'NONE',  ( 98.29999999999999716, 53.39999999999999858, 152.1119090000000256 ) ) ;
#1320 = AXIS2_PLACEMENT_3D ( 'NONE', #203, #196, #298 ) ;
#1321 = DIRECTION ( 'NONE',  ( 0.000000000000000000, 0.000000000000000000, -1.000000000000000000 ) ) ;
#1322 = CARTESIAN_POINT ( 'NONE',  ( 110.5000000000000000, 64.20000000000000284, 152.1119090000000256 ) ) ;
#1323 = EDGE_CURVE ( 'NONE', #199, #88, #1073, .T. ) ;
#1324 = VECTOR ( 'NONE', #495, 1000.000000000000000 ) ;
#1325 = ORIENTED_EDGE ( 'NONE', *, *, #1354, .F. ) ;
#1326 = PERSON_AND_ORGANIZATION_ROLE ( 'creator' ) ;
#1327 = ORIENTED_EDGE ( 'NONE', *, *, #406, .F. ) ;
#1328 = LINE ( 'NONE', #890, #856 ) ;
#1329 = LINE ( 'NONE', #266, #1217 ) ;
#1330 = DIRECTION ( 'NONE',  ( 0.000000000000000000, 0.000000000000000000, -1.000000000000000000 ) ) ;
#1331 = ORIENTED_EDGE ( 'NONE', *, *, #256, .T. ) ;
#1332 = DIRECTION ( 'NONE',  ( -0.000000000000000000, -0.000000000000000000, -1.000000000000000000 ) ) ;
#1333 = CARTESIAN_POINT ( 'NONE',  ( 107.6500000000000057, 57.70000000000000284, 152.2119090000000199 ) ) ;
#1334 = ORIENTED_EDGE ( 'NONE', *, *, #1210, .T. ) ;
#1335 = CARTESIAN_POINT ( 'NONE',  ( 64.00000000000000000, -3.000000000000000000, 108.0119049999999987 ) ) ;
#1336 = FACE_OUTER_BOUND ( 'NONE', #191, .T. ) ;
#1337 = LINE ( 'NONE', #802, #1077 ) ;
#1338 = EDGE_LOOP ( 'NONE', ( #716, #102, #1072, #1375 ) ) ;
#1339 = EDGE_LOOP ( 'NONE', ( #617, #788, #428, #621 ) ) ;
#1340 = APPROVAL_DATE_TIME ( #1318, #588 ) ;
#1341 = DIRECTION ( 'NONE',  ( 0.000000000000000000, 0.000000000000000000, -1.000000000000000000 ) ) ;
#1342 = ADVANCED_FACE ( 'NONE', ( #546, #970 ), #18, .T. ) ;
#1343 = VERTEX_POINT ( 'NONE', #1185 ) ;
#1344 = LINE ( 'NONE', #728, #697 ) ;
#1345 = DIRECTION ( 'NONE',  ( -0.000000000000000000, -0.000000000000000000, -1.000000000000000000 ) ) ;
#1346 = VECTOR ( 'NONE', #899, 1000.000000000000000 ) ;
#1347 = DIRECTION ( 'NONE',  ( 1.000000000000000000, 0.000000000000000000, 0.000000000000000000 ) ) ;
#1348 = ORIENTED_EDGE ( 'NONE', *, *, #464, .F. ) ;
#1349 = AXIS2_PLACEMENT_3D ( 'NONE', #1013, #1133, #159 ) ;
#1350 = ORIENTED_EDGE ( 'NONE', *, *, #1226, .T. ) ;
#1351 = VECTOR ( 'NONE', #1211, 1000.000000000000000 ) ;
#1352 = CYLINDRICAL_SURFACE ( 'NONE', #1115, 3.000000000000002665 ) ;
#1353 = EDGE_LOOP ( 'NONE', ( #268, #533 ) ) ;
#1354 = EDGE_CURVE ( 'NONE', #888, #1234, #232, .T. ) ;
#1355 = VECTOR ( 'NONE', #8, 1000.000000000000000 ) ;
#1356 = DIRECTION ( 'NONE',  ( 0.000000000000000000, -0.000000000000000000, -1.000000000000000000 ) ) ;
#1357 = CARTESIAN_POINT ( 'NONE',  ( 98.29999999999999716, -64.20000000000000284, 152.1119090000000256 ) ) ;
#1358 = EDGE_CURVE ( 'NONE', #551, #75, #64, .T. ) ;
#1359 = ORIENTED_EDGE ( 'NONE', *, *, #138, .F. ) ;
#1360 = ORIENTED_EDGE ( 'NONE', *, *, #1260, .F. ) ;
#1361 = CALENDAR_DATE ( 2026, 14, 9 ) ;
#1362 = VERTEX_POINT ( 'NONE', #490 ) ;
#1363 = PRODUCT ( 'P03_Head_keeper_mouth', 'P03_Head_keeper_mouth', '', ( #1089 ) ) ;
#1364 = AXIS2_PLACEMENT_3D ( 'NONE', #133, #1304, #1373 ) ;
#1365 = FACE_OUTER_BOUND ( 'NONE', #922, .T. ) ;
#1366 = CARTESIAN_POINT ( 'NONE',  ( 68.00000000000000000, 3.000000000000000000, 108.0119049999999987 ) ) ;
#1367 = EDGE_CURVE ( 'NONE', #393, #183, #1119, .T. ) ;
#1368 = LOCAL_TIME ( 18, 28, 55.00000000000000000, #896 ) ;
#1369 = VERTEX_POINT ( 'NONE', #883 ) ;
#1370 = ORIENTED_EDGE ( 'NONE', *, *, #911, .T. ) ;
#1371 = EDGE_LOOP ( 'NONE', ( #577, #1207, #329, #529 ) ) ;
#1372 = DIRECTION ( 'NONE',  ( 0.000000000000000000, -1.000000000000000000, 0.000000000000000000 ) ) ;
#1373 = DIRECTION ( 'NONE',  ( 1.000000000000000000, 0.000000000000000000, 0.000000000000000000 ) ) ;
#1374 = DIRECTION ( 'NONE',  ( -1.000000000000000000, 0.000000000000000000, 0.000000000000000000 ) ) ;
#1375 = ORIENTED_EDGE ( 'NONE', *, *, #941, .T. ) ;
#1376 = EDGE_CURVE ( 'NONE', #212, #551, #475, .T. ) ;
#1377 = ORIENTED_EDGE ( 'NONE', *, *, #821, .T. ) ;
#1378 = AXIS2_PLACEMENT_3D ( 'NONE', #1194, #1188, #141 ) ;
#1379 = VECTOR ( 'NONE', #1168, 1000.000000000000000 ) ;
#1380 = VECTOR ( 'NONE', #660, 1000.000000000000000 ) ;
#1381 = EDGE_LOOP ( 'NONE', ( #94, #334, #229, #1267 ) ) ;
#1382 = CARTESIAN_POINT ( 'NONE',  ( 100.0999999999999943, 51.00000000000000000, 142.4119090000000085 ) ) ;
#1383 = FACE_OUTER_BOUND ( 'NONE', #1339, .T. ) ;
#1384 = EDGE_LOOP ( 'NONE', ( #477, #1232, #528, #264 ) ) ;
ENDSEC;
END-ISO-10303-21;
