ISO-10303-21;
HEADER;
/* Generated by software containing ST-Developer
 * from STEP Tools, Inc. (www.steptools.com) 
 */
/* OPTION: using custom schema-name function */

FILE_DESCRIPTION(
/* description */ (''),
/* implementation_level */ '2;1');

FILE_NAME(
/* name */ 'Battery_6s18650_24V.stp',
/* time_stamp */ '2026-09-11T23:17:08+08:00',
/* author */ (''),
/* organization */ (''),
/* preprocessor_version */ 'ST-DEVELOPER v20',
/* originating_system */ 'SIEMENS PLM Software NX2406.1700',
/* authorisation */ '');

FILE_SCHEMA (('AP203_CONFIGURATION_CONTROLLED_3D_DESIGN_OF_MECHANICAL_PARTS_AND_ASSEMBLIES_MIM_LF { 1 0 10303 403 2 1 2}'));
ENDSEC;

DATA;
#10=PROPERTY_DEFINITION_REPRESENTATION(#14,#12);
#11=PROPERTY_DEFINITION_REPRESENTATION(#15,#13);
#12=REPRESENTATION('',(#16),#1455);
#13=REPRESENTATION('',(#17),#1455);
#14=PROPERTY_DEFINITION('pmi validation property','',#73);
#15=PROPERTY_DEFINITION('pmi validation property','',#73);
#16=VALUE_REPRESENTATION_ITEM('number of annotations',COUNT_MEASURE(0.));
#17=VALUE_REPRESENTATION_ITEM('number of views',COUNT_MEASURE(0.));
#18=SHAPE_REPRESENTATION_RELATIONSHIP('None',
'relationship between 6s18650\X2\753582AF7EC4\X0\24V\X2\5E264FDD62A4677F\X0\_
objects-None and 6s18650\X2\753582AF7EC4\X0\24V\X2\5E264FDD62A4677F\X0\_
objects-None',#84,#19);
#19=ADVANCED_BREP_SHAPE_REPRESENTATION(
'6s18650\X2\753582AF7EC4\X0\24V\X2\5E264FDD62A4677F\X0\_objects-None',(#130,
#131,#132,#133,#134,#135),#1455);
#20=APPLIED_APPROVAL_ASSIGNMENT(#32,(#74));
#21=APPLIED_APPROVAL_ASSIGNMENT(#33,(#76));
#22=APPLIED_APPROVAL_ASSIGNMENT(#34,(#46));
#23=APPROVAL_PERSON_ORGANIZATION(#38,#32,#26);
#24=APPROVAL_PERSON_ORGANIZATION(#39,#33,#27);
#25=APPROVAL_PERSON_ORGANIZATION(#40,#34,#28);
#26=APPROVAL_ROLE('approver');
#27=APPROVAL_ROLE('approver');
#28=APPROVAL_ROLE('approver');
#29=APPROVAL_DATE_TIME(#54,#32);
#30=APPROVAL_DATE_TIME(#55,#33);
#31=APPROVAL_DATE_TIME(#56,#34);
#32=APPROVAL(#35,' ');
#33=APPROVAL(#36,' ');
#34=APPROVAL(#37,' ');
#35=APPROVAL_STATUS('not_yet_approved');
#36=APPROVAL_STATUS('not_yet_approved');
#37=APPROVAL_STATUS('not_yet_approved');
#38=PERSON_AND_ORGANIZATION(#44,#41);
#39=PERSON_AND_ORGANIZATION(#44,#42);
#40=PERSON_AND_ORGANIZATION(#44,#43);
#41=ORGANIZATION(' ',' ',' ');
#42=ORGANIZATION(' ',' ',' ');
#43=ORGANIZATION(' ',' ',' ');
#44=PERSON(' ',' ',' ',(' '),$,$);
#45=APPLIED_SECURITY_CLASSIFICATION_ASSIGNMENT(#46,(#76));
#46=SECURITY_CLASSIFICATION(' ',' ',#47);
#47=SECURITY_CLASSIFICATION_LEVEL('confidential');
#48=APPLIED_DATE_AND_TIME_ASSIGNMENT(#52,#50,(#74));
#49=APPLIED_DATE_AND_TIME_ASSIGNMENT(#53,#51,(#46));
#50=DATE_TIME_ROLE('creation_date');
#51=DATE_TIME_ROLE('classification_date');
#52=DATE_AND_TIME(#67,#57);
#53=DATE_AND_TIME(#68,#58);
#54=DATE_AND_TIME(#69,#59);
#55=DATE_AND_TIME(#70,#60);
#56=DATE_AND_TIME(#71,#61);
#57=LOCAL_TIME(0,0,0.,#62);
#58=LOCAL_TIME(0,0,0.,#63);
#59=LOCAL_TIME(0,0,0.,#64);
#60=LOCAL_TIME(0,0,0.,#65);
#61=LOCAL_TIME(0,0,0.,#66);
#62=COORDINATED_UNIVERSAL_TIME_OFFSET(0,0,.BEHIND.);
#63=COORDINATED_UNIVERSAL_TIME_OFFSET(0,0,.BEHIND.);
#64=COORDINATED_UNIVERSAL_TIME_OFFSET(0,0,.BEHIND.);
#65=COORDINATED_UNIVERSAL_TIME_OFFSET(0,0,.BEHIND.);
#66=COORDINATED_UNIVERSAL_TIME_OFFSET(0,0,.BEHIND.);
#67=CALENDAR_DATE(0,1,1);
#68=CALENDAR_DATE(0,1,1);
#69=CALENDAR_DATE(0,1,1);
#70=CALENDAR_DATE(0,1,1);
#71=CALENDAR_DATE(0,1,1);
#72=SHAPE_DEFINITION_REPRESENTATION(#73,#84);
#73=PRODUCT_DEFINITION_SHAPE('','',#74);
#74=PRODUCT_DEFINITION(' ','',#76,#75);
#75=PRODUCT_DEFINITION_CONTEXT('part definition',#83,'design');
#76=PRODUCT_DEFINITION_FORMATION_WITH_SPECIFIED_SOURCE(' ',' ',#78,
 .NOT_KNOWN.);
#77=PRODUCT_RELATED_PRODUCT_CATEGORY('detail','',(#78));
#78=PRODUCT('6s18650\X2\753582AF7EC4\X0\24V\X2\5E264FDD62A4677F\X0\_ob
jects','6s18650\X2\753582AF7EC4\X0\24V\X2\5E264FDD62A4677F\X0\_objects',
' ',(#81));
#79=PRODUCT_CATEGORY('part',' ');
#80=PRODUCT_CATEGORY(' ','');
#81=PRODUCT_CONTEXT(' ',#83,'mechanical');
#82=APPLICATION_PROTOCOL_DEFINITION('international standard',
'config_control_design',2010,#83);
#83=APPLICATION_CONTEXT(
'configuration controlled 3D designs of mechanical parts and assemblie
s');
#84=SHAPE_REPRESENTATION('6s18650\X2\753582AF7EC4\X0\24V\X2\5E264FDD62A4677F\X0\_
objects-None',(#922),#1455);
#85=PRESENTATION_LAYER_ASSIGNMENT('1','Layer 1',(#130,#131,#132,#133,#134,
#135));
#86=STYLED_ITEM('',(#92),#130);
#87=STYLED_ITEM('',(#93),#131);
#88=STYLED_ITEM('',(#94),#132);
#89=STYLED_ITEM('',(#95),#133);
#90=STYLED_ITEM('',(#96),#134);
#91=STYLED_ITEM('',(#97),#135);
#92=PRESENTATION_STYLE_ASSIGNMENT((#98));
#93=PRESENTATION_STYLE_ASSIGNMENT((#99));
#94=PRESENTATION_STYLE_ASSIGNMENT((#100));
#95=PRESENTATION_STYLE_ASSIGNMENT((#101));
#96=PRESENTATION_STYLE_ASSIGNMENT((#102));
#97=PRESENTATION_STYLE_ASSIGNMENT((#103));
#98=SURFACE_STYLE_USAGE(.BOTH.,#104);
#99=SURFACE_STYLE_USAGE(.BOTH.,#105);
#100=SURFACE_STYLE_USAGE(.BOTH.,#106);
#101=SURFACE_STYLE_USAGE(.BOTH.,#107);
#102=SURFACE_STYLE_USAGE(.BOTH.,#108);
#103=SURFACE_STYLE_USAGE(.BOTH.,#109);
#104=SURFACE_SIDE_STYLE('',(#110));
#105=SURFACE_SIDE_STYLE('',(#111));
#106=SURFACE_SIDE_STYLE('',(#112));
#107=SURFACE_SIDE_STYLE('',(#113));
#108=SURFACE_SIDE_STYLE('',(#114));
#109=SURFACE_SIDE_STYLE('',(#115));
#110=SURFACE_STYLE_FILL_AREA(#116);
#111=SURFACE_STYLE_FILL_AREA(#117);
#112=SURFACE_STYLE_FILL_AREA(#118);
#113=SURFACE_STYLE_FILL_AREA(#119);
#114=SURFACE_STYLE_FILL_AREA(#120);
#115=SURFACE_STYLE_FILL_AREA(#121);
#116=FILL_AREA_STYLE('',(#122));
#117=FILL_AREA_STYLE('',(#123));
#118=FILL_AREA_STYLE('',(#124));
#119=FILL_AREA_STYLE('',(#125));
#120=FILL_AREA_STYLE('',(#126));
#121=FILL_AREA_STYLE('',(#127));
#122=FILL_AREA_STYLE_COLOUR('',#128);
#123=FILL_AREA_STYLE_COLOUR('',#129);
#124=FILL_AREA_STYLE_COLOUR('',#129);
#125=FILL_AREA_STYLE_COLOUR('',#129);
#126=FILL_AREA_STYLE_COLOUR('',#129);
#127=FILL_AREA_STYLE_COLOUR('',#129);
#128=COLOUR_RGB('iron gray',0.298039215686275,0.298039215686275,0.298039215686275);
#129=COLOUR_RGB('charcoal gray',0.0470588235294118,0.0470588235294118,0.0470588235294118);
#130=MANIFOLD_SOLID_BREP('',#136);
#131=MANIFOLD_SOLID_BREP('',#137);
#132=MANIFOLD_SOLID_BREP('',#138);
#133=MANIFOLD_SOLID_BREP('',#139);
#134=MANIFOLD_SOLID_BREP('',#140);
#135=MANIFOLD_SOLID_BREP('',#141);
#136=CLOSED_SHELL('',(#178,#179,#180,#181,#182,#183,#184,#185,#186,#187));
#137=CLOSED_SHELL('',(#188,#189,#190,#191,#192,#193));
#138=CLOSED_SHELL('',(#194,#195,#196,#197,#198,#199));
#139=CLOSED_SHELL('',(#200,#201,#202,#203,#204,#205,#206,#207,#208,#209));
#140=CLOSED_SHELL('',(#210,#211,#212,#213,#214,#215));
#141=CLOSED_SHELL('',(#216,#217,#218,#219,#220,#221,#222,#223,#224,#225));
#142=CYLINDRICAL_SURFACE('',#937,10.);
#143=CYLINDRICAL_SURFACE('',#938,10.);
#144=CYLINDRICAL_SURFACE('',#939,10.);
#145=CYLINDRICAL_SURFACE('',#940,10.);
#146=CYLINDRICAL_SURFACE('',#956,13.);
#147=CYLINDRICAL_SURFACE('',#960,10.);
#148=CYLINDRICAL_SURFACE('',#964,10.);
#149=CYLINDRICAL_SURFACE('',#968,13.);
#150=CYLINDRICAL_SURFACE('',#980,13.);
#151=CYLINDRICAL_SURFACE('',#984,10.);
#152=CYLINDRICAL_SURFACE('',#988,10.);
#153=CYLINDRICAL_SURFACE('',#992,13.);
#154=CIRCLE('',#924,10.);
#155=CIRCLE('',#925,10.);
#156=CIRCLE('',#926,10.);
#157=CIRCLE('',#927,10.);
#158=CIRCLE('',#930,10.);
#159=CIRCLE('',#931,10.);
#160=CIRCLE('',#932,10.);
#161=CIRCLE('',#933,10.);
#162=CIRCLE('',#954,13.);
#163=CIRCLE('',#955,13.);
#164=CIRCLE('',#958,10.);
#165=CIRCLE('',#959,10.);
#166=CIRCLE('',#962,10.);
#167=CIRCLE('',#963,10.);
#168=CIRCLE('',#966,13.);
#169=CIRCLE('',#967,13.);
#170=CIRCLE('',#978,13.);
#171=CIRCLE('',#979,13.);
#172=CIRCLE('',#982,10.);
#173=CIRCLE('',#983,10.);
#174=CIRCLE('',#986,10.);
#175=CIRCLE('',#987,10.);
#176=CIRCLE('',#990,13.);
#177=CIRCLE('',#991,13.);
#178=ADVANCED_FACE('',(#262),#226,.F.);
#179=ADVANCED_FACE('',(#263),#227,.F.);
#180=ADVANCED_FACE('',(#264),#228,.F.);
#181=ADVANCED_FACE('',(#265),#229,.F.);
#182=ADVANCED_FACE('',(#266),#230,.T.);
#183=ADVANCED_FACE('',(#267),#231,.F.);
#184=ADVANCED_FACE('',(#268),#142,.T.);
#185=ADVANCED_FACE('',(#269),#143,.T.);
#186=ADVANCED_FACE('',(#270),#144,.T.);
#187=ADVANCED_FACE('',(#271),#145,.T.);
#188=ADVANCED_FACE('',(#272),#232,.F.);
#189=ADVANCED_FACE('',(#273),#233,.F.);
#190=ADVANCED_FACE('',(#274),#234,.F.);
#191=ADVANCED_FACE('',(#275),#235,.F.);
#192=ADVANCED_FACE('',(#276),#236,.T.);
#193=ADVANCED_FACE('',(#277),#237,.F.);
#194=ADVANCED_FACE('',(#278),#238,.T.);
#195=ADVANCED_FACE('',(#279),#239,.T.);
#196=ADVANCED_FACE('',(#280),#240,.T.);
#197=ADVANCED_FACE('',(#281),#241,.T.);
#198=ADVANCED_FACE('',(#282),#242,.F.);
#199=ADVANCED_FACE('',(#283),#243,.T.);
#200=ADVANCED_FACE('',(#284),#244,.T.);
#201=ADVANCED_FACE('',(#285),#146,.T.);
#202=ADVANCED_FACE('',(#286),#245,.T.);
#203=ADVANCED_FACE('',(#287),#147,.F.);
#204=ADVANCED_FACE('',(#288),#246,.T.);
#205=ADVANCED_FACE('',(#289),#148,.F.);
#206=ADVANCED_FACE('',(#290),#247,.T.);
#207=ADVANCED_FACE('',(#291),#149,.T.);
#208=ADVANCED_FACE('',(#292),#248,.F.);
#209=ADVANCED_FACE('',(#293),#249,.T.);
#210=ADVANCED_FACE('',(#294),#250,.T.);
#211=ADVANCED_FACE('',(#295),#251,.T.);
#212=ADVANCED_FACE('',(#296),#252,.T.);
#213=ADVANCED_FACE('',(#297),#253,.T.);
#214=ADVANCED_FACE('',(#298),#254,.F.);
#215=ADVANCED_FACE('',(#299),#255,.T.);
#216=ADVANCED_FACE('',(#300),#256,.F.);
#217=ADVANCED_FACE('',(#301),#150,.T.);
#218=ADVANCED_FACE('',(#302),#257,.F.);
#219=ADVANCED_FACE('',(#303),#151,.F.);
#220=ADVANCED_FACE('',(#304),#258,.F.);
#221=ADVANCED_FACE('',(#305),#152,.F.);
#222=ADVANCED_FACE('',(#306),#259,.F.);
#223=ADVANCED_FACE('',(#307),#153,.T.);
#224=ADVANCED_FACE('',(#308),#260,.T.);
#225=ADVANCED_FACE('',(#309),#261,.F.);
#226=PLANE('',#923);
#227=PLANE('',#928);
#228=PLANE('',#929);
#229=PLANE('',#934);
#230=PLANE('',#935);
#231=PLANE('',#936);
#232=PLANE('',#941);
#233=PLANE('',#942);
#234=PLANE('',#943);
#235=PLANE('',#944);
#236=PLANE('',#945);
#237=PLANE('',#946);
#238=PLANE('',#947);
#239=PLANE('',#948);
#240=PLANE('',#949);
#241=PLANE('',#950);
#242=PLANE('',#951);
#243=PLANE('',#952);
#244=PLANE('',#953);
#245=PLANE('',#957);
#246=PLANE('',#961);
#247=PLANE('',#965);
#248=PLANE('',#969);
#249=PLANE('',#970);
#250=PLANE('',#971);
#251=PLANE('',#972);
#252=PLANE('',#973);
#253=PLANE('',#974);
#254=PLANE('',#975);
#255=PLANE('',#976);
#256=PLANE('',#977);
#257=PLANE('',#981);
#258=PLANE('',#985);
#259=PLANE('',#989);
#260=PLANE('',#993);
#261=PLANE('',#994);
#262=FACE_OUTER_BOUND('',#310,.T.);
#263=FACE_OUTER_BOUND('',#311,.T.);
#264=FACE_OUTER_BOUND('',#312,.T.);
#265=FACE_OUTER_BOUND('',#313,.T.);
#266=FACE_OUTER_BOUND('',#314,.T.);
#267=FACE_OUTER_BOUND('',#315,.T.);
#268=FACE_OUTER_BOUND('',#316,.T.);
#269=FACE_OUTER_BOUND('',#317,.T.);
#270=FACE_OUTER_BOUND('',#318,.T.);
#271=FACE_OUTER_BOUND('',#319,.T.);
#272=FACE_OUTER_BOUND('',#320,.T.);
#273=FACE_OUTER_BOUND('',#321,.T.);
#274=FACE_OUTER_BOUND('',#322,.T.);
#275=FACE_OUTER_BOUND('',#323,.T.);
#276=FACE_OUTER_BOUND('',#324,.T.);
#277=FACE_OUTER_BOUND('',#325,.T.);
#278=FACE_OUTER_BOUND('',#326,.T.);
#279=FACE_OUTER_BOUND('',#327,.T.);
#280=FACE_OUTER_BOUND('',#328,.T.);
#281=FACE_OUTER_BOUND('',#329,.T.);
#282=FACE_OUTER_BOUND('',#330,.T.);
#283=FACE_OUTER_BOUND('',#331,.T.);
#284=FACE_OUTER_BOUND('',#332,.T.);
#285=FACE_OUTER_BOUND('',#333,.T.);
#286=FACE_OUTER_BOUND('',#334,.T.);
#287=FACE_OUTER_BOUND('',#335,.T.);
#288=FACE_OUTER_BOUND('',#336,.T.);
#289=FACE_OUTER_BOUND('',#337,.T.);
#290=FACE_OUTER_BOUND('',#338,.T.);
#291=FACE_OUTER_BOUND('',#339,.T.);
#292=FACE_OUTER_BOUND('',#340,.T.);
#293=FACE_OUTER_BOUND('',#341,.T.);
#294=FACE_OUTER_BOUND('',#342,.T.);
#295=FACE_OUTER_BOUND('',#343,.T.);
#296=FACE_OUTER_BOUND('',#344,.T.);
#297=FACE_OUTER_BOUND('',#345,.T.);
#298=FACE_OUTER_BOUND('',#346,.T.);
#299=FACE_OUTER_BOUND('',#347,.T.);
#300=FACE_OUTER_BOUND('',#348,.T.);
#301=FACE_OUTER_BOUND('',#349,.T.);
#302=FACE_OUTER_BOUND('',#350,.T.);
#303=FACE_OUTER_BOUND('',#351,.T.);
#304=FACE_OUTER_BOUND('',#352,.T.);
#305=FACE_OUTER_BOUND('',#353,.T.);
#306=FACE_OUTER_BOUND('',#354,.T.);
#307=FACE_OUTER_BOUND('',#355,.T.);
#308=FACE_OUTER_BOUND('',#356,.T.);
#309=FACE_OUTER_BOUND('',#357,.T.);
#310=EDGE_LOOP('',(#358,#359,#360,#361));
#311=EDGE_LOOP('',(#362,#363,#364,#365,#366,#367,#368,#369));
#312=EDGE_LOOP('',(#370,#371,#372,#373));
#313=EDGE_LOOP('',(#374,#375,#376,#377,#378,#379,#380,#381));
#314=EDGE_LOOP('',(#382,#383,#384,#385));
#315=EDGE_LOOP('',(#386,#387,#388,#389));
#316=EDGE_LOOP('',(#390,#391,#392,#393));
#317=EDGE_LOOP('',(#394,#395,#396,#397));
#318=EDGE_LOOP('',(#398,#399,#400,#401));
#319=EDGE_LOOP('',(#402,#403,#404,#405));
#320=EDGE_LOOP('',(#406,#407,#408,#409));
#321=EDGE_LOOP('',(#410,#411,#412,#413));
#322=EDGE_LOOP('',(#414,#415,#416,#417));
#323=EDGE_LOOP('',(#418,#419,#420,#421));
#324=EDGE_LOOP('',(#422,#423,#424,#425));
#325=EDGE_LOOP('',(#426,#427,#428,#429));
#326=EDGE_LOOP('',(#430,#431,#432,#433));
#327=EDGE_LOOP('',(#434,#435,#436,#437));
#328=EDGE_LOOP('',(#438,#439,#440,#441));
#329=EDGE_LOOP('',(#442,#443,#444,#445));
#330=EDGE_LOOP('',(#446,#447,#448,#449));
#331=EDGE_LOOP('',(#450,#451,#452,#453));
#332=EDGE_LOOP('',(#454,#455,#456,#457));
#333=EDGE_LOOP('',(#458,#459,#460,#461));
#334=EDGE_LOOP('',(#462,#463,#464,#465));
#335=EDGE_LOOP('',(#466,#467,#468,#469));
#336=EDGE_LOOP('',(#470,#471,#472,#473));
#337=EDGE_LOOP('',(#474,#475,#476,#477));
#338=EDGE_LOOP('',(#478,#479,#480,#481));
#339=EDGE_LOOP('',(#482,#483,#484,#485));
#340=EDGE_LOOP('',(#486,#487,#488,#489,#490,#491,#492,#493));
#341=EDGE_LOOP('',(#494,#495,#496,#497,#498,#499,#500,#501));
#342=EDGE_LOOP('',(#502,#503,#504,#505));
#343=EDGE_LOOP('',(#506,#507,#508,#509));
#344=EDGE_LOOP('',(#510,#511,#512,#513));
#345=EDGE_LOOP('',(#514,#515,#516,#517));
#346=EDGE_LOOP('',(#518,#519,#520,#521));
#347=EDGE_LOOP('',(#522,#523,#524,#525));
#348=EDGE_LOOP('',(#526,#527,#528,#529));
#349=EDGE_LOOP('',(#530,#531,#532,#533));
#350=EDGE_LOOP('',(#534,#535,#536,#537));
#351=EDGE_LOOP('',(#538,#539,#540,#541));
#352=EDGE_LOOP('',(#542,#543,#544,#545));
#353=EDGE_LOOP('',(#546,#547,#548,#549));
#354=EDGE_LOOP('',(#550,#551,#552,#553));
#355=EDGE_LOOP('',(#554,#555,#556,#557));
#356=EDGE_LOOP('',(#558,#559,#560,#561,#562,#563,#564,#565));
#357=EDGE_LOOP('',(#566,#567,#568,#569,#570,#571,#572,#573));
#358=ORIENTED_EDGE('',*,*,#646,.F.);
#359=ORIENTED_EDGE('',*,*,#647,.T.);
#360=ORIENTED_EDGE('',*,*,#648,.T.);
#361=ORIENTED_EDGE('',*,*,#649,.T.);
#362=ORIENTED_EDGE('',*,*,#650,.F.);
#363=ORIENTED_EDGE('',*,*,#651,.T.);
#364=ORIENTED_EDGE('',*,*,#652,.F.);
#365=ORIENTED_EDGE('',*,*,#653,.T.);
#366=ORIENTED_EDGE('',*,*,#646,.T.);
#367=ORIENTED_EDGE('',*,*,#654,.T.);
#368=ORIENTED_EDGE('',*,*,#655,.T.);
#369=ORIENTED_EDGE('',*,*,#656,.T.);
#370=ORIENTED_EDGE('',*,*,#657,.F.);
#371=ORIENTED_EDGE('',*,*,#658,.T.);
#372=ORIENTED_EDGE('',*,*,#650,.T.);
#373=ORIENTED_EDGE('',*,*,#659,.T.);
#374=ORIENTED_EDGE('',*,*,#660,.F.);
#375=ORIENTED_EDGE('',*,*,#661,.T.);
#376=ORIENTED_EDGE('',*,*,#657,.T.);
#377=ORIENTED_EDGE('',*,*,#662,.T.);
#378=ORIENTED_EDGE('',*,*,#663,.T.);
#379=ORIENTED_EDGE('',*,*,#664,.T.);
#380=ORIENTED_EDGE('',*,*,#648,.F.);
#381=ORIENTED_EDGE('',*,*,#665,.T.);
#382=ORIENTED_EDGE('',*,*,#652,.T.);
#383=ORIENTED_EDGE('',*,*,#666,.T.);
#384=ORIENTED_EDGE('',*,*,#660,.T.);
#385=ORIENTED_EDGE('',*,*,#667,.T.);
#386=ORIENTED_EDGE('',*,*,#663,.F.);
#387=ORIENTED_EDGE('',*,*,#668,.T.);
#388=ORIENTED_EDGE('',*,*,#655,.F.);
#389=ORIENTED_EDGE('',*,*,#669,.T.);
#390=ORIENTED_EDGE('',*,*,#651,.F.);
#391=ORIENTED_EDGE('',*,*,#658,.F.);
#392=ORIENTED_EDGE('',*,*,#661,.F.);
#393=ORIENTED_EDGE('',*,*,#666,.F.);
#394=ORIENTED_EDGE('',*,*,#656,.F.);
#395=ORIENTED_EDGE('',*,*,#668,.F.);
#396=ORIENTED_EDGE('',*,*,#662,.F.);
#397=ORIENTED_EDGE('',*,*,#659,.F.);
#398=ORIENTED_EDGE('',*,*,#665,.F.);
#399=ORIENTED_EDGE('',*,*,#647,.F.);
#400=ORIENTED_EDGE('',*,*,#653,.F.);
#401=ORIENTED_EDGE('',*,*,#667,.F.);
#402=ORIENTED_EDGE('',*,*,#664,.F.);
#403=ORIENTED_EDGE('',*,*,#669,.F.);
#404=ORIENTED_EDGE('',*,*,#654,.F.);
#405=ORIENTED_EDGE('',*,*,#649,.F.);
#406=ORIENTED_EDGE('',*,*,#670,.T.);
#407=ORIENTED_EDGE('',*,*,#671,.F.);
#408=ORIENTED_EDGE('',*,*,#672,.F.);
#409=ORIENTED_EDGE('',*,*,#673,.T.);
#410=ORIENTED_EDGE('',*,*,#674,.T.);
#411=ORIENTED_EDGE('',*,*,#675,.F.);
#412=ORIENTED_EDGE('',*,*,#676,.F.);
#413=ORIENTED_EDGE('',*,*,#671,.T.);
#414=ORIENTED_EDGE('',*,*,#677,.T.);
#415=ORIENTED_EDGE('',*,*,#678,.F.);
#416=ORIENTED_EDGE('',*,*,#679,.F.);
#417=ORIENTED_EDGE('',*,*,#675,.T.);
#418=ORIENTED_EDGE('',*,*,#680,.T.);
#419=ORIENTED_EDGE('',*,*,#673,.F.);
#420=ORIENTED_EDGE('',*,*,#681,.F.);
#421=ORIENTED_EDGE('',*,*,#678,.T.);
#422=ORIENTED_EDGE('',*,*,#672,.T.);
#423=ORIENTED_EDGE('',*,*,#676,.T.);
#424=ORIENTED_EDGE('',*,*,#679,.T.);
#425=ORIENTED_EDGE('',*,*,#681,.T.);
#426=ORIENTED_EDGE('',*,*,#670,.F.);
#427=ORIENTED_EDGE('',*,*,#680,.F.);
#428=ORIENTED_EDGE('',*,*,#677,.F.);
#429=ORIENTED_EDGE('',*,*,#674,.F.);
#430=ORIENTED_EDGE('',*,*,#682,.F.);
#431=ORIENTED_EDGE('',*,*,#683,.F.);
#432=ORIENTED_EDGE('',*,*,#684,.T.);
#433=ORIENTED_EDGE('',*,*,#685,.T.);
#434=ORIENTED_EDGE('',*,*,#686,.F.);
#435=ORIENTED_EDGE('',*,*,#685,.F.);
#436=ORIENTED_EDGE('',*,*,#687,.T.);
#437=ORIENTED_EDGE('',*,*,#688,.T.);
#438=ORIENTED_EDGE('',*,*,#689,.F.);
#439=ORIENTED_EDGE('',*,*,#688,.F.);
#440=ORIENTED_EDGE('',*,*,#690,.T.);
#441=ORIENTED_EDGE('',*,*,#691,.T.);
#442=ORIENTED_EDGE('',*,*,#692,.F.);
#443=ORIENTED_EDGE('',*,*,#691,.F.);
#444=ORIENTED_EDGE('',*,*,#693,.T.);
#445=ORIENTED_EDGE('',*,*,#683,.T.);
#446=ORIENTED_EDGE('',*,*,#684,.F.);
#447=ORIENTED_EDGE('',*,*,#693,.F.);
#448=ORIENTED_EDGE('',*,*,#690,.F.);
#449=ORIENTED_EDGE('',*,*,#687,.F.);
#450=ORIENTED_EDGE('',*,*,#682,.T.);
#451=ORIENTED_EDGE('',*,*,#686,.T.);
#452=ORIENTED_EDGE('',*,*,#689,.T.);
#453=ORIENTED_EDGE('',*,*,#692,.T.);
#454=ORIENTED_EDGE('',*,*,#694,.F.);
#455=ORIENTED_EDGE('',*,*,#695,.F.);
#456=ORIENTED_EDGE('',*,*,#696,.T.);
#457=ORIENTED_EDGE('',*,*,#697,.T.);
#458=ORIENTED_EDGE('',*,*,#698,.F.);
#459=ORIENTED_EDGE('',*,*,#697,.F.);
#460=ORIENTED_EDGE('',*,*,#699,.T.);
#461=ORIENTED_EDGE('',*,*,#700,.T.);
#462=ORIENTED_EDGE('',*,*,#701,.F.);
#463=ORIENTED_EDGE('',*,*,#700,.F.);
#464=ORIENTED_EDGE('',*,*,#702,.T.);
#465=ORIENTED_EDGE('',*,*,#703,.T.);
#466=ORIENTED_EDGE('',*,*,#704,.F.);
#467=ORIENTED_EDGE('',*,*,#703,.F.);
#468=ORIENTED_EDGE('',*,*,#705,.T.);
#469=ORIENTED_EDGE('',*,*,#706,.T.);
#470=ORIENTED_EDGE('',*,*,#707,.F.);
#471=ORIENTED_EDGE('',*,*,#706,.F.);
#472=ORIENTED_EDGE('',*,*,#708,.T.);
#473=ORIENTED_EDGE('',*,*,#709,.T.);
#474=ORIENTED_EDGE('',*,*,#710,.F.);
#475=ORIENTED_EDGE('',*,*,#709,.F.);
#476=ORIENTED_EDGE('',*,*,#711,.T.);
#477=ORIENTED_EDGE('',*,*,#712,.T.);
#478=ORIENTED_EDGE('',*,*,#713,.F.);
#479=ORIENTED_EDGE('',*,*,#712,.F.);
#480=ORIENTED_EDGE('',*,*,#714,.T.);
#481=ORIENTED_EDGE('',*,*,#715,.T.);
#482=ORIENTED_EDGE('',*,*,#716,.F.);
#483=ORIENTED_EDGE('',*,*,#715,.F.);
#484=ORIENTED_EDGE('',*,*,#717,.T.);
#485=ORIENTED_EDGE('',*,*,#695,.T.);
#486=ORIENTED_EDGE('',*,*,#696,.F.);
#487=ORIENTED_EDGE('',*,*,#717,.F.);
#488=ORIENTED_EDGE('',*,*,#714,.F.);
#489=ORIENTED_EDGE('',*,*,#711,.F.);
#490=ORIENTED_EDGE('',*,*,#708,.F.);
#491=ORIENTED_EDGE('',*,*,#705,.F.);
#492=ORIENTED_EDGE('',*,*,#702,.F.);
#493=ORIENTED_EDGE('',*,*,#699,.F.);
#494=ORIENTED_EDGE('',*,*,#694,.T.);
#495=ORIENTED_EDGE('',*,*,#698,.T.);
#496=ORIENTED_EDGE('',*,*,#701,.T.);
#497=ORIENTED_EDGE('',*,*,#704,.T.);
#498=ORIENTED_EDGE('',*,*,#707,.T.);
#499=ORIENTED_EDGE('',*,*,#710,.T.);
#500=ORIENTED_EDGE('',*,*,#713,.T.);
#501=ORIENTED_EDGE('',*,*,#716,.T.);
#502=ORIENTED_EDGE('',*,*,#718,.F.);
#503=ORIENTED_EDGE('',*,*,#719,.F.);
#504=ORIENTED_EDGE('',*,*,#720,.T.);
#505=ORIENTED_EDGE('',*,*,#721,.T.);
#506=ORIENTED_EDGE('',*,*,#722,.F.);
#507=ORIENTED_EDGE('',*,*,#721,.F.);
#508=ORIENTED_EDGE('',*,*,#723,.T.);
#509=ORIENTED_EDGE('',*,*,#724,.T.);
#510=ORIENTED_EDGE('',*,*,#725,.F.);
#511=ORIENTED_EDGE('',*,*,#724,.F.);
#512=ORIENTED_EDGE('',*,*,#726,.T.);
#513=ORIENTED_EDGE('',*,*,#727,.T.);
#514=ORIENTED_EDGE('',*,*,#728,.F.);
#515=ORIENTED_EDGE('',*,*,#727,.F.);
#516=ORIENTED_EDGE('',*,*,#729,.T.);
#517=ORIENTED_EDGE('',*,*,#719,.T.);
#518=ORIENTED_EDGE('',*,*,#720,.F.);
#519=ORIENTED_EDGE('',*,*,#729,.F.);
#520=ORIENTED_EDGE('',*,*,#726,.F.);
#521=ORIENTED_EDGE('',*,*,#723,.F.);
#522=ORIENTED_EDGE('',*,*,#718,.T.);
#523=ORIENTED_EDGE('',*,*,#722,.T.);
#524=ORIENTED_EDGE('',*,*,#725,.T.);
#525=ORIENTED_EDGE('',*,*,#728,.T.);
#526=ORIENTED_EDGE('',*,*,#730,.T.);
#527=ORIENTED_EDGE('',*,*,#731,.F.);
#528=ORIENTED_EDGE('',*,*,#732,.F.);
#529=ORIENTED_EDGE('',*,*,#733,.T.);
#530=ORIENTED_EDGE('',*,*,#734,.T.);
#531=ORIENTED_EDGE('',*,*,#735,.F.);
#532=ORIENTED_EDGE('',*,*,#736,.F.);
#533=ORIENTED_EDGE('',*,*,#731,.T.);
#534=ORIENTED_EDGE('',*,*,#737,.T.);
#535=ORIENTED_EDGE('',*,*,#738,.F.);
#536=ORIENTED_EDGE('',*,*,#739,.F.);
#537=ORIENTED_EDGE('',*,*,#735,.T.);
#538=ORIENTED_EDGE('',*,*,#740,.T.);
#539=ORIENTED_EDGE('',*,*,#741,.F.);
#540=ORIENTED_EDGE('',*,*,#742,.F.);
#541=ORIENTED_EDGE('',*,*,#738,.T.);
#542=ORIENTED_EDGE('',*,*,#743,.T.);
#543=ORIENTED_EDGE('',*,*,#744,.F.);
#544=ORIENTED_EDGE('',*,*,#745,.F.);
#545=ORIENTED_EDGE('',*,*,#741,.T.);
#546=ORIENTED_EDGE('',*,*,#746,.T.);
#547=ORIENTED_EDGE('',*,*,#747,.F.);
#548=ORIENTED_EDGE('',*,*,#748,.F.);
#549=ORIENTED_EDGE('',*,*,#744,.T.);
#550=ORIENTED_EDGE('',*,*,#749,.T.);
#551=ORIENTED_EDGE('',*,*,#750,.F.);
#552=ORIENTED_EDGE('',*,*,#751,.F.);
#553=ORIENTED_EDGE('',*,*,#747,.T.);
#554=ORIENTED_EDGE('',*,*,#752,.T.);
#555=ORIENTED_EDGE('',*,*,#733,.F.);
#556=ORIENTED_EDGE('',*,*,#753,.F.);
#557=ORIENTED_EDGE('',*,*,#750,.T.);
#558=ORIENTED_EDGE('',*,*,#732,.T.);
#559=ORIENTED_EDGE('',*,*,#736,.T.);
#560=ORIENTED_EDGE('',*,*,#739,.T.);
#561=ORIENTED_EDGE('',*,*,#742,.T.);
#562=ORIENTED_EDGE('',*,*,#745,.T.);
#563=ORIENTED_EDGE('',*,*,#748,.T.);
#564=ORIENTED_EDGE('',*,*,#751,.T.);
#565=ORIENTED_EDGE('',*,*,#753,.T.);
#566=ORIENTED_EDGE('',*,*,#730,.F.);
#567=ORIENTED_EDGE('',*,*,#752,.F.);
#568=ORIENTED_EDGE('',*,*,#749,.F.);
#569=ORIENTED_EDGE('',*,*,#746,.F.);
#570=ORIENTED_EDGE('',*,*,#743,.F.);
#571=ORIENTED_EDGE('',*,*,#740,.F.);
#572=ORIENTED_EDGE('',*,*,#737,.F.);
#573=ORIENTED_EDGE('',*,*,#734,.F.);
#574=VERTEX_POINT('',#1227);
#575=VERTEX_POINT('',#1228);
#576=VERTEX_POINT('',#1230);
#577=VERTEX_POINT('',#1232);
#578=VERTEX_POINT('',#1236);
#579=VERTEX_POINT('',#1237);
#580=VERTEX_POINT('',#1239);
#581=VERTEX_POINT('',#1241);
#582=VERTEX_POINT('',#1244);
#583=VERTEX_POINT('',#1246);
#584=VERTEX_POINT('',#1250);
#585=VERTEX_POINT('',#1251);
#586=VERTEX_POINT('',#1256);
#587=VERTEX_POINT('',#1257);
#588=VERTEX_POINT('',#1260);
#589=VERTEX_POINT('',#1262);
#590=VERTEX_POINT('',#1277);
#591=VERTEX_POINT('',#1278);
#592=VERTEX_POINT('',#1280);
#593=VERTEX_POINT('',#1282);
#594=VERTEX_POINT('',#1286);
#595=VERTEX_POINT('',#1288);
#596=VERTEX_POINT('',#1292);
#597=VERTEX_POINT('',#1294);
#598=VERTEX_POINT('',#1303);
#599=VERTEX_POINT('',#1304);
#600=VERTEX_POINT('',#1306);
#601=VERTEX_POINT('',#1308);
#602=VERTEX_POINT('',#1312);
#603=VERTEX_POINT('',#1314);
#604=VERTEX_POINT('',#1318);
#605=VERTEX_POINT('',#1320);
#606=VERTEX_POINT('',#1329);
#607=VERTEX_POINT('',#1330);
#608=VERTEX_POINT('',#1332);
#609=VERTEX_POINT('',#1334);
#610=VERTEX_POINT('',#1338);
#611=VERTEX_POINT('',#1340);
#612=VERTEX_POINT('',#1344);
#613=VERTEX_POINT('',#1346);
#614=VERTEX_POINT('',#1350);
#615=VERTEX_POINT('',#1352);
#616=VERTEX_POINT('',#1356);
#617=VERTEX_POINT('',#1358);
#618=VERTEX_POINT('',#1362);
#619=VERTEX_POINT('',#1364);
#620=VERTEX_POINT('',#1368);
#621=VERTEX_POINT('',#1370);
#622=VERTEX_POINT('',#1379);
#623=VERTEX_POINT('',#1380);
#624=VERTEX_POINT('',#1382);
#625=VERTEX_POINT('',#1384);
#626=VERTEX_POINT('',#1388);
#627=VERTEX_POINT('',#1390);
#628=VERTEX_POINT('',#1394);
#629=VERTEX_POINT('',#1396);
#630=VERTEX_POINT('',#1405);
#631=VERTEX_POINT('',#1406);
#632=VERTEX_POINT('',#1408);
#633=VERTEX_POINT('',#1410);
#634=VERTEX_POINT('',#1414);
#635=VERTEX_POINT('',#1416);
#636=VERTEX_POINT('',#1420);
#637=VERTEX_POINT('',#1422);
#638=VERTEX_POINT('',#1426);
#639=VERTEX_POINT('',#1428);
#640=VERTEX_POINT('',#1432);
#641=VERTEX_POINT('',#1434);
#642=VERTEX_POINT('',#1438);
#643=VERTEX_POINT('',#1440);
#644=VERTEX_POINT('',#1444);
#645=VERTEX_POINT('',#1446);
#646=EDGE_CURVE('',#574,#575,#754,.T.);
#647=EDGE_CURVE('',#574,#576,#755,.T.);
#648=EDGE_CURVE('',#576,#577,#756,.T.);
#649=EDGE_CURVE('',#577,#575,#757,.T.);
#650=EDGE_CURVE('',#578,#579,#758,.T.);
#651=EDGE_CURVE('',#578,#580,#154,.T.);
#652=EDGE_CURVE('',#581,#580,#759,.T.);
#653=EDGE_CURVE('',#581,#574,#155,.T.);
#654=EDGE_CURVE('',#575,#582,#156,.T.);
#655=EDGE_CURVE('',#582,#583,#760,.T.);
#656=EDGE_CURVE('',#583,#579,#157,.T.);
#657=EDGE_CURVE('',#584,#585,#761,.T.);
#658=EDGE_CURVE('',#584,#578,#762,.T.);
#659=EDGE_CURVE('',#579,#585,#763,.T.);
#660=EDGE_CURVE('',#586,#587,#764,.T.);
#661=EDGE_CURVE('',#586,#584,#158,.T.);
#662=EDGE_CURVE('',#585,#588,#159,.T.);
#663=EDGE_CURVE('',#588,#589,#765,.T.);
#664=EDGE_CURVE('',#589,#577,#160,.T.);
#665=EDGE_CURVE('',#576,#587,#161,.T.);
#666=EDGE_CURVE('',#580,#586,#766,.T.);
#667=EDGE_CURVE('',#587,#581,#767,.T.);
#668=EDGE_CURVE('',#588,#583,#768,.T.);
#669=EDGE_CURVE('',#582,#589,#769,.T.);
#670=EDGE_CURVE('',#590,#591,#770,.T.);
#671=EDGE_CURVE('',#592,#591,#771,.T.);
#672=EDGE_CURVE('',#593,#592,#772,.T.);
#673=EDGE_CURVE('',#593,#590,#773,.T.);
#674=EDGE_CURVE('',#591,#594,#774,.T.);
#675=EDGE_CURVE('',#595,#594,#775,.T.);
#676=EDGE_CURVE('',#592,#595,#776,.T.);
#677=EDGE_CURVE('',#594,#596,#777,.T.);
#678=EDGE_CURVE('',#597,#596,#778,.T.);
#679=EDGE_CURVE('',#595,#597,#779,.T.);
#680=EDGE_CURVE('',#596,#590,#780,.T.);
#681=EDGE_CURVE('',#597,#593,#781,.T.);
#682=EDGE_CURVE('',#598,#599,#782,.T.);
#683=EDGE_CURVE('',#600,#598,#783,.T.);
#684=EDGE_CURVE('',#600,#601,#784,.T.);
#685=EDGE_CURVE('',#601,#599,#785,.T.);
#686=EDGE_CURVE('',#599,#602,#786,.T.);
#687=EDGE_CURVE('',#601,#603,#787,.T.);
#688=EDGE_CURVE('',#603,#602,#788,.T.);
#689=EDGE_CURVE('',#602,#604,#789,.T.);
#690=EDGE_CURVE('',#603,#605,#790,.T.);
#691=EDGE_CURVE('',#605,#604,#791,.T.);
#692=EDGE_CURVE('',#604,#598,#792,.T.);
#693=EDGE_CURVE('',#605,#600,#793,.T.);
#694=EDGE_CURVE('',#606,#607,#794,.T.);
#695=EDGE_CURVE('',#608,#606,#795,.T.);
#696=EDGE_CURVE('',#608,#609,#796,.T.);
#697=EDGE_CURVE('',#609,#607,#797,.T.);
#698=EDGE_CURVE('',#607,#610,#162,.T.);
#699=EDGE_CURVE('',#609,#611,#163,.T.);
#700=EDGE_CURVE('',#611,#610,#798,.T.);
#701=EDGE_CURVE('',#610,#612,#799,.T.);
#702=EDGE_CURVE('',#611,#613,#800,.T.);
#703=EDGE_CURVE('',#613,#612,#801,.T.);
#704=EDGE_CURVE('',#612,#614,#164,.T.);
#705=EDGE_CURVE('',#613,#615,#165,.T.);
#706=EDGE_CURVE('',#615,#614,#802,.T.);
#707=EDGE_CURVE('',#614,#616,#803,.T.);
#708=EDGE_CURVE('',#615,#617,#804,.T.);
#709=EDGE_CURVE('',#617,#616,#805,.T.);
#710=EDGE_CURVE('',#616,#618,#166,.T.);
#711=EDGE_CURVE('',#617,#619,#167,.T.);
#712=EDGE_CURVE('',#619,#618,#806,.T.);
#713=EDGE_CURVE('',#618,#620,#807,.T.);
#714=EDGE_CURVE('',#619,#621,#808,.T.);
#715=EDGE_CURVE('',#621,#620,#809,.T.);
#716=EDGE_CURVE('',#620,#606,#168,.T.);
#717=EDGE_CURVE('',#621,#608,#169,.T.);
#718=EDGE_CURVE('',#622,#623,#810,.T.);
#719=EDGE_CURVE('',#624,#622,#811,.T.);
#720=EDGE_CURVE('',#624,#625,#812,.T.);
#721=EDGE_CURVE('',#625,#623,#813,.T.);
#722=EDGE_CURVE('',#623,#626,#814,.T.);
#723=EDGE_CURVE('',#625,#627,#815,.T.);
#724=EDGE_CURVE('',#627,#626,#816,.T.);
#725=EDGE_CURVE('',#626,#628,#817,.T.);
#726=EDGE_CURVE('',#627,#629,#818,.T.);
#727=EDGE_CURVE('',#629,#628,#819,.T.);
#728=EDGE_CURVE('',#628,#622,#820,.T.);
#729=EDGE_CURVE('',#629,#624,#821,.T.);
#730=EDGE_CURVE('',#630,#631,#822,.T.);
#731=EDGE_CURVE('',#632,#631,#823,.T.);
#732=EDGE_CURVE('',#633,#632,#824,.T.);
#733=EDGE_CURVE('',#633,#630,#825,.T.);
#734=EDGE_CURVE('',#631,#634,#170,.T.);
#735=EDGE_CURVE('',#635,#634,#826,.T.);
#736=EDGE_CURVE('',#632,#635,#171,.T.);
#737=EDGE_CURVE('',#634,#636,#827,.T.);
#738=EDGE_CURVE('',#637,#636,#828,.T.);
#739=EDGE_CURVE('',#635,#637,#829,.T.);
#740=EDGE_CURVE('',#636,#638,#172,.T.);
#741=EDGE_CURVE('',#639,#638,#830,.T.);
#742=EDGE_CURVE('',#637,#639,#173,.T.);
#743=EDGE_CURVE('',#638,#640,#831,.T.);
#744=EDGE_CURVE('',#641,#640,#832,.T.);
#745=EDGE_CURVE('',#639,#641,#833,.T.);
#746=EDGE_CURVE('',#640,#642,#174,.T.);
#747=EDGE_CURVE('',#643,#642,#834,.T.);
#748=EDGE_CURVE('',#641,#643,#175,.T.);
#749=EDGE_CURVE('',#642,#644,#835,.T.);
#750=EDGE_CURVE('',#645,#644,#836,.T.);
#751=EDGE_CURVE('',#643,#645,#837,.T.);
#752=EDGE_CURVE('',#644,#630,#176,.T.);
#753=EDGE_CURVE('',#645,#633,#177,.T.);
#754=LINE('',#1226,#838);
#755=LINE('',#1229,#839);
#756=LINE('',#1231,#840);
#757=LINE('',#1233,#841);
#758=LINE('',#1235,#842);
#759=LINE('',#1240,#843);
#760=LINE('',#1245,#844);
#761=LINE('',#1249,#845);
#762=LINE('',#1252,#846);
#763=LINE('',#1253,#847);
#764=LINE('',#1255,#848);
#765=LINE('',#1261,#849);
#766=LINE('',#1266,#850);
#767=LINE('',#1267,#851);
#768=LINE('',#1269,#852);
#769=LINE('',#1270,#853);
#770=LINE('',#1276,#854);
#771=LINE('',#1279,#855);
#772=LINE('',#1281,#856);
#773=LINE('',#1283,#857);
#774=LINE('',#1285,#858);
#775=LINE('',#1287,#859);
#776=LINE('',#1289,#860);
#777=LINE('',#1291,#861);
#778=LINE('',#1293,#862);
#779=LINE('',#1295,#863);
#780=LINE('',#1297,#864);
#781=LINE('',#1298,#865);
#782=LINE('',#1302,#866);
#783=LINE('',#1305,#867);
#784=LINE('',#1307,#868);
#785=LINE('',#1309,#869);
#786=LINE('',#1311,#870);
#787=LINE('',#1313,#871);
#788=LINE('',#1315,#872);
#789=LINE('',#1317,#873);
#790=LINE('',#1319,#874);
#791=LINE('',#1321,#875);
#792=LINE('',#1323,#876);
#793=LINE('',#1324,#877);
#794=LINE('',#1328,#878);
#795=LINE('',#1331,#879);
#796=LINE('',#1333,#880);
#797=LINE('',#1335,#881);
#798=LINE('',#1341,#882);
#799=LINE('',#1343,#883);
#800=LINE('',#1345,#884);
#801=LINE('',#1347,#885);
#802=LINE('',#1353,#886);
#803=LINE('',#1355,#887);
#804=LINE('',#1357,#888);
#805=LINE('',#1359,#889);
#806=LINE('',#1365,#890);
#807=LINE('',#1367,#891);
#808=LINE('',#1369,#892);
#809=LINE('',#1371,#893);
#810=LINE('',#1378,#894);
#811=LINE('',#1381,#895);
#812=LINE('',#1383,#896);
#813=LINE('',#1385,#897);
#814=LINE('',#1387,#898);
#815=LINE('',#1389,#899);
#816=LINE('',#1391,#900);
#817=LINE('',#1393,#901);
#818=LINE('',#1395,#902);
#819=LINE('',#1397,#903);
#820=LINE('',#1399,#904);
#821=LINE('',#1400,#905);
#822=LINE('',#1404,#906);
#823=LINE('',#1407,#907);
#824=LINE('',#1409,#908);
#825=LINE('',#1411,#909);
#826=LINE('',#1415,#910);
#827=LINE('',#1419,#911);
#828=LINE('',#1421,#912);
#829=LINE('',#1423,#913);
#830=LINE('',#1427,#914);
#831=LINE('',#1431,#915);
#832=LINE('',#1433,#916);
#833=LINE('',#1435,#917);
#834=LINE('',#1439,#918);
#835=LINE('',#1443,#919);
#836=LINE('',#1445,#920);
#837=LINE('',#1447,#921);
#838=VECTOR('',#997,1.);
#839=VECTOR('',#998,1.);
#840=VECTOR('',#999,1.);
#841=VECTOR('',#1000,1.);
#842=VECTOR('',#1003,1.);
#843=VECTOR('',#1006,1.);
#844=VECTOR('',#1011,1.);
#845=VECTOR('',#1016,1.);
#846=VECTOR('',#1017,1.);
#847=VECTOR('',#1018,1.);
#848=VECTOR('',#1021,1.);
#849=VECTOR('',#1026,1.);
#850=VECTOR('',#1033,1.);
#851=VECTOR('',#1034,1.);
#852=VECTOR('',#1037,1.);
#853=VECTOR('',#1038,1.);
#854=VECTOR('',#1049,1.);
#855=VECTOR('',#1050,1.);
#856=VECTOR('',#1051,1.);
#857=VECTOR('',#1052,1.);
#858=VECTOR('',#1055,1.);
#859=VECTOR('',#1056,1.);
#860=VECTOR('',#1057,1.);
#861=VECTOR('',#1060,1.);
#862=VECTOR('',#1061,1.);
#863=VECTOR('',#1062,1.);
#864=VECTOR('',#1065,1.);
#865=VECTOR('',#1066,1.);
#866=VECTOR('',#1073,1.);
#867=VECTOR('',#1074,1.);
#868=VECTOR('',#1075,1.);
#869=VECTOR('',#1076,1.);
#870=VECTOR('',#1079,1.);
#871=VECTOR('',#1080,1.);
#872=VECTOR('',#1081,1.);
#873=VECTOR('',#1084,1.);
#874=VECTOR('',#1085,1.);
#875=VECTOR('',#1086,1.);
#876=VECTOR('',#1089,1.);
#877=VECTOR('',#1090,1.);
#878=VECTOR('',#1097,1.);
#879=VECTOR('',#1098,1.);
#880=VECTOR('',#1099,1.);
#881=VECTOR('',#1100,1.);
#882=VECTOR('',#1107,1.);
#883=VECTOR('',#1110,1.);
#884=VECTOR('',#1111,1.);
#885=VECTOR('',#1112,1.);
#886=VECTOR('',#1119,1.);
#887=VECTOR('',#1122,1.);
#888=VECTOR('',#1123,1.);
#889=VECTOR('',#1124,1.);
#890=VECTOR('',#1131,1.);
#891=VECTOR('',#1134,1.);
#892=VECTOR('',#1135,1.);
#893=VECTOR('',#1136,1.);
#894=VECTOR('',#1149,1.);
#895=VECTOR('',#1150,1.);
#896=VECTOR('',#1151,1.);
#897=VECTOR('',#1152,1.);
#898=VECTOR('',#1155,1.);
#899=VECTOR('',#1156,1.);
#900=VECTOR('',#1157,1.);
#901=VECTOR('',#1160,1.);
#902=VECTOR('',#1161,1.);
#903=VECTOR('',#1162,1.);
#904=VECTOR('',#1165,1.);
#905=VECTOR('',#1166,1.);
#906=VECTOR('',#1173,1.);
#907=VECTOR('',#1174,1.);
#908=VECTOR('',#1175,1.);
#909=VECTOR('',#1176,1.);
#910=VECTOR('',#1181,1.);
#911=VECTOR('',#1186,1.);
#912=VECTOR('',#1187,1.);
#913=VECTOR('',#1188,1.);
#914=VECTOR('',#1193,1.);
#915=VECTOR('',#1198,1.);
#916=VECTOR('',#1199,1.);
#917=VECTOR('',#1200,1.);
#918=VECTOR('',#1205,1.);
#919=VECTOR('',#1210,1.);
#920=VECTOR('',#1211,1.);
#921=VECTOR('',#1212,1.);
#922=AXIS2_PLACEMENT_3D('',#1225,#995,#996);
#923=AXIS2_PLACEMENT_3D('',#1234,#1001,#1002);
#924=AXIS2_PLACEMENT_3D('',#1238,#1004,#1005);
#925=AXIS2_PLACEMENT_3D('',#1242,#1007,#1008);
#926=AXIS2_PLACEMENT_3D('',#1243,#1009,#1010);
#927=AXIS2_PLACEMENT_3D('',#1247,#1012,#1013);
#928=AXIS2_PLACEMENT_3D('',#1248,#1014,#1015);
#929=AXIS2_PLACEMENT_3D('',#1254,#1019,#1020);
#930=AXIS2_PLACEMENT_3D('',#1258,#1022,#1023);
#931=AXIS2_PLACEMENT_3D('',#1259,#1024,#1025);
#932=AXIS2_PLACEMENT_3D('',#1263,#1027,#1028);
#933=AXIS2_PLACEMENT_3D('',#1264,#1029,#1030);
#934=AXIS2_PLACEMENT_3D('',#1265,#1031,#1032);
#935=AXIS2_PLACEMENT_3D('',#1268,#1035,#1036);
#936=AXIS2_PLACEMENT_3D('',#1271,#1039,#1040);
#937=AXIS2_PLACEMENT_3D('',#1272,#1041,#1042);
#938=AXIS2_PLACEMENT_3D('',#1273,#1043,#1044);
#939=AXIS2_PLACEMENT_3D('',#1274,#1045,#1046);
#940=AXIS2_PLACEMENT_3D('',#1275,#1047,#1048);
#941=AXIS2_PLACEMENT_3D('',#1284,#1053,#1054);
#942=AXIS2_PLACEMENT_3D('',#1290,#1058,#1059);
#943=AXIS2_PLACEMENT_3D('',#1296,#1063,#1064);
#944=AXIS2_PLACEMENT_3D('',#1299,#1067,#1068);
#945=AXIS2_PLACEMENT_3D('',#1300,#1069,#1070);
#946=AXIS2_PLACEMENT_3D('',#1301,#1071,#1072);
#947=AXIS2_PLACEMENT_3D('',#1310,#1077,#1078);
#948=AXIS2_PLACEMENT_3D('',#1316,#1082,#1083);
#949=AXIS2_PLACEMENT_3D('',#1322,#1087,#1088);
#950=AXIS2_PLACEMENT_3D('',#1325,#1091,#1092);
#951=AXIS2_PLACEMENT_3D('',#1326,#1093,#1094);
#952=AXIS2_PLACEMENT_3D('',#1327,#1095,#1096);
#953=AXIS2_PLACEMENT_3D('',#1336,#1101,#1102);
#954=AXIS2_PLACEMENT_3D('',#1337,#1103,#1104);
#955=AXIS2_PLACEMENT_3D('',#1339,#1105,#1106);
#956=AXIS2_PLACEMENT_3D('',#1342,#1108,#1109);
#957=AXIS2_PLACEMENT_3D('',#1348,#1113,#1114);
#958=AXIS2_PLACEMENT_3D('',#1349,#1115,#1116);
#959=AXIS2_PLACEMENT_3D('',#1351,#1117,#1118);
#960=AXIS2_PLACEMENT_3D('',#1354,#1120,#1121);
#961=AXIS2_PLACEMENT_3D('',#1360,#1125,#1126);
#962=AXIS2_PLACEMENT_3D('',#1361,#1127,#1128);
#963=AXIS2_PLACEMENT_3D('',#1363,#1129,#1130);
#964=AXIS2_PLACEMENT_3D('',#1366,#1132,#1133);
#965=AXIS2_PLACEMENT_3D('',#1372,#1137,#1138);
#966=AXIS2_PLACEMENT_3D('',#1373,#1139,#1140);
#967=AXIS2_PLACEMENT_3D('',#1374,#1141,#1142);
#968=AXIS2_PLACEMENT_3D('',#1375,#1143,#1144);
#969=AXIS2_PLACEMENT_3D('',#1376,#1145,#1146);
#970=AXIS2_PLACEMENT_3D('',#1377,#1147,#1148);
#971=AXIS2_PLACEMENT_3D('',#1386,#1153,#1154);
#972=AXIS2_PLACEMENT_3D('',#1392,#1158,#1159);
#973=AXIS2_PLACEMENT_3D('',#1398,#1163,#1164);
#974=AXIS2_PLACEMENT_3D('',#1401,#1167,#1168);
#975=AXIS2_PLACEMENT_3D('',#1402,#1169,#1170);
#976=AXIS2_PLACEMENT_3D('',#1403,#1171,#1172);
#977=AXIS2_PLACEMENT_3D('',#1412,#1177,#1178);
#978=AXIS2_PLACEMENT_3D('',#1413,#1179,#1180);
#979=AXIS2_PLACEMENT_3D('',#1417,#1182,#1183);
#980=AXIS2_PLACEMENT_3D('',#1418,#1184,#1185);
#981=AXIS2_PLACEMENT_3D('',#1424,#1189,#1190);
#982=AXIS2_PLACEMENT_3D('',#1425,#1191,#1192);
#983=AXIS2_PLACEMENT_3D('',#1429,#1194,#1195);
#984=AXIS2_PLACEMENT_3D('',#1430,#1196,#1197);
#985=AXIS2_PLACEMENT_3D('',#1436,#1201,#1202);
#986=AXIS2_PLACEMENT_3D('',#1437,#1203,#1204);
#987=AXIS2_PLACEMENT_3D('',#1441,#1206,#1207);
#988=AXIS2_PLACEMENT_3D('',#1442,#1208,#1209);
#989=AXIS2_PLACEMENT_3D('',#1448,#1213,#1214);
#990=AXIS2_PLACEMENT_3D('',#1449,#1215,#1216);
#991=AXIS2_PLACEMENT_3D('',#1450,#1217,#1218);
#992=AXIS2_PLACEMENT_3D('',#1451,#1219,#1220);
#993=AXIS2_PLACEMENT_3D('',#1452,#1221,#1222);
#994=AXIS2_PLACEMENT_3D('',#1453,#1223,#1224);
#995=DIRECTION('',(0.,0.,1.));
#996=DIRECTION('',(1.,0.,0.));
#997=DIRECTION('',(0.,1.,0.));
#998=DIRECTION('',(-1.03565580655315E-16,0.,1.));
#999=DIRECTION('',(0.,1.,0.));
#1000=DIRECTION('',(1.03565580655315E-16,0.,-1.));
#1001=DIRECTION('',(1.,0.,1.03565580655315E-16));
#1002=DIRECTION('',(1.04083408558608E-16,0.,-1.));
#1003=DIRECTION('',(0.,1.,0.));
#1004=DIRECTION('',(-9.2931614784471E-16,0.,-1.));
#1005=DIRECTION('',(1.,0.,-6.93889390390723E-16));
#1006=DIRECTION('',(1.,0.,-9.2931614784471E-16));
#1007=DIRECTION('',(-9.2931614784471E-16,0.,-1.));
#1008=DIRECTION('',(1.,0.,-6.93889390390723E-16));
#1009=DIRECTION('',(-9.2931614784471E-16,0.,-1.));
#1010=DIRECTION('',(1.,0.,-6.93889390390723E-16));
#1011=DIRECTION('',(1.,0.,-9.2931614784471E-16));
#1012=DIRECTION('',(-9.2931614784471E-16,0.,-1.));
#1013=DIRECTION('',(1.,0.,-6.93889390390723E-16));
#1014=DIRECTION('',(9.2931614784471E-16,0.,1.));
#1015=DIRECTION('',(1.,0.,-9.29811783123569E-16));
#1016=DIRECTION('',(0.,1.,0.));
#1017=DIRECTION('',(0.,0.,-1.));
#1018=DIRECTION('',(0.,0.,1.));
#1019=DIRECTION('',(-1.,0.,0.));
#1020=DIRECTION('',(0.,0.,1.));
#1021=DIRECTION('',(-1.,0.,1.05322496755734E-15));
#1022=DIRECTION('',(1.05322496755734E-15,0.,1.));
#1023=DIRECTION('',(-1.,0.,1.38777878078145E-15));
#1024=DIRECTION('',(1.05322496755734E-15,0.,1.));
#1025=DIRECTION('',(-1.,0.,1.38777878078145E-15));
#1026=DIRECTION('',(-1.,0.,1.05322496755734E-15));
#1027=DIRECTION('',(1.05322496755734E-15,0.,1.));
#1028=DIRECTION('',(-1.,0.,1.38777878078145E-15));
#1029=DIRECTION('',(1.05322496755734E-15,0.,1.));
#1030=DIRECTION('',(-1.,0.,1.38777878078145E-15));
#1031=DIRECTION('',(-1.05322496755734E-15,0.,-1.));
#1032=DIRECTION('',(-1.,0.,1.0547118733939E-15));
#1033=DIRECTION('',(0.,0.,1.));
#1034=DIRECTION('',(1.03565580655315E-16,0.,-1.));
#1035=DIRECTION('',(0.,-1.,0.));
#1036=DIRECTION('',(0.,0.,-1.));
#1037=DIRECTION('',(0.,0.,-1.));
#1038=DIRECTION('',(-1.03565580655315E-16,0.,1.));
#1039=DIRECTION('',(0.,-1.,0.));
#1040=DIRECTION('',(0.,0.,-1.));
#1041=DIRECTION('',(0.,0.,-1.));
#1042=DIRECTION('',(-1.,0.,0.));
#1043=DIRECTION('',(0.,0.,1.));
#1044=DIRECTION('',(1.,0.,0.));
#1045=DIRECTION('',(-1.03565580655315E-16,0.,1.));
#1046=DIRECTION('',(1.,0.,1.03565580655315E-16));
#1047=DIRECTION('',(1.03565580655315E-16,0.,-1.));
#1048=DIRECTION('',(-1.,0.,0.));
#1049=DIRECTION('',(-0.0011994526504426,0.,-0.999999280656411));
#1050=DIRECTION('',(0.,1.,0.));
#1051=DIRECTION('',(-0.0011994526504426,0.,-0.999999280656411));
#1052=DIRECTION('',(0.,1.,0.));
#1053=DIRECTION('',(0.999999280656411,0.,-0.0011994526504426));
#1054=DIRECTION('',(-0.0011994526504426,0.,-0.999999280656411));
#1055=DIRECTION('',(0.999999280656411,0.,-0.00119945265044374));
#1056=DIRECTION('',(0.,1.,0.));
#1057=DIRECTION('',(0.999999280656411,0.,-0.00119945265044374));
#1058=DIRECTION('',(0.00119945265044374,0.,0.999999280656411));
#1059=DIRECTION('',(0.999999280656411,0.,-0.00119945265044374));
#1060=DIRECTION('',(0.00119945265044246,0.,0.999999280656411));
#1061=DIRECTION('',(0.,1.,0.));
#1062=DIRECTION('',(0.00119945265044246,0.,0.999999280656411));
#1063=DIRECTION('',(-0.999999280656411,0.,0.00119945265044246));
#1064=DIRECTION('',(0.00119945265044246,0.,0.999999280656411));
#1065=DIRECTION('',(-0.999999280656411,0.,0.00119945265044374));
#1066=DIRECTION('',(-0.999999280656411,0.,0.00119945265044374));
#1067=DIRECTION('',(-0.00119945265044374,0.,-0.999999280656411));
#1068=DIRECTION('',(-0.999999280656411,0.,0.00119945265044374));
#1069=DIRECTION('',(0.,-1.,0.));
#1070=DIRECTION('',(0.,0.,-1.));
#1071=DIRECTION('',(0.,-1.,0.));
#1072=DIRECTION('',(0.,0.,-1.));
#1073=DIRECTION('',(-0.0011994526504426,0.,-0.999999280656411));
#1074=DIRECTION('',(0.,-1.,0.));
#1075=DIRECTION('',(-0.0011994526504426,0.,-0.999999280656411));
#1076=DIRECTION('',(0.,-1.,0.));
#1077=DIRECTION('',(-0.999999280656411,0.,0.0011994526504426));
#1078=DIRECTION('',(0.0011994526504426,0.,0.999999280656411));
#1079=DIRECTION('',(0.999999280656411,0.,-0.00119945265044374));
#1080=DIRECTION('',(0.999999280656411,0.,-0.00119945265044374));
#1081=DIRECTION('',(0.,-1.,0.));
#1082=DIRECTION('',(-0.00119945265044374,0.,-0.999999280656411));
#1083=DIRECTION('',(-0.999999280656411,0.,0.00119945265044374));
#1084=DIRECTION('',(0.00119945265044246,0.,0.999999280656411));
#1085=DIRECTION('',(0.00119945265044246,0.,0.999999280656411));
#1086=DIRECTION('',(0.,-1.,0.));
#1087=DIRECTION('',(0.999999280656411,0.,-0.00119945265044246));
#1088=DIRECTION('',(-0.00119945265044246,0.,-0.999999280656411));
#1089=DIRECTION('',(-0.999999280656411,0.,0.00119945265044374));
#1090=DIRECTION('',(-0.999999280656411,0.,0.00119945265044374));
#1091=DIRECTION('',(0.00119945265044374,0.,0.999999280656411));
#1092=DIRECTION('',(0.999999280656411,0.,-0.00119945265044374));
#1093=DIRECTION('',(0.,-1.,0.));
#1094=DIRECTION('',(0.,0.,-1.));
#1095=DIRECTION('',(0.,-1.,0.));
#1096=DIRECTION('',(0.,0.,-1.));
#1097=DIRECTION('',(0.,-1.,0.));
#1098=DIRECTION('',(0.,0.,1.));
#1099=DIRECTION('',(0.,-1.,0.));
#1100=DIRECTION('',(0.,0.,1.));
#1101=DIRECTION('',(-1.,0.,0.));
#1102=DIRECTION('',(0.,0.,1.));
#1103=DIRECTION('',(0.,0.,1.));
#1104=DIRECTION('',(-1.,1.33440267382831E-16,0.));
#1105=DIRECTION('',(0.,0.,1.));
#1106=DIRECTION('',(-1.,1.33440267382831E-16,0.));
#1107=DIRECTION('',(0.,0.,1.));
#1108=DIRECTION('',(0.,0.,1.));
#1109=DIRECTION('',(1.,0.,0.));
#1110=DIRECTION('',(0.,1.,0.));
#1111=DIRECTION('',(0.,1.,0.));
#1112=DIRECTION('',(0.,0.,1.));
#1113=DIRECTION('',(1.,0.,0.));
#1114=DIRECTION('',(0.,0.,-1.));
#1115=DIRECTION('',(0.,0.,-1.));
#1116=DIRECTION('',(-1.,0.,0.));
#1117=DIRECTION('',(0.,0.,-1.));
#1118=DIRECTION('',(-1.,0.,0.));
#1119=DIRECTION('',(0.,0.,1.));
#1120=DIRECTION('',(0.,0.,1.));
#1121=DIRECTION('',(1.,0.,0.));
#1122=DIRECTION('',(0.,1.,0.));
#1123=DIRECTION('',(0.,1.,0.));
#1124=DIRECTION('',(0.,0.,1.));
#1125=DIRECTION('',(1.,0.,0.));
#1126=DIRECTION('',(0.,0.,-1.));
#1127=DIRECTION('',(0.,0.,-1.));
#1128=DIRECTION('',(-1.,0.,0.));
#1129=DIRECTION('',(0.,0.,-1.));
#1130=DIRECTION('',(-1.,0.,0.));
#1131=DIRECTION('',(0.,0.,1.));
#1132=DIRECTION('',(0.,0.,1.));
#1133=DIRECTION('',(1.,0.,0.));
#1134=DIRECTION('',(0.,1.,0.));
#1135=DIRECTION('',(0.,1.,0.));
#1136=DIRECTION('',(0.,0.,1.));
#1137=DIRECTION('',(1.,0.,0.));
#1138=DIRECTION('',(0.,0.,-1.));
#1139=DIRECTION('',(0.,0.,1.));
#1140=DIRECTION('',(-1.,1.33440267382831E-16,0.));
#1141=DIRECTION('',(0.,0.,1.));
#1142=DIRECTION('',(-1.,1.33440267382831E-16,0.));
#1143=DIRECTION('',(0.,0.,1.));
#1144=DIRECTION('',(1.,0.,0.));
#1145=DIRECTION('',(0.,0.,1.));
#1146=DIRECTION('',(1.,0.,0.));
#1147=DIRECTION('',(0.,0.,1.));
#1148=DIRECTION('',(1.,0.,0.));
#1149=DIRECTION('',(-0.00202559222353166,-0.999997948485968,0.));
#1150=DIRECTION('',(0.,0.,1.));
#1151=DIRECTION('',(-0.00202559222353166,-0.999997948485968,0.));
#1152=DIRECTION('',(0.,0.,1.));
#1153=DIRECTION('',(-0.999997948485967,0.00202559222353166,0.));
#1154=DIRECTION('',(-0.00202559222353166,-0.999997948485968,0.));
#1155=DIRECTION('',(0.999997948485968,-0.00202559222353327,0.));
#1156=DIRECTION('',(0.999997948485968,-0.00202559222353327,0.));
#1157=DIRECTION('',(0.,0.,1.));
#1158=DIRECTION('',(-0.00202559222353327,-0.999997948485968,0.));
#1159=DIRECTION('',(0.999997948485968,-0.00202559222353327,0.));
#1160=DIRECTION('',(0.0020255922235322,0.999997948485968,0.));
#1161=DIRECTION('',(0.0020255922235322,0.999997948485968,0.));
#1162=DIRECTION('',(0.,0.,1.));
#1163=DIRECTION('',(0.999997948485967,-0.0020255922235322,0.));
#1164=DIRECTION('',(0.0020255922235322,0.999997948485968,0.));
#1165=DIRECTION('',(-0.999997948485968,0.0020255922235333,0.));
#1166=DIRECTION('',(-0.999997948485968,0.0020255922235333,0.));
#1167=DIRECTION('',(0.0020255922235333,0.999997948485968,0.));
#1168=DIRECTION('',(-0.999997948485968,0.0020255922235333,0.));
#1169=DIRECTION('',(0.,0.,1.));
#1170=DIRECTION('',(1.,0.,0.));
#1171=DIRECTION('',(0.,0.,1.));
#1172=DIRECTION('',(1.,0.,0.));
#1173=DIRECTION('',(0.,-1.,0.));
#1174=DIRECTION('',(0.,0.,1.));
#1175=DIRECTION('',(0.,-1.,0.));
#1176=DIRECTION('',(0.,0.,1.));
#1177=DIRECTION('',(-1.,0.,0.));
#1178=DIRECTION('',(0.,0.,1.));
#1179=DIRECTION('',(0.,0.,-1.));
#1180=DIRECTION('',(1.,1.33440267382831E-16,0.));
#1181=DIRECTION('',(0.,0.,1.));
#1182=DIRECTION('',(0.,0.,-1.));
#1183=DIRECTION('',(1.,1.33440267382831E-16,0.));
#1184=DIRECTION('',(0.,0.,1.));
#1185=DIRECTION('',(1.,0.,0.));
#1186=DIRECTION('',(0.,1.,0.));
#1187=DIRECTION('',(0.,0.,1.));
#1188=DIRECTION('',(0.,1.,0.));
#1189=DIRECTION('',(1.,0.,0.));
#1190=DIRECTION('',(0.,0.,-1.));
#1191=DIRECTION('',(0.,0.,1.));
#1192=DIRECTION('',(1.,0.,0.));
#1193=DIRECTION('',(0.,0.,1.));
#1194=DIRECTION('',(0.,0.,1.));
#1195=DIRECTION('',(1.,0.,0.));
#1196=DIRECTION('',(0.,0.,1.));
#1197=DIRECTION('',(1.,0.,0.));
#1198=DIRECTION('',(0.,1.,0.));
#1199=DIRECTION('',(0.,0.,1.));
#1200=DIRECTION('',(0.,1.,0.));
#1201=DIRECTION('',(1.,0.,0.));
#1202=DIRECTION('',(0.,0.,-1.));
#1203=DIRECTION('',(0.,0.,1.));
#1204=DIRECTION('',(1.,0.,0.));
#1205=DIRECTION('',(0.,0.,1.));
#1206=DIRECTION('',(0.,0.,1.));
#1207=DIRECTION('',(1.,0.,0.));
#1208=DIRECTION('',(0.,0.,1.));
#1209=DIRECTION('',(1.,0.,0.));
#1210=DIRECTION('',(0.,1.,0.));
#1211=DIRECTION('',(0.,0.,1.));
#1212=DIRECTION('',(0.,1.,0.));
#1213=DIRECTION('',(1.,0.,0.));
#1214=DIRECTION('',(0.,0.,-1.));
#1215=DIRECTION('',(0.,0.,-1.));
#1216=DIRECTION('',(1.,1.33440267382831E-16,0.));
#1217=DIRECTION('',(0.,0.,-1.));
#1218=DIRECTION('',(1.,1.33440267382831E-16,0.));
#1219=DIRECTION('',(0.,0.,1.));
#1220=DIRECTION('',(1.,0.,0.));
#1221=DIRECTION('',(0.,0.,-1.));
#1222=DIRECTION('',(-1.,0.,0.));
#1223=DIRECTION('',(0.,0.,-1.));
#1224=DIRECTION('',(-1.,0.,0.));
#1225=CARTESIAN_POINT('',(0.,0.,0.));
#1226=CARTESIAN_POINT('',(-56.0000000000005,-12.,-33.5000000000053));
#1227=CARTESIAN_POINT('',(-56.0000000000005,-2.,-33.5000000000053));
#1228=CARTESIAN_POINT('',(-56.0000000000005,2.,-33.5000000000053));
#1229=CARTESIAN_POINT('',(-56.0000000000005,-2.,33.5000000000053));
#1230=CARTESIAN_POINT('',(-56.0000000000005,-2.,33.5000000000053));
#1231=CARTESIAN_POINT('',(-56.0000000000005,-12.,33.5000000000053));
#1232=CARTESIAN_POINT('',(-56.0000000000005,2.,33.5000000000053));
#1233=CARTESIAN_POINT('',(-56.0000000000005,2.,33.5000000000053));
#1234=CARTESIAN_POINT('',(-56.0000000000005,-12.,33.5000000000053));
#1235=CARTESIAN_POINT('',(56.0000000000006,-12.,-33.5000000000053));
#1236=CARTESIAN_POINT('',(56.0000000000006,-2.,-33.5000000000053));
#1237=CARTESIAN_POINT('',(56.0000000000006,2.,-33.5000000000053));
#1238=CARTESIAN_POINT('',(46.0000000000005,-2.,-33.5000000000053));
#1239=CARTESIAN_POINT('',(46.0000000000005,-12.,-33.5000000000053));
#1240=CARTESIAN_POINT('',(-56.0000000000005,-12.,-33.5000000000052));
#1241=CARTESIAN_POINT('',(-46.0000000000005,-12.,-33.5000000000052));
#1242=CARTESIAN_POINT('',(-46.0000000000005,-2.,-33.5000000000052));
#1243=CARTESIAN_POINT('',(-46.0000000000005,2.,-33.5000000000052));
#1244=CARTESIAN_POINT('',(-46.0000000000005,12.,-33.5000000000052));
#1245=CARTESIAN_POINT('',(-56.0000000000005,12.,-33.5000000000052));
#1246=CARTESIAN_POINT('',(46.0000000000005,12.,-33.5000000000053));
#1247=CARTESIAN_POINT('',(46.0000000000005,2.,-33.5000000000053));
#1248=CARTESIAN_POINT('',(-56.0000000000005,-12.,-33.5000000000052));
#1249=CARTESIAN_POINT('',(56.0000000000005,-12.,33.5000000000053));
#1250=CARTESIAN_POINT('',(56.0000000000005,-2.,33.5000000000053));
#1251=CARTESIAN_POINT('',(56.0000000000005,2.,33.5000000000053));
#1252=CARTESIAN_POINT('',(56.0000000000005,-2.,-33.5000000000053));
#1253=CARTESIAN_POINT('',(56.0000000000005,2.,-33.5000000000053));
#1254=CARTESIAN_POINT('',(56.0000000000005,-12.,-33.5000000000053));
#1255=CARTESIAN_POINT('',(56.0000000000005,-12.,33.5000000000054));
#1256=CARTESIAN_POINT('',(46.0000000000005,-12.,33.5000000000054));
#1257=CARTESIAN_POINT('',(-46.0000000000005,-12.,33.5000000000055));
#1258=CARTESIAN_POINT('',(46.0000000000005,-2.,33.5000000000054));
#1259=CARTESIAN_POINT('',(46.0000000000005,2.,33.5000000000054));
#1260=CARTESIAN_POINT('',(46.0000000000005,12.,33.5000000000054));
#1261=CARTESIAN_POINT('',(56.0000000000005,12.,33.5000000000054));
#1262=CARTESIAN_POINT('',(-46.0000000000005,12.,33.5000000000055));
#1263=CARTESIAN_POINT('',(-46.0000000000005,2.,33.5000000000055));
#1264=CARTESIAN_POINT('',(-46.0000000000005,-2.,33.5000000000055));
#1265=CARTESIAN_POINT('',(56.0000000000005,-12.,33.5000000000054));
#1266=CARTESIAN_POINT('',(46.0000000000005,-12.,33.5000000000053));
#1267=CARTESIAN_POINT('',(-46.0000000000005,-12.,-33.5000000000053));
#1268=CARTESIAN_POINT('',(0.,-12.,0.));
#1269=CARTESIAN_POINT('',(46.0000000000005,12.,0.));
#1270=CARTESIAN_POINT('',(-46.0000000000005,12.,-4.76401671014456E-15));
#1271=CARTESIAN_POINT('',(0.,12.,0.));
#1272=CARTESIAN_POINT('',(46.0000000000005,-2.,0.));
#1273=CARTESIAN_POINT('',(46.0000000000005,2.,-33.5000000000053));
#1274=CARTESIAN_POINT('',(-46.0000000000005,-2.,-4.76401671014456E-15));
#1275=CARTESIAN_POINT('',(-46.0000000000005,2.,33.5000000000053));
#1276=CARTESIAN_POINT('',(-34.6164463752534,-12.,25.1904689021258));
#1277=CARTESIAN_POINT('',(-34.6164463752534,-12.,25.1904689021258));
#1278=CARTESIAN_POINT('',(-34.676676585634,-12.,-25.0242411425651));
#1279=CARTESIAN_POINT('',(-34.676676585634,-15.,-25.0242411425651));
#1280=CARTESIAN_POINT('',(-34.676676585634,-15.,-25.0242411425651));
#1281=CARTESIAN_POINT('',(-34.6164463752534,-15.,25.1904689021258));
#1282=CARTESIAN_POINT('',(-34.6164463752534,-15.,25.1904689021258));
#1283=CARTESIAN_POINT('',(-34.6164463752534,-15.,25.1904689021258));
#1284=CARTESIAN_POINT('',(-34.6164463752534,-15.,25.1904689021258));
#1285=CARTESIAN_POINT('',(-34.676676585634,-12.,-25.0242411425651));
#1286=CARTESIAN_POINT('',(34.6164463752536,-12.,-25.1073550223455));
#1287=CARTESIAN_POINT('',(34.6164463752536,-15.,-25.1073550223455));
#1288=CARTESIAN_POINT('',(34.6164463752536,-15.,-25.1073550223455));
#1289=CARTESIAN_POINT('',(-34.676676585634,-15.,-25.0242411425651));
#1290=CARTESIAN_POINT('',(-34.676676585634,-15.,-25.0242411425651));
#1291=CARTESIAN_POINT('',(34.6164463752536,-12.,-25.1073550223455));
#1292=CARTESIAN_POINT('',(34.6766765856341,-12.,25.1073550223454));
#1293=CARTESIAN_POINT('',(34.6766765856341,-15.,25.1073550223454));
#1294=CARTESIAN_POINT('',(34.6766765856341,-15.,25.1073550223454));
#1295=CARTESIAN_POINT('',(34.6164463752536,-15.,-25.1073550223455));
#1296=CARTESIAN_POINT('',(34.6164463752536,-15.,-25.1073550223455));
#1297=CARTESIAN_POINT('',(34.6766765856341,-12.,25.1073550223454));
#1298=CARTESIAN_POINT('',(34.6766765856341,-15.,25.1073550223454));
#1299=CARTESIAN_POINT('',(34.6766765856341,-15.,25.1073550223454));
#1300=CARTESIAN_POINT('',(0.,-15.,0.));
#1301=CARTESIAN_POINT('',(0.,-12.,0.));
#1302=CARTESIAN_POINT('',(-34.6164463752534,12.,25.1904689021258));
#1303=CARTESIAN_POINT('',(-34.6164463752534,12.,25.1904689021258));
#1304=CARTESIAN_POINT('',(-34.676676585634,12.,-25.0242411425651));
#1305=CARTESIAN_POINT('',(-34.6164463752534,15.,25.1904689021258));
#1306=CARTESIAN_POINT('',(-34.6164463752534,15.,25.1904689021258));
#1307=CARTESIAN_POINT('',(-34.6164463752534,15.,25.1904689021258));
#1308=CARTESIAN_POINT('',(-34.676676585634,15.,-25.0242411425651));
#1309=CARTESIAN_POINT('',(-34.676676585634,15.,-25.0242411425651));
#1310=CARTESIAN_POINT('',(-34.6164463752534,15.,25.1904689021258));
#1311=CARTESIAN_POINT('',(-34.676676585634,12.,-25.0242411425651));
#1312=CARTESIAN_POINT('',(34.6164463752536,12.,-25.1073550223455));
#1313=CARTESIAN_POINT('',(-34.676676585634,15.,-25.0242411425651));
#1314=CARTESIAN_POINT('',(34.6164463752536,15.,-25.1073550223455));
#1315=CARTESIAN_POINT('',(34.6164463752536,15.,-25.1073550223455));
#1316=CARTESIAN_POINT('',(-34.676676585634,15.,-25.0242411425651));
#1317=CARTESIAN_POINT('',(34.6164463752536,12.,-25.1073550223455));
#1318=CARTESIAN_POINT('',(34.6766765856341,12.,25.1073550223454));
#1319=CARTESIAN_POINT('',(34.6164463752536,15.,-25.1073550223455));
#1320=CARTESIAN_POINT('',(34.6766765856341,15.,25.1073550223454));
#1321=CARTESIAN_POINT('',(34.6766765856341,15.,25.1073550223454));
#1322=CARTESIAN_POINT('',(34.6164463752536,15.,-25.1073550223455));
#1323=CARTESIAN_POINT('',(34.6766765856341,12.,25.1073550223454));
#1324=CARTESIAN_POINT('',(34.6766765856341,15.,25.1073550223454));
#1325=CARTESIAN_POINT('',(34.6766765856341,15.,25.1073550223454));
#1326=CARTESIAN_POINT('',(0.,15.,0.));
#1327=CARTESIAN_POINT('',(0.,12.,0.));
#1328=CARTESIAN_POINT('',(-59.0000000000005,2.,30.5000000000054));
#1329=CARTESIAN_POINT('',(-59.0000000000005,2.,30.5000000000054));
#1330=CARTESIAN_POINT('',(-59.0000000000005,-2.,30.5000000000054));
#1331=CARTESIAN_POINT('',(-59.0000000000005,2.,-30.4999999999946));
#1332=CARTESIAN_POINT('',(-59.0000000000005,2.,-30.4999999999946));
#1333=CARTESIAN_POINT('',(-59.0000000000005,2.,-30.4999999999946));
#1334=CARTESIAN_POINT('',(-59.0000000000005,-2.,-30.4999999999946));
#1335=CARTESIAN_POINT('',(-59.0000000000005,-2.,-30.4999999999946));
#1336=CARTESIAN_POINT('',(-59.0000000000005,2.,-30.4999999999946));
#1337=CARTESIAN_POINT('',(-46.0000000000006,-2.,30.5000000000054));
#1338=CARTESIAN_POINT('',(-46.0000000000006,-15.,30.5000000000054));
#1339=CARTESIAN_POINT('',(-46.0000000000006,-2.,-30.4999999999946));
#1340=CARTESIAN_POINT('',(-46.0000000000006,-15.,-30.4999999999946));
#1341=CARTESIAN_POINT('',(-46.0000000000006,-15.,-30.4999999999946));
#1342=CARTESIAN_POINT('',(-46.0000000000006,-2.,-30.4999999999946));
#1343=CARTESIAN_POINT('',(-46.0000000000006,-15.,30.5000000000054));
#1344=CARTESIAN_POINT('',(-46.0000000000006,-12.,30.5000000000054));
#1345=CARTESIAN_POINT('',(-46.0000000000006,-15.,-30.4999999999946));
#1346=CARTESIAN_POINT('',(-46.0000000000006,-12.,-30.4999999999946));
#1347=CARTESIAN_POINT('',(-46.0000000000006,-12.,-30.4999999999946));
#1348=CARTESIAN_POINT('',(-46.0000000000006,-15.,-30.4999999999946));
#1349=CARTESIAN_POINT('',(-46.0000000000006,-2.,30.5000000000054));
#1350=CARTESIAN_POINT('',(-56.0000000000006,-2.,30.5000000000054));
#1351=CARTESIAN_POINT('',(-46.0000000000006,-2.,-30.4999999999946));
#1352=CARTESIAN_POINT('',(-56.0000000000006,-2.,-30.4999999999946));
#1353=CARTESIAN_POINT('',(-56.0000000000006,-2.,-30.4999999999946));
#1354=CARTESIAN_POINT('',(-46.0000000000006,-2.,-30.4999999999946));
#1355=CARTESIAN_POINT('',(-56.0000000000005,-2.,30.5000000000053));
#1356=CARTESIAN_POINT('',(-56.0000000000005,2.,30.5000000000053));
#1357=CARTESIAN_POINT('',(-56.0000000000005,-2.,-30.4999999999947));
#1358=CARTESIAN_POINT('',(-56.0000000000005,2.,-30.4999999999947));
#1359=CARTESIAN_POINT('',(-56.0000000000005,2.,-30.4999999999947));
#1360=CARTESIAN_POINT('',(-56.0000000000005,-2.,-30.4999999999947));
#1361=CARTESIAN_POINT('',(-46.0000000000006,2.,30.5000000000054));
#1362=CARTESIAN_POINT('',(-46.0000000000006,12.,30.5000000000054));
#1363=CARTESIAN_POINT('',(-46.0000000000006,2.,-30.4999999999946));
#1364=CARTESIAN_POINT('',(-46.0000000000006,12.,-30.4999999999946));
#1365=CARTESIAN_POINT('',(-46.0000000000006,12.,-30.4999999999946));
#1366=CARTESIAN_POINT('',(-46.0000000000006,2.,-30.4999999999946));
#1367=CARTESIAN_POINT('',(-46.0000000000006,12.,30.5000000000054));
#1368=CARTESIAN_POINT('',(-46.0000000000006,15.,30.5000000000054));
#1369=CARTESIAN_POINT('',(-46.0000000000006,12.,-30.4999999999946));
#1370=CARTESIAN_POINT('',(-46.0000000000006,15.,-30.4999999999946));
#1371=CARTESIAN_POINT('',(-46.0000000000006,15.,-30.4999999999946));
#1372=CARTESIAN_POINT('',(-46.0000000000006,12.,-30.4999999999946));
#1373=CARTESIAN_POINT('',(-46.0000000000006,2.,30.5000000000054));
#1374=CARTESIAN_POINT('',(-46.0000000000006,2.,-30.4999999999946));
#1375=CARTESIAN_POINT('',(-46.0000000000006,2.,-30.4999999999946));
#1376=CARTESIAN_POINT('',(-46.0000000000006,-2.,-30.4999999999946));
#1377=CARTESIAN_POINT('',(-46.0000000000006,-2.,30.5000000000054));
#1378=CARTESIAN_POINT('',(-40.0891375757443,6.598336628528,-33.5000000000054));
#1379=CARTESIAN_POINT('',(-40.0891375757443,6.598336628528,-33.5000000000054));
#1380=CARTESIAN_POINT('',(-40.1152105459017,-6.27341335424589,-33.5000000000054));
#1381=CARTESIAN_POINT('',(-40.0891375757443,6.598336628528,-36.5000000000054));
#1382=CARTESIAN_POINT('',(-40.0891375757443,6.598336628528,-36.5000000000054));
#1383=CARTESIAN_POINT('',(-40.0891375757443,6.598336628528,-36.5000000000054));
#1384=CARTESIAN_POINT('',(-40.1152105459017,-6.27341335424589,-36.5000000000054));
#1385=CARTESIAN_POINT('',(-40.1152105459017,-6.27341335424589,-36.5000000000054));
#1386=CARTESIAN_POINT('',(-40.0891375757443,6.598336628528,-36.5000000000054));
#1387=CARTESIAN_POINT('',(-40.1152105459017,-6.27341335424589,-33.5000000000054));
#1388=CARTESIAN_POINT('',(40.0891375757443,-6.43587499138698,-33.5000000000054));
#1389=CARTESIAN_POINT('',(-40.1152105459017,-6.27341335424589,-36.5000000000054));
#1390=CARTESIAN_POINT('',(40.0891375757443,-6.43587499138698,-36.5000000000054));
#1391=CARTESIAN_POINT('',(40.0891375757443,-6.43587499138698,-36.5000000000054));
#1392=CARTESIAN_POINT('',(-40.1152105459017,-6.27341335424589,-36.5000000000054));
#1393=CARTESIAN_POINT('',(40.0891375757443,-6.43587499138698,-33.5000000000054));
#1394=CARTESIAN_POINT('',(40.1152105459017,6.43587499138691,-33.5000000000054));
#1395=CARTESIAN_POINT('',(40.0891375757443,-6.43587499138698,-36.5000000000054));
#1396=CARTESIAN_POINT('',(40.1152105459017,6.43587499138691,-36.5000000000054));
#1397=CARTESIAN_POINT('',(40.1152105459017,6.43587499138691,-36.5000000000054));
#1398=CARTESIAN_POINT('',(40.0891375757443,-6.43587499138698,-36.5000000000054));
#1399=CARTESIAN_POINT('',(40.1152105459017,6.43587499138691,-33.5000000000054));
#1400=CARTESIAN_POINT('',(40.1152105459017,6.43587499138691,-36.5000000000054));
#1401=CARTESIAN_POINT('',(40.1152105459017,6.43587499138691,-36.5000000000054));
#1402=CARTESIAN_POINT('',(0.,0.,-36.5000000000054));
#1403=CARTESIAN_POINT('',(0.,0.,-33.5000000000054));
#1404=CARTESIAN_POINT('',(59.0000000000005,2.,30.5000000000054));
#1405=CARTESIAN_POINT('',(59.0000000000005,2.,30.5000000000054));
#1406=CARTESIAN_POINT('',(59.0000000000005,-2.,30.5000000000054));
#1407=CARTESIAN_POINT('',(59.0000000000005,-2.,-30.4999999999946));
#1408=CARTESIAN_POINT('',(59.0000000000005,-2.,-30.4999999999946));
#1409=CARTESIAN_POINT('',(59.0000000000005,2.,-30.4999999999946));
#1410=CARTESIAN_POINT('',(59.0000000000005,2.,-30.4999999999946));
#1411=CARTESIAN_POINT('',(59.0000000000005,2.,-30.4999999999946));
#1412=CARTESIAN_POINT('',(59.0000000000005,2.,-30.4999999999946));
#1413=CARTESIAN_POINT('',(46.0000000000006,-2.,30.5000000000054));
#1414=CARTESIAN_POINT('',(46.0000000000006,-15.,30.5000000000054));
#1415=CARTESIAN_POINT('',(46.0000000000006,-15.,-30.4999999999946));
#1416=CARTESIAN_POINT('',(46.0000000000006,-15.,-30.4999999999946));
#1417=CARTESIAN_POINT('',(46.0000000000006,-2.,-30.4999999999946));
#1418=CARTESIAN_POINT('',(46.0000000000006,-2.,-30.4999999999946));
#1419=CARTESIAN_POINT('',(46.0000000000006,-15.,30.5000000000054));
#1420=CARTESIAN_POINT('',(46.0000000000006,-12.,30.5000000000054));
#1421=CARTESIAN_POINT('',(46.0000000000006,-12.,-30.4999999999946));
#1422=CARTESIAN_POINT('',(46.0000000000006,-12.,-30.4999999999946));
#1423=CARTESIAN_POINT('',(46.0000000000006,-15.,-30.4999999999946));
#1424=CARTESIAN_POINT('',(46.0000000000006,-15.,-30.4999999999946));
#1425=CARTESIAN_POINT('',(46.0000000000006,-2.,30.5000000000054));
#1426=CARTESIAN_POINT('',(56.0000000000006,-2.,30.5000000000054));
#1427=CARTESIAN_POINT('',(56.0000000000006,-2.,-30.4999999999946));
#1428=CARTESIAN_POINT('',(56.0000000000006,-2.,-30.4999999999946));
#1429=CARTESIAN_POINT('',(46.0000000000006,-2.,-30.4999999999946));
#1430=CARTESIAN_POINT('',(46.0000000000006,-2.,-30.4999999999946));
#1431=CARTESIAN_POINT('',(56.0000000000005,-2.,30.5000000000053));
#1432=CARTESIAN_POINT('',(56.0000000000005,2.,30.5000000000053));
#1433=CARTESIAN_POINT('',(56.0000000000005,2.,-30.4999999999947));
#1434=CARTESIAN_POINT('',(56.0000000000005,2.,-30.4999999999947));
#1435=CARTESIAN_POINT('',(56.0000000000005,-2.,-30.4999999999947));
#1436=CARTESIAN_POINT('',(56.0000000000005,-2.,-30.4999999999947));
#1437=CARTESIAN_POINT('',(46.0000000000006,2.,30.5000000000054));
#1438=CARTESIAN_POINT('',(46.0000000000006,12.,30.5000000000054));
#1439=CARTESIAN_POINT('',(46.0000000000006,12.,-30.4999999999946));
#1440=CARTESIAN_POINT('',(46.0000000000006,12.,-30.4999999999946));
#1441=CARTESIAN_POINT('',(46.0000000000006,2.,-30.4999999999946));
#1442=CARTESIAN_POINT('',(46.0000000000006,2.,-30.4999999999946));
#1443=CARTESIAN_POINT('',(46.0000000000006,12.,30.5000000000054));
#1444=CARTESIAN_POINT('',(46.0000000000006,15.,30.5000000000054));
#1445=CARTESIAN_POINT('',(46.0000000000006,15.,-30.4999999999946));
#1446=CARTESIAN_POINT('',(46.0000000000006,15.,-30.4999999999946));
#1447=CARTESIAN_POINT('',(46.0000000000006,12.,-30.4999999999946));
#1448=CARTESIAN_POINT('',(46.0000000000006,12.,-30.4999999999946));
#1449=CARTESIAN_POINT('',(46.0000000000006,2.,30.5000000000054));
#1450=CARTESIAN_POINT('',(46.0000000000006,2.,-30.4999999999946));
#1451=CARTESIAN_POINT('',(46.0000000000006,2.,-30.4999999999946));
#1452=CARTESIAN_POINT('',(46.0000000000006,-2.,-30.4999999999946));
#1453=CARTESIAN_POINT('',(46.0000000000006,-2.,30.5000000000054));
#1454=MECHANICAL_DESIGN_GEOMETRIC_PRESENTATION_REPRESENTATION('',(#86,#87,
#88,#89,#90,#91),#1455);
#1455=(
GEOMETRIC_REPRESENTATION_CONTEXT(3)
GLOBAL_UNCERTAINTY_ASSIGNED_CONTEXT((#1456))
GLOBAL_UNIT_ASSIGNED_CONTEXT((#1462,#1458,#1457))
REPRESENTATION_CONTEXT('Battery_6s18650_24V','TOP_LEVEL_ASSEMBLY_PART')
);
#1456=UNCERTAINTY_MEASURE_WITH_UNIT(LENGTH_MEASURE(2.E-5),#1462,
'DISTANCE_ACCURACY_VALUE','Maximum Tolerance applied to model');
#1457=(
NAMED_UNIT(*)
SI_UNIT($,.STERADIAN.)
SOLID_ANGLE_UNIT()
);
#1458=(
CONVERSION_BASED_UNIT('DEGREE',#1460)
NAMED_UNIT(#1459)
PLANE_ANGLE_UNIT()
);
#1459=DIMENSIONAL_EXPONENTS(0.,0.,0.,0.,0.,0.,0.);
#1460=PLANE_ANGLE_MEASURE_WITH_UNIT(PLANE_ANGLE_MEASURE(0.0174532925),#1461);
#1461=(
NAMED_UNIT(*)
PLANE_ANGLE_UNIT()
SI_UNIT($,.RADIAN.)
);
#1462=(
LENGTH_UNIT()
NAMED_UNIT(*)
SI_UNIT(.MILLI.,.METRE.)
);
ENDSEC;
END-ISO-10303-21;
