ISO-10303-21;
HEADER;
/* Generated by software containing ST-Developer
 * from STEP Tools, Inc. (www.steptools.com) 
 */
/* OPTION: using custom schema-name function */

FILE_DESCRIPTION(
/* description */ (''),
/* implementation_level */ '2;1');

FILE_NAME(
/* name */ 'Bearing_20_27_4.stp',
/* time_stamp */ '2026-09-11T23:28:35+08:00',
/* author */ (''),
/* organization */ (''),
/* preprocessor_version */ 'ST-DEVELOPER v20',
/* originating_system */ 'SIEMENS PLM Software NX2406.1700',
/* authorisation */ '');

FILE_SCHEMA (('AP203_CONFIGURATION_CONTROLLED_3D_DESIGN_OF_MECHANICAL_PARTS_AND_ASSEMBLIES_MIM_LF { 1 0 10303 403 2 1 2}'));
ENDSEC;

DATA;
#10=PROPERTY_DEFINITION_REPRESENTATION(#14,#12);
#11=PROPERTY_DEFINITION_REPRESENTATION(#15,#13);
#12=REPRESENTATION('',(#16),#421);
#13=REPRESENTATION('',(#17),#421);
#14=PROPERTY_DEFINITION('pmi validation property','',#73);
#15=PROPERTY_DEFINITION('pmi validation property','',#73);
#16=VALUE_REPRESENTATION_ITEM('number of annotations',COUNT_MEASURE(0.));
#17=VALUE_REPRESENTATION_ITEM('number of views',COUNT_MEASURE(0.));
#18=SHAPE_REPRESENTATION_RELATIONSHIP('None',
'relationship between B20_27_4_simple_objects-None and B20_27_4_simple
_objects-None',#84,#19);
#19=ADVANCED_BREP_SHAPE_REPRESENTATION('B20_27_4_simple_objects-None',(#94),
#421);
#20=APPLIED_APPROVAL_ASSIGNMENT(#32,(#74));
#21=APPLIED_APPROVAL_ASSIGNMENT(#33,(#76));
#22=APPLIED_APPROVAL_ASSIGNMENT(#34,(#46));
#23=APPROVAL_PERSON_ORGANIZATION(#38,#32,#26);
#24=APPROVAL_PERSON_ORGANIZATION(#39,#33,#27);
#25=APPROVAL_PERSON_ORGANIZATION(#40,#34,#28);
#26=APPROVAL_ROLE('approver');
#27=APPROVAL_ROLE('approver');
#28=APPROVAL_ROLE('approver');
#29=APPROVAL_DATE_TIME(#54,#32);
#30=APPROVAL_DATE_TIME(#55,#33);
#31=APPROVAL_DATE_TIME(#56,#34);
#32=APPROVAL(#35,' ');
#33=APPROVAL(#36,' ');
#34=APPROVAL(#37,' ');
#35=APPROVAL_STATUS('not_yet_approved');
#36=APPROVAL_STATUS('not_yet_approved');
#37=APPROVAL_STATUS('not_yet_approved');
#38=PERSON_AND_ORGANIZATION(#44,#41);
#39=PERSON_AND_ORGANIZATION(#44,#42);
#40=PERSON_AND_ORGANIZATION(#44,#43);
#41=ORGANIZATION(' ',' ',' ');
#42=ORGANIZATION(' ',' ',' ');
#43=ORGANIZATION(' ',' ',' ');
#44=PERSON(' ',' ',' ',(' '),$,$);
#45=APPLIED_SECURITY_CLASSIFICATION_ASSIGNMENT(#46,(#76));
#46=SECURITY_CLASSIFICATION(' ',' ',#47);
#47=SECURITY_CLASSIFICATION_LEVEL('confidential');
#48=APPLIED_DATE_AND_TIME_ASSIGNMENT(#52,#50,(#74));
#49=APPLIED_DATE_AND_TIME_ASSIGNMENT(#53,#51,(#46));
#50=DATE_TIME_ROLE('creation_date');
#51=DATE_TIME_ROLE('classification_date');
#52=DATE_AND_TIME(#67,#57);
#53=DATE_AND_TIME(#68,#58);
#54=DATE_AND_TIME(#69,#59);
#55=DATE_AND_TIME(#70,#60);
#56=DATE_AND_TIME(#71,#61);
#57=LOCAL_TIME(0,0,0.,#62);
#58=LOCAL_TIME(0,0,0.,#63);
#59=LOCAL_TIME(0,0,0.,#64);
#60=LOCAL_TIME(0,0,0.,#65);
#61=LOCAL_TIME(0,0,0.,#66);
#62=COORDINATED_UNIVERSAL_TIME_OFFSET(0,0,.BEHIND.);
#63=COORDINATED_UNIVERSAL_TIME_OFFSET(0,0,.BEHIND.);
#64=COORDINATED_UNIVERSAL_TIME_OFFSET(0,0,.BEHIND.);
#65=COORDINATED_UNIVERSAL_TIME_OFFSET(0,0,.BEHIND.);
#66=COORDINATED_UNIVERSAL_TIME_OFFSET(0,0,.BEHIND.);
#67=CALENDAR_DATE(0,1,1);
#68=CALENDAR_DATE(0,1,1);
#69=CALENDAR_DATE(0,1,1);
#70=CALENDAR_DATE(0,1,1);
#71=CALENDAR_DATE(0,1,1);
#72=SHAPE_DEFINITION_REPRESENTATION(#73,#84);
#73=PRODUCT_DEFINITION_SHAPE('','',#74);
#74=PRODUCT_DEFINITION(' ','',#76,#75);
#75=PRODUCT_DEFINITION_CONTEXT('part definition',#83,'design');
#76=PRODUCT_DEFINITION_FORMATION_WITH_SPECIFIED_SOURCE(' ',' ',#78,
 .NOT_KNOWN.);
#77=PRODUCT_RELATED_PRODUCT_CATEGORY('detail','',(#78));
#78=PRODUCT('B20_27_4_simple_objects','B20_27_4_simple_objects',' ',(#81));
#79=PRODUCT_CATEGORY('part',' ');
#80=PRODUCT_CATEGORY(' ','');
#81=PRODUCT_CONTEXT(' ',#83,'mechanical');
#82=APPLICATION_PROTOCOL_DEFINITION('international standard',
'config_control_design',2010,#83);
#83=APPLICATION_CONTEXT(
'configuration controlled 3D designs of mechanical parts and assemblie
s');
#84=SHAPE_REPRESENTATION('B20_27_4_simple_objects-None',(#272),#421);
#85=PRESENTATION_LAYER_ASSIGNMENT('1','Layer 1',(#94));
#86=STYLED_ITEM('',(#87),#94);
#87=PRESENTATION_STYLE_ASSIGNMENT((#88));
#88=SURFACE_STYLE_USAGE(.BOTH.,#89);
#89=SURFACE_SIDE_STYLE('',(#90));
#90=SURFACE_STYLE_FILL_AREA(#91);
#91=FILL_AREA_STYLE('',(#92));
#92=FILL_AREA_STYLE_COLOUR('',#93);
#93=COLOUR_RGB('smoke gray',0.694117647058824,0.694117647058824,0.694117647058824);
#94=MANIFOLD_SOLID_BREP('',#95);
#95=CLOSED_SHELL('',(#106,#107,#108,#109,#110,#111,#112,#113,#114,#115,
#116,#117,#118,#119,#120,#121));
#96=CONICAL_SURFACE('',#301,13.2,45.);
#97=CONICAL_SURFACE('',#302,13.5,45.);
#98=CONICAL_SURFACE('',#303,10.3,45.);
#99=CONICAL_SURFACE('',#304,10.,45.);
#100=CYLINDRICAL_SURFACE('',#281,13.5);
#101=CYLINDRICAL_SURFACE('',#284,10.);
#102=CYLINDRICAL_SURFACE('',#292,12.5);
#103=CYLINDRICAL_SURFACE('',#294,11.);
#104=CYLINDRICAL_SURFACE('',#297,12.5);
#105=CYLINDRICAL_SURFACE('',#299,11.);
#106=ADVANCED_FACE('',(#128,#129),#122,.F.);
#107=ADVANCED_FACE('',(#130,#131),#123,.T.);
#108=ADVANCED_FACE('',(#132,#133),#100,.T.);
#109=ADVANCED_FACE('',(#134,#135),#101,.F.);
#110=ADVANCED_FACE('',(#136,#137),#124,.T.);
#111=ADVANCED_FACE('',(#138,#139),#125,.F.);
#112=ADVANCED_FACE('',(#140,#141),#102,.F.);
#113=ADVANCED_FACE('',(#142,#143),#103,.T.);
#114=ADVANCED_FACE('',(#144,#145),#126,.T.);
#115=ADVANCED_FACE('',(#146,#147),#104,.F.);
#116=ADVANCED_FACE('',(#148,#149),#105,.T.);
#117=ADVANCED_FACE('',(#150,#151),#127,.F.);
#118=ADVANCED_FACE('',(#152,#153),#96,.T.);
#119=ADVANCED_FACE('',(#154,#155),#97,.T.);
#120=ADVANCED_FACE('',(#156,#157),#98,.F.);
#121=ADVANCED_FACE('',(#158,#159),#99,.F.);
#122=PLANE('',#275);
#123=PLANE('',#278);
#124=PLANE('',#287);
#125=PLANE('',#290);
#126=PLANE('',#295);
#127=PLANE('',#300);
#128=FACE_BOUND('',#160,.T.);
#129=FACE_BOUND('',#161,.T.);
#130=FACE_BOUND('',#162,.T.);
#131=FACE_BOUND('',#163,.T.);
#132=FACE_BOUND('',#164,.T.);
#133=FACE_BOUND('',#165,.T.);
#134=FACE_BOUND('',#166,.T.);
#135=FACE_BOUND('',#167,.T.);
#136=FACE_BOUND('',#168,.T.);
#137=FACE_BOUND('',#169,.T.);
#138=FACE_BOUND('',#170,.T.);
#139=FACE_BOUND('',#171,.T.);
#140=FACE_BOUND('',#172,.T.);
#141=FACE_BOUND('',#173,.T.);
#142=FACE_BOUND('',#174,.T.);
#143=FACE_BOUND('',#175,.T.);
#144=FACE_BOUND('',#176,.T.);
#145=FACE_BOUND('',#177,.T.);
#146=FACE_BOUND('',#178,.T.);
#147=FACE_BOUND('',#179,.T.);
#148=FACE_BOUND('',#180,.T.);
#149=FACE_BOUND('',#181,.T.);
#150=FACE_BOUND('',#182,.T.);
#151=FACE_BOUND('',#183,.T.);
#152=FACE_BOUND('',#184,.T.);
#153=FACE_BOUND('',#185,.T.);
#154=FACE_BOUND('',#186,.T.);
#155=FACE_BOUND('',#187,.T.);
#156=FACE_BOUND('',#188,.T.);
#157=FACE_BOUND('',#189,.T.);
#158=FACE_BOUND('',#190,.T.);
#159=FACE_BOUND('',#191,.T.);
#160=EDGE_LOOP('',(#192));
#161=EDGE_LOOP('',(#193));
#162=EDGE_LOOP('',(#194));
#163=EDGE_LOOP('',(#195));
#164=EDGE_LOOP('',(#196));
#165=EDGE_LOOP('',(#197));
#166=EDGE_LOOP('',(#198));
#167=EDGE_LOOP('',(#199));
#168=EDGE_LOOP('',(#200));
#169=EDGE_LOOP('',(#201));
#170=EDGE_LOOP('',(#202));
#171=EDGE_LOOP('',(#203));
#172=EDGE_LOOP('',(#204));
#173=EDGE_LOOP('',(#205));
#174=EDGE_LOOP('',(#206));
#175=EDGE_LOOP('',(#207));
#176=EDGE_LOOP('',(#208));
#177=EDGE_LOOP('',(#209));
#178=EDGE_LOOP('',(#210));
#179=EDGE_LOOP('',(#211));
#180=EDGE_LOOP('',(#212));
#181=EDGE_LOOP('',(#213));
#182=EDGE_LOOP('',(#214));
#183=EDGE_LOOP('',(#215));
#184=EDGE_LOOP('',(#216));
#185=EDGE_LOOP('',(#217));
#186=EDGE_LOOP('',(#218));
#187=EDGE_LOOP('',(#219));
#188=EDGE_LOOP('',(#220));
#189=EDGE_LOOP('',(#221));
#190=EDGE_LOOP('',(#222));
#191=EDGE_LOOP('',(#223));
#192=ORIENTED_EDGE('',*,*,#240,.T.);
#193=ORIENTED_EDGE('',*,*,#241,.F.);
#194=ORIENTED_EDGE('',*,*,#242,.T.);
#195=ORIENTED_EDGE('',*,*,#243,.T.);
#196=ORIENTED_EDGE('',*,*,#244,.T.);
#197=ORIENTED_EDGE('',*,*,#245,.T.);
#198=ORIENTED_EDGE('',*,*,#246,.T.);
#199=ORIENTED_EDGE('',*,*,#247,.T.);
#200=ORIENTED_EDGE('',*,*,#248,.T.);
#201=ORIENTED_EDGE('',*,*,#249,.F.);
#202=ORIENTED_EDGE('',*,*,#250,.T.);
#203=ORIENTED_EDGE('',*,*,#251,.T.);
#204=ORIENTED_EDGE('',*,*,#252,.T.);
#205=ORIENTED_EDGE('',*,*,#249,.T.);
#206=ORIENTED_EDGE('',*,*,#253,.F.);
#207=ORIENTED_EDGE('',*,*,#243,.F.);
#208=ORIENTED_EDGE('',*,*,#252,.F.);
#209=ORIENTED_EDGE('',*,*,#253,.T.);
#210=ORIENTED_EDGE('',*,*,#254,.F.);
#211=ORIENTED_EDGE('',*,*,#251,.F.);
#212=ORIENTED_EDGE('',*,*,#255,.T.);
#213=ORIENTED_EDGE('',*,*,#241,.T.);
#214=ORIENTED_EDGE('',*,*,#254,.T.);
#215=ORIENTED_EDGE('',*,*,#255,.F.);
#216=ORIENTED_EDGE('',*,*,#244,.F.);
#217=ORIENTED_EDGE('',*,*,#248,.F.);
#218=ORIENTED_EDGE('',*,*,#250,.F.);
#219=ORIENTED_EDGE('',*,*,#245,.F.);
#220=ORIENTED_EDGE('',*,*,#246,.F.);
#221=ORIENTED_EDGE('',*,*,#240,.F.);
#222=ORIENTED_EDGE('',*,*,#242,.F.);
#223=ORIENTED_EDGE('',*,*,#247,.F.);
#224=VERTEX_POINT('',#373);
#225=VERTEX_POINT('',#375);
#226=VERTEX_POINT('',#378);
#227=VERTEX_POINT('',#380);
#228=VERTEX_POINT('',#383);
#229=VERTEX_POINT('',#385);
#230=VERTEX_POINT('',#388);
#231=VERTEX_POINT('',#390);
#232=VERTEX_POINT('',#393);
#233=VERTEX_POINT('',#395);
#234=VERTEX_POINT('',#398);
#235=VERTEX_POINT('',#400);
#236=VERTEX_POINT('',#403);
#237=VERTEX_POINT('',#406);
#238=VERTEX_POINT('',#410);
#239=VERTEX_POINT('',#413);
#240=EDGE_CURVE('',#224,#224,#256,.T.);
#241=EDGE_CURVE('',#225,#225,#257,.T.);
#242=EDGE_CURVE('',#226,#226,#258,.T.);
#243=EDGE_CURVE('',#227,#227,#259,.T.);
#244=EDGE_CURVE('',#228,#228,#260,.T.);
#245=EDGE_CURVE('',#229,#229,#261,.T.);
#246=EDGE_CURVE('',#230,#230,#262,.T.);
#247=EDGE_CURVE('',#231,#231,#263,.T.);
#248=EDGE_CURVE('',#232,#232,#264,.T.);
#249=EDGE_CURVE('',#233,#233,#265,.T.);
#250=EDGE_CURVE('',#234,#234,#266,.T.);
#251=EDGE_CURVE('',#235,#235,#267,.T.);
#252=EDGE_CURVE('',#236,#236,#268,.T.);
#253=EDGE_CURVE('',#237,#237,#269,.T.);
#254=EDGE_CURVE('',#238,#238,#270,.T.);
#255=EDGE_CURVE('',#239,#239,#271,.T.);
#256=CIRCLE('',#273,10.3);
#257=CIRCLE('',#274,11.);
#258=CIRCLE('',#276,10.3);
#259=CIRCLE('',#277,11.);
#260=CIRCLE('',#279,13.5);
#261=CIRCLE('',#280,13.5);
#262=CIRCLE('',#282,10.);
#263=CIRCLE('',#283,10.);
#264=CIRCLE('',#285,13.2);
#265=CIRCLE('',#286,12.5);
#266=CIRCLE('',#288,13.2);
#267=CIRCLE('',#289,12.5);
#268=CIRCLE('',#291,12.5);
#269=CIRCLE('',#293,11.);
#270=CIRCLE('',#296,12.5);
#271=CIRCLE('',#298,11.);
#272=AXIS2_PLACEMENT_3D('',#371,#305,#306);
#273=AXIS2_PLACEMENT_3D('',#372,#307,#308);
#274=AXIS2_PLACEMENT_3D('',#374,#309,#310);
#275=AXIS2_PLACEMENT_3D('',#376,#311,#312);
#276=AXIS2_PLACEMENT_3D('',#377,#313,#314);
#277=AXIS2_PLACEMENT_3D('',#379,#315,#316);
#278=AXIS2_PLACEMENT_3D('',#381,#317,#318);
#279=AXIS2_PLACEMENT_3D('',#382,#319,#320);
#280=AXIS2_PLACEMENT_3D('',#384,#321,#322);
#281=AXIS2_PLACEMENT_3D('',#386,#323,#324);
#282=AXIS2_PLACEMENT_3D('',#387,#325,#326);
#283=AXIS2_PLACEMENT_3D('',#389,#327,#328);
#284=AXIS2_PLACEMENT_3D('',#391,#329,#330);
#285=AXIS2_PLACEMENT_3D('',#392,#331,#332);
#286=AXIS2_PLACEMENT_3D('',#394,#333,#334);
#287=AXIS2_PLACEMENT_3D('',#396,#335,#336);
#288=AXIS2_PLACEMENT_3D('',#397,#337,#338);
#289=AXIS2_PLACEMENT_3D('',#399,#339,#340);
#290=AXIS2_PLACEMENT_3D('',#401,#341,#342);
#291=AXIS2_PLACEMENT_3D('',#402,#343,#344);
#292=AXIS2_PLACEMENT_3D('',#404,#345,#346);
#293=AXIS2_PLACEMENT_3D('',#405,#347,#348);
#294=AXIS2_PLACEMENT_3D('',#407,#349,#350);
#295=AXIS2_PLACEMENT_3D('',#408,#351,#352);
#296=AXIS2_PLACEMENT_3D('',#409,#353,#354);
#297=AXIS2_PLACEMENT_3D('',#411,#355,#356);
#298=AXIS2_PLACEMENT_3D('',#412,#357,#358);
#299=AXIS2_PLACEMENT_3D('',#414,#359,#360);
#300=AXIS2_PLACEMENT_3D('',#415,#361,#362);
#301=AXIS2_PLACEMENT_3D('',#416,#363,#364);
#302=AXIS2_PLACEMENT_3D('',#417,#365,#366);
#303=AXIS2_PLACEMENT_3D('',#418,#367,#368);
#304=AXIS2_PLACEMENT_3D('',#419,#369,#370);
#305=DIRECTION('',(0.,0.,1.));
#306=DIRECTION('',(1.,0.,0.));
#307=DIRECTION('',(0.,0.,1.));
#308=DIRECTION('',(1.,0.,0.));
#309=DIRECTION('',(0.,0.,1.));
#310=DIRECTION('',(1.,0.,0.));
#311=DIRECTION('',(0.,0.,1.));
#312=DIRECTION('',(1.,0.,0.));
#313=DIRECTION('',(0.,0.,-1.));
#314=DIRECTION('',(1.,0.,0.));
#315=DIRECTION('',(0.,0.,1.));
#316=DIRECTION('',(1.,0.,0.));
#317=DIRECTION('',(0.,0.,1.));
#318=DIRECTION('',(1.,0.,0.));
#319=DIRECTION('',(0.,0.,-1.));
#320=DIRECTION('',(1.,0.,0.));
#321=DIRECTION('',(0.,0.,1.));
#322=DIRECTION('',(1.,0.,0.));
#323=DIRECTION('',(0.,0.,-1.));
#324=DIRECTION('',(-1.,0.,0.));
#325=DIRECTION('',(0.,0.,-1.));
#326=DIRECTION('',(1.,0.,0.));
#327=DIRECTION('',(0.,0.,1.));
#328=DIRECTION('',(1.,0.,0.));
#329=DIRECTION('',(0.,0.,-1.));
#330=DIRECTION('',(-1.,0.,0.));
#331=DIRECTION('',(0.,0.,1.));
#332=DIRECTION('',(1.,0.,0.));
#333=DIRECTION('',(0.,0.,1.));
#334=DIRECTION('',(1.,0.,0.));
#335=DIRECTION('',(0.,0.,1.));
#336=DIRECTION('',(1.,0.,0.));
#337=DIRECTION('',(0.,0.,-1.));
#338=DIRECTION('',(1.,0.,0.));
#339=DIRECTION('',(0.,0.,1.));
#340=DIRECTION('',(1.,0.,0.));
#341=DIRECTION('',(0.,0.,1.));
#342=DIRECTION('',(1.,0.,0.));
#343=DIRECTION('',(0.,0.,-1.));
#344=DIRECTION('',(1.,0.,0.));
#345=DIRECTION('',(0.,0.,1.));
#346=DIRECTION('',(1.,0.,0.));
#347=DIRECTION('',(0.,0.,-1.));
#348=DIRECTION('',(1.,0.,0.));
#349=DIRECTION('',(0.,0.,1.));
#350=DIRECTION('',(1.,0.,0.));
#351=DIRECTION('',(0.,0.,1.));
#352=DIRECTION('',(1.,0.,0.));
#353=DIRECTION('',(0.,0.,-1.));
#354=DIRECTION('',(1.,0.,0.));
#355=DIRECTION('',(0.,0.,-1.));
#356=DIRECTION('',(-1.,0.,0.));
#357=DIRECTION('',(0.,0.,-1.));
#358=DIRECTION('',(1.,0.,0.));
#359=DIRECTION('',(0.,0.,-1.));
#360=DIRECTION('',(-1.,0.,0.));
#361=DIRECTION('',(0.,0.,1.));
#362=DIRECTION('',(1.,0.,0.));
#363=DIRECTION('',(0.,0.,-1.));
#364=DIRECTION('',(-1.,0.,1.71212344648323E-18));
#365=DIRECTION('',(0.,0.,1.));
#366=DIRECTION('',(1.,0.,-3.4232333023716E-17));
#367=DIRECTION('',(0.,0.,-1.));
#368=DIRECTION('',(-1.,0.,-1.71703798473405E-18));
#369=DIRECTION('',(0.,0.,1.));
#370=DIRECTION('',(1.,0.,3.43509599203328E-17));
#371=CARTESIAN_POINT('',(0.,0.,0.));
#372=CARTESIAN_POINT('',(0.,0.,-2.));
#373=CARTESIAN_POINT('',(10.3,0.,-2.));
#374=CARTESIAN_POINT('',(0.,0.,-2.));
#375=CARTESIAN_POINT('',(11.,0.,-2.));
#376=CARTESIAN_POINT('',(0.,0.,-2.));
#377=CARTESIAN_POINT('',(0.,0.,2.));
#378=CARTESIAN_POINT('',(10.3,0.,2.));
#379=CARTESIAN_POINT('',(0.,0.,2.));
#380=CARTESIAN_POINT('',(11.,0.,2.));
#381=CARTESIAN_POINT('',(0.,0.,2.));
#382=CARTESIAN_POINT('',(0.,0.,1.7));
#383=CARTESIAN_POINT('',(13.5,0.,1.7));
#384=CARTESIAN_POINT('',(0.,0.,-1.7));
#385=CARTESIAN_POINT('',(13.5,0.,-1.7));
#386=CARTESIAN_POINT('',(0.,0.,2.));
#387=CARTESIAN_POINT('',(0.,0.,-1.7));
#388=CARTESIAN_POINT('',(10.,0.,-1.7));
#389=CARTESIAN_POINT('',(0.,0.,1.7));
#390=CARTESIAN_POINT('',(10.,0.,1.7));
#391=CARTESIAN_POINT('',(0.,0.,2.));
#392=CARTESIAN_POINT('',(0.,0.,2.));
#393=CARTESIAN_POINT('',(13.2,0.,2.));
#394=CARTESIAN_POINT('',(0.,0.,2.));
#395=CARTESIAN_POINT('',(12.5,0.,2.));
#396=CARTESIAN_POINT('',(0.,0.,2.));
#397=CARTESIAN_POINT('',(0.,0.,-2.));
#398=CARTESIAN_POINT('',(13.2,0.,-2.));
#399=CARTESIAN_POINT('',(0.,0.,-2.));
#400=CARTESIAN_POINT('',(12.5,0.,-2.));
#401=CARTESIAN_POINT('',(0.,0.,-2.));
#402=CARTESIAN_POINT('',(0.,0.,1.8));
#403=CARTESIAN_POINT('',(12.5,0.,1.8));
#404=CARTESIAN_POINT('',(0.,0.,1.8));
#405=CARTESIAN_POINT('',(0.,0.,1.8));
#406=CARTESIAN_POINT('',(11.,0.,1.8));
#407=CARTESIAN_POINT('',(0.,0.,1.8));
#408=CARTESIAN_POINT('',(0.,0.,1.8));
#409=CARTESIAN_POINT('',(0.,0.,-1.8));
#410=CARTESIAN_POINT('',(12.5,0.,-1.8));
#411=CARTESIAN_POINT('',(0.,0.,-1.8));
#412=CARTESIAN_POINT('',(0.,0.,-1.8));
#413=CARTESIAN_POINT('',(11.,0.,-1.8));
#414=CARTESIAN_POINT('',(0.,0.,-1.8));
#415=CARTESIAN_POINT('',(0.,0.,-1.8));
#416=CARTESIAN_POINT('',(0.,0.,2.));
#417=CARTESIAN_POINT('',(0.,0.,-1.7));
#418=CARTESIAN_POINT('',(0.,0.,-2.));
#419=CARTESIAN_POINT('',(0.,0.,1.7));
#420=MECHANICAL_DESIGN_GEOMETRIC_PRESENTATION_REPRESENTATION('',(#86),#421);
#421=(
GEOMETRIC_REPRESENTATION_CONTEXT(3)
GLOBAL_UNCERTAINTY_ASSIGNED_CONTEXT((#422))
GLOBAL_UNIT_ASSIGNED_CONTEXT((#428,#424,#423))
REPRESENTATION_CONTEXT('Bearing_20_27_4','TOP_LEVEL_ASSEMBLY_PART')
);
#422=UNCERTAINTY_MEASURE_WITH_UNIT(LENGTH_MEASURE(2.E-5),#428,
'DISTANCE_ACCURACY_VALUE','Maximum Tolerance applied to model');
#423=(
NAMED_UNIT(*)
SI_UNIT($,.STERADIAN.)
SOLID_ANGLE_UNIT()
);
#424=(
CONVERSION_BASED_UNIT('DEGREE',#426)
NAMED_UNIT(#425)
PLANE_ANGLE_UNIT()
);
#425=DIMENSIONAL_EXPONENTS(0.,0.,0.,0.,0.,0.,0.);
#426=PLANE_ANGLE_MEASURE_WITH_UNIT(PLANE_ANGLE_MEASURE(0.0174532925),#427);
#427=(
NAMED_UNIT(*)
PLANE_ANGLE_UNIT()
SI_UNIT($,.RADIAN.)
);
#428=(
LENGTH_UNIT()
NAMED_UNIT(*)
SI_UNIT(.MILLI.,.METRE.)
);
ENDSEC;
END-ISO-10303-21;
