ISO-10303-21;
HEADER;
/* Generated by software containing ST-Developer
 * from STEP Tools, Inc. (www.steptools.com) 
 */
/* OPTION: using custom schema-name function */

FILE_DESCRIPTION(
/* description */ (''),
/* implementation_level */ '2;1');

FILE_NAME(
/* name */ 'Control_Borad_AT32.stp',
/* time_stamp */ '2026-09-11T23:18:05+08:00',
/* author */ (''),
/* organization */ (''),
/* preprocessor_version */ 'ST-DEVELOPER v20',
/* originating_system */ 'SIEMENS PLM Software NX2406.1700',
/* authorisation */ '');

FILE_SCHEMA (('AP203_CONFIGURATION_CONTROLLED_3D_DESIGN_OF_MECHANICAL_PARTS_AND_ASSEMBLIES_MIM_LF { 1 0 10303 403 2 1 2}'));
ENDSEC;

DATA;
#10=PROPERTY_DEFINITION_REPRESENTATION(#14,#12);
#11=PROPERTY_DEFINITION_REPRESENTATION(#15,#13);
#12=REPRESENTATION('',(#16),#1877);
#13=REPRESENTATION('',(#17),#1877);
#14=PROPERTY_DEFINITION('pmi validation property','',#73);
#15=PROPERTY_DEFINITION('pmi validation property','',#73);
#16=VALUE_REPRESENTATION_ITEM('number of annotations',COUNT_MEASURE(0.));
#17=VALUE_REPRESENTATION_ITEM('number of views',COUNT_MEASURE(0.));
#18=SHAPE_REPRESENTATION_RELATIONSHIP('None',
'relationship between AT32F456_FDCAN_V0.1_stp_objects-None and AT32F45
6_FDCAN_V0.1_stp_objects-None',#84,#19);
#19=ADVANCED_BREP_SHAPE_REPRESENTATION(
'AT32F456_FDCAN_V0.1_stp_objects-None',(#94),#1877);
#20=APPLIED_APPROVAL_ASSIGNMENT(#32,(#74));
#21=APPLIED_APPROVAL_ASSIGNMENT(#33,(#76));
#22=APPLIED_APPROVAL_ASSIGNMENT(#34,(#46));
#23=APPROVAL_PERSON_ORGANIZATION(#38,#32,#26);
#24=APPROVAL_PERSON_ORGANIZATION(#39,#33,#27);
#25=APPROVAL_PERSON_ORGANIZATION(#40,#34,#28);
#26=APPROVAL_ROLE('approver');
#27=APPROVAL_ROLE('approver');
#28=APPROVAL_ROLE('approver');
#29=APPROVAL_DATE_TIME(#54,#32);
#30=APPROVAL_DATE_TIME(#55,#33);
#31=APPROVAL_DATE_TIME(#56,#34);
#32=APPROVAL(#35,' ');
#33=APPROVAL(#36,' ');
#34=APPROVAL(#37,' ');
#35=APPROVAL_STATUS('not_yet_approved');
#36=APPROVAL_STATUS('not_yet_approved');
#37=APPROVAL_STATUS('not_yet_approved');
#38=PERSON_AND_ORGANIZATION(#44,#41);
#39=PERSON_AND_ORGANIZATION(#44,#42);
#40=PERSON_AND_ORGANIZATION(#44,#43);
#41=ORGANIZATION(' ',' ',' ');
#42=ORGANIZATION(' ',' ',' ');
#43=ORGANIZATION(' ',' ',' ');
#44=PERSON(' ',' ',' ',(' '),$,$);
#45=APPLIED_SECURITY_CLASSIFICATION_ASSIGNMENT(#46,(#76));
#46=SECURITY_CLASSIFICATION(' ',' ',#47);
#47=SECURITY_CLASSIFICATION_LEVEL('confidential');
#48=APPLIED_DATE_AND_TIME_ASSIGNMENT(#52,#50,(#74));
#49=APPLIED_DATE_AND_TIME_ASSIGNMENT(#53,#51,(#46));
#50=DATE_TIME_ROLE('creation_date');
#51=DATE_TIME_ROLE('classification_date');
#52=DATE_AND_TIME(#67,#57);
#53=DATE_AND_TIME(#68,#58);
#54=DATE_AND_TIME(#69,#59);
#55=DATE_AND_TIME(#70,#60);
#56=DATE_AND_TIME(#71,#61);
#57=LOCAL_TIME(0,0,0.,#62);
#58=LOCAL_TIME(0,0,0.,#63);
#59=LOCAL_TIME(0,0,0.,#64);
#60=LOCAL_TIME(0,0,0.,#65);
#61=LOCAL_TIME(0,0,0.,#66);
#62=COORDINATED_UNIVERSAL_TIME_OFFSET(0,0,.BEHIND.);
#63=COORDINATED_UNIVERSAL_TIME_OFFSET(0,0,.BEHIND.);
#64=COORDINATED_UNIVERSAL_TIME_OFFSET(0,0,.BEHIND.);
#65=COORDINATED_UNIVERSAL_TIME_OFFSET(0,0,.BEHIND.);
#66=COORDINATED_UNIVERSAL_TIME_OFFSET(0,0,.BEHIND.);
#67=CALENDAR_DATE(0,1,1);
#68=CALENDAR_DATE(0,1,1);
#69=CALENDAR_DATE(0,1,1);
#70=CALENDAR_DATE(0,1,1);
#71=CALENDAR_DATE(0,1,1);
#72=SHAPE_DEFINITION_REPRESENTATION(#73,#84);
#73=PRODUCT_DEFINITION_SHAPE('','',#74);
#74=PRODUCT_DEFINITION(' ','',#76,#75);
#75=PRODUCT_DEFINITION_CONTEXT('part definition',#83,'design');
#76=PRODUCT_DEFINITION_FORMATION_WITH_SPECIFIED_SOURCE(' ',' ',#78,
 .NOT_KNOWN.);
#77=PRODUCT_RELATED_PRODUCT_CATEGORY('detail','',(#78));
#78=PRODUCT('AT32F456_FDCAN_V0.1_stp_objects',
'AT32F456_FDCAN_V0.1_stp_objects',' ',(#81));
#79=PRODUCT_CATEGORY('part',' ');
#80=PRODUCT_CATEGORY(' ','');
#81=PRODUCT_CONTEXT(' ',#83,'mechanical');
#82=APPLICATION_PROTOCOL_DEFINITION('international standard',
'config_control_design',2010,#83);
#83=APPLICATION_CONTEXT(
'configuration controlled 3D designs of mechanical parts and assemblie
s');
#84=SHAPE_REPRESENTATION('AT32F456_FDCAN_V0.1_stp_objects-None',(#1160),
#1877);
#85=PRESENTATION_LAYER_ASSIGNMENT('1','Layer 1',(#94));
#86=STYLED_ITEM('',(#87),#94);
#87=PRESENTATION_STYLE_ASSIGNMENT((#88));
#88=SURFACE_STYLE_USAGE(.BOTH.,#89);
#89=SURFACE_SIDE_STYLE('',(#90));
#90=SURFACE_STYLE_FILL_AREA(#91);
#91=FILL_AREA_STYLE('',(#92));
#92=FILL_AREA_STYLE_COLOUR('',#93);
#93=COLOUR_RGB('dark gray',0.2,0.2,0.2);
#94=MANIFOLD_SOLID_BREP('',#95);
#95=CLOSED_SHELL('',(#250,#251,#252,#253,#254,#255,#256,#257,#258,#259,
#260,#261,#262,#263,#264,#265,#266,#267,#268,#269,#270,#271,#272,#273,#274,
#275,#276,#277,#278,#279,#280,#281,#282,#283,#284,#285,#286,#287,#288,#289,
#290,#291,#292,#293,#294,#295,#296,#297,#298,#299));
#96=CYLINDRICAL_SURFACE('',#1235,1.6);
#97=CYLINDRICAL_SURFACE('',#1236,1.299997);
#98=CYLINDRICAL_SURFACE('',#1237,1.299997);
#99=CYLINDRICAL_SURFACE('',#1238,1.299997);
#100=CYLINDRICAL_SURFACE('',#1239,0.5);
#101=CYLINDRICAL_SURFACE('',#1240,0.5);
#102=CYLINDRICAL_SURFACE('',#1241,0.5);
#103=CYLINDRICAL_SURFACE('',#1242,0.5);
#104=CYLINDRICAL_SURFACE('',#1243,0.5);
#105=CYLINDRICAL_SURFACE('',#1244,0.5);
#106=CYLINDRICAL_SURFACE('',#1245,0.5);
#107=CYLINDRICAL_SURFACE('',#1246,0.5);
#108=CYLINDRICAL_SURFACE('',#1247,0.5);
#109=CYLINDRICAL_SURFACE('',#1248,1.6);
#110=CYLINDRICAL_SURFACE('',#1249,0.3);
#111=CYLINDRICAL_SURFACE('',#1251,0.3);
#112=CYLINDRICAL_SURFACE('',#1253,0.3);
#113=CYLINDRICAL_SURFACE('',#1255,0.3);
#114=CYLINDRICAL_SURFACE('',#1257,0.325);
#115=CYLINDRICAL_SURFACE('',#1258,0.456997);
#116=CYLINDRICAL_SURFACE('',#1259,0.456997);
#117=CYLINDRICAL_SURFACE('',#1260,0.950011);
#118=CYLINDRICAL_SURFACE('',#1261,0.950011);
#119=CYLINDRICAL_SURFACE('',#1262,0.899998);
#120=CYLINDRICAL_SURFACE('',#1263,0.899998);
#121=CYLINDRICAL_SURFACE('',#1264,1.6);
#122=CYLINDRICAL_SURFACE('',#1265,0.325);
#123=CYLINDRICAL_SURFACE('',#1266,0.3);
#124=CYLINDRICAL_SURFACE('',#1268,0.3);
#125=CYLINDRICAL_SURFACE('',#1270,0.3);
#126=CYLINDRICAL_SURFACE('',#1272,0.3);
#127=CYLINDRICAL_SURFACE('',#1274,1.6);
#128=CIRCLE('',#1164,1.6);
#129=CIRCLE('',#1165,1.299997);
#130=CIRCLE('',#1166,1.299997);
#131=CIRCLE('',#1167,1.299997);
#132=CIRCLE('',#1168,0.5);
#133=CIRCLE('',#1169,0.5);
#134=CIRCLE('',#1170,0.5);
#135=CIRCLE('',#1171,0.5);
#136=CIRCLE('',#1172,0.5);
#137=CIRCLE('',#1173,0.5);
#138=CIRCLE('',#1174,0.5);
#139=CIRCLE('',#1175,0.5);
#140=CIRCLE('',#1176,0.5);
#141=CIRCLE('',#1177,1.6);
#142=CIRCLE('',#1178,0.3);
#143=CIRCLE('',#1179,0.3);
#144=CIRCLE('',#1180,0.3);
#145=CIRCLE('',#1181,0.3);
#146=CIRCLE('',#1182,0.325);
#147=CIRCLE('',#1183,0.456997);
#148=CIRCLE('',#1184,0.456997);
#149=CIRCLE('',#1185,0.950011);
#150=CIRCLE('',#1186,0.950011);
#151=CIRCLE('',#1187,0.899998);
#152=CIRCLE('',#1188,0.899998);
#153=CIRCLE('',#1189,1.6);
#154=CIRCLE('',#1190,0.325);
#155=CIRCLE('',#1191,0.3);
#156=CIRCLE('',#1192,0.3);
#157=CIRCLE('',#1193,0.3);
#158=CIRCLE('',#1194,0.3);
#159=CIRCLE('',#1195,1.6);
#160=CIRCLE('',#1197,1.6);
#161=CIRCLE('',#1198,1.299997);
#162=CIRCLE('',#1199,1.299997);
#163=CIRCLE('',#1200,1.299997);
#164=CIRCLE('',#1201,0.5);
#165=CIRCLE('',#1202,0.5);
#166=CIRCLE('',#1203,0.5);
#167=CIRCLE('',#1204,0.5);
#168=CIRCLE('',#1205,0.5);
#169=CIRCLE('',#1206,0.5);
#170=CIRCLE('',#1207,0.5);
#171=CIRCLE('',#1208,0.5);
#172=CIRCLE('',#1209,0.5);
#173=CIRCLE('',#1210,1.6);
#174=CIRCLE('',#1211,0.3);
#175=CIRCLE('',#1212,0.3);
#176=CIRCLE('',#1213,0.3);
#177=CIRCLE('',#1214,0.3);
#178=CIRCLE('',#1215,0.325);
#179=CIRCLE('',#1216,0.456997);
#180=CIRCLE('',#1217,0.456997);
#181=CIRCLE('',#1218,0.950011);
#182=CIRCLE('',#1219,0.950011);
#183=CIRCLE('',#1220,0.899998);
#184=CIRCLE('',#1221,0.899998);
#185=CIRCLE('',#1222,1.6);
#186=CIRCLE('',#1223,0.325);
#187=CIRCLE('',#1224,0.3);
#188=CIRCLE('',#1225,0.3);
#189=CIRCLE('',#1226,0.3);
#190=CIRCLE('',#1227,0.3);
#191=CIRCLE('',#1228,1.6);
#192=FACE_BOUND('',#369,.T.);
#193=FACE_BOUND('',#370,.T.);
#194=FACE_BOUND('',#371,.T.);
#195=FACE_BOUND('',#372,.T.);
#196=FACE_BOUND('',#373,.T.);
#197=FACE_BOUND('',#374,.T.);
#198=FACE_BOUND('',#375,.T.);
#199=FACE_BOUND('',#376,.T.);
#200=FACE_BOUND('',#377,.T.);
#201=FACE_BOUND('',#378,.T.);
#202=FACE_BOUND('',#379,.T.);
#203=FACE_BOUND('',#380,.T.);
#204=FACE_BOUND('',#381,.T.);
#205=FACE_BOUND('',#382,.T.);
#206=FACE_BOUND('',#383,.T.);
#207=FACE_BOUND('',#384,.T.);
#208=FACE_BOUND('',#385,.T.);
#209=FACE_BOUND('',#386,.T.);
#210=FACE_BOUND('',#387,.T.);
#211=FACE_BOUND('',#388,.T.);
#212=FACE_BOUND('',#389,.T.);
#213=FACE_BOUND('',#390,.T.);
#214=FACE_BOUND('',#391,.T.);
#215=FACE_BOUND('',#392,.T.);
#216=FACE_BOUND('',#393,.T.);
#217=FACE_BOUND('',#394,.T.);
#218=FACE_BOUND('',#395,.T.);
#219=FACE_BOUND('',#396,.T.);
#220=FACE_BOUND('',#397,.T.);
#221=FACE_BOUND('',#398,.T.);
#222=FACE_BOUND('',#399,.T.);
#223=FACE_BOUND('',#400,.T.);
#224=FACE_BOUND('',#401,.T.);
#225=FACE_BOUND('',#402,.T.);
#226=FACE_BOUND('',#403,.T.);
#227=FACE_BOUND('',#404,.T.);
#228=FACE_BOUND('',#405,.T.);
#229=FACE_BOUND('',#406,.T.);
#230=FACE_BOUND('',#407,.T.);
#231=FACE_BOUND('',#408,.T.);
#232=FACE_BOUND('',#409,.T.);
#233=FACE_BOUND('',#410,.T.);
#234=FACE_BOUND('',#411,.T.);
#235=FACE_BOUND('',#412,.T.);
#236=FACE_BOUND('',#413,.T.);
#237=FACE_BOUND('',#414,.T.);
#238=FACE_BOUND('',#415,.T.);
#239=FACE_BOUND('',#416,.T.);
#240=FACE_BOUND('',#417,.T.);
#241=FACE_BOUND('',#418,.T.);
#242=FACE_BOUND('',#419,.T.);
#243=FACE_BOUND('',#420,.T.);
#244=FACE_BOUND('',#421,.T.);
#245=FACE_BOUND('',#422,.T.);
#246=FACE_BOUND('',#423,.T.);
#247=FACE_BOUND('',#424,.T.);
#248=FACE_BOUND('',#425,.T.);
#249=FACE_BOUND('',#426,.T.);
#250=ADVANCED_FACE('',(#318),#300,.T.);
#251=ADVANCED_FACE('',(#319),#301,.T.);
#252=ADVANCED_FACE('',(#320),#302,.T.);
#253=ADVANCED_FACE('',(#192,#193,#194,#195,#196,#197,#198,#199,#200,#201,
#202,#203,#204,#205,#206,#207,#208,#209,#210,#211,#212,#213,#214,#215,#216,
#217,#218,#219,#220),#303,.F.);
#254=ADVANCED_FACE('',(#221,#222,#223,#224,#225,#226,#227,#228,#229,#230,
#231,#232,#233,#234,#235,#236,#237,#238,#239,#240,#241,#242,#243,#244,#245,
#246,#247,#248,#249),#304,.T.);
#255=ADVANCED_FACE('',(#321),#305,.T.);
#256=ADVANCED_FACE('',(#322),#306,.T.);
#257=ADVANCED_FACE('',(#323),#307,.T.);
#258=ADVANCED_FACE('',(#324),#308,.T.);
#259=ADVANCED_FACE('',(#325),#309,.T.);
#260=ADVANCED_FACE('',(#326),#96,.F.);
#261=ADVANCED_FACE('',(#327),#97,.F.);
#262=ADVANCED_FACE('',(#328),#98,.F.);
#263=ADVANCED_FACE('',(#329),#99,.F.);
#264=ADVANCED_FACE('',(#330),#100,.F.);
#265=ADVANCED_FACE('',(#331),#101,.F.);
#266=ADVANCED_FACE('',(#332),#102,.F.);
#267=ADVANCED_FACE('',(#333),#103,.F.);
#268=ADVANCED_FACE('',(#334),#104,.F.);
#269=ADVANCED_FACE('',(#335),#105,.F.);
#270=ADVANCED_FACE('',(#336),#106,.F.);
#271=ADVANCED_FACE('',(#337),#107,.F.);
#272=ADVANCED_FACE('',(#338),#108,.F.);
#273=ADVANCED_FACE('',(#339),#109,.F.);
#274=ADVANCED_FACE('',(#340),#110,.F.);
#275=ADVANCED_FACE('',(#341),#310,.T.);
#276=ADVANCED_FACE('',(#342),#111,.F.);
#277=ADVANCED_FACE('',(#343),#311,.T.);
#278=ADVANCED_FACE('',(#344),#112,.F.);
#279=ADVANCED_FACE('',(#345),#312,.T.);
#280=ADVANCED_FACE('',(#346),#113,.F.);
#281=ADVANCED_FACE('',(#347),#313,.T.);
#282=ADVANCED_FACE('',(#348),#114,.F.);
#283=ADVANCED_FACE('',(#349),#115,.F.);
#284=ADVANCED_FACE('',(#350),#116,.F.);
#285=ADVANCED_FACE('',(#351),#117,.F.);
#286=ADVANCED_FACE('',(#352),#118,.F.);
#287=ADVANCED_FACE('',(#353),#119,.F.);
#288=ADVANCED_FACE('',(#354),#120,.F.);
#289=ADVANCED_FACE('',(#355),#121,.F.);
#290=ADVANCED_FACE('',(#356),#122,.F.);
#291=ADVANCED_FACE('',(#357),#123,.F.);
#292=ADVANCED_FACE('',(#358),#314,.T.);
#293=ADVANCED_FACE('',(#359),#124,.F.);
#294=ADVANCED_FACE('',(#360),#315,.T.);
#295=ADVANCED_FACE('',(#361),#125,.F.);
#296=ADVANCED_FACE('',(#362),#316,.T.);
#297=ADVANCED_FACE('',(#363),#126,.F.);
#298=ADVANCED_FACE('',(#364),#317,.T.);
#299=ADVANCED_FACE('',(#365),#127,.F.);
#300=PLANE('',#1161);
#301=PLANE('',#1162);
#302=PLANE('',#1163);
#303=PLANE('',#1196);
#304=PLANE('',#1229);
#305=PLANE('',#1230);
#306=PLANE('',#1231);
#307=PLANE('',#1232);
#308=PLANE('',#1233);
#309=PLANE('',#1234);
#310=PLANE('',#1250);
#311=PLANE('',#1252);
#312=PLANE('',#1254);
#313=PLANE('',#1256);
#314=PLANE('',#1267);
#315=PLANE('',#1269);
#316=PLANE('',#1271);
#317=PLANE('',#1273);
#318=FACE_OUTER_BOUND('',#366,.T.);
#319=FACE_OUTER_BOUND('',#367,.T.);
#320=FACE_OUTER_BOUND('',#368,.T.);
#321=FACE_OUTER_BOUND('',#427,.T.);
#322=FACE_OUTER_BOUND('',#428,.T.);
#323=FACE_OUTER_BOUND('',#429,.T.);
#324=FACE_OUTER_BOUND('',#430,.T.);
#325=FACE_OUTER_BOUND('',#431,.T.);
#326=FACE_OUTER_BOUND('',#432,.T.);
#327=FACE_OUTER_BOUND('',#433,.T.);
#328=FACE_OUTER_BOUND('',#434,.T.);
#329=FACE_OUTER_BOUND('',#435,.T.);
#330=FACE_OUTER_BOUND('',#436,.T.);
#331=FACE_OUTER_BOUND('',#437,.T.);
#332=FACE_OUTER_BOUND('',#438,.T.);
#333=FACE_OUTER_BOUND('',#439,.T.);
#334=FACE_OUTER_BOUND('',#440,.T.);
#335=FACE_OUTER_BOUND('',#441,.T.);
#336=FACE_OUTER_BOUND('',#442,.T.);
#337=FACE_OUTER_BOUND('',#443,.T.);
#338=FACE_OUTER_BOUND('',#444,.T.);
#339=FACE_OUTER_BOUND('',#445,.T.);
#340=FACE_OUTER_BOUND('',#446,.T.);
#341=FACE_OUTER_BOUND('',#447,.T.);
#342=FACE_OUTER_BOUND('',#448,.T.);
#343=FACE_OUTER_BOUND('',#449,.T.);
#344=FACE_OUTER_BOUND('',#450,.T.);
#345=FACE_OUTER_BOUND('',#451,.T.);
#346=FACE_OUTER_BOUND('',#452,.T.);
#347=FACE_OUTER_BOUND('',#453,.T.);
#348=FACE_OUTER_BOUND('',#454,.T.);
#349=FACE_OUTER_BOUND('',#455,.T.);
#350=FACE_OUTER_BOUND('',#456,.T.);
#351=FACE_OUTER_BOUND('',#457,.T.);
#352=FACE_OUTER_BOUND('',#458,.T.);
#353=FACE_OUTER_BOUND('',#459,.T.);
#354=FACE_OUTER_BOUND('',#460,.T.);
#355=FACE_OUTER_BOUND('',#461,.T.);
#356=FACE_OUTER_BOUND('',#462,.T.);
#357=FACE_OUTER_BOUND('',#463,.T.);
#358=FACE_OUTER_BOUND('',#464,.T.);
#359=FACE_OUTER_BOUND('',#465,.T.);
#360=FACE_OUTER_BOUND('',#466,.T.);
#361=FACE_OUTER_BOUND('',#467,.T.);
#362=FACE_OUTER_BOUND('',#468,.T.);
#363=FACE_OUTER_BOUND('',#469,.T.);
#364=FACE_OUTER_BOUND('',#470,.T.);
#365=FACE_OUTER_BOUND('',#471,.T.);
#366=EDGE_LOOP('',(#472,#473,#474,#475));
#367=EDGE_LOOP('',(#476,#477,#478,#479));
#368=EDGE_LOOP('',(#480,#481,#482,#483));
#369=EDGE_LOOP('',(#484,#485,#486,#487,#488,#489,#490,#491));
#370=EDGE_LOOP('',(#492));
#371=EDGE_LOOP('',(#493));
#372=EDGE_LOOP('',(#494));
#373=EDGE_LOOP('',(#495));
#374=EDGE_LOOP('',(#496));
#375=EDGE_LOOP('',(#497));
#376=EDGE_LOOP('',(#498));
#377=EDGE_LOOP('',(#499));
#378=EDGE_LOOP('',(#500));
#379=EDGE_LOOP('',(#501));
#380=EDGE_LOOP('',(#502));
#381=EDGE_LOOP('',(#503));
#382=EDGE_LOOP('',(#504));
#383=EDGE_LOOP('',(#505));
#384=EDGE_LOOP('',(#506,#507,#508,#509));
#385=EDGE_LOOP('',(#510,#511,#512,#513));
#386=EDGE_LOOP('',(#514));
#387=EDGE_LOOP('',(#515));
#388=EDGE_LOOP('',(#516));
#389=EDGE_LOOP('',(#517));
#390=EDGE_LOOP('',(#518));
#391=EDGE_LOOP('',(#519));
#392=EDGE_LOOP('',(#520));
#393=EDGE_LOOP('',(#521));
#394=EDGE_LOOP('',(#522));
#395=EDGE_LOOP('',(#523,#524,#525,#526));
#396=EDGE_LOOP('',(#527,#528,#529,#530));
#397=EDGE_LOOP('',(#531));
#398=EDGE_LOOP('',(#532,#533,#534,#535,#536,#537,#538,#539));
#399=EDGE_LOOP('',(#540));
#400=EDGE_LOOP('',(#541));
#401=EDGE_LOOP('',(#542));
#402=EDGE_LOOP('',(#543));
#403=EDGE_LOOP('',(#544));
#404=EDGE_LOOP('',(#545));
#405=EDGE_LOOP('',(#546));
#406=EDGE_LOOP('',(#547));
#407=EDGE_LOOP('',(#548));
#408=EDGE_LOOP('',(#549));
#409=EDGE_LOOP('',(#550));
#410=EDGE_LOOP('',(#551));
#411=EDGE_LOOP('',(#552));
#412=EDGE_LOOP('',(#553));
#413=EDGE_LOOP('',(#554,#555,#556,#557));
#414=EDGE_LOOP('',(#558,#559,#560,#561));
#415=EDGE_LOOP('',(#562));
#416=EDGE_LOOP('',(#563));
#417=EDGE_LOOP('',(#564));
#418=EDGE_LOOP('',(#565));
#419=EDGE_LOOP('',(#566));
#420=EDGE_LOOP('',(#567));
#421=EDGE_LOOP('',(#568));
#422=EDGE_LOOP('',(#569));
#423=EDGE_LOOP('',(#570));
#424=EDGE_LOOP('',(#571,#572,#573,#574));
#425=EDGE_LOOP('',(#575,#576,#577,#578));
#426=EDGE_LOOP('',(#579));
#427=EDGE_LOOP('',(#580,#581,#582,#583));
#428=EDGE_LOOP('',(#584,#585,#586,#587));
#429=EDGE_LOOP('',(#588,#589,#590,#591));
#430=EDGE_LOOP('',(#592,#593,#594,#595));
#431=EDGE_LOOP('',(#596,#597,#598,#599));
#432=EDGE_LOOP('',(#600,#601,#602,#603));
#433=EDGE_LOOP('',(#604,#605,#606,#607));
#434=EDGE_LOOP('',(#608,#609,#610,#611));
#435=EDGE_LOOP('',(#612,#613,#614,#615));
#436=EDGE_LOOP('',(#616,#617,#618,#619));
#437=EDGE_LOOP('',(#620,#621,#622,#623));
#438=EDGE_LOOP('',(#624,#625,#626,#627));
#439=EDGE_LOOP('',(#628,#629,#630,#631));
#440=EDGE_LOOP('',(#632,#633,#634,#635));
#441=EDGE_LOOP('',(#636,#637,#638,#639));
#442=EDGE_LOOP('',(#640,#641,#642,#643));
#443=EDGE_LOOP('',(#644,#645,#646,#647));
#444=EDGE_LOOP('',(#648,#649,#650,#651));
#445=EDGE_LOOP('',(#652,#653,#654,#655));
#446=EDGE_LOOP('',(#656,#657,#658,#659));
#447=EDGE_LOOP('',(#660,#661,#662,#663));
#448=EDGE_LOOP('',(#664,#665,#666,#667));
#449=EDGE_LOOP('',(#668,#669,#670,#671));
#450=EDGE_LOOP('',(#672,#673,#674,#675));
#451=EDGE_LOOP('',(#676,#677,#678,#679));
#452=EDGE_LOOP('',(#680,#681,#682,#683));
#453=EDGE_LOOP('',(#684,#685,#686,#687));
#454=EDGE_LOOP('',(#688,#689,#690,#691));
#455=EDGE_LOOP('',(#692,#693,#694,#695));
#456=EDGE_LOOP('',(#696,#697,#698,#699));
#457=EDGE_LOOP('',(#700,#701,#702,#703));
#458=EDGE_LOOP('',(#704,#705,#706,#707));
#459=EDGE_LOOP('',(#708,#709,#710,#711));
#460=EDGE_LOOP('',(#712,#713,#714,#715));
#461=EDGE_LOOP('',(#716,#717,#718,#719));
#462=EDGE_LOOP('',(#720,#721,#722,#723));
#463=EDGE_LOOP('',(#724,#725,#726,#727));
#464=EDGE_LOOP('',(#728,#729,#730,#731));
#465=EDGE_LOOP('',(#732,#733,#734,#735));
#466=EDGE_LOOP('',(#736,#737,#738,#739));
#467=EDGE_LOOP('',(#740,#741,#742,#743));
#468=EDGE_LOOP('',(#744,#745,#746,#747));
#469=EDGE_LOOP('',(#748,#749,#750,#751));
#470=EDGE_LOOP('',(#752,#753,#754,#755));
#471=EDGE_LOOP('',(#756,#757,#758,#759));
#472=ORIENTED_EDGE('',*,*,#856,.T.);
#473=ORIENTED_EDGE('',*,*,#857,.T.);
#474=ORIENTED_EDGE('',*,*,#858,.F.);
#475=ORIENTED_EDGE('',*,*,#859,.F.);
#476=ORIENTED_EDGE('',*,*,#860,.T.);
#477=ORIENTED_EDGE('',*,*,#861,.T.);
#478=ORIENTED_EDGE('',*,*,#856,.F.);
#479=ORIENTED_EDGE('',*,*,#862,.F.);
#480=ORIENTED_EDGE('',*,*,#858,.T.);
#481=ORIENTED_EDGE('',*,*,#863,.T.);
#482=ORIENTED_EDGE('',*,*,#864,.F.);
#483=ORIENTED_EDGE('',*,*,#865,.F.);
#484=ORIENTED_EDGE('',*,*,#865,.T.);
#485=ORIENTED_EDGE('',*,*,#866,.T.);
#486=ORIENTED_EDGE('',*,*,#867,.T.);
#487=ORIENTED_EDGE('',*,*,#868,.T.);
#488=ORIENTED_EDGE('',*,*,#869,.T.);
#489=ORIENTED_EDGE('',*,*,#870,.T.);
#490=ORIENTED_EDGE('',*,*,#862,.T.);
#491=ORIENTED_EDGE('',*,*,#859,.T.);
#492=ORIENTED_EDGE('',*,*,#871,.F.);
#493=ORIENTED_EDGE('',*,*,#872,.F.);
#494=ORIENTED_EDGE('',*,*,#873,.F.);
#495=ORIENTED_EDGE('',*,*,#874,.F.);
#496=ORIENTED_EDGE('',*,*,#875,.F.);
#497=ORIENTED_EDGE('',*,*,#876,.F.);
#498=ORIENTED_EDGE('',*,*,#877,.F.);
#499=ORIENTED_EDGE('',*,*,#878,.F.);
#500=ORIENTED_EDGE('',*,*,#879,.F.);
#501=ORIENTED_EDGE('',*,*,#880,.F.);
#502=ORIENTED_EDGE('',*,*,#881,.F.);
#503=ORIENTED_EDGE('',*,*,#882,.F.);
#504=ORIENTED_EDGE('',*,*,#883,.F.);
#505=ORIENTED_EDGE('',*,*,#884,.F.);
#506=ORIENTED_EDGE('',*,*,#885,.F.);
#507=ORIENTED_EDGE('',*,*,#886,.F.);
#508=ORIENTED_EDGE('',*,*,#887,.F.);
#509=ORIENTED_EDGE('',*,*,#888,.F.);
#510=ORIENTED_EDGE('',*,*,#889,.F.);
#511=ORIENTED_EDGE('',*,*,#890,.F.);
#512=ORIENTED_EDGE('',*,*,#891,.F.);
#513=ORIENTED_EDGE('',*,*,#892,.F.);
#514=ORIENTED_EDGE('',*,*,#893,.T.);
#515=ORIENTED_EDGE('',*,*,#894,.F.);
#516=ORIENTED_EDGE('',*,*,#895,.F.);
#517=ORIENTED_EDGE('',*,*,#896,.F.);
#518=ORIENTED_EDGE('',*,*,#897,.F.);
#519=ORIENTED_EDGE('',*,*,#898,.F.);
#520=ORIENTED_EDGE('',*,*,#899,.F.);
#521=ORIENTED_EDGE('',*,*,#900,.F.);
#522=ORIENTED_EDGE('',*,*,#901,.T.);
#523=ORIENTED_EDGE('',*,*,#902,.F.);
#524=ORIENTED_EDGE('',*,*,#903,.F.);
#525=ORIENTED_EDGE('',*,*,#904,.F.);
#526=ORIENTED_EDGE('',*,*,#905,.F.);
#527=ORIENTED_EDGE('',*,*,#906,.F.);
#528=ORIENTED_EDGE('',*,*,#907,.F.);
#529=ORIENTED_EDGE('',*,*,#908,.F.);
#530=ORIENTED_EDGE('',*,*,#909,.F.);
#531=ORIENTED_EDGE('',*,*,#910,.F.);
#532=ORIENTED_EDGE('',*,*,#857,.F.);
#533=ORIENTED_EDGE('',*,*,#861,.F.);
#534=ORIENTED_EDGE('',*,*,#911,.F.);
#535=ORIENTED_EDGE('',*,*,#912,.F.);
#536=ORIENTED_EDGE('',*,*,#913,.F.);
#537=ORIENTED_EDGE('',*,*,#914,.F.);
#538=ORIENTED_EDGE('',*,*,#915,.F.);
#539=ORIENTED_EDGE('',*,*,#863,.F.);
#540=ORIENTED_EDGE('',*,*,#916,.T.);
#541=ORIENTED_EDGE('',*,*,#917,.T.);
#542=ORIENTED_EDGE('',*,*,#918,.T.);
#543=ORIENTED_EDGE('',*,*,#919,.T.);
#544=ORIENTED_EDGE('',*,*,#920,.T.);
#545=ORIENTED_EDGE('',*,*,#921,.T.);
#546=ORIENTED_EDGE('',*,*,#922,.T.);
#547=ORIENTED_EDGE('',*,*,#923,.T.);
#548=ORIENTED_EDGE('',*,*,#924,.T.);
#549=ORIENTED_EDGE('',*,*,#925,.T.);
#550=ORIENTED_EDGE('',*,*,#926,.T.);
#551=ORIENTED_EDGE('',*,*,#927,.T.);
#552=ORIENTED_EDGE('',*,*,#928,.T.);
#553=ORIENTED_EDGE('',*,*,#929,.T.);
#554=ORIENTED_EDGE('',*,*,#930,.T.);
#555=ORIENTED_EDGE('',*,*,#931,.T.);
#556=ORIENTED_EDGE('',*,*,#932,.T.);
#557=ORIENTED_EDGE('',*,*,#933,.T.);
#558=ORIENTED_EDGE('',*,*,#934,.T.);
#559=ORIENTED_EDGE('',*,*,#935,.T.);
#560=ORIENTED_EDGE('',*,*,#936,.T.);
#561=ORIENTED_EDGE('',*,*,#937,.T.);
#562=ORIENTED_EDGE('',*,*,#938,.F.);
#563=ORIENTED_EDGE('',*,*,#939,.T.);
#564=ORIENTED_EDGE('',*,*,#940,.T.);
#565=ORIENTED_EDGE('',*,*,#941,.T.);
#566=ORIENTED_EDGE('',*,*,#942,.T.);
#567=ORIENTED_EDGE('',*,*,#943,.T.);
#568=ORIENTED_EDGE('',*,*,#944,.T.);
#569=ORIENTED_EDGE('',*,*,#945,.T.);
#570=ORIENTED_EDGE('',*,*,#946,.F.);
#571=ORIENTED_EDGE('',*,*,#947,.T.);
#572=ORIENTED_EDGE('',*,*,#948,.T.);
#573=ORIENTED_EDGE('',*,*,#949,.T.);
#574=ORIENTED_EDGE('',*,*,#950,.T.);
#575=ORIENTED_EDGE('',*,*,#951,.T.);
#576=ORIENTED_EDGE('',*,*,#952,.T.);
#577=ORIENTED_EDGE('',*,*,#953,.T.);
#578=ORIENTED_EDGE('',*,*,#954,.T.);
#579=ORIENTED_EDGE('',*,*,#955,.T.);
#580=ORIENTED_EDGE('',*,*,#956,.T.);
#581=ORIENTED_EDGE('',*,*,#911,.T.);
#582=ORIENTED_EDGE('',*,*,#860,.F.);
#583=ORIENTED_EDGE('',*,*,#870,.F.);
#584=ORIENTED_EDGE('',*,*,#864,.T.);
#585=ORIENTED_EDGE('',*,*,#915,.T.);
#586=ORIENTED_EDGE('',*,*,#957,.F.);
#587=ORIENTED_EDGE('',*,*,#866,.F.);
#588=ORIENTED_EDGE('',*,*,#958,.T.);
#589=ORIENTED_EDGE('',*,*,#912,.T.);
#590=ORIENTED_EDGE('',*,*,#956,.F.);
#591=ORIENTED_EDGE('',*,*,#869,.F.);
#592=ORIENTED_EDGE('',*,*,#957,.T.);
#593=ORIENTED_EDGE('',*,*,#914,.T.);
#594=ORIENTED_EDGE('',*,*,#959,.F.);
#595=ORIENTED_EDGE('',*,*,#867,.F.);
#596=ORIENTED_EDGE('',*,*,#959,.T.);
#597=ORIENTED_EDGE('',*,*,#913,.T.);
#598=ORIENTED_EDGE('',*,*,#958,.F.);
#599=ORIENTED_EDGE('',*,*,#868,.F.);
#600=ORIENTED_EDGE('',*,*,#871,.T.);
#601=ORIENTED_EDGE('',*,*,#960,.T.);
#602=ORIENTED_EDGE('',*,*,#916,.F.);
#603=ORIENTED_EDGE('',*,*,#960,.F.);
#604=ORIENTED_EDGE('',*,*,#872,.T.);
#605=ORIENTED_EDGE('',*,*,#961,.T.);
#606=ORIENTED_EDGE('',*,*,#917,.F.);
#607=ORIENTED_EDGE('',*,*,#961,.F.);
#608=ORIENTED_EDGE('',*,*,#873,.T.);
#609=ORIENTED_EDGE('',*,*,#962,.T.);
#610=ORIENTED_EDGE('',*,*,#918,.F.);
#611=ORIENTED_EDGE('',*,*,#962,.F.);
#612=ORIENTED_EDGE('',*,*,#874,.T.);
#613=ORIENTED_EDGE('',*,*,#963,.T.);
#614=ORIENTED_EDGE('',*,*,#919,.F.);
#615=ORIENTED_EDGE('',*,*,#963,.F.);
#616=ORIENTED_EDGE('',*,*,#875,.T.);
#617=ORIENTED_EDGE('',*,*,#964,.T.);
#618=ORIENTED_EDGE('',*,*,#920,.F.);
#619=ORIENTED_EDGE('',*,*,#964,.F.);
#620=ORIENTED_EDGE('',*,*,#876,.T.);
#621=ORIENTED_EDGE('',*,*,#965,.T.);
#622=ORIENTED_EDGE('',*,*,#921,.F.);
#623=ORIENTED_EDGE('',*,*,#965,.F.);
#624=ORIENTED_EDGE('',*,*,#877,.T.);
#625=ORIENTED_EDGE('',*,*,#966,.T.);
#626=ORIENTED_EDGE('',*,*,#922,.F.);
#627=ORIENTED_EDGE('',*,*,#966,.F.);
#628=ORIENTED_EDGE('',*,*,#878,.T.);
#629=ORIENTED_EDGE('',*,*,#967,.T.);
#630=ORIENTED_EDGE('',*,*,#923,.F.);
#631=ORIENTED_EDGE('',*,*,#967,.F.);
#632=ORIENTED_EDGE('',*,*,#879,.T.);
#633=ORIENTED_EDGE('',*,*,#968,.T.);
#634=ORIENTED_EDGE('',*,*,#924,.F.);
#635=ORIENTED_EDGE('',*,*,#968,.F.);
#636=ORIENTED_EDGE('',*,*,#880,.T.);
#637=ORIENTED_EDGE('',*,*,#969,.T.);
#638=ORIENTED_EDGE('',*,*,#925,.F.);
#639=ORIENTED_EDGE('',*,*,#969,.F.);
#640=ORIENTED_EDGE('',*,*,#881,.T.);
#641=ORIENTED_EDGE('',*,*,#970,.T.);
#642=ORIENTED_EDGE('',*,*,#926,.F.);
#643=ORIENTED_EDGE('',*,*,#970,.F.);
#644=ORIENTED_EDGE('',*,*,#882,.T.);
#645=ORIENTED_EDGE('',*,*,#971,.T.);
#646=ORIENTED_EDGE('',*,*,#927,.F.);
#647=ORIENTED_EDGE('',*,*,#971,.F.);
#648=ORIENTED_EDGE('',*,*,#883,.T.);
#649=ORIENTED_EDGE('',*,*,#972,.T.);
#650=ORIENTED_EDGE('',*,*,#928,.F.);
#651=ORIENTED_EDGE('',*,*,#972,.F.);
#652=ORIENTED_EDGE('',*,*,#884,.T.);
#653=ORIENTED_EDGE('',*,*,#973,.T.);
#654=ORIENTED_EDGE('',*,*,#929,.F.);
#655=ORIENTED_EDGE('',*,*,#973,.F.);
#656=ORIENTED_EDGE('',*,*,#888,.T.);
#657=ORIENTED_EDGE('',*,*,#974,.T.);
#658=ORIENTED_EDGE('',*,*,#930,.F.);
#659=ORIENTED_EDGE('',*,*,#975,.F.);
#660=ORIENTED_EDGE('',*,*,#885,.T.);
#661=ORIENTED_EDGE('',*,*,#975,.T.);
#662=ORIENTED_EDGE('',*,*,#933,.F.);
#663=ORIENTED_EDGE('',*,*,#976,.F.);
#664=ORIENTED_EDGE('',*,*,#886,.T.);
#665=ORIENTED_EDGE('',*,*,#976,.T.);
#666=ORIENTED_EDGE('',*,*,#932,.F.);
#667=ORIENTED_EDGE('',*,*,#977,.F.);
#668=ORIENTED_EDGE('',*,*,#887,.T.);
#669=ORIENTED_EDGE('',*,*,#977,.T.);
#670=ORIENTED_EDGE('',*,*,#931,.F.);
#671=ORIENTED_EDGE('',*,*,#974,.F.);
#672=ORIENTED_EDGE('',*,*,#892,.T.);
#673=ORIENTED_EDGE('',*,*,#978,.T.);
#674=ORIENTED_EDGE('',*,*,#934,.F.);
#675=ORIENTED_EDGE('',*,*,#979,.F.);
#676=ORIENTED_EDGE('',*,*,#889,.T.);
#677=ORIENTED_EDGE('',*,*,#979,.T.);
#678=ORIENTED_EDGE('',*,*,#937,.F.);
#679=ORIENTED_EDGE('',*,*,#980,.F.);
#680=ORIENTED_EDGE('',*,*,#890,.T.);
#681=ORIENTED_EDGE('',*,*,#980,.T.);
#682=ORIENTED_EDGE('',*,*,#936,.F.);
#683=ORIENTED_EDGE('',*,*,#981,.F.);
#684=ORIENTED_EDGE('',*,*,#891,.T.);
#685=ORIENTED_EDGE('',*,*,#981,.T.);
#686=ORIENTED_EDGE('',*,*,#935,.F.);
#687=ORIENTED_EDGE('',*,*,#978,.F.);
#688=ORIENTED_EDGE('',*,*,#982,.T.);
#689=ORIENTED_EDGE('',*,*,#938,.T.);
#690=ORIENTED_EDGE('',*,*,#982,.F.);
#691=ORIENTED_EDGE('',*,*,#893,.F.);
#692=ORIENTED_EDGE('',*,*,#894,.T.);
#693=ORIENTED_EDGE('',*,*,#983,.T.);
#694=ORIENTED_EDGE('',*,*,#939,.F.);
#695=ORIENTED_EDGE('',*,*,#983,.F.);
#696=ORIENTED_EDGE('',*,*,#895,.T.);
#697=ORIENTED_EDGE('',*,*,#984,.T.);
#698=ORIENTED_EDGE('',*,*,#940,.F.);
#699=ORIENTED_EDGE('',*,*,#984,.F.);
#700=ORIENTED_EDGE('',*,*,#896,.T.);
#701=ORIENTED_EDGE('',*,*,#985,.T.);
#702=ORIENTED_EDGE('',*,*,#941,.F.);
#703=ORIENTED_EDGE('',*,*,#985,.F.);
#704=ORIENTED_EDGE('',*,*,#897,.T.);
#705=ORIENTED_EDGE('',*,*,#986,.T.);
#706=ORIENTED_EDGE('',*,*,#942,.F.);
#707=ORIENTED_EDGE('',*,*,#986,.F.);
#708=ORIENTED_EDGE('',*,*,#898,.T.);
#709=ORIENTED_EDGE('',*,*,#987,.T.);
#710=ORIENTED_EDGE('',*,*,#943,.F.);
#711=ORIENTED_EDGE('',*,*,#987,.F.);
#712=ORIENTED_EDGE('',*,*,#899,.T.);
#713=ORIENTED_EDGE('',*,*,#988,.T.);
#714=ORIENTED_EDGE('',*,*,#944,.F.);
#715=ORIENTED_EDGE('',*,*,#988,.F.);
#716=ORIENTED_EDGE('',*,*,#900,.T.);
#717=ORIENTED_EDGE('',*,*,#989,.T.);
#718=ORIENTED_EDGE('',*,*,#945,.F.);
#719=ORIENTED_EDGE('',*,*,#989,.F.);
#720=ORIENTED_EDGE('',*,*,#990,.T.);
#721=ORIENTED_EDGE('',*,*,#946,.T.);
#722=ORIENTED_EDGE('',*,*,#990,.F.);
#723=ORIENTED_EDGE('',*,*,#901,.F.);
#724=ORIENTED_EDGE('',*,*,#905,.T.);
#725=ORIENTED_EDGE('',*,*,#991,.T.);
#726=ORIENTED_EDGE('',*,*,#947,.F.);
#727=ORIENTED_EDGE('',*,*,#992,.F.);
#728=ORIENTED_EDGE('',*,*,#902,.T.);
#729=ORIENTED_EDGE('',*,*,#992,.T.);
#730=ORIENTED_EDGE('',*,*,#950,.F.);
#731=ORIENTED_EDGE('',*,*,#993,.F.);
#732=ORIENTED_EDGE('',*,*,#903,.T.);
#733=ORIENTED_EDGE('',*,*,#993,.T.);
#734=ORIENTED_EDGE('',*,*,#949,.F.);
#735=ORIENTED_EDGE('',*,*,#994,.F.);
#736=ORIENTED_EDGE('',*,*,#904,.T.);
#737=ORIENTED_EDGE('',*,*,#994,.T.);
#738=ORIENTED_EDGE('',*,*,#948,.F.);
#739=ORIENTED_EDGE('',*,*,#991,.F.);
#740=ORIENTED_EDGE('',*,*,#909,.T.);
#741=ORIENTED_EDGE('',*,*,#995,.T.);
#742=ORIENTED_EDGE('',*,*,#951,.F.);
#743=ORIENTED_EDGE('',*,*,#996,.F.);
#744=ORIENTED_EDGE('',*,*,#906,.T.);
#745=ORIENTED_EDGE('',*,*,#996,.T.);
#746=ORIENTED_EDGE('',*,*,#954,.F.);
#747=ORIENTED_EDGE('',*,*,#997,.F.);
#748=ORIENTED_EDGE('',*,*,#907,.T.);
#749=ORIENTED_EDGE('',*,*,#997,.T.);
#750=ORIENTED_EDGE('',*,*,#953,.F.);
#751=ORIENTED_EDGE('',*,*,#998,.F.);
#752=ORIENTED_EDGE('',*,*,#908,.T.);
#753=ORIENTED_EDGE('',*,*,#998,.T.);
#754=ORIENTED_EDGE('',*,*,#952,.F.);
#755=ORIENTED_EDGE('',*,*,#995,.F.);
#756=ORIENTED_EDGE('',*,*,#910,.T.);
#757=ORIENTED_EDGE('',*,*,#999,.T.);
#758=ORIENTED_EDGE('',*,*,#955,.F.);
#759=ORIENTED_EDGE('',*,*,#999,.F.);
#760=VERTEX_POINT('',#1587);
#761=VERTEX_POINT('',#1588);
#762=VERTEX_POINT('',#1590);
#763=VERTEX_POINT('',#1592);
#764=VERTEX_POINT('',#1596);
#765=VERTEX_POINT('',#1597);
#766=VERTEX_POINT('',#1602);
#767=VERTEX_POINT('',#1604);
#768=VERTEX_POINT('',#1608);
#769=VERTEX_POINT('',#1610);
#770=VERTEX_POINT('',#1612);
#771=VERTEX_POINT('',#1614);
#772=VERTEX_POINT('',#1617);
#773=VERTEX_POINT('',#1619);
#774=VERTEX_POINT('',#1621);
#775=VERTEX_POINT('',#1623);
#776=VERTEX_POINT('',#1625);
#777=VERTEX_POINT('',#1627);
#778=VERTEX_POINT('',#1629);
#779=VERTEX_POINT('',#1631);
#780=VERTEX_POINT('',#1633);
#781=VERTEX_POINT('',#1635);
#782=VERTEX_POINT('',#1637);
#783=VERTEX_POINT('',#1639);
#784=VERTEX_POINT('',#1641);
#785=VERTEX_POINT('',#1643);
#786=VERTEX_POINT('',#1645);
#787=VERTEX_POINT('',#1646);
#788=VERTEX_POINT('',#1648);
#789=VERTEX_POINT('',#1650);
#790=VERTEX_POINT('',#1653);
#791=VERTEX_POINT('',#1654);
#792=VERTEX_POINT('',#1656);
#793=VERTEX_POINT('',#1658);
#794=VERTEX_POINT('',#1661);
#795=VERTEX_POINT('',#1663);
#796=VERTEX_POINT('',#1665);
#797=VERTEX_POINT('',#1667);
#798=VERTEX_POINT('',#1669);
#799=VERTEX_POINT('',#1671);
#800=VERTEX_POINT('',#1673);
#801=VERTEX_POINT('',#1675);
#802=VERTEX_POINT('',#1677);
#803=VERTEX_POINT('',#1679);
#804=VERTEX_POINT('',#1680);
#805=VERTEX_POINT('',#1682);
#806=VERTEX_POINT('',#1684);
#807=VERTEX_POINT('',#1687);
#808=VERTEX_POINT('',#1688);
#809=VERTEX_POINT('',#1690);
#810=VERTEX_POINT('',#1692);
#811=VERTEX_POINT('',#1695);
#812=VERTEX_POINT('',#1698);
#813=VERTEX_POINT('',#1700);
#814=VERTEX_POINT('',#1702);
#815=VERTEX_POINT('',#1704);
#816=VERTEX_POINT('',#1707);
#817=VERTEX_POINT('',#1709);
#818=VERTEX_POINT('',#1711);
#819=VERTEX_POINT('',#1713);
#820=VERTEX_POINT('',#1715);
#821=VERTEX_POINT('',#1717);
#822=VERTEX_POINT('',#1719);
#823=VERTEX_POINT('',#1721);
#824=VERTEX_POINT('',#1723);
#825=VERTEX_POINT('',#1725);
#826=VERTEX_POINT('',#1727);
#827=VERTEX_POINT('',#1729);
#828=VERTEX_POINT('',#1731);
#829=VERTEX_POINT('',#1733);
#830=VERTEX_POINT('',#1735);
#831=VERTEX_POINT('',#1736);
#832=VERTEX_POINT('',#1738);
#833=VERTEX_POINT('',#1740);
#834=VERTEX_POINT('',#1743);
#835=VERTEX_POINT('',#1744);
#836=VERTEX_POINT('',#1746);
#837=VERTEX_POINT('',#1748);
#838=VERTEX_POINT('',#1751);
#839=VERTEX_POINT('',#1753);
#840=VERTEX_POINT('',#1755);
#841=VERTEX_POINT('',#1757);
#842=VERTEX_POINT('',#1759);
#843=VERTEX_POINT('',#1761);
#844=VERTEX_POINT('',#1763);
#845=VERTEX_POINT('',#1765);
#846=VERTEX_POINT('',#1767);
#847=VERTEX_POINT('',#1769);
#848=VERTEX_POINT('',#1770);
#849=VERTEX_POINT('',#1772);
#850=VERTEX_POINT('',#1774);
#851=VERTEX_POINT('',#1777);
#852=VERTEX_POINT('',#1778);
#853=VERTEX_POINT('',#1780);
#854=VERTEX_POINT('',#1782);
#855=VERTEX_POINT('',#1785);
#856=EDGE_CURVE('',#760,#761,#1000,.T.);
#857=EDGE_CURVE('',#761,#762,#1001,.T.);
#858=EDGE_CURVE('',#763,#762,#1002,.T.);
#859=EDGE_CURVE('',#760,#763,#1003,.T.);
#860=EDGE_CURVE('',#764,#765,#1004,.T.);
#861=EDGE_CURVE('',#765,#761,#1005,.T.);
#862=EDGE_CURVE('',#764,#760,#1006,.T.);
#863=EDGE_CURVE('',#762,#766,#1007,.T.);
#864=EDGE_CURVE('',#767,#766,#1008,.T.);
#865=EDGE_CURVE('',#763,#767,#1009,.T.);
#866=EDGE_CURVE('',#767,#768,#1010,.T.);
#867=EDGE_CURVE('',#768,#769,#1011,.T.);
#868=EDGE_CURVE('',#769,#770,#1012,.T.);
#869=EDGE_CURVE('',#770,#771,#1013,.T.);
#870=EDGE_CURVE('',#771,#764,#1014,.T.);
#871=EDGE_CURVE('',#772,#772,#128,.T.);
#872=EDGE_CURVE('',#773,#773,#129,.T.);
#873=EDGE_CURVE('',#774,#774,#130,.T.);
#874=EDGE_CURVE('',#775,#775,#131,.T.);
#875=EDGE_CURVE('',#776,#776,#132,.T.);
#876=EDGE_CURVE('',#777,#777,#133,.T.);
#877=EDGE_CURVE('',#778,#778,#134,.T.);
#878=EDGE_CURVE('',#779,#779,#135,.T.);
#879=EDGE_CURVE('',#780,#780,#136,.T.);
#880=EDGE_CURVE('',#781,#781,#137,.T.);
#881=EDGE_CURVE('',#782,#782,#138,.T.);
#882=EDGE_CURVE('',#783,#783,#139,.T.);
#883=EDGE_CURVE('',#784,#784,#140,.T.);
#884=EDGE_CURVE('',#785,#785,#141,.T.);
#885=EDGE_CURVE('',#786,#787,#1015,.T.);
#886=EDGE_CURVE('',#788,#786,#142,.T.);
#887=EDGE_CURVE('',#789,#788,#1016,.T.);
#888=EDGE_CURVE('',#787,#789,#143,.T.);
#889=EDGE_CURVE('',#790,#791,#1017,.T.);
#890=EDGE_CURVE('',#792,#790,#144,.T.);
#891=EDGE_CURVE('',#793,#792,#1018,.T.);
#892=EDGE_CURVE('',#791,#793,#145,.T.);
#893=EDGE_CURVE('',#794,#794,#146,.T.);
#894=EDGE_CURVE('',#795,#795,#147,.T.);
#895=EDGE_CURVE('',#796,#796,#148,.T.);
#896=EDGE_CURVE('',#797,#797,#149,.T.);
#897=EDGE_CURVE('',#798,#798,#150,.T.);
#898=EDGE_CURVE('',#799,#799,#151,.T.);
#899=EDGE_CURVE('',#800,#800,#152,.T.);
#900=EDGE_CURVE('',#801,#801,#153,.T.);
#901=EDGE_CURVE('',#802,#802,#154,.T.);
#902=EDGE_CURVE('',#803,#804,#1019,.T.);
#903=EDGE_CURVE('',#805,#803,#155,.T.);
#904=EDGE_CURVE('',#806,#805,#1020,.T.);
#905=EDGE_CURVE('',#804,#806,#156,.T.);
#906=EDGE_CURVE('',#807,#808,#1021,.T.);
#907=EDGE_CURVE('',#809,#807,#157,.T.);
#908=EDGE_CURVE('',#810,#809,#1022,.T.);
#909=EDGE_CURVE('',#808,#810,#158,.T.);
#910=EDGE_CURVE('',#811,#811,#159,.T.);
#911=EDGE_CURVE('',#812,#765,#1023,.T.);
#912=EDGE_CURVE('',#813,#812,#1024,.T.);
#913=EDGE_CURVE('',#814,#813,#1025,.T.);
#914=EDGE_CURVE('',#815,#814,#1026,.T.);
#915=EDGE_CURVE('',#766,#815,#1027,.T.);
#916=EDGE_CURVE('',#816,#816,#160,.T.);
#917=EDGE_CURVE('',#817,#817,#161,.T.);
#918=EDGE_CURVE('',#818,#818,#162,.T.);
#919=EDGE_CURVE('',#819,#819,#163,.T.);
#920=EDGE_CURVE('',#820,#820,#164,.T.);
#921=EDGE_CURVE('',#821,#821,#165,.T.);
#922=EDGE_CURVE('',#822,#822,#166,.T.);
#923=EDGE_CURVE('',#823,#823,#167,.T.);
#924=EDGE_CURVE('',#824,#824,#168,.T.);
#925=EDGE_CURVE('',#825,#825,#169,.T.);
#926=EDGE_CURVE('',#826,#826,#170,.T.);
#927=EDGE_CURVE('',#827,#827,#171,.T.);
#928=EDGE_CURVE('',#828,#828,#172,.T.);
#929=EDGE_CURVE('',#829,#829,#173,.T.);
#930=EDGE_CURVE('',#830,#831,#174,.T.);
#931=EDGE_CURVE('',#831,#832,#1028,.T.);
#932=EDGE_CURVE('',#832,#833,#175,.T.);
#933=EDGE_CURVE('',#833,#830,#1029,.T.);
#934=EDGE_CURVE('',#834,#835,#176,.T.);
#935=EDGE_CURVE('',#835,#836,#1030,.T.);
#936=EDGE_CURVE('',#836,#837,#177,.T.);
#937=EDGE_CURVE('',#837,#834,#1031,.T.);
#938=EDGE_CURVE('',#838,#838,#178,.T.);
#939=EDGE_CURVE('',#839,#839,#179,.T.);
#940=EDGE_CURVE('',#840,#840,#180,.T.);
#941=EDGE_CURVE('',#841,#841,#181,.T.);
#942=EDGE_CURVE('',#842,#842,#182,.T.);
#943=EDGE_CURVE('',#843,#843,#183,.T.);
#944=EDGE_CURVE('',#844,#844,#184,.T.);
#945=EDGE_CURVE('',#845,#845,#185,.T.);
#946=EDGE_CURVE('',#846,#846,#186,.T.);
#947=EDGE_CURVE('',#847,#848,#187,.T.);
#948=EDGE_CURVE('',#848,#849,#1032,.T.);
#949=EDGE_CURVE('',#849,#850,#188,.T.);
#950=EDGE_CURVE('',#850,#847,#1033,.T.);
#951=EDGE_CURVE('',#851,#852,#189,.T.);
#952=EDGE_CURVE('',#852,#853,#1034,.T.);
#953=EDGE_CURVE('',#853,#854,#190,.T.);
#954=EDGE_CURVE('',#854,#851,#1035,.T.);
#955=EDGE_CURVE('',#855,#855,#191,.T.);
#956=EDGE_CURVE('',#771,#812,#1036,.T.);
#957=EDGE_CURVE('',#768,#815,#1037,.T.);
#958=EDGE_CURVE('',#770,#813,#1038,.T.);
#959=EDGE_CURVE('',#769,#814,#1039,.T.);
#960=EDGE_CURVE('',#772,#816,#1040,.T.);
#961=EDGE_CURVE('',#773,#817,#1041,.T.);
#962=EDGE_CURVE('',#774,#818,#1042,.T.);
#963=EDGE_CURVE('',#775,#819,#1043,.T.);
#964=EDGE_CURVE('',#776,#820,#1044,.T.);
#965=EDGE_CURVE('',#777,#821,#1045,.T.);
#966=EDGE_CURVE('',#778,#822,#1046,.T.);
#967=EDGE_CURVE('',#779,#823,#1047,.T.);
#968=EDGE_CURVE('',#780,#824,#1048,.T.);
#969=EDGE_CURVE('',#781,#825,#1049,.T.);
#970=EDGE_CURVE('',#782,#826,#1050,.T.);
#971=EDGE_CURVE('',#783,#827,#1051,.T.);
#972=EDGE_CURVE('',#784,#828,#1052,.T.);
#973=EDGE_CURVE('',#785,#829,#1053,.T.);
#974=EDGE_CURVE('',#789,#831,#1054,.T.);
#975=EDGE_CURVE('',#787,#830,#1055,.T.);
#976=EDGE_CURVE('',#786,#833,#1056,.T.);
#977=EDGE_CURVE('',#788,#832,#1057,.T.);
#978=EDGE_CURVE('',#793,#835,#1058,.T.);
#979=EDGE_CURVE('',#791,#834,#1059,.T.);
#980=EDGE_CURVE('',#790,#837,#1060,.T.);
#981=EDGE_CURVE('',#792,#836,#1061,.T.);
#982=EDGE_CURVE('',#794,#838,#1062,.T.);
#983=EDGE_CURVE('',#795,#839,#1063,.T.);
#984=EDGE_CURVE('',#796,#840,#1064,.T.);
#985=EDGE_CURVE('',#797,#841,#1065,.T.);
#986=EDGE_CURVE('',#798,#842,#1066,.T.);
#987=EDGE_CURVE('',#799,#843,#1067,.T.);
#988=EDGE_CURVE('',#800,#844,#1068,.T.);
#989=EDGE_CURVE('',#801,#845,#1069,.T.);
#990=EDGE_CURVE('',#802,#846,#1070,.T.);
#991=EDGE_CURVE('',#806,#848,#1071,.T.);
#992=EDGE_CURVE('',#804,#847,#1072,.T.);
#993=EDGE_CURVE('',#803,#850,#1073,.T.);
#994=EDGE_CURVE('',#805,#849,#1074,.T.);
#995=EDGE_CURVE('',#810,#852,#1075,.T.);
#996=EDGE_CURVE('',#808,#851,#1076,.T.);
#997=EDGE_CURVE('',#807,#854,#1077,.T.);
#998=EDGE_CURVE('',#809,#853,#1078,.T.);
#999=EDGE_CURVE('',#811,#855,#1079,.T.);
#1000=LINE('',#1586,#1080);
#1001=LINE('',#1589,#1081);
#1002=LINE('',#1591,#1082);
#1003=LINE('',#1593,#1083);
#1004=LINE('',#1595,#1084);
#1005=LINE('',#1598,#1085);
#1006=LINE('',#1599,#1086);
#1007=LINE('',#1601,#1087);
#1008=LINE('',#1603,#1088);
#1009=LINE('',#1605,#1089);
#1010=LINE('',#1607,#1090);
#1011=LINE('',#1609,#1091);
#1012=LINE('',#1611,#1092);
#1013=LINE('',#1613,#1093);
#1014=LINE('',#1615,#1094);
#1015=LINE('',#1644,#1095);
#1016=LINE('',#1649,#1096);
#1017=LINE('',#1652,#1097);
#1018=LINE('',#1657,#1098);
#1019=LINE('',#1678,#1099);
#1020=LINE('',#1683,#1100);
#1021=LINE('',#1686,#1101);
#1022=LINE('',#1691,#1102);
#1023=LINE('',#1697,#1103);
#1024=LINE('',#1699,#1104);
#1025=LINE('',#1701,#1105);
#1026=LINE('',#1703,#1106);
#1027=LINE('',#1705,#1107);
#1028=LINE('',#1737,#1108);
#1029=LINE('',#1741,#1109);
#1030=LINE('',#1745,#1110);
#1031=LINE('',#1749,#1111);
#1032=LINE('',#1771,#1112);
#1033=LINE('',#1775,#1113);
#1034=LINE('',#1779,#1114);
#1035=LINE('',#1783,#1115);
#1036=LINE('',#1787,#1116);
#1037=LINE('',#1789,#1117);
#1038=LINE('',#1791,#1118);
#1039=LINE('',#1793,#1119);
#1040=LINE('',#1796,#1120);
#1041=LINE('',#1798,#1121);
#1042=LINE('',#1800,#1122);
#1043=LINE('',#1802,#1123);
#1044=LINE('',#1804,#1124);
#1045=LINE('',#1806,#1125);
#1046=LINE('',#1808,#1126);
#1047=LINE('',#1810,#1127);
#1048=LINE('',#1812,#1128);
#1049=LINE('',#1814,#1129);
#1050=LINE('',#1816,#1130);
#1051=LINE('',#1818,#1131);
#1052=LINE('',#1820,#1132);
#1053=LINE('',#1822,#1133);
#1054=LINE('',#1824,#1134);
#1055=LINE('',#1825,#1135);
#1056=LINE('',#1827,#1136);
#1057=LINE('',#1829,#1137);
#1058=LINE('',#1832,#1138);
#1059=LINE('',#1833,#1139);
#1060=LINE('',#1835,#1140);
#1061=LINE('',#1837,#1141);
#1062=LINE('',#1840,#1142);
#1063=LINE('',#1842,#1143);
#1064=LINE('',#1844,#1144);
#1065=LINE('',#1846,#1145);
#1066=LINE('',#1848,#1146);
#1067=LINE('',#1850,#1147);
#1068=LINE('',#1852,#1148);
#1069=LINE('',#1854,#1149);
#1070=LINE('',#1856,#1150);
#1071=LINE('',#1858,#1151);
#1072=LINE('',#1859,#1152);
#1073=LINE('',#1861,#1153);
#1074=LINE('',#1863,#1154);
#1075=LINE('',#1866,#1155);
#1076=LINE('',#1867,#1156);
#1077=LINE('',#1869,#1157);
#1078=LINE('',#1871,#1158);
#1079=LINE('',#1874,#1159);
#1080=VECTOR('',#1277,1.);
#1081=VECTOR('',#1278,1.);
#1082=VECTOR('',#1279,1.);
#1083=VECTOR('',#1280,1.);
#1084=VECTOR('',#1283,1.);
#1085=VECTOR('',#1284,1.);
#1086=VECTOR('',#1285,1.);
#1087=VECTOR('',#1288,1.);
#1088=VECTOR('',#1289,1.);
#1089=VECTOR('',#1290,1.);
#1090=VECTOR('',#1293,1.);
#1091=VECTOR('',#1294,1.);
#1092=VECTOR('',#1295,1.);
#1093=VECTOR('',#1296,1.);
#1094=VECTOR('',#1297,1.);
#1095=VECTOR('',#1326,1.);
#1096=VECTOR('',#1329,1.);
#1097=VECTOR('',#1332,1.);
#1098=VECTOR('',#1335,1.);
#1099=VECTOR('',#1356,1.);
#1100=VECTOR('',#1359,1.);
#1101=VECTOR('',#1362,1.);
#1102=VECTOR('',#1365,1.);
#1103=VECTOR('',#1372,1.);
#1104=VECTOR('',#1373,1.);
#1105=VECTOR('',#1374,1.);
#1106=VECTOR('',#1375,1.);
#1107=VECTOR('',#1376,1.);
#1108=VECTOR('',#1407,1.);
#1109=VECTOR('',#1410,1.);
#1110=VECTOR('',#1413,1.);
#1111=VECTOR('',#1416,1.);
#1112=VECTOR('',#1437,1.);
#1113=VECTOR('',#1440,1.);
#1114=VECTOR('',#1443,1.);
#1115=VECTOR('',#1446,1.);
#1116=VECTOR('',#1451,1.);
#1117=VECTOR('',#1454,1.);
#1118=VECTOR('',#1457,1.);
#1119=VECTOR('',#1460,1.);
#1120=VECTOR('',#1465,1.);
#1121=VECTOR('',#1468,1.);
#1122=VECTOR('',#1471,1.);
#1123=VECTOR('',#1474,1.);
#1124=VECTOR('',#1477,1.);
#1125=VECTOR('',#1480,1.);
#1126=VECTOR('',#1483,1.);
#1127=VECTOR('',#1486,1.);
#1128=VECTOR('',#1489,1.);
#1129=VECTOR('',#1492,1.);
#1130=VECTOR('',#1495,1.);
#1131=VECTOR('',#1498,1.);
#1132=VECTOR('',#1501,1.);
#1133=VECTOR('',#1504,1.);
#1134=VECTOR('',#1507,1.);
#1135=VECTOR('',#1508,1.);
#1136=VECTOR('',#1511,1.);
#1137=VECTOR('',#1514,1.);
#1138=VECTOR('',#1519,1.);
#1139=VECTOR('',#1520,1.);
#1140=VECTOR('',#1523,1.);
#1141=VECTOR('',#1526,1.);
#1142=VECTOR('',#1531,1.);
#1143=VECTOR('',#1534,1.);
#1144=VECTOR('',#1537,1.);
#1145=VECTOR('',#1540,1.);
#1146=VECTOR('',#1543,1.);
#1147=VECTOR('',#1546,1.);
#1148=VECTOR('',#1549,1.);
#1149=VECTOR('',#1552,1.);
#1150=VECTOR('',#1555,1.);
#1151=VECTOR('',#1558,1.);
#1152=VECTOR('',#1559,1.);
#1153=VECTOR('',#1562,1.);
#1154=VECTOR('',#1565,1.);
#1155=VECTOR('',#1570,1.);
#1156=VECTOR('',#1571,1.);
#1157=VECTOR('',#1574,1.);
#1158=VECTOR('',#1577,1.);
#1159=VECTOR('',#1582,1.);
#1160=AXIS2_PLACEMENT_3D('',#1585,#1275,#1276);
#1161=AXIS2_PLACEMENT_3D('',#1594,#1281,#1282);
#1162=AXIS2_PLACEMENT_3D('',#1600,#1286,#1287);
#1163=AXIS2_PLACEMENT_3D('',#1606,#1291,#1292);
#1164=AXIS2_PLACEMENT_3D('',#1616,#1298,#1299);
#1165=AXIS2_PLACEMENT_3D('',#1618,#1300,#1301);
#1166=AXIS2_PLACEMENT_3D('',#1620,#1302,#1303);
#1167=AXIS2_PLACEMENT_3D('',#1622,#1304,#1305);
#1168=AXIS2_PLACEMENT_3D('',#1624,#1306,#1307);
#1169=AXIS2_PLACEMENT_3D('',#1626,#1308,#1309);
#1170=AXIS2_PLACEMENT_3D('',#1628,#1310,#1311);
#1171=AXIS2_PLACEMENT_3D('',#1630,#1312,#1313);
#1172=AXIS2_PLACEMENT_3D('',#1632,#1314,#1315);
#1173=AXIS2_PLACEMENT_3D('',#1634,#1316,#1317);
#1174=AXIS2_PLACEMENT_3D('',#1636,#1318,#1319);
#1175=AXIS2_PLACEMENT_3D('',#1638,#1320,#1321);
#1176=AXIS2_PLACEMENT_3D('',#1640,#1322,#1323);
#1177=AXIS2_PLACEMENT_3D('',#1642,#1324,#1325);
#1178=AXIS2_PLACEMENT_3D('',#1647,#1327,#1328);
#1179=AXIS2_PLACEMENT_3D('',#1651,#1330,#1331);
#1180=AXIS2_PLACEMENT_3D('',#1655,#1333,#1334);
#1181=AXIS2_PLACEMENT_3D('',#1659,#1336,#1337);
#1182=AXIS2_PLACEMENT_3D('',#1660,#1338,#1339);
#1183=AXIS2_PLACEMENT_3D('',#1662,#1340,#1341);
#1184=AXIS2_PLACEMENT_3D('',#1664,#1342,#1343);
#1185=AXIS2_PLACEMENT_3D('',#1666,#1344,#1345);
#1186=AXIS2_PLACEMENT_3D('',#1668,#1346,#1347);
#1187=AXIS2_PLACEMENT_3D('',#1670,#1348,#1349);
#1188=AXIS2_PLACEMENT_3D('',#1672,#1350,#1351);
#1189=AXIS2_PLACEMENT_3D('',#1674,#1352,#1353);
#1190=AXIS2_PLACEMENT_3D('',#1676,#1354,#1355);
#1191=AXIS2_PLACEMENT_3D('',#1681,#1357,#1358);
#1192=AXIS2_PLACEMENT_3D('',#1685,#1360,#1361);
#1193=AXIS2_PLACEMENT_3D('',#1689,#1363,#1364);
#1194=AXIS2_PLACEMENT_3D('',#1693,#1366,#1367);
#1195=AXIS2_PLACEMENT_3D('',#1694,#1368,#1369);
#1196=AXIS2_PLACEMENT_3D('',#1696,#1370,#1371);
#1197=AXIS2_PLACEMENT_3D('',#1706,#1377,#1378);
#1198=AXIS2_PLACEMENT_3D('',#1708,#1379,#1380);
#1199=AXIS2_PLACEMENT_3D('',#1710,#1381,#1382);
#1200=AXIS2_PLACEMENT_3D('',#1712,#1383,#1384);
#1201=AXIS2_PLACEMENT_3D('',#1714,#1385,#1386);
#1202=AXIS2_PLACEMENT_3D('',#1716,#1387,#1388);
#1203=AXIS2_PLACEMENT_3D('',#1718,#1389,#1390);
#1204=AXIS2_PLACEMENT_3D('',#1720,#1391,#1392);
#1205=AXIS2_PLACEMENT_3D('',#1722,#1393,#1394);
#1206=AXIS2_PLACEMENT_3D('',#1724,#1395,#1396);
#1207=AXIS2_PLACEMENT_3D('',#1726,#1397,#1398);
#1208=AXIS2_PLACEMENT_3D('',#1728,#1399,#1400);
#1209=AXIS2_PLACEMENT_3D('',#1730,#1401,#1402);
#1210=AXIS2_PLACEMENT_3D('',#1732,#1403,#1404);
#1211=AXIS2_PLACEMENT_3D('',#1734,#1405,#1406);
#1212=AXIS2_PLACEMENT_3D('',#1739,#1408,#1409);
#1213=AXIS2_PLACEMENT_3D('',#1742,#1411,#1412);
#1214=AXIS2_PLACEMENT_3D('',#1747,#1414,#1415);
#1215=AXIS2_PLACEMENT_3D('',#1750,#1417,#1418);
#1216=AXIS2_PLACEMENT_3D('',#1752,#1419,#1420);
#1217=AXIS2_PLACEMENT_3D('',#1754,#1421,#1422);
#1218=AXIS2_PLACEMENT_3D('',#1756,#1423,#1424);
#1219=AXIS2_PLACEMENT_3D('',#1758,#1425,#1426);
#1220=AXIS2_PLACEMENT_3D('',#1760,#1427,#1428);
#1221=AXIS2_PLACEMENT_3D('',#1762,#1429,#1430);
#1222=AXIS2_PLACEMENT_3D('',#1764,#1431,#1432);
#1223=AXIS2_PLACEMENT_3D('',#1766,#1433,#1434);
#1224=AXIS2_PLACEMENT_3D('',#1768,#1435,#1436);
#1225=AXIS2_PLACEMENT_3D('',#1773,#1438,#1439);
#1226=AXIS2_PLACEMENT_3D('',#1776,#1441,#1442);
#1227=AXIS2_PLACEMENT_3D('',#1781,#1444,#1445);
#1228=AXIS2_PLACEMENT_3D('',#1784,#1447,#1448);
#1229=AXIS2_PLACEMENT_3D('',#1786,#1449,#1450);
#1230=AXIS2_PLACEMENT_3D('',#1788,#1452,#1453);
#1231=AXIS2_PLACEMENT_3D('',#1790,#1455,#1456);
#1232=AXIS2_PLACEMENT_3D('',#1792,#1458,#1459);
#1233=AXIS2_PLACEMENT_3D('',#1794,#1461,#1462);
#1234=AXIS2_PLACEMENT_3D('',#1795,#1463,#1464);
#1235=AXIS2_PLACEMENT_3D('',#1797,#1466,#1467);
#1236=AXIS2_PLACEMENT_3D('',#1799,#1469,#1470);
#1237=AXIS2_PLACEMENT_3D('',#1801,#1472,#1473);
#1238=AXIS2_PLACEMENT_3D('',#1803,#1475,#1476);
#1239=AXIS2_PLACEMENT_3D('',#1805,#1478,#1479);
#1240=AXIS2_PLACEMENT_3D('',#1807,#1481,#1482);
#1241=AXIS2_PLACEMENT_3D('',#1809,#1484,#1485);
#1242=AXIS2_PLACEMENT_3D('',#1811,#1487,#1488);
#1243=AXIS2_PLACEMENT_3D('',#1813,#1490,#1491);
#1244=AXIS2_PLACEMENT_3D('',#1815,#1493,#1494);
#1245=AXIS2_PLACEMENT_3D('',#1817,#1496,#1497);
#1246=AXIS2_PLACEMENT_3D('',#1819,#1499,#1500);
#1247=AXIS2_PLACEMENT_3D('',#1821,#1502,#1503);
#1248=AXIS2_PLACEMENT_3D('',#1823,#1505,#1506);
#1249=AXIS2_PLACEMENT_3D('',#1826,#1509,#1510);
#1250=AXIS2_PLACEMENT_3D('',#1828,#1512,#1513);
#1251=AXIS2_PLACEMENT_3D('',#1830,#1515,#1516);
#1252=AXIS2_PLACEMENT_3D('',#1831,#1517,#1518);
#1253=AXIS2_PLACEMENT_3D('',#1834,#1521,#1522);
#1254=AXIS2_PLACEMENT_3D('',#1836,#1524,#1525);
#1255=AXIS2_PLACEMENT_3D('',#1838,#1527,#1528);
#1256=AXIS2_PLACEMENT_3D('',#1839,#1529,#1530);
#1257=AXIS2_PLACEMENT_3D('',#1841,#1532,#1533);
#1258=AXIS2_PLACEMENT_3D('',#1843,#1535,#1536);
#1259=AXIS2_PLACEMENT_3D('',#1845,#1538,#1539);
#1260=AXIS2_PLACEMENT_3D('',#1847,#1541,#1542);
#1261=AXIS2_PLACEMENT_3D('',#1849,#1544,#1545);
#1262=AXIS2_PLACEMENT_3D('',#1851,#1547,#1548);
#1263=AXIS2_PLACEMENT_3D('',#1853,#1550,#1551);
#1264=AXIS2_PLACEMENT_3D('',#1855,#1553,#1554);
#1265=AXIS2_PLACEMENT_3D('',#1857,#1556,#1557);
#1266=AXIS2_PLACEMENT_3D('',#1860,#1560,#1561);
#1267=AXIS2_PLACEMENT_3D('',#1862,#1563,#1564);
#1268=AXIS2_PLACEMENT_3D('',#1864,#1566,#1567);
#1269=AXIS2_PLACEMENT_3D('',#1865,#1568,#1569);
#1270=AXIS2_PLACEMENT_3D('',#1868,#1572,#1573);
#1271=AXIS2_PLACEMENT_3D('',#1870,#1575,#1576);
#1272=AXIS2_PLACEMENT_3D('',#1872,#1578,#1579);
#1273=AXIS2_PLACEMENT_3D('',#1873,#1580,#1581);
#1274=AXIS2_PLACEMENT_3D('',#1875,#1583,#1584);
#1275=DIRECTION('',(0.,0.,1.));
#1276=DIRECTION('',(1.,0.,0.));
#1277=DIRECTION('',(0.,0.,1.));
#1278=DIRECTION('',(-1.,0.,0.));
#1279=DIRECTION('',(0.,0.,1.));
#1280=DIRECTION('',(-1.,0.,0.));
#1281=DIRECTION('',(0.,-1.,0.));
#1282=DIRECTION('',(-1.,0.,0.));
#1283=DIRECTION('',(0.,0.,1.));
#1284=DIRECTION('',(0.,-1.,0.));
#1285=DIRECTION('',(0.,-1.,0.));
#1286=DIRECTION('',(1.,0.,0.));
#1287=DIRECTION('',(0.,-1.,0.));
#1288=DIRECTION('',(0.,-1.,0.));
#1289=DIRECTION('',(0.,0.,1.));
#1290=DIRECTION('',(0.,-1.,0.));
#1291=DIRECTION('',(1.,0.,0.));
#1292=DIRECTION('',(0.,-1.,0.));
#1293=DIRECTION('',(1.,0.,0.));
#1294=DIRECTION('',(0.,-1.,0.));
#1295=DIRECTION('',(-1.,0.,0.));
#1296=DIRECTION('',(0.,1.,0.));
#1297=DIRECTION('',(1.,0.,0.));
#1298=DIRECTION('',(0.,0.,-1.));
#1299=DIRECTION('',(0.,-0.999999999999994,0.));
#1300=DIRECTION('',(0.,0.,-1.));
#1301=DIRECTION('',(0.,-0.999999999999998,0.));
#1302=DIRECTION('',(0.,0.,-1.));
#1303=DIRECTION('',(0.,-0.999999999999998,0.));
#1304=DIRECTION('',(0.,0.,-1.));
#1305=DIRECTION('',(0.,-0.999999999999998,0.));
#1306=DIRECTION('',(0.,0.,-1.));
#1307=DIRECTION('',(0.,-1.,0.));
#1308=DIRECTION('',(0.,0.,-1.));
#1309=DIRECTION('',(0.,-1.,0.));
#1310=DIRECTION('',(0.,0.,-1.));
#1311=DIRECTION('',(0.,-1.,0.));
#1312=DIRECTION('',(0.,0.,-1.));
#1313=DIRECTION('',(0.,-1.,0.));
#1314=DIRECTION('',(0.,0.,-1.));
#1315=DIRECTION('',(0.,-1.,0.));
#1316=DIRECTION('',(0.,0.,-1.));
#1317=DIRECTION('',(0.,-1.,0.));
#1318=DIRECTION('',(0.,0.,-1.));
#1319=DIRECTION('',(0.,-1.,0.));
#1320=DIRECTION('',(0.,0.,-1.));
#1321=DIRECTION('',(0.,-1.,0.));
#1322=DIRECTION('',(0.,0.,-1.));
#1323=DIRECTION('',(0.,-1.,0.));
#1324=DIRECTION('',(0.,0.,-1.));
#1325=DIRECTION('',(0.,-0.999999999999994,0.));
#1326=DIRECTION('',(-1.,0.,0.));
#1327=DIRECTION('',(0.,0.,-1.));
#1328=DIRECTION('',(0.,-0.999999999999982,0.));
#1329=DIRECTION('',(1.,0.,0.));
#1330=DIRECTION('',(0.,0.,-1.));
#1331=DIRECTION('',(0.,0.999999999999982,0.));
#1332=DIRECTION('',(-1.,0.,0.));
#1333=DIRECTION('',(0.,0.,-1.));
#1334=DIRECTION('',(0.,-0.999999999999982,0.));
#1335=DIRECTION('',(1.,0.,0.));
#1336=DIRECTION('',(0.,0.,-1.));
#1337=DIRECTION('',(0.,0.999999999999982,0.));
#1338=DIRECTION('',(0.,0.,1.));
#1339=DIRECTION('',(0.999999999999975,0.,0.));
#1340=DIRECTION('',(0.,0.,-1.));
#1341=DIRECTION('',(0.,-1.,0.));
#1342=DIRECTION('',(0.,0.,-1.));
#1343=DIRECTION('',(0.,-1.,0.));
#1344=DIRECTION('',(0.,0.,-1.));
#1345=DIRECTION('',(0.,-1.,0.));
#1346=DIRECTION('',(0.,0.,-1.));
#1347=DIRECTION('',(0.,-1.,0.));
#1348=DIRECTION('',(0.,0.,-1.));
#1349=DIRECTION('',(0.,-0.999999999999999,0.));
#1350=DIRECTION('',(0.,0.,-1.));
#1351=DIRECTION('',(0.,-0.999999999999999,0.));
#1352=DIRECTION('',(0.,0.,-1.));
#1353=DIRECTION('',(0.,-1.,0.));
#1354=DIRECTION('',(0.,0.,1.));
#1355=DIRECTION('',(0.999999999999975,0.,0.));
#1356=DIRECTION('',(-1.,0.,0.));
#1357=DIRECTION('',(0.,0.,-1.));
#1358=DIRECTION('',(-9.25185853854297E-14,-0.999999999999982,0.));
#1359=DIRECTION('',(1.,0.,0.));
#1360=DIRECTION('',(0.,0.,-1.));
#1361=DIRECTION('',(9.25185853854297E-14,0.999999999999982,0.));
#1362=DIRECTION('',(-1.,0.,0.));
#1363=DIRECTION('',(0.,0.,-1.));
#1364=DIRECTION('',(-9.25185853854297E-14,-0.999999999999982,0.));
#1365=DIRECTION('',(1.,0.,0.));
#1366=DIRECTION('',(0.,0.,-1.));
#1367=DIRECTION('',(9.25185853854297E-14,0.999999999999982,0.));
#1368=DIRECTION('',(0.,0.,-1.));
#1369=DIRECTION('',(0.,-1.,0.));
#1370=DIRECTION('',(0.,0.,1.));
#1371=DIRECTION('',(1.,0.,0.));
#1372=DIRECTION('',(1.,0.,0.));
#1373=DIRECTION('',(0.,1.,0.));
#1374=DIRECTION('',(-1.,0.,0.));
#1375=DIRECTION('',(0.,-1.,0.));
#1376=DIRECTION('',(1.,0.,0.));
#1377=DIRECTION('',(0.,0.,-1.));
#1378=DIRECTION('',(0.,-0.999999999999994,0.));
#1379=DIRECTION('',(0.,0.,-1.));
#1380=DIRECTION('',(0.,-0.999999999999998,0.));
#1381=DIRECTION('',(0.,0.,-1.));
#1382=DIRECTION('',(0.,-0.999999999999998,0.));
#1383=DIRECTION('',(0.,0.,-1.));
#1384=DIRECTION('',(0.,-0.999999999999998,0.));
#1385=DIRECTION('',(0.,0.,-1.));
#1386=DIRECTION('',(0.,-1.,0.));
#1387=DIRECTION('',(0.,0.,-1.));
#1388=DIRECTION('',(0.,-1.,0.));
#1389=DIRECTION('',(0.,0.,-1.));
#1390=DIRECTION('',(0.,-1.,0.));
#1391=DIRECTION('',(0.,0.,-1.));
#1392=DIRECTION('',(0.,-1.,0.));
#1393=DIRECTION('',(0.,0.,-1.));
#1394=DIRECTION('',(0.,-1.,0.));
#1395=DIRECTION('',(0.,0.,-1.));
#1396=DIRECTION('',(0.,-1.,0.));
#1397=DIRECTION('',(0.,0.,-1.));
#1398=DIRECTION('',(0.,-1.,0.));
#1399=DIRECTION('',(0.,0.,-1.));
#1400=DIRECTION('',(0.,-1.,0.));
#1401=DIRECTION('',(0.,0.,-1.));
#1402=DIRECTION('',(0.,-1.,0.));
#1403=DIRECTION('',(0.,0.,-1.));
#1404=DIRECTION('',(0.,-0.999999999999994,0.));
#1405=DIRECTION('',(0.,0.,-1.));
#1406=DIRECTION('',(0.,0.999999999999982,0.));
#1407=DIRECTION('',(1.,0.,0.));
#1408=DIRECTION('',(0.,0.,-1.));
#1409=DIRECTION('',(0.,-0.999999999999982,0.));
#1410=DIRECTION('',(-1.,0.,0.));
#1411=DIRECTION('',(0.,0.,-1.));
#1412=DIRECTION('',(0.,0.999999999999982,0.));
#1413=DIRECTION('',(1.,0.,0.));
#1414=DIRECTION('',(0.,0.,-1.));
#1415=DIRECTION('',(0.,-0.999999999999982,0.));
#1416=DIRECTION('',(-1.,0.,0.));
#1417=DIRECTION('',(0.,0.,1.));
#1418=DIRECTION('',(0.999999999999975,0.,0.));
#1419=DIRECTION('',(0.,0.,-1.));
#1420=DIRECTION('',(0.,-1.,0.));
#1421=DIRECTION('',(0.,0.,-1.));
#1422=DIRECTION('',(0.,-1.,0.));
#1423=DIRECTION('',(0.,0.,-1.));
#1424=DIRECTION('',(0.,-1.,0.));
#1425=DIRECTION('',(0.,0.,-1.));
#1426=DIRECTION('',(0.,-1.,0.));
#1427=DIRECTION('',(0.,0.,-1.));
#1428=DIRECTION('',(0.,-0.999999999999999,0.));
#1429=DIRECTION('',(0.,0.,-1.));
#1430=DIRECTION('',(0.,-0.999999999999999,0.));
#1431=DIRECTION('',(0.,0.,-1.));
#1432=DIRECTION('',(0.,-1.,0.));
#1433=DIRECTION('',(0.,0.,1.));
#1434=DIRECTION('',(0.999999999999975,0.,0.));
#1435=DIRECTION('',(0.,0.,-1.));
#1436=DIRECTION('',(9.25185853854297E-14,0.999999999999982,0.));
#1437=DIRECTION('',(1.,0.,0.));
#1438=DIRECTION('',(0.,0.,-1.));
#1439=DIRECTION('',(-9.25185853854297E-14,-0.999999999999982,0.));
#1440=DIRECTION('',(-1.,0.,0.));
#1441=DIRECTION('',(0.,0.,-1.));
#1442=DIRECTION('',(9.25185853854297E-14,0.999999999999982,0.));
#1443=DIRECTION('',(1.,0.,0.));
#1444=DIRECTION('',(0.,0.,-1.));
#1445=DIRECTION('',(-9.25185853854297E-14,-0.999999999999982,0.));
#1446=DIRECTION('',(-1.,0.,0.));
#1447=DIRECTION('',(0.,0.,-1.));
#1448=DIRECTION('',(0.,-1.,0.));
#1449=DIRECTION('',(0.,0.,1.));
#1450=DIRECTION('',(1.,0.,0.));
#1451=DIRECTION('',(0.,0.,1.));
#1452=DIRECTION('',(0.,1.,0.));
#1453=DIRECTION('',(1.,0.,0.));
#1454=DIRECTION('',(0.,0.,1.));
#1455=DIRECTION('',(0.,1.,0.));
#1456=DIRECTION('',(1.,0.,0.));
#1457=DIRECTION('',(0.,0.,1.));
#1458=DIRECTION('',(-1.,0.,0.));
#1459=DIRECTION('',(0.,1.,0.));
#1460=DIRECTION('',(0.,0.,1.));
#1461=DIRECTION('',(1.,0.,0.));
#1462=DIRECTION('',(0.,-1.,0.));
#1463=DIRECTION('',(0.,-1.,0.));
#1464=DIRECTION('',(-1.,0.,0.));
#1465=DIRECTION('',(0.,0.,1.));
#1466=DIRECTION('',(0.,0.,-1.));
#1467=DIRECTION('',(0.,-0.999999999999994,0.));
#1468=DIRECTION('',(0.,0.,1.));
#1469=DIRECTION('',(0.,0.,-1.));
#1470=DIRECTION('',(0.,-0.999999999999998,0.));
#1471=DIRECTION('',(0.,0.,1.));
#1472=DIRECTION('',(0.,0.,-1.));
#1473=DIRECTION('',(0.,-0.999999999999998,0.));
#1474=DIRECTION('',(0.,0.,1.));
#1475=DIRECTION('',(0.,0.,-1.));
#1476=DIRECTION('',(0.,-0.999999999999998,0.));
#1477=DIRECTION('',(0.,0.,1.));
#1478=DIRECTION('',(0.,0.,-1.));
#1479=DIRECTION('',(0.,-1.,0.));
#1480=DIRECTION('',(0.,0.,1.));
#1481=DIRECTION('',(0.,0.,-1.));
#1482=DIRECTION('',(0.,-1.,0.));
#1483=DIRECTION('',(0.,0.,1.));
#1484=DIRECTION('',(0.,0.,-1.));
#1485=DIRECTION('',(0.,-1.,0.));
#1486=DIRECTION('',(0.,0.,1.));
#1487=DIRECTION('',(0.,0.,-1.));
#1488=DIRECTION('',(0.,-1.,0.));
#1489=DIRECTION('',(0.,0.,1.));
#1490=DIRECTION('',(0.,0.,-1.));
#1491=DIRECTION('',(0.,-1.,0.));
#1492=DIRECTION('',(0.,0.,1.));
#1493=DIRECTION('',(0.,0.,-1.));
#1494=DIRECTION('',(0.,-1.,0.));
#1495=DIRECTION('',(0.,0.,1.));
#1496=DIRECTION('',(0.,0.,-1.));
#1497=DIRECTION('',(0.,-1.,0.));
#1498=DIRECTION('',(0.,0.,1.));
#1499=DIRECTION('',(0.,0.,-1.));
#1500=DIRECTION('',(0.,-1.,0.));
#1501=DIRECTION('',(0.,0.,1.));
#1502=DIRECTION('',(0.,0.,-1.));
#1503=DIRECTION('',(0.,-1.,0.));
#1504=DIRECTION('',(0.,0.,1.));
#1505=DIRECTION('',(0.,0.,-1.));
#1506=DIRECTION('',(0.,-0.999999999999994,0.));
#1507=DIRECTION('',(0.,0.,1.));
#1508=DIRECTION('',(0.,0.,1.));
#1509=DIRECTION('',(0.,0.,-1.));
#1510=DIRECTION('',(0.,0.999999999999982,0.));
#1511=DIRECTION('',(0.,0.,1.));
#1512=DIRECTION('',(0.,1.,0.));
#1513=DIRECTION('',(1.,0.,0.));
#1514=DIRECTION('',(0.,0.,1.));
#1515=DIRECTION('',(0.,0.,-1.));
#1516=DIRECTION('',(0.,-0.999999999999982,0.));
#1517=DIRECTION('',(0.,-1.,0.));
#1518=DIRECTION('',(-1.,0.,0.));
#1519=DIRECTION('',(0.,0.,1.));
#1520=DIRECTION('',(0.,0.,1.));
#1521=DIRECTION('',(0.,0.,-1.));
#1522=DIRECTION('',(0.,0.999999999999982,0.));
#1523=DIRECTION('',(0.,0.,1.));
#1524=DIRECTION('',(0.,1.,0.));
#1525=DIRECTION('',(1.,0.,0.));
#1526=DIRECTION('',(0.,0.,1.));
#1527=DIRECTION('',(0.,0.,-1.));
#1528=DIRECTION('',(0.,-0.999999999999982,0.));
#1529=DIRECTION('',(0.,-1.,0.));
#1530=DIRECTION('',(-1.,0.,0.));
#1531=DIRECTION('',(0.,0.,1.));
#1532=DIRECTION('',(0.,0.,-1.));
#1533=DIRECTION('',(0.999999999999975,0.,0.));
#1534=DIRECTION('',(0.,0.,1.));
#1535=DIRECTION('',(0.,0.,-1.));
#1536=DIRECTION('',(0.,-1.,0.));
#1537=DIRECTION('',(0.,0.,1.));
#1538=DIRECTION('',(0.,0.,-1.));
#1539=DIRECTION('',(0.,-1.,0.));
#1540=DIRECTION('',(0.,0.,1.));
#1541=DIRECTION('',(0.,0.,-1.));
#1542=DIRECTION('',(0.,-1.,0.));
#1543=DIRECTION('',(0.,0.,1.));
#1544=DIRECTION('',(0.,0.,-1.));
#1545=DIRECTION('',(0.,-1.,0.));
#1546=DIRECTION('',(0.,0.,1.));
#1547=DIRECTION('',(0.,0.,-1.));
#1548=DIRECTION('',(0.,-0.999999999999999,0.));
#1549=DIRECTION('',(0.,0.,1.));
#1550=DIRECTION('',(0.,0.,-1.));
#1551=DIRECTION('',(0.,-0.999999999999999,0.));
#1552=DIRECTION('',(0.,0.,1.));
#1553=DIRECTION('',(0.,0.,-1.));
#1554=DIRECTION('',(0.,-1.,0.));
#1555=DIRECTION('',(0.,0.,1.));
#1556=DIRECTION('',(0.,0.,-1.));
#1557=DIRECTION('',(0.999999999999975,0.,0.));
#1558=DIRECTION('',(0.,0.,1.));
#1559=DIRECTION('',(0.,0.,1.));
#1560=DIRECTION('',(0.,0.,-1.));
#1561=DIRECTION('',(9.25185853854297E-14,0.999999999999982,0.));
#1562=DIRECTION('',(0.,0.,1.));
#1563=DIRECTION('',(0.,1.,0.));
#1564=DIRECTION('',(1.,0.,0.));
#1565=DIRECTION('',(0.,0.,1.));
#1566=DIRECTION('',(0.,0.,-1.));
#1567=DIRECTION('',(-9.25185853854297E-14,-0.999999999999982,0.));
#1568=DIRECTION('',(0.,-1.,0.));
#1569=DIRECTION('',(-1.,0.,0.));
#1570=DIRECTION('',(0.,0.,1.));
#1571=DIRECTION('',(0.,0.,1.));
#1572=DIRECTION('',(0.,0.,-1.));
#1573=DIRECTION('',(9.25185853854297E-14,0.999999999999982,0.));
#1574=DIRECTION('',(0.,0.,1.));
#1575=DIRECTION('',(0.,1.,0.));
#1576=DIRECTION('',(1.,0.,0.));
#1577=DIRECTION('',(0.,0.,1.));
#1578=DIRECTION('',(0.,0.,-1.));
#1579=DIRECTION('',(-9.25185853854297E-14,-0.999999999999982,0.));
#1580=DIRECTION('',(0.,-1.,0.));
#1581=DIRECTION('',(-1.,0.,0.));
#1582=DIRECTION('',(0.,0.,1.));
#1583=DIRECTION('',(0.,0.,-1.));
#1584=DIRECTION('',(0.,-1.,0.));
#1585=CARTESIAN_POINT('',(0.,0.,0.));
#1586=CARTESIAN_POINT('',(132.5,-134.45,0.));
#1587=CARTESIAN_POINT('',(132.5,-134.45,0.));
#1588=CARTESIAN_POINT('',(132.5,-134.45,1.51));
#1589=CARTESIAN_POINT('',(132.5,-134.45,1.51));
#1590=CARTESIAN_POINT('',(130.6,-134.45,1.51));
#1591=CARTESIAN_POINT('',(130.6,-134.45,0.));
#1592=CARTESIAN_POINT('',(130.6,-134.45,0.));
#1593=CARTESIAN_POINT('',(132.5,-134.45,0.));
#1594=CARTESIAN_POINT('',(132.5,-134.45,0.));
#1595=CARTESIAN_POINT('',(132.5,-88.9,0.));
#1596=CARTESIAN_POINT('',(132.5,-88.9,0.));
#1597=CARTESIAN_POINT('',(132.5,-88.9,1.51));
#1598=CARTESIAN_POINT('',(132.5,-88.9,1.51));
#1599=CARTESIAN_POINT('',(132.5,-88.9,0.));
#1600=CARTESIAN_POINT('',(132.5,-88.9,0.));
#1601=CARTESIAN_POINT('',(130.6,-134.45,1.51));
#1602=CARTESIAN_POINT('',(130.6,-147.35,1.51));
#1603=CARTESIAN_POINT('',(130.6,-147.35,0.));
#1604=CARTESIAN_POINT('',(130.6,-147.35,0.));
#1605=CARTESIAN_POINT('',(130.6,-134.45,0.));
#1606=CARTESIAN_POINT('',(130.6,-134.45,0.));
#1607=CARTESIAN_POINT('',(130.6,-147.35,0.));
#1608=CARTESIAN_POINT('',(132.5,-147.35,0.));
#1609=CARTESIAN_POINT('',(132.5,-147.35,0.));
#1610=CARTESIAN_POINT('',(132.5,-153.9,0.));
#1611=CARTESIAN_POINT('',(132.5,-153.9,0.));
#1612=CARTESIAN_POINT('',(67.5,-153.9,0.));
#1613=CARTESIAN_POINT('',(67.5,-153.9,0.));
#1614=CARTESIAN_POINT('',(67.5,-88.9,0.));
#1615=CARTESIAN_POINT('',(67.5,-88.9,0.));
#1616=CARTESIAN_POINT('',(71.,-150.4,0.));
#1617=CARTESIAN_POINT('',(71.,-152.,0.));
#1618=CARTESIAN_POINT('',(77.,-151.05,0.));
#1619=CARTESIAN_POINT('',(77.,-152.349997,0.));
#1620=CARTESIAN_POINT('',(80.5,-151.05,0.));
#1621=CARTESIAN_POINT('',(80.5,-152.349997,0.));
#1622=CARTESIAN_POINT('',(84.,-151.05,0.));
#1623=CARTESIAN_POINT('',(84.,-152.349997,0.));
#1624=CARTESIAN_POINT('',(88.4,-152.15,0.));
#1625=CARTESIAN_POINT('',(88.4,-152.65,0.));
#1626=CARTESIAN_POINT('',(90.94,-152.15,0.));
#1627=CARTESIAN_POINT('',(90.94,-152.65,0.));
#1628=CARTESIAN_POINT('',(93.48,-152.15,0.));
#1629=CARTESIAN_POINT('',(93.48,-152.65,0.));
#1630=CARTESIAN_POINT('',(96.02,-152.15,0.));
#1631=CARTESIAN_POINT('',(96.02,-152.65,0.));
#1632=CARTESIAN_POINT('',(98.56,-152.15,0.));
#1633=CARTESIAN_POINT('',(98.56,-152.65,0.));
#1634=CARTESIAN_POINT('',(101.1,-152.15,0.));
#1635=CARTESIAN_POINT('',(101.1,-152.65,0.));
#1636=CARTESIAN_POINT('',(103.64,-152.15,0.));
#1637=CARTESIAN_POINT('',(103.64,-152.65,0.));
#1638=CARTESIAN_POINT('',(106.18,-152.15,0.));
#1639=CARTESIAN_POINT('',(106.18,-152.65,0.));
#1640=CARTESIAN_POINT('',(108.72,-152.15,0.));
#1641=CARTESIAN_POINT('',(108.72,-152.65,0.));
#1642=CARTESIAN_POINT('',(129.,-150.4,0.));
#1643=CARTESIAN_POINT('',(129.,-152.,0.));
#1644=CARTESIAN_POINT('',(63.2675005,-126.02,0.));
#1645=CARTESIAN_POINT('',(127.634999,-126.02,0.));
#1646=CARTESIAN_POINT('',(126.535001,-126.02,0.));
#1647=CARTESIAN_POINT('',(127.634999,-125.72,0.));
#1648=CARTESIAN_POINT('',(127.634999,-125.42,0.));
#1649=CARTESIAN_POINT('',(63.8174995,-125.42,0.));
#1650=CARTESIAN_POINT('',(126.535001,-125.42,0.));
#1651=CARTESIAN_POINT('',(126.535001,-125.72,0.));
#1652=CARTESIAN_POINT('',(65.4175005,-126.02,0.));
#1653=CARTESIAN_POINT('',(131.634999,-126.02,0.));
#1654=CARTESIAN_POINT('',(130.835001,-126.02,0.));
#1655=CARTESIAN_POINT('',(131.634999,-125.72,0.));
#1656=CARTESIAN_POINT('',(131.634999,-125.42,0.));
#1657=CARTESIAN_POINT('',(65.8174995,-125.42,0.));
#1658=CARTESIAN_POINT('',(130.835001,-125.42,0.));
#1659=CARTESIAN_POINT('',(130.835001,-125.72,0.));
#1660=CARTESIAN_POINT('',(127.575,-124.3,0.));
#1661=CARTESIAN_POINT('',(127.9,-124.3,0.));
#1662=CARTESIAN_POINT('',(69.5,-121.7,0.));
#1663=CARTESIAN_POINT('',(69.5,-122.156997,0.));
#1664=CARTESIAN_POINT('',(71.5,-121.7,0.));
#1665=CARTESIAN_POINT('',(71.5,-122.156997,0.));
#1666=CARTESIAN_POINT('',(70.5,-117.86,0.));
#1667=CARTESIAN_POINT('',(70.5,-118.810011,0.));
#1668=CARTESIAN_POINT('',(70.5,-112.86,0.));
#1669=CARTESIAN_POINT('',(70.5,-113.810011,0.));
#1670=CARTESIAN_POINT('',(70.5,-104.7,0.));
#1671=CARTESIAN_POINT('',(70.5,-105.599998,0.));
#1672=CARTESIAN_POINT('',(70.5,-99.7,0.));
#1673=CARTESIAN_POINT('',(70.5,-100.599998,0.));
#1674=CARTESIAN_POINT('',(71.,-92.4,0.));
#1675=CARTESIAN_POINT('',(71.,-94.,0.));
#1676=CARTESIAN_POINT('',(127.575,-118.5,0.));
#1677=CARTESIAN_POINT('',(127.9,-118.5,0.));
#1678=CARTESIAN_POINT('',(63.2675005,-117.38,0.));
#1679=CARTESIAN_POINT('',(127.634999,-117.38,0.));
#1680=CARTESIAN_POINT('',(126.535001,-117.38,0.));
#1681=CARTESIAN_POINT('',(127.634999,-117.08,0.));
#1682=CARTESIAN_POINT('',(127.634999,-116.78,0.));
#1683=CARTESIAN_POINT('',(63.8174995,-116.78,0.));
#1684=CARTESIAN_POINT('',(126.535001,-116.78,0.));
#1685=CARTESIAN_POINT('',(126.535001,-117.08,0.));
#1686=CARTESIAN_POINT('',(65.4175005,-117.38,0.));
#1687=CARTESIAN_POINT('',(131.634999,-117.38,0.));
#1688=CARTESIAN_POINT('',(130.835001,-117.38,0.));
#1689=CARTESIAN_POINT('',(131.634999,-117.08,0.));
#1690=CARTESIAN_POINT('',(131.634999,-116.78,0.));
#1691=CARTESIAN_POINT('',(65.8174995,-116.78,0.));
#1692=CARTESIAN_POINT('',(130.835001,-116.78,0.));
#1693=CARTESIAN_POINT('',(130.835001,-117.08,0.));
#1694=CARTESIAN_POINT('',(129.,-92.4,0.));
#1695=CARTESIAN_POINT('',(129.,-94.,0.));
#1696=CARTESIAN_POINT('',(0.,0.,0.));
#1697=CARTESIAN_POINT('',(67.5,-88.9,1.51));
#1698=CARTESIAN_POINT('',(67.5,-88.9,1.51));
#1699=CARTESIAN_POINT('',(67.5,-153.9,1.51));
#1700=CARTESIAN_POINT('',(67.5,-153.9,1.51));
#1701=CARTESIAN_POINT('',(132.5,-153.9,1.51));
#1702=CARTESIAN_POINT('',(132.5,-153.9,1.51));
#1703=CARTESIAN_POINT('',(132.5,-147.35,1.51));
#1704=CARTESIAN_POINT('',(132.5,-147.35,1.51));
#1705=CARTESIAN_POINT('',(130.6,-147.35,1.51));
#1706=CARTESIAN_POINT('',(71.,-150.4,1.51));
#1707=CARTESIAN_POINT('',(71.,-152.,1.51));
#1708=CARTESIAN_POINT('',(77.,-151.05,1.51));
#1709=CARTESIAN_POINT('',(77.,-152.349997,1.51));
#1710=CARTESIAN_POINT('',(80.5,-151.05,1.51));
#1711=CARTESIAN_POINT('',(80.5,-152.349997,1.51));
#1712=CARTESIAN_POINT('',(84.,-151.05,1.51));
#1713=CARTESIAN_POINT('',(84.,-152.349997,1.51));
#1714=CARTESIAN_POINT('',(88.4,-152.15,1.51));
#1715=CARTESIAN_POINT('',(88.4,-152.65,1.51));
#1716=CARTESIAN_POINT('',(90.94,-152.15,1.51));
#1717=CARTESIAN_POINT('',(90.94,-152.65,1.51));
#1718=CARTESIAN_POINT('',(93.48,-152.15,1.51));
#1719=CARTESIAN_POINT('',(93.48,-152.65,1.51));
#1720=CARTESIAN_POINT('',(96.02,-152.15,1.51));
#1721=CARTESIAN_POINT('',(96.02,-152.65,1.51));
#1722=CARTESIAN_POINT('',(98.56,-152.15,1.51));
#1723=CARTESIAN_POINT('',(98.56,-152.65,1.51));
#1724=CARTESIAN_POINT('',(101.1,-152.15,1.51));
#1725=CARTESIAN_POINT('',(101.1,-152.65,1.51));
#1726=CARTESIAN_POINT('',(103.64,-152.15,1.51));
#1727=CARTESIAN_POINT('',(103.64,-152.65,1.51));
#1728=CARTESIAN_POINT('',(106.18,-152.15,1.51));
#1729=CARTESIAN_POINT('',(106.18,-152.65,1.51));
#1730=CARTESIAN_POINT('',(108.72,-152.15,1.51));
#1731=CARTESIAN_POINT('',(108.72,-152.65,1.51));
#1732=CARTESIAN_POINT('',(129.,-150.4,1.51));
#1733=CARTESIAN_POINT('',(129.,-152.,1.51));
#1734=CARTESIAN_POINT('',(126.535001,-125.72,1.51));
#1735=CARTESIAN_POINT('',(126.535001,-126.02,1.51));
#1736=CARTESIAN_POINT('',(126.535001,-125.42,1.51));
#1737=CARTESIAN_POINT('',(63.8174995,-125.42,1.51));
#1738=CARTESIAN_POINT('',(127.634999,-125.42,1.51));
#1739=CARTESIAN_POINT('',(127.634999,-125.72,1.51));
#1740=CARTESIAN_POINT('',(127.634999,-126.02,1.51));
#1741=CARTESIAN_POINT('',(63.2675005,-126.02,1.51));
#1742=CARTESIAN_POINT('',(130.835001,-125.72,1.51));
#1743=CARTESIAN_POINT('',(130.835001,-126.02,1.51));
#1744=CARTESIAN_POINT('',(130.835001,-125.42,1.51));
#1745=CARTESIAN_POINT('',(65.8174995,-125.42,1.51));
#1746=CARTESIAN_POINT('',(131.634999,-125.42,1.51));
#1747=CARTESIAN_POINT('',(131.634999,-125.72,1.51));
#1748=CARTESIAN_POINT('',(131.634999,-126.02,1.51));
#1749=CARTESIAN_POINT('',(65.4175005,-126.02,1.51));
#1750=CARTESIAN_POINT('',(127.575,-124.3,1.51));
#1751=CARTESIAN_POINT('',(127.9,-124.3,1.51));
#1752=CARTESIAN_POINT('',(69.5,-121.7,1.51));
#1753=CARTESIAN_POINT('',(69.5,-122.156997,1.51));
#1754=CARTESIAN_POINT('',(71.5,-121.7,1.51));
#1755=CARTESIAN_POINT('',(71.5,-122.156997,1.51));
#1756=CARTESIAN_POINT('',(70.5,-117.86,1.51));
#1757=CARTESIAN_POINT('',(70.5,-118.810011,1.51));
#1758=CARTESIAN_POINT('',(70.5,-112.86,1.51));
#1759=CARTESIAN_POINT('',(70.5,-113.810011,1.51));
#1760=CARTESIAN_POINT('',(70.5,-104.7,1.51));
#1761=CARTESIAN_POINT('',(70.5,-105.599998,1.51));
#1762=CARTESIAN_POINT('',(70.5,-99.7,1.51));
#1763=CARTESIAN_POINT('',(70.5,-100.599998,1.51));
#1764=CARTESIAN_POINT('',(71.,-92.4,1.51));
#1765=CARTESIAN_POINT('',(71.,-94.,1.51));
#1766=CARTESIAN_POINT('',(127.575,-118.5,1.51));
#1767=CARTESIAN_POINT('',(127.9,-118.5,1.51));
#1768=CARTESIAN_POINT('',(126.535001,-117.08,1.51));
#1769=CARTESIAN_POINT('',(126.535001,-117.38,1.51));
#1770=CARTESIAN_POINT('',(126.535001,-116.78,1.51));
#1771=CARTESIAN_POINT('',(63.8174995,-116.78,1.51));
#1772=CARTESIAN_POINT('',(127.634999,-116.78,1.51));
#1773=CARTESIAN_POINT('',(127.634999,-117.08,1.51));
#1774=CARTESIAN_POINT('',(127.634999,-117.38,1.51));
#1775=CARTESIAN_POINT('',(63.2675005,-117.38,1.51));
#1776=CARTESIAN_POINT('',(130.835001,-117.08,1.51));
#1777=CARTESIAN_POINT('',(130.835001,-117.38,1.51));
#1778=CARTESIAN_POINT('',(130.835001,-116.78,1.51));
#1779=CARTESIAN_POINT('',(65.8174995,-116.78,1.51));
#1780=CARTESIAN_POINT('',(131.634999,-116.78,1.51));
#1781=CARTESIAN_POINT('',(131.634999,-117.08,1.51));
#1782=CARTESIAN_POINT('',(131.634999,-117.38,1.51));
#1783=CARTESIAN_POINT('',(65.4175005,-117.38,1.51));
#1784=CARTESIAN_POINT('',(129.,-92.4,1.51));
#1785=CARTESIAN_POINT('',(129.,-94.,1.51));
#1786=CARTESIAN_POINT('',(0.,0.,1.51));
#1787=CARTESIAN_POINT('',(67.5,-88.9,0.));
#1788=CARTESIAN_POINT('',(67.5,-88.9,0.));
#1789=CARTESIAN_POINT('',(132.5,-147.35,0.));
#1790=CARTESIAN_POINT('',(130.6,-147.35,0.));
#1791=CARTESIAN_POINT('',(67.5,-153.9,0.));
#1792=CARTESIAN_POINT('',(67.5,-153.9,0.));
#1793=CARTESIAN_POINT('',(132.5,-153.9,0.));
#1794=CARTESIAN_POINT('',(132.5,-147.35,0.));
#1795=CARTESIAN_POINT('',(132.5,-153.9,0.));
#1796=CARTESIAN_POINT('',(71.,-152.,-0.046));
#1797=CARTESIAN_POINT('',(71.,-150.4,-0.046));
#1798=CARTESIAN_POINT('',(77.,-152.349997,-0.046));
#1799=CARTESIAN_POINT('',(77.,-151.05,-0.046));
#1800=CARTESIAN_POINT('',(80.5,-152.349997,-0.046));
#1801=CARTESIAN_POINT('',(80.5,-151.05,-0.046));
#1802=CARTESIAN_POINT('',(84.,-152.349997,-0.046));
#1803=CARTESIAN_POINT('',(84.,-151.05,-0.046));
#1804=CARTESIAN_POINT('',(88.4,-152.65,-0.046));
#1805=CARTESIAN_POINT('',(88.4,-152.15,-0.046));
#1806=CARTESIAN_POINT('',(90.94,-152.65,-0.046));
#1807=CARTESIAN_POINT('',(90.94,-152.15,-0.046));
#1808=CARTESIAN_POINT('',(93.48,-152.65,-0.046));
#1809=CARTESIAN_POINT('',(93.48,-152.15,-0.046));
#1810=CARTESIAN_POINT('',(96.02,-152.65,-0.046));
#1811=CARTESIAN_POINT('',(96.02,-152.15,-0.046));
#1812=CARTESIAN_POINT('',(98.56,-152.65,-0.046));
#1813=CARTESIAN_POINT('',(98.56,-152.15,-0.046));
#1814=CARTESIAN_POINT('',(101.1,-152.65,-0.046));
#1815=CARTESIAN_POINT('',(101.1,-152.15,-0.046));
#1816=CARTESIAN_POINT('',(103.64,-152.65,-0.046));
#1817=CARTESIAN_POINT('',(103.64,-152.15,-0.046));
#1818=CARTESIAN_POINT('',(106.18,-152.65,-0.046));
#1819=CARTESIAN_POINT('',(106.18,-152.15,-0.046));
#1820=CARTESIAN_POINT('',(108.72,-152.65,-0.046));
#1821=CARTESIAN_POINT('',(108.72,-152.15,-0.046));
#1822=CARTESIAN_POINT('',(129.,-152.,-0.046));
#1823=CARTESIAN_POINT('',(129.,-150.4,-0.046));
#1824=CARTESIAN_POINT('',(126.535001,-125.42,-0.046));
#1825=CARTESIAN_POINT('',(126.535001,-126.02,-0.046));
#1826=CARTESIAN_POINT('',(126.535001,-125.72,-0.046));
#1827=CARTESIAN_POINT('',(127.634999,-126.02,-0.046));
#1828=CARTESIAN_POINT('',(126.535001,-126.02,-0.046));
#1829=CARTESIAN_POINT('',(127.634999,-125.42,-0.046));
#1830=CARTESIAN_POINT('',(127.634999,-125.72,-0.046));
#1831=CARTESIAN_POINT('',(127.634999,-125.42,-0.046));
#1832=CARTESIAN_POINT('',(130.835001,-125.42,-0.046));
#1833=CARTESIAN_POINT('',(130.835001,-126.02,-0.046));
#1834=CARTESIAN_POINT('',(130.835001,-125.72,-0.046));
#1835=CARTESIAN_POINT('',(131.634999,-126.02,-0.046));
#1836=CARTESIAN_POINT('',(130.835001,-126.02,-0.046));
#1837=CARTESIAN_POINT('',(131.634999,-125.42,-0.046));
#1838=CARTESIAN_POINT('',(131.634999,-125.72,-0.046));
#1839=CARTESIAN_POINT('',(131.634999,-125.42,-0.046));
#1840=CARTESIAN_POINT('',(127.9,-124.3,0.));
#1841=CARTESIAN_POINT('',(127.575,-124.3,0.));
#1842=CARTESIAN_POINT('',(69.5,-122.156997,-0.046));
#1843=CARTESIAN_POINT('',(69.5,-121.7,-0.046));
#1844=CARTESIAN_POINT('',(71.5,-122.156997,-0.046));
#1845=CARTESIAN_POINT('',(71.5,-121.7,-0.046));
#1846=CARTESIAN_POINT('',(70.5,-118.810011,-0.046));
#1847=CARTESIAN_POINT('',(70.5,-117.86,-0.046));
#1848=CARTESIAN_POINT('',(70.5,-113.810011,-0.046));
#1849=CARTESIAN_POINT('',(70.5,-112.86,-0.046));
#1850=CARTESIAN_POINT('',(70.5,-105.599998,-0.046));
#1851=CARTESIAN_POINT('',(70.5,-104.7,-0.046));
#1852=CARTESIAN_POINT('',(70.5,-100.599998,-0.046));
#1853=CARTESIAN_POINT('',(70.5,-99.7,-0.046));
#1854=CARTESIAN_POINT('',(71.,-94.,-0.046));
#1855=CARTESIAN_POINT('',(71.,-92.4,-0.046));
#1856=CARTESIAN_POINT('',(127.9,-118.5,0.));
#1857=CARTESIAN_POINT('',(127.575,-118.5,0.));
#1858=CARTESIAN_POINT('',(126.535001,-116.78,-0.046));
#1859=CARTESIAN_POINT('',(126.535001,-117.38,-0.046));
#1860=CARTESIAN_POINT('',(126.535001,-117.08,-0.046));
#1861=CARTESIAN_POINT('',(127.634999,-117.38,-0.046));
#1862=CARTESIAN_POINT('',(126.535001,-117.38,-0.046));
#1863=CARTESIAN_POINT('',(127.634999,-116.78,-0.046));
#1864=CARTESIAN_POINT('',(127.634999,-117.08,-0.046));
#1865=CARTESIAN_POINT('',(127.634999,-116.78,-0.046));
#1866=CARTESIAN_POINT('',(130.835001,-116.78,-0.046));
#1867=CARTESIAN_POINT('',(130.835001,-117.38,-0.046));
#1868=CARTESIAN_POINT('',(130.835001,-117.08,-0.046));
#1869=CARTESIAN_POINT('',(131.634999,-117.38,-0.046));
#1870=CARTESIAN_POINT('',(130.835001,-117.38,-0.046));
#1871=CARTESIAN_POINT('',(131.634999,-116.78,-0.046));
#1872=CARTESIAN_POINT('',(131.634999,-117.08,-0.046));
#1873=CARTESIAN_POINT('',(131.634999,-116.78,-0.046));
#1874=CARTESIAN_POINT('',(129.,-94.,-0.046));
#1875=CARTESIAN_POINT('',(129.,-92.4,-0.046));
#1876=MECHANICAL_DESIGN_GEOMETRIC_PRESENTATION_REPRESENTATION('',(#86),
#1877);
#1877=(
GEOMETRIC_REPRESENTATION_CONTEXT(3)
GLOBAL_UNCERTAINTY_ASSIGNED_CONTEXT((#1878))
GLOBAL_UNIT_ASSIGNED_CONTEXT((#1884,#1880,#1879))
REPRESENTATION_CONTEXT('Control_Borad_AT32','TOP_LEVEL_ASSEMBLY_PART')
);
#1878=UNCERTAINTY_MEASURE_WITH_UNIT(LENGTH_MEASURE(0.001),#1884,
'DISTANCE_ACCURACY_VALUE','Maximum Tolerance applied to model');
#1879=(
NAMED_UNIT(*)
SI_UNIT($,.STERADIAN.)
SOLID_ANGLE_UNIT()
);
#1880=(
CONVERSION_BASED_UNIT('DEGREE',#1882)
NAMED_UNIT(#1881)
PLANE_ANGLE_UNIT()
);
#1881=DIMENSIONAL_EXPONENTS(0.,0.,0.,0.,0.,0.,0.);
#1882=PLANE_ANGLE_MEASURE_WITH_UNIT(PLANE_ANGLE_MEASURE(0.0174532925),#1883);
#1883=(
NAMED_UNIT(*)
PLANE_ANGLE_UNIT()
SI_UNIT($,.RADIAN.)
);
#1884=(
LENGTH_UNIT()
NAMED_UNIT(*)
SI_UNIT(.MILLI.,.METRE.)
);
ENDSEC;
END-ISO-10303-21;
