ISO-10303-21;
HEADER;
/* Generated by software containing ST-Developer
 * from STEP Tools, Inc. (www.steptools.com) 
 */
/* OPTION: using custom schema-name function */

FILE_DESCRIPTION(
/* description */ (''),
/* implementation_level */ '2;1');

FILE_NAME(
/* name */ 'Left_hip_roll.stp',
/* time_stamp */ '2026-09-11T23:23:15+08:00',
/* author */ (''),
/* organization */ (''),
/* preprocessor_version */ 'ST-DEVELOPER v20',
/* originating_system */ 'SIEMENS PLM Software NX2406.1700',
/* authorisation */ '');

FILE_SCHEMA (('AP203_CONFIGURATION_CONTROLLED_3D_DESIGN_OF_MECHANICAL_PARTS_AND_ASSEMBLIES_MIM_LF { 1 0 10303 403 2 1 2}'));
ENDSEC;

DATA;
#10=PROPERTY_DEFINITION_REPRESENTATION(#14,#12);
#11=PROPERTY_DEFINITION_REPRESENTATION(#15,#13);
#12=REPRESENTATION('',(#16),#1069);
#13=REPRESENTATION('',(#17),#1069);
#14=PROPERTY_DEFINITION('pmi validation property','',#73);
#15=PROPERTY_DEFINITION('pmi validation property','',#73);
#16=VALUE_REPRESENTATION_ITEM('number of annotations',COUNT_MEASURE(0.));
#17=VALUE_REPRESENTATION_ITEM('number of views',COUNT_MEASURE(0.));
#18=SHAPE_REPRESENTATION_RELATIONSHIP('None',
'relationship between Full_wamoduck_asm_objects-None and Full_wamoduck
_asm_objects-None',#84,#19);
#19=ADVANCED_BREP_SHAPE_REPRESENTATION('Full_wamoduck_asm_objects-None',
(#94),#1069);
#20=APPLIED_APPROVAL_ASSIGNMENT(#32,(#74));
#21=APPLIED_APPROVAL_ASSIGNMENT(#33,(#76));
#22=APPLIED_APPROVAL_ASSIGNMENT(#34,(#46));
#23=APPROVAL_PERSON_ORGANIZATION(#38,#32,#26);
#24=APPROVAL_PERSON_ORGANIZATION(#39,#33,#27);
#25=APPROVAL_PERSON_ORGANIZATION(#40,#34,#28);
#26=APPROVAL_ROLE('approver');
#27=APPROVAL_ROLE('approver');
#28=APPROVAL_ROLE('approver');
#29=APPROVAL_DATE_TIME(#54,#32);
#30=APPROVAL_DATE_TIME(#55,#33);
#31=APPROVAL_DATE_TIME(#56,#34);
#32=APPROVAL(#35,' ');
#33=APPROVAL(#36,' ');
#34=APPROVAL(#37,' ');
#35=APPROVAL_STATUS('not_yet_approved');
#36=APPROVAL_STATUS('not_yet_approved');
#37=APPROVAL_STATUS('not_yet_approved');
#38=PERSON_AND_ORGANIZATION(#44,#41);
#39=PERSON_AND_ORGANIZATION(#44,#42);
#40=PERSON_AND_ORGANIZATION(#44,#43);
#41=ORGANIZATION(' ',' ',' ');
#42=ORGANIZATION(' ',' ',' ');
#43=ORGANIZATION(' ',' ',' ');
#44=PERSON(' ',' ',' ',(' '),$,$);
#45=APPLIED_SECURITY_CLASSIFICATION_ASSIGNMENT(#46,(#76));
#46=SECURITY_CLASSIFICATION(' ',' ',#47);
#47=SECURITY_CLASSIFICATION_LEVEL('confidential');
#48=APPLIED_DATE_AND_TIME_ASSIGNMENT(#52,#50,(#74));
#49=APPLIED_DATE_AND_TIME_ASSIGNMENT(#53,#51,(#46));
#50=DATE_TIME_ROLE('creation_date');
#51=DATE_TIME_ROLE('classification_date');
#52=DATE_AND_TIME(#67,#57);
#53=DATE_AND_TIME(#68,#58);
#54=DATE_AND_TIME(#69,#59);
#55=DATE_AND_TIME(#70,#60);
#56=DATE_AND_TIME(#71,#61);
#57=LOCAL_TIME(0,0,0.,#62);
#58=LOCAL_TIME(0,0,0.,#63);
#59=LOCAL_TIME(0,0,0.,#64);
#60=LOCAL_TIME(0,0,0.,#65);
#61=LOCAL_TIME(0,0,0.,#66);
#62=COORDINATED_UNIVERSAL_TIME_OFFSET(0,0,.BEHIND.);
#63=COORDINATED_UNIVERSAL_TIME_OFFSET(0,0,.BEHIND.);
#64=COORDINATED_UNIVERSAL_TIME_OFFSET(0,0,.BEHIND.);
#65=COORDINATED_UNIVERSAL_TIME_OFFSET(0,0,.BEHIND.);
#66=COORDINATED_UNIVERSAL_TIME_OFFSET(0,0,.BEHIND.);
#67=CALENDAR_DATE(0,1,1);
#68=CALENDAR_DATE(0,1,1);
#69=CALENDAR_DATE(0,1,1);
#70=CALENDAR_DATE(0,1,1);
#71=CALENDAR_DATE(0,1,1);
#72=SHAPE_DEFINITION_REPRESENTATION(#73,#84);
#73=PRODUCT_DEFINITION_SHAPE('','',#74);
#74=PRODUCT_DEFINITION(' ','',#76,#75);
#75=PRODUCT_DEFINITION_CONTEXT('part definition',#83,'design');
#76=PRODUCT_DEFINITION_FORMATION_WITH_SPECIFIED_SOURCE(' ',' ',#78,
 .NOT_KNOWN.);
#77=PRODUCT_RELATED_PRODUCT_CATEGORY('detail','',(#78));
#78=PRODUCT('Full_wamoduck_asm_objects','Full_wamoduck_asm_objects',' ',
(#81));
#79=PRODUCT_CATEGORY('part',' ');
#80=PRODUCT_CATEGORY(' ','');
#81=PRODUCT_CONTEXT(' ',#83,'mechanical');
#82=APPLICATION_PROTOCOL_DEFINITION('international standard',
'config_control_design',2010,#83);
#83=APPLICATION_CONTEXT(
'configuration controlled 3D designs of mechanical parts and assemblie
s');
#84=SHAPE_REPRESENTATION('Full_wamoduck_asm_objects-None',(#630),#1069);
#85=PRESENTATION_LAYER_ASSIGNMENT('1','Layer 1',(#94));
#86=STYLED_ITEM('',(#87),#94);
#87=PRESENTATION_STYLE_ASSIGNMENT((#88));
#88=SURFACE_STYLE_USAGE(.BOTH.,#89);
#89=SURFACE_SIDE_STYLE('',(#90));
#90=SURFACE_STYLE_FILL_AREA(#91);
#91=FILL_AREA_STYLE('',(#92));
#92=FILL_AREA_STYLE_COLOUR('',#93);
#93=COLOUR_RGB('medium gray',0.490196078431373,0.490196078431373,0.490196078431373);
#94=MANIFOLD_SOLID_BREP('',#95);
#95=CLOSED_SHELL('',(#176,#177,#178,#179,#180,#181,#182,#183,#184,#185,
#186,#187,#188,#189,#190,#191,#192,#193,#194,#195,#196,#197,#198,#199,#200,
#201,#202,#203,#204,#205,#206,#207,#208,#209,#210));
#96=TOROIDAL_SURFACE('',#698,9.,2.);
#97=TOROIDAL_SURFACE('',#702,13.4999999999947,2.);
#98=TOROIDAL_SURFACE('',#706,9.,2.);
#99=CONICAL_SURFACE('',#653,1.65,45.);
#100=CONICAL_SURFACE('',#654,1.65,45.);
#101=CONICAL_SURFACE('',#655,1.65,45.);
#102=CONICAL_SURFACE('',#688,1.65,45.);
#103=CONICAL_SURFACE('',#689,1.65,45.);
#104=CONICAL_SURFACE('',#690,1.65,45.);
#105=B_SPLINE_CURVE_WITH_KNOTS('',3,(#937,#938,#939,#940,#941,#942,#943),
 .UNSPECIFIED.,.F.,.F.,(4,3,4),(0.,0.828515066895466,1.),.UNSPECIFIED.);
#106=B_SPLINE_CURVE_WITH_KNOTS('',3,(#945,#946,#947,#948,#949,#950,#951),
 .UNSPECIFIED.,.F.,.F.,(4,3,4),(0.,0.964878713365354,1.),.UNSPECIFIED.);
#107=B_SPLINE_CURVE_WITH_KNOTS('',3,(#953,#954,#955,#956,#957,#958,#959,
#960,#961,#962),.UNSPECIFIED.,.F.,.F.,(4,3,3,4),(0.,0.413852322783808,0.911193478706447,
1.),.UNSPECIFIED.);
#108=B_SPLINE_CURVE_WITH_KNOTS('',3,(#1002,#1003,#1004,#1005,#1006,#1007),
 .UNSPECIFIED.,.F.,.F.,(4,2,4),(0.,0.5,1.),.UNSPECIFIED.);
#109=B_SPLINE_CURVE_WITH_KNOTS('',3,(#1008,#1009,#1010,#1011,#1012,#1013),
 .UNSPECIFIED.,.F.,.F.,(4,2,4),(0.,0.5,1.),.UNSPECIFIED.);
#110=CYLINDRICAL_SURFACE('',#635,15.4999999999947);
#111=CYLINDRICAL_SURFACE('',#648,1.65);
#112=CYLINDRICAL_SURFACE('',#650,1.65);
#113=CYLINDRICAL_SURFACE('',#652,1.65);
#114=CYLINDRICAL_SURFACE('',#657,13.6);
#115=CYLINDRICAL_SURFACE('',#669,15.4999999999974);
#116=CYLINDRICAL_SURFACE('',#676,13.6);
#117=CYLINDRICAL_SURFACE('',#683,1.65);
#118=CYLINDRICAL_SURFACE('',#685,1.65);
#119=CYLINDRICAL_SURFACE('',#687,1.65);
#120=CYLINDRICAL_SURFACE('',#691,5.);
#121=CYLINDRICAL_SURFACE('',#694,11.);
#122=CYLINDRICAL_SURFACE('',#696,2.);
#123=CYLINDRICAL_SURFACE('',#700,2.);
#124=CYLINDRICAL_SURFACE('',#704,2.);
#125=CYLINDRICAL_SURFACE('',#707,2.);
#126=FACE_BOUND('',#235,.T.);
#127=FACE_BOUND('',#236,.T.);
#128=FACE_BOUND('',#237,.T.);
#129=FACE_BOUND('',#238,.T.);
#130=FACE_BOUND('',#239,.T.);
#131=FACE_BOUND('',#240,.T.);
#132=FACE_BOUND('',#241,.T.);
#133=FACE_BOUND('',#242,.T.);
#134=FACE_BOUND('',#243,.T.);
#135=FACE_BOUND('',#244,.T.);
#136=FACE_BOUND('',#245,.T.);
#137=FACE_BOUND('',#246,.T.);
#138=FACE_BOUND('',#247,.T.);
#139=FACE_BOUND('',#248,.T.);
#140=FACE_BOUND('',#249,.T.);
#141=FACE_BOUND('',#250,.T.);
#142=FACE_BOUND('',#251,.T.);
#143=FACE_BOUND('',#252,.T.);
#144=FACE_BOUND('',#253,.T.);
#145=FACE_BOUND('',#254,.T.);
#146=FACE_BOUND('',#255,.T.);
#147=FACE_BOUND('',#256,.T.);
#148=FACE_BOUND('',#257,.T.);
#149=FACE_BOUND('',#258,.T.);
#150=FACE_BOUND('',#262,.T.);
#151=FACE_BOUND('',#263,.T.);
#152=FACE_BOUND('',#264,.T.);
#153=FACE_BOUND('',#265,.T.);
#154=FACE_BOUND('',#266,.T.);
#155=FACE_BOUND('',#267,.T.);
#156=FACE_BOUND('',#268,.T.);
#157=FACE_BOUND('',#269,.T.);
#158=FACE_BOUND('',#270,.T.);
#159=FACE_BOUND('',#271,.T.);
#160=FACE_BOUND('',#272,.T.);
#161=FACE_BOUND('',#273,.T.);
#162=FACE_BOUND('',#274,.T.);
#163=FACE_BOUND('',#275,.T.);
#164=FACE_BOUND('',#276,.T.);
#165=FACE_BOUND('',#277,.T.);
#166=FACE_BOUND('',#278,.T.);
#167=FACE_BOUND('',#279,.T.);
#168=FACE_BOUND('',#280,.T.);
#169=FACE_BOUND('',#281,.T.);
#170=FACE_BOUND('',#282,.T.);
#171=FACE_BOUND('',#283,.T.);
#172=FACE_BOUND('',#284,.T.);
#173=FACE_BOUND('',#285,.T.);
#174=FACE_BOUND('',#286,.T.);
#175=FACE_BOUND('',#287,.T.);
#176=ADVANCED_FACE('',(#221),#211,.T.);
#177=ADVANCED_FACE('',(#126,#127),#110,.T.);
#178=ADVANCED_FACE('',(#128,#129,#130,#131),#212,.T.);
#179=ADVANCED_FACE('',(#132,#133),#213,.F.);
#180=ADVANCED_FACE('',(#134,#135),#111,.F.);
#181=ADVANCED_FACE('',(#136,#137),#112,.F.);
#182=ADVANCED_FACE('',(#138,#139),#113,.F.);
#183=ADVANCED_FACE('',(#140,#141),#99,.F.);
#184=ADVANCED_FACE('',(#142,#143),#100,.F.);
#185=ADVANCED_FACE('',(#144,#145),#101,.F.);
#186=ADVANCED_FACE('',(#146,#147),#114,.F.);
#187=ADVANCED_FACE('',(#148,#149),#214,.T.);
#188=ADVANCED_FACE('',(#222),#215,.T.);
#189=ADVANCED_FACE('',(#223),#216,.T.);
#190=ADVANCED_FACE('',(#224),#217,.T.);
#191=ADVANCED_FACE('',(#150,#151),#115,.T.);
#192=ADVANCED_FACE('',(#152,#153,#154,#155),#218,.F.);
#193=ADVANCED_FACE('',(#156,#157),#116,.F.);
#194=ADVANCED_FACE('',(#158,#159),#219,.F.);
#195=ADVANCED_FACE('',(#160,#161,#162,#163),#220,.F.);
#196=ADVANCED_FACE('',(#164,#165),#117,.F.);
#197=ADVANCED_FACE('',(#166,#167),#118,.F.);
#198=ADVANCED_FACE('',(#168,#169),#119,.F.);
#199=ADVANCED_FACE('',(#170,#171),#102,.F.);
#200=ADVANCED_FACE('',(#172,#173),#103,.F.);
#201=ADVANCED_FACE('',(#174,#175),#104,.F.);
#202=ADVANCED_FACE('',(#225),#120,.F.);
#203=ADVANCED_FACE('',(#226),#121,.T.);
#204=ADVANCED_FACE('',(#227),#122,.T.);
#205=ADVANCED_FACE('',(#228),#96,.T.);
#206=ADVANCED_FACE('',(#229),#123,.T.);
#207=ADVANCED_FACE('',(#230),#97,.T.);
#208=ADVANCED_FACE('',(#231),#124,.T.);
#209=ADVANCED_FACE('',(#232),#98,.T.);
#210=ADVANCED_FACE('',(#233),#125,.T.);
#211=PLANE('',#632);
#212=PLANE('',#640);
#213=PLANE('',#646);
#214=PLANE('',#658);
#215=PLANE('',#661);
#216=PLANE('',#663);
#217=PLANE('',#666);
#218=PLANE('',#673);
#219=PLANE('',#677);
#220=PLANE('',#681);
#221=FACE_OUTER_BOUND('',#234,.T.);
#222=FACE_OUTER_BOUND('',#259,.T.);
#223=FACE_OUTER_BOUND('',#260,.T.);
#224=FACE_OUTER_BOUND('',#261,.T.);
#225=FACE_OUTER_BOUND('',#288,.T.);
#226=FACE_OUTER_BOUND('',#289,.T.);
#227=FACE_OUTER_BOUND('',#290,.T.);
#228=FACE_OUTER_BOUND('',#291,.T.);
#229=FACE_OUTER_BOUND('',#292,.T.);
#230=FACE_OUTER_BOUND('',#293,.T.);
#231=FACE_OUTER_BOUND('',#294,.T.);
#232=FACE_OUTER_BOUND('',#295,.T.);
#233=FACE_OUTER_BOUND('',#296,.T.);
#234=EDGE_LOOP('',(#339,#340,#341,#342));
#235=EDGE_LOOP('',(#343));
#236=EDGE_LOOP('',(#344,#345,#346,#347));
#237=EDGE_LOOP('',(#348));
#238=EDGE_LOOP('',(#349));
#239=EDGE_LOOP('',(#350));
#240=EDGE_LOOP('',(#351));
#241=EDGE_LOOP('',(#352,#353,#354,#355,#356,#357,#358));
#242=EDGE_LOOP('',(#359));
#243=EDGE_LOOP('',(#360));
#244=EDGE_LOOP('',(#361));
#245=EDGE_LOOP('',(#362));
#246=EDGE_LOOP('',(#363));
#247=EDGE_LOOP('',(#364));
#248=EDGE_LOOP('',(#365));
#249=EDGE_LOOP('',(#366,#367,#368));
#250=EDGE_LOOP('',(#369));
#251=EDGE_LOOP('',(#370,#371));
#252=EDGE_LOOP('',(#372));
#253=EDGE_LOOP('',(#373));
#254=EDGE_LOOP('',(#374));
#255=EDGE_LOOP('',(#375));
#256=EDGE_LOOP('',(#376));
#257=EDGE_LOOP('',(#377));
#258=EDGE_LOOP('',(#378));
#259=EDGE_LOOP('',(#379,#380,#381,#382,#383,#384,#385,#386));
#260=EDGE_LOOP('',(#387,#388,#389,#390));
#261=EDGE_LOOP('',(#391,#392,#393,#394,#395,#396,#397,#398));
#262=EDGE_LOOP('',(#399,#400,#401,#402,#403,#404));
#263=EDGE_LOOP('',(#405));
#264=EDGE_LOOP('',(#406));
#265=EDGE_LOOP('',(#407));
#266=EDGE_LOOP('',(#408));
#267=EDGE_LOOP('',(#409,#410,#411,#412));
#268=EDGE_LOOP('',(#413));
#269=EDGE_LOOP('',(#414));
#270=EDGE_LOOP('',(#415));
#271=EDGE_LOOP('',(#416));
#272=EDGE_LOOP('',(#417));
#273=EDGE_LOOP('',(#418));
#274=EDGE_LOOP('',(#419));
#275=EDGE_LOOP('',(#420));
#276=EDGE_LOOP('',(#421));
#277=EDGE_LOOP('',(#422));
#278=EDGE_LOOP('',(#423));
#279=EDGE_LOOP('',(#424));
#280=EDGE_LOOP('',(#425));
#281=EDGE_LOOP('',(#426));
#282=EDGE_LOOP('',(#427));
#283=EDGE_LOOP('',(#428));
#284=EDGE_LOOP('',(#429));
#285=EDGE_LOOP('',(#430));
#286=EDGE_LOOP('',(#431));
#287=EDGE_LOOP('',(#432));
#288=EDGE_LOOP('',(#433,#434,#435,#436));
#289=EDGE_LOOP('',(#437,#438,#439,#440));
#290=EDGE_LOOP('',(#441,#442,#443,#444));
#291=EDGE_LOOP('',(#445,#446,#447,#448));
#292=EDGE_LOOP('',(#449,#450,#451,#452));
#293=EDGE_LOOP('',(#453,#454,#455,#456,#457,#458,#459));
#294=EDGE_LOOP('',(#460,#461,#462,#463,#464));
#295=EDGE_LOOP('',(#465,#466,#467,#468));
#296=EDGE_LOOP('',(#469,#470,#471,#472));
#297=CIRCLE('',#631,15.4999999999947);
#298=CIRCLE('',#633,15.4999999999947);
#299=CIRCLE('',#634,15.4999999999947);
#300=CIRCLE('',#636,1.65);
#301=CIRCLE('',#637,1.65);
#302=CIRCLE('',#638,1.65);
#303=CIRCLE('',#639,13.6);
#304=CIRCLE('',#641,3.65);
#305=CIRCLE('',#642,13.4999999999947);
#306=CIRCLE('',#643,3.65);
#307=CIRCLE('',#644,13.4999999999947);
#308=CIRCLE('',#645,3.65);
#309=CIRCLE('',#647,1.65);
#310=CIRCLE('',#649,1.65);
#311=CIRCLE('',#651,1.65);
#312=CIRCLE('',#656,13.6);
#313=CIRCLE('',#659,9.);
#314=CIRCLE('',#660,5.);
#315=CIRCLE('',#662,15.4999999999974);
#316=CIRCLE('',#664,9.);
#317=CIRCLE('',#665,5.);
#318=CIRCLE('',#667,15.4999999999974);
#319=CIRCLE('',#668,15.4999999999974);
#320=CIRCLE('',#670,3.65000000000001);
#321=CIRCLE('',#671,3.65000000000001);
#322=CIRCLE('',#672,3.65000000000001);
#323=CIRCLE('',#674,13.6);
#324=CIRCLE('',#675,13.6);
#325=CIRCLE('',#678,1.65);
#326=CIRCLE('',#679,1.65);
#327=CIRCLE('',#680,1.65);
#328=CIRCLE('',#682,1.65);
#329=CIRCLE('',#684,1.65);
#330=CIRCLE('',#686,1.65);
#331=CIRCLE('',#692,11.);
#332=CIRCLE('',#693,11.);
#333=CIRCLE('',#695,2.);
#334=CIRCLE('',#697,2.);
#335=CIRCLE('',#699,2.);
#336=CIRCLE('',#701,2.);
#337=CIRCLE('',#703,2.);
#338=CIRCLE('',#705,2.);
#339=ORIENTED_EDGE('',*,*,#523,.F.);
#340=ORIENTED_EDGE('',*,*,#524,.T.);
#341=ORIENTED_EDGE('',*,*,#525,.F.);
#342=ORIENTED_EDGE('',*,*,#526,.F.);
#343=ORIENTED_EDGE('',*,*,#527,.F.);
#344=ORIENTED_EDGE('',*,*,#528,.T.);
#345=ORIENTED_EDGE('',*,*,#529,.T.);
#346=ORIENTED_EDGE('',*,*,#530,.F.);
#347=ORIENTED_EDGE('',*,*,#526,.T.);
#348=ORIENTED_EDGE('',*,*,#531,.F.);
#349=ORIENTED_EDGE('',*,*,#532,.F.);
#350=ORIENTED_EDGE('',*,*,#533,.F.);
#351=ORIENTED_EDGE('',*,*,#534,.T.);
#352=ORIENTED_EDGE('',*,*,#535,.T.);
#353=ORIENTED_EDGE('',*,*,#536,.T.);
#354=ORIENTED_EDGE('',*,*,#537,.T.);
#355=ORIENTED_EDGE('',*,*,#538,.T.);
#356=ORIENTED_EDGE('',*,*,#539,.T.);
#357=ORIENTED_EDGE('',*,*,#540,.T.);
#358=ORIENTED_EDGE('',*,*,#541,.T.);
#359=ORIENTED_EDGE('',*,*,#542,.T.);
#360=ORIENTED_EDGE('',*,*,#543,.T.);
#361=ORIENTED_EDGE('',*,*,#531,.T.);
#362=ORIENTED_EDGE('',*,*,#544,.T.);
#363=ORIENTED_EDGE('',*,*,#532,.T.);
#364=ORIENTED_EDGE('',*,*,#545,.T.);
#365=ORIENTED_EDGE('',*,*,#533,.T.);
#366=ORIENTED_EDGE('',*,*,#546,.T.);
#367=ORIENTED_EDGE('',*,*,#547,.T.);
#368=ORIENTED_EDGE('',*,*,#535,.F.);
#369=ORIENTED_EDGE('',*,*,#544,.F.);
#370=ORIENTED_EDGE('',*,*,#540,.F.);
#371=ORIENTED_EDGE('',*,*,#548,.T.);
#372=ORIENTED_EDGE('',*,*,#543,.F.);
#373=ORIENTED_EDGE('',*,*,#542,.F.);
#374=ORIENTED_EDGE('',*,*,#545,.F.);
#375=ORIENTED_EDGE('',*,*,#549,.T.);
#376=ORIENTED_EDGE('',*,*,#534,.F.);
#377=ORIENTED_EDGE('',*,*,#527,.T.);
#378=ORIENTED_EDGE('',*,*,#549,.F.);
#379=ORIENTED_EDGE('',*,*,#550,.T.);
#380=ORIENTED_EDGE('',*,*,#551,.T.);
#381=ORIENTED_EDGE('',*,*,#552,.T.);
#382=ORIENTED_EDGE('',*,*,#553,.T.);
#383=ORIENTED_EDGE('',*,*,#528,.F.);
#384=ORIENTED_EDGE('',*,*,#525,.T.);
#385=ORIENTED_EDGE('',*,*,#554,.T.);
#386=ORIENTED_EDGE('',*,*,#555,.T.);
#387=ORIENTED_EDGE('',*,*,#556,.T.);
#388=ORIENTED_EDGE('',*,*,#557,.T.);
#389=ORIENTED_EDGE('',*,*,#558,.T.);
#390=ORIENTED_EDGE('',*,*,#559,.T.);
#391=ORIENTED_EDGE('',*,*,#530,.T.);
#392=ORIENTED_EDGE('',*,*,#560,.T.);
#393=ORIENTED_EDGE('',*,*,#561,.T.);
#394=ORIENTED_EDGE('',*,*,#562,.T.);
#395=ORIENTED_EDGE('',*,*,#563,.F.);
#396=ORIENTED_EDGE('',*,*,#564,.T.);
#397=ORIENTED_EDGE('',*,*,#565,.T.);
#398=ORIENTED_EDGE('',*,*,#523,.T.);
#399=ORIENTED_EDGE('',*,*,#563,.T.);
#400=ORIENTED_EDGE('',*,*,#566,.T.);
#401=ORIENTED_EDGE('',*,*,#558,.F.);
#402=ORIENTED_EDGE('',*,*,#567,.T.);
#403=ORIENTED_EDGE('',*,*,#550,.F.);
#404=ORIENTED_EDGE('',*,*,#568,.T.);
#405=ORIENTED_EDGE('',*,*,#569,.T.);
#406=ORIENTED_EDGE('',*,*,#570,.T.);
#407=ORIENTED_EDGE('',*,*,#571,.T.);
#408=ORIENTED_EDGE('',*,*,#572,.T.);
#409=ORIENTED_EDGE('',*,*,#555,.F.);
#410=ORIENTED_EDGE('',*,*,#573,.T.);
#411=ORIENTED_EDGE('',*,*,#564,.F.);
#412=ORIENTED_EDGE('',*,*,#568,.F.);
#413=ORIENTED_EDGE('',*,*,#574,.T.);
#414=ORIENTED_EDGE('',*,*,#575,.F.);
#415=ORIENTED_EDGE('',*,*,#569,.F.);
#416=ORIENTED_EDGE('',*,*,#574,.F.);
#417=ORIENTED_EDGE('',*,*,#576,.F.);
#418=ORIENTED_EDGE('',*,*,#577,.F.);
#419=ORIENTED_EDGE('',*,*,#578,.F.);
#420=ORIENTED_EDGE('',*,*,#575,.T.);
#421=ORIENTED_EDGE('',*,*,#579,.T.);
#422=ORIENTED_EDGE('',*,*,#578,.T.);
#423=ORIENTED_EDGE('',*,*,#580,.T.);
#424=ORIENTED_EDGE('',*,*,#577,.T.);
#425=ORIENTED_EDGE('',*,*,#581,.T.);
#426=ORIENTED_EDGE('',*,*,#576,.T.);
#427=ORIENTED_EDGE('',*,*,#570,.F.);
#428=ORIENTED_EDGE('',*,*,#581,.F.);
#429=ORIENTED_EDGE('',*,*,#571,.F.);
#430=ORIENTED_EDGE('',*,*,#580,.F.);
#431=ORIENTED_EDGE('',*,*,#572,.F.);
#432=ORIENTED_EDGE('',*,*,#579,.F.);
#433=ORIENTED_EDGE('',*,*,#565,.F.);
#434=ORIENTED_EDGE('',*,*,#573,.F.);
#435=ORIENTED_EDGE('',*,*,#554,.F.);
#436=ORIENTED_EDGE('',*,*,#524,.F.);
#437=ORIENTED_EDGE('',*,*,#537,.F.);
#438=ORIENTED_EDGE('',*,*,#582,.T.);
#439=ORIENTED_EDGE('',*,*,#556,.F.);
#440=ORIENTED_EDGE('',*,*,#583,.T.);
#441=ORIENTED_EDGE('',*,*,#566,.F.);
#442=ORIENTED_EDGE('',*,*,#562,.F.);
#443=ORIENTED_EDGE('',*,*,#584,.F.);
#444=ORIENTED_EDGE('',*,*,#559,.F.);
#445=ORIENTED_EDGE('',*,*,#584,.T.);
#446=ORIENTED_EDGE('',*,*,#561,.F.);
#447=ORIENTED_EDGE('',*,*,#585,.F.);
#448=ORIENTED_EDGE('',*,*,#583,.F.);
#449=ORIENTED_EDGE('',*,*,#585,.T.);
#450=ORIENTED_EDGE('',*,*,#560,.F.);
#451=ORIENTED_EDGE('',*,*,#586,.F.);
#452=ORIENTED_EDGE('',*,*,#538,.F.);
#453=ORIENTED_EDGE('',*,*,#586,.T.);
#454=ORIENTED_EDGE('',*,*,#529,.F.);
#455=ORIENTED_EDGE('',*,*,#587,.F.);
#456=ORIENTED_EDGE('',*,*,#546,.F.);
#457=ORIENTED_EDGE('',*,*,#541,.F.);
#458=ORIENTED_EDGE('',*,*,#548,.F.);
#459=ORIENTED_EDGE('',*,*,#539,.F.);
#460=ORIENTED_EDGE('',*,*,#587,.T.);
#461=ORIENTED_EDGE('',*,*,#553,.F.);
#462=ORIENTED_EDGE('',*,*,#588,.F.);
#463=ORIENTED_EDGE('',*,*,#536,.F.);
#464=ORIENTED_EDGE('',*,*,#547,.F.);
#465=ORIENTED_EDGE('',*,*,#588,.T.);
#466=ORIENTED_EDGE('',*,*,#552,.F.);
#467=ORIENTED_EDGE('',*,*,#589,.F.);
#468=ORIENTED_EDGE('',*,*,#582,.F.);
#469=ORIENTED_EDGE('',*,*,#567,.F.);
#470=ORIENTED_EDGE('',*,*,#557,.F.);
#471=ORIENTED_EDGE('',*,*,#589,.T.);
#472=ORIENTED_EDGE('',*,*,#551,.F.);
#473=VERTEX_POINT('',#886);
#474=VERTEX_POINT('',#887);
#475=VERTEX_POINT('',#889);
#476=VERTEX_POINT('',#891);
#477=VERTEX_POINT('',#895);
#478=VERTEX_POINT('',#897);
#479=VERTEX_POINT('',#899);
#480=VERTEX_POINT('',#903);
#481=VERTEX_POINT('',#905);
#482=VERTEX_POINT('',#907);
#483=VERTEX_POINT('',#909);
#484=VERTEX_POINT('',#912);
#485=VERTEX_POINT('',#913);
#486=VERTEX_POINT('',#915);
#487=VERTEX_POINT('',#917);
#488=VERTEX_POINT('',#919);
#489=VERTEX_POINT('',#921);
#490=VERTEX_POINT('',#923);
#491=VERTEX_POINT('',#926);
#492=VERTEX_POINT('',#929);
#493=VERTEX_POINT('',#932);
#494=VERTEX_POINT('',#935);
#495=VERTEX_POINT('',#944);
#496=VERTEX_POINT('',#966);
#497=VERTEX_POINT('',#970);
#498=VERTEX_POINT('',#971);
#499=VERTEX_POINT('',#973);
#500=VERTEX_POINT('',#975);
#501=VERTEX_POINT('',#978);
#502=VERTEX_POINT('',#982);
#503=VERTEX_POINT('',#983);
#504=VERTEX_POINT('',#985);
#505=VERTEX_POINT('',#987);
#506=VERTEX_POINT('',#991);
#507=VERTEX_POINT('',#993);
#508=VERTEX_POINT('',#995);
#509=VERTEX_POINT('',#997);
#510=VERTEX_POINT('',#999);
#511=VERTEX_POINT('',#1016);
#512=VERTEX_POINT('',#1019);
#513=VERTEX_POINT('',#1021);
#514=VERTEX_POINT('',#1023);
#515=VERTEX_POINT('',#1027);
#516=VERTEX_POINT('',#1029);
#517=VERTEX_POINT('',#1033);
#518=VERTEX_POINT('',#1035);
#519=VERTEX_POINT('',#1037);
#520=VERTEX_POINT('',#1040);
#521=VERTEX_POINT('',#1043);
#522=VERTEX_POINT('',#1046);
#523=EDGE_CURVE('',#473,#474,#590,.T.);
#524=EDGE_CURVE('',#473,#475,#591,.T.);
#525=EDGE_CURVE('',#476,#475,#592,.T.);
#526=EDGE_CURVE('',#474,#476,#297,.T.);
#527=EDGE_CURVE('',#477,#477,#298,.T.);
#528=EDGE_CURVE('',#476,#478,#593,.T.);
#529=EDGE_CURVE('',#478,#479,#299,.T.);
#530=EDGE_CURVE('',#474,#479,#594,.T.);
#531=EDGE_CURVE('',#480,#480,#300,.T.);
#532=EDGE_CURVE('',#481,#481,#301,.T.);
#533=EDGE_CURVE('',#482,#482,#302,.T.);
#534=EDGE_CURVE('',#483,#483,#303,.T.);
#535=EDGE_CURVE('',#484,#485,#304,.T.);
#536=EDGE_CURVE('',#485,#486,#595,.T.);
#537=EDGE_CURVE('',#486,#487,#596,.T.);
#538=EDGE_CURVE('',#487,#488,#597,.T.);
#539=EDGE_CURVE('',#488,#489,#305,.T.);
#540=EDGE_CURVE('',#489,#490,#306,.T.);
#541=EDGE_CURVE('',#490,#484,#307,.T.);
#542=EDGE_CURVE('',#491,#491,#308,.T.);
#543=EDGE_CURVE('',#492,#492,#309,.T.);
#544=EDGE_CURVE('',#493,#493,#310,.T.);
#545=EDGE_CURVE('',#494,#494,#311,.T.);
#546=EDGE_CURVE('',#484,#495,#105,.T.);
#547=EDGE_CURVE('',#495,#485,#106,.T.);
#548=EDGE_CURVE('',#489,#490,#107,.T.);
#549=EDGE_CURVE('',#496,#496,#312,.T.);
#550=EDGE_CURVE('',#497,#498,#598,.T.);
#551=EDGE_CURVE('',#498,#499,#599,.T.);
#552=EDGE_CURVE('',#499,#500,#313,.T.);
#553=EDGE_CURVE('',#500,#478,#600,.T.);
#554=EDGE_CURVE('',#475,#501,#314,.T.);
#555=EDGE_CURVE('',#501,#497,#601,.T.);
#556=EDGE_CURVE('',#502,#503,#602,.T.);
#557=EDGE_CURVE('',#503,#504,#603,.T.);
#558=EDGE_CURVE('',#504,#505,#315,.T.);
#559=EDGE_CURVE('',#505,#502,#604,.T.);
#560=EDGE_CURVE('',#479,#506,#605,.T.);
#561=EDGE_CURVE('',#506,#507,#316,.T.);
#562=EDGE_CURVE('',#507,#508,#606,.T.);
#563=EDGE_CURVE('',#509,#508,#607,.T.);
#564=EDGE_CURVE('',#509,#510,#608,.T.);
#565=EDGE_CURVE('',#510,#473,#317,.T.);
#566=EDGE_CURVE('',#508,#505,#108,.T.);
#567=EDGE_CURVE('',#504,#498,#109,.T.);
#568=EDGE_CURVE('',#497,#509,#318,.T.);
#569=EDGE_CURVE('',#511,#511,#319,.T.);
#570=EDGE_CURVE('',#512,#512,#320,.T.);
#571=EDGE_CURVE('',#513,#513,#321,.T.);
#572=EDGE_CURVE('',#514,#514,#322,.T.);
#573=EDGE_CURVE('',#501,#510,#609,.T.);
#574=EDGE_CURVE('',#515,#515,#323,.T.);
#575=EDGE_CURVE('',#516,#516,#324,.T.);
#576=EDGE_CURVE('',#517,#517,#325,.T.);
#577=EDGE_CURVE('',#518,#518,#326,.T.);
#578=EDGE_CURVE('',#519,#519,#327,.T.);
#579=EDGE_CURVE('',#520,#520,#328,.T.);
#580=EDGE_CURVE('',#521,#521,#329,.T.);
#581=EDGE_CURVE('',#522,#522,#330,.T.);
#582=EDGE_CURVE('',#486,#503,#331,.T.);
#583=EDGE_CURVE('',#502,#487,#332,.T.);
#584=EDGE_CURVE('',#502,#507,#333,.T.);
#585=EDGE_CURVE('',#487,#506,#334,.T.);
#586=EDGE_CURVE('',#488,#479,#335,.T.);
#587=EDGE_CURVE('',#495,#478,#336,.T.);
#588=EDGE_CURVE('',#486,#500,#337,.T.);
#589=EDGE_CURVE('',#503,#499,#338,.T.);
#590=LINE('',#885,#610);
#591=LINE('',#888,#611);
#592=LINE('',#890,#612);
#593=LINE('',#896,#613);
#594=LINE('',#900,#614);
#595=LINE('',#914,#615);
#596=LINE('',#916,#616);
#597=LINE('',#918,#617);
#598=LINE('',#969,#618);
#599=LINE('',#972,#619);
#600=LINE('',#976,#620);
#601=LINE('',#979,#621);
#602=LINE('',#981,#622);
#603=LINE('',#984,#623);
#604=LINE('',#988,#624);
#605=LINE('',#990,#625);
#606=LINE('',#994,#626);
#607=LINE('',#996,#627);
#608=LINE('',#998,#628);
#609=LINE('',#1024,#629);
#610=VECTOR('',#710,1.);
#611=VECTOR('',#711,1.);
#612=VECTOR('',#712,1.);
#613=VECTOR('',#719,1.);
#614=VECTOR('',#722,1.);
#615=VECTOR('',#737,1.);
#616=VECTOR('',#738,1.);
#617=VECTOR('',#739,1.);
#618=VECTOR('',#774,1.);
#619=VECTOR('',#775,1.);
#620=VECTOR('',#778,1.);
#621=VECTOR('',#781,1.);
#622=VECTOR('',#784,1.);
#623=VECTOR('',#785,1.);
#624=VECTOR('',#788,1.);
#625=VECTOR('',#791,1.);
#626=VECTOR('',#794,1.);
#627=VECTOR('',#795,1.);
#628=VECTOR('',#796,1.);
#629=VECTOR('',#813,1.);
#630=AXIS2_PLACEMENT_3D('',#884,#708,#709);
#631=AXIS2_PLACEMENT_3D('',#892,#713,#714);
#632=AXIS2_PLACEMENT_3D('',#893,#715,#716);
#633=AXIS2_PLACEMENT_3D('',#894,#717,#718);
#634=AXIS2_PLACEMENT_3D('',#898,#720,#721);
#635=AXIS2_PLACEMENT_3D('',#901,#723,#724);
#636=AXIS2_PLACEMENT_3D('',#902,#725,#726);
#637=AXIS2_PLACEMENT_3D('',#904,#727,#728);
#638=AXIS2_PLACEMENT_3D('',#906,#729,#730);
#639=AXIS2_PLACEMENT_3D('',#908,#731,#732);
#640=AXIS2_PLACEMENT_3D('',#910,#733,#734);
#641=AXIS2_PLACEMENT_3D('',#911,#735,#736);
#642=AXIS2_PLACEMENT_3D('',#920,#740,#741);
#643=AXIS2_PLACEMENT_3D('',#922,#742,#743);
#644=AXIS2_PLACEMENT_3D('',#924,#744,#745);
#645=AXIS2_PLACEMENT_3D('',#925,#746,#747);
#646=AXIS2_PLACEMENT_3D('',#927,#748,#749);
#647=AXIS2_PLACEMENT_3D('',#928,#750,#751);
#648=AXIS2_PLACEMENT_3D('',#930,#752,#753);
#649=AXIS2_PLACEMENT_3D('',#931,#754,#755);
#650=AXIS2_PLACEMENT_3D('',#933,#756,#757);
#651=AXIS2_PLACEMENT_3D('',#934,#758,#759);
#652=AXIS2_PLACEMENT_3D('',#936,#760,#761);
#653=AXIS2_PLACEMENT_3D('',#952,#762,#763);
#654=AXIS2_PLACEMENT_3D('',#963,#764,#765);
#655=AXIS2_PLACEMENT_3D('',#964,#766,#767);
#656=AXIS2_PLACEMENT_3D('',#965,#768,#769);
#657=AXIS2_PLACEMENT_3D('',#967,#770,#771);
#658=AXIS2_PLACEMENT_3D('',#968,#772,#773);
#659=AXIS2_PLACEMENT_3D('',#974,#776,#777);
#660=AXIS2_PLACEMENT_3D('',#977,#779,#780);
#661=AXIS2_PLACEMENT_3D('',#980,#782,#783);
#662=AXIS2_PLACEMENT_3D('',#986,#786,#787);
#663=AXIS2_PLACEMENT_3D('',#989,#789,#790);
#664=AXIS2_PLACEMENT_3D('',#992,#792,#793);
#665=AXIS2_PLACEMENT_3D('',#1000,#797,#798);
#666=AXIS2_PLACEMENT_3D('',#1001,#799,#800);
#667=AXIS2_PLACEMENT_3D('',#1014,#801,#802);
#668=AXIS2_PLACEMENT_3D('',#1015,#803,#804);
#669=AXIS2_PLACEMENT_3D('',#1017,#805,#806);
#670=AXIS2_PLACEMENT_3D('',#1018,#807,#808);
#671=AXIS2_PLACEMENT_3D('',#1020,#809,#810);
#672=AXIS2_PLACEMENT_3D('',#1022,#811,#812);
#673=AXIS2_PLACEMENT_3D('',#1025,#814,#815);
#674=AXIS2_PLACEMENT_3D('',#1026,#816,#817);
#675=AXIS2_PLACEMENT_3D('',#1028,#818,#819);
#676=AXIS2_PLACEMENT_3D('',#1030,#820,#821);
#677=AXIS2_PLACEMENT_3D('',#1031,#822,#823);
#678=AXIS2_PLACEMENT_3D('',#1032,#824,#825);
#679=AXIS2_PLACEMENT_3D('',#1034,#826,#827);
#680=AXIS2_PLACEMENT_3D('',#1036,#828,#829);
#681=AXIS2_PLACEMENT_3D('',#1038,#830,#831);
#682=AXIS2_PLACEMENT_3D('',#1039,#832,#833);
#683=AXIS2_PLACEMENT_3D('',#1041,#834,#835);
#684=AXIS2_PLACEMENT_3D('',#1042,#836,#837);
#685=AXIS2_PLACEMENT_3D('',#1044,#838,#839);
#686=AXIS2_PLACEMENT_3D('',#1045,#840,#841);
#687=AXIS2_PLACEMENT_3D('',#1047,#842,#843);
#688=AXIS2_PLACEMENT_3D('',#1048,#844,#845);
#689=AXIS2_PLACEMENT_3D('',#1049,#846,#847);
#690=AXIS2_PLACEMENT_3D('',#1050,#848,#849);
#691=AXIS2_PLACEMENT_3D('',#1051,#850,#851);
#692=AXIS2_PLACEMENT_3D('',#1052,#852,#853);
#693=AXIS2_PLACEMENT_3D('',#1053,#854,#855);
#694=AXIS2_PLACEMENT_3D('',#1054,#856,#857);
#695=AXIS2_PLACEMENT_3D('',#1055,#858,#859);
#696=AXIS2_PLACEMENT_3D('',#1056,#860,#861);
#697=AXIS2_PLACEMENT_3D('',#1057,#862,#863);
#698=AXIS2_PLACEMENT_3D('',#1058,#864,#865);
#699=AXIS2_PLACEMENT_3D('',#1059,#866,#867);
#700=AXIS2_PLACEMENT_3D('',#1060,#868,#869);
#701=AXIS2_PLACEMENT_3D('',#1061,#870,#871);
#702=AXIS2_PLACEMENT_3D('',#1062,#872,#873);
#703=AXIS2_PLACEMENT_3D('',#1063,#874,#875);
#704=AXIS2_PLACEMENT_3D('',#1064,#876,#877);
#705=AXIS2_PLACEMENT_3D('',#1065,#878,#879);
#706=AXIS2_PLACEMENT_3D('',#1066,#880,#881);
#707=AXIS2_PLACEMENT_3D('',#1067,#882,#883);
#708=DIRECTION('',(0.,0.,1.));
#709=DIRECTION('',(1.,0.,0.));
#710=DIRECTION('',(0.,-1.,2.32948581059742E-15));
#711=DIRECTION('',(0.,-1.11917643611426E-15,-1.));
#712=DIRECTION('',(0.,1.,-2.37904933848248E-15));
#713=DIRECTION('',(-1.,0.,0.));
#714=DIRECTION('',(0.,1.,0.));
#715=DIRECTION('',(-1.,0.,0.));
#716=DIRECTION('',(0.,1.,0.));
#717=DIRECTION('',(-1.,0.,0.));
#718=DIRECTION('',(0.,1.,0.));
#719=DIRECTION('',(1.,0.,0.));
#720=DIRECTION('',(-1.,0.,0.));
#721=DIRECTION('',(0.,1.,0.));
#722=DIRECTION('',(1.,0.,0.));
#723=DIRECTION('',(1.,0.,0.));
#724=DIRECTION('',(0.,-1.,0.));
#725=DIRECTION('',(-1.,0.,0.));
#726=DIRECTION('',(0.,-0.5,-0.86602540378444));
#727=DIRECTION('',(-1.,0.,0.));
#728=DIRECTION('',(0.,0.999999999999999,0.));
#729=DIRECTION('',(-1.,0.,0.));
#730=DIRECTION('',(0.,-0.500000000000004,0.866025403784436));
#731=DIRECTION('',(-1.,0.,0.));
#732=DIRECTION('',(0.,1.,0.));
#733=DIRECTION('',(-1.,0.,0.));
#734=DIRECTION('',(0.,1.,0.));
#735=DIRECTION('',(-1.,0.,0.));
#736=DIRECTION('',(0.,1.,0.));
#737=DIRECTION('',(0.,1.,-2.37904933848248E-15));
#738=DIRECTION('',(0.,1.11917643611426E-15,1.));
#739=DIRECTION('',(0.,-1.,2.32948581059742E-15));
#740=DIRECTION('',(1.,0.,0.));
#741=DIRECTION('',(0.,1.,0.));
#742=DIRECTION('',(-1.,0.,0.));
#743=DIRECTION('',(0.,1.,0.));
#744=DIRECTION('',(1.,0.,0.));
#745=DIRECTION('',(0.,1.,0.));
#746=DIRECTION('',(-1.,0.,0.));
#747=DIRECTION('',(0.,1.,0.));
#748=DIRECTION('',(-1.,0.,0.));
#749=DIRECTION('',(0.,1.,0.));
#750=DIRECTION('',(1.,0.,0.));
#751=DIRECTION('',(0.,0.999999999999999,0.));
#752=DIRECTION('',(-1.,0.,0.));
#753=DIRECTION('',(0.,0.999999999999999,0.));
#754=DIRECTION('',(1.,0.,0.));
#755=DIRECTION('',(0.,0.999999999999999,0.));
#756=DIRECTION('',(-1.,0.,0.));
#757=DIRECTION('',(0.,0.999999999999999,0.));
#758=DIRECTION('',(1.,0.,0.));
#759=DIRECTION('',(0.,0.999999999999999,0.));
#760=DIRECTION('',(-1.,0.,0.));
#761=DIRECTION('',(0.,0.999999999999999,0.));
#762=DIRECTION('',(1.,0.,0.));
#763=DIRECTION('',(-7.62020994788395E-17,-1.,0.));
#764=DIRECTION('',(1.,0.,0.));
#765=DIRECTION('',(-7.62020994788395E-17,-1.,0.));
#766=DIRECTION('',(1.,0.,0.));
#767=DIRECTION('',(-7.62020994788395E-17,-1.,0.));
#768=DIRECTION('',(-1.,0.,0.));
#769=DIRECTION('',(0.,1.,0.));
#770=DIRECTION('',(1.,0.,0.));
#771=DIRECTION('',(0.,-1.,0.));
#772=DIRECTION('',(-1.,0.,0.));
#773=DIRECTION('',(0.,1.,0.));
#774=DIRECTION('',(0.,1.,-1.11917643611426E-15));
#775=DIRECTION('',(1.,0.,0.));
#776=DIRECTION('',(0.,-2.37904933848248E-15,-1.));
#777=DIRECTION('',(0.,-1.,2.31296463463574E-15));
#778=DIRECTION('',(0.,-1.,2.37904933848248E-15));
#779=DIRECTION('',(0.,2.37904933848248E-15,1.));
#780=DIRECTION('',(0.,-0.999999999999999,2.77555756156289E-15));
#781=DIRECTION('',(-1.,0.,-3.50509195488464E-15));
#782=DIRECTION('',(0.,-2.37904933848248E-15,-1.));
#783=DIRECTION('',(0.,-1.,2.38004060904018E-15));
#784=DIRECTION('',(0.,-1.11917643611426E-15,-1.));
#785=DIRECTION('',(-1.,0.,0.));
#786=DIRECTION('',(0.,-1.,1.11917643611426E-15));
#787=DIRECTION('',(0.,-8.95341148891405E-16,-1.));
#788=DIRECTION('',(1.,0.,0.));
#789=DIRECTION('',(0.,1.,-1.11917643611426E-15));
#790=DIRECTION('',(0.,-1.11716191852906E-15,-1.));
#791=DIRECTION('',(0.,1.,-2.32948581059742E-15));
#792=DIRECTION('',(0.,2.32948581059742E-15,1.));
#793=DIRECTION('',(0.,1.,-2.31296463463574E-15));
#794=DIRECTION('',(-1.,0.,0.));
#795=DIRECTION('',(0.,1.,-1.11917643611426E-15));
#796=DIRECTION('',(1.,0.,3.50509195488464E-15));
#797=DIRECTION('',(0.,-2.32948581059742E-15,-1.));
#798=DIRECTION('',(0.,0.999999999999999,-2.42861286636753E-15));
#799=DIRECTION('',(0.,2.32948581059742E-15,1.));
#800=DIRECTION('',(0.,1.,-2.32973362823685E-15));
#801=DIRECTION('',(0.,1.,-1.11917643611426E-15));
#802=DIRECTION('',(-1.,0.,0.));
#803=DIRECTION('',(0.,-1.,1.11917643611426E-15));
#804=DIRECTION('',(1.,0.,-2.23835287222851E-16));
#805=DIRECTION('',(0.,1.,-1.11917643611426E-15));
#806=DIRECTION('',(0.,-1.34301172333711E-15,-1.));
#807=DIRECTION('',(0.,1.,-1.11917643611426E-15));
#808=DIRECTION('',(0.,-1.90106682298828E-15,-1.));
#809=DIRECTION('',(0.,1.,-1.11917643611426E-15));
#810=DIRECTION('',(0.,-1.90106682298828E-15,-1.));
#811=DIRECTION('',(0.,1.,-1.11917643611426E-15));
#812=DIRECTION('',(0.,-1.90106682298828E-15,-1.));
#813=DIRECTION('',(0.,1.11917643611426E-15,1.));
#814=DIRECTION('',(0.,1.,-1.11917643611426E-15));
#815=DIRECTION('',(0.,-1.11716191852906E-15,-1.));
#816=DIRECTION('',(0.,1.,0.));
#817=DIRECTION('',(6.12323399573672E-17,0.,-1.));
#818=DIRECTION('',(0.,1.,0.));
#819=DIRECTION('',(6.12323399573672E-17,0.,-1.));
#820=DIRECTION('',(0.,-1.,0.));
#821=DIRECTION('',(-1.,0.,0.));
#822=DIRECTION('',(0.,-1.,5.59588218057128E-16));
#823=DIRECTION('',(0.,5.55111512312578E-16,1.));
#824=DIRECTION('',(0.,1.,0.));
#825=DIRECTION('',(6.12323399573715E-17,0.,-0.999999999999999));
#826=DIRECTION('',(0.,1.,0.));
#827=DIRECTION('',(-0.866025403784439,0.,0.499999999999998));
#828=DIRECTION('',(0.,1.,0.));
#829=DIRECTION('',(0.866025403784437,0.,0.500000000000002));
#830=DIRECTION('',(0.,-1.,1.11917643611426E-15));
#831=DIRECTION('',(0.,1.12410081243297E-15,1.));
#832=DIRECTION('',(0.,-1.,0.));
#833=DIRECTION('',(1.,0.,0.));
#834=DIRECTION('',(0.,1.,0.));
#835=DIRECTION('',(1.,0.,0.));
#836=DIRECTION('',(0.,-1.,0.));
#837=DIRECTION('',(1.,0.,0.));
#838=DIRECTION('',(0.,1.,0.));
#839=DIRECTION('',(1.,0.,0.));
#840=DIRECTION('',(0.,-1.,0.));
#841=DIRECTION('',(1.,0.,0.));
#842=DIRECTION('',(0.,1.,0.));
#843=DIRECTION('',(1.,0.,0.));
#844=DIRECTION('',(0.,-1.,0.));
#845=DIRECTION('',(-1.,-4.15647815339124E-17,0.));
#846=DIRECTION('',(0.,-1.,0.));
#847=DIRECTION('',(-1.,5.54197087118832E-17,0.));
#848=DIRECTION('',(0.,-1.,0.));
#849=DIRECTION('',(-1.,5.54197087118832E-17,0.));
#850=DIRECTION('',(0.,-1.11917643611426E-15,-1.));
#851=DIRECTION('',(0.,-0.999999999999999,1.38777878078145E-15));
#852=DIRECTION('',(0.,2.37904933848248E-15,1.));
#853=DIRECTION('',(0.,-1.,2.52323414687536E-15));
#854=DIRECTION('',(0.,-2.32948581059742E-15,-1.));
#855=DIRECTION('',(0.,1.,-2.36553201269565E-15));
#856=DIRECTION('',(0.,-1.11917643611426E-15,-1.));
#857=DIRECTION('',(0.,-1.,1.26161707343768E-15));
#858=DIRECTION('',(1.,0.,0.));
#859=DIRECTION('',(0.,-1.,0.));
#860=DIRECTION('',(1.,0.,0.));
#861=DIRECTION('',(0.,-1.,0.));
#862=DIRECTION('',(0.,-1.,1.73472347597681E-15));
#863=DIRECTION('',(0.,0.,1.));
#864=DIRECTION('',(0.,2.32948581059742E-15,1.));
#865=DIRECTION('',(0.,1.,-2.36553201269565E-15));
#866=DIRECTION('',(0.,-1.,-1.96005385927236E-15));
#867=DIRECTION('',(0.,-1.73472347597681E-15,1.));
#868=DIRECTION('',(0.,1.,-2.32948581059742E-15));
#869=DIRECTION('',(0.,-1.73472347597681E-15,-1.));
#870=DIRECTION('',(0.,1.,5.39030285815812E-15));
#871=DIRECTION('',(0.,5.20417042793042E-15,-1.));
#872=DIRECTION('',(-1.,0.,0.));
#873=DIRECTION('',(0.,1.,0.));
#874=DIRECTION('',(0.,1.,-1.73472347597681E-15));
#875=DIRECTION('',(0.,0.,-1.));
#876=DIRECTION('',(0.,-1.,2.37904933848248E-15));
#877=DIRECTION('',(0.,1.73472347597681E-15,1.));
#878=DIRECTION('',(-1.,0.,0.));
#879=DIRECTION('',(0.,1.,0.));
#880=DIRECTION('',(0.,-2.37904933848248E-15,-1.));
#881=DIRECTION('',(0.,-1.,2.52323414687536E-15));
#882=DIRECTION('',(1.,0.,0.));
#883=DIRECTION('',(0.,-1.,0.));
#884=CARTESIAN_POINT('',(0.,0.,0.));
#885=CARTESIAN_POINT('',(23.1999999999997,61.0000000000001,-12.5));
#886=CARTESIAN_POINT('',(23.1999999999997,50.0000000000001,-12.5));
#887=CARTESIAN_POINT('',(23.1999999999997,26.,-12.5000000000053));
#888=CARTESIAN_POINT('',(23.1999999999997,50.0000000000001,-28.0000000000001));
#889=CARTESIAN_POINT('',(23.1999999999997,50.0000000000001,-43.4999999999948));
#890=CARTESIAN_POINT('',(23.1999999999997,26.,-43.4999999999947));
#891=CARTESIAN_POINT('',(23.1999999999997,26.0000000000002,-43.4999999999947));
#892=CARTESIAN_POINT('',(23.1999999999997,26.0000000000001,-28.));
#893=CARTESIAN_POINT('',(23.1999999999997,26.0000000000001,-28.));
#894=CARTESIAN_POINT('',(15.5999999999997,26.0000000000001,-28.));
#895=CARTESIAN_POINT('',(15.5999999999997,41.4999999999948,-28.));
#896=CARTESIAN_POINT('',(23.1999999999997,26.0000000000002,-43.4999999999947));
#897=CARTESIAN_POINT('',(27.1999999999997,26.0000000000002,-43.4999999999947));
#898=CARTESIAN_POINT('',(27.1999999999997,26.0000000000001,-28.));
#899=CARTESIAN_POINT('',(27.1999999999997,26.,-12.5000000000053));
#900=CARTESIAN_POINT('',(23.1999999999997,26.,-12.5000000000053));
#901=CARTESIAN_POINT('',(16.5999999999997,26.0000000000001,-28.));
#902=CARTESIAN_POINT('',(16.5999999999997,17.3397459621557,-23.));
#903=CARTESIAN_POINT('',(16.5999999999997,16.5147459621557,-24.4289419162444));
#904=CARTESIAN_POINT('',(16.5999999999997,26.0000000000001,-38.));
#905=CARTESIAN_POINT('',(16.5999999999997,27.6500000000001,-38.));
#906=CARTESIAN_POINT('',(16.5999999999997,34.6602540378445,-23.));
#907=CARTESIAN_POINT('',(16.5999999999997,33.8352540378445,-21.5710580837557));
#908=CARTESIAN_POINT('',(16.5999999999997,26.0000000000001,-28.));
#909=CARTESIAN_POINT('',(16.5999999999997,39.6000000000001,-28.));
#910=CARTESIAN_POINT('',(16.5999999999997,26.0000000000001,-28.));
#911=CARTESIAN_POINT('',(29.1999999999997,26.0000000000001,-38.));
#912=CARTESIAN_POINT('',(29.1999999999997,24.7979187384273,-41.4463749999929));
#913=CARTESIAN_POINT('',(29.1999999999997,27.0356157588784,-41.4999999999947));
#914=CARTESIAN_POINT('',(29.1999999999997,50.0000000000001,-41.4999999999948));
#915=CARTESIAN_POINT('',(29.1999999999997,50.0000000000001,-41.4999999999948));
#916=CARTESIAN_POINT('',(29.1999999999997,50.0000000000001,-12.5));
#917=CARTESIAN_POINT('',(29.1999999999997,50.0000000000001,-14.5));
#918=CARTESIAN_POINT('',(29.1999999999997,26.,-14.4999999999999));
#919=CARTESIAN_POINT('',(29.1999999999997,26.,-14.4999999999999));
#920=CARTESIAN_POINT('',(29.1999999999997,26.0000000000001,-28.));
#921=CARTESIAN_POINT('',(29.1999999999997,14.9561382919807,-20.2357795900683));
#922=CARTESIAN_POINT('',(29.1999999999997,17.3397459621557,-23.));
#923=CARTESIAN_POINT('',(29.1999999999997,13.7540570304079,-22.317845409939));
#924=CARTESIAN_POINT('',(29.1999999999997,26.0000000000001,-28.));
#925=CARTESIAN_POINT('',(29.1999999999997,34.6602540378445,-23.));
#926=CARTESIAN_POINT('',(29.1999999999997,38.3102540378445,-23.));
#927=CARTESIAN_POINT('',(29.1999999999997,26.0000000000001,-28.));
#928=CARTESIAN_POINT('',(27.1999999999997,17.3397459621557,-23.));
#929=CARTESIAN_POINT('',(27.1999999999997,18.9897459621557,-23.));
#930=CARTESIAN_POINT('',(141.34,17.3397459621557,-23.));
#931=CARTESIAN_POINT('',(27.1999999999997,26.0000000000001,-38.));
#932=CARTESIAN_POINT('',(27.1999999999997,27.6500000000001,-38.));
#933=CARTESIAN_POINT('',(141.34,26.0000000000001,-38.));
#934=CARTESIAN_POINT('',(27.1999999999997,34.6602540378445,-23.));
#935=CARTESIAN_POINT('',(27.1999999999997,36.3102540378445,-23.));
#936=CARTESIAN_POINT('',(141.34,34.6602540378445,-23.));
#937=CARTESIAN_POINT('',(29.1999999999997,24.7979187384273,-41.4463749999929));
#938=CARTESIAN_POINT('',(29.1999999999997,25.1159426126623,-41.5573004042079));
#939=CARTESIAN_POINT('',(29.1959887916965,25.4535154171064,-41.6205014489957));
#940=CARTESIAN_POINT('',(29.1950513638803,25.7898204092112,-41.6389866700695));
#941=CARTESIAN_POINT('',(29.194856298151,25.8598008145515,-41.6428331882417));
#942=CARTESIAN_POINT('',(29.1947546447661,25.9299136897514,-41.6447546447664));
#943=CARTESIAN_POINT('',(29.1947546447661,26.0000000000001,-41.6447546447664));
#944=CARTESIAN_POINT('',(29.1947546447661,26.0000000000001,-41.6447546447664));
#945=CARTESIAN_POINT('',(29.1947546447661,26.0000000000001,-41.6447546447664));
#946=CARTESIAN_POINT('',(29.1947546447661,26.3363367138977,-41.6447546447664));
#947=CARTESIAN_POINT('',(29.1995005286674,26.676403645485,-41.6020069620995));
#948=CARTESIAN_POINT('',(29.1999734040926,27.0000000000001,-41.5103142096664));
#949=CARTESIAN_POINT('',(29.1999907813561,27.011891544371,-41.5069446771644));
#950=CARTESIAN_POINT('',(29.1999999999997,27.0237639648073,-41.5035068299122));
#951=CARTESIAN_POINT('',(29.1999999999997,27.0356157588784,-41.4999999999947));
#952=CARTESIAN_POINT('',(27.1999999999997,26.0000000000001,-38.));
#953=CARTESIAN_POINT('',(29.1999999999997,14.9561382919807,-20.2357795900683));
#954=CARTESIAN_POINT('',(29.1999999999997,14.701062136888,-20.4557336420582));
#955=CARTESIAN_POINT('',(29.1959887916965,14.4775420243339,-20.7164797439397));
#956=CARTESIAN_POINT('',(29.1950513638803,14.2933808572371,-20.9984857999851));
#957=CARTESIAN_POINT('',(29.1939287865582,14.0728463838508,-21.3361903119736));
#958=CARTESIAN_POINT('',(29.1975147931588,13.9028222296947,-21.713690079427));
#959=CARTESIAN_POINT('',(29.1994204879573,13.8019736582862,-22.1042115071633));
#960=CARTESIAN_POINT('',(29.1997653088115,13.7837258829514,-22.1748733636205));
#961=CARTESIAN_POINT('',(29.1999999999997,13.7676965351636,-22.2461504863105));
#962=CARTESIAN_POINT('',(29.1999999999997,13.7540570304079,-22.317845409939));
#963=CARTESIAN_POINT('',(27.1999999999997,17.3397459621557,-23.));
#964=CARTESIAN_POINT('',(27.1999999999997,34.6602540378445,-23.));
#965=CARTESIAN_POINT('',(15.5999999999997,26.0000000000001,-28.));
#966=CARTESIAN_POINT('',(15.5999999999997,39.6000000000001,-28.));
#967=CARTESIAN_POINT('',(15.5999999999997,26.0000000000001,-28.));
#968=CARTESIAN_POINT('',(15.5999999999997,26.0000000000001,-28.));
#969=CARTESIAN_POINT('',(-2.04697370165263E-13,55.0000000000001,-43.4999999999949));
#970=CARTESIAN_POINT('',(-2.04697370165263E-13,55.0000000000001,-43.4999999999949));
#971=CARTESIAN_POINT('',(-2.04697370165263E-13,59.0000000000001,-43.4999999999949));
#972=CARTESIAN_POINT('',(23.1999999999997,59.0000000000001,-43.4999999999948));
#973=CARTESIAN_POINT('',(18.1999999999997,59.0000000000001,-43.4999999999948));
#974=CARTESIAN_POINT('',(18.1999999999997,50.0000000000001,-43.4999999999948));
#975=CARTESIAN_POINT('',(27.1999999999997,50.0000000000001,-43.4999999999948));
#976=CARTESIAN_POINT('',(27.1999999999997,26.0000000000002,-43.4999999999947));
#977=CARTESIAN_POINT('',(18.1999999999997,50.0000000000001,-43.4999999999948));
#978=CARTESIAN_POINT('',(18.1999999999997,55.0000000000001,-43.4999999999949));
#979=CARTESIAN_POINT('',(29.1999999999998,55.0000000000001,-43.4999999999948));
#980=CARTESIAN_POINT('',(23.1999999999997,26.,-43.4999999999947));
#981=CARTESIAN_POINT('',(18.1999999999997,61.0000000000001,-43.4999999999948));
#982=CARTESIAN_POINT('',(18.1999999999997,61.0000000000001,-14.5));
#983=CARTESIAN_POINT('',(18.1999999999997,61.0000000000001,-41.4999999999948));
#984=CARTESIAN_POINT('',(23.1999999999997,61.0000000000001,-41.4999999999948));
#985=CARTESIAN_POINT('',(7.61577310586758,61.0000000000001,-41.4999999999948));
#986=CARTESIAN_POINT('',(-2.53269627492614E-13,61.0000000000001,-28.));
#987=CARTESIAN_POINT('',(7.61577310585837,61.0000000000001,-14.5));
#988=CARTESIAN_POINT('',(23.1999999999997,61.0000000000001,-14.5));
#989=CARTESIAN_POINT('',(23.1999999999997,61.0000000000001,-43.4999999999948));
#990=CARTESIAN_POINT('',(27.1999999999997,50.0000000000001,-12.5));
#991=CARTESIAN_POINT('',(27.1999999999997,50.0000000000001,-12.5));
#992=CARTESIAN_POINT('',(18.1999999999997,50.0000000000001,-12.5));
#993=CARTESIAN_POINT('',(18.1999999999997,59.0000000000001,-12.5));
#994=CARTESIAN_POINT('',(23.1999999999997,59.0000000000001,-12.5));
#995=CARTESIAN_POINT('',(-3.12250225675825E-13,59.0000000000001,-12.5000000000001));
#996=CARTESIAN_POINT('',(-3.12250225675825E-13,55.0000000000001,-12.5000000000001));
#997=CARTESIAN_POINT('',(-3.12250225675825E-13,55.0000000000001,-12.5000000000001));
#998=CARTESIAN_POINT('',(-3.12250225675825E-13,55.0000000000001,-12.5000000000001));
#999=CARTESIAN_POINT('',(18.1999999999997,55.0000000000001,-12.5));
#1000=CARTESIAN_POINT('',(18.1999999999997,50.0000000000001,-12.5));
#1001=CARTESIAN_POINT('',(23.1999999999997,61.0000000000001,-12.5));
#1002=CARTESIAN_POINT('',(-2.53269627492614E-13,59.0000000000001,-12.5));
#1003=CARTESIAN_POINT('',(1.29208278139791,59.4641289683303,-12.5));
#1004=CARTESIAN_POINT('',(2.57920445736945,59.9291937345446,-12.6592832045462));
#1005=CARTESIAN_POINT('',(5.13432903963846,60.6879223918991,-13.3157038730502));
#1006=CARTESIAN_POINT('',(6.40280084263448,61.0000000000001,-13.8157243303397));
#1007=CARTESIAN_POINT('',(7.61577310585837,61.0000000000001,-14.5));
#1008=CARTESIAN_POINT('',(7.61577310586758,61.0000000000001,-41.4999999999948));
#1009=CARTESIAN_POINT('',(6.40280084264239,61.0000000000001,-42.1842756696567));
#1010=CARTESIAN_POINT('',(5.13432903964287,60.6879223919002,-42.6842961269434));
#1011=CARTESIAN_POINT('',(2.57920445737174,59.9291937345451,-43.3407167954486));
#1012=CARTESIAN_POINT('',(1.29208278222434,59.4641289660347,-43.4999999999949));
#1013=CARTESIAN_POINT('',(-2.54130327525342E-13,59.0000000000001,-43.4999999999949));
#1014=CARTESIAN_POINT('',(-2.53269627492614E-13,55.0000000000001,-27.9999999999975));
#1015=CARTESIAN_POINT('',(-2.53269627492614E-13,68.6000000000001,-28.0000000000002));
#1016=CARTESIAN_POINT('',(15.4999999999972,68.6000000000001,-28.0000000000002));
#1017=CARTESIAN_POINT('',(-2.53269627492614E-13,55.0000000000001,-27.9999999999975));
#1018=CARTESIAN_POINT('',(-2.4980018054066E-13,55.0000000000001,-37.9999999999998));
#1019=CARTESIAN_POINT('',(-2.4980018054066E-13,55.0000000000001,-41.6499999999998));
#1020=CARTESIAN_POINT('',(-8.66025403784467,55.0000000000001,-22.9999999999998));
#1021=CARTESIAN_POINT('',(-8.66025403784467,55.0000000000001,-26.6499999999998));
#1022=CARTESIAN_POINT('',(8.6602540378441,55.0000000000001,-22.9999999999998));
#1023=CARTESIAN_POINT('',(8.6602540378441,55.0000000000001,-26.6499999999998));
#1024=CARTESIAN_POINT('',(18.1999999999997,55.0000000000001,-27.9999999999975));
#1025=CARTESIAN_POINT('',(-2.53269627492614E-13,55.0000000000001,-27.9999999999975));
#1026=CARTESIAN_POINT('',(-2.4980018054066E-13,68.6000000000001,-27.9999999999999));
#1027=CARTESIAN_POINT('',(-2.4896742071724E-13,68.6000000000001,-41.5999999999999));
#1028=CARTESIAN_POINT('',(-2.4980018054066E-13,67.6000000000001,-27.9999999999999));
#1029=CARTESIAN_POINT('',(-2.4896742071724E-13,67.6000000000001,-41.5999999999999));
#1030=CARTESIAN_POINT('',(-2.4980018054066E-13,68.6000000000001,-27.9999999999999));
#1031=CARTESIAN_POINT('',(-2.4980018054066E-13,68.6000000000001,-28.0000000000001));
#1032=CARTESIAN_POINT('',(-2.4980018054066E-13,67.6000000000001,-37.9999999999998));
#1033=CARTESIAN_POINT('',(-2.49699147179731E-13,67.6000000000001,-39.6499999999998));
#1034=CARTESIAN_POINT('',(-8.66025403784467,67.6000000000001,-22.9999999999998));
#1035=CARTESIAN_POINT('',(-10.089195954089,67.6000000000001,-22.1749999999998));
#1036=CARTESIAN_POINT('',(8.6602540378441,67.6000000000001,-22.9999999999998));
#1037=CARTESIAN_POINT('',(10.0891959540884,67.6000000000001,-22.1749999999998));
#1038=CARTESIAN_POINT('',(-2.53269627492614E-13,67.6000000000001,-28.));
#1039=CARTESIAN_POINT('',(8.6602540378441,57.0000000000001,-22.9999999999998));
#1040=CARTESIAN_POINT('',(10.3102540378441,57.0000000000001,-22.9999999999998));
#1041=CARTESIAN_POINT('',(8.6602540378441,-57.1399999999997,-22.9999999999998));
#1042=CARTESIAN_POINT('',(-8.66025403784467,57.0000000000001,-22.9999999999998));
#1043=CARTESIAN_POINT('',(-7.01025403784467,57.0000000000001,-22.9999999999998));
#1044=CARTESIAN_POINT('',(-8.66025403784467,-57.1399999999997,-22.9999999999998));
#1045=CARTESIAN_POINT('',(-2.4980018054066E-13,57.0000000000001,-37.9999999999998));
#1046=CARTESIAN_POINT('',(1.64999999999975,57.0000000000001,-37.9999999999998));
#1047=CARTESIAN_POINT('',(-2.4980018054066E-13,-57.1399999999997,-37.9999999999998));
#1048=CARTESIAN_POINT('',(-2.4980018054066E-13,57.0000000000001,-37.9999999999998));
#1049=CARTESIAN_POINT('',(-8.66025403784467,57.0000000000001,-22.9999999999998));
#1050=CARTESIAN_POINT('',(8.6602540378441,57.0000000000001,-22.9999999999998));
#1051=CARTESIAN_POINT('',(18.1999999999997,50.0000000000001,-28.0000000000001));
#1052=CARTESIAN_POINT('',(18.1999999999997,50.0000000000001,-41.4999999999948));
#1053=CARTESIAN_POINT('',(18.1999999999997,50.0000000000001,-14.5));
#1054=CARTESIAN_POINT('',(18.1999999999997,50.0000000000001,-28.0000000000001));
#1055=CARTESIAN_POINT('',(18.1999999999997,59.0000000000001,-14.5));
#1056=CARTESIAN_POINT('',(23.1999999999997,59.0000000000001,-14.5));
#1057=CARTESIAN_POINT('',(27.1999999999997,50.0000000000001,-14.5));
#1058=CARTESIAN_POINT('',(18.1999999999997,50.0000000000001,-14.5));
#1059=CARTESIAN_POINT('',(27.1999999999997,26.,-14.4999999999999));
#1060=CARTESIAN_POINT('',(27.1999999999997,26.0000000000001,-14.4999999999999));
#1061=CARTESIAN_POINT('',(27.1999999999997,26.0000000000001,-41.4999999999947));
#1062=CARTESIAN_POINT('',(27.1999999999997,26.0000000000001,-28.));
#1063=CARTESIAN_POINT('',(27.1999999999997,50.0000000000001,-41.4999999999948));
#1064=CARTESIAN_POINT('',(27.1999999999997,26.,-41.4999999999947));
#1065=CARTESIAN_POINT('',(18.1999999999997,59.0000000000001,-41.4999999999948));
#1066=CARTESIAN_POINT('',(18.1999999999997,50.0000000000001,-41.4999999999948));
#1067=CARTESIAN_POINT('',(23.1999999999997,59.0000000000001,-41.4999999999948));
#1068=MECHANICAL_DESIGN_GEOMETRIC_PRESENTATION_REPRESENTATION('',(#86),
#1069);
#1069=(
GEOMETRIC_REPRESENTATION_CONTEXT(3)
GLOBAL_UNCERTAINTY_ASSIGNED_CONTEXT((#1070))
GLOBAL_UNIT_ASSIGNED_CONTEXT((#1076,#1072,#1071))
REPRESENTATION_CONTEXT('Left_hip_roll','TOP_LEVEL_ASSEMBLY_PART')
);
#1070=UNCERTAINTY_MEASURE_WITH_UNIT(LENGTH_MEASURE(0.0508),#1076,
'DISTANCE_ACCURACY_VALUE','Maximum Tolerance applied to model');
#1071=(
NAMED_UNIT(*)
SI_UNIT($,.STERADIAN.)
SOLID_ANGLE_UNIT()
);
#1072=(
CONVERSION_BASED_UNIT('DEGREE',#1074)
NAMED_UNIT(#1073)
PLANE_ANGLE_UNIT()
);
#1073=DIMENSIONAL_EXPONENTS(0.,0.,0.,0.,0.,0.,0.);
#1074=PLANE_ANGLE_MEASURE_WITH_UNIT(PLANE_ANGLE_MEASURE(0.0174532925),#1075);
#1075=(
NAMED_UNIT(*)
PLANE_ANGLE_UNIT()
SI_UNIT($,.RADIAN.)
);
#1076=(
LENGTH_UNIT()
NAMED_UNIT(*)
SI_UNIT(.MILLI.,.METRE.)
);
ENDSEC;
END-ISO-10303-21;
