ISO-10303-21;
HEADER;
/* Generated by software containing ST-Developer
 * from STEP Tools, Inc. (www.steptools.com) 
 */
/* OPTION: using custom schema-name function */

FILE_DESCRIPTION(
/* description */ (''),
/* implementation_level */ '2;1');

FILE_NAME(
/* name */ 'Motor_HTDW3532.stp',
/* time_stamp */ '2026-09-11T23:15:12+08:00',
/* author */ (''),
/* organization */ (''),
/* preprocessor_version */ 'ST-DEVELOPER v20',
/* originating_system */ 'SIEMENS PLM Software NX2406.1700',
/* authorisation */ '');

FILE_SCHEMA (('AP203_CONFIGURATION_CONTROLLED_3D_DESIGN_OF_MECHANICAL_PARTS_AND_ASSEMBLIES_MIM_LF { 1 0 10303 403 2 1 2}'));
ENDSEC;

DATA;
#10=PROPERTY_DEFINITION_REPRESENTATION(#14,#12);
#11=PROPERTY_DEFINITION_REPRESENTATION(#15,#13);
#12=REPRESENTATION('',(#16),#1209);
#13=REPRESENTATION('',(#17),#1209);
#14=PROPERTY_DEFINITION('pmi validation property','',#73);
#15=PROPERTY_DEFINITION('pmi validation property','',#73);
#16=VALUE_REPRESENTATION_ITEM('number of annotations',COUNT_MEASURE(0.));
#17=VALUE_REPRESENTATION_ITEM('number of views',COUNT_MEASURE(0.));
#18=SHAPE_REPRESENTATION_RELATIONSHIP('None',
'relationship between HTDW-3532-02-DNE_simple_objects-None and HTDW-35
32-02-DNE_simple_objects-None',#84,#19);
#19=ADVANCED_BREP_SHAPE_REPRESENTATION(
'HTDW-3532-02-DNE_simple_objects-None',(#94),#1209);
#20=APPLIED_APPROVAL_ASSIGNMENT(#32,(#74));
#21=APPLIED_APPROVAL_ASSIGNMENT(#33,(#76));
#22=APPLIED_APPROVAL_ASSIGNMENT(#34,(#46));
#23=APPROVAL_PERSON_ORGANIZATION(#38,#32,#26);
#24=APPROVAL_PERSON_ORGANIZATION(#39,#33,#27);
#25=APPROVAL_PERSON_ORGANIZATION(#40,#34,#28);
#26=APPROVAL_ROLE('approver');
#27=APPROVAL_ROLE('approver');
#28=APPROVAL_ROLE('approver');
#29=APPROVAL_DATE_TIME(#54,#32);
#30=APPROVAL_DATE_TIME(#55,#33);
#31=APPROVAL_DATE_TIME(#56,#34);
#32=APPROVAL(#35,' ');
#33=APPROVAL(#36,' ');
#34=APPROVAL(#37,' ');
#35=APPROVAL_STATUS('not_yet_approved');
#36=APPROVAL_STATUS('not_yet_approved');
#37=APPROVAL_STATUS('not_yet_approved');
#38=PERSON_AND_ORGANIZATION(#44,#41);
#39=PERSON_AND_ORGANIZATION(#44,#42);
#40=PERSON_AND_ORGANIZATION(#44,#43);
#41=ORGANIZATION(' ',' ',' ');
#42=ORGANIZATION(' ',' ',' ');
#43=ORGANIZATION(' ',' ',' ');
#44=PERSON(' ',' ',' ',(' '),$,$);
#45=APPLIED_SECURITY_CLASSIFICATION_ASSIGNMENT(#46,(#76));
#46=SECURITY_CLASSIFICATION(' ',' ',#47);
#47=SECURITY_CLASSIFICATION_LEVEL('confidential');
#48=APPLIED_DATE_AND_TIME_ASSIGNMENT(#52,#50,(#74));
#49=APPLIED_DATE_AND_TIME_ASSIGNMENT(#53,#51,(#46));
#50=DATE_TIME_ROLE('creation_date');
#51=DATE_TIME_ROLE('classification_date');
#52=DATE_AND_TIME(#67,#57);
#53=DATE_AND_TIME(#68,#58);
#54=DATE_AND_TIME(#69,#59);
#55=DATE_AND_TIME(#70,#60);
#56=DATE_AND_TIME(#71,#61);
#57=LOCAL_TIME(0,0,0.,#62);
#58=LOCAL_TIME(0,0,0.,#63);
#59=LOCAL_TIME(0,0,0.,#64);
#60=LOCAL_TIME(0,0,0.,#65);
#61=LOCAL_TIME(0,0,0.,#66);
#62=COORDINATED_UNIVERSAL_TIME_OFFSET(0,0,.BEHIND.);
#63=COORDINATED_UNIVERSAL_TIME_OFFSET(0,0,.BEHIND.);
#64=COORDINATED_UNIVERSAL_TIME_OFFSET(0,0,.BEHIND.);
#65=COORDINATED_UNIVERSAL_TIME_OFFSET(0,0,.BEHIND.);
#66=COORDINATED_UNIVERSAL_TIME_OFFSET(0,0,.BEHIND.);
#67=CALENDAR_DATE(0,1,1);
#68=CALENDAR_DATE(0,1,1);
#69=CALENDAR_DATE(0,1,1);
#70=CALENDAR_DATE(0,1,1);
#71=CALENDAR_DATE(0,1,1);
#72=SHAPE_DEFINITION_REPRESENTATION(#73,#84);
#73=PRODUCT_DEFINITION_SHAPE('','',#74);
#74=PRODUCT_DEFINITION(' ','',#76,#75);
#75=PRODUCT_DEFINITION_CONTEXT('part definition',#83,'design');
#76=PRODUCT_DEFINITION_FORMATION_WITH_SPECIFIED_SOURCE(' ',' ',#78,
 .NOT_KNOWN.);
#77=PRODUCT_RELATED_PRODUCT_CATEGORY('detail','',(#78));
#78=PRODUCT('HTDW-3532-02-DNE_simple_objects',
'HTDW-3532-02-DNE_simple_objects',' ',(#81));
#79=PRODUCT_CATEGORY('part',' ');
#80=PRODUCT_CATEGORY(' ','');
#81=PRODUCT_CONTEXT(' ',#83,'mechanical');
#82=APPLICATION_PROTOCOL_DEFINITION('international standard',
'config_control_design',2010,#83);
#83=APPLICATION_CONTEXT(
'configuration controlled 3D designs of mechanical parts and assemblie
s');
#84=SHAPE_REPRESENTATION('HTDW-3532-02-DNE_simple_objects-None',(#713),
#1209);
#85=PRESENTATION_LAYER_ASSIGNMENT('1','Layer 1',(#94));
#86=STYLED_ITEM('',(#87),#94);
#87=PRESENTATION_STYLE_ASSIGNMENT((#88));
#88=SURFACE_STYLE_USAGE(.BOTH.,#89);
#89=SURFACE_SIDE_STYLE('',(#90));
#90=SURFACE_STYLE_FILL_AREA(#91);
#91=FILL_AREA_STYLE('',(#92));
#92=FILL_AREA_STYLE_COLOUR('',#93);
#93=COLOUR_RGB('smoke gray',0.694117647058824,0.694117647058824,0.694117647058824);
#94=MANIFOLD_SOLID_BREP('',#95);
#95=CLOSED_SHELL('',(#218,#219,#220,#221,#222,#223,#224,#225,#226,#227,
#228,#229,#230,#231,#232,#233,#234,#235,#236,#237,#238,#239,#240,#241,#242,
#243,#244,#245,#246,#247,#248,#249,#250,#251,#252,#253,#254,#255,#256,#257,
#258,#259,#260,#261,#262));
#96=CONICAL_SURFACE('',#809,13.5,45.);
#97=FACE_BOUND('',#325,.T.);
#98=FACE_BOUND('',#326,.T.);
#99=FACE_BOUND('',#327,.T.);
#100=FACE_BOUND('',#328,.T.);
#101=FACE_BOUND('',#329,.T.);
#102=FACE_BOUND('',#330,.T.);
#103=FACE_BOUND('',#331,.T.);
#104=FACE_BOUND('',#332,.T.);
#105=FACE_BOUND('',#333,.T.);
#106=FACE_BOUND('',#334,.T.);
#107=FACE_BOUND('',#335,.T.);
#108=FACE_BOUND('',#336,.T.);
#109=FACE_BOUND('',#337,.T.);
#110=FACE_BOUND('',#338,.T.);
#111=FACE_BOUND('',#339,.T.);
#112=FACE_BOUND('',#340,.T.);
#113=FACE_BOUND('',#341,.T.);
#114=FACE_BOUND('',#342,.T.);
#115=FACE_BOUND('',#343,.T.);
#116=FACE_BOUND('',#344,.T.);
#117=FACE_BOUND('',#345,.T.);
#118=FACE_BOUND('',#346,.T.);
#119=FACE_BOUND('',#347,.T.);
#120=FACE_BOUND('',#349,.T.);
#121=FACE_BOUND('',#350,.T.);
#122=FACE_BOUND('',#352,.T.);
#123=FACE_BOUND('',#353,.T.);
#124=FACE_BOUND('',#355,.T.);
#125=FACE_BOUND('',#356,.T.);
#126=FACE_BOUND('',#358,.T.);
#127=FACE_BOUND('',#359,.T.);
#128=FACE_BOUND('',#361,.T.);
#129=FACE_BOUND('',#362,.T.);
#130=FACE_BOUND('',#364,.T.);
#131=FACE_BOUND('',#365,.T.);
#132=FACE_BOUND('',#367,.T.);
#133=FACE_BOUND('',#368,.T.);
#134=FACE_BOUND('',#371,.T.);
#135=FACE_BOUND('',#372,.T.);
#136=FACE_BOUND('',#374,.T.);
#137=FACE_BOUND('',#375,.T.);
#138=FACE_BOUND('',#377,.T.);
#139=FACE_BOUND('',#378,.T.);
#140=FACE_BOUND('',#379,.T.);
#141=FACE_BOUND('',#380,.T.);
#142=CYLINDRICAL_SURFACE('',#717,2.);
#143=CYLINDRICAL_SURFACE('',#720,22.5);
#144=CYLINDRICAL_SURFACE('',#723,2.);
#145=CYLINDRICAL_SURFACE('',#727,2.);
#146=CYLINDRICAL_SURFACE('',#730,22.5);
#147=CYLINDRICAL_SURFACE('',#733,2.);
#148=CYLINDRICAL_SURFACE('',#737,2.);
#149=CYLINDRICAL_SURFACE('',#740,22.5);
#150=CYLINDRICAL_SURFACE('',#743,2.);
#151=CYLINDRICAL_SURFACE('',#747,2.);
#152=CYLINDRICAL_SURFACE('',#750,22.5);
#153=CYLINDRICAL_SURFACE('',#753,2.);
#154=CYLINDRICAL_SURFACE('',#766,15.1);
#155=CYLINDRICAL_SURFACE('',#775,13.5);
#156=CYLINDRICAL_SURFACE('',#777,1.25);
#157=CYLINDRICAL_SURFACE('',#780,1.25);
#158=CYLINDRICAL_SURFACE('',#783,1.25);
#159=CYLINDRICAL_SURFACE('',#786,1.25);
#160=CYLINDRICAL_SURFACE('',#789,1.25);
#161=CYLINDRICAL_SURFACE('',#792,1.25);
#162=CYLINDRICAL_SURFACE('',#795,1.25);
#163=CYLINDRICAL_SURFACE('',#798,1.25);
#164=CYLINDRICAL_SURFACE('',#802,1.25);
#165=CYLINDRICAL_SURFACE('',#805,1.25);
#166=CYLINDRICAL_SURFACE('',#808,1.25);
#167=CIRCLE('',#715,2.);
#168=CIRCLE('',#716,2.);
#169=CIRCLE('',#718,22.5);
#170=CIRCLE('',#719,22.5);
#171=CIRCLE('',#721,2.);
#172=CIRCLE('',#722,2.);
#173=CIRCLE('',#725,2.);
#174=CIRCLE('',#726,2.);
#175=CIRCLE('',#728,22.5);
#176=CIRCLE('',#729,22.5);
#177=CIRCLE('',#731,2.);
#178=CIRCLE('',#732,2.);
#179=CIRCLE('',#735,2.);
#180=CIRCLE('',#736,2.);
#181=CIRCLE('',#738,22.5);
#182=CIRCLE('',#739,22.5);
#183=CIRCLE('',#741,2.);
#184=CIRCLE('',#742,2.);
#185=CIRCLE('',#745,2.);
#186=CIRCLE('',#746,2.);
#187=CIRCLE('',#748,22.5);
#188=CIRCLE('',#749,22.5);
#189=CIRCLE('',#751,2.);
#190=CIRCLE('',#752,2.);
#191=CIRCLE('',#754,1.25);
#192=CIRCLE('',#755,1.25);
#193=CIRCLE('',#756,1.25);
#194=CIRCLE('',#757,1.25);
#195=CIRCLE('',#758,15.1);
#196=CIRCLE('',#760,1.25);
#197=CIRCLE('',#761,1.25);
#198=CIRCLE('',#762,1.25);
#199=CIRCLE('',#763,1.25);
#200=CIRCLE('',#765,15.1);
#201=CIRCLE('',#767,13.5);
#202=CIRCLE('',#769,13.);
#203=CIRCLE('',#770,1.25);
#204=CIRCLE('',#771,1.25);
#205=CIRCLE('',#772,1.25);
#206=CIRCLE('',#774,13.5);
#207=CIRCLE('',#776,1.25);
#208=CIRCLE('',#779,1.25);
#209=CIRCLE('',#782,1.25);
#210=CIRCLE('',#785,1.25);
#211=CIRCLE('',#788,1.25);
#212=CIRCLE('',#791,1.25);
#213=CIRCLE('',#794,1.25);
#214=CIRCLE('',#797,1.25);
#215=CIRCLE('',#800,1.25);
#216=CIRCLE('',#803,1.25);
#217=CIRCLE('',#806,1.25);
#218=ADVANCED_FACE('',(#282),#263,.F.);
#219=ADVANCED_FACE('',(#283),#142,.T.);
#220=ADVANCED_FACE('',(#284),#143,.T.);
#221=ADVANCED_FACE('',(#285),#144,.T.);
#222=ADVANCED_FACE('',(#286),#264,.F.);
#223=ADVANCED_FACE('',(#287),#145,.T.);
#224=ADVANCED_FACE('',(#288),#146,.T.);
#225=ADVANCED_FACE('',(#289),#147,.T.);
#226=ADVANCED_FACE('',(#290),#265,.F.);
#227=ADVANCED_FACE('',(#291),#148,.T.);
#228=ADVANCED_FACE('',(#292),#149,.T.);
#229=ADVANCED_FACE('',(#293),#150,.T.);
#230=ADVANCED_FACE('',(#294),#266,.F.);
#231=ADVANCED_FACE('',(#295),#151,.T.);
#232=ADVANCED_FACE('',(#296),#152,.T.);
#233=ADVANCED_FACE('',(#297),#153,.T.);
#234=ADVANCED_FACE('',(#97,#98,#99,#100,#101,#102),#267,.T.);
#235=ADVANCED_FACE('',(#103,#104,#105,#106,#107),#268,.F.);
#236=ADVANCED_FACE('',(#108,#109),#154,.F.);
#237=ADVANCED_FACE('',(#110,#111),#269,.T.);
#238=ADVANCED_FACE('',(#112,#113,#114,#115),#270,.T.);
#239=ADVANCED_FACE('',(#116,#117),#155,.T.);
#240=ADVANCED_FACE('',(#118,#119),#156,.F.);
#241=ADVANCED_FACE('',(#298),#271,.T.);
#242=ADVANCED_FACE('',(#120,#121),#157,.F.);
#243=ADVANCED_FACE('',(#299),#272,.T.);
#244=ADVANCED_FACE('',(#122,#123),#158,.F.);
#245=ADVANCED_FACE('',(#300),#273,.T.);
#246=ADVANCED_FACE('',(#124,#125),#159,.F.);
#247=ADVANCED_FACE('',(#301),#274,.T.);
#248=ADVANCED_FACE('',(#126,#127),#160,.F.);
#249=ADVANCED_FACE('',(#302),#275,.F.);
#250=ADVANCED_FACE('',(#128,#129),#161,.F.);
#251=ADVANCED_FACE('',(#303),#276,.F.);
#252=ADVANCED_FACE('',(#130,#131),#162,.F.);
#253=ADVANCED_FACE('',(#304),#277,.F.);
#254=ADVANCED_FACE('',(#132,#133),#163,.F.);
#255=ADVANCED_FACE('',(#305),#278,.F.);
#256=ADVANCED_FACE('',(#306),#279,.T.);
#257=ADVANCED_FACE('',(#134,#135),#164,.F.);
#258=ADVANCED_FACE('',(#307),#280,.T.);
#259=ADVANCED_FACE('',(#136,#137),#165,.F.);
#260=ADVANCED_FACE('',(#308),#281,.T.);
#261=ADVANCED_FACE('',(#138,#139),#166,.F.);
#262=ADVANCED_FACE('',(#140,#141),#96,.T.);
#263=PLANE('',#714);
#264=PLANE('',#724);
#265=PLANE('',#734);
#266=PLANE('',#744);
#267=PLANE('',#759);
#268=PLANE('',#764);
#269=PLANE('',#768);
#270=PLANE('',#773);
#271=PLANE('',#778);
#272=PLANE('',#781);
#273=PLANE('',#784);
#274=PLANE('',#787);
#275=PLANE('',#790);
#276=PLANE('',#793);
#277=PLANE('',#796);
#278=PLANE('',#799);
#279=PLANE('',#801);
#280=PLANE('',#804);
#281=PLANE('',#807);
#282=FACE_OUTER_BOUND('',#309,.T.);
#283=FACE_OUTER_BOUND('',#310,.T.);
#284=FACE_OUTER_BOUND('',#311,.T.);
#285=FACE_OUTER_BOUND('',#312,.T.);
#286=FACE_OUTER_BOUND('',#313,.T.);
#287=FACE_OUTER_BOUND('',#314,.T.);
#288=FACE_OUTER_BOUND('',#315,.T.);
#289=FACE_OUTER_BOUND('',#316,.T.);
#290=FACE_OUTER_BOUND('',#317,.T.);
#291=FACE_OUTER_BOUND('',#318,.T.);
#292=FACE_OUTER_BOUND('',#319,.T.);
#293=FACE_OUTER_BOUND('',#320,.T.);
#294=FACE_OUTER_BOUND('',#321,.T.);
#295=FACE_OUTER_BOUND('',#322,.T.);
#296=FACE_OUTER_BOUND('',#323,.T.);
#297=FACE_OUTER_BOUND('',#324,.T.);
#298=FACE_OUTER_BOUND('',#348,.T.);
#299=FACE_OUTER_BOUND('',#351,.T.);
#300=FACE_OUTER_BOUND('',#354,.T.);
#301=FACE_OUTER_BOUND('',#357,.T.);
#302=FACE_OUTER_BOUND('',#360,.T.);
#303=FACE_OUTER_BOUND('',#363,.T.);
#304=FACE_OUTER_BOUND('',#366,.T.);
#305=FACE_OUTER_BOUND('',#369,.T.);
#306=FACE_OUTER_BOUND('',#370,.T.);
#307=FACE_OUTER_BOUND('',#373,.T.);
#308=FACE_OUTER_BOUND('',#376,.T.);
#309=EDGE_LOOP('',(#381,#382,#383,#384));
#310=EDGE_LOOP('',(#385,#386,#387,#388));
#311=EDGE_LOOP('',(#389,#390,#391,#392));
#312=EDGE_LOOP('',(#393,#394,#395,#396));
#313=EDGE_LOOP('',(#397,#398,#399,#400));
#314=EDGE_LOOP('',(#401,#402,#403,#404));
#315=EDGE_LOOP('',(#405,#406,#407,#408));
#316=EDGE_LOOP('',(#409,#410,#411,#412));
#317=EDGE_LOOP('',(#413,#414,#415,#416));
#318=EDGE_LOOP('',(#417,#418,#419,#420));
#319=EDGE_LOOP('',(#421,#422,#423,#424));
#320=EDGE_LOOP('',(#425,#426,#427,#428));
#321=EDGE_LOOP('',(#429,#430,#431,#432));
#322=EDGE_LOOP('',(#433,#434,#435,#436));
#323=EDGE_LOOP('',(#437,#438,#439,#440));
#324=EDGE_LOOP('',(#441,#442,#443,#444));
#325=EDGE_LOOP('',(#445));
#326=EDGE_LOOP('',(#446));
#327=EDGE_LOOP('',(#447));
#328=EDGE_LOOP('',(#448));
#329=EDGE_LOOP('',(#449));
#330=EDGE_LOOP('',(#450,#451,#452,#453,#454,#455,#456,#457,#458,#459,#460,
#461,#462,#463,#464,#465));
#331=EDGE_LOOP('',(#466));
#332=EDGE_LOOP('',(#467));
#333=EDGE_LOOP('',(#468));
#334=EDGE_LOOP('',(#469));
#335=EDGE_LOOP('',(#470,#471,#472,#473,#474,#475,#476,#477,#478,#479,#480,
#481,#482,#483,#484,#485));
#336=EDGE_LOOP('',(#486));
#337=EDGE_LOOP('',(#487));
#338=EDGE_LOOP('',(#488));
#339=EDGE_LOOP('',(#489));
#340=EDGE_LOOP('',(#490));
#341=EDGE_LOOP('',(#491));
#342=EDGE_LOOP('',(#492));
#343=EDGE_LOOP('',(#493));
#344=EDGE_LOOP('',(#494));
#345=EDGE_LOOP('',(#495));
#346=EDGE_LOOP('',(#496));
#347=EDGE_LOOP('',(#497));
#348=EDGE_LOOP('',(#498));
#349=EDGE_LOOP('',(#499));
#350=EDGE_LOOP('',(#500));
#351=EDGE_LOOP('',(#501));
#352=EDGE_LOOP('',(#502));
#353=EDGE_LOOP('',(#503));
#354=EDGE_LOOP('',(#504));
#355=EDGE_LOOP('',(#505));
#356=EDGE_LOOP('',(#506));
#357=EDGE_LOOP('',(#507));
#358=EDGE_LOOP('',(#508));
#359=EDGE_LOOP('',(#509));
#360=EDGE_LOOP('',(#510));
#361=EDGE_LOOP('',(#511));
#362=EDGE_LOOP('',(#512));
#363=EDGE_LOOP('',(#513));
#364=EDGE_LOOP('',(#514));
#365=EDGE_LOOP('',(#515));
#366=EDGE_LOOP('',(#516));
#367=EDGE_LOOP('',(#517));
#368=EDGE_LOOP('',(#518));
#369=EDGE_LOOP('',(#519));
#370=EDGE_LOOP('',(#520));
#371=EDGE_LOOP('',(#521));
#372=EDGE_LOOP('',(#522));
#373=EDGE_LOOP('',(#523));
#374=EDGE_LOOP('',(#524));
#375=EDGE_LOOP('',(#525));
#376=EDGE_LOOP('',(#526));
#377=EDGE_LOOP('',(#527));
#378=EDGE_LOOP('',(#528));
#379=EDGE_LOOP('',(#529));
#380=EDGE_LOOP('',(#530));
#381=ORIENTED_EDGE('',*,*,#590,.T.);
#382=ORIENTED_EDGE('',*,*,#591,.F.);
#383=ORIENTED_EDGE('',*,*,#592,.F.);
#384=ORIENTED_EDGE('',*,*,#593,.T.);
#385=ORIENTED_EDGE('',*,*,#594,.T.);
#386=ORIENTED_EDGE('',*,*,#595,.F.);
#387=ORIENTED_EDGE('',*,*,#596,.F.);
#388=ORIENTED_EDGE('',*,*,#591,.T.);
#389=ORIENTED_EDGE('',*,*,#597,.T.);
#390=ORIENTED_EDGE('',*,*,#598,.F.);
#391=ORIENTED_EDGE('',*,*,#599,.F.);
#392=ORIENTED_EDGE('',*,*,#595,.T.);
#393=ORIENTED_EDGE('',*,*,#600,.T.);
#394=ORIENTED_EDGE('',*,*,#601,.F.);
#395=ORIENTED_EDGE('',*,*,#602,.F.);
#396=ORIENTED_EDGE('',*,*,#598,.T.);
#397=ORIENTED_EDGE('',*,*,#603,.T.);
#398=ORIENTED_EDGE('',*,*,#604,.F.);
#399=ORIENTED_EDGE('',*,*,#605,.F.);
#400=ORIENTED_EDGE('',*,*,#601,.T.);
#401=ORIENTED_EDGE('',*,*,#606,.T.);
#402=ORIENTED_EDGE('',*,*,#607,.F.);
#403=ORIENTED_EDGE('',*,*,#608,.F.);
#404=ORIENTED_EDGE('',*,*,#604,.T.);
#405=ORIENTED_EDGE('',*,*,#609,.T.);
#406=ORIENTED_EDGE('',*,*,#610,.F.);
#407=ORIENTED_EDGE('',*,*,#611,.F.);
#408=ORIENTED_EDGE('',*,*,#607,.T.);
#409=ORIENTED_EDGE('',*,*,#612,.T.);
#410=ORIENTED_EDGE('',*,*,#613,.F.);
#411=ORIENTED_EDGE('',*,*,#614,.F.);
#412=ORIENTED_EDGE('',*,*,#610,.T.);
#413=ORIENTED_EDGE('',*,*,#615,.T.);
#414=ORIENTED_EDGE('',*,*,#616,.F.);
#415=ORIENTED_EDGE('',*,*,#617,.F.);
#416=ORIENTED_EDGE('',*,*,#613,.T.);
#417=ORIENTED_EDGE('',*,*,#618,.T.);
#418=ORIENTED_EDGE('',*,*,#619,.F.);
#419=ORIENTED_EDGE('',*,*,#620,.F.);
#420=ORIENTED_EDGE('',*,*,#616,.T.);
#421=ORIENTED_EDGE('',*,*,#621,.T.);
#422=ORIENTED_EDGE('',*,*,#622,.F.);
#423=ORIENTED_EDGE('',*,*,#623,.F.);
#424=ORIENTED_EDGE('',*,*,#619,.T.);
#425=ORIENTED_EDGE('',*,*,#624,.T.);
#426=ORIENTED_EDGE('',*,*,#625,.F.);
#427=ORIENTED_EDGE('',*,*,#626,.F.);
#428=ORIENTED_EDGE('',*,*,#622,.T.);
#429=ORIENTED_EDGE('',*,*,#627,.T.);
#430=ORIENTED_EDGE('',*,*,#628,.F.);
#431=ORIENTED_EDGE('',*,*,#629,.F.);
#432=ORIENTED_EDGE('',*,*,#625,.T.);
#433=ORIENTED_EDGE('',*,*,#630,.T.);
#434=ORIENTED_EDGE('',*,*,#631,.F.);
#435=ORIENTED_EDGE('',*,*,#632,.F.);
#436=ORIENTED_EDGE('',*,*,#628,.T.);
#437=ORIENTED_EDGE('',*,*,#633,.T.);
#438=ORIENTED_EDGE('',*,*,#634,.F.);
#439=ORIENTED_EDGE('',*,*,#635,.F.);
#440=ORIENTED_EDGE('',*,*,#631,.T.);
#441=ORIENTED_EDGE('',*,*,#636,.T.);
#442=ORIENTED_EDGE('',*,*,#593,.F.);
#443=ORIENTED_EDGE('',*,*,#637,.F.);
#444=ORIENTED_EDGE('',*,*,#634,.T.);
#445=ORIENTED_EDGE('',*,*,#638,.F.);
#446=ORIENTED_EDGE('',*,*,#639,.F.);
#447=ORIENTED_EDGE('',*,*,#640,.F.);
#448=ORIENTED_EDGE('',*,*,#641,.F.);
#449=ORIENTED_EDGE('',*,*,#642,.F.);
#450=ORIENTED_EDGE('',*,*,#592,.T.);
#451=ORIENTED_EDGE('',*,*,#596,.T.);
#452=ORIENTED_EDGE('',*,*,#599,.T.);
#453=ORIENTED_EDGE('',*,*,#602,.T.);
#454=ORIENTED_EDGE('',*,*,#605,.T.);
#455=ORIENTED_EDGE('',*,*,#608,.T.);
#456=ORIENTED_EDGE('',*,*,#611,.T.);
#457=ORIENTED_EDGE('',*,*,#614,.T.);
#458=ORIENTED_EDGE('',*,*,#617,.T.);
#459=ORIENTED_EDGE('',*,*,#620,.T.);
#460=ORIENTED_EDGE('',*,*,#623,.T.);
#461=ORIENTED_EDGE('',*,*,#626,.T.);
#462=ORIENTED_EDGE('',*,*,#629,.T.);
#463=ORIENTED_EDGE('',*,*,#632,.T.);
#464=ORIENTED_EDGE('',*,*,#635,.T.);
#465=ORIENTED_EDGE('',*,*,#637,.T.);
#466=ORIENTED_EDGE('',*,*,#643,.T.);
#467=ORIENTED_EDGE('',*,*,#644,.T.);
#468=ORIENTED_EDGE('',*,*,#645,.T.);
#469=ORIENTED_EDGE('',*,*,#646,.T.);
#470=ORIENTED_EDGE('',*,*,#590,.F.);
#471=ORIENTED_EDGE('',*,*,#636,.F.);
#472=ORIENTED_EDGE('',*,*,#633,.F.);
#473=ORIENTED_EDGE('',*,*,#630,.F.);
#474=ORIENTED_EDGE('',*,*,#627,.F.);
#475=ORIENTED_EDGE('',*,*,#624,.F.);
#476=ORIENTED_EDGE('',*,*,#621,.F.);
#477=ORIENTED_EDGE('',*,*,#618,.F.);
#478=ORIENTED_EDGE('',*,*,#615,.F.);
#479=ORIENTED_EDGE('',*,*,#612,.F.);
#480=ORIENTED_EDGE('',*,*,#609,.F.);
#481=ORIENTED_EDGE('',*,*,#606,.F.);
#482=ORIENTED_EDGE('',*,*,#603,.F.);
#483=ORIENTED_EDGE('',*,*,#600,.F.);
#484=ORIENTED_EDGE('',*,*,#597,.F.);
#485=ORIENTED_EDGE('',*,*,#594,.F.);
#486=ORIENTED_EDGE('',*,*,#642,.T.);
#487=ORIENTED_EDGE('',*,*,#647,.T.);
#488=ORIENTED_EDGE('',*,*,#647,.F.);
#489=ORIENTED_EDGE('',*,*,#648,.T.);
#490=ORIENTED_EDGE('',*,*,#649,.T.);
#491=ORIENTED_EDGE('',*,*,#650,.F.);
#492=ORIENTED_EDGE('',*,*,#651,.F.);
#493=ORIENTED_EDGE('',*,*,#652,.F.);
#494=ORIENTED_EDGE('',*,*,#653,.T.);
#495=ORIENTED_EDGE('',*,*,#648,.F.);
#496=ORIENTED_EDGE('',*,*,#654,.T.);
#497=ORIENTED_EDGE('',*,*,#641,.T.);
#498=ORIENTED_EDGE('',*,*,#654,.F.);
#499=ORIENTED_EDGE('',*,*,#655,.T.);
#500=ORIENTED_EDGE('',*,*,#640,.T.);
#501=ORIENTED_EDGE('',*,*,#655,.F.);
#502=ORIENTED_EDGE('',*,*,#656,.T.);
#503=ORIENTED_EDGE('',*,*,#639,.T.);
#504=ORIENTED_EDGE('',*,*,#656,.F.);
#505=ORIENTED_EDGE('',*,*,#657,.T.);
#506=ORIENTED_EDGE('',*,*,#638,.T.);
#507=ORIENTED_EDGE('',*,*,#657,.F.);
#508=ORIENTED_EDGE('',*,*,#658,.F.);
#509=ORIENTED_EDGE('',*,*,#646,.F.);
#510=ORIENTED_EDGE('',*,*,#658,.T.);
#511=ORIENTED_EDGE('',*,*,#659,.F.);
#512=ORIENTED_EDGE('',*,*,#645,.F.);
#513=ORIENTED_EDGE('',*,*,#659,.T.);
#514=ORIENTED_EDGE('',*,*,#660,.F.);
#515=ORIENTED_EDGE('',*,*,#644,.F.);
#516=ORIENTED_EDGE('',*,*,#660,.T.);
#517=ORIENTED_EDGE('',*,*,#661,.F.);
#518=ORIENTED_EDGE('',*,*,#643,.F.);
#519=ORIENTED_EDGE('',*,*,#661,.T.);
#520=ORIENTED_EDGE('',*,*,#662,.F.);
#521=ORIENTED_EDGE('',*,*,#662,.T.);
#522=ORIENTED_EDGE('',*,*,#652,.T.);
#523=ORIENTED_EDGE('',*,*,#663,.F.);
#524=ORIENTED_EDGE('',*,*,#663,.T.);
#525=ORIENTED_EDGE('',*,*,#651,.T.);
#526=ORIENTED_EDGE('',*,*,#664,.F.);
#527=ORIENTED_EDGE('',*,*,#664,.T.);
#528=ORIENTED_EDGE('',*,*,#650,.T.);
#529=ORIENTED_EDGE('',*,*,#649,.F.);
#530=ORIENTED_EDGE('',*,*,#653,.F.);
#531=VERTEX_POINT('',#1030);
#532=VERTEX_POINT('',#1031);
#533=VERTEX_POINT('',#1033);
#534=VERTEX_POINT('',#1035);
#535=VERTEX_POINT('',#1039);
#536=VERTEX_POINT('',#1041);
#537=VERTEX_POINT('',#1045);
#538=VERTEX_POINT('',#1047);
#539=VERTEX_POINT('',#1051);
#540=VERTEX_POINT('',#1053);
#541=VERTEX_POINT('',#1057);
#542=VERTEX_POINT('',#1059);
#543=VERTEX_POINT('',#1063);
#544=VERTEX_POINT('',#1065);
#545=VERTEX_POINT('',#1069);
#546=VERTEX_POINT('',#1071);
#547=VERTEX_POINT('',#1075);
#548=VERTEX_POINT('',#1077);
#549=VERTEX_POINT('',#1081);
#550=VERTEX_POINT('',#1083);
#551=VERTEX_POINT('',#1087);
#552=VERTEX_POINT('',#1089);
#553=VERTEX_POINT('',#1093);
#554=VERTEX_POINT('',#1095);
#555=VERTEX_POINT('',#1099);
#556=VERTEX_POINT('',#1101);
#557=VERTEX_POINT('',#1105);
#558=VERTEX_POINT('',#1107);
#559=VERTEX_POINT('',#1111);
#560=VERTEX_POINT('',#1113);
#561=VERTEX_POINT('',#1117);
#562=VERTEX_POINT('',#1119);
#563=VERTEX_POINT('',#1126);
#564=VERTEX_POINT('',#1128);
#565=VERTEX_POINT('',#1130);
#566=VERTEX_POINT('',#1132);
#567=VERTEX_POINT('',#1134);
#568=VERTEX_POINT('',#1137);
#569=VERTEX_POINT('',#1139);
#570=VERTEX_POINT('',#1141);
#571=VERTEX_POINT('',#1143);
#572=VERTEX_POINT('',#1146);
#573=VERTEX_POINT('',#1149);
#574=VERTEX_POINT('',#1152);
#575=VERTEX_POINT('',#1154);
#576=VERTEX_POINT('',#1156);
#577=VERTEX_POINT('',#1158);
#578=VERTEX_POINT('',#1161);
#579=VERTEX_POINT('',#1164);
#580=VERTEX_POINT('',#1168);
#581=VERTEX_POINT('',#1172);
#582=VERTEX_POINT('',#1176);
#583=VERTEX_POINT('',#1180);
#584=VERTEX_POINT('',#1184);
#585=VERTEX_POINT('',#1188);
#586=VERTEX_POINT('',#1192);
#587=VERTEX_POINT('',#1196);
#588=VERTEX_POINT('',#1200);
#589=VERTEX_POINT('',#1204);
#590=EDGE_CURVE('',#531,#532,#665,.T.);
#591=EDGE_CURVE('',#533,#532,#666,.T.);
#592=EDGE_CURVE('',#534,#533,#667,.T.);
#593=EDGE_CURVE('',#534,#531,#668,.T.);
#594=EDGE_CURVE('',#532,#535,#167,.T.);
#595=EDGE_CURVE('',#536,#535,#669,.T.);
#596=EDGE_CURVE('',#533,#536,#168,.T.);
#597=EDGE_CURVE('',#535,#537,#169,.T.);
#598=EDGE_CURVE('',#538,#537,#670,.T.);
#599=EDGE_CURVE('',#536,#538,#170,.T.);
#600=EDGE_CURVE('',#537,#539,#171,.T.);
#601=EDGE_CURVE('',#540,#539,#671,.T.);
#602=EDGE_CURVE('',#538,#540,#172,.T.);
#603=EDGE_CURVE('',#539,#541,#672,.T.);
#604=EDGE_CURVE('',#542,#541,#673,.T.);
#605=EDGE_CURVE('',#540,#542,#674,.T.);
#606=EDGE_CURVE('',#541,#543,#173,.T.);
#607=EDGE_CURVE('',#544,#543,#675,.T.);
#608=EDGE_CURVE('',#542,#544,#174,.T.);
#609=EDGE_CURVE('',#543,#545,#175,.T.);
#610=EDGE_CURVE('',#546,#545,#676,.T.);
#611=EDGE_CURVE('',#544,#546,#176,.T.);
#612=EDGE_CURVE('',#545,#547,#177,.T.);
#613=EDGE_CURVE('',#548,#547,#677,.T.);
#614=EDGE_CURVE('',#546,#548,#178,.T.);
#615=EDGE_CURVE('',#547,#549,#678,.T.);
#616=EDGE_CURVE('',#550,#549,#679,.T.);
#617=EDGE_CURVE('',#548,#550,#680,.T.);
#618=EDGE_CURVE('',#549,#551,#179,.T.);
#619=EDGE_CURVE('',#552,#551,#681,.T.);
#620=EDGE_CURVE('',#550,#552,#180,.T.);
#621=EDGE_CURVE('',#551,#553,#181,.T.);
#622=EDGE_CURVE('',#554,#553,#682,.T.);
#623=EDGE_CURVE('',#552,#554,#182,.T.);
#624=EDGE_CURVE('',#553,#555,#183,.T.);
#625=EDGE_CURVE('',#556,#555,#683,.T.);
#626=EDGE_CURVE('',#554,#556,#184,.T.);
#627=EDGE_CURVE('',#555,#557,#684,.T.);
#628=EDGE_CURVE('',#558,#557,#685,.T.);
#629=EDGE_CURVE('',#556,#558,#686,.T.);
#630=EDGE_CURVE('',#557,#559,#185,.T.);
#631=EDGE_CURVE('',#560,#559,#687,.T.);
#632=EDGE_CURVE('',#558,#560,#186,.T.);
#633=EDGE_CURVE('',#559,#561,#187,.T.);
#634=EDGE_CURVE('',#562,#561,#688,.T.);
#635=EDGE_CURVE('',#560,#562,#188,.T.);
#636=EDGE_CURVE('',#561,#531,#189,.T.);
#637=EDGE_CURVE('',#562,#534,#190,.T.);
#638=EDGE_CURVE('',#563,#563,#191,.T.);
#639=EDGE_CURVE('',#564,#564,#192,.T.);
#640=EDGE_CURVE('',#565,#565,#193,.T.);
#641=EDGE_CURVE('',#566,#566,#194,.T.);
#642=EDGE_CURVE('',#567,#567,#195,.T.);
#643=EDGE_CURVE('',#568,#568,#196,.T.);
#644=EDGE_CURVE('',#569,#569,#197,.T.);
#645=EDGE_CURVE('',#570,#570,#198,.T.);
#646=EDGE_CURVE('',#571,#571,#199,.T.);
#647=EDGE_CURVE('',#572,#572,#200,.T.);
#648=EDGE_CURVE('',#573,#573,#201,.T.);
#649=EDGE_CURVE('',#574,#574,#202,.T.);
#650=EDGE_CURVE('',#575,#575,#203,.T.);
#651=EDGE_CURVE('',#576,#576,#204,.T.);
#652=EDGE_CURVE('',#577,#577,#205,.T.);
#653=EDGE_CURVE('',#578,#578,#206,.T.);
#654=EDGE_CURVE('',#579,#579,#207,.T.);
#655=EDGE_CURVE('',#580,#580,#208,.T.);
#656=EDGE_CURVE('',#581,#581,#209,.T.);
#657=EDGE_CURVE('',#582,#582,#210,.T.);
#658=EDGE_CURVE('',#583,#583,#211,.T.);
#659=EDGE_CURVE('',#584,#584,#212,.T.);
#660=EDGE_CURVE('',#585,#585,#213,.T.);
#661=EDGE_CURVE('',#586,#586,#214,.T.);
#662=EDGE_CURVE('',#587,#587,#215,.T.);
#663=EDGE_CURVE('',#588,#588,#216,.T.);
#664=EDGE_CURVE('',#589,#589,#217,.T.);
#665=LINE('',#1029,#689);
#666=LINE('',#1032,#690);
#667=LINE('',#1034,#691);
#668=LINE('',#1036,#692);
#669=LINE('',#1040,#693);
#670=LINE('',#1046,#694);
#671=LINE('',#1052,#695);
#672=LINE('',#1056,#696);
#673=LINE('',#1058,#697);
#674=LINE('',#1060,#698);
#675=LINE('',#1064,#699);
#676=LINE('',#1070,#700);
#677=LINE('',#1076,#701);
#678=LINE('',#1080,#702);
#679=LINE('',#1082,#703);
#680=LINE('',#1084,#704);
#681=LINE('',#1088,#705);
#682=LINE('',#1094,#706);
#683=LINE('',#1100,#707);
#684=LINE('',#1104,#708);
#685=LINE('',#1106,#709);
#686=LINE('',#1108,#710);
#687=LINE('',#1112,#711);
#688=LINE('',#1118,#712);
#689=VECTOR('',#812,1.);
#690=VECTOR('',#813,1.);
#691=VECTOR('',#814,1.);
#692=VECTOR('',#815,1.);
#693=VECTOR('',#820,1.);
#694=VECTOR('',#827,1.);
#695=VECTOR('',#834,1.);
#696=VECTOR('',#839,1.);
#697=VECTOR('',#840,1.);
#698=VECTOR('',#841,1.);
#699=VECTOR('',#846,1.);
#700=VECTOR('',#853,1.);
#701=VECTOR('',#860,1.);
#702=VECTOR('',#865,1.);
#703=VECTOR('',#866,1.);
#704=VECTOR('',#867,1.);
#705=VECTOR('',#872,1.);
#706=VECTOR('',#879,1.);
#707=VECTOR('',#886,1.);
#708=VECTOR('',#891,1.);
#709=VECTOR('',#892,1.);
#710=VECTOR('',#893,1.);
#711=VECTOR('',#898,1.);
#712=VECTOR('',#905,1.);
#713=AXIS2_PLACEMENT_3D('',#1028,#810,#811);
#714=AXIS2_PLACEMENT_3D('',#1037,#816,#817);
#715=AXIS2_PLACEMENT_3D('',#1038,#818,#819);
#716=AXIS2_PLACEMENT_3D('',#1042,#821,#822);
#717=AXIS2_PLACEMENT_3D('',#1043,#823,#824);
#718=AXIS2_PLACEMENT_3D('',#1044,#825,#826);
#719=AXIS2_PLACEMENT_3D('',#1048,#828,#829);
#720=AXIS2_PLACEMENT_3D('',#1049,#830,#831);
#721=AXIS2_PLACEMENT_3D('',#1050,#832,#833);
#722=AXIS2_PLACEMENT_3D('',#1054,#835,#836);
#723=AXIS2_PLACEMENT_3D('',#1055,#837,#838);
#724=AXIS2_PLACEMENT_3D('',#1061,#842,#843);
#725=AXIS2_PLACEMENT_3D('',#1062,#844,#845);
#726=AXIS2_PLACEMENT_3D('',#1066,#847,#848);
#727=AXIS2_PLACEMENT_3D('',#1067,#849,#850);
#728=AXIS2_PLACEMENT_3D('',#1068,#851,#852);
#729=AXIS2_PLACEMENT_3D('',#1072,#854,#855);
#730=AXIS2_PLACEMENT_3D('',#1073,#856,#857);
#731=AXIS2_PLACEMENT_3D('',#1074,#858,#859);
#732=AXIS2_PLACEMENT_3D('',#1078,#861,#862);
#733=AXIS2_PLACEMENT_3D('',#1079,#863,#864);
#734=AXIS2_PLACEMENT_3D('',#1085,#868,#869);
#735=AXIS2_PLACEMENT_3D('',#1086,#870,#871);
#736=AXIS2_PLACEMENT_3D('',#1090,#873,#874);
#737=AXIS2_PLACEMENT_3D('',#1091,#875,#876);
#738=AXIS2_PLACEMENT_3D('',#1092,#877,#878);
#739=AXIS2_PLACEMENT_3D('',#1096,#880,#881);
#740=AXIS2_PLACEMENT_3D('',#1097,#882,#883);
#741=AXIS2_PLACEMENT_3D('',#1098,#884,#885);
#742=AXIS2_PLACEMENT_3D('',#1102,#887,#888);
#743=AXIS2_PLACEMENT_3D('',#1103,#889,#890);
#744=AXIS2_PLACEMENT_3D('',#1109,#894,#895);
#745=AXIS2_PLACEMENT_3D('',#1110,#896,#897);
#746=AXIS2_PLACEMENT_3D('',#1114,#899,#900);
#747=AXIS2_PLACEMENT_3D('',#1115,#901,#902);
#748=AXIS2_PLACEMENT_3D('',#1116,#903,#904);
#749=AXIS2_PLACEMENT_3D('',#1120,#906,#907);
#750=AXIS2_PLACEMENT_3D('',#1121,#908,#909);
#751=AXIS2_PLACEMENT_3D('',#1122,#910,#911);
#752=AXIS2_PLACEMENT_3D('',#1123,#912,#913);
#753=AXIS2_PLACEMENT_3D('',#1124,#914,#915);
#754=AXIS2_PLACEMENT_3D('',#1125,#916,#917);
#755=AXIS2_PLACEMENT_3D('',#1127,#918,#919);
#756=AXIS2_PLACEMENT_3D('',#1129,#920,#921);
#757=AXIS2_PLACEMENT_3D('',#1131,#922,#923);
#758=AXIS2_PLACEMENT_3D('',#1133,#924,#925);
#759=AXIS2_PLACEMENT_3D('',#1135,#926,#927);
#760=AXIS2_PLACEMENT_3D('',#1136,#928,#929);
#761=AXIS2_PLACEMENT_3D('',#1138,#930,#931);
#762=AXIS2_PLACEMENT_3D('',#1140,#932,#933);
#763=AXIS2_PLACEMENT_3D('',#1142,#934,#935);
#764=AXIS2_PLACEMENT_3D('',#1144,#936,#937);
#765=AXIS2_PLACEMENT_3D('',#1145,#938,#939);
#766=AXIS2_PLACEMENT_3D('',#1147,#940,#941);
#767=AXIS2_PLACEMENT_3D('',#1148,#942,#943);
#768=AXIS2_PLACEMENT_3D('',#1150,#944,#945);
#769=AXIS2_PLACEMENT_3D('',#1151,#946,#947);
#770=AXIS2_PLACEMENT_3D('',#1153,#948,#949);
#771=AXIS2_PLACEMENT_3D('',#1155,#950,#951);
#772=AXIS2_PLACEMENT_3D('',#1157,#952,#953);
#773=AXIS2_PLACEMENT_3D('',#1159,#954,#955);
#774=AXIS2_PLACEMENT_3D('',#1160,#956,#957);
#775=AXIS2_PLACEMENT_3D('',#1162,#958,#959);
#776=AXIS2_PLACEMENT_3D('',#1163,#960,#961);
#777=AXIS2_PLACEMENT_3D('',#1165,#962,#963);
#778=AXIS2_PLACEMENT_3D('',#1166,#964,#965);
#779=AXIS2_PLACEMENT_3D('',#1167,#966,#967);
#780=AXIS2_PLACEMENT_3D('',#1169,#968,#969);
#781=AXIS2_PLACEMENT_3D('',#1170,#970,#971);
#782=AXIS2_PLACEMENT_3D('',#1171,#972,#973);
#783=AXIS2_PLACEMENT_3D('',#1173,#974,#975);
#784=AXIS2_PLACEMENT_3D('',#1174,#976,#977);
#785=AXIS2_PLACEMENT_3D('',#1175,#978,#979);
#786=AXIS2_PLACEMENT_3D('',#1177,#980,#981);
#787=AXIS2_PLACEMENT_3D('',#1178,#982,#983);
#788=AXIS2_PLACEMENT_3D('',#1179,#984,#985);
#789=AXIS2_PLACEMENT_3D('',#1181,#986,#987);
#790=AXIS2_PLACEMENT_3D('',#1182,#988,#989);
#791=AXIS2_PLACEMENT_3D('',#1183,#990,#991);
#792=AXIS2_PLACEMENT_3D('',#1185,#992,#993);
#793=AXIS2_PLACEMENT_3D('',#1186,#994,#995);
#794=AXIS2_PLACEMENT_3D('',#1187,#996,#997);
#795=AXIS2_PLACEMENT_3D('',#1189,#998,#999);
#796=AXIS2_PLACEMENT_3D('',#1190,#1000,#1001);
#797=AXIS2_PLACEMENT_3D('',#1191,#1002,#1003);
#798=AXIS2_PLACEMENT_3D('',#1193,#1004,#1005);
#799=AXIS2_PLACEMENT_3D('',#1194,#1006,#1007);
#800=AXIS2_PLACEMENT_3D('',#1195,#1008,#1009);
#801=AXIS2_PLACEMENT_3D('',#1197,#1010,#1011);
#802=AXIS2_PLACEMENT_3D('',#1198,#1012,#1013);
#803=AXIS2_PLACEMENT_3D('',#1199,#1014,#1015);
#804=AXIS2_PLACEMENT_3D('',#1201,#1016,#1017);
#805=AXIS2_PLACEMENT_3D('',#1202,#1018,#1019);
#806=AXIS2_PLACEMENT_3D('',#1203,#1020,#1021);
#807=AXIS2_PLACEMENT_3D('',#1205,#1022,#1023);
#808=AXIS2_PLACEMENT_3D('',#1206,#1024,#1025);
#809=AXIS2_PLACEMENT_3D('',#1207,#1026,#1027);
#810=DIRECTION('',(0.,0.,1.));
#811=DIRECTION('',(1.,0.,0.));
#812=DIRECTION('',(-5.17194615259851E-16,-1.,0.));
#813=DIRECTION('',(0.,0.,-1.));
#814=DIRECTION('',(-5.17194615259851E-16,-1.,0.));
#815=DIRECTION('',(0.,0.,-1.));
#816=DIRECTION('',(1.,-5.17194615259851E-16,0.));
#817=DIRECTION('',(5.16947595841089E-16,1.,0.));
#818=DIRECTION('',(0.,-1.346145417358E-15,1.));
#819=DIRECTION('',(0.,-1.,-1.346145417358E-15));
#820=DIRECTION('',(0.,0.,-1.));
#821=DIRECTION('',(0.,-1.346145417358E-15,1.));
#822=DIRECTION('',(0.,-1.,0.));
#823=DIRECTION('',(0.,0.,-1.));
#824=DIRECTION('',(-1.,0.,0.));
#825=DIRECTION('',(0.,-1.346145417358E-15,1.));
#826=DIRECTION('',(1.22464679914735E-16,1.,1.346145417358E-15));
#827=DIRECTION('',(0.,0.,-1.));
#828=DIRECTION('',(0.,-1.346145417358E-15,1.));
#829=DIRECTION('',(1.22464679914735E-16,1.,1.2335811384724E-15));
#830=DIRECTION('',(0.,0.,-1.));
#831=DIRECTION('',(-1.,0.,0.));
#832=DIRECTION('',(0.,-1.346145417358E-15,1.));
#833=DIRECTION('',(0.,-1.,-1.346145417358E-15));
#834=DIRECTION('',(0.,0.,-1.));
#835=DIRECTION('',(0.,-1.346145417358E-15,1.));
#836=DIRECTION('',(0.,-1.,0.));
#837=DIRECTION('',(0.,0.,-1.));
#838=DIRECTION('',(-1.,0.,0.));
#839=DIRECTION('',(1.,0.,0.));
#840=DIRECTION('',(0.,0.,-1.));
#841=DIRECTION('',(1.,0.,0.));
#842=DIRECTION('',(0.,1.,0.));
#843=DIRECTION('',(0.,0.,1.));
#844=DIRECTION('',(0.,-1.346145417358E-15,1.));
#845=DIRECTION('',(0.,-1.,-1.346145417358E-15));
#846=DIRECTION('',(0.,0.,-1.));
#847=DIRECTION('',(0.,-1.346145417358E-15,1.));
#848=DIRECTION('',(0.,-1.,0.));
#849=DIRECTION('',(0.,0.,-1.));
#850=DIRECTION('',(-1.,0.,0.));
#851=DIRECTION('',(0.,-1.346145417358E-15,1.));
#852=DIRECTION('',(1.22464679914735E-16,1.,1.346145417358E-15));
#853=DIRECTION('',(0.,0.,-1.));
#854=DIRECTION('',(0.,-1.346145417358E-15,1.));
#855=DIRECTION('',(1.22464679914735E-16,1.,1.2335811384724E-15));
#856=DIRECTION('',(0.,0.,-1.));
#857=DIRECTION('',(-1.,0.,0.));
#858=DIRECTION('',(0.,-1.346145417358E-15,1.));
#859=DIRECTION('',(0.,-1.,-1.346145417358E-15));
#860=DIRECTION('',(0.,0.,-1.));
#861=DIRECTION('',(0.,-1.346145417358E-15,1.));
#862=DIRECTION('',(0.,-1.,0.));
#863=DIRECTION('',(0.,0.,-1.));
#864=DIRECTION('',(-1.,0.,0.));
#865=DIRECTION('',(2.0687784610394E-15,1.,0.));
#866=DIRECTION('',(0.,0.,-1.));
#867=DIRECTION('',(2.0687784610394E-15,1.,0.));
#868=DIRECTION('',(-1.,2.0687784610394E-15,0.));
#869=DIRECTION('',(-2.06779038336435E-15,-1.,0.));
#870=DIRECTION('',(0.,-1.346145417358E-15,1.));
#871=DIRECTION('',(0.,-1.,-1.346145417358E-15));
#872=DIRECTION('',(0.,0.,-1.));
#873=DIRECTION('',(0.,-1.346145417358E-15,1.));
#874=DIRECTION('',(0.,-1.,0.));
#875=DIRECTION('',(0.,0.,-1.));
#876=DIRECTION('',(-1.,0.,0.));
#877=DIRECTION('',(0.,-1.346145417358E-15,1.));
#878=DIRECTION('',(1.22464679914735E-16,1.,1.346145417358E-15));
#879=DIRECTION('',(0.,0.,-1.));
#880=DIRECTION('',(0.,-1.346145417358E-15,1.));
#881=DIRECTION('',(1.22464679914735E-16,1.,1.2335811384724E-15));
#882=DIRECTION('',(0.,0.,-1.));
#883=DIRECTION('',(-1.,0.,0.));
#884=DIRECTION('',(0.,-1.346145417358E-15,1.));
#885=DIRECTION('',(0.,-1.,-1.346145417358E-15));
#886=DIRECTION('',(0.,0.,-1.));
#887=DIRECTION('',(0.,-1.346145417358E-15,1.));
#888=DIRECTION('',(0.,-1.,0.));
#889=DIRECTION('',(0.,0.,-1.));
#890=DIRECTION('',(-1.,0.,0.));
#891=DIRECTION('',(-1.,0.,0.));
#892=DIRECTION('',(0.,0.,-1.));
#893=DIRECTION('',(-1.,0.,0.));
#894=DIRECTION('',(0.,-1.,0.));
#895=DIRECTION('',(0.,0.,-1.));
#896=DIRECTION('',(0.,-1.346145417358E-15,1.));
#897=DIRECTION('',(0.,-1.,-1.346145417358E-15));
#898=DIRECTION('',(0.,0.,-1.));
#899=DIRECTION('',(0.,-1.346145417358E-15,1.));
#900=DIRECTION('',(0.,-1.,0.));
#901=DIRECTION('',(0.,0.,-1.));
#902=DIRECTION('',(-1.,0.,0.));
#903=DIRECTION('',(0.,-1.346145417358E-15,1.));
#904=DIRECTION('',(1.22464679914735E-16,1.,1.346145417358E-15));
#905=DIRECTION('',(0.,0.,-1.));
#906=DIRECTION('',(0.,-1.346145417358E-15,1.));
#907=DIRECTION('',(1.22464679914735E-16,1.,1.2335811384724E-15));
#908=DIRECTION('',(0.,0.,-1.));
#909=DIRECTION('',(-1.,0.,0.));
#910=DIRECTION('',(0.,-1.346145417358E-15,1.));
#911=DIRECTION('',(0.,-1.,-1.346145417358E-15));
#912=DIRECTION('',(0.,-1.346145417358E-15,1.));
#913=DIRECTION('',(0.,-1.,0.));
#914=DIRECTION('',(0.,0.,-1.));
#915=DIRECTION('',(-1.,0.,0.));
#916=DIRECTION('',(0.,0.,1.));
#917=DIRECTION('',(0.999999999999999,0.,0.));
#918=DIRECTION('',(0.,0.,1.));
#919=DIRECTION('',(0.999999999999999,0.,0.));
#920=DIRECTION('',(0.,0.,1.));
#921=DIRECTION('',(0.999999999999999,0.,0.));
#922=DIRECTION('',(0.,0.,1.));
#923=DIRECTION('',(0.999999999999999,0.,0.));
#924=DIRECTION('',(0.,0.,1.));
#925=DIRECTION('',(1.,0.,0.));
#926=DIRECTION('',(0.,-1.346145417358E-15,1.));
#927=DIRECTION('',(0.,-1.,-1.346145417358E-15));
#928=DIRECTION('',(0.,0.,1.));
#929=DIRECTION('',(0.999999999999999,0.,0.));
#930=DIRECTION('',(0.,0.,1.));
#931=DIRECTION('',(0.999999999999999,0.,0.));
#932=DIRECTION('',(0.,0.,1.));
#933=DIRECTION('',(0.999999999999999,0.,0.));
#934=DIRECTION('',(0.,0.,1.));
#935=DIRECTION('',(0.999999999999999,0.,0.));
#936=DIRECTION('',(0.,-1.346145417358E-15,1.));
#937=DIRECTION('',(0.,-1.,-1.346145417358E-15));
#938=DIRECTION('',(0.,1.346145417358E-15,-1.));
#939=DIRECTION('',(0.,-1.,-1.37858819282925E-15));
#940=DIRECTION('',(0.,0.,1.));
#941=DIRECTION('',(1.,0.,0.));
#942=DIRECTION('',(0.,0.,-1.));
#943=DIRECTION('',(1.,1.22464679914735E-16,0.));
#944=DIRECTION('',(0.,-6.73072708679001E-16,1.));
#945=DIRECTION('',(0.,-1.,-6.73072708679001E-16));
#946=DIRECTION('',(0.,0.,1.));
#947=DIRECTION('',(1.,0.,0.));
#948=DIRECTION('',(0.,0.,1.));
#949=DIRECTION('',(0.999999999999999,0.,0.));
#950=DIRECTION('',(0.,0.,1.));
#951=DIRECTION('',(1.,0.,0.));
#952=DIRECTION('',(0.,0.,1.));
#953=DIRECTION('',(1.,0.,0.));
#954=DIRECTION('',(0.,0.,1.));
#955=DIRECTION('',(1.,0.,0.));
#956=DIRECTION('',(0.,0.,-1.));
#957=DIRECTION('',(1.,0.,0.));
#958=DIRECTION('',(0.,0.,-1.));
#959=DIRECTION('',(-1.,0.,0.));
#960=DIRECTION('',(0.,0.,-1.));
#961=DIRECTION('',(0.999999999999999,0.,0.));
#962=DIRECTION('',(0.,0.,1.));
#963=DIRECTION('',(0.999999999999999,0.,0.));
#964=DIRECTION('',(0.,0.,1.));
#965=DIRECTION('',(1.,0.,0.));
#966=DIRECTION('',(0.,0.,-1.));
#967=DIRECTION('',(0.999999999999999,0.,0.));
#968=DIRECTION('',(0.,0.,1.));
#969=DIRECTION('',(0.999999999999999,0.,0.));
#970=DIRECTION('',(0.,0.,1.));
#971=DIRECTION('',(1.,0.,0.));
#972=DIRECTION('',(0.,0.,-1.));
#973=DIRECTION('',(0.999999999999999,0.,0.));
#974=DIRECTION('',(0.,0.,1.));
#975=DIRECTION('',(0.999999999999999,0.,0.));
#976=DIRECTION('',(0.,0.,1.));
#977=DIRECTION('',(1.,0.,0.));
#978=DIRECTION('',(0.,0.,-1.));
#979=DIRECTION('',(0.999999999999999,0.,0.));
#980=DIRECTION('',(0.,0.,1.));
#981=DIRECTION('',(0.999999999999999,0.,0.));
#982=DIRECTION('',(0.,0.,1.));
#983=DIRECTION('',(1.,0.,0.));
#984=DIRECTION('',(0.,0.,-1.));
#985=DIRECTION('',(0.999999999999999,0.,0.));
#986=DIRECTION('',(0.,2.692290834716E-15,-1.));
#987=DIRECTION('',(0.,0.999999999999999,2.77555756156289E-15));
#988=DIRECTION('',(0.,0.,1.));
#989=DIRECTION('',(1.,0.,0.));
#990=DIRECTION('',(0.,0.,-1.));
#991=DIRECTION('',(0.999999999999999,0.,0.));
#992=DIRECTION('',(0.,2.692290834716E-15,-1.));
#993=DIRECTION('',(0.,0.999999999999999,2.77555756156289E-15));
#994=DIRECTION('',(0.,0.,1.));
#995=DIRECTION('',(1.,0.,0.));
#996=DIRECTION('',(0.,0.,-1.));
#997=DIRECTION('',(0.999999999999999,0.,0.));
#998=DIRECTION('',(0.,2.692290834716E-15,-1.));
#999=DIRECTION('',(0.,0.999999999999999,2.77555756156289E-15));
#1000=DIRECTION('',(0.,0.,1.));
#1001=DIRECTION('',(1.,0.,0.));
#1002=DIRECTION('',(0.,0.,-1.));
#1003=DIRECTION('',(0.999999999999999,0.,0.));
#1004=DIRECTION('',(0.,2.692290834716E-15,-1.));
#1005=DIRECTION('',(0.,0.999999999999999,2.77555756156289E-15));
#1006=DIRECTION('',(0.,0.,1.));
#1007=DIRECTION('',(1.,0.,0.));
#1008=DIRECTION('',(0.,0.,-1.));
#1009=DIRECTION('',(1.,0.,0.));
#1010=DIRECTION('',(0.,0.,1.));
#1011=DIRECTION('',(1.,0.,0.));
#1012=DIRECTION('',(0.,0.,1.));
#1013=DIRECTION('',(1.,0.,0.));
#1014=DIRECTION('',(0.,0.,-1.));
#1015=DIRECTION('',(1.,0.,0.));
#1016=DIRECTION('',(0.,0.,1.));
#1017=DIRECTION('',(1.,0.,0.));
#1018=DIRECTION('',(0.,0.,1.));
#1019=DIRECTION('',(1.,0.,0.));
#1020=DIRECTION('',(0.,0.,-1.));
#1021=DIRECTION('',(0.999999999999999,0.,0.));
#1022=DIRECTION('',(0.,0.,1.));
#1023=DIRECTION('',(1.,0.,0.));
#1024=DIRECTION('',(0.,0.,1.));
#1025=DIRECTION('',(0.999999999999999,0.,0.));
#1026=DIRECTION('',(0.,0.,-1.));
#1027=DIRECTION('',(-1.,0.,-4.10787996284592E-17));
#1028=CARTESIAN_POINT('',(0.,0.,0.));
#1029=CARTESIAN_POINT('',(-17.5,13.4164078649987,0.));
#1030=CARTESIAN_POINT('',(-17.5,13.4164078649987,0.));
#1031=CARTESIAN_POINT('',(-17.5,-13.4164078649987,0.));
#1032=CARTESIAN_POINT('',(-17.5,-13.4164078649987,35.));
#1033=CARTESIAN_POINT('',(-17.5,-13.4164078649987,35.));
#1034=CARTESIAN_POINT('',(-17.5,13.4164078649987,35.));
#1035=CARTESIAN_POINT('',(-17.5,13.4164078649987,35.));
#1036=CARTESIAN_POINT('',(-17.5,13.4164078649987,35.));
#1037=CARTESIAN_POINT('',(-17.5,13.4164078649987,35.));
#1038=CARTESIAN_POINT('',(-15.5,-13.4164078649987,-1.77635683940025E-14));
#1039=CARTESIAN_POINT('',(-17.0121951219512,-14.7253257054864,-1.95255621466731E-14));
#1040=CARTESIAN_POINT('',(-17.0121951219512,-14.7253257054864,35.));
#1041=CARTESIAN_POINT('',(-17.0121951219512,-14.7253257054864,35.));
#1042=CARTESIAN_POINT('',(-15.5,-13.4164078649987,35.));
#1043=CARTESIAN_POINT('',(-15.5,-13.4164078649987,35.));
#1044=CARTESIAN_POINT('',(-1.84181750449941E-15,-7.54033188179913E-16,3.42113882891801E-46));
#1045=CARTESIAN_POINT('',(-14.7253257054864,-17.0121951219512,-2.29008885026148E-14));
#1046=CARTESIAN_POINT('',(-14.7253257054864,-17.0121951219512,35.));
#1047=CARTESIAN_POINT('',(-14.7253257054864,-17.0121951219512,35.));
#1048=CARTESIAN_POINT('',(-1.84181750449941E-15,-7.54033188179913E-16,35.));
#1049=CARTESIAN_POINT('',(-1.84181750449941E-15,-7.54033188179913E-16,35.));
#1050=CARTESIAN_POINT('',(-13.4164078649987,-15.5,-2.1316282072803E-14));
#1051=CARTESIAN_POINT('',(-13.4164078649987,-17.5,-2.4008572907519E-14));
#1052=CARTESIAN_POINT('',(-13.4164078649987,-17.5,35.));
#1053=CARTESIAN_POINT('',(-13.4164078649987,-17.5,35.));
#1054=CARTESIAN_POINT('',(-13.4164078649987,-15.5,35.));
#1055=CARTESIAN_POINT('',(-13.4164078649987,-15.5,35.));
#1056=CARTESIAN_POINT('',(-13.4164078649987,-17.5,-2.48689957516035E-14));
#1057=CARTESIAN_POINT('',(13.4164078649987,-17.5,-2.48689957516035E-14));
#1058=CARTESIAN_POINT('',(13.4164078649987,-17.5,35.));
#1059=CARTESIAN_POINT('',(13.4164078649987,-17.5,35.));
#1060=CARTESIAN_POINT('',(-13.4164078649987,-17.5,35.));
#1061=CARTESIAN_POINT('',(-13.4164078649987,-17.5,35.));
#1062=CARTESIAN_POINT('',(13.4164078649987,-15.5,-2.13162820728031E-14));
#1063=CARTESIAN_POINT('',(14.7253257054864,-17.0121951219512,-2.33519166063688E-14));
#1064=CARTESIAN_POINT('',(14.7253257054864,-17.0121951219512,35.));
#1065=CARTESIAN_POINT('',(14.7253257054864,-17.0121951219512,35.));
#1066=CARTESIAN_POINT('',(13.4164078649987,-15.5,35.));
#1067=CARTESIAN_POINT('',(13.4164078649987,-15.5,35.));
#1068=CARTESIAN_POINT('',(-1.84181750449941E-15,-7.54033188179913E-16,3.42113882891801E-46));
#1069=CARTESIAN_POINT('',(17.0121951219512,-14.7253257054864,-1.98224297175445E-14));
#1070=CARTESIAN_POINT('',(17.0121951219512,-14.7253257054864,35.));
#1071=CARTESIAN_POINT('',(17.0121951219512,-14.7253257054864,35.));
#1072=CARTESIAN_POINT('',(-1.84181750449941E-15,-7.54033188179913E-16,35.));
#1073=CARTESIAN_POINT('',(-1.84181750449941E-15,-7.54033188179913E-16,35.));
#1074=CARTESIAN_POINT('',(15.5,-13.4164078649987,-1.77635683940025E-14));
#1075=CARTESIAN_POINT('',(17.5,-13.4164078649987,-1.77635683940025E-14));
#1076=CARTESIAN_POINT('',(17.5,-13.4164078649987,35.));
#1077=CARTESIAN_POINT('',(17.5,-13.4164078649987,35.));
#1078=CARTESIAN_POINT('',(15.5,-13.4164078649987,35.));
#1079=CARTESIAN_POINT('',(15.5,-13.4164078649987,35.));
#1080=CARTESIAN_POINT('',(17.4999999999999,-13.4164078649987,0.));
#1081=CARTESIAN_POINT('',(17.5,13.4164078649987,0.));
#1082=CARTESIAN_POINT('',(17.5,13.4164078649987,35.));
#1083=CARTESIAN_POINT('',(17.5,13.4164078649987,35.));
#1084=CARTESIAN_POINT('',(17.4999999999999,-13.4164078649987,35.));
#1085=CARTESIAN_POINT('',(17.4999999999999,-13.4164078649987,35.));
#1086=CARTESIAN_POINT('',(15.5,13.4164078649987,1.77635683940025E-14));
#1087=CARTESIAN_POINT('',(17.0121951219512,14.7253257054864,1.95255621466731E-14));
#1088=CARTESIAN_POINT('',(17.0121951219512,14.7253257054864,35.));
#1089=CARTESIAN_POINT('',(17.0121951219512,14.7253257054864,35.));
#1090=CARTESIAN_POINT('',(15.5,13.4164078649987,35.));
#1091=CARTESIAN_POINT('',(15.5,13.4164078649987,35.));
#1092=CARTESIAN_POINT('',(-1.84181750449941E-15,-7.54033188179913E-16,3.42113882891801E-46));
#1093=CARTESIAN_POINT('',(14.7253257054864,17.0121951219512,2.29008885026148E-14));
#1094=CARTESIAN_POINT('',(14.7253257054864,17.0121951219512,35.));
#1095=CARTESIAN_POINT('',(14.7253257054864,17.0121951219512,35.));
#1096=CARTESIAN_POINT('',(-1.84181750449941E-15,-7.54033188179913E-16,35.));
#1097=CARTESIAN_POINT('',(-1.84181750449941E-15,-7.54033188179913E-16,35.));
#1098=CARTESIAN_POINT('',(13.4164078649987,15.5,2.1316282072803E-14));
#1099=CARTESIAN_POINT('',(13.4164078649987,17.5,2.4008572907519E-14));
#1100=CARTESIAN_POINT('',(13.4164078649987,17.5,35.));
#1101=CARTESIAN_POINT('',(13.4164078649987,17.5,35.));
#1102=CARTESIAN_POINT('',(13.4164078649987,15.5,35.));
#1103=CARTESIAN_POINT('',(13.4164078649987,15.5,35.));
#1104=CARTESIAN_POINT('',(13.4164078649987,17.5,0.));
#1105=CARTESIAN_POINT('',(-13.4164078649987,17.5,0.));
#1106=CARTESIAN_POINT('',(-13.4164078649987,17.5,35.));
#1107=CARTESIAN_POINT('',(-13.4164078649987,17.5,35.));
#1108=CARTESIAN_POINT('',(13.4164078649987,17.5,35.));
#1109=CARTESIAN_POINT('',(13.4164078649987,17.5,35.));
#1110=CARTESIAN_POINT('',(-13.4164078649987,15.5,2.1316282072803E-14));
#1111=CARTESIAN_POINT('',(-14.7253257054864,17.0121951219512,2.33519166063688E-14));
#1112=CARTESIAN_POINT('',(-14.7253257054864,17.0121951219512,35.));
#1113=CARTESIAN_POINT('',(-14.7253257054864,17.0121951219512,35.));
#1114=CARTESIAN_POINT('',(-13.4164078649987,15.5,35.));
#1115=CARTESIAN_POINT('',(-13.4164078649987,15.5,35.));
#1116=CARTESIAN_POINT('',(-1.84181750449941E-15,-7.54033188179913E-16,3.42113882891801E-46));
#1117=CARTESIAN_POINT('',(-17.0121951219512,14.7253257054864,1.98224297175445E-14));
#1118=CARTESIAN_POINT('',(-17.0121951219512,14.7253257054864,35.));
#1119=CARTESIAN_POINT('',(-17.0121951219512,14.7253257054864,35.));
#1120=CARTESIAN_POINT('',(-1.84181750449941E-15,-7.54033188179913E-16,35.));
#1121=CARTESIAN_POINT('',(-1.84181750449941E-15,-7.54033188179913E-16,35.));
#1122=CARTESIAN_POINT('',(-15.5,13.4164078649987,1.77635683940025E-14));
#1123=CARTESIAN_POINT('',(-15.5,13.4164078649987,35.));
#1124=CARTESIAN_POINT('',(-15.5,13.4164078649987,35.));
#1125=CARTESIAN_POINT('',(14.3189123190277,-14.3189123190275,35.));
#1126=CARTESIAN_POINT('',(15.5689123190277,-14.3189123190275,35.));
#1127=CARTESIAN_POINT('',(-14.3189123190277,14.3189123190275,35.));
#1128=CARTESIAN_POINT('',(-13.0689123190277,14.3189123190275,35.));
#1129=CARTESIAN_POINT('',(-14.3189123190277,-14.3189123190275,35.));
#1130=CARTESIAN_POINT('',(-13.0689123190277,-14.3189123190275,35.));
#1131=CARTESIAN_POINT('',(14.3189123190277,14.3189123190275,35.));
#1132=CARTESIAN_POINT('',(15.5689123190277,14.3189123190275,35.));
#1133=CARTESIAN_POINT('',(0.,0.,35.));
#1134=CARTESIAN_POINT('',(15.1,0.,35.));
#1135=CARTESIAN_POINT('',(-15.5,-13.4164078649987,35.));
#1136=CARTESIAN_POINT('',(14.3189123190277,-14.3189123190275,-3.96090245339912E-14));
#1137=CARTESIAN_POINT('',(15.5689123190277,-14.3189123190275,-3.96090245339912E-14));
#1138=CARTESIAN_POINT('',(-14.3189123190277,14.3189123190275,-4.56561037572208E-14));
#1139=CARTESIAN_POINT('',(-13.0689123190277,14.3189123190275,-4.56561037572208E-14));
#1140=CARTESIAN_POINT('',(-14.3189123190277,-14.3189123190275,-3.96090245339912E-14));
#1141=CARTESIAN_POINT('',(-13.0689123190277,-14.3189123190275,-3.96090245339912E-14));
#1142=CARTESIAN_POINT('',(14.3189123190277,14.3189123190275,-4.56561037572208E-14));
#1143=CARTESIAN_POINT('',(15.5689123190277,14.3189123190275,-4.56561037572208E-14));
#1144=CARTESIAN_POINT('',(-15.5,-13.4164078649987,-1.77635683940025E-14));
#1145=CARTESIAN_POINT('',(-1.07094028522602E-16,-4.67336256542163E-14,34.));
#1146=CARTESIAN_POINT('',(-1.07094028522602E-16,-15.1,34.));
#1147=CARTESIAN_POINT('',(0.,0.,34.));
#1148=CARTESIAN_POINT('',(0.,0.,34.));
#1149=CARTESIAN_POINT('',(13.5,1.65327317884892E-15,34.));
#1150=CARTESIAN_POINT('',(-5.35470142613008E-17,-2.33668128271081E-14,34.));
#1151=CARTESIAN_POINT('',(0.,0.,36.1025));
#1152=CARTESIAN_POINT('',(13.,0.,36.1025));
#1153=CARTESIAN_POINT('',(10.5733557973744,1.64138575055606,36.1025));
#1154=CARTESIAN_POINT('',(11.8233557973744,1.64138575055606,36.1025));
#1155=CARTESIAN_POINT('',(-3.86519614129574,-9.97748759905586,36.1025));
#1156=CARTESIAN_POINT('',(-2.61519614129574,-9.97748759905586,36.1025));
#1157=CARTESIAN_POINT('',(-6.70815965607852,8.33610184849967,36.1025));
#1158=CARTESIAN_POINT('',(-5.45815965607852,8.33610184849967,36.1025));
#1159=CARTESIAN_POINT('',(0.,0.,36.1025));
#1160=CARTESIAN_POINT('',(0.,0.,35.6025));
#1161=CARTESIAN_POINT('',(13.5,0.,35.6025));
#1162=CARTESIAN_POINT('',(0.,0.,36.1025));
#1163=CARTESIAN_POINT('',(14.3189123190277,14.3189123190275,29.));
#1164=CARTESIAN_POINT('',(15.5689123190277,14.3189123190275,29.));
#1165=CARTESIAN_POINT('',(14.3189123190277,14.3189123190275,29.));
#1166=CARTESIAN_POINT('',(14.3189123190277,14.3189123190275,29.));
#1167=CARTESIAN_POINT('',(-14.3189123190277,-14.3189123190275,29.));
#1168=CARTESIAN_POINT('',(-13.0689123190277,-14.3189123190275,29.));
#1169=CARTESIAN_POINT('',(-14.3189123190277,-14.3189123190275,29.));
#1170=CARTESIAN_POINT('',(-14.3189123190277,-14.3189123190275,29.));
#1171=CARTESIAN_POINT('',(-14.3189123190277,14.3189123190275,29.));
#1172=CARTESIAN_POINT('',(-13.0689123190277,14.3189123190275,29.));
#1173=CARTESIAN_POINT('',(-14.3189123190277,14.3189123190275,29.));
#1174=CARTESIAN_POINT('',(-14.3189123190277,14.3189123190275,29.));
#1175=CARTESIAN_POINT('',(14.3189123190277,-14.3189123190275,29.));
#1176=CARTESIAN_POINT('',(15.5689123190277,-14.3189123190275,29.));
#1177=CARTESIAN_POINT('',(14.3189123190277,-14.3189123190275,29.));
#1178=CARTESIAN_POINT('',(14.3189123190277,-14.3189123190275,29.));
#1179=CARTESIAN_POINT('',(14.3189123190277,14.3189123190275,5.99999999999995));
#1180=CARTESIAN_POINT('',(15.5689123190277,14.3189123190275,5.99999999999995));
#1181=CARTESIAN_POINT('',(14.3189123190277,14.3189123190275,5.99999999999995));
#1182=CARTESIAN_POINT('',(14.3189123190277,14.3189123190275,5.99999999999995));
#1183=CARTESIAN_POINT('',(-14.3189123190277,-14.3189123190275,5.99999999999996));
#1184=CARTESIAN_POINT('',(-13.0689123190277,-14.3189123190275,5.99999999999996));
#1185=CARTESIAN_POINT('',(-14.3189123190277,-14.3189123190275,5.99999999999996));
#1186=CARTESIAN_POINT('',(-14.3189123190277,-14.3189123190275,5.99999999999996));
#1187=CARTESIAN_POINT('',(-14.3189123190277,14.3189123190275,5.99999999999995));
#1188=CARTESIAN_POINT('',(-13.0689123190277,14.3189123190275,5.99999999999995));
#1189=CARTESIAN_POINT('',(-14.3189123190277,14.3189123190275,5.99999999999995));
#1190=CARTESIAN_POINT('',(-14.3189123190277,14.3189123190275,5.99999999999995));
#1191=CARTESIAN_POINT('',(14.3189123190277,-14.3189123190275,5.99999999999996));
#1192=CARTESIAN_POINT('',(15.5689123190277,-14.3189123190275,5.99999999999996));
#1193=CARTESIAN_POINT('',(14.3189123190277,-14.3189123190275,5.99999999999996));
#1194=CARTESIAN_POINT('',(14.3189123190277,-14.3189123190275,5.99999999999996));
#1195=CARTESIAN_POINT('',(-6.70815965607852,8.33610184849967,30.1));
#1196=CARTESIAN_POINT('',(-5.45815965607852,8.33610184849967,30.1));
#1197=CARTESIAN_POINT('',(-6.70815965607852,8.33610184849967,30.1));
#1198=CARTESIAN_POINT('',(-6.70815965607852,8.33610184849967,30.1));
#1199=CARTESIAN_POINT('',(-3.86519614129574,-9.97748759905586,30.1));
#1200=CARTESIAN_POINT('',(-2.61519614129574,-9.97748759905586,30.1));
#1201=CARTESIAN_POINT('',(-3.86519614129574,-9.97748759905586,30.1));
#1202=CARTESIAN_POINT('',(-3.86519614129574,-9.97748759905586,30.1));
#1203=CARTESIAN_POINT('',(10.5733557973744,1.64138575055606,30.1));
#1204=CARTESIAN_POINT('',(11.8233557973744,1.64138575055606,30.1));
#1205=CARTESIAN_POINT('',(10.5733557973744,1.64138575055606,30.1));
#1206=CARTESIAN_POINT('',(10.5733557973744,1.64138575055606,30.1));
#1207=CARTESIAN_POINT('',(0.,0.,35.6025));
#1208=MECHANICAL_DESIGN_GEOMETRIC_PRESENTATION_REPRESENTATION('',(#86),
#1209);
#1209=(
GEOMETRIC_REPRESENTATION_CONTEXT(3)
GLOBAL_UNCERTAINTY_ASSIGNED_CONTEXT((#1210))
GLOBAL_UNIT_ASSIGNED_CONTEXT((#1216,#1212,#1211))
REPRESENTATION_CONTEXT('Motor_HTDW3532','TOP_LEVEL_ASSEMBLY_PART')
);
#1210=UNCERTAINTY_MEASURE_WITH_UNIT(LENGTH_MEASURE(2.E-5),#1216,
'DISTANCE_ACCURACY_VALUE','Maximum Tolerance applied to model');
#1211=(
NAMED_UNIT(*)
SI_UNIT($,.STERADIAN.)
SOLID_ANGLE_UNIT()
);
#1212=(
CONVERSION_BASED_UNIT('DEGREE',#1214)
NAMED_UNIT(#1213)
PLANE_ANGLE_UNIT()
);
#1213=DIMENSIONAL_EXPONENTS(0.,0.,0.,0.,0.,0.,0.);
#1214=PLANE_ANGLE_MEASURE_WITH_UNIT(PLANE_ANGLE_MEASURE(0.0174532925),#1215);
#1215=(
NAMED_UNIT(*)
PLANE_ANGLE_UNIT()
SI_UNIT($,.RADIAN.)
);
#1216=(
LENGTH_UNIT()
NAMED_UNIT(*)
SI_UNIT(.MILLI.,.METRE.)
);
ENDSEC;
END-ISO-10303-21;
