ISO-10303-21;
HEADER;
/* Generated by software containing ST-Developer
 * from STEP Tools, Inc. (www.steptools.com) 
 */
/* OPTION: using custom schema-name function */

FILE_DESCRIPTION(
/* description */ (''),
/* implementation_level */ '2;1');

FILE_NAME(
/* name */ 'Mouth.stp',
/* time_stamp */ '2026-09-11T23:30:49+08:00',
/* author */ (''),
/* organization */ (''),
/* preprocessor_version */ 'ST-DEVELOPER v20',
/* originating_system */ 'SIEMENS PLM Software NX2406.1700',
/* authorisation */ '');

FILE_SCHEMA (('AP203_CONFIGURATION_CONTROLLED_3D_DESIGN_OF_MECHANICAL_PARTS_AND_ASSEMBLIES_MIM_LF { 1 0 10303 403 2 1 2}'));
ENDSEC;

DATA;
#10=PROPERTY_DEFINITION_REPRESENTATION(#14,#12);
#11=PROPERTY_DEFINITION_REPRESENTATION(#15,#13);
#12=REPRESENTATION('',(#16),#1760);
#13=REPRESENTATION('',(#17),#1760);
#14=PROPERTY_DEFINITION('pmi validation property','',#73);
#15=PROPERTY_DEFINITION('pmi validation property','',#73);
#16=VALUE_REPRESENTATION_ITEM('number of annotations',COUNT_MEASURE(0.));
#17=VALUE_REPRESENTATION_ITEM('number of views',COUNT_MEASURE(0.));
#18=SHAPE_REPRESENTATION_RELATIONSHIP('None',
'relationship between Full_wamoduck_asm_objects-None and Full_wamoduck
_asm_objects-None',#84,#19);
#19=ADVANCED_BREP_SHAPE_REPRESENTATION('Full_wamoduck_asm_objects-None',
(#94),#1760);
#20=APPLIED_APPROVAL_ASSIGNMENT(#32,(#74));
#21=APPLIED_APPROVAL_ASSIGNMENT(#33,(#76));
#22=APPLIED_APPROVAL_ASSIGNMENT(#34,(#46));
#23=APPROVAL_PERSON_ORGANIZATION(#38,#32,#26);
#24=APPROVAL_PERSON_ORGANIZATION(#39,#33,#27);
#25=APPROVAL_PERSON_ORGANIZATION(#40,#34,#28);
#26=APPROVAL_ROLE('approver');
#27=APPROVAL_ROLE('approver');
#28=APPROVAL_ROLE('approver');
#29=APPROVAL_DATE_TIME(#54,#32);
#30=APPROVAL_DATE_TIME(#55,#33);
#31=APPROVAL_DATE_TIME(#56,#34);
#32=APPROVAL(#35,' ');
#33=APPROVAL(#36,' ');
#34=APPROVAL(#37,' ');
#35=APPROVAL_STATUS('not_yet_approved');
#36=APPROVAL_STATUS('not_yet_approved');
#37=APPROVAL_STATUS('not_yet_approved');
#38=PERSON_AND_ORGANIZATION(#44,#41);
#39=PERSON_AND_ORGANIZATION(#44,#42);
#40=PERSON_AND_ORGANIZATION(#44,#43);
#41=ORGANIZATION(' ',' ',' ');
#42=ORGANIZATION(' ',' ',' ');
#43=ORGANIZATION(' ',' ',' ');
#44=PERSON(' ',' ',' ',(' '),$,$);
#45=APPLIED_SECURITY_CLASSIFICATION_ASSIGNMENT(#46,(#76));
#46=SECURITY_CLASSIFICATION(' ',' ',#47);
#47=SECURITY_CLASSIFICATION_LEVEL('confidential');
#48=APPLIED_DATE_AND_TIME_ASSIGNMENT(#52,#50,(#74));
#49=APPLIED_DATE_AND_TIME_ASSIGNMENT(#53,#51,(#46));
#50=DATE_TIME_ROLE('creation_date');
#51=DATE_TIME_ROLE('classification_date');
#52=DATE_AND_TIME(#67,#57);
#53=DATE_AND_TIME(#68,#58);
#54=DATE_AND_TIME(#69,#59);
#55=DATE_AND_TIME(#70,#60);
#56=DATE_AND_TIME(#71,#61);
#57=LOCAL_TIME(0,0,0.,#62);
#58=LOCAL_TIME(0,0,0.,#63);
#59=LOCAL_TIME(0,0,0.,#64);
#60=LOCAL_TIME(0,0,0.,#65);
#61=LOCAL_TIME(0,0,0.,#66);
#62=COORDINATED_UNIVERSAL_TIME_OFFSET(0,0,.BEHIND.);
#63=COORDINATED_UNIVERSAL_TIME_OFFSET(0,0,.BEHIND.);
#64=COORDINATED_UNIVERSAL_TIME_OFFSET(0,0,.BEHIND.);
#65=COORDINATED_UNIVERSAL_TIME_OFFSET(0,0,.BEHIND.);
#66=COORDINATED_UNIVERSAL_TIME_OFFSET(0,0,.BEHIND.);
#67=CALENDAR_DATE(0,1,1);
#68=CALENDAR_DATE(0,1,1);
#69=CALENDAR_DATE(0,1,1);
#70=CALENDAR_DATE(0,1,1);
#71=CALENDAR_DATE(0,1,1);
#72=SHAPE_DEFINITION_REPRESENTATION(#73,#84);
#73=PRODUCT_DEFINITION_SHAPE('','',#74);
#74=PRODUCT_DEFINITION(' ','',#76,#75);
#75=PRODUCT_DEFINITION_CONTEXT('part definition',#83,'design');
#76=PRODUCT_DEFINITION_FORMATION_WITH_SPECIFIED_SOURCE(' ',' ',#78,
 .NOT_KNOWN.);
#77=PRODUCT_RELATED_PRODUCT_CATEGORY('detail','',(#78));
#78=PRODUCT('Full_wamoduck_asm_objects','Full_wamoduck_asm_objects',' ',
(#81));
#79=PRODUCT_CATEGORY('part',' ');
#80=PRODUCT_CATEGORY(' ','');
#81=PRODUCT_CONTEXT(' ',#83,'mechanical');
#82=APPLICATION_PROTOCOL_DEFINITION('international standard',
'config_control_design',2010,#83);
#83=APPLICATION_CONTEXT(
'configuration controlled 3D designs of mechanical parts and assemblie
s');
#84=SHAPE_REPRESENTATION('Full_wamoduck_asm_objects-None',(#969),#1760);
#85=PRESENTATION_LAYER_ASSIGNMENT('1','Layer 1',(#94));
#86=STYLED_ITEM('',(#87),#94);
#87=PRESENTATION_STYLE_ASSIGNMENT((#88));
#88=SURFACE_STYLE_USAGE(.BOTH.,#89);
#89=SURFACE_SIDE_STYLE('',(#90));
#90=SURFACE_STYLE_FILL_AREA(#91);
#91=FILL_AREA_STYLE('',(#92));
#92=FILL_AREA_STYLE_COLOUR('',#93);
#93=DRAUGHTING_PRE_DEFINED_COLOUR('yellow');
#94=MANIFOLD_SOLID_BREP('',#95);
#95=CLOSED_SHELL('',(#223,#224,#225,#226,#227,#228,#229,#230,#231,#232,
#233,#234,#235,#236,#237,#238,#239,#240,#241,#242,#243,#244,#245,#246,#247,
#248,#249,#250,#251,#252,#253,#254,#255,#256,#257,#258,#259,#260,#261,#262,
#263,#264,#265,#266,#267,#268,#269,#270,#271,#272,#273,#274,#275,#276));
#96=(
BOUNDED_SURFACE()
B_SPLINE_SURFACE(3,2,((#1628,#1629,#1630),(#1631,#1632,#1633),(#1634,#1635,
#1636),(#1637,#1638,#1639)),.UNSPECIFIED.,.F.,.F.,.F.)
B_SPLINE_SURFACE_WITH_KNOTS((4,4),(3,3),(0.,1.),(0.,1.),.UNSPECIFIED.)
GEOMETRIC_REPRESENTATION_ITEM()
RATIONAL_B_SPLINE_SURFACE(((1.,0.771239213444691,1.),(1.,0.771168714964585,
1.),(1.,0.771663113547439,1.),(1.,0.77056449821816,1.)))
REPRESENTATION_ITEM('')
SURFACE()
);
#97=(
BOUNDED_SURFACE()
B_SPLINE_SURFACE(3,2,((#1642,#1643,#1644),(#1645,#1646,#1647),(#1648,#1649,
#1650),(#1651,#1652,#1653),(#1654,#1655,#1656),(#1657,#1658,#1659)),
 .UNSPECIFIED.,.F.,.F.,.F.)
B_SPLINE_SURFACE_WITH_KNOTS((4,2,4),(3,3),(0.,0.5,1.),(0.,1.),
 .UNSPECIFIED.)
GEOMETRIC_REPRESENTATION_ITEM()
RATIONAL_B_SPLINE_SURFACE(((1.,0.74302180502458,1.),(1.,0.742953537335461,
1.),(1.,0.743252913253569,1.),(1.,0.741672294425191,1.),(1.,0.739678533725748,
1.),(1.,0.734223985281879,1.)))
REPRESENTATION_ITEM('')
SURFACE()
);
#98=(
BOUNDED_SURFACE()
B_SPLINE_SURFACE(3,2,((#1663,#1664,#1665),(#1666,#1667,#1668),(#1669,#1670,
#1671),(#1672,#1673,#1674),(#1675,#1676,#1677),(#1678,#1679,#1680)),
 .UNSPECIFIED.,.F.,.F.,.F.)
B_SPLINE_SURFACE_WITH_KNOTS((4,2,4),(3,3),(0.,0.5,1.),(0.,1.),
 .UNSPECIFIED.)
GEOMETRIC_REPRESENTATION_ITEM()
RATIONAL_B_SPLINE_SURFACE(((1.,0.743021805024578,1.),(1.,0.742953537336297,
1.),(1.,0.743252913252448,1.),(1.,0.741672294426306,1.),(1.,0.739678533724903,
1.),(1.,0.734223985281876,1.)))
REPRESENTATION_ITEM('')
SURFACE()
);
#99=(
BOUNDED_SURFACE()
B_SPLINE_SURFACE(3,2,((#1683,#1684,#1685),(#1686,#1687,#1688),(#1689,#1690,
#1691),(#1692,#1693,#1694)),.UNSPECIFIED.,.F.,.F.,.F.)
B_SPLINE_SURFACE_WITH_KNOTS((4,4),(3,3),(0.,1.),(0.,1.),.UNSPECIFIED.)
GEOMETRIC_REPRESENTATION_ITEM()
RATIONAL_B_SPLINE_SURFACE(((1.,0.77123921344469,1.),(1.,0.771168714964582,
1.),(1.,0.771663113547431,1.),(1.,0.770564498218169,1.)))
REPRESENTATION_ITEM('')
SURFACE()
);
#100=(
BOUNDED_SURFACE()
B_SPLINE_SURFACE(3,2,((#1708,#1709,#1710),(#1711,#1712,#1713),(#1714,#1715,
#1716),(#1717,#1718,#1719),(#1720,#1721,#1722),(#1723,#1724,#1725),(#1726,
#1727,#1728),(#1729,#1730,#1731)),.UNSPECIFIED.,.F.,.F.,.F.)
B_SPLINE_SURFACE_WITH_KNOTS((4,2,2,4),(3,3),(0.,0.5,0.75,1.),(0.,1.),
 .UNSPECIFIED.)
GEOMETRIC_REPRESENTATION_ITEM()
RATIONAL_B_SPLINE_SURFACE(((1.,0.991004583757032,1.),(1.,0.97883104094392,
1.),(1.,0.954924851162102,1.),(1.,0.902342759306284,1.),(1.,0.881820673542484,
1.),(1.,0.837456456240085,1.),(1.,0.813432930637356,1.),(1.,0.788934751506487,
1.)))
REPRESENTATION_ITEM('')
SURFACE()
);
#101=(
BOUNDED_SURFACE()
B_SPLINE_SURFACE(3,2,((#1734,#1735,#1736),(#1737,#1738,#1739),(#1740,#1741,
#1742),(#1743,#1744,#1745),(#1746,#1747,#1748),(#1749,#1750,#1751),(#1752,
#1753,#1754),(#1755,#1756,#1757)),.UNSPECIFIED.,.F.,.F.,.F.)
B_SPLINE_SURFACE_WITH_KNOTS((4,2,2,4),(3,3),(0.,0.5,0.75,1.),(0.,1.),
 .UNSPECIFIED.)
GEOMETRIC_REPRESENTATION_ITEM()
RATIONAL_B_SPLINE_SURFACE(((1.,0.991004583757046,1.),(1.,0.979354186836634,
1.),(1.,0.956940855113061,1.),(1.,0.907976345836809,1.),(1.,0.888863754307603,
1.),(1.,0.847280328700539,1.),(1.,0.824750047985197,1.),(1.,0.801413612565369,
1.)))
REPRESENTATION_ITEM('')
SURFACE()
);
#102=SPHERICAL_SURFACE('',#1044,5.);
#103=SPHERICAL_SURFACE('',#1058,5.);
#104=SPHERICAL_SURFACE('',#1061,5.);
#105=SPHERICAL_SURFACE('',#1063,5.);
#106=TOROIDAL_SURFACE('',#1042,25.,5.);
#107=TOROIDAL_SURFACE('',#1059,25.,5.);
#108=CONICAL_SURFACE('',#992,1.65,45.);
#109=CONICAL_SURFACE('',#993,1.65,45.);
#110=CONICAL_SURFACE('',#994,1.65,45.);
#111=CYLINDRICAL_SURFACE('',#980,15.4999999999947);
#112=CYLINDRICAL_SURFACE('',#987,1.65);
#113=CYLINDRICAL_SURFACE('',#989,1.65);
#114=CYLINDRICAL_SURFACE('',#991,1.65);
#115=CYLINDRICAL_SURFACE('',#996,13.6);
#116=CYLINDRICAL_SURFACE('',#1022,5.);
#117=CYLINDRICAL_SURFACE('',#1024,5.);
#118=CYLINDRICAL_SURFACE('',#1025,10.);
#119=CYLINDRICAL_SURFACE('',#1026,10.);
#120=CYLINDRICAL_SURFACE('',#1027,42.);
#121=CYLINDRICAL_SURFACE('',#1029,20.);
#122=CYLINDRICAL_SURFACE('',#1031,20.);
#123=CYLINDRICAL_SURFACE('',#1033,3.);
#124=CYLINDRICAL_SURFACE('',#1035,8.);
#125=CYLINDRICAL_SURFACE('',#1037,8.);
#126=CYLINDRICAL_SURFACE('',#1039,3.);
#127=CYLINDRICAL_SURFACE('',#1046,5.);
#128=CYLINDRICAL_SURFACE('',#1051,5.);
#129=CYLINDRICAL_SURFACE('',#1056,5.);
#130=B_SPLINE_CURVE_WITH_KNOTS('',3,(#1327,#1328,#1329,#1330,#1331,#1332,
#1333,#1334),.UNSPECIFIED.,.F.,.F.,(4,2,2,4),(0.,0.499999999999996,0.749999999999998,
1.),.UNSPECIFIED.);
#131=B_SPLINE_CURVE_WITH_KNOTS('',3,(#1337,#1338,#1339,#1340),
 .UNSPECIFIED.,.F.,.F.,(4,4),(0.,1.),.UNSPECIFIED.);
#132=B_SPLINE_CURVE_WITH_KNOTS('',3,(#1432,#1433,#1434,#1435,#1436,#1437),
 .UNSPECIFIED.,.F.,.F.,(4,2,4),(0.,0.5,1.),.UNSPECIFIED.);
#133=B_SPLINE_CURVE_WITH_KNOTS('',3,(#1441,#1442,#1443,#1444,#1445,#1446,
#1447,#1448,#1449,#1450,#1451,#1452,#1453),.UNSPECIFIED.,.F.,.F.,(4,3,3,
3,4),(0.,0.244812288026863,0.490908883063234,0.724462059349552,1.),
 .UNSPECIFIED.);
#134=B_SPLINE_CURVE_WITH_KNOTS('',3,(#1455,#1456,#1457,#1458),
 .UNSPECIFIED.,.F.,.F.,(4,4),(0.,1.),.UNSPECIFIED.);
#135=B_SPLINE_CURVE_WITH_KNOTS('',3,(#1514,#1515,#1516,#1517),
 .UNSPECIFIED.,.F.,.F.,(4,4),(0.,1.),.UNSPECIFIED.);
#136=B_SPLINE_CURVE_WITH_KNOTS('',3,(#1519,#1520,#1521,#1522),
 .UNSPECIFIED.,.F.,.F.,(4,4),(0.,1.),.UNSPECIFIED.);
#137=B_SPLINE_CURVE_WITH_KNOTS('',3,(#1524,#1525,#1526,#1527),
 .UNSPECIFIED.,.F.,.F.,(4,4),(0.,1.),.UNSPECIFIED.);
#138=B_SPLINE_CURVE_WITH_KNOTS('',3,(#1529,#1530,#1531,#1532),
 .UNSPECIFIED.,.F.,.F.,(4,4),(0.,1.),.UNSPECIFIED.);
#139=B_SPLINE_CURVE_WITH_KNOTS('',3,(#1534,#1535,#1536,#1537,#1538,#1539),
 .UNSPECIFIED.,.F.,.F.,(4,2,4),(0.,0.5,1.),.UNSPECIFIED.);
#140=B_SPLINE_CURVE_WITH_KNOTS('',3,(#1541,#1542,#1543,#1544),
 .UNSPECIFIED.,.F.,.F.,(4,4),(0.,1.),.UNSPECIFIED.);
#141=B_SPLINE_CURVE_WITH_KNOTS('',3,(#1548,#1549,#1550,#1551),
 .UNSPECIFIED.,.F.,.F.,(4,4),(0.,1.),.UNSPECIFIED.);
#142=B_SPLINE_CURVE_WITH_KNOTS('',3,(#1553,#1554,#1555,#1556,#1557,#1558),
 .UNSPECIFIED.,.F.,.F.,(4,2,4),(0.,0.5,1.),.UNSPECIFIED.);
#143=B_SPLINE_CURVE_WITH_KNOTS('',3,(#1560,#1561,#1562,#1563),
 .UNSPECIFIED.,.F.,.F.,(4,4),(0.,1.),.UNSPECIFIED.);
#144=B_SPLINE_CURVE_WITH_KNOTS('',3,(#1566,#1567,#1568,#1569,#1570,#1571),
 .UNSPECIFIED.,.F.,.F.,(4,2,4),(0.,0.5,1.),.UNSPECIFIED.);
#145=B_SPLINE_CURVE_WITH_KNOTS('',3,(#1580,#1581,#1582,#1583,#1584,#1585),
 .UNSPECIFIED.,.F.,.F.,(4,2,4),(0.,0.5,1.),.UNSPECIFIED.);
#146=B_SPLINE_CURVE_WITH_KNOTS('',3,(#1587,#1588,#1589,#1590,#1591,#1592,
#1593),.UNSPECIFIED.,.F.,.F.,(4,3,4),(0.,0.355600980640503,1.),
 .UNSPECIFIED.);
#147=B_SPLINE_CURVE_WITH_KNOTS('',3,(#1614,#1615,#1616,#1617,#1618,#1619,
#1620),.UNSPECIFIED.,.F.,.F.,(4,3,4),(0.,0.996138074422207,1.),
 .UNSPECIFIED.);
#148=B_SPLINE_CURVE_WITH_KNOTS('',3,(#1699,#1700,#1701,#1702,#1703,#1704,
#1705),.UNSPECIFIED.,.F.,.F.,(4,3,4),(0.,0.00469096512175736,1.),
 .UNSPECIFIED.);
#149=FACE_BOUND('',#340,.T.);
#150=FACE_BOUND('',#341,.T.);
#151=FACE_BOUND('',#342,.T.);
#152=FACE_BOUND('',#343,.T.);
#153=FACE_BOUND('',#346,.T.);
#154=FACE_BOUND('',#347,.T.);
#155=FACE_BOUND('',#348,.T.);
#156=FACE_BOUND('',#349,.T.);
#157=FACE_BOUND('',#350,.T.);
#158=FACE_BOUND('',#351,.T.);
#159=FACE_BOUND('',#352,.T.);
#160=FACE_BOUND('',#353,.T.);
#161=FACE_BOUND('',#354,.T.);
#162=FACE_BOUND('',#355,.T.);
#163=FACE_BOUND('',#356,.T.);
#164=FACE_BOUND('',#357,.T.);
#165=FACE_BOUND('',#358,.T.);
#166=FACE_BOUND('',#359,.T.);
#167=FACE_BOUND('',#360,.T.);
#168=FACE_BOUND('',#361,.T.);
#169=FACE_BOUND('',#362,.T.);
#170=FACE_BOUND('',#363,.T.);
#171=FACE_BOUND('',#364,.T.);
#172=FACE_BOUND('',#365,.T.);
#173=FACE_BOUND('',#366,.T.);
#174=FACE_BOUND('',#367,.T.);
#175=FACE_BOUND('',#368,.T.);
#176=FACE_BOUND('',#369,.T.);
#177=CIRCLE('',#971,3.65);
#178=CIRCLE('',#972,3.65);
#179=CIRCLE('',#973,3.65);
#180=CIRCLE('',#974,15.4999999999947);
#181=CIRCLE('',#978,15.4999999999947);
#182=CIRCLE('',#979,15.4999999999947);
#183=CIRCLE('',#981,1.65);
#184=CIRCLE('',#982,1.65);
#185=CIRCLE('',#983,1.65);
#186=CIRCLE('',#984,13.6);
#187=CIRCLE('',#986,1.65);
#188=CIRCLE('',#988,1.65);
#189=CIRCLE('',#990,1.65);
#190=CIRCLE('',#995,13.6);
#191=CIRCLE('',#998,3.);
#192=CIRCLE('',#999,8.);
#193=CIRCLE('',#1000,8.);
#194=CIRCLE('',#1001,3.);
#195=CIRCLE('',#1002,5.);
#196=CIRCLE('',#1003,10.);
#197=CIRCLE('',#1004,10.);
#198=CIRCLE('',#1005,5.);
#199=CIRCLE('',#1009,25.);
#200=CIRCLE('',#1011,25.);
#201=CIRCLE('',#1013,3.);
#202=CIRCLE('',#1014,8.);
#203=CIRCLE('',#1015,8.);
#204=CIRCLE('',#1016,3.);
#205=CIRCLE('',#1021,5.);
#206=CIRCLE('',#1023,5.);
#207=CIRCLE('',#1028,20.);
#208=CIRCLE('',#1030,20.);
#209=CIRCLE('',#1041,5.);
#210=CIRCLE('',#1043,5.);
#211=CIRCLE('',#1045,5.);
#212=CIRCLE('',#1047,5.);
#213=CIRCLE('',#1048,5.);
#214=CIRCLE('',#1049,5.);
#215=CIRCLE('',#1050,5.);
#216=CIRCLE('',#1052,5.);
#217=CIRCLE('',#1053,5.);
#218=CIRCLE('',#1054,5.);
#219=CIRCLE('',#1055,5.);
#220=CIRCLE('',#1057,5.);
#221=CIRCLE('',#1060,5.);
#222=CIRCLE('',#1062,5.);
#223=ADVANCED_FACE('',(#297),#277,.F.);
#224=ADVANCED_FACE('',(#149,#150,#151,#152),#278,.F.);
#225=ADVANCED_FACE('',(#298),#279,.T.);
#226=ADVANCED_FACE('',(#299),#280,.F.);
#227=ADVANCED_FACE('',(#153,#154),#111,.T.);
#228=ADVANCED_FACE('',(#155,#156,#157,#158),#281,.T.);
#229=ADVANCED_FACE('',(#159,#160),#112,.F.);
#230=ADVANCED_FACE('',(#161,#162),#113,.F.);
#231=ADVANCED_FACE('',(#163,#164),#114,.F.);
#232=ADVANCED_FACE('',(#165,#166),#108,.F.);
#233=ADVANCED_FACE('',(#167,#168),#109,.F.);
#234=ADVANCED_FACE('',(#169,#170),#110,.F.);
#235=ADVANCED_FACE('',(#171,#172),#115,.F.);
#236=ADVANCED_FACE('',(#173,#174),#282,.T.);
#237=ADVANCED_FACE('',(#175,#176),#283,.T.);
#238=ADVANCED_FACE('',(#300),#284,.T.);
#239=ADVANCED_FACE('',(#301),#285,.T.);
#240=ADVANCED_FACE('',(#302),#286,.T.);
#241=ADVANCED_FACE('',(#303),#287,.T.);
#242=ADVANCED_FACE('',(#304),#288,.F.);
#243=ADVANCED_FACE('',(#305),#289,.F.);
#244=ADVANCED_FACE('',(#306),#290,.F.);
#245=ADVANCED_FACE('',(#307),#291,.F.);
#246=ADVANCED_FACE('',(#308),#116,.T.);
#247=ADVANCED_FACE('',(#309),#117,.T.);
#248=ADVANCED_FACE('',(#310),#118,.T.);
#249=ADVANCED_FACE('',(#311),#119,.T.);
#250=ADVANCED_FACE('',(#312),#120,.F.);
#251=ADVANCED_FACE('',(#313),#121,.F.);
#252=ADVANCED_FACE('',(#314),#122,.F.);
#253=ADVANCED_FACE('',(#315),#292,.F.);
#254=ADVANCED_FACE('',(#316),#123,.F.);
#255=ADVANCED_FACE('',(#317),#293,.F.);
#256=ADVANCED_FACE('',(#318),#124,.F.);
#257=ADVANCED_FACE('',(#319),#294,.F.);
#258=ADVANCED_FACE('',(#320),#125,.F.);
#259=ADVANCED_FACE('',(#321),#295,.F.);
#260=ADVANCED_FACE('',(#322),#126,.F.);
#261=ADVANCED_FACE('',(#323),#296,.F.);
#262=ADVANCED_FACE('',(#324),#106,.T.);
#263=ADVANCED_FACE('',(#325),#102,.T.);
#264=ADVANCED_FACE('',(#326),#127,.T.);
#265=ADVANCED_FACE('',(#327),#96,.T.);
#266=ADVANCED_FACE('',(#328),#97,.T.);
#267=ADVANCED_FACE('',(#329),#128,.T.);
#268=ADVANCED_FACE('',(#330),#98,.T.);
#269=ADVANCED_FACE('',(#331),#99,.T.);
#270=ADVANCED_FACE('',(#332),#129,.T.);
#271=ADVANCED_FACE('',(#333),#103,.T.);
#272=ADVANCED_FACE('',(#334),#107,.T.);
#273=ADVANCED_FACE('',(#335),#100,.T.);
#274=ADVANCED_FACE('',(#336),#104,.T.);
#275=ADVANCED_FACE('',(#337),#101,.T.);
#276=ADVANCED_FACE('',(#338),#105,.T.);
#277=PLANE('',#970);
#278=PLANE('',#975);
#279=PLANE('',#976);
#280=PLANE('',#977);
#281=PLANE('',#985);
#282=PLANE('',#997);
#283=PLANE('',#1006);
#284=PLANE('',#1007);
#285=PLANE('',#1008);
#286=PLANE('',#1010);
#287=PLANE('',#1012);
#288=PLANE('',#1017);
#289=PLANE('',#1018);
#290=PLANE('',#1019);
#291=PLANE('',#1020);
#292=PLANE('',#1032);
#293=PLANE('',#1034);
#294=PLANE('',#1036);
#295=PLANE('',#1038);
#296=PLANE('',#1040);
#297=FACE_OUTER_BOUND('',#339,.T.);
#298=FACE_OUTER_BOUND('',#344,.T.);
#299=FACE_OUTER_BOUND('',#345,.T.);
#300=FACE_OUTER_BOUND('',#370,.T.);
#301=FACE_OUTER_BOUND('',#371,.T.);
#302=FACE_OUTER_BOUND('',#372,.T.);
#303=FACE_OUTER_BOUND('',#373,.T.);
#304=FACE_OUTER_BOUND('',#374,.T.);
#305=FACE_OUTER_BOUND('',#375,.T.);
#306=FACE_OUTER_BOUND('',#376,.T.);
#307=FACE_OUTER_BOUND('',#377,.T.);
#308=FACE_OUTER_BOUND('',#378,.T.);
#309=FACE_OUTER_BOUND('',#379,.T.);
#310=FACE_OUTER_BOUND('',#380,.T.);
#311=FACE_OUTER_BOUND('',#381,.T.);
#312=FACE_OUTER_BOUND('',#382,.T.);
#313=FACE_OUTER_BOUND('',#383,.T.);
#314=FACE_OUTER_BOUND('',#384,.T.);
#315=FACE_OUTER_BOUND('',#385,.T.);
#316=FACE_OUTER_BOUND('',#386,.T.);
#317=FACE_OUTER_BOUND('',#387,.T.);
#318=FACE_OUTER_BOUND('',#388,.T.);
#319=FACE_OUTER_BOUND('',#389,.T.);
#320=FACE_OUTER_BOUND('',#390,.T.);
#321=FACE_OUTER_BOUND('',#391,.T.);
#322=FACE_OUTER_BOUND('',#392,.T.);
#323=FACE_OUTER_BOUND('',#393,.T.);
#324=FACE_OUTER_BOUND('',#394,.T.);
#325=FACE_OUTER_BOUND('',#395,.T.);
#326=FACE_OUTER_BOUND('',#396,.T.);
#327=FACE_OUTER_BOUND('',#397,.T.);
#328=FACE_OUTER_BOUND('',#398,.T.);
#329=FACE_OUTER_BOUND('',#399,.T.);
#330=FACE_OUTER_BOUND('',#400,.T.);
#331=FACE_OUTER_BOUND('',#401,.T.);
#332=FACE_OUTER_BOUND('',#402,.T.);
#333=FACE_OUTER_BOUND('',#403,.T.);
#334=FACE_OUTER_BOUND('',#404,.T.);
#335=FACE_OUTER_BOUND('',#405,.T.);
#336=FACE_OUTER_BOUND('',#406,.T.);
#337=FACE_OUTER_BOUND('',#407,.T.);
#338=FACE_OUTER_BOUND('',#408,.T.);
#339=EDGE_LOOP('',(#409,#410,#411,#412));
#340=EDGE_LOOP('',(#413));
#341=EDGE_LOOP('',(#414));
#342=EDGE_LOOP('',(#415));
#343=EDGE_LOOP('',(#416,#417,#418,#419,#420,#421));
#344=EDGE_LOOP('',(#422,#423,#424,#425));
#345=EDGE_LOOP('',(#426,#427,#428,#429));
#346=EDGE_LOOP('',(#430));
#347=EDGE_LOOP('',(#431,#432,#433,#434));
#348=EDGE_LOOP('',(#435));
#349=EDGE_LOOP('',(#436));
#350=EDGE_LOOP('',(#437));
#351=EDGE_LOOP('',(#438));
#352=EDGE_LOOP('',(#439));
#353=EDGE_LOOP('',(#440));
#354=EDGE_LOOP('',(#441));
#355=EDGE_LOOP('',(#442));
#356=EDGE_LOOP('',(#443));
#357=EDGE_LOOP('',(#444));
#358=EDGE_LOOP('',(#445));
#359=EDGE_LOOP('',(#446));
#360=EDGE_LOOP('',(#447));
#361=EDGE_LOOP('',(#448));
#362=EDGE_LOOP('',(#449));
#363=EDGE_LOOP('',(#450));
#364=EDGE_LOOP('',(#451));
#365=EDGE_LOOP('',(#452));
#366=EDGE_LOOP('',(#453));
#367=EDGE_LOOP('',(#454));
#368=EDGE_LOOP('',(#455,#456,#457,#458,#459,#460,#461,#462,#463,#464,#465,
#466));
#369=EDGE_LOOP('',(#467,#468,#469,#470,#471,#472,#473,#474,#475,#476,#477,
#478));
#370=EDGE_LOOP('',(#479,#480,#481,#482,#483,#484,#485,#486));
#371=EDGE_LOOP('',(#487,#488,#489,#490));
#372=EDGE_LOOP('',(#491,#492,#493,#494,#495));
#373=EDGE_LOOP('',(#496,#497,#498,#499));
#374=EDGE_LOOP('',(#500,#501,#502,#503,#504,#505,#506,#507,#508,#509,#510,
#511));
#375=EDGE_LOOP('',(#512,#513,#514,#515));
#376=EDGE_LOOP('',(#516,#517,#518,#519));
#377=EDGE_LOOP('',(#520,#521,#522,#523));
#378=EDGE_LOOP('',(#524,#525,#526,#527));
#379=EDGE_LOOP('',(#528,#529,#530,#531));
#380=EDGE_LOOP('',(#532,#533,#534,#535,#536));
#381=EDGE_LOOP('',(#537,#538,#539,#540,#541));
#382=EDGE_LOOP('',(#542,#543,#544,#545,#546,#547));
#383=EDGE_LOOP('',(#548,#549,#550,#551));
#384=EDGE_LOOP('',(#552,#553,#554,#555));
#385=EDGE_LOOP('',(#556,#557,#558,#559));
#386=EDGE_LOOP('',(#560,#561,#562,#563));
#387=EDGE_LOOP('',(#564,#565,#566,#567));
#388=EDGE_LOOP('',(#568,#569,#570,#571));
#389=EDGE_LOOP('',(#572,#573,#574,#575));
#390=EDGE_LOOP('',(#576,#577,#578,#579));
#391=EDGE_LOOP('',(#580,#581,#582,#583));
#392=EDGE_LOOP('',(#584,#585,#586,#587));
#393=EDGE_LOOP('',(#588,#589,#590,#591));
#394=EDGE_LOOP('',(#592,#593,#594,#595,#596));
#395=EDGE_LOOP('',(#597,#598,#599));
#396=EDGE_LOOP('',(#600,#601,#602,#603));
#397=EDGE_LOOP('',(#604,#605,#606,#607));
#398=EDGE_LOOP('',(#608,#609,#610,#611));
#399=EDGE_LOOP('',(#612,#613,#614,#615));
#400=EDGE_LOOP('',(#616,#617,#618,#619));
#401=EDGE_LOOP('',(#620,#621,#622,#623));
#402=EDGE_LOOP('',(#624,#625,#626,#627));
#403=EDGE_LOOP('',(#628,#629,#630));
#404=EDGE_LOOP('',(#631,#632,#633,#634,#635));
#405=EDGE_LOOP('',(#636,#637,#638,#639,#640,#641));
#406=EDGE_LOOP('',(#642,#643,#644));
#407=EDGE_LOOP('',(#645,#646,#647,#648,#649));
#408=EDGE_LOOP('',(#650,#651,#652));
#409=ORIENTED_EDGE('',*,*,#733,.F.);
#410=ORIENTED_EDGE('',*,*,#734,.T.);
#411=ORIENTED_EDGE('',*,*,#735,.T.);
#412=ORIENTED_EDGE('',*,*,#736,.F.);
#413=ORIENTED_EDGE('',*,*,#737,.T.);
#414=ORIENTED_EDGE('',*,*,#738,.T.);
#415=ORIENTED_EDGE('',*,*,#739,.T.);
#416=ORIENTED_EDGE('',*,*,#740,.T.);
#417=ORIENTED_EDGE('',*,*,#741,.T.);
#418=ORIENTED_EDGE('',*,*,#742,.T.);
#419=ORIENTED_EDGE('',*,*,#743,.F.);
#420=ORIENTED_EDGE('',*,*,#744,.T.);
#421=ORIENTED_EDGE('',*,*,#745,.T.);
#422=ORIENTED_EDGE('',*,*,#746,.T.);
#423=ORIENTED_EDGE('',*,*,#747,.T.);
#424=ORIENTED_EDGE('',*,*,#735,.F.);
#425=ORIENTED_EDGE('',*,*,#748,.F.);
#426=ORIENTED_EDGE('',*,*,#749,.F.);
#427=ORIENTED_EDGE('',*,*,#750,.T.);
#428=ORIENTED_EDGE('',*,*,#751,.F.);
#429=ORIENTED_EDGE('',*,*,#746,.F.);
#430=ORIENTED_EDGE('',*,*,#752,.F.);
#431=ORIENTED_EDGE('',*,*,#753,.F.);
#432=ORIENTED_EDGE('',*,*,#754,.T.);
#433=ORIENTED_EDGE('',*,*,#755,.T.);
#434=ORIENTED_EDGE('',*,*,#743,.T.);
#435=ORIENTED_EDGE('',*,*,#756,.F.);
#436=ORIENTED_EDGE('',*,*,#757,.F.);
#437=ORIENTED_EDGE('',*,*,#758,.F.);
#438=ORIENTED_EDGE('',*,*,#759,.T.);
#439=ORIENTED_EDGE('',*,*,#760,.T.);
#440=ORIENTED_EDGE('',*,*,#756,.T.);
#441=ORIENTED_EDGE('',*,*,#761,.T.);
#442=ORIENTED_EDGE('',*,*,#757,.T.);
#443=ORIENTED_EDGE('',*,*,#762,.T.);
#444=ORIENTED_EDGE('',*,*,#758,.T.);
#445=ORIENTED_EDGE('',*,*,#737,.F.);
#446=ORIENTED_EDGE('',*,*,#761,.F.);
#447=ORIENTED_EDGE('',*,*,#738,.F.);
#448=ORIENTED_EDGE('',*,*,#760,.F.);
#449=ORIENTED_EDGE('',*,*,#739,.F.);
#450=ORIENTED_EDGE('',*,*,#762,.F.);
#451=ORIENTED_EDGE('',*,*,#763,.T.);
#452=ORIENTED_EDGE('',*,*,#759,.F.);
#453=ORIENTED_EDGE('',*,*,#752,.T.);
#454=ORIENTED_EDGE('',*,*,#763,.F.);
#455=ORIENTED_EDGE('',*,*,#734,.F.);
#456=ORIENTED_EDGE('',*,*,#764,.T.);
#457=ORIENTED_EDGE('',*,*,#765,.T.);
#458=ORIENTED_EDGE('',*,*,#766,.T.);
#459=ORIENTED_EDGE('',*,*,#767,.T.);
#460=ORIENTED_EDGE('',*,*,#768,.T.);
#461=ORIENTED_EDGE('',*,*,#769,.T.);
#462=ORIENTED_EDGE('',*,*,#770,.T.);
#463=ORIENTED_EDGE('',*,*,#771,.T.);
#464=ORIENTED_EDGE('',*,*,#772,.T.);
#465=ORIENTED_EDGE('',*,*,#749,.T.);
#466=ORIENTED_EDGE('',*,*,#748,.T.);
#467=ORIENTED_EDGE('',*,*,#773,.T.);
#468=ORIENTED_EDGE('',*,*,#744,.F.);
#469=ORIENTED_EDGE('',*,*,#755,.F.);
#470=ORIENTED_EDGE('',*,*,#774,.T.);
#471=ORIENTED_EDGE('',*,*,#775,.F.);
#472=ORIENTED_EDGE('',*,*,#776,.T.);
#473=ORIENTED_EDGE('',*,*,#777,.T.);
#474=ORIENTED_EDGE('',*,*,#778,.T.);
#475=ORIENTED_EDGE('',*,*,#779,.T.);
#476=ORIENTED_EDGE('',*,*,#780,.T.);
#477=ORIENTED_EDGE('',*,*,#781,.T.);
#478=ORIENTED_EDGE('',*,*,#782,.T.);
#479=ORIENTED_EDGE('',*,*,#742,.F.);
#480=ORIENTED_EDGE('',*,*,#783,.T.);
#481=ORIENTED_EDGE('',*,*,#784,.F.);
#482=ORIENTED_EDGE('',*,*,#785,.T.);
#483=ORIENTED_EDGE('',*,*,#786,.T.);
#484=ORIENTED_EDGE('',*,*,#787,.T.);
#485=ORIENTED_EDGE('',*,*,#788,.T.);
#486=ORIENTED_EDGE('',*,*,#753,.T.);
#487=ORIENTED_EDGE('',*,*,#789,.F.);
#488=ORIENTED_EDGE('',*,*,#774,.F.);
#489=ORIENTED_EDGE('',*,*,#754,.F.);
#490=ORIENTED_EDGE('',*,*,#788,.F.);
#491=ORIENTED_EDGE('',*,*,#787,.F.);
#492=ORIENTED_EDGE('',*,*,#790,.T.);
#493=ORIENTED_EDGE('',*,*,#791,.T.);
#494=ORIENTED_EDGE('',*,*,#775,.T.);
#495=ORIENTED_EDGE('',*,*,#789,.T.);
#496=ORIENTED_EDGE('',*,*,#792,.T.);
#497=ORIENTED_EDGE('',*,*,#793,.T.);
#498=ORIENTED_EDGE('',*,*,#745,.F.);
#499=ORIENTED_EDGE('',*,*,#773,.F.);
#500=ORIENTED_EDGE('',*,*,#794,.F.);
#501=ORIENTED_EDGE('',*,*,#795,.F.);
#502=ORIENTED_EDGE('',*,*,#796,.F.);
#503=ORIENTED_EDGE('',*,*,#797,.F.);
#504=ORIENTED_EDGE('',*,*,#798,.F.);
#505=ORIENTED_EDGE('',*,*,#799,.F.);
#506=ORIENTED_EDGE('',*,*,#800,.F.);
#507=ORIENTED_EDGE('',*,*,#801,.F.);
#508=ORIENTED_EDGE('',*,*,#802,.F.);
#509=ORIENTED_EDGE('',*,*,#736,.T.);
#510=ORIENTED_EDGE('',*,*,#747,.F.);
#511=ORIENTED_EDGE('',*,*,#751,.T.);
#512=ORIENTED_EDGE('',*,*,#803,.T.);
#513=ORIENTED_EDGE('',*,*,#804,.T.);
#514=ORIENTED_EDGE('',*,*,#805,.T.);
#515=ORIENTED_EDGE('',*,*,#779,.F.);
#516=ORIENTED_EDGE('',*,*,#806,.T.);
#517=ORIENTED_EDGE('',*,*,#807,.T.);
#518=ORIENTED_EDGE('',*,*,#808,.T.);
#519=ORIENTED_EDGE('',*,*,#781,.F.);
#520=ORIENTED_EDGE('',*,*,#809,.T.);
#521=ORIENTED_EDGE('',*,*,#810,.T.);
#522=ORIENTED_EDGE('',*,*,#811,.T.);
#523=ORIENTED_EDGE('',*,*,#777,.F.);
#524=ORIENTED_EDGE('',*,*,#791,.F.);
#525=ORIENTED_EDGE('',*,*,#812,.T.);
#526=ORIENTED_EDGE('',*,*,#809,.F.);
#527=ORIENTED_EDGE('',*,*,#776,.F.);
#528=ORIENTED_EDGE('',*,*,#808,.F.);
#529=ORIENTED_EDGE('',*,*,#813,.T.);
#530=ORIENTED_EDGE('',*,*,#792,.F.);
#531=ORIENTED_EDGE('',*,*,#782,.F.);
#532=ORIENTED_EDGE('',*,*,#814,.T.);
#533=ORIENTED_EDGE('',*,*,#815,.T.);
#534=ORIENTED_EDGE('',*,*,#806,.F.);
#535=ORIENTED_EDGE('',*,*,#780,.F.);
#536=ORIENTED_EDGE('',*,*,#805,.F.);
#537=ORIENTED_EDGE('',*,*,#811,.F.);
#538=ORIENTED_EDGE('',*,*,#816,.T.);
#539=ORIENTED_EDGE('',*,*,#817,.T.);
#540=ORIENTED_EDGE('',*,*,#803,.F.);
#541=ORIENTED_EDGE('',*,*,#778,.F.);
#542=ORIENTED_EDGE('',*,*,#784,.T.);
#543=ORIENTED_EDGE('',*,*,#818,.T.);
#544=ORIENTED_EDGE('',*,*,#819,.T.);
#545=ORIENTED_EDGE('',*,*,#820,.T.);
#546=ORIENTED_EDGE('',*,*,#821,.T.);
#547=ORIENTED_EDGE('',*,*,#822,.T.);
#548=ORIENTED_EDGE('',*,*,#823,.T.);
#549=ORIENTED_EDGE('',*,*,#824,.T.);
#550=ORIENTED_EDGE('',*,*,#825,.T.);
#551=ORIENTED_EDGE('',*,*,#826,.T.);
#552=ORIENTED_EDGE('',*,*,#827,.T.);
#553=ORIENTED_EDGE('',*,*,#828,.T.);
#554=ORIENTED_EDGE('',*,*,#829,.T.);
#555=ORIENTED_EDGE('',*,*,#830,.T.);
#556=ORIENTED_EDGE('',*,*,#764,.F.);
#557=ORIENTED_EDGE('',*,*,#733,.T.);
#558=ORIENTED_EDGE('',*,*,#802,.T.);
#559=ORIENTED_EDGE('',*,*,#831,.F.);
#560=ORIENTED_EDGE('',*,*,#765,.F.);
#561=ORIENTED_EDGE('',*,*,#831,.T.);
#562=ORIENTED_EDGE('',*,*,#801,.T.);
#563=ORIENTED_EDGE('',*,*,#832,.F.);
#564=ORIENTED_EDGE('',*,*,#766,.F.);
#565=ORIENTED_EDGE('',*,*,#832,.T.);
#566=ORIENTED_EDGE('',*,*,#800,.T.);
#567=ORIENTED_EDGE('',*,*,#833,.F.);
#568=ORIENTED_EDGE('',*,*,#767,.F.);
#569=ORIENTED_EDGE('',*,*,#833,.T.);
#570=ORIENTED_EDGE('',*,*,#799,.T.);
#571=ORIENTED_EDGE('',*,*,#834,.F.);
#572=ORIENTED_EDGE('',*,*,#768,.F.);
#573=ORIENTED_EDGE('',*,*,#834,.T.);
#574=ORIENTED_EDGE('',*,*,#798,.T.);
#575=ORIENTED_EDGE('',*,*,#835,.F.);
#576=ORIENTED_EDGE('',*,*,#769,.F.);
#577=ORIENTED_EDGE('',*,*,#835,.T.);
#578=ORIENTED_EDGE('',*,*,#797,.T.);
#579=ORIENTED_EDGE('',*,*,#836,.F.);
#580=ORIENTED_EDGE('',*,*,#770,.F.);
#581=ORIENTED_EDGE('',*,*,#836,.T.);
#582=ORIENTED_EDGE('',*,*,#796,.T.);
#583=ORIENTED_EDGE('',*,*,#837,.F.);
#584=ORIENTED_EDGE('',*,*,#771,.F.);
#585=ORIENTED_EDGE('',*,*,#837,.T.);
#586=ORIENTED_EDGE('',*,*,#795,.T.);
#587=ORIENTED_EDGE('',*,*,#838,.F.);
#588=ORIENTED_EDGE('',*,*,#772,.F.);
#589=ORIENTED_EDGE('',*,*,#838,.T.);
#590=ORIENTED_EDGE('',*,*,#794,.T.);
#591=ORIENTED_EDGE('',*,*,#750,.F.);
#592=ORIENTED_EDGE('',*,*,#786,.F.);
#593=ORIENTED_EDGE('',*,*,#839,.T.);
#594=ORIENTED_EDGE('',*,*,#827,.F.);
#595=ORIENTED_EDGE('',*,*,#840,.F.);
#596=ORIENTED_EDGE('',*,*,#790,.F.);
#597=ORIENTED_EDGE('',*,*,#812,.F.);
#598=ORIENTED_EDGE('',*,*,#840,.T.);
#599=ORIENTED_EDGE('',*,*,#841,.F.);
#600=ORIENTED_EDGE('',*,*,#841,.T.);
#601=ORIENTED_EDGE('',*,*,#830,.F.);
#602=ORIENTED_EDGE('',*,*,#842,.F.);
#603=ORIENTED_EDGE('',*,*,#810,.F.);
#604=ORIENTED_EDGE('',*,*,#829,.F.);
#605=ORIENTED_EDGE('',*,*,#843,.T.);
#606=ORIENTED_EDGE('',*,*,#816,.F.);
#607=ORIENTED_EDGE('',*,*,#842,.T.);
#608=ORIENTED_EDGE('',*,*,#817,.F.);
#609=ORIENTED_EDGE('',*,*,#844,.T.);
#610=ORIENTED_EDGE('',*,*,#821,.F.);
#611=ORIENTED_EDGE('',*,*,#845,.F.);
#612=ORIENTED_EDGE('',*,*,#845,.T.);
#613=ORIENTED_EDGE('',*,*,#820,.F.);
#614=ORIENTED_EDGE('',*,*,#846,.F.);
#615=ORIENTED_EDGE('',*,*,#804,.F.);
#616=ORIENTED_EDGE('',*,*,#819,.F.);
#617=ORIENTED_EDGE('',*,*,#847,.T.);
#618=ORIENTED_EDGE('',*,*,#814,.F.);
#619=ORIENTED_EDGE('',*,*,#846,.T.);
#620=ORIENTED_EDGE('',*,*,#815,.F.);
#621=ORIENTED_EDGE('',*,*,#848,.T.);
#622=ORIENTED_EDGE('',*,*,#823,.F.);
#623=ORIENTED_EDGE('',*,*,#849,.F.);
#624=ORIENTED_EDGE('',*,*,#850,.F.);
#625=ORIENTED_EDGE('',*,*,#807,.F.);
#626=ORIENTED_EDGE('',*,*,#849,.T.);
#627=ORIENTED_EDGE('',*,*,#826,.F.);
#628=ORIENTED_EDGE('',*,*,#813,.F.);
#629=ORIENTED_EDGE('',*,*,#850,.T.);
#630=ORIENTED_EDGE('',*,*,#851,.F.);
#631=ORIENTED_EDGE('',*,*,#825,.F.);
#632=ORIENTED_EDGE('',*,*,#852,.T.);
#633=ORIENTED_EDGE('',*,*,#740,.F.);
#634=ORIENTED_EDGE('',*,*,#793,.F.);
#635=ORIENTED_EDGE('',*,*,#851,.T.);
#636=ORIENTED_EDGE('',*,*,#853,.F.);
#637=ORIENTED_EDGE('',*,*,#818,.F.);
#638=ORIENTED_EDGE('',*,*,#783,.F.);
#639=ORIENTED_EDGE('',*,*,#741,.F.);
#640=ORIENTED_EDGE('',*,*,#852,.F.);
#641=ORIENTED_EDGE('',*,*,#824,.F.);
#642=ORIENTED_EDGE('',*,*,#848,.F.);
#643=ORIENTED_EDGE('',*,*,#847,.F.);
#644=ORIENTED_EDGE('',*,*,#853,.T.);
#645=ORIENTED_EDGE('',*,*,#854,.F.);
#646=ORIENTED_EDGE('',*,*,#828,.F.);
#647=ORIENTED_EDGE('',*,*,#839,.F.);
#648=ORIENTED_EDGE('',*,*,#785,.F.);
#649=ORIENTED_EDGE('',*,*,#822,.F.);
#650=ORIENTED_EDGE('',*,*,#844,.F.);
#651=ORIENTED_EDGE('',*,*,#843,.F.);
#652=ORIENTED_EDGE('',*,*,#854,.T.);
#653=VERTEX_POINT('',#1313);
#654=VERTEX_POINT('',#1314);
#655=VERTEX_POINT('',#1316);
#656=VERTEX_POINT('',#1318);
#657=VERTEX_POINT('',#1322);
#658=VERTEX_POINT('',#1324);
#659=VERTEX_POINT('',#1326);
#660=VERTEX_POINT('',#1335);
#661=VERTEX_POINT('',#1336);
#662=VERTEX_POINT('',#1341);
#663=VERTEX_POINT('',#1343);
#664=VERTEX_POINT('',#1345);
#665=VERTEX_POINT('',#1347);
#666=VERTEX_POINT('',#1351);
#667=VERTEX_POINT('',#1352);
#668=VERTEX_POINT('',#1357);
#669=VERTEX_POINT('',#1359);
#670=VERTEX_POINT('',#1363);
#671=VERTEX_POINT('',#1365);
#672=VERTEX_POINT('',#1367);
#673=VERTEX_POINT('',#1371);
#674=VERTEX_POINT('',#1373);
#675=VERTEX_POINT('',#1375);
#676=VERTEX_POINT('',#1377);
#677=VERTEX_POINT('',#1380);
#678=VERTEX_POINT('',#1383);
#679=VERTEX_POINT('',#1386);
#680=VERTEX_POINT('',#1392);
#681=VERTEX_POINT('',#1396);
#682=VERTEX_POINT('',#1398);
#683=VERTEX_POINT('',#1400);
#684=VERTEX_POINT('',#1402);
#685=VERTEX_POINT('',#1404);
#686=VERTEX_POINT('',#1406);
#687=VERTEX_POINT('',#1408);
#688=VERTEX_POINT('',#1410);
#689=VERTEX_POINT('',#1413);
#690=VERTEX_POINT('',#1415);
#691=VERTEX_POINT('',#1417);
#692=VERTEX_POINT('',#1419);
#693=VERTEX_POINT('',#1421);
#694=VERTEX_POINT('',#1423);
#695=VERTEX_POINT('',#1425);
#696=VERTEX_POINT('',#1427);
#697=VERTEX_POINT('',#1429);
#698=VERTEX_POINT('',#1438);
#699=VERTEX_POINT('',#1440);
#700=VERTEX_POINT('',#1454);
#701=VERTEX_POINT('',#1459);
#702=VERTEX_POINT('',#1461);
#703=VERTEX_POINT('',#1467);
#704=VERTEX_POINT('',#1471);
#705=VERTEX_POINT('',#1475);
#706=VERTEX_POINT('',#1477);
#707=VERTEX_POINT('',#1479);
#708=VERTEX_POINT('',#1481);
#709=VERTEX_POINT('',#1483);
#710=VERTEX_POINT('',#1485);
#711=VERTEX_POINT('',#1487);
#712=VERTEX_POINT('',#1489);
#713=VERTEX_POINT('',#1493);
#714=VERTEX_POINT('',#1495);
#715=VERTEX_POINT('',#1499);
#716=VERTEX_POINT('',#1501);
#717=VERTEX_POINT('',#1505);
#718=VERTEX_POINT('',#1507);
#719=VERTEX_POINT('',#1518);
#720=VERTEX_POINT('',#1528);
#721=VERTEX_POINT('',#1540);
#722=VERTEX_POINT('',#1545);
#723=VERTEX_POINT('',#1547);
#724=VERTEX_POINT('',#1552);
#725=VERTEX_POINT('',#1564);
#726=VERTEX_POINT('',#1565);
#727=VERTEX_POINT('',#1572);
#728=VERTEX_POINT('',#1574);
#729=VERTEX_POINT('',#1578);
#730=VERTEX_POINT('',#1579);
#731=VERTEX_POINT('',#1586);
#732=VERTEX_POINT('',#1594);
#733=EDGE_CURVE('',#653,#654,#855,.T.);
#734=EDGE_CURVE('',#653,#655,#856,.T.);
#735=EDGE_CURVE('',#655,#656,#857,.T.);
#736=EDGE_CURVE('',#654,#656,#858,.T.);
#737=EDGE_CURVE('',#657,#657,#177,.T.);
#738=EDGE_CURVE('',#658,#658,#178,.T.);
#739=EDGE_CURVE('',#659,#659,#179,.T.);
#740=EDGE_CURVE('',#660,#661,#130,.T.);
#741=EDGE_CURVE('',#661,#662,#131,.T.);
#742=EDGE_CURVE('',#662,#663,#859,.T.);
#743=EDGE_CURVE('',#664,#663,#180,.T.);
#744=EDGE_CURVE('',#664,#665,#860,.T.);
#745=EDGE_CURVE('',#665,#660,#861,.T.);
#746=EDGE_CURVE('',#666,#667,#862,.T.);
#747=EDGE_CURVE('',#667,#656,#863,.T.);
#748=EDGE_CURVE('',#666,#655,#864,.T.);
#749=EDGE_CURVE('',#668,#666,#865,.T.);
#750=EDGE_CURVE('',#668,#669,#866,.T.);
#751=EDGE_CURVE('',#667,#669,#867,.T.);
#752=EDGE_CURVE('',#670,#670,#181,.T.);
#753=EDGE_CURVE('',#671,#663,#868,.T.);
#754=EDGE_CURVE('',#671,#672,#182,.T.);
#755=EDGE_CURVE('',#672,#664,#869,.T.);
#756=EDGE_CURVE('',#673,#673,#183,.T.);
#757=EDGE_CURVE('',#674,#674,#184,.T.);
#758=EDGE_CURVE('',#675,#675,#185,.T.);
#759=EDGE_CURVE('',#676,#676,#186,.T.);
#760=EDGE_CURVE('',#677,#677,#187,.T.);
#761=EDGE_CURVE('',#678,#678,#188,.T.);
#762=EDGE_CURVE('',#679,#679,#189,.T.);
#763=EDGE_CURVE('',#680,#680,#190,.T.);
#764=EDGE_CURVE('',#653,#681,#870,.T.);
#765=EDGE_CURVE('',#681,#682,#191,.T.);
#766=EDGE_CURVE('',#682,#683,#871,.T.);
#767=EDGE_CURVE('',#683,#684,#192,.T.);
#768=EDGE_CURVE('',#684,#685,#872,.T.);
#769=EDGE_CURVE('',#685,#686,#193,.T.);
#770=EDGE_CURVE('',#686,#687,#873,.T.);
#771=EDGE_CURVE('',#687,#688,#194,.T.);
#772=EDGE_CURVE('',#688,#668,#874,.T.);
#773=EDGE_CURVE('',#689,#665,#875,.T.);
#774=EDGE_CURVE('',#672,#690,#876,.T.);
#775=EDGE_CURVE('',#691,#690,#877,.T.);
#776=EDGE_CURVE('',#691,#692,#195,.T.);
#777=EDGE_CURVE('',#692,#693,#878,.T.);
#778=EDGE_CURVE('',#693,#694,#196,.T.);
#779=EDGE_CURVE('',#694,#695,#879,.T.);
#780=EDGE_CURVE('',#695,#696,#197,.T.);
#781=EDGE_CURVE('',#696,#697,#880,.T.);
#782=EDGE_CURVE('',#697,#689,#198,.T.);
#783=EDGE_CURVE('',#662,#698,#132,.T.);
#784=EDGE_CURVE('',#699,#698,#881,.T.);
#785=EDGE_CURVE('',#699,#700,#133,.T.);
#786=EDGE_CURVE('',#700,#701,#134,.T.);
#787=EDGE_CURVE('',#701,#702,#882,.T.);
#788=EDGE_CURVE('',#702,#671,#883,.T.);
#789=EDGE_CURVE('',#690,#702,#884,.T.);
#790=EDGE_CURVE('',#701,#703,#199,.T.);
#791=EDGE_CURVE('',#703,#691,#885,.T.);
#792=EDGE_CURVE('',#689,#704,#886,.T.);
#793=EDGE_CURVE('',#704,#660,#200,.T.);
#794=EDGE_CURVE('',#705,#669,#887,.T.);
#795=EDGE_CURVE('',#706,#705,#201,.T.);
#796=EDGE_CURVE('',#707,#706,#888,.T.);
#797=EDGE_CURVE('',#708,#707,#202,.T.);
#798=EDGE_CURVE('',#709,#708,#889,.T.);
#799=EDGE_CURVE('',#710,#709,#203,.T.);
#800=EDGE_CURVE('',#711,#710,#890,.T.);
#801=EDGE_CURVE('',#712,#711,#204,.T.);
#802=EDGE_CURVE('',#654,#712,#891,.T.);
#803=EDGE_CURVE('',#694,#713,#892,.T.);
#804=EDGE_CURVE('',#713,#714,#893,.T.);
#805=EDGE_CURVE('',#714,#695,#894,.T.);
#806=EDGE_CURVE('',#696,#715,#895,.T.);
#807=EDGE_CURVE('',#715,#716,#896,.T.);
#808=EDGE_CURVE('',#716,#697,#897,.T.);
#809=EDGE_CURVE('',#692,#717,#898,.T.);
#810=EDGE_CURVE('',#717,#718,#899,.T.);
#811=EDGE_CURVE('',#718,#693,#900,.T.);
#812=EDGE_CURVE('',#703,#717,#205,.T.);
#813=EDGE_CURVE('',#716,#704,#206,.T.);
#814=EDGE_CURVE('',#714,#719,#135,.T.);
#815=EDGE_CURVE('',#719,#715,#136,.T.);
#816=EDGE_CURVE('',#718,#720,#137,.T.);
#817=EDGE_CURVE('',#720,#713,#138,.T.);
#818=EDGE_CURVE('',#698,#721,#139,.T.);
#819=EDGE_CURVE('',#721,#722,#140,.T.);
#820=EDGE_CURVE('',#722,#723,#901,.T.);
#821=EDGE_CURVE('',#723,#724,#141,.T.);
#822=EDGE_CURVE('',#724,#699,#142,.T.);
#823=EDGE_CURVE('',#725,#726,#143,.T.);
#824=EDGE_CURVE('',#726,#727,#144,.T.);
#825=EDGE_CURVE('',#727,#728,#207,.T.);
#826=EDGE_CURVE('',#728,#725,#902,.T.);
#827=EDGE_CURVE('',#729,#730,#208,.T.);
#828=EDGE_CURVE('',#730,#731,#145,.T.);
#829=EDGE_CURVE('',#731,#732,#146,.T.);
#830=EDGE_CURVE('',#732,#729,#903,.T.);
#831=EDGE_CURVE('',#681,#712,#904,.T.);
#832=EDGE_CURVE('',#682,#711,#905,.T.);
#833=EDGE_CURVE('',#683,#710,#906,.T.);
#834=EDGE_CURVE('',#684,#709,#907,.T.);
#835=EDGE_CURVE('',#685,#708,#908,.T.);
#836=EDGE_CURVE('',#686,#707,#909,.T.);
#837=EDGE_CURVE('',#687,#706,#910,.T.);
#838=EDGE_CURVE('',#688,#705,#911,.T.);
#839=EDGE_CURVE('',#700,#730,#147,.T.);
#840=EDGE_CURVE('',#703,#729,#209,.T.);
#841=EDGE_CURVE('',#717,#729,#210,.T.);
#842=EDGE_CURVE('',#718,#732,#211,.T.);
#843=EDGE_CURVE('',#731,#720,#212,.T.);
#844=EDGE_CURVE('',#720,#724,#213,.T.);
#845=EDGE_CURVE('',#713,#723,#214,.T.);
#846=EDGE_CURVE('',#714,#722,#215,.T.);
#847=EDGE_CURVE('',#721,#719,#216,.T.);
#848=EDGE_CURVE('',#719,#726,#217,.T.);
#849=EDGE_CURVE('',#715,#725,#218,.T.);
#850=EDGE_CURVE('',#716,#728,#219,.T.);
#851=EDGE_CURVE('',#704,#728,#220,.T.);
#852=EDGE_CURVE('',#727,#661,#148,.T.);
#853=EDGE_CURVE('',#721,#726,#221,.T.);
#854=EDGE_CURVE('',#731,#724,#222,.T.);
#855=LINE('',#1312,#912);
#856=LINE('',#1315,#913);
#857=LINE('',#1317,#914);
#858=LINE('',#1319,#915);
#859=LINE('',#1342,#916);
#860=LINE('',#1346,#917);
#861=LINE('',#1348,#918);
#862=LINE('',#1350,#919);
#863=LINE('',#1353,#920);
#864=LINE('',#1354,#921);
#865=LINE('',#1356,#922);
#866=LINE('',#1358,#923);
#867=LINE('',#1360,#924);
#868=LINE('',#1364,#925);
#869=LINE('',#1368,#926);
#870=LINE('',#1395,#927);
#871=LINE('',#1399,#928);
#872=LINE('',#1403,#929);
#873=LINE('',#1407,#930);
#874=LINE('',#1411,#931);
#875=LINE('',#1412,#932);
#876=LINE('',#1414,#933);
#877=LINE('',#1416,#934);
#878=LINE('',#1420,#935);
#879=LINE('',#1424,#936);
#880=LINE('',#1428,#937);
#881=LINE('',#1439,#938);
#882=LINE('',#1460,#939);
#883=LINE('',#1462,#940);
#884=LINE('',#1464,#941);
#885=LINE('',#1468,#942);
#886=LINE('',#1470,#943);
#887=LINE('',#1474,#944);
#888=LINE('',#1478,#945);
#889=LINE('',#1482,#946);
#890=LINE('',#1486,#947);
#891=LINE('',#1490,#948);
#892=LINE('',#1492,#949);
#893=LINE('',#1494,#950);
#894=LINE('',#1496,#951);
#895=LINE('',#1498,#952);
#896=LINE('',#1500,#953);
#897=LINE('',#1502,#954);
#898=LINE('',#1504,#955);
#899=LINE('',#1506,#956);
#900=LINE('',#1508,#957);
#901=LINE('',#1546,#958);
#902=LINE('',#1575,#959);
#903=LINE('',#1595,#960);
#904=LINE('',#1597,#961);
#905=LINE('',#1599,#962);
#906=LINE('',#1601,#963);
#907=LINE('',#1603,#964);
#908=LINE('',#1605,#965);
#909=LINE('',#1607,#966);
#910=LINE('',#1609,#967);
#911=LINE('',#1611,#968);
#912=VECTOR('',#1066,1.);
#913=VECTOR('',#1067,1.);
#914=VECTOR('',#1068,1.);
#915=VECTOR('',#1069,1.);
#916=VECTOR('',#1078,1.);
#917=VECTOR('',#1081,1.);
#918=VECTOR('',#1082,1.);
#919=VECTOR('',#1085,1.);
#920=VECTOR('',#1086,1.);
#921=VECTOR('',#1087,1.);
#922=VECTOR('',#1090,1.);
#923=VECTOR('',#1091,1.);
#924=VECTOR('',#1092,1.);
#925=VECTOR('',#1097,1.);
#926=VECTOR('',#1100,1.);
#927=VECTOR('',#1137,1.);
#928=VECTOR('',#1140,1.);
#929=VECTOR('',#1143,1.);
#930=VECTOR('',#1146,1.);
#931=VECTOR('',#1149,1.);
#932=VECTOR('',#1150,1.);
#933=VECTOR('',#1151,1.);
#934=VECTOR('',#1152,1.);
#935=VECTOR('',#1155,1.);
#936=VECTOR('',#1158,1.);
#937=VECTOR('',#1161,1.);
#938=VECTOR('',#1166,1.);
#939=VECTOR('',#1167,1.);
#940=VECTOR('',#1168,1.);
#941=VECTOR('',#1171,1.);
#942=VECTOR('',#1176,1.);
#943=VECTOR('',#1179,1.);
#944=VECTOR('',#1184,1.);
#945=VECTOR('',#1187,1.);
#946=VECTOR('',#1190,1.);
#947=VECTOR('',#1193,1.);
#948=VECTOR('',#1196,1.);
#949=VECTOR('',#1199,1.);
#950=VECTOR('',#1200,1.);
#951=VECTOR('',#1201,1.);
#952=VECTOR('',#1204,1.);
#953=VECTOR('',#1205,1.);
#954=VECTOR('',#1206,1.);
#955=VECTOR('',#1209,1.);
#956=VECTOR('',#1210,1.);
#957=VECTOR('',#1211,1.);
#958=VECTOR('',#1226,1.);
#959=VECTOR('',#1231,1.);
#960=VECTOR('',#1236,1.);
#961=VECTOR('',#1239,1.);
#962=VECTOR('',#1242,1.);
#963=VECTOR('',#1245,1.);
#964=VECTOR('',#1248,1.);
#965=VECTOR('',#1251,1.);
#966=VECTOR('',#1254,1.);
#967=VECTOR('',#1257,1.);
#968=VECTOR('',#1260,1.);
#969=AXIS2_PLACEMENT_3D('',#1311,#1064,#1065);
#970=AXIS2_PLACEMENT_3D('',#1320,#1070,#1071);
#971=AXIS2_PLACEMENT_3D('',#1321,#1072,#1073);
#972=AXIS2_PLACEMENT_3D('',#1323,#1074,#1075);
#973=AXIS2_PLACEMENT_3D('',#1325,#1076,#1077);
#974=AXIS2_PLACEMENT_3D('',#1344,#1079,#1080);
#975=AXIS2_PLACEMENT_3D('',#1349,#1083,#1084);
#976=AXIS2_PLACEMENT_3D('',#1355,#1088,#1089);
#977=AXIS2_PLACEMENT_3D('',#1361,#1093,#1094);
#978=AXIS2_PLACEMENT_3D('',#1362,#1095,#1096);
#979=AXIS2_PLACEMENT_3D('',#1366,#1098,#1099);
#980=AXIS2_PLACEMENT_3D('',#1369,#1101,#1102);
#981=AXIS2_PLACEMENT_3D('',#1370,#1103,#1104);
#982=AXIS2_PLACEMENT_3D('',#1372,#1105,#1106);
#983=AXIS2_PLACEMENT_3D('',#1374,#1107,#1108);
#984=AXIS2_PLACEMENT_3D('',#1376,#1109,#1110);
#985=AXIS2_PLACEMENT_3D('',#1378,#1111,#1112);
#986=AXIS2_PLACEMENT_3D('',#1379,#1113,#1114);
#987=AXIS2_PLACEMENT_3D('',#1381,#1115,#1116);
#988=AXIS2_PLACEMENT_3D('',#1382,#1117,#1118);
#989=AXIS2_PLACEMENT_3D('',#1384,#1119,#1120);
#990=AXIS2_PLACEMENT_3D('',#1385,#1121,#1122);
#991=AXIS2_PLACEMENT_3D('',#1387,#1123,#1124);
#992=AXIS2_PLACEMENT_3D('',#1388,#1125,#1126);
#993=AXIS2_PLACEMENT_3D('',#1389,#1127,#1128);
#994=AXIS2_PLACEMENT_3D('',#1390,#1129,#1130);
#995=AXIS2_PLACEMENT_3D('',#1391,#1131,#1132);
#996=AXIS2_PLACEMENT_3D('',#1393,#1133,#1134);
#997=AXIS2_PLACEMENT_3D('',#1394,#1135,#1136);
#998=AXIS2_PLACEMENT_3D('',#1397,#1138,#1139);
#999=AXIS2_PLACEMENT_3D('',#1401,#1141,#1142);
#1000=AXIS2_PLACEMENT_3D('',#1405,#1144,#1145);
#1001=AXIS2_PLACEMENT_3D('',#1409,#1147,#1148);
#1002=AXIS2_PLACEMENT_3D('',#1418,#1153,#1154);
#1003=AXIS2_PLACEMENT_3D('',#1422,#1156,#1157);
#1004=AXIS2_PLACEMENT_3D('',#1426,#1159,#1160);
#1005=AXIS2_PLACEMENT_3D('',#1430,#1162,#1163);
#1006=AXIS2_PLACEMENT_3D('',#1431,#1164,#1165);
#1007=AXIS2_PLACEMENT_3D('',#1463,#1169,#1170);
#1008=AXIS2_PLACEMENT_3D('',#1465,#1172,#1173);
#1009=AXIS2_PLACEMENT_3D('',#1466,#1174,#1175);
#1010=AXIS2_PLACEMENT_3D('',#1469,#1177,#1178);
#1011=AXIS2_PLACEMENT_3D('',#1472,#1180,#1181);
#1012=AXIS2_PLACEMENT_3D('',#1473,#1182,#1183);
#1013=AXIS2_PLACEMENT_3D('',#1476,#1185,#1186);
#1014=AXIS2_PLACEMENT_3D('',#1480,#1188,#1189);
#1015=AXIS2_PLACEMENT_3D('',#1484,#1191,#1192);
#1016=AXIS2_PLACEMENT_3D('',#1488,#1194,#1195);
#1017=AXIS2_PLACEMENT_3D('',#1491,#1197,#1198);
#1018=AXIS2_PLACEMENT_3D('',#1497,#1202,#1203);
#1019=AXIS2_PLACEMENT_3D('',#1503,#1207,#1208);
#1020=AXIS2_PLACEMENT_3D('',#1509,#1212,#1213);
#1021=AXIS2_PLACEMENT_3D('',#1510,#1214,#1215);
#1022=AXIS2_PLACEMENT_3D('',#1511,#1216,#1217);
#1023=AXIS2_PLACEMENT_3D('',#1512,#1218,#1219);
#1024=AXIS2_PLACEMENT_3D('',#1513,#1220,#1221);
#1025=AXIS2_PLACEMENT_3D('',#1523,#1222,#1223);
#1026=AXIS2_PLACEMENT_3D('',#1533,#1224,#1225);
#1027=AXIS2_PLACEMENT_3D('',#1559,#1227,#1228);
#1028=AXIS2_PLACEMENT_3D('',#1573,#1229,#1230);
#1029=AXIS2_PLACEMENT_3D('',#1576,#1232,#1233);
#1030=AXIS2_PLACEMENT_3D('',#1577,#1234,#1235);
#1031=AXIS2_PLACEMENT_3D('',#1596,#1237,#1238);
#1032=AXIS2_PLACEMENT_3D('',#1598,#1240,#1241);
#1033=AXIS2_PLACEMENT_3D('',#1600,#1243,#1244);
#1034=AXIS2_PLACEMENT_3D('',#1602,#1246,#1247);
#1035=AXIS2_PLACEMENT_3D('',#1604,#1249,#1250);
#1036=AXIS2_PLACEMENT_3D('',#1606,#1252,#1253);
#1037=AXIS2_PLACEMENT_3D('',#1608,#1255,#1256);
#1038=AXIS2_PLACEMENT_3D('',#1610,#1258,#1259);
#1039=AXIS2_PLACEMENT_3D('',#1612,#1261,#1262);
#1040=AXIS2_PLACEMENT_3D('',#1613,#1263,#1264);
#1041=AXIS2_PLACEMENT_3D('',#1621,#1265,#1266);
#1042=AXIS2_PLACEMENT_3D('',#1622,#1267,#1268);
#1043=AXIS2_PLACEMENT_3D('',#1623,#1269,#1270);
#1044=AXIS2_PLACEMENT_3D('',#1624,#1271,#1272);
#1045=AXIS2_PLACEMENT_3D('',#1625,#1273,#1274);
#1046=AXIS2_PLACEMENT_3D('',#1626,#1275,#1276);
#1047=AXIS2_PLACEMENT_3D('',#1627,#1277,#1278);
#1048=AXIS2_PLACEMENT_3D('',#1640,#1279,#1280);
#1049=AXIS2_PLACEMENT_3D('',#1641,#1281,#1282);
#1050=AXIS2_PLACEMENT_3D('',#1660,#1283,#1284);
#1051=AXIS2_PLACEMENT_3D('',#1661,#1285,#1286);
#1052=AXIS2_PLACEMENT_3D('',#1662,#1287,#1288);
#1053=AXIS2_PLACEMENT_3D('',#1681,#1289,#1290);
#1054=AXIS2_PLACEMENT_3D('',#1682,#1291,#1292);
#1055=AXIS2_PLACEMENT_3D('',#1695,#1293,#1294);
#1056=AXIS2_PLACEMENT_3D('',#1696,#1295,#1296);
#1057=AXIS2_PLACEMENT_3D('',#1697,#1297,#1298);
#1058=AXIS2_PLACEMENT_3D('',#1698,#1299,#1300);
#1059=AXIS2_PLACEMENT_3D('',#1706,#1301,#1302);
#1060=AXIS2_PLACEMENT_3D('',#1707,#1303,#1304);
#1061=AXIS2_PLACEMENT_3D('',#1732,#1305,#1306);
#1062=AXIS2_PLACEMENT_3D('',#1733,#1307,#1308);
#1063=AXIS2_PLACEMENT_3D('',#1758,#1309,#1310);
#1064=DIRECTION('',(0.,0.,1.));
#1065=DIRECTION('',(1.,0.,0.));
#1066=DIRECTION('',(1.11917643611426E-15,2.86229373536173E-16,-1.));
#1067=DIRECTION('',(1.,0.,2.37904933848248E-15));
#1068=DIRECTION('',(1.11917643611426E-15,0.,-1.));
#1069=DIRECTION('',(1.,0.,1.11917643611426E-15));
#1070=DIRECTION('',(0.,-1.,0.));
#1071=DIRECTION('',(1.,0.,0.));
#1072=DIRECTION('',(0.,-1.,0.));
#1073=DIRECTION('',(1.,0.,0.));
#1074=DIRECTION('',(0.,-1.,0.));
#1075=DIRECTION('',(1.,0.,0.));
#1076=DIRECTION('',(0.,-1.,0.));
#1077=DIRECTION('',(1.,0.,0.));
#1078=DIRECTION('',(-1.,0.,-2.32948581059742E-15));
#1079=DIRECTION('',(0.,-1.,0.));
#1080=DIRECTION('',(1.,0.,0.));
#1081=DIRECTION('',(1.,0.,2.37904933848248E-15));
#1082=DIRECTION('',(8.95341148891404E-16,0.,-1.));
#1083=DIRECTION('',(0.,-1.,0.));
#1084=DIRECTION('',(1.,0.,0.));
#1085=DIRECTION('',(1.56684701055996E-15,0.,-1.));
#1086=DIRECTION('',(-3.2034117018543E-31,1.,2.86229373536173E-16));
#1087=DIRECTION('',(0.,1.,0.));
#1088=DIRECTION('',(1.,0.,1.11917643611426E-15));
#1089=DIRECTION('',(-1.12410081243297E-15,0.,1.));
#1090=DIRECTION('',(1.,0.,0.));
#1091=DIRECTION('',(1.11917643611426E-15,2.86229373536173E-16,-1.));
#1092=DIRECTION('',(-1.,0.,-1.11917643611426E-15));
#1093=DIRECTION('',(0.,1.,0.));
#1094=DIRECTION('',(-1.,0.,0.));
#1095=DIRECTION('',(0.,-1.,0.));
#1096=DIRECTION('',(1.,0.,0.));
#1097=DIRECTION('',(0.,1.,0.));
#1098=DIRECTION('',(0.,-1.,0.));
#1099=DIRECTION('',(1.,0.,0.));
#1100=DIRECTION('',(0.,1.,0.));
#1101=DIRECTION('',(0.,1.,0.));
#1102=DIRECTION('',(-1.,0.,0.));
#1103=DIRECTION('',(0.,-1.,0.));
#1104=DIRECTION('',(-0.5,0.,0.866025403784436));
#1105=DIRECTION('',(0.,-1.,0.));
#1106=DIRECTION('',(0.999999999999999,0.,0.));
#1107=DIRECTION('',(0.,-1.,0.));
#1108=DIRECTION('',(-0.500000000000004,0.,-0.866025403784436));
#1109=DIRECTION('',(0.,-1.,0.));
#1110=DIRECTION('',(1.,0.,0.));
#1111=DIRECTION('',(0.,-1.,0.));
#1112=DIRECTION('',(1.,0.,0.));
#1113=DIRECTION('',(0.,1.,0.));
#1114=DIRECTION('',(0.999999999999999,0.,0.));
#1115=DIRECTION('',(0.,-1.,0.));
#1116=DIRECTION('',(0.999999999999999,0.,0.));
#1117=DIRECTION('',(0.,1.,0.));
#1118=DIRECTION('',(0.999999999999999,0.,0.));
#1119=DIRECTION('',(0.,-1.,0.));
#1120=DIRECTION('',(0.999999999999999,0.,0.));
#1121=DIRECTION('',(0.,1.,0.));
#1122=DIRECTION('',(0.999999999999999,0.,0.));
#1123=DIRECTION('',(0.,-1.,0.));
#1124=DIRECTION('',(0.999999999999999,0.,0.));
#1125=DIRECTION('',(0.,1.,0.));
#1126=DIRECTION('',(-1.,3.4637317944927E-17,0.));
#1127=DIRECTION('',(0.,1.,0.));
#1128=DIRECTION('',(-1.,3.4637317944927E-17,0.));
#1129=DIRECTION('',(0.,1.,0.));
#1130=DIRECTION('',(-1.,3.4637317944927E-17,0.));
#1131=DIRECTION('',(0.,-1.,0.));
#1132=DIRECTION('',(1.,0.,0.));
#1133=DIRECTION('',(0.,1.,0.));
#1134=DIRECTION('',(-1.,0.,0.));
#1135=DIRECTION('',(0.,-1.,0.));
#1136=DIRECTION('',(1.,0.,0.));
#1137=DIRECTION('',(3.16542658285999E-31,1.,7.53070601796789E-46));
#1138=DIRECTION('',(2.37904933848248E-15,0.,-1.));
#1139=DIRECTION('',(-1.,0.,0.));
#1140=DIRECTION('',(1.,6.60847038467131E-16,2.37904933848248E-15));
#1141=DIRECTION('',(2.37904933848248E-15,0.,-1.));
#1142=DIRECTION('',(-1.,0.,-3.46944695195361E-15));
#1143=DIRECTION('',(-1.90819582357449E-15,-1.,-4.53969201176991E-30));
#1144=DIRECTION('',(2.37904933848248E-15,0.,-1.));
#1145=DIRECTION('',(-0.999999999999999,0.,-3.46944695195361E-15));
#1146=DIRECTION('',(-1.,3.6175670718802E-31,-2.37904933848248E-15));
#1147=DIRECTION('',(2.37904933848248E-15,0.,-1.));
#1148=DIRECTION('',(-1.,0.,0.));
#1149=DIRECTION('',(3.16542658285998E-31,1.,7.53070601796788E-46));
#1150=DIRECTION('',(-2.81371251809776E-31,-1.,-6.69396090486034E-46));
#1151=DIRECTION('',(1.,0.,2.37904933848248E-15));
#1152=DIRECTION('',(0.,1.,0.));
#1153=DIRECTION('',(-2.37904933848248E-15,0.,1.));
#1154=DIRECTION('',(-1.,0.,0.));
#1155=DIRECTION('',(1.,-3.6766776449501E-31,2.37904933848248E-15));
#1156=DIRECTION('',(-2.37904933848248E-15,0.,1.));
#1157=DIRECTION('',(-0.999999999999999,0.,-2.77555756156289E-15));
#1158=DIRECTION('',(1.90819582357449E-15,1.,4.53969201176991E-30));
#1159=DIRECTION('',(-2.37904933848248E-15,0.,1.));
#1160=DIRECTION('',(-0.999999999999999,0.,-2.77555756156289E-15));
#1161=DIRECTION('',(-1.,3.61756707188022E-31,-2.37904933848248E-15));
#1162=DIRECTION('',(-2.37904933848248E-15,0.,1.));
#1163=DIRECTION('',(-1.,0.,0.));
#1164=DIRECTION('',(-2.37904933848248E-15,0.,1.));
#1165=DIRECTION('',(-1.,0.,-2.38697950294409E-15));
#1166=DIRECTION('',(0.,1.,0.));
#1167=DIRECTION('',(0.,1.,0.));
#1168=DIRECTION('',(-1.,0.,-2.32948581059742E-15));
#1169=DIRECTION('',(2.32948581059742E-15,0.,-1.));
#1170=DIRECTION('',(1.,0.,2.33146835171283E-15));
#1171=DIRECTION('',(8.95341148891404E-16,0.,-1.));
#1172=DIRECTION('',(0.,-1.,0.));
#1173=DIRECTION('',(1.,0.,0.));
#1174=DIRECTION('',(1.,0.,8.95341148891404E-16));
#1175=DIRECTION('',(1.11022302462516E-15,0.,-1.));
#1176=DIRECTION('',(-8.95341148891404E-16,-4.62592926927149E-15,1.));
#1177=DIRECTION('',(-1.,0.,-8.95341148891404E-16));
#1178=DIRECTION('',(9.0205620750794E-16,0.,-1.));
#1179=DIRECTION('',(8.95341148891404E-16,2.31296463463574E-15,-1.));
#1180=DIRECTION('',(1.,0.,8.95341148891404E-16));
#1181=DIRECTION('',(1.11022302462516E-15,0.,-1.));
#1182=DIRECTION('',(-1.,0.,-8.95341148891404E-16));
#1183=DIRECTION('',(9.0205620750794E-16,0.,-1.));
#1184=DIRECTION('',(0.,1.,2.82835349344044E-16));
#1185=DIRECTION('',(0.,0.,-1.));
#1186=DIRECTION('',(0.,1.,0.));
#1187=DIRECTION('',(-1.,0.,-1.11517937741329E-15));
#1188=DIRECTION('',(0.,0.,-1.));
#1189=DIRECTION('',(0.,1.,0.));
#1190=DIRECTION('',(-1.90819582357449E-15,-1.,-2.81892564846231E-16));
#1191=DIRECTION('',(0.,0.,-1.));
#1192=DIRECTION('',(0.,1.,0.));
#1193=DIRECTION('',(1.,6.60847038467131E-16,1.09452790746119E-15));
#1194=DIRECTION('',(0.,0.,-1.));
#1195=DIRECTION('',(0.,1.,0.));
#1196=DIRECTION('',(0.,1.,2.82835349344045E-16));
#1197=DIRECTION('',(1.11917643611426E-15,2.86229373536173E-16,-1.));
#1198=DIRECTION('',(1.,0.,1.11022302462516E-15));
#1199=DIRECTION('',(2.34534613952065E-15,4.62592926927149E-15,-1.));
#1200=DIRECTION('',(1.93473369401231E-15,1.,4.53762020025229E-30));
#1201=DIRECTION('',(-2.34534613952065E-15,-2.31296463463574E-15,1.));
#1202=DIRECTION('',(-1.,1.93473369401231E-15,-2.34534613952064E-15));
#1203=DIRECTION('',(-1.92901250528621E-15,-1.,2.77555756156289E-17));
#1204=DIRECTION('',(2.34534613952065E-15,2.31296463463574E-15,-1.));
#1205=DIRECTION('',(-1.,2.79940278014767E-30,-2.32948581059742E-15));
#1206=DIRECTION('',(-8.95341148891404E-16,-2.31296463463574E-15,1.));
#1207=DIRECTION('',(2.58861551664994E-30,-1.,-2.31296463463574E-15));
#1208=DIRECTION('',(0.,2.31065167000111E-15,-1.));
#1209=DIRECTION('',(8.95341148891404E-16,4.62592926927149E-15,-1.));
#1210=DIRECTION('',(1.,-5.59880556029535E-30,2.32948581059742E-15));
#1211=DIRECTION('',(-2.34534613952065E-15,-4.62592926927149E-15,1.));
#1212=DIRECTION('',(-5.17723103329989E-30,1.,4.62592926927149E-15));
#1213=DIRECTION('',(0.,-4.62824223390612E-15,1.));
#1214=DIRECTION('',(-8.95341148891404E-16,-4.62592926927149E-15,1.));
#1215=DIRECTION('',(0.,0.999999999999999,5.55111512312578E-15));
#1216=DIRECTION('',(8.95341148891404E-16,4.62592926927149E-15,-1.));
#1217=DIRECTION('',(0.,0.999999999999999,5.55111512312578E-15));
#1218=DIRECTION('',(-8.95341148891404E-16,-2.31296463463574E-15,1.));
#1219=DIRECTION('',(0.,-0.999999999999999,0.));
#1220=DIRECTION('',(-8.95341148891404E-16,-2.31296463463574E-15,1.));
#1221=DIRECTION('',(0.,-0.999999999999999,0.));
#1222=DIRECTION('',(2.34534613952065E-15,2.31296463463574E-15,-1.));
#1223=DIRECTION('',(0.999999999999999,0.,2.77555756156289E-15));
#1224=DIRECTION('',(-2.34534613952065E-15,-4.62592926927149E-15,1.));
#1225=DIRECTION('',(0.,-1.,-5.55111512312578E-15));
#1226=DIRECTION('',(0.,-1.,0.));
#1227=DIRECTION('',(0.,1.,0.));
#1228=DIRECTION('',(-1.,0.,0.));
#1229=DIRECTION('',(-1.,0.,-8.95341148891404E-16));
#1230=DIRECTION('',(6.93889390390723E-16,0.,-1.));
#1231=DIRECTION('',(1.,0.,2.32948581059742E-15));
#1232=DIRECTION('',(1.,0.,2.32948581059742E-15));
#1233=DIRECTION('',(-2.42861286636753E-15,0.,0.999999999999999));
#1234=DIRECTION('',(-1.,0.,-8.95341148891404E-16));
#1235=DIRECTION('',(6.93889390390723E-16,0.,-1.));
#1236=DIRECTION('',(-1.,0.,-2.32948581059742E-15));
#1237=DIRECTION('',(-1.,0.,-2.32948581059742E-15));
#1238=DIRECTION('',(2.42861286636753E-15,0.,-1.));
#1239=DIRECTION('',(1.11917643611426E-15,2.86229373536173E-16,-1.));
#1240=DIRECTION('',(-1.,3.16542658285998E-31,-1.11917643611426E-15));
#1241=DIRECTION('',(1.12410081243297E-15,0.,-1.));
#1242=DIRECTION('',(1.11917643611426E-15,2.86229373536173E-16,-1.));
#1243=DIRECTION('',(1.11917643611426E-15,2.86229373536173E-16,-1.));
#1244=DIRECTION('',(1.,0.,0.));
#1245=DIRECTION('',(1.11917643611426E-15,2.86229373536173E-16,-1.));
#1246=DIRECTION('',(-6.60847038467131E-16,1.,2.86229373536172E-16));
#1247=DIRECTION('',(-1.,-6.59194920871187E-16,0.));
#1248=DIRECTION('',(1.11917643611426E-15,2.86229373536173E-16,-1.));
#1249=DIRECTION('',(1.11917643611426E-15,2.86229373536173E-16,-1.));
#1250=DIRECTION('',(0.999999999999999,0.,0.));
#1251=DIRECTION('',(1.11917643611426E-15,2.86229373536173E-16,-1.));
#1252=DIRECTION('',(1.,-1.90819582357449E-15,1.11917643611426E-15));
#1253=DIRECTION('',(1.9151347174784E-15,1.,0.));
#1254=DIRECTION('',(1.11917643611426E-15,2.86229373536173E-16,-1.));
#1255=DIRECTION('',(1.11917643611426E-15,2.86229373536173E-16,-1.));
#1256=DIRECTION('',(1.,0.,0.));
#1257=DIRECTION('',(1.11917643611426E-15,2.86229373536173E-16,-1.));
#1258=DIRECTION('',(3.19197094577466E-31,-1.,-2.86229373536173E-16));
#1259=DIRECTION('',(0.,2.84494650060196E-16,-1.));
#1260=DIRECTION('',(1.11917643611426E-15,2.86229373536173E-16,-1.));
#1261=DIRECTION('',(1.11917643611426E-15,2.86229373536173E-16,-1.));
#1262=DIRECTION('',(1.,0.,0.));
#1263=DIRECTION('',(-1.,3.16542658285998E-31,-1.11917643611426E-15));
#1264=DIRECTION('',(1.12410081243297E-15,0.,-1.));
#1265=DIRECTION('',(-1.72692451610518E-16,-0.98185758283743,0.189619848709566));
#1266=DIRECTION('',(0.,-0.189619848709566,-0.981857582837431));
#1267=DIRECTION('',(-1.,0.,-8.95341148891404E-16));
#1268=DIRECTION('',(9.25185853854297E-16,0.,-1.));
#1269=DIRECTION('',(1.,-1.38777878078146E-15,3.09485613507774E-15));
#1270=DIRECTION('',(-2.77555756156289E-15,0.,1.));
#1271=DIRECTION('',(-2.77555756156289E-15,0.189619848709567,0.981857582837431));
#1272=DIRECTION('',(0.,-0.98185758283743,0.189619848709566));
#1273=DIRECTION('',(1.,-1.31176422408118E-29,2.82684333255534E-15));
#1274=DIRECTION('',(-2.77555756156289E-15,0.,1.));
#1275=DIRECTION('',(-1.,0.,-2.32948581059742E-15));
#1276=DIRECTION('',(2.77555756156289E-15,0.,-1.));
#1277=DIRECTION('',(-0.863647240356607,-0.492212394003616,0.108813617776666));
#1278=DIRECTION('',(-0.495152525834611,0.868806063606606,0.));
#1279=DIRECTION('',(0.860544364096679,0.490443993572478,0.137579382867207));
#1280=DIRECTION('',(0.495152525834611,-0.868806063606606,0.));
#1281=DIRECTION('',(2.77555756156289E-15,1.,2.9069114677286E-16));
#1282=DIRECTION('',(-1.,2.77555756156289E-15,0.));
#1283=DIRECTION('',(2.08166817117217E-15,1.,-8.28508560286385E-16));
#1284=DIRECTION('',(-1.,2.77555756156289E-15,0.));
#1285=DIRECTION('',(0.,1.,0.));
#1286=DIRECTION('',(-1.,0.,0.));
#1287=DIRECTION('',(0.860544364096686,-0.490443993572465,0.137579382867208));
#1288=DIRECTION('',(-0.495152525834597,-0.868806063606614,0.));
#1289=DIRECTION('',(-0.863647240356608,0.492212394003615,0.108813617776666));
#1290=DIRECTION('',(-0.495152525834611,-0.868806063606606,0.));
#1291=DIRECTION('',(-1.,6.62011851405454E-30,-2.82684333255534E-15));
#1292=DIRECTION('',(2.77555756156289E-15,0.,-1.));
#1293=DIRECTION('',(-1.,6.49752372675724E-30,-2.82684333255534E-15));
#1294=DIRECTION('',(2.77555756156289E-15,0.,-1.));
#1295=DIRECTION('',(1.,0.,2.32948581059742E-15));
#1296=DIRECTION('',(-2.77555756156289E-15,0.,1.));
#1297=DIRECTION('',(1.31575201227063E-16,-0.98185758283743,-0.189619848709568));
#1298=DIRECTION('',(0.,0.189619848709567,-0.981857582837431));
#1299=DIRECTION('',(-2.77555756156289E-15,-0.189619848709567,0.981857582837431));
#1300=DIRECTION('',(0.,-0.98185758283743,-0.189619848709566));
#1301=DIRECTION('',(-1.,0.,-8.95341148891404E-16));
#1302=DIRECTION('',(9.25185853854297E-16,0.,-1.));
#1303=DIRECTION('',(0.803593617861208,0.581146821308123,0.12847439206394));
#1304=DIRECTION('',(-0.586003130824597,0.810308787230997,0.));
#1305=DIRECTION('',(0.,-0.999999999999999,0.));
#1306=DIRECTION('',(1.,0.,0.));
#1307=DIRECTION('',(0.80359361786153,-0.5811468213077,0.128474392063841));
#1308=DIRECTION('',(0.586003130824164,0.810308787231311,0.));
#1309=DIRECTION('',(0.,-0.999999999999999,0.));
#1310=DIRECTION('',(1.,0.,0.));
#1311=CARTESIAN_POINT('',(0.,0.,0.));
#1312=CARTESIAN_POINT('',(72.9999999999966,31.2000000000005,294.060889132405));
#1313=CARTESIAN_POINT('',(72.9999999999968,31.2000000000005,182.81088913245));
#1314=CARTESIAN_POINT('',(72.9999999999968,31.2000000000005,170.310889132456));
#1315=CARTESIAN_POINT('',(41.9999999999967,31.2000000000005,182.81088913245));
#1316=CARTESIAN_POINT('',(76.9999999999968,31.2000000000005,182.810889132451));
#1317=CARTESIAN_POINT('',(76.9999999999968,31.2000000000005,182.810889132451));
#1318=CARTESIAN_POINT('',(76.9999999999968,31.2000000000005,170.310889132456));
#1319=CARTESIAN_POINT('',(41.9999999999968,31.2000000000005,170.310889132456));
#1320=CARTESIAN_POINT('',(41.9999999999968,31.2000000000005,167.310889132456));
#1321=CARTESIAN_POINT('',(41.9999999999968,31.2000000000005,177.310889132456));
#1322=CARTESIAN_POINT('',(45.6499999999968,31.2000000000005,177.310889132456));
#1323=CARTESIAN_POINT('',(33.3397459621523,31.2000000000005,162.310889132456));
#1324=CARTESIAN_POINT('',(36.9897459621523,31.2000000000005,162.310889132456));
#1325=CARTESIAN_POINT('',(50.6602540378411,31.2000000000005,162.310889132456));
#1326=CARTESIAN_POINT('',(54.3102540378411,31.2000000000005,162.310889132456));
#1327=CARTESIAN_POINT('',(70.9999999999968,31.2000000000005,161.081398963704));
#1328=CARTESIAN_POINT('',(70.9999999999968,31.2000000000005,159.461552802402));
#1329=CARTESIAN_POINT('',(71.3353144903902,31.2000000000005,157.879542722399));
#1330=CARTESIAN_POINT('',(72.1981984226641,31.2000000000005,155.631348519287));
#1331=CARTESIAN_POINT('',(72.5431758259932,31.2000000000005,154.912537459122));
#1332=CARTESIAN_POINT('',(73.3812568180693,31.2000000000005,153.55391764228));
#1333=CARTESIAN_POINT('',(73.8739661470498,31.2000000000005,152.890894345687));
#1334=CARTESIAN_POINT('',(74.5191026153083,31.2000000000005,152.390113540039));
#1335=CARTESIAN_POINT('',(70.9999999999968,31.2000000000005,161.081398963704));
#1336=CARTESIAN_POINT('',(74.5191026153083,31.2000000000005,152.390113540039));
#1337=CARTESIAN_POINT('',(74.5191026153167,31.2000000000005,152.390113540032));
#1338=CARTESIAN_POINT('',(73.6707066359874,31.2000000000005,152.087540549115));
#1339=CARTESIAN_POINT('',(72.8165753035787,31.2000000000005,151.810889132456));
#1340=CARTESIAN_POINT('',(71.9012326598267,31.2000000000005,151.810889132456));
#1341=CARTESIAN_POINT('',(71.9012326598267,31.2000000000005,151.810889132456));
#1342=CARTESIAN_POINT('',(76.9999999999968,31.2000000000005,151.810889132456));
#1343=CARTESIAN_POINT('',(41.9999999999967,31.2000000000005,151.810889132461));
#1344=CARTESIAN_POINT('',(41.9999999999968,31.2000000000005,167.310889132456));
#1345=CARTESIAN_POINT('',(41.9999999999968,31.2000000000005,182.81088913245));
#1346=CARTESIAN_POINT('',(41.9999999999967,31.2000000000005,182.81088913245));
#1347=CARTESIAN_POINT('',(70.9999999999967,31.2000000000005,182.81088913245));
#1348=CARTESIAN_POINT('',(70.9999999999968,31.2000000000005,167.310889132456));
#1349=CARTESIAN_POINT('',(41.9999999999968,31.2000000000005,167.310889132456));
#1350=CARTESIAN_POINT('',(76.9999999999967,-31.1999999999995,182.810889132451));
#1351=CARTESIAN_POINT('',(76.9999999999967,-31.1999999999995,182.810889132451));
#1352=CARTESIAN_POINT('',(76.9999999999968,-31.1999999999995,170.310889132456));
#1353=CARTESIAN_POINT('',(76.9999999999968,25.2000000000005,170.310889132456));
#1354=CARTESIAN_POINT('',(76.9999999999968,25.2000000000005,182.810889132451));
#1355=CARTESIAN_POINT('',(76.9999999999968,25.2000000000005,182.810889132451));
#1356=CARTESIAN_POINT('',(70.9999999999968,-31.1999999999995,182.810889132451));
#1357=CARTESIAN_POINT('',(72.9999999999968,-31.1999999999995,182.810889132451));
#1358=CARTESIAN_POINT('',(72.9999999999966,-31.1999999999995,294.060889132405));
#1359=CARTESIAN_POINT('',(72.9999999999968,-31.1999999999995,170.310889132456));
#1360=CARTESIAN_POINT('',(41.9999999999968,-31.1999999999995,170.310889132456));
#1361=CARTESIAN_POINT('',(41.9999999999968,-31.1999999999995,167.310889132456));
#1362=CARTESIAN_POINT('',(41.9999999999968,17.6000000000005,167.310889132456));
#1363=CARTESIAN_POINT('',(57.4999999999915,17.6000000000005,167.310889132456));
#1364=CARTESIAN_POINT('',(41.9999999999967,25.2000000000005,151.810889132461));
#1365=CARTESIAN_POINT('',(41.9999999999967,25.2000000000005,151.810889132461));
#1366=CARTESIAN_POINT('',(41.9999999999968,25.2000000000005,167.310889132456));
#1367=CARTESIAN_POINT('',(41.9999999999968,25.2000000000005,182.81088913245));
#1368=CARTESIAN_POINT('',(41.9999999999968,25.2000000000005,182.81088913245));
#1369=CARTESIAN_POINT('',(41.9999999999968,18.6000000000005,167.310889132456));
#1370=CARTESIAN_POINT('',(33.3397459621523,18.6000000000005,162.310889132456));
#1371=CARTESIAN_POINT('',(32.5147459621523,18.6000000000005,163.7398310487));
#1372=CARTESIAN_POINT('',(41.9999999999968,18.6000000000005,177.310889132456));
#1373=CARTESIAN_POINT('',(43.6499999999968,18.6000000000005,177.310889132456));
#1374=CARTESIAN_POINT('',(50.6602540378411,18.6000000000005,162.310889132456));
#1375=CARTESIAN_POINT('',(49.8352540378411,18.6000000000005,160.881947216211));
#1376=CARTESIAN_POINT('',(41.9999999999968,18.6000000000005,167.310889132456));
#1377=CARTESIAN_POINT('',(55.5999999999968,18.6000000000005,167.310889132456));
#1378=CARTESIAN_POINT('',(41.9999999999968,18.6000000000005,167.310889132456));
#1379=CARTESIAN_POINT('',(33.3397459621523,29.2000000000005,162.310889132456));
#1380=CARTESIAN_POINT('',(34.9897459621523,29.2000000000005,162.310889132456));
#1381=CARTESIAN_POINT('',(33.3397459621523,143.340000000001,162.310889132456));
#1382=CARTESIAN_POINT('',(41.9999999999968,29.2000000000005,177.310889132456));
#1383=CARTESIAN_POINT('',(43.6499999999968,29.2000000000005,177.310889132456));
#1384=CARTESIAN_POINT('',(41.9999999999968,143.340000000001,177.310889132456));
#1385=CARTESIAN_POINT('',(50.6602540378411,29.2000000000005,162.310889132456));
#1386=CARTESIAN_POINT('',(52.3102540378411,29.2000000000005,162.310889132456));
#1387=CARTESIAN_POINT('',(50.6602540378411,143.340000000001,162.310889132456));
#1388=CARTESIAN_POINT('',(41.9999999999968,29.2000000000005,177.310889132456));
#1389=CARTESIAN_POINT('',(33.3397459621523,29.2000000000005,162.310889132456));
#1390=CARTESIAN_POINT('',(50.6602540378411,29.2000000000005,162.310889132456));
#1391=CARTESIAN_POINT('',(41.9999999999968,17.6000000000005,167.310889132456));
#1392=CARTESIAN_POINT('',(55.5999999999968,17.6000000000005,167.310889132456));
#1393=CARTESIAN_POINT('',(41.9999999999968,17.6000000000005,167.310889132456));
#1394=CARTESIAN_POINT('',(41.9999999999968,17.6000000000005,167.310889132456));
#1395=CARTESIAN_POINT('',(72.9999999999968,31.2000000000005,182.81088913245));
#1396=CARTESIAN_POINT('',(72.9999999999968,45.0000000000005,182.810889132451));
#1397=CARTESIAN_POINT('',(75.9999999999967,45.0000000000006,182.81088913245));
#1398=CARTESIAN_POINT('',(75.9999999999967,48.0000000000006,182.810889132451));
#1399=CARTESIAN_POINT('',(75.9999999999969,48.0000000000005,182.81088913245));
#1400=CARTESIAN_POINT('',(97.0000000000039,48.0000000000005,182.810889132451));
#1401=CARTESIAN_POINT('',(97.0000000000039,40.0000000000006,182.810889132451));
#1402=CARTESIAN_POINT('',(105.000000000004,40.0000000000006,182.810889132451));
#1403=CARTESIAN_POINT('',(105.000000000004,40.0000000000005,182.810889132451));
#1404=CARTESIAN_POINT('',(105.000000000004,-39.9999999999995,182.810889132451));
#1405=CARTESIAN_POINT('',(97.0000000000039,-39.9999999999994,182.810889132451));
#1406=CARTESIAN_POINT('',(97.0000000000038,-47.9999999999994,182.810889132451));
#1407=CARTESIAN_POINT('',(97.0000000000039,-47.9999999999995,182.810889132451));
#1408=CARTESIAN_POINT('',(75.9999999999968,-47.9999999999995,182.810889132451));
#1409=CARTESIAN_POINT('',(75.9999999999969,-44.9999999999994,182.81088913245));
#1410=CARTESIAN_POINT('',(72.9999999999969,-44.9999999999994,182.810889132451));
#1411=CARTESIAN_POINT('',(72.9999999999968,-44.9999999999995,182.81088913245));
#1412=CARTESIAN_POINT('',(70.9999999999968,45.0000000000005,182.81088913245));
#1413=CARTESIAN_POINT('',(70.9999999999968,45.0000000000005,182.810889132451));
#1414=CARTESIAN_POINT('',(41.9999999999967,25.2000000000005,182.81088913245));
#1415=CARTESIAN_POINT('',(70.9999999999968,25.2000000000005,182.81088913245));
#1416=CARTESIAN_POINT('',(70.9999999999968,-31.1999999999995,182.810889132451));
#1417=CARTESIAN_POINT('',(70.9999999999968,-44.9999999999995,182.810889132451));
#1418=CARTESIAN_POINT('',(75.9999999999967,-44.9999999999995,182.81088913245));
#1419=CARTESIAN_POINT('',(75.9999999999968,-49.9999999999995,182.810889132451));
#1420=CARTESIAN_POINT('',(75.9999999999969,-49.9999999999995,182.81088913245));
#1421=CARTESIAN_POINT('',(97.0000000000037,-49.9999999999995,182.810889132451));
#1422=CARTESIAN_POINT('',(97.0000000000037,-39.9999999999995,182.810889132451));
#1423=CARTESIAN_POINT('',(107.000000000004,-39.9999999999995,182.810889132451));
#1424=CARTESIAN_POINT('',(107.000000000004,-39.9999999999996,182.810889132451));
#1425=CARTESIAN_POINT('',(107.000000000004,40.0000000000005,182.810889132451));
#1426=CARTESIAN_POINT('',(97.0000000000039,40.0000000000005,182.810889132451));
#1427=CARTESIAN_POINT('',(97.0000000000039,50.0000000000005,182.810889132451));
#1428=CARTESIAN_POINT('',(97.000000000004,50.0000000000005,182.810889132451));
#1429=CARTESIAN_POINT('',(75.9999999999967,50.0000000000005,182.810889132451));
#1430=CARTESIAN_POINT('',(75.9999999999967,45.0000000000005,182.81088913245));
#1431=CARTESIAN_POINT('',(41.9999999999967,25.2000000000005,182.81088913245));
#1432=CARTESIAN_POINT('',(71.9012326598267,31.2000000000005,151.810889132456));
#1433=CARTESIAN_POINT('',(73.10456025993,31.2000000000005,151.810889132456));
#1434=CARTESIAN_POINT('',(74.3181417391242,30.9665269912459,151.810889132456));
#1435=CARTESIAN_POINT('',(76.3357627560085,29.6675961779184,151.810889132456));
#1436=CARTESIAN_POINT('',(76.9999999999968,28.5094157220177,151.810889132456));
#1437=CARTESIAN_POINT('',(76.9999999999968,27.2963888949982,151.810889132456));
#1438=CARTESIAN_POINT('',(76.9999999999968,27.2963888949982,151.810889132456));
#1439=CARTESIAN_POINT('',(76.9999999999968,25.2000000000005,151.810889132456));
#1440=CARTESIAN_POINT('',(76.9999999999968,-27.2963888949971,151.810889132456));
#1441=CARTESIAN_POINT('',(76.9999999999968,-27.2963888949971,151.810889132456));
#1442=CARTESIAN_POINT('',(76.9999999999968,-27.6899021094293,151.810889132456));
#1443=CARTESIAN_POINT('',(76.9404017462678,-28.0893373587331,151.810889132456));
#1444=CARTESIAN_POINT('',(76.8150461944256,-28.4623502748032,151.810889132456));
#1445=CARTESIAN_POINT('',(76.6892638628939,-28.8366331333226,151.810889132456));
#1446=CARTESIAN_POINT('',(76.4929975686906,-29.1933592005911,151.810889132456));
#1447=CARTESIAN_POINT('',(76.2454372633258,-29.5009673089282,151.810889132456));
#1448=CARTESIAN_POINT('',(76.0096287181215,-29.7939731703206,151.810889132456));
#1449=CARTESIAN_POINT('',(75.7229805855135,-30.0501671991124,151.810889132456));
#1450=CARTESIAN_POINT('',(75.4116161467214,-30.2611418209448,151.810889132456));
#1451=CARTESIAN_POINT('',(75.0441684997507,-30.510117357983,151.810889132456));
#1452=CARTESIAN_POINT('',(74.6353229235129,-30.7027378809899,151.810889132456));
#1453=CARTESIAN_POINT('',(74.2148881910087,-30.8450095472199,151.810889132456));
#1454=CARTESIAN_POINT('',(74.2148881910087,-30.8450095472199,151.810889132456));
#1455=CARTESIAN_POINT('',(74.2148881910087,-30.8450095472199,151.810889132456));
#1456=CARTESIAN_POINT('',(72.2813978664137,-30.0499218287055,151.810889132456));
#1457=CARTESIAN_POINT('',(70.9999999999968,-27.9941533108436,151.810889132456));
#1458=CARTESIAN_POINT('',(70.9999999999968,-25.892016182315,151.810889132456));
#1459=CARTESIAN_POINT('',(70.9999999999968,-25.892016182315,151.810889132456));
#1460=CARTESIAN_POINT('',(70.9999999999968,-31.1999999999995,151.810889132456));
#1461=CARTESIAN_POINT('',(70.9999999999968,25.2000000000005,151.810889132456));
#1462=CARTESIAN_POINT('',(76.9999999999968,25.2000000000005,151.810889132456));
#1463=CARTESIAN_POINT('',(76.9999999999968,25.2000000000005,151.810889132456));
#1464=CARTESIAN_POINT('',(70.9999999999968,25.2000000000005,167.310889132456));
#1465=CARTESIAN_POINT('',(41.9999999999968,25.2000000000005,167.310889132456));
#1466=CARTESIAN_POINT('',(70.9999999999968,-49.7404962177387,144.310889132456));
#1467=CARTESIAN_POINT('',(70.9999999999968,-44.9999999999995,168.857328703391));
#1468=CARTESIAN_POINT('',(70.9999999999968,-44.9999999999995,170.310889132456));
#1469=CARTESIAN_POINT('',(70.9999999999968,-31.1999999999995,151.810889132456));
#1470=CARTESIAN_POINT('',(70.9999999999968,45.0000000000005,164.310889132456));
#1471=CARTESIAN_POINT('',(70.9999999999968,45.0000000000005,168.857328703392));
#1472=CARTESIAN_POINT('',(70.9999999999968,49.7404962177397,144.310889132456));
#1473=CARTESIAN_POINT('',(70.9999999999968,-31.1999999999995,151.810889132456));
#1474=CARTESIAN_POINT('',(72.9999999999968,-44.9999999999995,170.310889132456));
#1475=CARTESIAN_POINT('',(72.9999999999969,-44.9999999999994,170.310889132456));
#1476=CARTESIAN_POINT('',(75.9999999999969,-44.9999999999994,170.310889132456));
#1477=CARTESIAN_POINT('',(75.9999999999968,-47.9999999999994,170.310889132456));
#1478=CARTESIAN_POINT('',(97.0000000000038,-47.9999999999995,170.310889132456));
#1479=CARTESIAN_POINT('',(97.0000000000039,-47.9999999999995,170.310889132456));
#1480=CARTESIAN_POINT('',(97.0000000000039,-39.9999999999993,170.310889132456));
#1481=CARTESIAN_POINT('',(105.000000000004,-39.9999999999993,170.310889132456));
#1482=CARTESIAN_POINT('',(105.000000000004,40.0000000000005,170.310889132456));
#1483=CARTESIAN_POINT('',(105.000000000004,40.0000000000006,170.310889132456));
#1484=CARTESIAN_POINT('',(97.0000000000039,40.0000000000006,170.310889132456));
#1485=CARTESIAN_POINT('',(97.0000000000039,48.0000000000006,170.310889132456));
#1486=CARTESIAN_POINT('',(75.9999999999967,48.0000000000005,170.310889132456));
#1487=CARTESIAN_POINT('',(75.9999999999966,48.0000000000005,170.310889132456));
#1488=CARTESIAN_POINT('',(75.9999999999967,45.0000000000006,170.310889132456));
#1489=CARTESIAN_POINT('',(72.9999999999967,45.0000000000005,170.310889132456));
#1490=CARTESIAN_POINT('',(72.9999999999968,31.2000000000005,170.310889132456));
#1491=CARTESIAN_POINT('',(374.000000000065,50.0000000000005,170.310889132456));
#1492=CARTESIAN_POINT('',(107.000000000004,-39.9999999999996,196.810889132456));
#1493=CARTESIAN_POINT('',(107.000000000004,-39.9999999999995,169.055221333138));
#1494=CARTESIAN_POINT('',(107.000000000004,-50.0000000000004,169.055221333138));
#1495=CARTESIAN_POINT('',(107.000000000004,40.0000000000005,169.055221333138));
#1496=CARTESIAN_POINT('',(107.000000000004,40.0000000000005,196.810889132456));
#1497=CARTESIAN_POINT('',(107.000000000004,-50.0000000000004,196.810889132456));
#1498=CARTESIAN_POINT('',(97.0000000000039,50.0000000000005,164.310889132455));
#1499=CARTESIAN_POINT('',(97.0000000000039,50.0000000000005,168.857328703392));
#1500=CARTESIAN_POINT('',(374.000000000065,50.0000000000005,168.857328703392));
#1501=CARTESIAN_POINT('',(75.9999999999968,50.0000000000005,168.857328703392));
#1502=CARTESIAN_POINT('',(75.9999999999968,50.0000000000005,170.310889132456));
#1503=CARTESIAN_POINT('',(374.000000000065,50.0000000000005,164.310889132456));
#1504=CARTESIAN_POINT('',(75.9999999999968,-49.9999999999995,164.310889132456));
#1505=CARTESIAN_POINT('',(75.9999999999968,-49.9999999999995,168.857328703391));
#1506=CARTESIAN_POINT('',(374.000000000065,-49.9999999999995,168.857328703392));
#1507=CARTESIAN_POINT('',(97.0000000000038,-49.9999999999995,168.857328703392));
#1508=CARTESIAN_POINT('',(97.0000000000038,-49.9999999999995,170.310889132455));
#1509=CARTESIAN_POINT('',(374.000000000065,-49.9999999999995,170.310889132456));
#1510=CARTESIAN_POINT('',(75.9999999999968,-44.9999999999995,168.857328703391));
#1511=CARTESIAN_POINT('',(75.9999999999968,-44.9999999999994,151.810889132456));
#1512=CARTESIAN_POINT('',(75.9999999999968,45.0000000000005,168.857328703392));
#1513=CARTESIAN_POINT('',(75.9999999999968,45.0000000000006,151.810889132456));
#1514=CARTESIAN_POINT('',(107.000000000004,40.0000000000005,169.055221333138));
#1515=CARTESIAN_POINT('',(107.000000000004,43.5435469710731,169.055221333138));
#1516=CARTESIAN_POINT('',(105.022713609198,46.937719871957,168.967007625654));
#1517=CARTESIAN_POINT('',(101.95152525835,48.6880606360666,168.721504769783));
#1518=CARTESIAN_POINT('',(101.95152525835,48.6880606360666,168.721504769783));
#1519=CARTESIAN_POINT('',(101.95152525835,48.6880606360666,168.721504769783));
#1520=CARTESIAN_POINT('',(100.442367990007,49.5481640177116,168.816576492639));
#1521=CARTESIAN_POINT('',(98.7396477470605,50.0000000000005,168.857328703392));
#1522=CARTESIAN_POINT('',(97.0000000000039,50.0000000000005,168.857328703392));
#1523=CARTESIAN_POINT('',(97.0000000000039,40.0000000000005,164.310889132455));
#1524=CARTESIAN_POINT('',(97.0000000000038,-49.9999999999995,168.857328703392));
#1525=CARTESIAN_POINT('',(98.7396477470604,-49.9999999999995,168.857328703392));
#1526=CARTESIAN_POINT('',(100.442367990007,-49.5481640177105,168.816576492639));
#1527=CARTESIAN_POINT('',(101.95152525835,-48.6880606360656,168.721504769783));
#1528=CARTESIAN_POINT('',(101.95152525835,-48.6880606360656,168.721504769783));
#1529=CARTESIAN_POINT('',(101.95152525835,-48.6880606360656,168.721504769783));
#1530=CARTESIAN_POINT('',(105.022713609198,-46.937719871956,168.967007625654));
#1531=CARTESIAN_POINT('',(107.000000000004,-43.543546971072,169.055221333138));
#1532=CARTESIAN_POINT('',(107.000000000004,-39.9999999999995,169.055221333138));
#1533=CARTESIAN_POINT('',(97.0000000000038,-39.9999999999995,170.310889132455));
#1534=CARTESIAN_POINT('',(76.9999999999968,27.2963888949982,151.810889132456));
#1535=CARTESIAN_POINT('',(80.4999740063183,29.243808365621,155.357804535987));
#1536=CARTESIAN_POINT('',(84.3410501528303,31.9579456690027,158.009326596913));
#1537=CARTESIAN_POINT('',(92.1714889662025,37.8404174019438,161.887239679398));
#1538=CARTESIAN_POINT('',(96.1618023783598,41.0233099820212,163.128189223238));
#1539=CARTESIAN_POINT('',(100.26511254711,44.3440303180336,163.784205233897));
#1540=CARTESIAN_POINT('',(100.26511254711,44.3440303180336,163.784205233897));
#1541=CARTESIAN_POINT('',(100.26511254711,44.3440303180336,163.784205233897));
#1542=CARTESIAN_POINT('',(101.696800479985,43.4309413671468,164.013096097031));
#1543=CARTESIAN_POINT('',(102.520814027424,41.7180197172602,164.082420035193));
#1544=CARTESIAN_POINT('',(102.520814027424,40.0000000000005,164.082420035193));
#1545=CARTESIAN_POINT('',(102.520814027424,40.0000000000005,164.082420035193));
#1546=CARTESIAN_POINT('',(102.520814027424,25.2000000000005,164.082420035193));
#1547=CARTESIAN_POINT('',(102.520814027424,-39.9999999999995,164.082420035193));
#1548=CARTESIAN_POINT('',(102.520814027424,-39.9999999999995,164.082420035193));
#1549=CARTESIAN_POINT('',(102.520814027424,-41.7180197172592,164.082420035193));
#1550=CARTESIAN_POINT('',(101.696800479985,-43.4309413671457,164.013096097031));
#1551=CARTESIAN_POINT('',(100.26511254711,-44.3440303180325,163.784205233897));
#1552=CARTESIAN_POINT('',(100.26511254711,-44.3440303180325,163.784205233897));
#1553=CARTESIAN_POINT('',(100.26511254711,-44.3440303180321,163.784205233897));
#1554=CARTESIAN_POINT('',(96.1618023783594,-41.0233099820198,163.128189223238));
#1555=CARTESIAN_POINT('',(92.1714889662017,-37.8404174019422,161.887239679398));
#1556=CARTESIAN_POINT('',(84.3410501528298,-31.9579456690013,158.009326596912));
#1557=CARTESIAN_POINT('',(80.4999740063181,-29.2438083656199,155.357804535987));
#1558=CARTESIAN_POINT('',(76.9999999999968,-27.2963888949971,151.810889132456));
#1559=CARTESIAN_POINT('',(106.89565185775,25.2000000000005,122.310889132456));
#1560=CARTESIAN_POINT('',(97.0000000000039,45.9480992435484,163.948040789204));
#1561=CARTESIAN_POINT('',(97.8566214592137,45.9480992435484,163.948040789204));
#1562=CARTESIAN_POINT('',(98.7078023566631,45.7734660530093,163.916787816187));
#1563=CARTESIAN_POINT('',(99.4757626291769,45.4233234979748,163.839381642317));
#1564=CARTESIAN_POINT('',(97.0000000000039,45.9480992435484,163.948040789204));
#1565=CARTESIAN_POINT('',(99.4757626291769,45.4233234979748,163.839381642317));
#1566=CARTESIAN_POINT('',(99.4757626291769,45.4233234979748,163.839381642317));
#1567=CARTESIAN_POINT('',(95.4000117110227,43.0653060743589,163.318093658167));
#1568=CARTESIAN_POINT('',(91.406879925555,40.7855636892018,162.377662368837));
#1569=CARTESIAN_POINT('',(83.5542984617255,36.5104409755596,159.528140857204));
#1570=CARTESIAN_POINT('',(79.6629517769622,34.4915119214486,157.601733598867));
#1571=CARTESIAN_POINT('',(75.9999999999968,32.8654600925686,155.045559866771));
#1572=CARTESIAN_POINT('',(75.9999999999968,32.8654600925686,155.045559866771));
#1573=CARTESIAN_POINT('',(75.9999999999968,49.7404962177397,144.310889132456));
#1574=CARTESIAN_POINT('',(75.9999999999968,45.9480992435484,163.948040789204));
#1575=CARTESIAN_POINT('',(41.9999999999968,45.9480992435484,163.948040789204));
#1576=CARTESIAN_POINT('',(41.9999999999968,49.7404962177397,144.310889132456));
#1577=CARTESIAN_POINT('',(75.9999999999968,-49.7404962177387,144.310889132456));
#1578=CARTESIAN_POINT('',(75.9999999999968,-45.9480992435473,163.948040789204));
#1579=CARTESIAN_POINT('',(75.9999999999968,-32.8654600925675,155.045559866771));
#1580=CARTESIAN_POINT('',(75.9999999999968,-32.8654600925675,155.045559866771));
#1581=CARTESIAN_POINT('',(79.662951776962,-34.4915119214474,157.601733598867));
#1582=CARTESIAN_POINT('',(83.554298461725,-36.5104409755583,159.528140857204));
#1583=CARTESIAN_POINT('',(91.406879925554,-40.7855636892002,162.377662368837));
#1584=CARTESIAN_POINT('',(95.4000117110228,-43.0653060743579,163.318093658167));
#1585=CARTESIAN_POINT('',(99.4757626291768,-45.4233234979737,163.839381642317));
#1586=CARTESIAN_POINT('',(99.4757626291742,-45.4233234979749,163.839381642318));
#1587=CARTESIAN_POINT('',(99.4757626291742,-45.4233234979749,163.839381642318));
#1588=CARTESIAN_POINT('',(99.2019886538479,-45.5481475580904,163.866976554051));
#1589=CARTESIAN_POINT('',(98.9164737463882,-45.6507906540598,163.888452253691));
#1590=CARTESIAN_POINT('',(98.6255693786594,-45.7307987405882,163.904825085748));
#1591=CARTESIAN_POINT('',(98.0990571810256,-45.8756065817198,163.934458521146));
#1592=CARTESIAN_POINT('',(97.546866113055,-45.9480992435473,163.948040789204));
#1593=CARTESIAN_POINT('',(97.0000000000038,-45.9480992435473,163.948040789204));
#1594=CARTESIAN_POINT('',(97.0000000000038,-45.9480992435473,163.948040789204));
#1595=CARTESIAN_POINT('',(41.9999999999968,-45.9480992435473,163.948040789204));
#1596=CARTESIAN_POINT('',(41.9999999999968,-49.7404962177387,144.310889132456));
#1597=CARTESIAN_POINT('',(72.9999999999966,45.0000000000005,294.060889132405));
#1598=CARTESIAN_POINT('',(72.9999999999966,31.2000000000005,294.060889132405));
#1599=CARTESIAN_POINT('',(75.9999999999966,48.0000000000006,294.060889132405));
#1600=CARTESIAN_POINT('',(75.9999999999966,45.0000000000006,294.060889132405));
#1601=CARTESIAN_POINT('',(97.0000000000037,48.0000000000005,294.060889132405));
#1602=CARTESIAN_POINT('',(75.9999999999966,48.0000000000005,294.060889132405));
#1603=CARTESIAN_POINT('',(105.000000000004,40.0000000000006,294.060889132405));
#1604=CARTESIAN_POINT('',(97.0000000000037,40.0000000000006,294.060889132405));
#1605=CARTESIAN_POINT('',(105.000000000004,-39.9999999999996,294.060889132405));
#1606=CARTESIAN_POINT('',(105.000000000004,40.0000000000005,294.060889132405));
#1607=CARTESIAN_POINT('',(97.0000000000037,-47.9999999999994,294.060889132405));
#1608=CARTESIAN_POINT('',(97.0000000000037,-39.9999999999994,294.060889132405));
#1609=CARTESIAN_POINT('',(75.9999999999967,-47.9999999999995,294.060889132405));
#1610=CARTESIAN_POINT('',(97.0000000000036,-47.9999999999995,294.060889132405));
#1611=CARTESIAN_POINT('',(72.9999999999968,-44.9999999999995,294.060889132405));
#1612=CARTESIAN_POINT('',(75.9999999999968,-44.9999999999995,294.060889132405));
#1613=CARTESIAN_POINT('',(72.9999999999966,-44.9999999999995,294.060889132405));
#1614=CARTESIAN_POINT('',(74.2148881910087,-30.8450095472199,151.810889132456));
#1615=CARTESIAN_POINT('',(74.7808501457003,-31.5109565617516,152.902324629179));
#1616=CARTESIAN_POINT('',(75.3788280391696,-32.1834169368659,153.973303600431));
#1617=CARTESIAN_POINT('',(75.9928576870836,-32.8576186491563,155.03323258223));
#1618=CARTESIAN_POINT('',(75.995238217317,-32.8602324603379,155.037341818641));
#1619=CARTESIAN_POINT('',(75.9976192290255,-32.8628462120064,155.041450813966));
#1620=CARTESIAN_POINT('',(75.9999999999968,-32.8654600925675,155.045559866771));
#1621=CARTESIAN_POINT('',(75.9999999999968,-44.9999999999995,168.857328703391));
#1622=CARTESIAN_POINT('',(75.9999999999968,-49.7404962177387,144.310889132456));
#1623=CARTESIAN_POINT('',(75.9999999999968,-44.9999999999995,168.857328703391));
#1624=CARTESIAN_POINT('',(75.9999999999968,-44.9999999999995,168.857328703391));
#1625=CARTESIAN_POINT('',(97.0000000000038,-44.9999999999995,168.857328703392));
#1626=CARTESIAN_POINT('',(41.9999999999967,-44.9999999999995,168.857328703391));
#1627=CARTESIAN_POINT('',(99.4757626291847,-44.344030318028,168.721504769782));
#1628=CARTESIAN_POINT('',(97.0000000000038,-45.9480992435473,163.948040789204));
#1629=CARTESIAN_POINT('',(97.0000000000038,-49.9999999999995,164.730558357795));
#1630=CARTESIAN_POINT('',(97.0000000000038,-49.9999999999995,168.857328703392));
#1631=CARTESIAN_POINT('',(97.8660693965869,-45.9480992387505,163.948040788278));
#1632=CARTESIAN_POINT('',(98.5961982101591,-49.9999999899081,164.730558356893));
#1633=CARTESIAN_POINT('',(98.7329057008949,-49.9999999999995,168.857328702225));
#1634=CARTESIAN_POINT('',(98.7289013319529,-45.7638462201848,163.91466115537));
#1635=CARTESIAN_POINT('',(100.180028325729,-49.6087230199872,164.700935795197));
#1636=CARTESIAN_POINT('',(100.456781553001,-49.5399493971885,168.815668484527));
#1637=CARTESIAN_POINT('',(99.4757626291847,-45.4233234979701,163.839381642317));
#1638=CARTESIAN_POINT('',(101.560546388524,-48.9108884719343,164.610379217087));
#1639=CARTESIAN_POINT('',(101.951525258366,-48.6880606360565,168.721504769782));
#1640=CARTESIAN_POINT('',(99.4757626291769,-44.3440303180327,168.721504769783));
#1641=CARTESIAN_POINT('',(102.000000000004,-39.9999999999995,169.055221333138));
#1642=CARTESIAN_POINT('',(107.000000000004,-39.9999999999995,169.055221333138));
#1643=CARTESIAN_POINT('',(107.000000000004,-39.9999999999995,164.551536484086));
#1644=CARTESIAN_POINT('',(102.520814027424,-39.9999999999995,164.082420035193));
#1645=CARTESIAN_POINT('',(107.000000000004,-41.756480283973,169.055221332504));
#1646=CARTESIAN_POINT('',(106.999999989094,-41.6748572493905,164.551536483513));
#1647=CARTESIAN_POINT('',(102.520814022049,-40.878240141859,164.08242003463));
#1648=CARTESIAN_POINT('',(106.521306113736,-43.5214586333654,169.031634058035));
#1649=CARTESIAN_POINT('',(106.563863121774,-43.3544390163323,164.532964531715));
#1650=CARTESIAN_POINT('',(102.306929525359,-41.7607293168274,164.061342043945));
#1651=CARTESIAN_POINT('',(104.761950025012,-46.5427878482472,168.926550463954));
#1652=CARTESIAN_POINT('',(104.990149659097,-46.2450392776989,164.418847284286));
#1653=CARTESIAN_POINT('',(101.520834251053,-43.2713939239785,163.967437557079));
#1654=CARTESIAN_POINT('',(103.465967003885,-47.8249455095228,168.8425653263));
#1655=CARTESIAN_POINT('',(103.83253024822,-47.4895284807101,164.317407397255));
#1656=CARTESIAN_POINT('',(100.941524480742,-43.9126344524513,163.892346475971));
#1657=CARTESIAN_POINT('',(101.95152525835,-48.6880606360656,168.721504769783));
#1658=CARTESIAN_POINT('',(102.504147198997,-48.3731087023658,164.142170515499));
#1659=CARTESIAN_POINT('',(100.26511254711,-44.3440303180326,163.784205233897));
#1660=CARTESIAN_POINT('',(102.000000000004,40.0000000000005,169.055221333138));
#1661=CARTESIAN_POINT('',(102.000000000004,25.2000000000005,169.055221333138));
#1662=CARTESIAN_POINT('',(99.4757626291769,44.3440303180336,168.721504769783));
#1663=CARTESIAN_POINT('',(102.520814027424,40.0000000000005,164.082420035193));
#1664=CARTESIAN_POINT('',(107.000000000004,40.0000000000005,164.551536484086));
#1665=CARTESIAN_POINT('',(107.000000000004,40.0000000000005,169.055221333138));
#1666=CARTESIAN_POINT('',(102.520814022071,40.8782401418602,164.082420034632));
#1667=CARTESIAN_POINT('',(106.999999989106,41.6748572493851,164.551536483549));
#1668=CARTESIAN_POINT('',(107.000000000004,41.7564802839723,169.055221332541));
#1669=CARTESIAN_POINT('',(102.306929525361,41.7607293168284,164.061342043945));
#1670=CARTESIAN_POINT('',(106.563863121781,43.3544390163373,164.532964531727));
#1671=CARTESIAN_POINT('',(106.521306113735,43.5214586333688,169.031634058047));
#1672=CARTESIAN_POINT('',(101.520834251052,43.2713939239795,163.967437557079));
#1673=CARTESIAN_POINT('',(104.990149659093,46.2450392776918,164.418847284274));
#1674=CARTESIAN_POINT('',(104.761950025014,46.542787848246,168.926550463942));
#1675=CARTESIAN_POINT('',(100.941524480743,43.9126344524522,163.892346475971));
#1676=CARTESIAN_POINT('',(103.832530248248,47.4895284807384,164.317407397222));
#1677=CARTESIAN_POINT('',(103.465967003884,47.8249455095245,168.842565326299));
#1678=CARTESIAN_POINT('',(100.26511254711,44.3440303180337,163.784205233897));
#1679=CARTESIAN_POINT('',(102.504147198997,48.373108702367,164.142170515499));
#1680=CARTESIAN_POINT('',(101.95152525835,48.6880606360667,168.721504769783));
#1681=CARTESIAN_POINT('',(99.475762629177,44.3440303180336,168.721504769783));
#1682=CARTESIAN_POINT('',(97.0000000000039,45.0000000000005,168.857328703392));
#1683=CARTESIAN_POINT('',(97.0000000000039,50.0000000000005,168.857328703392));
#1684=CARTESIAN_POINT('',(97.0000000000039,50.0000000000005,164.730558357795));
#1685=CARTESIAN_POINT('',(97.0000000000039,45.9480992435484,163.948040789204));
#1686=CARTESIAN_POINT('',(98.732905700887,50.0000000000005,168.857328702261));
#1687=CARTESIAN_POINT('',(98.5961982101581,49.9999999898941,164.730558356941));
#1688=CARTESIAN_POINT('',(97.8660693965898,45.9480992387467,163.948040788277));
#1689=CARTESIAN_POINT('',(100.456781552991,49.5399493971916,168.815668484526));
#1690=CARTESIAN_POINT('',(100.180028325712,49.6087230199909,164.700935795207));
#1691=CARTESIAN_POINT('',(98.7289013319392,45.7638462201839,163.914661155369));
#1692=CARTESIAN_POINT('',(101.95152525835,48.6880606360666,168.721504769783));
#1693=CARTESIAN_POINT('',(101.560546388509,48.9108884719428,164.610379217088));
#1694=CARTESIAN_POINT('',(99.475762629177,45.4233234979748,163.839381642317));
#1695=CARTESIAN_POINT('',(75.9999999999968,45.0000000000005,168.857328703392));
#1696=CARTESIAN_POINT('',(41.9999999999967,45.0000000000005,168.857328703391));
#1697=CARTESIAN_POINT('',(75.9999999999968,45.0000000000005,168.857328703392));
#1698=CARTESIAN_POINT('',(75.9999999999968,45.0000000000005,168.857328703392));
#1699=CARTESIAN_POINT('',(75.9999999999968,32.8654600925686,155.045559866771));
#1700=CARTESIAN_POINT('',(75.9976192290248,32.8628462120076,155.041450813966));
#1701=CARTESIAN_POINT('',(75.9952382173141,32.8602324603396,155.037341818642));
#1702=CARTESIAN_POINT('',(75.9928576870814,32.8576186491579,155.033232582231));
#1703=CARTESIAN_POINT('',(75.4877669036464,32.3030313058002,154.161352271861));
#1704=CARTESIAN_POINT('',(74.993540871575,31.7492771642146,153.282336625594));
#1705=CARTESIAN_POINT('',(74.5191026153083,31.2000000000005,152.390113540039));
#1706=CARTESIAN_POINT('',(75.9999999999968,49.7404962177397,144.310889132456));
#1707=CARTESIAN_POINT('',(99.4757626291769,44.3440303180336,168.721504769783));
#1708=CARTESIAN_POINT('',(100.26511254711,44.3440303180336,163.784205233897));
#1709=CARTESIAN_POINT('',(99.8776350897421,44.8935181890526,163.722257341744));
#1710=CARTESIAN_POINT('',(99.4757626291769,45.4233234979748,163.839381642317));
#1711=CARTESIAN_POINT('',(95.8077254871155,40.7367631970556,163.071581240876));
#1712=CARTESIAN_POINT('',(95.1132300488453,41.628371127848,162.917328570251));
#1713=CARTESIAN_POINT('',(94.4871111679323,42.5371493167235,163.201333803576));
#1714=CARTESIAN_POINT('',(91.4957707286274,37.3007511419754,161.673043406373));
#1715=CARTESIAN_POINT('',(90.4829110500471,38.5349656839623,161.271515229708));
#1716=CARTESIAN_POINT('',(89.662451546467,39.7887001573501,161.949389149032));
#1717=CARTESIAN_POINT('',(85.1978185811635,32.6236835464167,158.350283037877));
#1718=CARTESIAN_POINT('',(84.1518886725766,34.6912865798097,157.728160998669));
#1719=CARTESIAN_POINT('',(82.6147431911546,36.0470460805704,158.974727485917));
#1720=CARTESIAN_POINT('',(83.1156770257631,31.1395311132732,157.02054617077));
#1721=CARTESIAN_POINT('',(82.044230025356,33.4927888851105,156.280995979472));
#1722=CARTESIAN_POINT('',(80.2847276408951,34.8597241343361,157.784296385755));
#1723=CARTESIAN_POINT('',(79.1668300778238,28.5326240850658,153.955160927275));
#1724=CARTESIAN_POINT('',(78.1548873488195,31.5153496124143,153.072547345861));
#1725=CARTESIAN_POINT('',(75.8657798660353,32.7741985114311,155.040046739294));
#1726=CARTESIAN_POINT('',(77.2780657921642,27.3907329624119,152.210531749035));
#1727=CARTESIAN_POINT('',(76.3494787536719,30.7346111780439,151.268542250451));
#1728=CARTESIAN_POINT('',(73.7521748446481,31.8606899536947,153.478199182602));
#1729=CARTESIAN_POINT('',(75.4971500629481,26.5011484503661,150.20594398169));
#1730=CARTESIAN_POINT('',(74.7619713965601,30.2348685860603,149.378431406402));
#1731=CARTESIAN_POINT('',(71.7592331826144,31.1490180038408,151.683604902247));
#1732=CARTESIAN_POINT('',(99.4757626291769,44.3440303180336,168.721504769783));
#1733=CARTESIAN_POINT('',(99.4757626291768,-44.3440303180326,168.721504769783));
#1734=CARTESIAN_POINT('',(99.4757626291827,-45.4233234979772,163.839381642318));
#1735=CARTESIAN_POINT('',(99.8776350897475,-44.8935181890554,163.722257341745));
#1736=CARTESIAN_POINT('',(100.265112547115,-44.3440303180368,163.784205233898));
#1737=CARTESIAN_POINT('',(94.6998429758538,-42.6602248730052,163.228542172773));
#1738=CARTESIAN_POINT('',(95.3184035013204,-41.7689808149663,162.95199187394));
#1739=CARTESIAN_POINT('',(95.9977073956389,-40.8905114546167,163.101954565973));
#1740=CARTESIAN_POINT('',(90.0746812648936,-40.0245131725252,162.052890955737));
#1741=CARTESIAN_POINT('',(90.8871637499723,-38.8053558855614,161.414327551369));
#1742=CARTESIAN_POINT('',(91.86414622171,-37.5955174109964,161.788657126602));
#1743=CARTESIAN_POINT('',(83.3121674464802,-36.410438534963,159.297693360907));
#1744=CARTESIAN_POINT('',(84.7902517933177,-35.0681805497367,158.121145482807));
#1745=CARTESIAN_POINT('',(85.8210487667634,-33.0779241143818,158.711042791868));
#1746=CARTESIAN_POINT('',(81.0686878294981,-35.2548021986305,158.197326727271));
#1747=CARTESIAN_POINT('',(82.7528887595345,-33.8897396163932,156.780372968804));
#1748=CARTESIAN_POINT('',(83.8162371942673,-31.6333786936932,157.481909850129));
#1749=CARTESIAN_POINT('',(76.7892817833261,-33.193411340443,155.66264945205));
#1750=CARTESIAN_POINT('',(78.9625151342519,-31.9004014630557,153.79841369404));
#1751=CARTESIAN_POINT('',(79.992087110331,-29.0566401212793,154.650621404282));
#1752=CARTESIAN_POINT('',(74.7401362530678,-32.2782377446637,154.227416556756));
#1753=CARTESIAN_POINT('',(77.1932573295564,-31.0887066521975,152.126383912171));
#1754=CARTESIAN_POINT('',(78.1609218540914,-27.9126656597136,153.047421030613));
#1755=CARTESIAN_POINT('',(72.7893598622236,-31.5306775420985,152.581469752963));
#1756=CARTESIAN_POINT('',(75.6140006544419,-30.5222921652596,150.361248983713));
#1757=CARTESIAN_POINT('',(76.417688797918,-26.9782228731885,151.208878123448));
#1758=CARTESIAN_POINT('',(99.4757626291768,-44.3440303180325,168.721504769783));
#1759=MECHANICAL_DESIGN_GEOMETRIC_PRESENTATION_REPRESENTATION('',(#86),
#1760);
#1760=(
GEOMETRIC_REPRESENTATION_CONTEXT(3)
GLOBAL_UNCERTAINTY_ASSIGNED_CONTEXT((#1761))
GLOBAL_UNIT_ASSIGNED_CONTEXT((#1767,#1763,#1762))
REPRESENTATION_CONTEXT('Mouth','TOP_LEVEL_ASSEMBLY_PART')
);
#1761=UNCERTAINTY_MEASURE_WITH_UNIT(LENGTH_MEASURE(0.0508),#1767,
'DISTANCE_ACCURACY_VALUE','Maximum Tolerance applied to model');
#1762=(
NAMED_UNIT(*)
SI_UNIT($,.STERADIAN.)
SOLID_ANGLE_UNIT()
);
#1763=(
CONVERSION_BASED_UNIT('DEGREE',#1765)
NAMED_UNIT(#1764)
PLANE_ANGLE_UNIT()
);
#1764=DIMENSIONAL_EXPONENTS(0.,0.,0.,0.,0.,0.,0.);
#1765=PLANE_ANGLE_MEASURE_WITH_UNIT(PLANE_ANGLE_MEASURE(0.0174532925),#1766);
#1766=(
NAMED_UNIT(*)
PLANE_ANGLE_UNIT()
SI_UNIT($,.RADIAN.)
);
#1767=(
LENGTH_UNIT()
NAMED_UNIT(*)
SI_UNIT(.MILLI.,.METRE.)
);
ENDSEC;
END-ISO-10303-21;
