ISO-10303-21;
HEADER;
/* Generated by software containing ST-Developer
 * from STEP Tools, Inc. (www.steptools.com) 
 */
/* OPTION: using custom schema-name function */

FILE_DESCRIPTION(
/* description */ (''),
/* implementation_level */ '2;1');

FILE_NAME(
/* name */ 'Right_knee.stp',
/* time_stamp */ '2026-09-11T23:24:42+08:00',
/* author */ (''),
/* organization */ (''),
/* preprocessor_version */ 'ST-DEVELOPER v20',
/* originating_system */ 'SIEMENS PLM Software NX2406.1700',
/* authorisation */ '');

FILE_SCHEMA (('AP203_CONFIGURATION_CONTROLLED_3D_DESIGN_OF_MECHANICAL_PARTS_AND_ASSEMBLIES_MIM_LF { 1 0 10303 403 2 1 2}'));
ENDSEC;

DATA;
#10=PROPERTY_DEFINITION_REPRESENTATION(#14,#12);
#11=PROPERTY_DEFINITION_REPRESENTATION(#15,#13);
#12=REPRESENTATION('',(#16),#799);
#13=REPRESENTATION('',(#17),#799);
#14=PROPERTY_DEFINITION('pmi validation property','',#73);
#15=PROPERTY_DEFINITION('pmi validation property','',#73);
#16=VALUE_REPRESENTATION_ITEM('number of annotations',COUNT_MEASURE(0.));
#17=VALUE_REPRESENTATION_ITEM('number of views',COUNT_MEASURE(0.));
#18=SHAPE_REPRESENTATION_RELATIONSHIP('None',
'relationship between Full_wamoduck_asm_objects-None and Full_wamoduck
_asm_objects-None',#84,#19);
#19=ADVANCED_BREP_SHAPE_REPRESENTATION('Full_wamoduck_asm_objects-None',
(#94),#799);
#20=APPLIED_APPROVAL_ASSIGNMENT(#32,(#74));
#21=APPLIED_APPROVAL_ASSIGNMENT(#33,(#76));
#22=APPLIED_APPROVAL_ASSIGNMENT(#34,(#46));
#23=APPROVAL_PERSON_ORGANIZATION(#38,#32,#26);
#24=APPROVAL_PERSON_ORGANIZATION(#39,#33,#27);
#25=APPROVAL_PERSON_ORGANIZATION(#40,#34,#28);
#26=APPROVAL_ROLE('approver');
#27=APPROVAL_ROLE('approver');
#28=APPROVAL_ROLE('approver');
#29=APPROVAL_DATE_TIME(#54,#32);
#30=APPROVAL_DATE_TIME(#55,#33);
#31=APPROVAL_DATE_TIME(#56,#34);
#32=APPROVAL(#35,' ');
#33=APPROVAL(#36,' ');
#34=APPROVAL(#37,' ');
#35=APPROVAL_STATUS('not_yet_approved');
#36=APPROVAL_STATUS('not_yet_approved');
#37=APPROVAL_STATUS('not_yet_approved');
#38=PERSON_AND_ORGANIZATION(#44,#41);
#39=PERSON_AND_ORGANIZATION(#44,#42);
#40=PERSON_AND_ORGANIZATION(#44,#43);
#41=ORGANIZATION(' ',' ',' ');
#42=ORGANIZATION(' ',' ',' ');
#43=ORGANIZATION(' ',' ',' ');
#44=PERSON(' ',' ',' ',(' '),$,$);
#45=APPLIED_SECURITY_CLASSIFICATION_ASSIGNMENT(#46,(#76));
#46=SECURITY_CLASSIFICATION(' ',' ',#47);
#47=SECURITY_CLASSIFICATION_LEVEL('confidential');
#48=APPLIED_DATE_AND_TIME_ASSIGNMENT(#52,#50,(#74));
#49=APPLIED_DATE_AND_TIME_ASSIGNMENT(#53,#51,(#46));
#50=DATE_TIME_ROLE('creation_date');
#51=DATE_TIME_ROLE('classification_date');
#52=DATE_AND_TIME(#67,#57);
#53=DATE_AND_TIME(#68,#58);
#54=DATE_AND_TIME(#69,#59);
#55=DATE_AND_TIME(#70,#60);
#56=DATE_AND_TIME(#71,#61);
#57=LOCAL_TIME(0,0,0.,#62);
#58=LOCAL_TIME(0,0,0.,#63);
#59=LOCAL_TIME(0,0,0.,#64);
#60=LOCAL_TIME(0,0,0.,#65);
#61=LOCAL_TIME(0,0,0.,#66);
#62=COORDINATED_UNIVERSAL_TIME_OFFSET(0,0,.BEHIND.);
#63=COORDINATED_UNIVERSAL_TIME_OFFSET(0,0,.BEHIND.);
#64=COORDINATED_UNIVERSAL_TIME_OFFSET(0,0,.BEHIND.);
#65=COORDINATED_UNIVERSAL_TIME_OFFSET(0,0,.BEHIND.);
#66=COORDINATED_UNIVERSAL_TIME_OFFSET(0,0,.BEHIND.);
#67=CALENDAR_DATE(0,1,1);
#68=CALENDAR_DATE(0,1,1);
#69=CALENDAR_DATE(0,1,1);
#70=CALENDAR_DATE(0,1,1);
#71=CALENDAR_DATE(0,1,1);
#72=SHAPE_DEFINITION_REPRESENTATION(#73,#84);
#73=PRODUCT_DEFINITION_SHAPE('','',#74);
#74=PRODUCT_DEFINITION(' ','',#76,#75);
#75=PRODUCT_DEFINITION_CONTEXT('part definition',#83,'design');
#76=PRODUCT_DEFINITION_FORMATION_WITH_SPECIFIED_SOURCE(' ',' ',#78,
 .NOT_KNOWN.);
#77=PRODUCT_RELATED_PRODUCT_CATEGORY('detail','',(#78));
#78=PRODUCT('Full_wamoduck_asm_objects','Full_wamoduck_asm_objects',' ',
(#81));
#79=PRODUCT_CATEGORY('part',' ');
#80=PRODUCT_CATEGORY(' ','');
#81=PRODUCT_CONTEXT(' ',#83,'mechanical');
#82=APPLICATION_PROTOCOL_DEFINITION('international standard',
'config_control_design',2010,#83);
#83=APPLICATION_CONTEXT(
'configuration controlled 3D designs of mechanical parts and assemblie
s');
#84=SHAPE_REPRESENTATION('Full_wamoduck_asm_objects-None',(#490),#799);
#85=PRESENTATION_LAYER_ASSIGNMENT('1','Layer 1',(#94));
#86=STYLED_ITEM('',(#87),#94);
#87=PRESENTATION_STYLE_ASSIGNMENT((#88));
#88=SURFACE_STYLE_USAGE(.BOTH.,#89);
#89=SURFACE_SIDE_STYLE('',(#90));
#90=SURFACE_STYLE_FILL_AREA(#91);
#91=FILL_AREA_STYLE('',(#92));
#92=FILL_AREA_STYLE_COLOUR('',#93);
#93=COLOUR_RGB('medium gray',0.490196078431373,0.490196078431373,0.490196078431373);
#94=MANIFOLD_SOLID_BREP('',#95);
#95=CLOSED_SHELL('',(#143,#144,#145,#146,#147,#148,#149,#150,#151,#152,
#153,#154,#155,#156,#157,#158,#159,#160,#161,#162,#163,#164,#165,#166,#167,
#168,#169,#170));
#96=TOROIDAL_SURFACE('',#544,14.4999999999947,1.);
#97=TOROIDAL_SURFACE('',#549,14.4999999999947,1.);
#98=FACE_OUTER_BOUND('',#277,.T.);
#99=FACE_OUTER_BOUND('',#278,.T.);
#100=FACE_OUTER_BOUND('',#279,.T.);
#101=FACE_OUTER_BOUND('',#280,.T.);
#102=FACE_OUTER_BOUND('',#281,.T.);
#103=FACE_OUTER_BOUND('',#282,.T.);
#104=FACE_OUTER_BOUND('',#283,.T.);
#105=CONICAL_SURFACE('',#515,3.65,45.);
#106=CONICAL_SURFACE('',#516,3.65,45.);
#107=CONICAL_SURFACE('',#517,3.65,45.);
#108=CONICAL_SURFACE('',#533,1.65,45.);
#109=CONICAL_SURFACE('',#534,1.65,45.);
#110=CONICAL_SURFACE('',#535,1.65,45.);
#111=CYLINDRICAL_SURFACE('',#499,15.4999999999947);
#112=CYLINDRICAL_SURFACE('',#501,1.65);
#113=CYLINDRICAL_SURFACE('',#503,1.65);
#114=CYLINDRICAL_SURFACE('',#505,1.65);
#115=CYLINDRICAL_SURFACE('',#521,15.4999999999947);
#116=CYLINDRICAL_SURFACE('',#528,1.65);
#117=CYLINDRICAL_SURFACE('',#530,1.65);
#118=CYLINDRICAL_SURFACE('',#532,1.65);
#119=CYLINDRICAL_SURFACE('',#537,13.6);
#120=CYLINDRICAL_SURFACE('',#546,1.);
#121=CYLINDRICAL_SURFACE('',#548,1.);
#122=CYLINDRICAL_SURFACE('',#551,13.55);
#123=LINE('',#699,#133);
#124=LINE('',#704,#134);
#125=LINE('',#719,#135);
#126=LINE('',#724,#136);
#127=LINE('',#745,#137);
#128=LINE('',#750,#138);
#129=LINE('',#779,#139);
#130=LINE('',#780,#140);
#131=LINE('',#782,#141);
#132=LINE('',#783,#142);
#133=VECTOR('',#565,1.);
#134=VECTOR('',#568,1.);
#135=VECTOR('',#587,1.);
#136=VECTOR('',#590,1.);
#137=VECTOR('',#615,1.);
#138=VECTOR('',#618,1.);
#139=VECTOR('',#657,1.);
#140=VECTOR('',#658,1.);
#141=VECTOR('',#661,1.);
#142=VECTOR('',#662,1.);
#143=ADVANCED_FACE('',(#179,#180,#181,#182),#171,.T.);
#144=ADVANCED_FACE('',(#183,#184),#111,.T.);
#145=ADVANCED_FACE('',(#185,#186),#112,.F.);
#146=ADVANCED_FACE('',(#187,#188),#113,.F.);
#147=ADVANCED_FACE('',(#189,#190),#114,.F.);
#148=ADVANCED_FACE('',(#191,#192,#193,#194,#195,#196,#197),#172,.T.);
#149=ADVANCED_FACE('',(#198,#199),#105,.F.);
#150=ADVANCED_FACE('',(#200,#201),#106,.F.);
#151=ADVANCED_FACE('',(#202,#203),#107,.F.);
#152=ADVANCED_FACE('',(#204,#205),#115,.T.);
#153=ADVANCED_FACE('',(#206,#207,#208,#209),#173,.T.);
#154=ADVANCED_FACE('',(#210,#211),#116,.F.);
#155=ADVANCED_FACE('',(#212,#213),#117,.F.);
#156=ADVANCED_FACE('',(#214,#215),#118,.F.);
#157=ADVANCED_FACE('',(#216,#217),#108,.F.);
#158=ADVANCED_FACE('',(#218,#219),#109,.F.);
#159=ADVANCED_FACE('',(#220,#221),#110,.F.);
#160=ADVANCED_FACE('',(#222,#223),#119,.F.);
#161=ADVANCED_FACE('',(#224,#225),#174,.T.);
#162=ADVANCED_FACE('',(#98),#175,.T.);
#163=ADVANCED_FACE('',(#99),#176,.T.);
#164=ADVANCED_FACE('',(#100),#177,.T.);
#165=ADVANCED_FACE('',(#101),#96,.T.);
#166=ADVANCED_FACE('',(#102),#120,.T.);
#167=ADVANCED_FACE('',(#103),#121,.T.);
#168=ADVANCED_FACE('',(#104),#97,.T.);
#169=ADVANCED_FACE('',(#226,#227),#122,.F.);
#170=ADVANCED_FACE('',(#228,#229),#178,.T.);
#171=PLANE('',#495);
#172=PLANE('',#514);
#173=PLANE('',#526);
#174=PLANE('',#538);
#175=PLANE('',#539);
#176=PLANE('',#540);
#177=PLANE('',#541);
#178=PLANE('',#552);
#179=FACE_BOUND('',#230,.T.);
#180=FACE_BOUND('',#231,.T.);
#181=FACE_BOUND('',#232,.T.);
#182=FACE_BOUND('',#233,.T.);
#183=FACE_BOUND('',#234,.T.);
#184=FACE_BOUND('',#235,.T.);
#185=FACE_BOUND('',#236,.T.);
#186=FACE_BOUND('',#237,.T.);
#187=FACE_BOUND('',#238,.T.);
#188=FACE_BOUND('',#239,.T.);
#189=FACE_BOUND('',#240,.T.);
#190=FACE_BOUND('',#241,.T.);
#191=FACE_BOUND('',#242,.T.);
#192=FACE_BOUND('',#243,.T.);
#193=FACE_BOUND('',#244,.T.);
#194=FACE_BOUND('',#245,.T.);
#195=FACE_BOUND('',#246,.T.);
#196=FACE_BOUND('',#247,.T.);
#197=FACE_BOUND('',#248,.T.);
#198=FACE_BOUND('',#249,.T.);
#199=FACE_BOUND('',#250,.T.);
#200=FACE_BOUND('',#251,.T.);
#201=FACE_BOUND('',#252,.T.);
#202=FACE_BOUND('',#253,.T.);
#203=FACE_BOUND('',#254,.T.);
#204=FACE_BOUND('',#255,.T.);
#205=FACE_BOUND('',#256,.T.);
#206=FACE_BOUND('',#257,.T.);
#207=FACE_BOUND('',#258,.T.);
#208=FACE_BOUND('',#259,.T.);
#209=FACE_BOUND('',#260,.T.);
#210=FACE_BOUND('',#261,.T.);
#211=FACE_BOUND('',#262,.T.);
#212=FACE_BOUND('',#263,.T.);
#213=FACE_BOUND('',#264,.T.);
#214=FACE_BOUND('',#265,.T.);
#215=FACE_BOUND('',#266,.T.);
#216=FACE_BOUND('',#267,.T.);
#217=FACE_BOUND('',#268,.T.);
#218=FACE_BOUND('',#269,.T.);
#219=FACE_BOUND('',#270,.T.);
#220=FACE_BOUND('',#271,.T.);
#221=FACE_BOUND('',#272,.T.);
#222=FACE_BOUND('',#273,.T.);
#223=FACE_BOUND('',#274,.T.);
#224=FACE_BOUND('',#275,.T.);
#225=FACE_BOUND('',#276,.T.);
#226=FACE_BOUND('',#284,.T.);
#227=FACE_BOUND('',#285,.T.);
#228=FACE_BOUND('',#286,.T.);
#229=FACE_BOUND('',#287,.T.);
#230=EDGE_LOOP('',(#288));
#231=EDGE_LOOP('',(#289));
#232=EDGE_LOOP('',(#290));
#233=EDGE_LOOP('',(#291));
#234=EDGE_LOOP('',(#292,#293,#294,#295));
#235=EDGE_LOOP('',(#296));
#236=EDGE_LOOP('',(#297));
#237=EDGE_LOOP('',(#298));
#238=EDGE_LOOP('',(#299));
#239=EDGE_LOOP('',(#300));
#240=EDGE_LOOP('',(#301));
#241=EDGE_LOOP('',(#302));
#242=EDGE_LOOP('',(#303,#304,#305,#306));
#243=EDGE_LOOP('',(#307));
#244=EDGE_LOOP('',(#308));
#245=EDGE_LOOP('',(#309));
#246=EDGE_LOOP('',(#310));
#247=EDGE_LOOP('',(#311));
#248=EDGE_LOOP('',(#312));
#249=EDGE_LOOP('',(#313));
#250=EDGE_LOOP('',(#314));
#251=EDGE_LOOP('',(#315));
#252=EDGE_LOOP('',(#316));
#253=EDGE_LOOP('',(#317));
#254=EDGE_LOOP('',(#318));
#255=EDGE_LOOP('',(#319));
#256=EDGE_LOOP('',(#320,#321,#322,#323));
#257=EDGE_LOOP('',(#324));
#258=EDGE_LOOP('',(#325));
#259=EDGE_LOOP('',(#326));
#260=EDGE_LOOP('',(#327));
#261=EDGE_LOOP('',(#328));
#262=EDGE_LOOP('',(#329));
#263=EDGE_LOOP('',(#330));
#264=EDGE_LOOP('',(#331));
#265=EDGE_LOOP('',(#332));
#266=EDGE_LOOP('',(#333));
#267=EDGE_LOOP('',(#334));
#268=EDGE_LOOP('',(#335));
#269=EDGE_LOOP('',(#336));
#270=EDGE_LOOP('',(#337));
#271=EDGE_LOOP('',(#338));
#272=EDGE_LOOP('',(#339));
#273=EDGE_LOOP('',(#340));
#274=EDGE_LOOP('',(#341));
#275=EDGE_LOOP('',(#342));
#276=EDGE_LOOP('',(#343));
#277=EDGE_LOOP('',(#344,#345,#346,#347));
#278=EDGE_LOOP('',(#348,#349,#350,#351));
#279=EDGE_LOOP('',(#352,#353,#354,#355));
#280=EDGE_LOOP('',(#356,#357,#358,#359));
#281=EDGE_LOOP('',(#360,#361,#362,#363));
#282=EDGE_LOOP('',(#364,#365,#366,#367));
#283=EDGE_LOOP('',(#368,#369,#370,#371));
#284=EDGE_LOOP('',(#372));
#285=EDGE_LOOP('',(#373));
#286=EDGE_LOOP('',(#374));
#287=EDGE_LOOP('',(#375));
#288=ORIENTED_EDGE('',*,*,#412,.F.);
#289=ORIENTED_EDGE('',*,*,#413,.F.);
#290=ORIENTED_EDGE('',*,*,#414,.F.);
#291=ORIENTED_EDGE('',*,*,#415,.T.);
#292=ORIENTED_EDGE('',*,*,#416,.T.);
#293=ORIENTED_EDGE('',*,*,#417,.T.);
#294=ORIENTED_EDGE('',*,*,#418,.F.);
#295=ORIENTED_EDGE('',*,*,#419,.T.);
#296=ORIENTED_EDGE('',*,*,#420,.F.);
#297=ORIENTED_EDGE('',*,*,#421,.F.);
#298=ORIENTED_EDGE('',*,*,#414,.T.);
#299=ORIENTED_EDGE('',*,*,#422,.F.);
#300=ORIENTED_EDGE('',*,*,#413,.T.);
#301=ORIENTED_EDGE('',*,*,#423,.F.);
#302=ORIENTED_EDGE('',*,*,#412,.T.);
#303=ORIENTED_EDGE('',*,*,#424,.T.);
#304=ORIENTED_EDGE('',*,*,#425,.T.);
#305=ORIENTED_EDGE('',*,*,#426,.T.);
#306=ORIENTED_EDGE('',*,*,#427,.T.);
#307=ORIENTED_EDGE('',*,*,#428,.F.);
#308=ORIENTED_EDGE('',*,*,#429,.F.);
#309=ORIENTED_EDGE('',*,*,#430,.F.);
#310=ORIENTED_EDGE('',*,*,#431,.T.);
#311=ORIENTED_EDGE('',*,*,#432,.T.);
#312=ORIENTED_EDGE('',*,*,#433,.T.);
#313=ORIENTED_EDGE('',*,*,#423,.T.);
#314=ORIENTED_EDGE('',*,*,#428,.T.);
#315=ORIENTED_EDGE('',*,*,#421,.T.);
#316=ORIENTED_EDGE('',*,*,#429,.T.);
#317=ORIENTED_EDGE('',*,*,#422,.T.);
#318=ORIENTED_EDGE('',*,*,#430,.T.);
#319=ORIENTED_EDGE('',*,*,#434,.F.);
#320=ORIENTED_EDGE('',*,*,#435,.T.);
#321=ORIENTED_EDGE('',*,*,#436,.T.);
#322=ORIENTED_EDGE('',*,*,#437,.F.);
#323=ORIENTED_EDGE('',*,*,#438,.T.);
#324=ORIENTED_EDGE('',*,*,#439,.F.);
#325=ORIENTED_EDGE('',*,*,#440,.F.);
#326=ORIENTED_EDGE('',*,*,#441,.F.);
#327=ORIENTED_EDGE('',*,*,#442,.T.);
#328=ORIENTED_EDGE('',*,*,#443,.T.);
#329=ORIENTED_EDGE('',*,*,#439,.T.);
#330=ORIENTED_EDGE('',*,*,#444,.T.);
#331=ORIENTED_EDGE('',*,*,#440,.T.);
#332=ORIENTED_EDGE('',*,*,#445,.T.);
#333=ORIENTED_EDGE('',*,*,#441,.T.);
#334=ORIENTED_EDGE('',*,*,#431,.F.);
#335=ORIENTED_EDGE('',*,*,#444,.F.);
#336=ORIENTED_EDGE('',*,*,#432,.F.);
#337=ORIENTED_EDGE('',*,*,#443,.F.);
#338=ORIENTED_EDGE('',*,*,#433,.F.);
#339=ORIENTED_EDGE('',*,*,#445,.F.);
#340=ORIENTED_EDGE('',*,*,#446,.T.);
#341=ORIENTED_EDGE('',*,*,#442,.F.);
#342=ORIENTED_EDGE('',*,*,#434,.T.);
#343=ORIENTED_EDGE('',*,*,#446,.F.);
#344=ORIENTED_EDGE('',*,*,#418,.T.);
#345=ORIENTED_EDGE('',*,*,#447,.T.);
#346=ORIENTED_EDGE('',*,*,#435,.F.);
#347=ORIENTED_EDGE('',*,*,#448,.T.);
#348=ORIENTED_EDGE('',*,*,#437,.T.);
#349=ORIENTED_EDGE('',*,*,#449,.T.);
#350=ORIENTED_EDGE('',*,*,#416,.F.);
#351=ORIENTED_EDGE('',*,*,#450,.T.);
#352=ORIENTED_EDGE('',*,*,#438,.F.);
#353=ORIENTED_EDGE('',*,*,#450,.F.);
#354=ORIENTED_EDGE('',*,*,#419,.F.);
#355=ORIENTED_EDGE('',*,*,#448,.F.);
#356=ORIENTED_EDGE('',*,*,#451,.F.);
#357=ORIENTED_EDGE('',*,*,#436,.F.);
#358=ORIENTED_EDGE('',*,*,#452,.F.);
#359=ORIENTED_EDGE('',*,*,#427,.F.);
#360=ORIENTED_EDGE('',*,*,#452,.T.);
#361=ORIENTED_EDGE('',*,*,#447,.F.);
#362=ORIENTED_EDGE('',*,*,#453,.F.);
#363=ORIENTED_EDGE('',*,*,#424,.F.);
#364=ORIENTED_EDGE('',*,*,#451,.T.);
#365=ORIENTED_EDGE('',*,*,#426,.F.);
#366=ORIENTED_EDGE('',*,*,#454,.F.);
#367=ORIENTED_EDGE('',*,*,#449,.F.);
#368=ORIENTED_EDGE('',*,*,#453,.T.);
#369=ORIENTED_EDGE('',*,*,#417,.F.);
#370=ORIENTED_EDGE('',*,*,#454,.T.);
#371=ORIENTED_EDGE('',*,*,#425,.F.);
#372=ORIENTED_EDGE('',*,*,#455,.T.);
#373=ORIENTED_EDGE('',*,*,#415,.F.);
#374=ORIENTED_EDGE('',*,*,#420,.T.);
#375=ORIENTED_EDGE('',*,*,#455,.F.);
#376=VERTEX_POINT('',#691);
#377=VERTEX_POINT('',#693);
#378=VERTEX_POINT('',#695);
#379=VERTEX_POINT('',#697);
#380=VERTEX_POINT('',#700);
#381=VERTEX_POINT('',#701);
#382=VERTEX_POINT('',#703);
#383=VERTEX_POINT('',#705);
#384=VERTEX_POINT('',#708);
#385=VERTEX_POINT('',#711);
#386=VERTEX_POINT('',#714);
#387=VERTEX_POINT('',#717);
#388=VERTEX_POINT('',#720);
#389=VERTEX_POINT('',#721);
#390=VERTEX_POINT('',#723);
#391=VERTEX_POINT('',#725);
#392=VERTEX_POINT('',#728);
#393=VERTEX_POINT('',#730);
#394=VERTEX_POINT('',#732);
#395=VERTEX_POINT('',#734);
#396=VERTEX_POINT('',#736);
#397=VERTEX_POINT('',#738);
#398=VERTEX_POINT('',#744);
#399=VERTEX_POINT('',#746);
#400=VERTEX_POINT('',#747);
#401=VERTEX_POINT('',#749);
#402=VERTEX_POINT('',#751);
#403=VERTEX_POINT('',#755);
#404=VERTEX_POINT('',#757);
#405=VERTEX_POINT('',#759);
#406=VERTEX_POINT('',#761);
#407=VERTEX_POINT('',#764);
#408=VERTEX_POINT('',#767);
#409=VERTEX_POINT('',#770);
#410=VERTEX_POINT('',#776);
#411=VERTEX_POINT('',#795);
#412=EDGE_CURVE('',#376,#376,#456,.T.);
#413=EDGE_CURVE('',#377,#377,#457,.T.);
#414=EDGE_CURVE('',#378,#378,#458,.T.);
#415=EDGE_CURVE('',#379,#379,#459,.T.);
#416=EDGE_CURVE('',#380,#381,#123,.T.);
#417=EDGE_CURVE('',#381,#382,#460,.T.);
#418=EDGE_CURVE('',#383,#382,#124,.T.);
#419=EDGE_CURVE('',#383,#380,#461,.T.);
#420=EDGE_CURVE('',#384,#384,#462,.T.);
#421=EDGE_CURVE('',#385,#385,#463,.T.);
#422=EDGE_CURVE('',#386,#386,#464,.T.);
#423=EDGE_CURVE('',#387,#387,#465,.T.);
#424=EDGE_CURVE('',#388,#389,#125,.T.);
#425=EDGE_CURVE('',#389,#390,#466,.T.);
#426=EDGE_CURVE('',#390,#391,#126,.T.);
#427=EDGE_CURVE('',#391,#388,#467,.T.);
#428=EDGE_CURVE('',#392,#392,#468,.T.);
#429=EDGE_CURVE('',#393,#393,#469,.T.);
#430=EDGE_CURVE('',#394,#394,#470,.T.);
#431=EDGE_CURVE('',#395,#395,#471,.T.);
#432=EDGE_CURVE('',#396,#396,#472,.T.);
#433=EDGE_CURVE('',#397,#397,#473,.T.);
#434=EDGE_CURVE('',#398,#398,#474,.T.);
#435=EDGE_CURVE('',#399,#400,#127,.T.);
#436=EDGE_CURVE('',#400,#401,#475,.T.);
#437=EDGE_CURVE('',#402,#401,#128,.T.);
#438=EDGE_CURVE('',#402,#399,#476,.T.);
#439=EDGE_CURVE('',#403,#403,#477,.T.);
#440=EDGE_CURVE('',#404,#404,#478,.T.);
#441=EDGE_CURVE('',#405,#405,#479,.T.);
#442=EDGE_CURVE('',#406,#406,#480,.T.);
#443=EDGE_CURVE('',#407,#407,#481,.T.);
#444=EDGE_CURVE('',#408,#408,#482,.T.);
#445=EDGE_CURVE('',#409,#409,#483,.T.);
#446=EDGE_CURVE('',#410,#410,#484,.T.);
#447=EDGE_CURVE('',#382,#400,#129,.T.);
#448=EDGE_CURVE('',#399,#383,#130,.T.);
#449=EDGE_CURVE('',#401,#381,#131,.T.);
#450=EDGE_CURVE('',#380,#402,#132,.T.);
#451=EDGE_CURVE('',#401,#391,#485,.T.);
#452=EDGE_CURVE('',#388,#400,#486,.T.);
#453=EDGE_CURVE('',#389,#382,#487,.T.);
#454=EDGE_CURVE('',#381,#390,#488,.T.);
#455=EDGE_CURVE('',#411,#411,#489,.T.);
#456=CIRCLE('',#491,1.65);
#457=CIRCLE('',#492,1.65);
#458=CIRCLE('',#493,1.65);
#459=CIRCLE('',#494,13.55);
#460=CIRCLE('',#496,15.4999999999947);
#461=CIRCLE('',#497,15.4999999999947);
#462=CIRCLE('',#498,15.4999999999947);
#463=CIRCLE('',#500,1.65);
#464=CIRCLE('',#502,1.65);
#465=CIRCLE('',#504,1.65);
#466=CIRCLE('',#506,14.4999999999947);
#467=CIRCLE('',#507,14.4999999999947);
#468=CIRCLE('',#508,3.65);
#469=CIRCLE('',#509,3.65);
#470=CIRCLE('',#510,3.65);
#471=CIRCLE('',#511,3.65);
#472=CIRCLE('',#512,3.65);
#473=CIRCLE('',#513,3.65);
#474=CIRCLE('',#518,15.4999999999947);
#475=CIRCLE('',#519,15.4999999999947);
#476=CIRCLE('',#520,15.4999999999947);
#477=CIRCLE('',#522,1.65);
#478=CIRCLE('',#523,1.65);
#479=CIRCLE('',#524,1.65);
#480=CIRCLE('',#525,13.6);
#481=CIRCLE('',#527,1.65);
#482=CIRCLE('',#529,1.65);
#483=CIRCLE('',#531,1.65);
#484=CIRCLE('',#536,13.6);
#485=CIRCLE('',#542,1.);
#486=CIRCLE('',#543,1.);
#487=CIRCLE('',#545,1.);
#488=CIRCLE('',#547,1.);
#489=CIRCLE('',#550,13.55);
#490=AXIS2_PLACEMENT_3D('',#689,#553,#554);
#491=AXIS2_PLACEMENT_3D('',#690,#555,#556);
#492=AXIS2_PLACEMENT_3D('',#692,#557,#558);
#493=AXIS2_PLACEMENT_3D('',#694,#559,#560);
#494=AXIS2_PLACEMENT_3D('',#696,#561,#562);
#495=AXIS2_PLACEMENT_3D('',#698,#563,#564);
#496=AXIS2_PLACEMENT_3D('',#702,#566,#567);
#497=AXIS2_PLACEMENT_3D('',#706,#569,#570);
#498=AXIS2_PLACEMENT_3D('',#707,#571,#572);
#499=AXIS2_PLACEMENT_3D('',#709,#573,#574);
#500=AXIS2_PLACEMENT_3D('',#710,#575,#576);
#501=AXIS2_PLACEMENT_3D('',#712,#577,#578);
#502=AXIS2_PLACEMENT_3D('',#713,#579,#580);
#503=AXIS2_PLACEMENT_3D('',#715,#581,#582);
#504=AXIS2_PLACEMENT_3D('',#716,#583,#584);
#505=AXIS2_PLACEMENT_3D('',#718,#585,#586);
#506=AXIS2_PLACEMENT_3D('',#722,#588,#589);
#507=AXIS2_PLACEMENT_3D('',#726,#591,#592);
#508=AXIS2_PLACEMENT_3D('',#727,#593,#594);
#509=AXIS2_PLACEMENT_3D('',#729,#595,#596);
#510=AXIS2_PLACEMENT_3D('',#731,#597,#598);
#511=AXIS2_PLACEMENT_3D('',#733,#599,#600);
#512=AXIS2_PLACEMENT_3D('',#735,#601,#602);
#513=AXIS2_PLACEMENT_3D('',#737,#603,#604);
#514=AXIS2_PLACEMENT_3D('',#739,#605,#606);
#515=AXIS2_PLACEMENT_3D('',#740,#607,#608);
#516=AXIS2_PLACEMENT_3D('',#741,#609,#610);
#517=AXIS2_PLACEMENT_3D('',#742,#611,#612);
#518=AXIS2_PLACEMENT_3D('',#743,#613,#614);
#519=AXIS2_PLACEMENT_3D('',#748,#616,#617);
#520=AXIS2_PLACEMENT_3D('',#752,#619,#620);
#521=AXIS2_PLACEMENT_3D('',#753,#621,#622);
#522=AXIS2_PLACEMENT_3D('',#754,#623,#624);
#523=AXIS2_PLACEMENT_3D('',#756,#625,#626);
#524=AXIS2_PLACEMENT_3D('',#758,#627,#628);
#525=AXIS2_PLACEMENT_3D('',#760,#629,#630);
#526=AXIS2_PLACEMENT_3D('',#762,#631,#632);
#527=AXIS2_PLACEMENT_3D('',#763,#633,#634);
#528=AXIS2_PLACEMENT_3D('',#765,#635,#636);
#529=AXIS2_PLACEMENT_3D('',#766,#637,#638);
#530=AXIS2_PLACEMENT_3D('',#768,#639,#640);
#531=AXIS2_PLACEMENT_3D('',#769,#641,#642);
#532=AXIS2_PLACEMENT_3D('',#771,#643,#644);
#533=AXIS2_PLACEMENT_3D('',#772,#645,#646);
#534=AXIS2_PLACEMENT_3D('',#773,#647,#648);
#535=AXIS2_PLACEMENT_3D('',#774,#649,#650);
#536=AXIS2_PLACEMENT_3D('',#775,#651,#652);
#537=AXIS2_PLACEMENT_3D('',#777,#653,#654);
#538=AXIS2_PLACEMENT_3D('',#778,#655,#656);
#539=AXIS2_PLACEMENT_3D('',#781,#659,#660);
#540=AXIS2_PLACEMENT_3D('',#784,#663,#664);
#541=AXIS2_PLACEMENT_3D('',#785,#665,#666);
#542=AXIS2_PLACEMENT_3D('',#786,#667,#668);
#543=AXIS2_PLACEMENT_3D('',#787,#669,#670);
#544=AXIS2_PLACEMENT_3D('',#788,#671,#672);
#545=AXIS2_PLACEMENT_3D('',#789,#673,#674);
#546=AXIS2_PLACEMENT_3D('',#790,#675,#676);
#547=AXIS2_PLACEMENT_3D('',#791,#677,#678);
#548=AXIS2_PLACEMENT_3D('',#792,#679,#680);
#549=AXIS2_PLACEMENT_3D('',#793,#681,#682);
#550=AXIS2_PLACEMENT_3D('',#794,#683,#684);
#551=AXIS2_PLACEMENT_3D('',#796,#685,#686);
#552=AXIS2_PLACEMENT_3D('',#797,#687,#688);
#553=DIRECTION('',(0.,0.,1.));
#554=DIRECTION('',(1.,0.,0.));
#555=DIRECTION('',(0.,-1.,0.));
#556=DIRECTION('',(0.499999999999999,0.,-0.866025403784436));
#557=DIRECTION('',(0.,-1.,0.));
#558=DIRECTION('',(0.499999999999999,0.,-0.866025403784436));
#559=DIRECTION('',(0.,-1.,0.));
#560=DIRECTION('',(0.499999999999999,0.,-0.866025403784436));
#561=DIRECTION('',(0.,-1.,0.));
#562=DIRECTION('',(0.499999999999999,0.,-0.86602540378444));
#563=DIRECTION('',(0.,-1.,0.));
#564=DIRECTION('',(0.499999999999999,0.,-0.86602540378444));
#565=DIRECTION('',(0.,1.,0.));
#566=DIRECTION('',(0.,-1.,0.));
#567=DIRECTION('',(-0.499999999999999,0.,0.86602540378444));
#568=DIRECTION('',(0.,1.,0.));
#569=DIRECTION('',(0.,-1.,0.));
#570=DIRECTION('',(-0.499999999999998,0.,0.86602540378444));
#571=DIRECTION('',(0.,-1.,0.));
#572=DIRECTION('',(0.499999999999999,0.,-0.86602540378444));
#573=DIRECTION('',(0.,1.,0.));
#574=DIRECTION('',(-0.499999999999999,0.,0.86602540378444));
#575=DIRECTION('',(0.,-1.,0.));
#576=DIRECTION('',(-0.499999999999999,0.,0.866025403784436));
#577=DIRECTION('',(0.,-1.,0.));
#578=DIRECTION('',(0.499999999999999,0.,-0.866025403784436));
#579=DIRECTION('',(0.,-1.,0.));
#580=DIRECTION('',(-0.499999999999999,0.,0.866025403784436));
#581=DIRECTION('',(0.,-1.,0.));
#582=DIRECTION('',(0.499999999999999,0.,-0.866025403784436));
#583=DIRECTION('',(0.,-1.,0.));
#584=DIRECTION('',(-0.499999999999999,0.,0.866025403784436));
#585=DIRECTION('',(0.,-1.,0.));
#586=DIRECTION('',(0.499999999999999,0.,-0.866025403784436));
#587=DIRECTION('',(0.499999999999999,0.,-0.86602540378444));
#588=DIRECTION('',(0.,1.,0.));
#589=DIRECTION('',(-0.499999999999999,0.,0.86602540378444));
#590=DIRECTION('',(-0.499999999999999,0.,0.86602540378444));
#591=DIRECTION('',(0.,1.,0.));
#592=DIRECTION('',(-0.499999999999998,0.,0.86602540378444));
#593=DIRECTION('',(0.,1.,0.));
#594=DIRECTION('',(-0.499999999999999,0.,0.86602540378444));
#595=DIRECTION('',(0.,1.,0.));
#596=DIRECTION('',(-0.499999999999999,0.,0.86602540378444));
#597=DIRECTION('',(0.,1.,0.));
#598=DIRECTION('',(-0.499999999999999,0.,0.86602540378444));
#599=DIRECTION('',(0.,-1.,0.));
#600=DIRECTION('',(0.499999999999999,0.,-0.86602540378444));
#601=DIRECTION('',(0.,-1.,0.));
#602=DIRECTION('',(0.499999999999998,0.,-0.86602540378444));
#603=DIRECTION('',(0.,-1.,0.));
#604=DIRECTION('',(0.499999999999999,0.,-0.86602540378444));
#605=DIRECTION('',(0.,1.,0.));
#606=DIRECTION('',(-0.499999999999999,0.,0.86602540378444));
#607=DIRECTION('',(0.,1.,0.));
#608=DIRECTION('',(-0.499999999999999,0.,0.86602540378444));
#609=DIRECTION('',(0.,1.,0.));
#610=DIRECTION('',(-0.499999999999999,0.,0.86602540378444));
#611=DIRECTION('',(0.,1.,0.));
#612=DIRECTION('',(-0.499999999999999,0.,0.86602540378444));
#613=DIRECTION('',(0.,-1.,0.));
#614=DIRECTION('',(0.499999999999999,0.,-0.866025403784439));
#615=DIRECTION('',(0.,1.,0.));
#616=DIRECTION('',(0.,-1.,0.));
#617=DIRECTION('',(-0.499999999999999,0.,0.866025403784439));
#618=DIRECTION('',(0.,1.,0.));
#619=DIRECTION('',(0.,-1.,0.));
#620=DIRECTION('',(0.499999999999999,0.,-0.866025403784439));
#621=DIRECTION('',(0.,1.,0.));
#622=DIRECTION('',(-0.499999999999999,0.,0.866025403784439));
#623=DIRECTION('',(0.,-1.,0.));
#624=DIRECTION('',(0.500000000000004,0.,0.866025403784436));
#625=DIRECTION('',(0.,-1.,0.));
#626=DIRECTION('',(0.499999999999999,0.,-0.86602540378444));
#627=DIRECTION('',(0.,-1.,0.));
#628=DIRECTION('',(-0.999999999999999,0.,8.41078048958452E-15));
#629=DIRECTION('',(0.,-1.,0.));
#630=DIRECTION('',(0.499999999999999,0.,-0.86602540378444));
#631=DIRECTION('',(0.,-1.,0.));
#632=DIRECTION('',(0.499999999999999,0.,-0.86602540378444));
#633=DIRECTION('',(0.,1.,0.));
#634=DIRECTION('',(0.5,0.,-0.86602540378444));
#635=DIRECTION('',(0.,-1.,0.));
#636=DIRECTION('',(0.5,0.,-0.86602540378444));
#637=DIRECTION('',(0.,1.,0.));
#638=DIRECTION('',(0.499999999999999,0.,-0.86602540378444));
#639=DIRECTION('',(0.,-1.,0.));
#640=DIRECTION('',(0.499999999999999,0.,-0.86602540378444));
#641=DIRECTION('',(0.,1.,0.));
#642=DIRECTION('',(0.499999999999998,0.,-0.866025403784436));
#643=DIRECTION('',(0.,-1.,0.));
#644=DIRECTION('',(0.499999999999998,0.,-0.866025403784436));
#645=DIRECTION('',(0.,1.,0.));
#646=DIRECTION('',(-0.499999999999999,0.,0.86602540378444));
#647=DIRECTION('',(0.,1.,0.));
#648=DIRECTION('',(-0.499999999999999,0.,0.86602540378444));
#649=DIRECTION('',(0.,1.,0.));
#650=DIRECTION('',(-0.499999999999999,0.,0.86602540378444));
#651=DIRECTION('',(0.,-1.,0.));
#652=DIRECTION('',(0.499999999999999,0.,-0.86602540378444));
#653=DIRECTION('',(0.,1.,0.));
#654=DIRECTION('',(-0.499999999999999,0.,0.86602540378444));
#655=DIRECTION('',(0.,-1.,0.));
#656=DIRECTION('',(0.499999999999999,0.,-0.86602540378444));
#657=DIRECTION('',(-0.499999999999999,0.,0.86602540378444));
#658=DIRECTION('',(0.499999999999999,0.,-0.86602540378444));
#659=DIRECTION('',(0.86602540378444,0.,0.499999999999999));
#660=DIRECTION('',(0.,-1.,0.));
#661=DIRECTION('',(0.499999999999999,0.,-0.86602540378444));
#662=DIRECTION('',(-0.499999999999999,0.,0.86602540378444));
#663=DIRECTION('',(-0.86602540378444,0.,-0.499999999999999));
#664=DIRECTION('',(0.,1.,0.));
#665=DIRECTION('',(0.,-1.,0.));
#666=DIRECTION('',(0.499999999999999,0.,-0.86602540378444));
#667=DIRECTION('',(0.500000000000003,0.,-0.866025403784437));
#668=DIRECTION('',(0.866025403784436,0.,0.5));
#669=DIRECTION('',(0.499999999999999,0.,-0.86602540378444));
#670=DIRECTION('',(0.,1.,0.));
#671=DIRECTION('',(0.,1.,0.));
#672=DIRECTION('',(-0.499999999999999,0.,0.866025403784439));
#673=DIRECTION('',(0.499999999999999,0.,-0.86602540378444));
#674=DIRECTION('',(0.,1.,0.));
#675=DIRECTION('',(0.499999999999999,0.,-0.86602540378444));
#676=DIRECTION('',(0.,1.,0.));
#677=DIRECTION('',(0.499999999999999,0.,-0.86602540378444));
#678=DIRECTION('',(0.,1.,0.));
#679=DIRECTION('',(-0.499999999999999,0.,0.86602540378444));
#680=DIRECTION('',(0.,-1.,0.));
#681=DIRECTION('',(0.,1.,0.));
#682=DIRECTION('',(-0.499999999999999,0.,0.86602540378444));
#683=DIRECTION('',(0.,-1.,0.));
#684=DIRECTION('',(0.499999999999999,0.,-0.86602540378444));
#685=DIRECTION('',(0.,1.,0.));
#686=DIRECTION('',(-0.499999999999999,0.,0.86602540378444));
#687=DIRECTION('',(0.,-1.,0.));
#688=DIRECTION('',(0.499999999999999,0.,-0.86602540378444));
#689=CARTESIAN_POINT('',(0.,0.,0.));
#690=CARTESIAN_POINT('',(10.9115166963151,-63.,-94.5141091458864));
#691=CARTESIAN_POINT('',(11.7365166963151,-63.,-95.9430510621307));
#692=CARTESIAN_POINT('',(-6.40899137937366,-63.,-94.5141091458864));
#693=CARTESIAN_POINT('',(-5.58399137937367,-63.,-95.9430510621308));
#694=CARTESIAN_POINT('',(2.25126265847074,-63.,-109.514109145886));
#695=CARTESIAN_POINT('',(3.07626265847074,-63.,-110.943051062131));
#696=CARTESIAN_POINT('',(2.25126265847072,-63.,-99.5141091458864));
#697=CARTESIAN_POINT('',(9.0262626584707,-63.,-111.248753367166));
#698=CARTESIAN_POINT('',(2.25126265847072,-63.0000000000001,-99.5141091458864));
#699=CARTESIAN_POINT('',(-11.1721311001835,-61.,-107.264109145884));
#700=CARTESIAN_POINT('',(-11.1721311001835,-61.,-107.264109145884));
#701=CARTESIAN_POINT('',(-11.1721311001835,-56.,-107.264109145884));
#702=CARTESIAN_POINT('',(2.25126265847072,-56.,-99.5141091458864));
#703=CARTESIAN_POINT('',(15.6746564171249,-56.,-91.7641091458891));
#704=CARTESIAN_POINT('',(15.6746564171249,-61.,-91.7641091458891));
#705=CARTESIAN_POINT('',(15.6746564171249,-61.,-91.7641091458891));
#706=CARTESIAN_POINT('',(2.25126265847072,-61.,-99.5141091458864));
#707=CARTESIAN_POINT('',(2.25126265847072,-64.0000000000001,-99.5141091458864));
#708=CARTESIAN_POINT('',(10.0012626584681,-64.0000000000001,-112.937502904541));
#709=CARTESIAN_POINT('',(2.25126265847072,-67.6000000000001,-99.5141091458864));
#710=CARTESIAN_POINT('',(2.25126265847074,-57.,-109.514109145886));
#711=CARTESIAN_POINT('',(1.42626265847075,-57.,-108.085167229642));
#712=CARTESIAN_POINT('',(2.25126265847074,57.14,-109.514109145886));
#713=CARTESIAN_POINT('',(-6.40899137937366,-57.,-94.5141091458864));
#714=CARTESIAN_POINT('',(-7.23399137937366,-57.,-93.0851672296421));
#715=CARTESIAN_POINT('',(-6.40899137937366,57.14,-94.5141091458864));
#716=CARTESIAN_POINT('',(10.9115166963151,-57.,-94.5141091458864));
#717=CARTESIAN_POINT('',(10.0865166963151,-57.,-93.0851672296421));
#718=CARTESIAN_POINT('',(10.9115166963151,57.14,-94.5141091458864));
#719=CARTESIAN_POINT('',(14.8086310133405,-55.,-92.2641091458891));
#720=CARTESIAN_POINT('',(-12.1913689866594,-55.,-45.4987373415293));
#721=CARTESIAN_POINT('',(14.8086310133405,-55.,-92.2641091458891));
#722=CARTESIAN_POINT('',(2.25126265847072,-55.,-99.5141091458864));
#723=CARTESIAN_POINT('',(-10.3061056963991,-55.,-106.764109145884));
#724=CARTESIAN_POINT('',(-10.3061056963991,-55.,-106.764109145884));
#725=CARTESIAN_POINT('',(-37.306105696399,-55.,-59.9987373415241));
#726=CARTESIAN_POINT('',(-24.7487373415292,-55.,-52.7487373415267));
#727=CARTESIAN_POINT('',(10.9115166963151,-55.,-94.5141091458864));
#728=CARTESIAN_POINT('',(9.08651669631512,-55.,-91.3531164220732));
#729=CARTESIAN_POINT('',(2.25126265847074,-55.,-109.514109145886));
#730=CARTESIAN_POINT('',(0.426262658470749,-55.,-106.353116422073));
#731=CARTESIAN_POINT('',(-6.40899137937366,-55.,-94.5141091458864));
#732=CARTESIAN_POINT('',(-8.23399137937366,-55.,-91.3531164220732));
#733=CARTESIAN_POINT('',(-16.0884833036848,-55.,-47.7487373415267));
#734=CARTESIAN_POINT('',(-14.2634833036848,-55.,-50.9097300653399));
#735=CARTESIAN_POINT('',(-33.4089913793736,-55.,-47.7487373415266));
#736=CARTESIAN_POINT('',(-31.5839913793736,-55.,-50.9097300653398));
#737=CARTESIAN_POINT('',(-24.7487373415292,-55.,-62.7487373415267));
#738=CARTESIAN_POINT('',(-22.9237373415293,-55.,-65.9097300653399));
#739=CARTESIAN_POINT('',(2.25126265847072,-55.,-99.5141091458864));
#740=CARTESIAN_POINT('',(10.9115166963151,-55.,-94.5141091458864));
#741=CARTESIAN_POINT('',(2.25126265847074,-55.,-109.514109145886));
#742=CARTESIAN_POINT('',(-6.40899137937366,-55.,-94.5141091458864));
#743=CARTESIAN_POINT('',(-24.7487373415292,-68.6000000000001,-52.7487373415267));
#744=CARTESIAN_POINT('',(-16.9987373415319,-68.6000000000001,-66.1721311001809));
#745=CARTESIAN_POINT('',(-11.325343582875,-61.,-44.9987373415293));
#746=CARTESIAN_POINT('',(-11.325343582875,-61.,-44.9987373415293));
#747=CARTESIAN_POINT('',(-11.325343582875,-56.,-44.9987373415293));
#748=CARTESIAN_POINT('',(-24.7487373415292,-56.,-52.7487373415267));
#749=CARTESIAN_POINT('',(-38.1721311001834,-56.,-60.4987373415241));
#750=CARTESIAN_POINT('',(-38.1721311001834,-61.,-60.4987373415241));
#751=CARTESIAN_POINT('',(-38.1721311001834,-61.,-60.4987373415241));
#752=CARTESIAN_POINT('',(-24.7487373415292,-61.,-52.7487373415267));
#753=CARTESIAN_POINT('',(-24.7487373415292,-67.6000000000001,-52.7487373415267));
#754=CARTESIAN_POINT('',(-33.4089913793736,-67.6000000000001,-47.7487373415266));
#755=CARTESIAN_POINT('',(-32.5839913793736,-67.6000000000001,-46.3197954252823));
#756=CARTESIAN_POINT('',(-16.0884833036848,-67.6000000000001,-47.7487373415267));
#757=CARTESIAN_POINT('',(-15.2634833036848,-67.6000000000001,-49.177679257771));
#758=CARTESIAN_POINT('',(-24.7487373415292,-67.6000000000001,-62.7487373415267));
#759=CARTESIAN_POINT('',(-26.3987373415292,-67.6000000000001,-62.7487373415267));
#760=CARTESIAN_POINT('',(-24.7487373415292,-67.6000000000001,-52.7487373415267));
#761=CARTESIAN_POINT('',(-17.9487373415292,-67.6000000000001,-64.5266828329951));
#762=CARTESIAN_POINT('',(-24.7487373415292,-67.6000000000001,-52.7487373415267));
#763=CARTESIAN_POINT('',(-33.4089913793736,-57.,-47.7487373415266));
#764=CARTESIAN_POINT('',(-32.5839913793736,-57.,-49.177679257771));
#765=CARTESIAN_POINT('',(-33.4089913793736,57.14,-47.7487373415266));
#766=CARTESIAN_POINT('',(-16.0884833036848,-57.,-47.7487373415267));
#767=CARTESIAN_POINT('',(-15.2634833036848,-57.,-49.177679257771));
#768=CARTESIAN_POINT('',(-16.0884833036848,57.14,-47.7487373415267));
#769=CARTESIAN_POINT('',(-24.7487373415292,-57.,-62.7487373415267));
#770=CARTESIAN_POINT('',(-23.9237373415293,-57.,-64.177679257771));
#771=CARTESIAN_POINT('',(-24.7487373415292,57.14,-62.7487373415267));
#772=CARTESIAN_POINT('',(-16.0884833036848,-57.,-47.7487373415267));
#773=CARTESIAN_POINT('',(-33.4089913793736,-57.,-47.7487373415266));
#774=CARTESIAN_POINT('',(-24.7487373415292,-57.,-62.7487373415267));
#775=CARTESIAN_POINT('',(-24.7487373415292,-68.6000000000001,-52.7487373415267));
#776=CARTESIAN_POINT('',(-17.9487373415292,-68.6000000000001,-64.5266828329951));
#777=CARTESIAN_POINT('',(-24.7487373415292,-68.6000000000001,-52.7487373415267));
#778=CARTESIAN_POINT('',(-24.7487373415292,-68.6000000000001,-52.7487373415267));
#779=CARTESIAN_POINT('',(-11.325343582875,-56.,-44.9987373415293));
#780=CARTESIAN_POINT('',(-11.325343582875,-61.,-44.9987373415293));
#781=CARTESIAN_POINT('',(-11.325343582875,-61.,-44.9987373415293));
#782=CARTESIAN_POINT('',(-11.1721311001835,-56.,-107.264109145884));
#783=CARTESIAN_POINT('',(-11.1721311001835,-61.,-107.264109145884));
#784=CARTESIAN_POINT('',(-11.1721311001835,-61.,-107.264109145884));
#785=CARTESIAN_POINT('',(-24.7487373415292,-61.,-52.7487373415267));
#786=CARTESIAN_POINT('',(-37.3061056963989,-56.,-59.9987373415241));
#787=CARTESIAN_POINT('',(-12.1913689866594,-56.,-45.4987373415293));
#788=CARTESIAN_POINT('',(-24.7487373415292,-56.,-52.7487373415267));
#789=CARTESIAN_POINT('',(14.8086310133405,-56.,-92.2641091458891));
#790=CARTESIAN_POINT('',(14.8086310133405,-56.,-92.2641091458891));
#791=CARTESIAN_POINT('',(-10.3061056963991,-56.,-106.764109145884));
#792=CARTESIAN_POINT('',(-10.3061056963991,-56.,-106.764109145884));
#793=CARTESIAN_POINT('',(2.25126265847072,-56.,-99.5141091458864));
#794=CARTESIAN_POINT('',(2.25126265847072,-64.,-99.5141091458864));
#795=CARTESIAN_POINT('',(9.0262626584707,-64.,-111.248753367166));
#796=CARTESIAN_POINT('',(2.25126265847072,-64.,-99.5141091458864));
#797=CARTESIAN_POINT('',(2.25126265847072,-64.,-99.5141091458864));
#798=MECHANICAL_DESIGN_GEOMETRIC_PRESENTATION_REPRESENTATION('',(#86),#799);
#799=(
GEOMETRIC_REPRESENTATION_CONTEXT(3)
GLOBAL_UNCERTAINTY_ASSIGNED_CONTEXT((#800))
GLOBAL_UNIT_ASSIGNED_CONTEXT((#806,#802,#801))
REPRESENTATION_CONTEXT('Right_knee','TOP_LEVEL_ASSEMBLY_PART')
);
#800=UNCERTAINTY_MEASURE_WITH_UNIT(LENGTH_MEASURE(2.E-5),#806,
'DISTANCE_ACCURACY_VALUE','Maximum Tolerance applied to model');
#801=(
NAMED_UNIT(*)
SI_UNIT($,.STERADIAN.)
SOLID_ANGLE_UNIT()
);
#802=(
CONVERSION_BASED_UNIT('DEGREE',#804)
NAMED_UNIT(#803)
PLANE_ANGLE_UNIT()
);
#803=DIMENSIONAL_EXPONENTS(0.,0.,0.,0.,0.,0.,0.);
#804=PLANE_ANGLE_MEASURE_WITH_UNIT(PLANE_ANGLE_MEASURE(0.0174532925),#805);
#805=(
NAMED_UNIT(*)
PLANE_ANGLE_UNIT()
SI_UNIT($,.RADIAN.)
);
#806=(
LENGTH_UNIT()
NAMED_UNIT(*)
SI_UNIT(.MILLI.,.METRE.)
);
ENDSEC;
END-ISO-10303-21;
