ISO-10303-21;
HEADER;
/* Generated by software containing ST-Developer
 * from STEP Tools, Inc. (www.steptools.com) 
 */
/* OPTION: using custom schema-name function */

FILE_DESCRIPTION(
/* description */ (''),
/* implementation_level */ '2;1');

FILE_NAME(
/* name */ 'WMD1018.stp',
/* time_stamp */ '2026-09-10T10:31:20+08:00',
/* author */ (''),
/* organization */ (''),
/* preprocessor_version */ 'ST-DEVELOPER v20',
/* originating_system */ 'SIEMENS PLM Software NX2406.1700',
/* authorisation */ '');

FILE_SCHEMA (('AP203_CONFIGURATION_CONTROLLED_3D_DESIGN_OF_MECHANICAL_PARTS_AND_ASSEMBLIES_MIM_LF { 1 0 10303 403 2 1 2}'));
ENDSEC;

DATA;
#10=PROPERTY_DEFINITION_REPRESENTATION(#14,#12);
#11=PROPERTY_DEFINITION_REPRESENTATION(#15,#13);
#12=REPRESENTATION('',(#16),#2147);
#13=REPRESENTATION('',(#17),#2147);
#14=PROPERTY_DEFINITION('pmi validation property','',#73);
#15=PROPERTY_DEFINITION('pmi validation property','',#73);
#16=VALUE_REPRESENTATION_ITEM('number of annotations',COUNT_MEASURE(0.));
#17=VALUE_REPRESENTATION_ITEM('number of views',COUNT_MEASURE(0.));
#18=SHAPE_REPRESENTATION_RELATIONSHIP('None',
'relationship between WMD1018_objects-None and WMD1018_objects-None',#84,
#19);
#19=ADVANCED_BREP_SHAPE_REPRESENTATION('WMD1018_objects-None',(#94),#2147);
#20=APPLIED_APPROVAL_ASSIGNMENT(#32,(#74));
#21=APPLIED_APPROVAL_ASSIGNMENT(#33,(#76));
#22=APPLIED_APPROVAL_ASSIGNMENT(#34,(#46));
#23=APPROVAL_PERSON_ORGANIZATION(#38,#32,#26);
#24=APPROVAL_PERSON_ORGANIZATION(#39,#33,#27);
#25=APPROVAL_PERSON_ORGANIZATION(#40,#34,#28);
#26=APPROVAL_ROLE('approver');
#27=APPROVAL_ROLE('approver');
#28=APPROVAL_ROLE('approver');
#29=APPROVAL_DATE_TIME(#54,#32);
#30=APPROVAL_DATE_TIME(#55,#33);
#31=APPROVAL_DATE_TIME(#56,#34);
#32=APPROVAL(#35,' ');
#33=APPROVAL(#36,' ');
#34=APPROVAL(#37,' ');
#35=APPROVAL_STATUS('not_yet_approved');
#36=APPROVAL_STATUS('not_yet_approved');
#37=APPROVAL_STATUS('not_yet_approved');
#38=PERSON_AND_ORGANIZATION(#44,#41);
#39=PERSON_AND_ORGANIZATION(#44,#42);
#40=PERSON_AND_ORGANIZATION(#44,#43);
#41=ORGANIZATION(' ',' ',' ');
#42=ORGANIZATION(' ',' ',' ');
#43=ORGANIZATION(' ',' ',' ');
#44=PERSON(' ',' ',' ',(' '),$,$);
#45=APPLIED_SECURITY_CLASSIFICATION_ASSIGNMENT(#46,(#76));
#46=SECURITY_CLASSIFICATION(' ',' ',#47);
#47=SECURITY_CLASSIFICATION_LEVEL('confidential');
#48=APPLIED_DATE_AND_TIME_ASSIGNMENT(#52,#50,(#74));
#49=APPLIED_DATE_AND_TIME_ASSIGNMENT(#53,#51,(#46));
#50=DATE_TIME_ROLE('creation_date');
#51=DATE_TIME_ROLE('classification_date');
#52=DATE_AND_TIME(#67,#57);
#53=DATE_AND_TIME(#68,#58);
#54=DATE_AND_TIME(#69,#59);
#55=DATE_AND_TIME(#70,#60);
#56=DATE_AND_TIME(#71,#61);
#57=LOCAL_TIME(0,0,0.,#62);
#58=LOCAL_TIME(0,0,0.,#63);
#59=LOCAL_TIME(0,0,0.,#64);
#60=LOCAL_TIME(0,0,0.,#65);
#61=LOCAL_TIME(0,0,0.,#66);
#62=COORDINATED_UNIVERSAL_TIME_OFFSET(0,0,.BEHIND.);
#63=COORDINATED_UNIVERSAL_TIME_OFFSET(0,0,.BEHIND.);
#64=COORDINATED_UNIVERSAL_TIME_OFFSET(0,0,.BEHIND.);
#65=COORDINATED_UNIVERSAL_TIME_OFFSET(0,0,.BEHIND.);
#66=COORDINATED_UNIVERSAL_TIME_OFFSET(0,0,.BEHIND.);
#67=CALENDAR_DATE(0,1,1);
#68=CALENDAR_DATE(0,1,1);
#69=CALENDAR_DATE(0,1,1);
#70=CALENDAR_DATE(0,1,1);
#71=CALENDAR_DATE(0,1,1);
#72=SHAPE_DEFINITION_REPRESENTATION(#73,#84);
#73=PRODUCT_DEFINITION_SHAPE('','',#74);
#74=PRODUCT_DEFINITION(' ','',#76,#75);
#75=PRODUCT_DEFINITION_CONTEXT('part definition',#83,'design');
#76=PRODUCT_DEFINITION_FORMATION_WITH_SPECIFIED_SOURCE(' ',' ',#78,
 .NOT_KNOWN.);
#77=PRODUCT_RELATED_PRODUCT_CATEGORY('detail','',(#78));
#78=PRODUCT('WMD1018_objects','WMD1018_objects',' ',(#81));
#79=PRODUCT_CATEGORY('part',' ');
#80=PRODUCT_CATEGORY(' ','');
#81=PRODUCT_CONTEXT(' ',#83,'mechanical');
#82=APPLICATION_PROTOCOL_DEFINITION('international standard',
'config_control_design',2010,#83);
#83=APPLICATION_CONTEXT(
'configuration controlled 3D designs of mechanical parts and assemblie
s');
#84=SHAPE_REPRESENTATION('WMD1018_objects-None',(#1293),#2147);
#85=PRESENTATION_LAYER_ASSIGNMENT('1','Layer 1',(#94));
#86=STYLED_ITEM('',(#87),#94);
#87=PRESENTATION_STYLE_ASSIGNMENT((#88));
#88=SURFACE_STYLE_USAGE(.BOTH.,#89);
#89=SURFACE_SIDE_STYLE('',(#90));
#90=SURFACE_STYLE_FILL_AREA(#91);
#91=FILL_AREA_STYLE('',(#92));
#92=FILL_AREA_STYLE_COLOUR('',#93);
#93=COLOUR_RGB('medium gray',0.490196078431373,0.490196078431373,0.490196078431373);
#94=MANIFOLD_SOLID_BREP('',#95);
#95=CLOSED_SHELL('',(#336,#337,#338,#339,#340,#341,#342,#343,#344,#345,
#346,#347,#348,#349,#350,#351,#352,#353,#354,#355,#356,#357,#358,#359,#360,
#361,#362,#363,#364,#365,#366,#367,#368,#369,#370,#371,#372,#373,#374,#375,
#376,#377,#378,#379,#380,#381,#382,#383,#384,#385,#386,#387,#388,#389,#390,
#391,#392,#393,#394,#395,#396,#397,#398,#399,#400,#401,#402));
#96=FACE_OUTER_BOUND('',#531,.T.);
#97=FACE_OUTER_BOUND('',#532,.T.);
#98=FACE_OUTER_BOUND('',#543,.T.);
#99=FACE_OUTER_BOUND('',#566,.T.);
#100=FACE_OUTER_BOUND('',#567,.T.);
#101=FACE_OUTER_BOUND('',#568,.T.);
#102=FACE_OUTER_BOUND('',#569,.T.);
#103=FACE_OUTER_BOUND('',#570,.T.);
#104=FACE_OUTER_BOUND('',#571,.T.);
#105=FACE_OUTER_BOUND('',#572,.T.);
#106=FACE_OUTER_BOUND('',#573,.T.);
#107=FACE_OUTER_BOUND('',#574,.T.);
#108=FACE_OUTER_BOUND('',#577,.T.);
#109=FACE_OUTER_BOUND('',#578,.T.);
#110=FACE_OUTER_BOUND('',#579,.T.);
#111=FACE_OUTER_BOUND('',#582,.T.);
#112=FACE_OUTER_BOUND('',#583,.T.);
#113=FACE_OUTER_BOUND('',#584,.T.);
#114=FACE_OUTER_BOUND('',#587,.T.);
#115=FACE_OUTER_BOUND('',#588,.T.);
#116=FACE_OUTER_BOUND('',#589,.T.);
#117=FACE_OUTER_BOUND('',#592,.T.);
#118=FACE_OUTER_BOUND('',#593,.T.);
#119=FACE_OUTER_BOUND('',#594,.T.);
#120=FACE_OUTER_BOUND('',#595,.T.);
#121=FACE_OUTER_BOUND('',#596,.T.);
#122=FACE_OUTER_BOUND('',#597,.T.);
#123=FACE_OUTER_BOUND('',#598,.T.);
#124=FACE_OUTER_BOUND('',#599,.T.);
#125=FACE_OUTER_BOUND('',#600,.T.);
#126=FACE_OUTER_BOUND('',#601,.T.);
#127=FACE_OUTER_BOUND('',#602,.T.);
#128=FACE_OUTER_BOUND('',#624,.T.);
#129=FACE_OUTER_BOUND('',#625,.T.);
#130=PLANE('',#1310);
#131=PLANE('',#1317);
#132=PLANE('',#1318);
#133=PLANE('',#1323);
#134=PLANE('',#1328);
#135=PLANE('',#1333);
#136=PLANE('',#1352);
#137=PLANE('',#1358);
#138=PLANE('',#1369);
#139=PLANE('',#1372);
#140=PLANE('',#1374);
#141=PLANE('',#1379);
#142=PLANE('',#1380);
#143=PLANE('',#1381);
#144=PLANE('',#1382);
#145=PLANE('',#1386);
#146=PLANE('',#1387);
#147=PLANE('',#1389);
#148=PLANE('',#1393);
#149=PLANE('',#1394);
#150=PLANE('',#1395);
#151=PLANE('',#1400);
#152=PLANE('',#1401);
#153=PLANE('',#1403);
#154=PLANE('',#1407);
#155=PLANE('',#1408);
#156=PLANE('',#1409);
#157=PLANE('',#1419);
#158=PLANE('',#1421);
#159=PLANE('',#1425);
#160=PLANE('',#1427);
#161=PLANE('',#1431);
#162=PLANE('',#1432);
#163=PLANE('',#1433);
#164=LINE('',#1831,#250);
#165=LINE('',#1834,#251);
#166=LINE('',#1836,#252);
#167=LINE('',#1838,#253);
#168=LINE('',#1850,#254);
#169=LINE('',#1853,#255);
#170=LINE('',#1855,#256);
#171=LINE('',#1857,#257);
#172=LINE('',#1859,#258);
#173=LINE('',#1861,#259);
#174=LINE('',#1863,#260);
#175=LINE('',#1864,#261);
#176=LINE('',#1866,#262);
#177=LINE('',#1868,#263);
#178=LINE('',#1870,#264);
#179=LINE('',#1872,#265);
#180=LINE('',#1875,#266);
#181=LINE('',#1877,#267);
#182=LINE('',#1879,#268);
#183=LINE('',#1881,#269);
#184=LINE('',#1883,#270);
#185=LINE('',#1885,#271);
#186=LINE('',#1886,#272);
#187=LINE('',#1888,#273);
#188=LINE('',#1890,#274);
#189=LINE('',#1892,#275);
#190=LINE('',#1898,#276);
#191=LINE('',#1900,#277);
#192=LINE('',#1902,#278);
#193=LINE('',#1905,#279);
#194=LINE('',#1913,#280);
#195=LINE('',#1917,#281);
#196=LINE('',#1926,#282);
#197=LINE('',#1929,#283);
#198=LINE('',#1931,#284);
#199=LINE('',#1933,#285);
#200=LINE('',#1935,#286);
#201=LINE('',#1944,#287);
#202=LINE('',#1948,#288);
#203=LINE('',#1956,#289);
#204=LINE('',#1960,#290);
#205=LINE('',#1968,#291);
#206=LINE('',#1972,#292);
#207=LINE('',#1980,#293);
#208=LINE('',#1983,#294);
#209=LINE('',#1986,#295);
#210=LINE('',#1989,#296);
#211=LINE('',#1999,#297);
#212=LINE('',#2001,#298);
#213=LINE('',#2005,#299);
#214=LINE('',#2006,#300);
#215=LINE('',#2010,#301);
#216=LINE('',#2011,#302);
#217=LINE('',#2015,#303);
#218=LINE('',#2016,#304);
#219=LINE('',#2020,#305);
#220=LINE('',#2036,#306);
#221=LINE('',#2037,#307);
#222=LINE('',#2043,#308);
#223=LINE('',#2046,#309);
#224=LINE('',#2049,#310);
#225=LINE('',#2054,#311);
#226=LINE('',#2059,#312);
#227=LINE('',#2060,#313);
#228=LINE('',#2062,#314);
#229=LINE('',#2064,#315);
#230=LINE('',#2066,#316);
#231=LINE('',#2072,#317);
#232=LINE('',#2076,#318);
#233=LINE('',#2077,#319);
#234=LINE('',#2079,#320);
#235=LINE('',#2080,#321);
#236=LINE('',#2083,#322);
#237=LINE('',#2088,#323);
#238=LINE('',#2093,#324);
#239=LINE('',#2094,#325);
#240=LINE('',#2096,#326);
#241=LINE('',#2098,#327);
#242=LINE('',#2100,#328);
#243=LINE('',#2106,#329);
#244=LINE('',#2110,#330);
#245=LINE('',#2111,#331);
#246=LINE('',#2113,#332);
#247=LINE('',#2114,#333);
#248=LINE('',#2125,#334);
#249=LINE('',#2126,#335);
#250=VECTOR('',#1468,1.);
#251=VECTOR('',#1469,1.);
#252=VECTOR('',#1470,1.);
#253=VECTOR('',#1471,1.);
#254=VECTOR('',#1486,1.);
#255=VECTOR('',#1487,1.);
#256=VECTOR('',#1488,1.);
#257=VECTOR('',#1489,1.);
#258=VECTOR('',#1490,1.);
#259=VECTOR('',#1491,1.);
#260=VECTOR('',#1492,1.);
#261=VECTOR('',#1493,1.);
#262=VECTOR('',#1494,1.);
#263=VECTOR('',#1495,1.);
#264=VECTOR('',#1496,1.);
#265=VECTOR('',#1499,1.);
#266=VECTOR('',#1500,1.);
#267=VECTOR('',#1501,1.);
#268=VECTOR('',#1502,1.);
#269=VECTOR('',#1503,1.);
#270=VECTOR('',#1504,1.);
#271=VECTOR('',#1505,1.);
#272=VECTOR('',#1506,1.);
#273=VECTOR('',#1507,1.);
#274=VECTOR('',#1508,1.);
#275=VECTOR('',#1509,1.);
#276=VECTOR('',#1516,1.);
#277=VECTOR('',#1517,1.);
#278=VECTOR('',#1518,1.);
#279=VECTOR('',#1521,1.);
#280=VECTOR('',#1530,1.);
#281=VECTOR('',#1533,1.);
#282=VECTOR('',#1546,1.);
#283=VECTOR('',#1547,1.);
#284=VECTOR('',#1548,1.);
#285=VECTOR('',#1549,1.);
#286=VECTOR('',#1552,1.);
#287=VECTOR('',#1559,1.);
#288=VECTOR('',#1562,1.);
#289=VECTOR('',#1569,1.);
#290=VECTOR('',#1572,1.);
#291=VECTOR('',#1579,1.);
#292=VECTOR('',#1582,1.);
#293=VECTOR('',#1589,1.);
#294=VECTOR('',#1592,1.);
#295=VECTOR('',#1593,1.);
#296=VECTOR('',#1598,1.);
#297=VECTOR('',#1611,1.);
#298=VECTOR('',#1614,1.);
#299=VECTOR('',#1617,1.);
#300=VECTOR('',#1618,1.);
#301=VECTOR('',#1621,1.);
#302=VECTOR('',#1622,1.);
#303=VECTOR('',#1625,1.);
#304=VECTOR('',#1626,1.);
#305=VECTOR('',#1629,1.);
#306=VECTOR('',#1652,1.);
#307=VECTOR('',#1653,1.);
#308=VECTOR('',#1664,1.);
#309=VECTOR('',#1669,1.);
#310=VECTOR('',#1674,1.);
#311=VECTOR('',#1677,1.);
#312=VECTOR('',#1684,1.);
#313=VECTOR('',#1685,1.);
#314=VECTOR('',#1688,1.);
#315=VECTOR('',#1691,1.);
#316=VECTOR('',#1694,1.);
#317=VECTOR('',#1699,1.);
#318=VECTOR('',#1704,1.);
#319=VECTOR('',#1705,1.);
#320=VECTOR('',#1708,1.);
#321=VECTOR('',#1709,1.);
#322=VECTOR('',#1714,1.);
#323=VECTOR('',#1717,1.);
#324=VECTOR('',#1724,1.);
#325=VECTOR('',#1725,1.);
#326=VECTOR('',#1728,1.);
#327=VECTOR('',#1731,1.);
#328=VECTOR('',#1734,1.);
#329=VECTOR('',#1739,1.);
#330=VECTOR('',#1744,1.);
#331=VECTOR('',#1745,1.);
#332=VECTOR('',#1748,1.);
#333=VECTOR('',#1749,1.);
#334=VECTOR('',#1770,1.);
#335=VECTOR('',#1771,1.);
#336=ADVANCED_FACE('',(#436,#437),#403,.F.);
#337=ADVANCED_FACE('',(#438,#439),#404,.F.);
#338=ADVANCED_FACE('',(#440,#441),#405,.F.);
#339=ADVANCED_FACE('',(#442,#443),#406,.F.);
#340=ADVANCED_FACE('',(#444,#445,#446,#447,#448),#130,.T.);
#341=ADVANCED_FACE('',(#449,#450),#407,.F.);
#342=ADVANCED_FACE('',(#451,#452),#408,.F.);
#343=ADVANCED_FACE('',(#96),#131,.F.);
#344=ADVANCED_FACE('',(#97),#132,.F.);
#345=ADVANCED_FACE('',(#453,#454,#455),#133,.F.);
#346=ADVANCED_FACE('',(#456,#457,#458),#134,.F.);
#347=ADVANCED_FACE('',(#459,#460),#409,.F.);
#348=ADVANCED_FACE('',(#461,#462),#410,.F.);
#349=ADVANCED_FACE('',(#98),#135,.F.);
#350=ADVANCED_FACE('',(#463,#464),#136,.T.);
#351=ADVANCED_FACE('',(#465,#466,#467,#468,#469,#470),#137,.F.);
#352=ADVANCED_FACE('',(#471,#472),#411,.F.);
#353=ADVANCED_FACE('',(#473,#474),#412,.F.);
#354=ADVANCED_FACE('',(#475,#476),#413,.F.);
#355=ADVANCED_FACE('',(#477,#478),#138,.T.);
#356=ADVANCED_FACE('',(#479,#480),#414,.F.);
#357=ADVANCED_FACE('',(#481,#482),#139,.T.);
#358=ADVANCED_FACE('',(#483,#484),#415,.F.);
#359=ADVANCED_FACE('',(#99),#140,.F.);
#360=ADVANCED_FACE('',(#100),#416,.T.);
#361=ADVANCED_FACE('',(#101),#417,.T.);
#362=ADVANCED_FACE('',(#102),#418,.T.);
#363=ADVANCED_FACE('',(#103),#419,.T.);
#364=ADVANCED_FACE('',(#104),#141,.F.);
#365=ADVANCED_FACE('',(#105),#142,.F.);
#366=ADVANCED_FACE('',(#106),#143,.F.);
#367=ADVANCED_FACE('',(#107),#144,.F.);
#368=ADVANCED_FACE('',(#485,#486),#145,.T.);
#369=ADVANCED_FACE('',(#108),#146,.F.);
#370=ADVANCED_FACE('',(#109),#420,.F.);
#371=ADVANCED_FACE('',(#110),#147,.F.);
#372=ADVANCED_FACE('',(#487,#488),#148,.F.);
#373=ADVANCED_FACE('',(#111),#149,.F.);
#374=ADVANCED_FACE('',(#112),#150,.F.);
#375=ADVANCED_FACE('',(#113),#421,.F.);
#376=ADVANCED_FACE('',(#489,#490),#151,.T.);
#377=ADVANCED_FACE('',(#114),#152,.F.);
#378=ADVANCED_FACE('',(#115),#422,.F.);
#379=ADVANCED_FACE('',(#116),#153,.F.);
#380=ADVANCED_FACE('',(#491,#492),#154,.F.);
#381=ADVANCED_FACE('',(#117),#155,.F.);
#382=ADVANCED_FACE('',(#118),#156,.F.);
#383=ADVANCED_FACE('',(#119),#423,.F.);
#384=ADVANCED_FACE('',(#120),#424,.T.);
#385=ADVANCED_FACE('',(#121),#425,.T.);
#386=ADVANCED_FACE('',(#122),#426,.T.);
#387=ADVANCED_FACE('',(#123),#427,.T.);
#388=ADVANCED_FACE('',(#124),#428,.T.);
#389=ADVANCED_FACE('',(#125),#429,.T.);
#390=ADVANCED_FACE('',(#126),#430,.T.);
#391=ADVANCED_FACE('',(#127),#431,.T.);
#392=ADVANCED_FACE('',(#493,#494,#495,#496,#497),#157,.F.);
#393=ADVANCED_FACE('',(#498,#499),#158,.T.);
#394=ADVANCED_FACE('',(#500,#501),#432,.F.);
#395=ADVANCED_FACE('',(#502,#503),#433,.F.);
#396=ADVANCED_FACE('',(#504,#505),#159,.T.);
#397=ADVANCED_FACE('',(#506,#507),#160,.T.);
#398=ADVANCED_FACE('',(#508,#509),#434,.F.);
#399=ADVANCED_FACE('',(#510,#511),#435,.F.);
#400=ADVANCED_FACE('',(#512,#513),#161,.T.);
#401=ADVANCED_FACE('',(#128),#162,.F.);
#402=ADVANCED_FACE('',(#129),#163,.F.);
#403=CYLINDRICAL_SURFACE('',#1296,1.65);
#404=CYLINDRICAL_SURFACE('',#1299,1.65);
#405=CYLINDRICAL_SURFACE('',#1302,1.65);
#406=CYLINDRICAL_SURFACE('',#1305,1.65);
#407=CYLINDRICAL_SURFACE('',#1313,1.65);
#408=CYLINDRICAL_SURFACE('',#1316,1.65);
#409=CYLINDRICAL_SURFACE('',#1330,1.65);
#410=CYLINDRICAL_SURFACE('',#1332,1.65);
#411=CYLINDRICAL_SURFACE('',#1363,16.5);
#412=CYLINDRICAL_SURFACE('',#1365,1.65);
#413=CYLINDRICAL_SURFACE('',#1367,1.65);
#414=CYLINDRICAL_SURFACE('',#1370,3.1);
#415=CYLINDRICAL_SURFACE('',#1373,3.1);
#416=CYLINDRICAL_SURFACE('',#1375,5.);
#417=CYLINDRICAL_SURFACE('',#1376,5.);
#418=CYLINDRICAL_SURFACE('',#1377,5.);
#419=CYLINDRICAL_SURFACE('',#1378,5.);
#420=CYLINDRICAL_SURFACE('',#1388,3.1);
#421=CYLINDRICAL_SURFACE('',#1396,3.1);
#422=CYLINDRICAL_SURFACE('',#1402,3.1);
#423=CYLINDRICAL_SURFACE('',#1410,3.1);
#424=CYLINDRICAL_SURFACE('',#1411,1.5);
#425=CYLINDRICAL_SURFACE('',#1412,1.5);
#426=CYLINDRICAL_SURFACE('',#1413,1.5);
#427=CYLINDRICAL_SURFACE('',#1414,1.5);
#428=CYLINDRICAL_SURFACE('',#1415,1.5);
#429=CYLINDRICAL_SURFACE('',#1416,1.5);
#430=CYLINDRICAL_SURFACE('',#1417,1.5);
#431=CYLINDRICAL_SURFACE('',#1418,1.5);
#432=CYLINDRICAL_SURFACE('',#1422,3.1);
#433=CYLINDRICAL_SURFACE('',#1424,3.1);
#434=CYLINDRICAL_SURFACE('',#1428,3.1);
#435=CYLINDRICAL_SURFACE('',#1430,3.1);
#436=FACE_BOUND('',#514,.T.);
#437=FACE_BOUND('',#515,.T.);
#438=FACE_BOUND('',#516,.T.);
#439=FACE_BOUND('',#517,.T.);
#440=FACE_BOUND('',#518,.T.);
#441=FACE_BOUND('',#519,.T.);
#442=FACE_BOUND('',#520,.T.);
#443=FACE_BOUND('',#521,.T.);
#444=FACE_BOUND('',#522,.T.);
#445=FACE_BOUND('',#523,.T.);
#446=FACE_BOUND('',#524,.T.);
#447=FACE_BOUND('',#525,.T.);
#448=FACE_BOUND('',#526,.T.);
#449=FACE_BOUND('',#527,.T.);
#450=FACE_BOUND('',#528,.T.);
#451=FACE_BOUND('',#529,.T.);
#452=FACE_BOUND('',#530,.T.);
#453=FACE_BOUND('',#533,.T.);
#454=FACE_BOUND('',#534,.T.);
#455=FACE_BOUND('',#535,.T.);
#456=FACE_BOUND('',#536,.T.);
#457=FACE_BOUND('',#537,.T.);
#458=FACE_BOUND('',#538,.T.);
#459=FACE_BOUND('',#539,.T.);
#460=FACE_BOUND('',#540,.T.);
#461=FACE_BOUND('',#541,.T.);
#462=FACE_BOUND('',#542,.T.);
#463=FACE_BOUND('',#544,.T.);
#464=FACE_BOUND('',#545,.T.);
#465=FACE_BOUND('',#546,.T.);
#466=FACE_BOUND('',#547,.T.);
#467=FACE_BOUND('',#548,.T.);
#468=FACE_BOUND('',#549,.T.);
#469=FACE_BOUND('',#550,.T.);
#470=FACE_BOUND('',#551,.T.);
#471=FACE_BOUND('',#552,.T.);
#472=FACE_BOUND('',#553,.T.);
#473=FACE_BOUND('',#554,.T.);
#474=FACE_BOUND('',#555,.T.);
#475=FACE_BOUND('',#556,.T.);
#476=FACE_BOUND('',#557,.T.);
#477=FACE_BOUND('',#558,.T.);
#478=FACE_BOUND('',#559,.T.);
#479=FACE_BOUND('',#560,.T.);
#480=FACE_BOUND('',#561,.T.);
#481=FACE_BOUND('',#562,.T.);
#482=FACE_BOUND('',#563,.T.);
#483=FACE_BOUND('',#564,.T.);
#484=FACE_BOUND('',#565,.T.);
#485=FACE_BOUND('',#575,.T.);
#486=FACE_BOUND('',#576,.T.);
#487=FACE_BOUND('',#580,.T.);
#488=FACE_BOUND('',#581,.T.);
#489=FACE_BOUND('',#585,.T.);
#490=FACE_BOUND('',#586,.T.);
#491=FACE_BOUND('',#590,.T.);
#492=FACE_BOUND('',#591,.T.);
#493=FACE_BOUND('',#603,.T.);
#494=FACE_BOUND('',#604,.T.);
#495=FACE_BOUND('',#605,.T.);
#496=FACE_BOUND('',#606,.T.);
#497=FACE_BOUND('',#607,.T.);
#498=FACE_BOUND('',#608,.T.);
#499=FACE_BOUND('',#609,.T.);
#500=FACE_BOUND('',#610,.T.);
#501=FACE_BOUND('',#611,.T.);
#502=FACE_BOUND('',#612,.T.);
#503=FACE_BOUND('',#613,.T.);
#504=FACE_BOUND('',#614,.T.);
#505=FACE_BOUND('',#615,.T.);
#506=FACE_BOUND('',#616,.T.);
#507=FACE_BOUND('',#617,.T.);
#508=FACE_BOUND('',#618,.T.);
#509=FACE_BOUND('',#619,.T.);
#510=FACE_BOUND('',#620,.T.);
#511=FACE_BOUND('',#621,.T.);
#512=FACE_BOUND('',#622,.T.);
#513=FACE_BOUND('',#623,.T.);
#514=EDGE_LOOP('',(#626));
#515=EDGE_LOOP('',(#627));
#516=EDGE_LOOP('',(#628));
#517=EDGE_LOOP('',(#629));
#518=EDGE_LOOP('',(#630));
#519=EDGE_LOOP('',(#631));
#520=EDGE_LOOP('',(#632));
#521=EDGE_LOOP('',(#633));
#522=EDGE_LOOP('',(#634));
#523=EDGE_LOOP('',(#635));
#524=EDGE_LOOP('',(#636));
#525=EDGE_LOOP('',(#637));
#526=EDGE_LOOP('',(#638,#639,#640,#641));
#527=EDGE_LOOP('',(#642));
#528=EDGE_LOOP('',(#643));
#529=EDGE_LOOP('',(#644));
#530=EDGE_LOOP('',(#645));
#531=EDGE_LOOP('',(#646,#647,#648,#649,#650,#651,#652,#653,#654,#655,#656,
#657));
#532=EDGE_LOOP('',(#658,#659,#660,#661,#662,#663,#664,#665,#666,#667,#668,
#669));
#533=EDGE_LOOP('',(#670));
#534=EDGE_LOOP('',(#671));
#535=EDGE_LOOP('',(#672,#673,#674,#675,#676,#677,#678,#679));
#536=EDGE_LOOP('',(#680));
#537=EDGE_LOOP('',(#681));
#538=EDGE_LOOP('',(#682,#683,#684,#685,#686,#687));
#539=EDGE_LOOP('',(#688));
#540=EDGE_LOOP('',(#689));
#541=EDGE_LOOP('',(#690));
#542=EDGE_LOOP('',(#691));
#543=EDGE_LOOP('',(#692,#693,#694,#695));
#544=EDGE_LOOP('',(#696,#697,#698,#699,#700,#701,#702,#703,#704,#705,#706,
#707,#708,#709,#710,#711,#712,#713,#714,#715,#716,#717,#718,#719));
#545=EDGE_LOOP('',(#720,#721,#722,#723,#724,#725,#726,#727));
#546=EDGE_LOOP('',(#728));
#547=EDGE_LOOP('',(#729));
#548=EDGE_LOOP('',(#730));
#549=EDGE_LOOP('',(#731));
#550=EDGE_LOOP('',(#732));
#551=EDGE_LOOP('',(#733,#734,#735,#736,#737,#738));
#552=EDGE_LOOP('',(#739,#740,#741,#742,#743,#744,#745,#746,#747,#748,#749,
#750,#751,#752,#753,#754));
#553=EDGE_LOOP('',(#755));
#554=EDGE_LOOP('',(#756));
#555=EDGE_LOOP('',(#757));
#556=EDGE_LOOP('',(#758));
#557=EDGE_LOOP('',(#759));
#558=EDGE_LOOP('',(#760));
#559=EDGE_LOOP('',(#761));
#560=EDGE_LOOP('',(#762));
#561=EDGE_LOOP('',(#763));
#562=EDGE_LOOP('',(#764));
#563=EDGE_LOOP('',(#765));
#564=EDGE_LOOP('',(#766));
#565=EDGE_LOOP('',(#767));
#566=EDGE_LOOP('',(#768,#769,#770,#771));
#567=EDGE_LOOP('',(#772,#773,#774,#775));
#568=EDGE_LOOP('',(#776,#777,#778,#779));
#569=EDGE_LOOP('',(#780,#781,#782,#783));
#570=EDGE_LOOP('',(#784,#785,#786,#787));
#571=EDGE_LOOP('',(#788,#789,#790,#791));
#572=EDGE_LOOP('',(#792,#793,#794,#795));
#573=EDGE_LOOP('',(#796,#797,#798,#799));
#574=EDGE_LOOP('',(#800,#801,#802,#803));
#575=EDGE_LOOP('',(#804,#805,#806,#807,#808,#809));
#576=EDGE_LOOP('',(#810));
#577=EDGE_LOOP('',(#811,#812,#813,#814));
#578=EDGE_LOOP('',(#815,#816,#817,#818));
#579=EDGE_LOOP('',(#819,#820,#821,#822));
#580=EDGE_LOOP('',(#823,#824,#825,#826,#827,#828));
#581=EDGE_LOOP('',(#829));
#582=EDGE_LOOP('',(#830,#831,#832,#833));
#583=EDGE_LOOP('',(#834,#835,#836,#837));
#584=EDGE_LOOP('',(#838,#839,#840,#841));
#585=EDGE_LOOP('',(#842,#843,#844,#845,#846,#847));
#586=EDGE_LOOP('',(#848));
#587=EDGE_LOOP('',(#849,#850,#851,#852));
#588=EDGE_LOOP('',(#853,#854,#855,#856));
#589=EDGE_LOOP('',(#857,#858,#859,#860));
#590=EDGE_LOOP('',(#861,#862,#863,#864,#865,#866));
#591=EDGE_LOOP('',(#867));
#592=EDGE_LOOP('',(#868,#869,#870,#871));
#593=EDGE_LOOP('',(#872,#873,#874,#875));
#594=EDGE_LOOP('',(#876,#877,#878,#879));
#595=EDGE_LOOP('',(#880,#881,#882,#883));
#596=EDGE_LOOP('',(#884,#885,#886,#887));
#597=EDGE_LOOP('',(#888,#889,#890,#891));
#598=EDGE_LOOP('',(#892,#893,#894,#895));
#599=EDGE_LOOP('',(#896,#897,#898,#899));
#600=EDGE_LOOP('',(#900,#901,#902,#903));
#601=EDGE_LOOP('',(#904,#905,#906,#907));
#602=EDGE_LOOP('',(#908,#909,#910,#911));
#603=EDGE_LOOP('',(#912,#913,#914,#915));
#604=EDGE_LOOP('',(#916));
#605=EDGE_LOOP('',(#917));
#606=EDGE_LOOP('',(#918));
#607=EDGE_LOOP('',(#919));
#608=EDGE_LOOP('',(#920));
#609=EDGE_LOOP('',(#921));
#610=EDGE_LOOP('',(#922));
#611=EDGE_LOOP('',(#923));
#612=EDGE_LOOP('',(#924));
#613=EDGE_LOOP('',(#925));
#614=EDGE_LOOP('',(#926));
#615=EDGE_LOOP('',(#927));
#616=EDGE_LOOP('',(#928));
#617=EDGE_LOOP('',(#929));
#618=EDGE_LOOP('',(#930));
#619=EDGE_LOOP('',(#931));
#620=EDGE_LOOP('',(#932));
#621=EDGE_LOOP('',(#933));
#622=EDGE_LOOP('',(#934));
#623=EDGE_LOOP('',(#935));
#624=EDGE_LOOP('',(#936,#937,#938,#939));
#625=EDGE_LOOP('',(#940,#941,#942,#943));
#626=ORIENTED_EDGE('',*,*,#1061,.F.);
#627=ORIENTED_EDGE('',*,*,#1062,.T.);
#628=ORIENTED_EDGE('',*,*,#1063,.F.);
#629=ORIENTED_EDGE('',*,*,#1064,.F.);
#630=ORIENTED_EDGE('',*,*,#1065,.F.);
#631=ORIENTED_EDGE('',*,*,#1066,.T.);
#632=ORIENTED_EDGE('',*,*,#1067,.F.);
#633=ORIENTED_EDGE('',*,*,#1068,.F.);
#634=ORIENTED_EDGE('',*,*,#1069,.F.);
#635=ORIENTED_EDGE('',*,*,#1070,.F.);
#636=ORIENTED_EDGE('',*,*,#1071,.F.);
#637=ORIENTED_EDGE('',*,*,#1072,.F.);
#638=ORIENTED_EDGE('',*,*,#1073,.F.);
#639=ORIENTED_EDGE('',*,*,#1074,.F.);
#640=ORIENTED_EDGE('',*,*,#1075,.T.);
#641=ORIENTED_EDGE('',*,*,#1076,.T.);
#642=ORIENTED_EDGE('',*,*,#1077,.F.);
#643=ORIENTED_EDGE('',*,*,#1078,.F.);
#644=ORIENTED_EDGE('',*,*,#1079,.F.);
#645=ORIENTED_EDGE('',*,*,#1080,.F.);
#646=ORIENTED_EDGE('',*,*,#1081,.F.);
#647=ORIENTED_EDGE('',*,*,#1082,.T.);
#648=ORIENTED_EDGE('',*,*,#1083,.F.);
#649=ORIENTED_EDGE('',*,*,#1084,.T.);
#650=ORIENTED_EDGE('',*,*,#1085,.T.);
#651=ORIENTED_EDGE('',*,*,#1086,.F.);
#652=ORIENTED_EDGE('',*,*,#1087,.F.);
#653=ORIENTED_EDGE('',*,*,#1076,.F.);
#654=ORIENTED_EDGE('',*,*,#1088,.F.);
#655=ORIENTED_EDGE('',*,*,#1089,.F.);
#656=ORIENTED_EDGE('',*,*,#1090,.T.);
#657=ORIENTED_EDGE('',*,*,#1091,.T.);
#658=ORIENTED_EDGE('',*,*,#1092,.F.);
#659=ORIENTED_EDGE('',*,*,#1093,.T.);
#660=ORIENTED_EDGE('',*,*,#1094,.F.);
#661=ORIENTED_EDGE('',*,*,#1095,.T.);
#662=ORIENTED_EDGE('',*,*,#1096,.T.);
#663=ORIENTED_EDGE('',*,*,#1097,.F.);
#664=ORIENTED_EDGE('',*,*,#1098,.F.);
#665=ORIENTED_EDGE('',*,*,#1074,.T.);
#666=ORIENTED_EDGE('',*,*,#1099,.F.);
#667=ORIENTED_EDGE('',*,*,#1100,.F.);
#668=ORIENTED_EDGE('',*,*,#1101,.T.);
#669=ORIENTED_EDGE('',*,*,#1102,.T.);
#670=ORIENTED_EDGE('',*,*,#1103,.F.);
#671=ORIENTED_EDGE('',*,*,#1104,.F.);
#672=ORIENTED_EDGE('',*,*,#1083,.T.);
#673=ORIENTED_EDGE('',*,*,#1105,.T.);
#674=ORIENTED_EDGE('',*,*,#1106,.F.);
#675=ORIENTED_EDGE('',*,*,#1107,.T.);
#676=ORIENTED_EDGE('',*,*,#1092,.T.);
#677=ORIENTED_EDGE('',*,*,#1108,.T.);
#678=ORIENTED_EDGE('',*,*,#1109,.F.);
#679=ORIENTED_EDGE('',*,*,#1110,.T.);
#680=ORIENTED_EDGE('',*,*,#1111,.T.);
#681=ORIENTED_EDGE('',*,*,#1112,.T.);
#682=ORIENTED_EDGE('',*,*,#1113,.F.);
#683=ORIENTED_EDGE('',*,*,#1114,.T.);
#684=ORIENTED_EDGE('',*,*,#1101,.F.);
#685=ORIENTED_EDGE('',*,*,#1115,.T.);
#686=ORIENTED_EDGE('',*,*,#1085,.F.);
#687=ORIENTED_EDGE('',*,*,#1116,.T.);
#688=ORIENTED_EDGE('',*,*,#1111,.F.);
#689=ORIENTED_EDGE('',*,*,#1117,.F.);
#690=ORIENTED_EDGE('',*,*,#1112,.F.);
#691=ORIENTED_EDGE('',*,*,#1118,.F.);
#692=ORIENTED_EDGE('',*,*,#1119,.T.);
#693=ORIENTED_EDGE('',*,*,#1120,.T.);
#694=ORIENTED_EDGE('',*,*,#1121,.F.);
#695=ORIENTED_EDGE('',*,*,#1122,.T.);
#696=ORIENTED_EDGE('',*,*,#1123,.F.);
#697=ORIENTED_EDGE('',*,*,#1124,.T.);
#698=ORIENTED_EDGE('',*,*,#1125,.F.);
#699=ORIENTED_EDGE('',*,*,#1126,.T.);
#700=ORIENTED_EDGE('',*,*,#1127,.F.);
#701=ORIENTED_EDGE('',*,*,#1128,.F.);
#702=ORIENTED_EDGE('',*,*,#1129,.F.);
#703=ORIENTED_EDGE('',*,*,#1130,.T.);
#704=ORIENTED_EDGE('',*,*,#1131,.F.);
#705=ORIENTED_EDGE('',*,*,#1132,.T.);
#706=ORIENTED_EDGE('',*,*,#1133,.F.);
#707=ORIENTED_EDGE('',*,*,#1134,.F.);
#708=ORIENTED_EDGE('',*,*,#1135,.F.);
#709=ORIENTED_EDGE('',*,*,#1136,.T.);
#710=ORIENTED_EDGE('',*,*,#1137,.F.);
#711=ORIENTED_EDGE('',*,*,#1138,.T.);
#712=ORIENTED_EDGE('',*,*,#1139,.F.);
#713=ORIENTED_EDGE('',*,*,#1140,.F.);
#714=ORIENTED_EDGE('',*,*,#1141,.F.);
#715=ORIENTED_EDGE('',*,*,#1142,.T.);
#716=ORIENTED_EDGE('',*,*,#1143,.F.);
#717=ORIENTED_EDGE('',*,*,#1144,.T.);
#718=ORIENTED_EDGE('',*,*,#1145,.F.);
#719=ORIENTED_EDGE('',*,*,#1146,.F.);
#720=ORIENTED_EDGE('',*,*,#1147,.F.);
#721=ORIENTED_EDGE('',*,*,#1148,.T.);
#722=ORIENTED_EDGE('',*,*,#1081,.T.);
#723=ORIENTED_EDGE('',*,*,#1149,.T.);
#724=ORIENTED_EDGE('',*,*,#1121,.T.);
#725=ORIENTED_EDGE('',*,*,#1150,.T.);
#726=ORIENTED_EDGE('',*,*,#1094,.T.);
#727=ORIENTED_EDGE('',*,*,#1151,.T.);
#728=ORIENTED_EDGE('',*,*,#1079,.T.);
#729=ORIENTED_EDGE('',*,*,#1152,.T.);
#730=ORIENTED_EDGE('',*,*,#1077,.T.);
#731=ORIENTED_EDGE('',*,*,#1153,.T.);
#732=ORIENTED_EDGE('',*,*,#1154,.F.);
#733=ORIENTED_EDGE('',*,*,#1096,.F.);
#734=ORIENTED_EDGE('',*,*,#1155,.T.);
#735=ORIENTED_EDGE('',*,*,#1119,.F.);
#736=ORIENTED_EDGE('',*,*,#1156,.T.);
#737=ORIENTED_EDGE('',*,*,#1090,.F.);
#738=ORIENTED_EDGE('',*,*,#1157,.F.);
#739=ORIENTED_EDGE('',*,*,#1125,.T.);
#740=ORIENTED_EDGE('',*,*,#1158,.T.);
#741=ORIENTED_EDGE('',*,*,#1159,.F.);
#742=ORIENTED_EDGE('',*,*,#1160,.T.);
#743=ORIENTED_EDGE('',*,*,#1143,.T.);
#744=ORIENTED_EDGE('',*,*,#1161,.T.);
#745=ORIENTED_EDGE('',*,*,#1162,.F.);
#746=ORIENTED_EDGE('',*,*,#1163,.T.);
#747=ORIENTED_EDGE('',*,*,#1137,.T.);
#748=ORIENTED_EDGE('',*,*,#1164,.T.);
#749=ORIENTED_EDGE('',*,*,#1165,.F.);
#750=ORIENTED_EDGE('',*,*,#1166,.T.);
#751=ORIENTED_EDGE('',*,*,#1131,.T.);
#752=ORIENTED_EDGE('',*,*,#1167,.T.);
#753=ORIENTED_EDGE('',*,*,#1168,.F.);
#754=ORIENTED_EDGE('',*,*,#1169,.T.);
#755=ORIENTED_EDGE('',*,*,#1154,.T.);
#756=ORIENTED_EDGE('',*,*,#1170,.T.);
#757=ORIENTED_EDGE('',*,*,#1153,.F.);
#758=ORIENTED_EDGE('',*,*,#1171,.T.);
#759=ORIENTED_EDGE('',*,*,#1152,.F.);
#760=ORIENTED_EDGE('',*,*,#1172,.F.);
#761=ORIENTED_EDGE('',*,*,#1118,.T.);
#762=ORIENTED_EDGE('',*,*,#1172,.T.);
#763=ORIENTED_EDGE('',*,*,#1104,.T.);
#764=ORIENTED_EDGE('',*,*,#1173,.F.);
#765=ORIENTED_EDGE('',*,*,#1117,.T.);
#766=ORIENTED_EDGE('',*,*,#1173,.T.);
#767=ORIENTED_EDGE('',*,*,#1103,.T.);
#768=ORIENTED_EDGE('',*,*,#1109,.T.);
#769=ORIENTED_EDGE('',*,*,#1174,.T.);
#770=ORIENTED_EDGE('',*,*,#1113,.T.);
#771=ORIENTED_EDGE('',*,*,#1175,.T.);
#772=ORIENTED_EDGE('',*,*,#1150,.F.);
#773=ORIENTED_EDGE('',*,*,#1120,.F.);
#774=ORIENTED_EDGE('',*,*,#1155,.F.);
#775=ORIENTED_EDGE('',*,*,#1095,.F.);
#776=ORIENTED_EDGE('',*,*,#1149,.F.);
#777=ORIENTED_EDGE('',*,*,#1091,.F.);
#778=ORIENTED_EDGE('',*,*,#1156,.F.);
#779=ORIENTED_EDGE('',*,*,#1122,.F.);
#780=ORIENTED_EDGE('',*,*,#1114,.F.);
#781=ORIENTED_EDGE('',*,*,#1174,.F.);
#782=ORIENTED_EDGE('',*,*,#1108,.F.);
#783=ORIENTED_EDGE('',*,*,#1102,.F.);
#784=ORIENTED_EDGE('',*,*,#1116,.F.);
#785=ORIENTED_EDGE('',*,*,#1084,.F.);
#786=ORIENTED_EDGE('',*,*,#1110,.F.);
#787=ORIENTED_EDGE('',*,*,#1175,.F.);
#788=ORIENTED_EDGE('',*,*,#1097,.T.);
#789=ORIENTED_EDGE('',*,*,#1157,.T.);
#790=ORIENTED_EDGE('',*,*,#1089,.T.);
#791=ORIENTED_EDGE('',*,*,#1176,.T.);
#792=ORIENTED_EDGE('',*,*,#1098,.T.);
#793=ORIENTED_EDGE('',*,*,#1176,.F.);
#794=ORIENTED_EDGE('',*,*,#1088,.T.);
#795=ORIENTED_EDGE('',*,*,#1075,.F.);
#796=ORIENTED_EDGE('',*,*,#1099,.T.);
#797=ORIENTED_EDGE('',*,*,#1073,.T.);
#798=ORIENTED_EDGE('',*,*,#1087,.T.);
#799=ORIENTED_EDGE('',*,*,#1177,.T.);
#800=ORIENTED_EDGE('',*,*,#1100,.T.);
#801=ORIENTED_EDGE('',*,*,#1177,.F.);
#802=ORIENTED_EDGE('',*,*,#1086,.T.);
#803=ORIENTED_EDGE('',*,*,#1115,.F.);
#804=ORIENTED_EDGE('',*,*,#1178,.F.);
#805=ORIENTED_EDGE('',*,*,#1179,.F.);
#806=ORIENTED_EDGE('',*,*,#1180,.F.);
#807=ORIENTED_EDGE('',*,*,#1181,.T.);
#808=ORIENTED_EDGE('',*,*,#1159,.T.);
#809=ORIENTED_EDGE('',*,*,#1182,.T.);
#810=ORIENTED_EDGE('',*,*,#1080,.T.);
#811=ORIENTED_EDGE('',*,*,#1178,.T.);
#812=ORIENTED_EDGE('',*,*,#1183,.T.);
#813=ORIENTED_EDGE('',*,*,#1123,.T.);
#814=ORIENTED_EDGE('',*,*,#1184,.T.);
#815=ORIENTED_EDGE('',*,*,#1146,.T.);
#816=ORIENTED_EDGE('',*,*,#1185,.T.);
#817=ORIENTED_EDGE('',*,*,#1179,.T.);
#818=ORIENTED_EDGE('',*,*,#1184,.F.);
#819=ORIENTED_EDGE('',*,*,#1145,.T.);
#820=ORIENTED_EDGE('',*,*,#1186,.T.);
#821=ORIENTED_EDGE('',*,*,#1180,.T.);
#822=ORIENTED_EDGE('',*,*,#1185,.F.);
#823=ORIENTED_EDGE('',*,*,#1187,.F.);
#824=ORIENTED_EDGE('',*,*,#1188,.T.);
#825=ORIENTED_EDGE('',*,*,#1165,.T.);
#826=ORIENTED_EDGE('',*,*,#1189,.T.);
#827=ORIENTED_EDGE('',*,*,#1190,.F.);
#828=ORIENTED_EDGE('',*,*,#1191,.F.);
#829=ORIENTED_EDGE('',*,*,#1171,.F.);
#830=ORIENTED_EDGE('',*,*,#1133,.T.);
#831=ORIENTED_EDGE('',*,*,#1192,.T.);
#832=ORIENTED_EDGE('',*,*,#1187,.T.);
#833=ORIENTED_EDGE('',*,*,#1193,.F.);
#834=ORIENTED_EDGE('',*,*,#1190,.T.);
#835=ORIENTED_EDGE('',*,*,#1194,.T.);
#836=ORIENTED_EDGE('',*,*,#1135,.T.);
#837=ORIENTED_EDGE('',*,*,#1195,.T.);
#838=ORIENTED_EDGE('',*,*,#1134,.T.);
#839=ORIENTED_EDGE('',*,*,#1193,.T.);
#840=ORIENTED_EDGE('',*,*,#1191,.T.);
#841=ORIENTED_EDGE('',*,*,#1195,.F.);
#842=ORIENTED_EDGE('',*,*,#1196,.F.);
#843=ORIENTED_EDGE('',*,*,#1197,.F.);
#844=ORIENTED_EDGE('',*,*,#1198,.F.);
#845=ORIENTED_EDGE('',*,*,#1199,.T.);
#846=ORIENTED_EDGE('',*,*,#1168,.T.);
#847=ORIENTED_EDGE('',*,*,#1200,.T.);
#848=ORIENTED_EDGE('',*,*,#1078,.T.);
#849=ORIENTED_EDGE('',*,*,#1196,.T.);
#850=ORIENTED_EDGE('',*,*,#1201,.T.);
#851=ORIENTED_EDGE('',*,*,#1129,.T.);
#852=ORIENTED_EDGE('',*,*,#1202,.T.);
#853=ORIENTED_EDGE('',*,*,#1128,.T.);
#854=ORIENTED_EDGE('',*,*,#1203,.T.);
#855=ORIENTED_EDGE('',*,*,#1197,.T.);
#856=ORIENTED_EDGE('',*,*,#1202,.F.);
#857=ORIENTED_EDGE('',*,*,#1127,.T.);
#858=ORIENTED_EDGE('',*,*,#1204,.T.);
#859=ORIENTED_EDGE('',*,*,#1198,.T.);
#860=ORIENTED_EDGE('',*,*,#1203,.F.);
#861=ORIENTED_EDGE('',*,*,#1205,.F.);
#862=ORIENTED_EDGE('',*,*,#1206,.T.);
#863=ORIENTED_EDGE('',*,*,#1162,.T.);
#864=ORIENTED_EDGE('',*,*,#1207,.T.);
#865=ORIENTED_EDGE('',*,*,#1208,.F.);
#866=ORIENTED_EDGE('',*,*,#1209,.F.);
#867=ORIENTED_EDGE('',*,*,#1170,.F.);
#868=ORIENTED_EDGE('',*,*,#1139,.T.);
#869=ORIENTED_EDGE('',*,*,#1210,.T.);
#870=ORIENTED_EDGE('',*,*,#1205,.T.);
#871=ORIENTED_EDGE('',*,*,#1211,.F.);
#872=ORIENTED_EDGE('',*,*,#1208,.T.);
#873=ORIENTED_EDGE('',*,*,#1212,.T.);
#874=ORIENTED_EDGE('',*,*,#1141,.T.);
#875=ORIENTED_EDGE('',*,*,#1213,.T.);
#876=ORIENTED_EDGE('',*,*,#1140,.T.);
#877=ORIENTED_EDGE('',*,*,#1211,.T.);
#878=ORIENTED_EDGE('',*,*,#1209,.T.);
#879=ORIENTED_EDGE('',*,*,#1213,.F.);
#880=ORIENTED_EDGE('',*,*,#1182,.F.);
#881=ORIENTED_EDGE('',*,*,#1158,.F.);
#882=ORIENTED_EDGE('',*,*,#1124,.F.);
#883=ORIENTED_EDGE('',*,*,#1183,.F.);
#884=ORIENTED_EDGE('',*,*,#1206,.F.);
#885=ORIENTED_EDGE('',*,*,#1210,.F.);
#886=ORIENTED_EDGE('',*,*,#1138,.F.);
#887=ORIENTED_EDGE('',*,*,#1163,.F.);
#888=ORIENTED_EDGE('',*,*,#1207,.F.);
#889=ORIENTED_EDGE('',*,*,#1161,.F.);
#890=ORIENTED_EDGE('',*,*,#1142,.F.);
#891=ORIENTED_EDGE('',*,*,#1212,.F.);
#892=ORIENTED_EDGE('',*,*,#1181,.F.);
#893=ORIENTED_EDGE('',*,*,#1186,.F.);
#894=ORIENTED_EDGE('',*,*,#1144,.F.);
#895=ORIENTED_EDGE('',*,*,#1160,.F.);
#896=ORIENTED_EDGE('',*,*,#1199,.F.);
#897=ORIENTED_EDGE('',*,*,#1204,.F.);
#898=ORIENTED_EDGE('',*,*,#1126,.F.);
#899=ORIENTED_EDGE('',*,*,#1169,.F.);
#900=ORIENTED_EDGE('',*,*,#1200,.F.);
#901=ORIENTED_EDGE('',*,*,#1167,.F.);
#902=ORIENTED_EDGE('',*,*,#1130,.F.);
#903=ORIENTED_EDGE('',*,*,#1201,.F.);
#904=ORIENTED_EDGE('',*,*,#1188,.F.);
#905=ORIENTED_EDGE('',*,*,#1192,.F.);
#906=ORIENTED_EDGE('',*,*,#1132,.F.);
#907=ORIENTED_EDGE('',*,*,#1166,.F.);
#908=ORIENTED_EDGE('',*,*,#1189,.F.);
#909=ORIENTED_EDGE('',*,*,#1164,.F.);
#910=ORIENTED_EDGE('',*,*,#1136,.F.);
#911=ORIENTED_EDGE('',*,*,#1194,.F.);
#912=ORIENTED_EDGE('',*,*,#1106,.T.);
#913=ORIENTED_EDGE('',*,*,#1214,.T.);
#914=ORIENTED_EDGE('',*,*,#1147,.T.);
#915=ORIENTED_EDGE('',*,*,#1215,.T.);
#916=ORIENTED_EDGE('',*,*,#1061,.T.);
#917=ORIENTED_EDGE('',*,*,#1063,.T.);
#918=ORIENTED_EDGE('',*,*,#1065,.T.);
#919=ORIENTED_EDGE('',*,*,#1067,.T.);
#920=ORIENTED_EDGE('',*,*,#1216,.F.);
#921=ORIENTED_EDGE('',*,*,#1068,.T.);
#922=ORIENTED_EDGE('',*,*,#1216,.T.);
#923=ORIENTED_EDGE('',*,*,#1072,.T.);
#924=ORIENTED_EDGE('',*,*,#1217,.T.);
#925=ORIENTED_EDGE('',*,*,#1071,.T.);
#926=ORIENTED_EDGE('',*,*,#1066,.F.);
#927=ORIENTED_EDGE('',*,*,#1217,.F.);
#928=ORIENTED_EDGE('',*,*,#1218,.F.);
#929=ORIENTED_EDGE('',*,*,#1064,.T.);
#930=ORIENTED_EDGE('',*,*,#1218,.T.);
#931=ORIENTED_EDGE('',*,*,#1070,.T.);
#932=ORIENTED_EDGE('',*,*,#1219,.T.);
#933=ORIENTED_EDGE('',*,*,#1069,.T.);
#934=ORIENTED_EDGE('',*,*,#1062,.F.);
#935=ORIENTED_EDGE('',*,*,#1219,.F.);
#936=ORIENTED_EDGE('',*,*,#1105,.F.);
#937=ORIENTED_EDGE('',*,*,#1082,.F.);
#938=ORIENTED_EDGE('',*,*,#1148,.F.);
#939=ORIENTED_EDGE('',*,*,#1214,.F.);
#940=ORIENTED_EDGE('',*,*,#1151,.F.);
#941=ORIENTED_EDGE('',*,*,#1093,.F.);
#942=ORIENTED_EDGE('',*,*,#1107,.F.);
#943=ORIENTED_EDGE('',*,*,#1215,.F.);
#944=VERTEX_POINT('',#1804);
#945=VERTEX_POINT('',#1806);
#946=VERTEX_POINT('',#1809);
#947=VERTEX_POINT('',#1811);
#948=VERTEX_POINT('',#1814);
#949=VERTEX_POINT('',#1816);
#950=VERTEX_POINT('',#1819);
#951=VERTEX_POINT('',#1821);
#952=VERTEX_POINT('',#1824);
#953=VERTEX_POINT('',#1826);
#954=VERTEX_POINT('',#1828);
#955=VERTEX_POINT('',#1830);
#956=VERTEX_POINT('',#1832);
#957=VERTEX_POINT('',#1833);
#958=VERTEX_POINT('',#1835);
#959=VERTEX_POINT('',#1837);
#960=VERTEX_POINT('',#1841);
#961=VERTEX_POINT('',#1843);
#962=VERTEX_POINT('',#1846);
#963=VERTEX_POINT('',#1848);
#964=VERTEX_POINT('',#1851);
#965=VERTEX_POINT('',#1852);
#966=VERTEX_POINT('',#1854);
#967=VERTEX_POINT('',#1856);
#968=VERTEX_POINT('',#1858);
#969=VERTEX_POINT('',#1860);
#970=VERTEX_POINT('',#1862);
#971=VERTEX_POINT('',#1865);
#972=VERTEX_POINT('',#1867);
#973=VERTEX_POINT('',#1869);
#974=VERTEX_POINT('',#1873);
#975=VERTEX_POINT('',#1874);
#976=VERTEX_POINT('',#1876);
#977=VERTEX_POINT('',#1878);
#978=VERTEX_POINT('',#1880);
#979=VERTEX_POINT('',#1882);
#980=VERTEX_POINT('',#1884);
#981=VERTEX_POINT('',#1887);
#982=VERTEX_POINT('',#1889);
#983=VERTEX_POINT('',#1891);
#984=VERTEX_POINT('',#1895);
#985=VERTEX_POINT('',#1897);
#986=VERTEX_POINT('',#1899);
#987=VERTEX_POINT('',#1901);
#988=VERTEX_POINT('',#1904);
#989=VERTEX_POINT('',#1906);
#990=VERTEX_POINT('',#1910);
#991=VERTEX_POINT('',#1912);
#992=VERTEX_POINT('',#1914);
#993=VERTEX_POINT('',#1915);
#994=VERTEX_POINT('',#1921);
#995=VERTEX_POINT('',#1924);
#996=VERTEX_POINT('',#1927);
#997=VERTEX_POINT('',#1928);
#998=VERTEX_POINT('',#1930);
#999=VERTEX_POINT('',#1932);
#1000=VERTEX_POINT('',#1936);
#1001=VERTEX_POINT('',#1937);
#1002=VERTEX_POINT('',#1939);
#1003=VERTEX_POINT('',#1941);
#1004=VERTEX_POINT('',#1943);
#1005=VERTEX_POINT('',#1945);
#1006=VERTEX_POINT('',#1947);
#1007=VERTEX_POINT('',#1949);
#1008=VERTEX_POINT('',#1951);
#1009=VERTEX_POINT('',#1953);
#1010=VERTEX_POINT('',#1955);
#1011=VERTEX_POINT('',#1957);
#1012=VERTEX_POINT('',#1959);
#1013=VERTEX_POINT('',#1961);
#1014=VERTEX_POINT('',#1963);
#1015=VERTEX_POINT('',#1965);
#1016=VERTEX_POINT('',#1967);
#1017=VERTEX_POINT('',#1969);
#1018=VERTEX_POINT('',#1971);
#1019=VERTEX_POINT('',#1973);
#1020=VERTEX_POINT('',#1975);
#1021=VERTEX_POINT('',#1977);
#1022=VERTEX_POINT('',#1979);
#1023=VERTEX_POINT('',#1981);
#1024=VERTEX_POINT('',#1984);
#1025=VERTEX_POINT('',#1985);
#1026=VERTEX_POINT('',#1992);
#1027=VERTEX_POINT('',#1994);
#1028=VERTEX_POINT('',#1996);
#1029=VERTEX_POINT('',#2002);
#1030=VERTEX_POINT('',#2004);
#1031=VERTEX_POINT('',#2007);
#1032=VERTEX_POINT('',#2009);
#1033=VERTEX_POINT('',#2012);
#1034=VERTEX_POINT('',#2014);
#1035=VERTEX_POINT('',#2017);
#1036=VERTEX_POINT('',#2019);
#1037=VERTEX_POINT('',#2023);
#1038=VERTEX_POINT('',#2026);
#1039=VERTEX_POINT('',#2029);
#1040=VERTEX_POINT('',#2033);
#1041=VERTEX_POINT('',#2050);
#1042=VERTEX_POINT('',#2051);
#1043=VERTEX_POINT('',#2053);
#1044=VERTEX_POINT('',#2055);
#1045=VERTEX_POINT('',#2067);
#1046=VERTEX_POINT('',#2068);
#1047=VERTEX_POINT('',#2071);
#1048=VERTEX_POINT('',#2073);
#1049=VERTEX_POINT('',#2084);
#1050=VERTEX_POINT('',#2085);
#1051=VERTEX_POINT('',#2087);
#1052=VERTEX_POINT('',#2089);
#1053=VERTEX_POINT('',#2101);
#1054=VERTEX_POINT('',#2102);
#1055=VERTEX_POINT('',#2105);
#1056=VERTEX_POINT('',#2107);
#1057=VERTEX_POINT('',#2129);
#1058=VERTEX_POINT('',#2133);
#1059=VERTEX_POINT('',#2137);
#1060=VERTEX_POINT('',#2141);
#1061=EDGE_CURVE('',#944,#944,#1220,.T.);
#1062=EDGE_CURVE('',#945,#945,#1221,.T.);
#1063=EDGE_CURVE('',#946,#946,#1222,.T.);
#1064=EDGE_CURVE('',#947,#947,#1223,.T.);
#1065=EDGE_CURVE('',#948,#948,#1224,.T.);
#1066=EDGE_CURVE('',#949,#949,#1225,.T.);
#1067=EDGE_CURVE('',#950,#950,#1226,.T.);
#1068=EDGE_CURVE('',#951,#951,#1227,.T.);
#1069=EDGE_CURVE('',#952,#952,#1228,.T.);
#1070=EDGE_CURVE('',#953,#953,#1229,.T.);
#1071=EDGE_CURVE('',#954,#954,#1230,.T.);
#1072=EDGE_CURVE('',#955,#955,#1231,.T.);
#1073=EDGE_CURVE('',#956,#957,#164,.T.);
#1074=EDGE_CURVE('',#958,#956,#165,.T.);
#1075=EDGE_CURVE('',#958,#959,#166,.T.);
#1076=EDGE_CURVE('',#959,#957,#167,.T.);
#1077=EDGE_CURVE('',#960,#960,#1232,.T.);
#1078=EDGE_CURVE('',#961,#961,#1233,.T.);
#1079=EDGE_CURVE('',#962,#962,#1234,.T.);
#1080=EDGE_CURVE('',#963,#963,#1235,.T.);
#1081=EDGE_CURVE('',#964,#965,#168,.T.);
#1082=EDGE_CURVE('',#964,#966,#169,.T.);
#1083=EDGE_CURVE('',#967,#966,#170,.T.);
#1084=EDGE_CURVE('',#967,#968,#171,.T.);
#1085=EDGE_CURVE('',#968,#969,#172,.T.);
#1086=EDGE_CURVE('',#970,#969,#173,.T.);
#1087=EDGE_CURVE('',#957,#970,#174,.T.);
#1088=EDGE_CURVE('',#971,#959,#175,.T.);
#1089=EDGE_CURVE('',#972,#971,#176,.T.);
#1090=EDGE_CURVE('',#972,#973,#177,.T.);
#1091=EDGE_CURVE('',#973,#965,#178,.T.);
#1092=EDGE_CURVE('',#974,#975,#179,.T.);
#1093=EDGE_CURVE('',#974,#976,#180,.T.);
#1094=EDGE_CURVE('',#977,#976,#181,.T.);
#1095=EDGE_CURVE('',#977,#978,#182,.T.);
#1096=EDGE_CURVE('',#978,#979,#183,.T.);
#1097=EDGE_CURVE('',#980,#979,#184,.T.);
#1098=EDGE_CURVE('',#958,#980,#185,.T.);
#1099=EDGE_CURVE('',#981,#956,#186,.T.);
#1100=EDGE_CURVE('',#982,#981,#187,.T.);
#1101=EDGE_CURVE('',#982,#983,#188,.T.);
#1102=EDGE_CURVE('',#983,#975,#189,.T.);
#1103=EDGE_CURVE('',#984,#984,#1236,.T.);
#1104=EDGE_CURVE('',#985,#985,#1237,.T.);
#1105=EDGE_CURVE('',#966,#986,#190,.T.);
#1106=EDGE_CURVE('',#987,#986,#191,.T.);
#1107=EDGE_CURVE('',#987,#974,#192,.T.);
#1108=EDGE_CURVE('',#975,#988,#1238,.T.);
#1109=EDGE_CURVE('',#989,#988,#193,.T.);
#1110=EDGE_CURVE('',#989,#967,#1239,.T.);
#1111=EDGE_CURVE('',#990,#990,#1240,.T.);
#1112=EDGE_CURVE('',#991,#991,#1241,.T.);
#1113=EDGE_CURVE('',#992,#993,#194,.T.);
#1114=EDGE_CURVE('',#992,#983,#1242,.T.);
#1115=EDGE_CURVE('',#982,#969,#195,.T.);
#1116=EDGE_CURVE('',#968,#993,#1243,.T.);
#1117=EDGE_CURVE('',#994,#994,#1244,.T.);
#1118=EDGE_CURVE('',#995,#995,#1245,.T.);
#1119=EDGE_CURVE('',#996,#997,#196,.T.);
#1120=EDGE_CURVE('',#997,#998,#197,.T.);
#1121=EDGE_CURVE('',#999,#998,#198,.T.);
#1122=EDGE_CURVE('',#999,#996,#199,.T.);
#1123=EDGE_CURVE('',#1000,#1001,#200,.T.);
#1124=EDGE_CURVE('',#1000,#1002,#1246,.T.);
#1125=EDGE_CURVE('',#1003,#1002,#1247,.T.);
#1126=EDGE_CURVE('',#1003,#1004,#1248,.T.);
#1127=EDGE_CURVE('',#1005,#1004,#201,.T.);
#1128=EDGE_CURVE('',#1006,#1005,#1249,.T.);
#1129=EDGE_CURVE('',#1007,#1006,#202,.T.);
#1130=EDGE_CURVE('',#1007,#1008,#1250,.T.);
#1131=EDGE_CURVE('',#1009,#1008,#1251,.T.);
#1132=EDGE_CURVE('',#1009,#1010,#1252,.T.);
#1133=EDGE_CURVE('',#1011,#1010,#203,.T.);
#1134=EDGE_CURVE('',#1012,#1011,#1253,.T.);
#1135=EDGE_CURVE('',#1013,#1012,#204,.T.);
#1136=EDGE_CURVE('',#1013,#1014,#1254,.T.);
#1137=EDGE_CURVE('',#1015,#1014,#1255,.T.);
#1138=EDGE_CURVE('',#1015,#1016,#1256,.T.);
#1139=EDGE_CURVE('',#1017,#1016,#205,.T.);
#1140=EDGE_CURVE('',#1018,#1017,#1257,.T.);
#1141=EDGE_CURVE('',#1019,#1018,#206,.T.);
#1142=EDGE_CURVE('',#1019,#1020,#1258,.T.);
#1143=EDGE_CURVE('',#1021,#1020,#1259,.T.);
#1144=EDGE_CURVE('',#1021,#1022,#1260,.T.);
#1145=EDGE_CURVE('',#1023,#1022,#207,.T.);
#1146=EDGE_CURVE('',#1001,#1023,#1261,.T.);
#1147=EDGE_CURVE('',#1024,#1025,#208,.T.);
#1148=EDGE_CURVE('',#1024,#964,#209,.T.);
#1149=EDGE_CURVE('',#965,#999,#1262,.T.);
#1150=EDGE_CURVE('',#998,#977,#1263,.T.);
#1151=EDGE_CURVE('',#976,#1025,#210,.T.);
#1152=EDGE_CURVE('',#1026,#1026,#1264,.T.);
#1153=EDGE_CURVE('',#1027,#1027,#1265,.T.);
#1154=EDGE_CURVE('',#1028,#1028,#1266,.T.);
#1155=EDGE_CURVE('',#978,#997,#1267,.T.);
#1156=EDGE_CURVE('',#996,#973,#1268,.T.);
#1157=EDGE_CURVE('',#979,#972,#211,.T.);
#1158=EDGE_CURVE('',#1002,#1029,#212,.T.);
#1159=EDGE_CURVE('',#1030,#1029,#1269,.T.);
#1160=EDGE_CURVE('',#1030,#1021,#213,.T.);
#1161=EDGE_CURVE('',#1020,#1031,#214,.T.);
#1162=EDGE_CURVE('',#1032,#1031,#1270,.T.);
#1163=EDGE_CURVE('',#1032,#1015,#215,.T.);
#1164=EDGE_CURVE('',#1014,#1033,#216,.T.);
#1165=EDGE_CURVE('',#1034,#1033,#1271,.T.);
#1166=EDGE_CURVE('',#1034,#1009,#217,.T.);
#1167=EDGE_CURVE('',#1008,#1035,#218,.T.);
#1168=EDGE_CURVE('',#1036,#1035,#1272,.T.);
#1169=EDGE_CURVE('',#1036,#1003,#219,.T.);
#1170=EDGE_CURVE('',#1037,#1037,#1273,.T.);
#1171=EDGE_CURVE('',#1038,#1038,#1274,.T.);
#1172=EDGE_CURVE('',#1039,#1039,#1275,.T.);
#1173=EDGE_CURVE('',#1040,#1040,#1276,.T.);
#1174=EDGE_CURVE('',#988,#992,#220,.T.);
#1175=EDGE_CURVE('',#993,#989,#221,.T.);
#1176=EDGE_CURVE('',#971,#980,#222,.T.);
#1177=EDGE_CURVE('',#970,#981,#223,.T.);
#1178=EDGE_CURVE('',#1041,#1042,#224,.T.);
#1179=EDGE_CURVE('',#1043,#1041,#1277,.T.);
#1180=EDGE_CURVE('',#1044,#1043,#225,.T.);
#1181=EDGE_CURVE('',#1044,#1030,#1278,.T.);
#1182=EDGE_CURVE('',#1029,#1042,#1279,.T.);
#1183=EDGE_CURVE('',#1042,#1000,#226,.T.);
#1184=EDGE_CURVE('',#1001,#1041,#227,.T.);
#1185=EDGE_CURVE('',#1023,#1043,#228,.T.);
#1186=EDGE_CURVE('',#1022,#1044,#229,.T.);
#1187=EDGE_CURVE('',#1045,#1046,#230,.T.);
#1188=EDGE_CURVE('',#1045,#1034,#1280,.T.);
#1189=EDGE_CURVE('',#1033,#1047,#1281,.T.);
#1190=EDGE_CURVE('',#1048,#1047,#231,.T.);
#1191=EDGE_CURVE('',#1046,#1048,#1282,.T.);
#1192=EDGE_CURVE('',#1010,#1045,#232,.T.);
#1193=EDGE_CURVE('',#1011,#1046,#233,.T.);
#1194=EDGE_CURVE('',#1047,#1013,#234,.T.);
#1195=EDGE_CURVE('',#1012,#1048,#235,.T.);
#1196=EDGE_CURVE('',#1049,#1050,#236,.T.);
#1197=EDGE_CURVE('',#1051,#1049,#1283,.T.);
#1198=EDGE_CURVE('',#1052,#1051,#237,.T.);
#1199=EDGE_CURVE('',#1052,#1036,#1284,.T.);
#1200=EDGE_CURVE('',#1035,#1050,#1285,.T.);
#1201=EDGE_CURVE('',#1050,#1007,#238,.T.);
#1202=EDGE_CURVE('',#1006,#1049,#239,.T.);
#1203=EDGE_CURVE('',#1005,#1051,#240,.T.);
#1204=EDGE_CURVE('',#1004,#1052,#241,.T.);
#1205=EDGE_CURVE('',#1053,#1054,#242,.T.);
#1206=EDGE_CURVE('',#1053,#1032,#1286,.T.);
#1207=EDGE_CURVE('',#1031,#1055,#1287,.T.);
#1208=EDGE_CURVE('',#1056,#1055,#243,.T.);
#1209=EDGE_CURVE('',#1054,#1056,#1288,.T.);
#1210=EDGE_CURVE('',#1016,#1053,#244,.T.);
#1211=EDGE_CURVE('',#1017,#1054,#245,.T.);
#1212=EDGE_CURVE('',#1055,#1019,#246,.T.);
#1213=EDGE_CURVE('',#1018,#1056,#247,.T.);
#1214=EDGE_CURVE('',#986,#1024,#248,.T.);
#1215=EDGE_CURVE('',#1025,#987,#249,.T.);
#1216=EDGE_CURVE('',#1057,#1057,#1289,.T.);
#1217=EDGE_CURVE('',#1058,#1058,#1290,.T.);
#1218=EDGE_CURVE('',#1059,#1059,#1291,.T.);
#1219=EDGE_CURVE('',#1060,#1060,#1292,.T.);
#1220=CIRCLE('',#1294,1.65);
#1221=CIRCLE('',#1295,1.65);
#1222=CIRCLE('',#1297,1.65);
#1223=CIRCLE('',#1298,1.65);
#1224=CIRCLE('',#1300,1.65);
#1225=CIRCLE('',#1301,1.65);
#1226=CIRCLE('',#1303,1.65);
#1227=CIRCLE('',#1304,1.65);
#1228=CIRCLE('',#1306,3.1);
#1229=CIRCLE('',#1307,3.1);
#1230=CIRCLE('',#1308,3.1);
#1231=CIRCLE('',#1309,3.1);
#1232=CIRCLE('',#1311,1.65);
#1233=CIRCLE('',#1312,1.65);
#1234=CIRCLE('',#1314,1.65);
#1235=CIRCLE('',#1315,1.65);
#1236=CIRCLE('',#1319,3.1);
#1237=CIRCLE('',#1320,3.1);
#1238=CIRCLE('',#1321,5.);
#1239=CIRCLE('',#1322,5.);
#1240=CIRCLE('',#1324,1.65);
#1241=CIRCLE('',#1325,1.65);
#1242=CIRCLE('',#1326,5.);
#1243=CIRCLE('',#1327,5.);
#1244=CIRCLE('',#1329,1.65);
#1245=CIRCLE('',#1331,1.65);
#1246=CIRCLE('',#1334,1.5);
#1247=CIRCLE('',#1335,16.5);
#1248=CIRCLE('',#1336,1.5);
#1249=CIRCLE('',#1337,3.1);
#1250=CIRCLE('',#1338,1.5);
#1251=CIRCLE('',#1339,16.5);
#1252=CIRCLE('',#1340,1.5);
#1253=CIRCLE('',#1341,3.1);
#1254=CIRCLE('',#1342,1.5);
#1255=CIRCLE('',#1343,16.5);
#1256=CIRCLE('',#1344,1.5);
#1257=CIRCLE('',#1345,3.1);
#1258=CIRCLE('',#1346,1.5);
#1259=CIRCLE('',#1347,16.5);
#1260=CIRCLE('',#1348,1.5);
#1261=CIRCLE('',#1349,3.1);
#1262=CIRCLE('',#1350,5.);
#1263=CIRCLE('',#1351,5.);
#1264=CIRCLE('',#1353,1.65);
#1265=CIRCLE('',#1354,1.65);
#1266=CIRCLE('',#1355,16.5);
#1267=CIRCLE('',#1356,5.);
#1268=CIRCLE('',#1357,5.);
#1269=CIRCLE('',#1359,16.5);
#1270=CIRCLE('',#1360,16.5);
#1271=CIRCLE('',#1361,16.5);
#1272=CIRCLE('',#1362,16.5);
#1273=CIRCLE('',#1364,1.65);
#1274=CIRCLE('',#1366,1.65);
#1275=CIRCLE('',#1368,3.1);
#1276=CIRCLE('',#1371,3.1);
#1277=CIRCLE('',#1383,3.1);
#1278=CIRCLE('',#1384,1.5);
#1279=CIRCLE('',#1385,1.5);
#1280=CIRCLE('',#1390,1.5);
#1281=CIRCLE('',#1391,1.5);
#1282=CIRCLE('',#1392,3.1);
#1283=CIRCLE('',#1397,3.1);
#1284=CIRCLE('',#1398,1.5);
#1285=CIRCLE('',#1399,1.5);
#1286=CIRCLE('',#1404,1.5);
#1287=CIRCLE('',#1405,1.5);
#1288=CIRCLE('',#1406,3.1);
#1289=CIRCLE('',#1420,3.1);
#1290=CIRCLE('',#1423,3.1);
#1291=CIRCLE('',#1426,3.1);
#1292=CIRCLE('',#1429,3.1);
#1293=AXIS2_PLACEMENT_3D('',#1802,#1434,#1435);
#1294=AXIS2_PLACEMENT_3D('',#1803,#1436,#1437);
#1295=AXIS2_PLACEMENT_3D('',#1805,#1438,#1439);
#1296=AXIS2_PLACEMENT_3D('',#1807,#1440,#1441);
#1297=AXIS2_PLACEMENT_3D('',#1808,#1442,#1443);
#1298=AXIS2_PLACEMENT_3D('',#1810,#1444,#1445);
#1299=AXIS2_PLACEMENT_3D('',#1812,#1446,#1447);
#1300=AXIS2_PLACEMENT_3D('',#1813,#1448,#1449);
#1301=AXIS2_PLACEMENT_3D('',#1815,#1450,#1451);
#1302=AXIS2_PLACEMENT_3D('',#1817,#1452,#1453);
#1303=AXIS2_PLACEMENT_3D('',#1818,#1454,#1455);
#1304=AXIS2_PLACEMENT_3D('',#1820,#1456,#1457);
#1305=AXIS2_PLACEMENT_3D('',#1822,#1458,#1459);
#1306=AXIS2_PLACEMENT_3D('',#1823,#1460,#1461);
#1307=AXIS2_PLACEMENT_3D('',#1825,#1462,#1463);
#1308=AXIS2_PLACEMENT_3D('',#1827,#1464,#1465);
#1309=AXIS2_PLACEMENT_3D('',#1829,#1466,#1467);
#1310=AXIS2_PLACEMENT_3D('',#1839,#1472,#1473);
#1311=AXIS2_PLACEMENT_3D('',#1840,#1474,#1475);
#1312=AXIS2_PLACEMENT_3D('',#1842,#1476,#1477);
#1313=AXIS2_PLACEMENT_3D('',#1844,#1478,#1479);
#1314=AXIS2_PLACEMENT_3D('',#1845,#1480,#1481);
#1315=AXIS2_PLACEMENT_3D('',#1847,#1482,#1483);
#1316=AXIS2_PLACEMENT_3D('',#1849,#1484,#1485);
#1317=AXIS2_PLACEMENT_3D('',#1871,#1497,#1498);
#1318=AXIS2_PLACEMENT_3D('',#1893,#1510,#1511);
#1319=AXIS2_PLACEMENT_3D('',#1894,#1512,#1513);
#1320=AXIS2_PLACEMENT_3D('',#1896,#1514,#1515);
#1321=AXIS2_PLACEMENT_3D('',#1903,#1519,#1520);
#1322=AXIS2_PLACEMENT_3D('',#1907,#1522,#1523);
#1323=AXIS2_PLACEMENT_3D('',#1908,#1524,#1525);
#1324=AXIS2_PLACEMENT_3D('',#1909,#1526,#1527);
#1325=AXIS2_PLACEMENT_3D('',#1911,#1528,#1529);
#1326=AXIS2_PLACEMENT_3D('',#1916,#1531,#1532);
#1327=AXIS2_PLACEMENT_3D('',#1918,#1534,#1535);
#1328=AXIS2_PLACEMENT_3D('',#1919,#1536,#1537);
#1329=AXIS2_PLACEMENT_3D('',#1920,#1538,#1539);
#1330=AXIS2_PLACEMENT_3D('',#1922,#1540,#1541);
#1331=AXIS2_PLACEMENT_3D('',#1923,#1542,#1543);
#1332=AXIS2_PLACEMENT_3D('',#1925,#1544,#1545);
#1333=AXIS2_PLACEMENT_3D('',#1934,#1550,#1551);
#1334=AXIS2_PLACEMENT_3D('',#1938,#1553,#1554);
#1335=AXIS2_PLACEMENT_3D('',#1940,#1555,#1556);
#1336=AXIS2_PLACEMENT_3D('',#1942,#1557,#1558);
#1337=AXIS2_PLACEMENT_3D('',#1946,#1560,#1561);
#1338=AXIS2_PLACEMENT_3D('',#1950,#1563,#1564);
#1339=AXIS2_PLACEMENT_3D('',#1952,#1565,#1566);
#1340=AXIS2_PLACEMENT_3D('',#1954,#1567,#1568);
#1341=AXIS2_PLACEMENT_3D('',#1958,#1570,#1571);
#1342=AXIS2_PLACEMENT_3D('',#1962,#1573,#1574);
#1343=AXIS2_PLACEMENT_3D('',#1964,#1575,#1576);
#1344=AXIS2_PLACEMENT_3D('',#1966,#1577,#1578);
#1345=AXIS2_PLACEMENT_3D('',#1970,#1580,#1581);
#1346=AXIS2_PLACEMENT_3D('',#1974,#1583,#1584);
#1347=AXIS2_PLACEMENT_3D('',#1976,#1585,#1586);
#1348=AXIS2_PLACEMENT_3D('',#1978,#1587,#1588);
#1349=AXIS2_PLACEMENT_3D('',#1982,#1590,#1591);
#1350=AXIS2_PLACEMENT_3D('',#1987,#1594,#1595);
#1351=AXIS2_PLACEMENT_3D('',#1988,#1596,#1597);
#1352=AXIS2_PLACEMENT_3D('',#1990,#1599,#1600);
#1353=AXIS2_PLACEMENT_3D('',#1991,#1601,#1602);
#1354=AXIS2_PLACEMENT_3D('',#1993,#1603,#1604);
#1355=AXIS2_PLACEMENT_3D('',#1995,#1605,#1606);
#1356=AXIS2_PLACEMENT_3D('',#1997,#1607,#1608);
#1357=AXIS2_PLACEMENT_3D('',#1998,#1609,#1610);
#1358=AXIS2_PLACEMENT_3D('',#2000,#1612,#1613);
#1359=AXIS2_PLACEMENT_3D('',#2003,#1615,#1616);
#1360=AXIS2_PLACEMENT_3D('',#2008,#1619,#1620);
#1361=AXIS2_PLACEMENT_3D('',#2013,#1623,#1624);
#1362=AXIS2_PLACEMENT_3D('',#2018,#1627,#1628);
#1363=AXIS2_PLACEMENT_3D('',#2021,#1630,#1631);
#1364=AXIS2_PLACEMENT_3D('',#2022,#1632,#1633);
#1365=AXIS2_PLACEMENT_3D('',#2024,#1634,#1635);
#1366=AXIS2_PLACEMENT_3D('',#2025,#1636,#1637);
#1367=AXIS2_PLACEMENT_3D('',#2027,#1638,#1639);
#1368=AXIS2_PLACEMENT_3D('',#2028,#1640,#1641);
#1369=AXIS2_PLACEMENT_3D('',#2030,#1642,#1643);
#1370=AXIS2_PLACEMENT_3D('',#2031,#1644,#1645);
#1371=AXIS2_PLACEMENT_3D('',#2032,#1646,#1647);
#1372=AXIS2_PLACEMENT_3D('',#2034,#1648,#1649);
#1373=AXIS2_PLACEMENT_3D('',#2035,#1650,#1651);
#1374=AXIS2_PLACEMENT_3D('',#2038,#1654,#1655);
#1375=AXIS2_PLACEMENT_3D('',#2039,#1656,#1657);
#1376=AXIS2_PLACEMENT_3D('',#2040,#1658,#1659);
#1377=AXIS2_PLACEMENT_3D('',#2041,#1660,#1661);
#1378=AXIS2_PLACEMENT_3D('',#2042,#1662,#1663);
#1379=AXIS2_PLACEMENT_3D('',#2044,#1665,#1666);
#1380=AXIS2_PLACEMENT_3D('',#2045,#1667,#1668);
#1381=AXIS2_PLACEMENT_3D('',#2047,#1670,#1671);
#1382=AXIS2_PLACEMENT_3D('',#2048,#1672,#1673);
#1383=AXIS2_PLACEMENT_3D('',#2052,#1675,#1676);
#1384=AXIS2_PLACEMENT_3D('',#2056,#1678,#1679);
#1385=AXIS2_PLACEMENT_3D('',#2057,#1680,#1681);
#1386=AXIS2_PLACEMENT_3D('',#2058,#1682,#1683);
#1387=AXIS2_PLACEMENT_3D('',#2061,#1686,#1687);
#1388=AXIS2_PLACEMENT_3D('',#2063,#1689,#1690);
#1389=AXIS2_PLACEMENT_3D('',#2065,#1692,#1693);
#1390=AXIS2_PLACEMENT_3D('',#2069,#1695,#1696);
#1391=AXIS2_PLACEMENT_3D('',#2070,#1697,#1698);
#1392=AXIS2_PLACEMENT_3D('',#2074,#1700,#1701);
#1393=AXIS2_PLACEMENT_3D('',#2075,#1702,#1703);
#1394=AXIS2_PLACEMENT_3D('',#2078,#1706,#1707);
#1395=AXIS2_PLACEMENT_3D('',#2081,#1710,#1711);
#1396=AXIS2_PLACEMENT_3D('',#2082,#1712,#1713);
#1397=AXIS2_PLACEMENT_3D('',#2086,#1715,#1716);
#1398=AXIS2_PLACEMENT_3D('',#2090,#1718,#1719);
#1399=AXIS2_PLACEMENT_3D('',#2091,#1720,#1721);
#1400=AXIS2_PLACEMENT_3D('',#2092,#1722,#1723);
#1401=AXIS2_PLACEMENT_3D('',#2095,#1726,#1727);
#1402=AXIS2_PLACEMENT_3D('',#2097,#1729,#1730);
#1403=AXIS2_PLACEMENT_3D('',#2099,#1732,#1733);
#1404=AXIS2_PLACEMENT_3D('',#2103,#1735,#1736);
#1405=AXIS2_PLACEMENT_3D('',#2104,#1737,#1738);
#1406=AXIS2_PLACEMENT_3D('',#2108,#1740,#1741);
#1407=AXIS2_PLACEMENT_3D('',#2109,#1742,#1743);
#1408=AXIS2_PLACEMENT_3D('',#2112,#1746,#1747);
#1409=AXIS2_PLACEMENT_3D('',#2115,#1750,#1751);
#1410=AXIS2_PLACEMENT_3D('',#2116,#1752,#1753);
#1411=AXIS2_PLACEMENT_3D('',#2117,#1754,#1755);
#1412=AXIS2_PLACEMENT_3D('',#2118,#1756,#1757);
#1413=AXIS2_PLACEMENT_3D('',#2119,#1758,#1759);
#1414=AXIS2_PLACEMENT_3D('',#2120,#1760,#1761);
#1415=AXIS2_PLACEMENT_3D('',#2121,#1762,#1763);
#1416=AXIS2_PLACEMENT_3D('',#2122,#1764,#1765);
#1417=AXIS2_PLACEMENT_3D('',#2123,#1766,#1767);
#1418=AXIS2_PLACEMENT_3D('',#2124,#1768,#1769);
#1419=AXIS2_PLACEMENT_3D('',#2127,#1772,#1773);
#1420=AXIS2_PLACEMENT_3D('',#2128,#1774,#1775);
#1421=AXIS2_PLACEMENT_3D('',#2130,#1776,#1777);
#1422=AXIS2_PLACEMENT_3D('',#2131,#1778,#1779);
#1423=AXIS2_PLACEMENT_3D('',#2132,#1780,#1781);
#1424=AXIS2_PLACEMENT_3D('',#2134,#1782,#1783);
#1425=AXIS2_PLACEMENT_3D('',#2135,#1784,#1785);
#1426=AXIS2_PLACEMENT_3D('',#2136,#1786,#1787);
#1427=AXIS2_PLACEMENT_3D('',#2138,#1788,#1789);
#1428=AXIS2_PLACEMENT_3D('',#2139,#1790,#1791);
#1429=AXIS2_PLACEMENT_3D('',#2140,#1792,#1793);
#1430=AXIS2_PLACEMENT_3D('',#2142,#1794,#1795);
#1431=AXIS2_PLACEMENT_3D('',#2143,#1796,#1797);
#1432=AXIS2_PLACEMENT_3D('',#2144,#1798,#1799);
#1433=AXIS2_PLACEMENT_3D('',#2145,#1800,#1801);
#1434=DIRECTION('',(0.,0.,1.));
#1435=DIRECTION('',(1.,0.,0.));
#1436=DIRECTION('',(0.,-1.,0.));
#1437=DIRECTION('',(0.,0.,1.));
#1438=DIRECTION('',(0.,-1.,0.));
#1439=DIRECTION('',(0.,0.,-1.));
#1440=DIRECTION('',(0.,-1.,0.));
#1441=DIRECTION('',(0.,0.,-1.));
#1442=DIRECTION('',(0.,-1.,0.));
#1443=DIRECTION('',(0.,0.,1.));
#1444=DIRECTION('',(0.,1.,0.));
#1445=DIRECTION('',(0.,0.,-1.));
#1446=DIRECTION('',(0.,-1.,0.));
#1447=DIRECTION('',(0.,0.,-1.));
#1448=DIRECTION('',(0.,-1.,0.));
#1449=DIRECTION('',(0.,0.,0.999999999999999));
#1450=DIRECTION('',(0.,-1.,0.));
#1451=DIRECTION('',(0.,0.,-0.999999999999999));
#1452=DIRECTION('',(0.,-1.,0.));
#1453=DIRECTION('',(0.,0.,-0.999999999999999));
#1454=DIRECTION('',(0.,-1.,0.));
#1455=DIRECTION('',(0.,0.,0.999999999999999));
#1456=DIRECTION('',(0.,1.,0.));
#1457=DIRECTION('',(0.,0.,-0.999999999999999));
#1458=DIRECTION('',(0.,-1.,0.));
#1459=DIRECTION('',(0.,0.,-0.999999999999999));
#1460=DIRECTION('',(0.,-1.,0.));
#1461=DIRECTION('',(0.,0.,1.));
#1462=DIRECTION('',(0.,-1.,0.));
#1463=DIRECTION('',(0.,0.,1.));
#1464=DIRECTION('',(0.,-1.,0.));
#1465=DIRECTION('',(0.,0.,1.));
#1466=DIRECTION('',(0.,-1.,0.));
#1467=DIRECTION('',(0.,0.,0.999999999999999));
#1468=DIRECTION('',(-1.,-1.69241314729445E-16,0.));
#1469=DIRECTION('',(0.,0.,-1.));
#1470=DIRECTION('',(-1.,-1.69241314729445E-16,0.));
#1471=DIRECTION('',(0.,0.,-1.));
#1472=DIRECTION('',(0.,-1.,0.));
#1473=DIRECTION('',(0.,0.,-1.));
#1474=DIRECTION('',(0.,0.,1.));
#1475=DIRECTION('',(1.,0.,0.));
#1476=DIRECTION('',(0.,0.,-1.));
#1477=DIRECTION('',(1.,0.,0.));
#1478=DIRECTION('',(0.,0.,1.));
#1479=DIRECTION('',(1.,0.,0.));
#1480=DIRECTION('',(0.,0.,1.));
#1481=DIRECTION('',(1.,0.,0.));
#1482=DIRECTION('',(0.,0.,-1.));
#1483=DIRECTION('',(1.,0.,0.));
#1484=DIRECTION('',(0.,0.,1.));
#1485=DIRECTION('',(1.,0.,0.));
#1486=DIRECTION('',(1.69241314729445E-16,-1.,0.));
#1487=DIRECTION('',(0.,0.,-1.));
#1488=DIRECTION('',(0.,1.,0.));
#1489=DIRECTION('',(0.,0.,1.));
#1490=DIRECTION('',(-1.82602471155429E-16,1.,0.));
#1491=DIRECTION('',(0.,0.,-1.));
#1492=DIRECTION('',(0.,1.,0.));
#1493=DIRECTION('',(0.,-1.,0.));
#1494=DIRECTION('',(0.,0.,-1.));
#1495=DIRECTION('',(1.69241314729445E-16,-1.,0.));
#1496=DIRECTION('',(0.,0.,1.));
#1497=DIRECTION('',(1.,1.69241314729445E-16,0.));
#1498=DIRECTION('',(-1.70002900645727E-16,1.,0.));
#1499=DIRECTION('',(0.,-1.,0.));
#1500=DIRECTION('',(0.,0.,1.));
#1501=DIRECTION('',(-1.69241314729402E-16,1.,0.));
#1502=DIRECTION('',(0.,0.,-1.));
#1503=DIRECTION('',(-1.69241314729402E-16,1.,0.));
#1504=DIRECTION('',(0.,0.,1.));
#1505=DIRECTION('',(-1.69241314729402E-16,1.,0.));
#1506=DIRECTION('',(1.69241314729402E-16,-1.,0.));
#1507=DIRECTION('',(0.,0.,1.));
#1508=DIRECTION('',(1.82602471155429E-16,-1.,0.));
#1509=DIRECTION('',(0.,0.,-1.));
#1510=DIRECTION('',(-1.,-1.69241314729402E-16,0.));
#1511=DIRECTION('',(1.70002900645727E-16,-1.,0.));
#1512=DIRECTION('',(0.,0.,-1.));
#1513=DIRECTION('',(-1.,0.,0.));
#1514=DIRECTION('',(0.,0.,-1.));
#1515=DIRECTION('',(-0.999999999999999,0.,0.));
#1516=DIRECTION('',(0.707106781186549,0.707106781186546,0.));
#1517=DIRECTION('',(-1.,0.,0.));
#1518=DIRECTION('',(0.707106781186549,-0.707106781186546,0.));
#1519=DIRECTION('',(0.,0.,-1.));
#1520=DIRECTION('',(1.,0.,0.));
#1521=DIRECTION('',(1.,0.,0.));
#1522=DIRECTION('',(0.,0.,-1.));
#1523=DIRECTION('',(1.,0.,0.));
#1524=DIRECTION('',(0.,0.,1.));
#1525=DIRECTION('',(1.,0.,0.));
#1526=DIRECTION('',(0.,0.,-1.));
#1527=DIRECTION('',(-1.,0.,0.));
#1528=DIRECTION('',(0.,0.,-1.));
#1529=DIRECTION('',(-0.999999999999999,0.,0.));
#1530=DIRECTION('',(-1.,0.,0.));
#1531=DIRECTION('',(0.,0.,1.));
#1532=DIRECTION('',(-1.,0.,0.));
#1533=DIRECTION('',(-1.,-1.69241314729445E-16,0.));
#1534=DIRECTION('',(0.,0.,1.));
#1535=DIRECTION('',(-1.,0.,0.));
#1536=DIRECTION('',(0.,0.,-1.));
#1537=DIRECTION('',(-1.,0.,0.));
#1538=DIRECTION('',(0.,0.,1.));
#1539=DIRECTION('',(-1.,0.,0.));
#1540=DIRECTION('',(0.,0.,1.));
#1541=DIRECTION('',(1.,0.,0.));
#1542=DIRECTION('',(0.,0.,1.));
#1543=DIRECTION('',(-0.999999999999999,0.,0.));
#1544=DIRECTION('',(0.,0.,1.));
#1545=DIRECTION('',(1.,0.,0.));
#1546=DIRECTION('',(1.,-1.0154478883767E-15,0.));
#1547=DIRECTION('',(0.,0.,1.));
#1548=DIRECTION('',(1.,-1.0154478883767E-15,0.));
#1549=DIRECTION('',(0.,0.,-1.));
#1550=DIRECTION('',(1.0154478883767E-15,1.,0.));
#1551=DIRECTION('',(-1.,1.01654795692241E-15,0.));
#1552=DIRECTION('',(0.707106781186544,-0.707106781186551,0.));
#1553=DIRECTION('',(0.,0.,1.));
#1554=DIRECTION('',(1.,0.,0.));
#1555=DIRECTION('',(0.,0.,1.));
#1556=DIRECTION('',(1.,0.,0.));
#1557=DIRECTION('',(0.,0.,1.));
#1558=DIRECTION('',(1.,0.,0.));
#1559=DIRECTION('',(0.707106781186544,0.707106781186551,0.));
#1560=DIRECTION('',(0.,0.,1.));
#1561=DIRECTION('',(1.,0.,0.));
#1562=DIRECTION('',(-0.707106781186543,-0.707106781186552,0.));
#1563=DIRECTION('',(0.,0.,1.));
#1564=DIRECTION('',(1.,0.,0.));
#1565=DIRECTION('',(0.,0.,1.));
#1566=DIRECTION('',(1.,0.,0.));
#1567=DIRECTION('',(0.,0.,1.));
#1568=DIRECTION('',(1.,0.,0.));
#1569=DIRECTION('',(0.707106781186543,-0.707106781186552,0.));
#1570=DIRECTION('',(0.,0.,1.));
#1571=DIRECTION('',(1.,0.,0.));
#1572=DIRECTION('',(-0.707106781186544,0.707106781186551,0.));
#1573=DIRECTION('',(0.,0.,1.));
#1574=DIRECTION('',(1.,0.,0.));
#1575=DIRECTION('',(0.,0.,1.));
#1576=DIRECTION('',(1.,0.,0.));
#1577=DIRECTION('',(0.,0.,1.));
#1578=DIRECTION('',(1.,0.,0.));
#1579=DIRECTION('',(-0.707106781186544,-0.707106781186551,0.));
#1580=DIRECTION('',(0.,0.,1.));
#1581=DIRECTION('',(-1.,0.,0.));
#1582=DIRECTION('',(0.707106781186543,0.707106781186552,0.));
#1583=DIRECTION('',(0.,0.,1.));
#1584=DIRECTION('',(1.,0.,0.));
#1585=DIRECTION('',(0.,0.,1.));
#1586=DIRECTION('',(1.,0.,0.));
#1587=DIRECTION('',(0.,0.,1.));
#1588=DIRECTION('',(1.,0.,0.));
#1589=DIRECTION('',(-0.707106781186543,0.707106781186552,0.));
#1590=DIRECTION('',(0.,0.,1.));
#1591=DIRECTION('',(-1.,0.,0.));
#1592=DIRECTION('',(1.,0.,0.));
#1593=DIRECTION('',(-0.707106781186549,-0.707106781186546,0.));
#1594=DIRECTION('',(0.,0.,1.));
#1595=DIRECTION('',(1.,0.,0.));
#1596=DIRECTION('',(0.,0.,1.));
#1597=DIRECTION('',(1.,0.,0.));
#1598=DIRECTION('',(-0.707106781186549,0.707106781186546,0.));
#1599=DIRECTION('',(0.,0.,1.));
#1600=DIRECTION('',(1.,0.,0.));
#1601=DIRECTION('',(0.,0.,1.));
#1602=DIRECTION('',(1.,0.,0.));
#1603=DIRECTION('',(0.,0.,1.));
#1604=DIRECTION('',(1.,0.,0.));
#1605=DIRECTION('',(0.,0.,-1.));
#1606=DIRECTION('',(1.,0.,0.));
#1607=DIRECTION('',(0.,0.,-1.));
#1608=DIRECTION('',(1.,0.,0.));
#1609=DIRECTION('',(0.,0.,-1.));
#1610=DIRECTION('',(1.,0.,0.));
#1611=DIRECTION('',(-1.,-1.69241314729445E-16,0.));
#1612=DIRECTION('',(0.,0.,1.));
#1613=DIRECTION('',(1.,0.,0.));
#1614=DIRECTION('',(0.,0.,-1.));
#1615=DIRECTION('',(0.,0.,-1.));
#1616=DIRECTION('',(-1.,0.,0.));
#1617=DIRECTION('',(0.,0.,1.));
#1618=DIRECTION('',(0.,0.,-1.));
#1619=DIRECTION('',(0.,0.,-1.));
#1620=DIRECTION('',(-1.,0.,0.));
#1621=DIRECTION('',(0.,0.,1.));
#1622=DIRECTION('',(0.,0.,-1.));
#1623=DIRECTION('',(0.,0.,-1.));
#1624=DIRECTION('',(1.,1.22464679914735E-16,0.));
#1625=DIRECTION('',(0.,0.,1.));
#1626=DIRECTION('',(0.,0.,-1.));
#1627=DIRECTION('',(0.,0.,-1.));
#1628=DIRECTION('',(1.,1.22464679914735E-16,0.));
#1629=DIRECTION('',(0.,0.,1.));
#1630=DIRECTION('',(0.,0.,1.));
#1631=DIRECTION('',(1.,0.,0.));
#1632=DIRECTION('',(0.,0.,1.));
#1633=DIRECTION('',(-1.,0.,0.));
#1634=DIRECTION('',(0.,0.,1.));
#1635=DIRECTION('',(1.,0.,0.));
#1636=DIRECTION('',(0.,0.,1.));
#1637=DIRECTION('',(-0.999999999999999,0.,0.));
#1638=DIRECTION('',(0.,0.,1.));
#1639=DIRECTION('',(1.,0.,0.));
#1640=DIRECTION('',(0.,0.,1.));
#1641=DIRECTION('',(-0.999999999999999,0.,0.));
#1642=DIRECTION('',(0.,0.,-1.));
#1643=DIRECTION('',(-1.,0.,0.));
#1644=DIRECTION('',(0.,0.,-1.));
#1645=DIRECTION('',(-0.999999999999999,0.,0.));
#1646=DIRECTION('',(0.,0.,1.));
#1647=DIRECTION('',(-1.,0.,0.));
#1648=DIRECTION('',(0.,0.,-1.));
#1649=DIRECTION('',(-1.,0.,0.));
#1650=DIRECTION('',(0.,0.,-1.));
#1651=DIRECTION('',(-1.,0.,0.));
#1652=DIRECTION('',(0.,0.,1.));
#1653=DIRECTION('',(0.,0.,-1.));
#1654=DIRECTION('',(0.,1.,0.));
#1655=DIRECTION('',(0.,0.,1.));
#1656=DIRECTION('',(0.,0.,-1.));
#1657=DIRECTION('',(-1.,0.,0.));
#1658=DIRECTION('',(0.,0.,-1.));
#1659=DIRECTION('',(-1.,0.,0.));
#1660=DIRECTION('',(0.,0.,-1.));
#1661=DIRECTION('',(-1.,0.,0.));
#1662=DIRECTION('',(0.,0.,-1.));
#1663=DIRECTION('',(-1.,0.,0.));
#1664=DIRECTION('',(1.,1.69241314729445E-16,0.));
#1665=DIRECTION('',(-1.69241314729445E-16,1.,0.));
#1666=DIRECTION('',(-1.,-1.70002900645727E-16,0.));
#1667=DIRECTION('',(0.,0.,-1.));
#1668=DIRECTION('',(-1.,0.,0.));
#1669=DIRECTION('',(1.,1.69241314729445E-16,0.));
#1670=DIRECTION('',(0.,0.,1.));
#1671=DIRECTION('',(1.,0.,0.));
#1672=DIRECTION('',(-1.69241314729445E-16,1.,0.));
#1673=DIRECTION('',(-1.,-1.70002900645727E-16,0.));
#1674=DIRECTION('',(-0.707106781186544,0.707106781186551,0.));
#1675=DIRECTION('',(0.,0.,-1.));
#1676=DIRECTION('',(-1.,0.,0.));
#1677=DIRECTION('',(0.707106781186543,-0.707106781186552,0.));
#1678=DIRECTION('',(0.,0.,-1.));
#1679=DIRECTION('',(1.,0.,0.));
#1680=DIRECTION('',(0.,0.,-1.));
#1681=DIRECTION('',(1.,0.,0.));
#1682=DIRECTION('',(0.,0.,1.));
#1683=DIRECTION('',(1.,0.,0.));
#1684=DIRECTION('',(0.,0.,1.));
#1685=DIRECTION('',(0.,0.,-1.));
#1686=DIRECTION('',(-0.707106781186551,-0.707106781186544,0.));
#1687=DIRECTION('',(0.707106781186544,-0.707106781186551,0.));
#1688=DIRECTION('',(0.,0.,-1.));
#1689=DIRECTION('',(0.,0.,1.));
#1690=DIRECTION('',(1.,0.,0.));
#1691=DIRECTION('',(0.,0.,-1.));
#1692=DIRECTION('',(0.707106781186552,0.707106781186543,0.));
#1693=DIRECTION('',(-0.707106781186543,0.707106781186552,0.));
#1694=DIRECTION('',(-0.707106781186543,0.707106781186552,0.));
#1695=DIRECTION('',(0.,0.,-1.));
#1696=DIRECTION('',(-1.,0.,0.));
#1697=DIRECTION('',(0.,0.,-1.));
#1698=DIRECTION('',(-1.,0.,0.));
#1699=DIRECTION('',(0.707106781186544,-0.707106781186551,0.));
#1700=DIRECTION('',(0.,0.,-1.));
#1701=DIRECTION('',(1.,0.,0.));
#1702=DIRECTION('',(0.,0.,-1.));
#1703=DIRECTION('',(-1.,0.,0.));
#1704=DIRECTION('',(0.,0.,-1.));
#1705=DIRECTION('',(0.,0.,-1.));
#1706=DIRECTION('',(-0.707106781186552,-0.707106781186543,0.));
#1707=DIRECTION('',(0.707106781186543,-0.707106781186552,0.));
#1708=DIRECTION('',(0.,0.,1.));
#1709=DIRECTION('',(0.,0.,-1.));
#1710=DIRECTION('',(0.707106781186551,0.707106781186544,0.));
#1711=DIRECTION('',(-0.707106781186544,0.707106781186551,0.));
#1712=DIRECTION('',(0.,0.,1.));
#1713=DIRECTION('',(1.,0.,0.));
#1714=DIRECTION('',(0.707106781186543,0.707106781186552,0.));
#1715=DIRECTION('',(0.,0.,-1.));
#1716=DIRECTION('',(1.,0.,0.));
#1717=DIRECTION('',(-0.707106781186544,-0.707106781186551,0.));
#1718=DIRECTION('',(0.,0.,-1.));
#1719=DIRECTION('',(1.,0.,0.));
#1720=DIRECTION('',(0.,0.,-1.));
#1721=DIRECTION('',(1.,0.,0.));
#1722=DIRECTION('',(0.,0.,1.));
#1723=DIRECTION('',(1.,0.,0.));
#1724=DIRECTION('',(0.,0.,1.));
#1725=DIRECTION('',(0.,0.,-1.));
#1726=DIRECTION('',(-0.707106781186552,0.707106781186543,0.));
#1727=DIRECTION('',(-0.707106781186543,-0.707106781186552,0.));
#1728=DIRECTION('',(0.,0.,-1.));
#1729=DIRECTION('',(0.,0.,1.));
#1730=DIRECTION('',(1.,0.,0.));
#1731=DIRECTION('',(0.,0.,-1.));
#1732=DIRECTION('',(0.707106781186551,-0.707106781186544,0.));
#1733=DIRECTION('',(0.707106781186544,0.707106781186551,0.));
#1734=DIRECTION('',(0.707106781186544,0.707106781186551,0.));
#1735=DIRECTION('',(0.,0.,-1.));
#1736=DIRECTION('',(-1.,0.,0.));
#1737=DIRECTION('',(0.,0.,-1.));
#1738=DIRECTION('',(-1.,0.,0.));
#1739=DIRECTION('',(-0.707106781186543,-0.707106781186552,0.));
#1740=DIRECTION('',(0.,0.,-1.));
#1741=DIRECTION('',(-1.,0.,0.));
#1742=DIRECTION('',(0.,0.,-1.));
#1743=DIRECTION('',(-1.,0.,0.));
#1744=DIRECTION('',(0.,0.,-1.));
#1745=DIRECTION('',(0.,0.,-1.));
#1746=DIRECTION('',(-0.707106781186551,0.707106781186544,0.));
#1747=DIRECTION('',(-0.707106781186544,-0.707106781186551,0.));
#1748=DIRECTION('',(0.,0.,1.));
#1749=DIRECTION('',(0.,0.,-1.));
#1750=DIRECTION('',(0.707106781186552,-0.707106781186543,0.));
#1751=DIRECTION('',(0.707106781186543,0.707106781186552,0.));
#1752=DIRECTION('',(0.,0.,1.));
#1753=DIRECTION('',(1.,0.,0.));
#1754=DIRECTION('',(0.,0.,1.));
#1755=DIRECTION('',(1.,0.,0.));
#1756=DIRECTION('',(0.,0.,1.));
#1757=DIRECTION('',(1.,0.,0.));
#1758=DIRECTION('',(0.,0.,1.));
#1759=DIRECTION('',(1.,0.,0.));
#1760=DIRECTION('',(0.,0.,1.));
#1761=DIRECTION('',(1.,0.,0.));
#1762=DIRECTION('',(0.,0.,1.));
#1763=DIRECTION('',(1.,0.,0.));
#1764=DIRECTION('',(0.,0.,1.));
#1765=DIRECTION('',(1.,0.,0.));
#1766=DIRECTION('',(0.,0.,1.));
#1767=DIRECTION('',(1.,0.,0.));
#1768=DIRECTION('',(0.,0.,1.));
#1769=DIRECTION('',(1.,0.,0.));
#1770=DIRECTION('',(0.,0.,1.));
#1771=DIRECTION('',(0.,0.,-1.));
#1772=DIRECTION('',(0.,-1.,0.));
#1773=DIRECTION('',(0.,0.,-1.));
#1774=DIRECTION('',(0.,1.,0.));
#1775=DIRECTION('',(0.,0.,0.999999999999999));
#1776=DIRECTION('',(0.,-1.,0.));
#1777=DIRECTION('',(0.,0.,-1.));
#1778=DIRECTION('',(0.,-1.,0.));
#1779=DIRECTION('',(0.,0.,-0.999999999999999));
#1780=DIRECTION('',(0.,1.,0.));
#1781=DIRECTION('',(0.,0.,1.));
#1782=DIRECTION('',(0.,-1.,0.));
#1783=DIRECTION('',(0.,0.,-1.));
#1784=DIRECTION('',(0.,-1.,0.));
#1785=DIRECTION('',(0.,0.,-1.));
#1786=DIRECTION('',(0.,1.,0.));
#1787=DIRECTION('',(0.,0.,1.));
#1788=DIRECTION('',(0.,-1.,0.));
#1789=DIRECTION('',(0.,0.,-1.));
#1790=DIRECTION('',(0.,-1.,0.));
#1791=DIRECTION('',(0.,0.,-1.));
#1792=DIRECTION('',(0.,1.,0.));
#1793=DIRECTION('',(0.,0.,1.));
#1794=DIRECTION('',(0.,-1.,0.));
#1795=DIRECTION('',(0.,0.,-1.));
#1796=DIRECTION('',(0.,-1.,0.));
#1797=DIRECTION('',(0.,0.,-1.));
#1798=DIRECTION('',(0.707106781186546,-0.707106781186549,0.));
#1799=DIRECTION('',(0.,0.,1.));
#1800=DIRECTION('',(-0.707106781186546,-0.707106781186549,0.));
#1801=DIRECTION('',(0.,0.,-1.));
#1802=CARTESIAN_POINT('',(0.,0.,0.));
#1803=CARTESIAN_POINT('',(14.,28.5,-10.5));
#1804=CARTESIAN_POINT('',(14.,28.5,-8.84999999999999));
#1805=CARTESIAN_POINT('',(14.,21.5,-10.5));
#1806=CARTESIAN_POINT('',(14.,21.5,-12.15));
#1807=CARTESIAN_POINT('',(14.,76.8999999999996,-10.5));
#1808=CARTESIAN_POINT('',(-14.,28.5,-10.5));
#1809=CARTESIAN_POINT('',(-14.,28.5,-8.84999999999999));
#1810=CARTESIAN_POINT('',(-14.,21.5,-10.5));
#1811=CARTESIAN_POINT('',(-14.,21.5,-12.15));
#1812=CARTESIAN_POINT('',(-14.,76.8999999999996,-10.5));
#1813=CARTESIAN_POINT('',(-14.,28.5,-24.4999999999999));
#1814=CARTESIAN_POINT('',(-14.,28.5,-22.8499999999999));
#1815=CARTESIAN_POINT('',(-14.,21.5,-24.4999999999999));
#1816=CARTESIAN_POINT('',(-14.,21.5,-26.1499999999999));
#1817=CARTESIAN_POINT('',(-14.,76.8999999999996,-24.4999999999999));
#1818=CARTESIAN_POINT('',(14.,28.5,-24.5));
#1819=CARTESIAN_POINT('',(14.,28.5,-22.85));
#1820=CARTESIAN_POINT('',(14.,21.5,-24.5));
#1821=CARTESIAN_POINT('',(14.,21.5,-26.15));
#1822=CARTESIAN_POINT('',(14.,76.8999999999996,-24.5));
#1823=CARTESIAN_POINT('',(14.,17.5,-10.5));
#1824=CARTESIAN_POINT('',(14.,17.5,-7.39999999999999));
#1825=CARTESIAN_POINT('',(-14.,17.5,-10.5));
#1826=CARTESIAN_POINT('',(-14.,17.5,-7.39999999999999));
#1827=CARTESIAN_POINT('',(-14.0000000000001,17.5,-24.4999999999999));
#1828=CARTESIAN_POINT('',(-14.0000000000001,17.5,-21.3999999999999));
#1829=CARTESIAN_POINT('',(14.,17.5,-24.5));
#1830=CARTESIAN_POINT('',(14.,17.5,-21.4));
#1831=CARTESIAN_POINT('',(385.399999999986,17.5000000000001,-30.));
#1832=CARTESIAN_POINT('',(20.4999999999993,17.5,-30.));
#1833=CARTESIAN_POINT('',(-20.4999999999993,17.5,-30.));
#1834=CARTESIAN_POINT('',(20.4999999999993,17.5,-41.));
#1835=CARTESIAN_POINT('',(20.4999999999993,17.5,-5.));
#1836=CARTESIAN_POINT('',(385.399999999986,17.5000000000001,-5.));
#1837=CARTESIAN_POINT('',(-20.4999999999993,17.5,-5.));
#1838=CARTESIAN_POINT('',(-20.4999999999993,17.5,-41.));
#1839=CARTESIAN_POINT('',(-20.4999999999993,17.5,-41.));
#1840=CARTESIAN_POINT('',(-14.3189123190276,-14.3189123190276,0.));
#1841=CARTESIAN_POINT('',(-12.6689123190276,-14.3189123190276,0.));
#1842=CARTESIAN_POINT('',(-14.3189123190276,-14.3189123190276,3.));
#1843=CARTESIAN_POINT('',(-12.6689123190276,-14.3189123190276,3.));
#1844=CARTESIAN_POINT('',(-14.3189123190276,-14.3189123190276,-459.3));
#1845=CARTESIAN_POINT('',(14.3189123190276,-14.3189123190276,0.));
#1846=CARTESIAN_POINT('',(15.9689123190276,-14.3189123190276,0.));
#1847=CARTESIAN_POINT('',(14.3189123190276,-14.3189123190276,3.));
#1848=CARTESIAN_POINT('',(15.9689123190276,-14.3189123190276,3.));
#1849=CARTESIAN_POINT('',(14.3189123190276,-14.3189123190276,-459.3));
#1850=CARTESIAN_POINT('',(-20.4999999999993,20.4999999999949,6.));
#1851=CARTESIAN_POINT('',(-20.4999999999993,27.5,6.));
#1852=CARTESIAN_POINT('',(-20.4999999999993,-15.5000000000051,6.));
#1853=CARTESIAN_POINT('',(-20.4999999999993,27.5,6.));
#1854=CARTESIAN_POINT('',(-20.4999999999993,27.5,-41.));
#1855=CARTESIAN_POINT('',(-20.4999999999993,23.5,-41.));
#1856=CARTESIAN_POINT('',(-20.4999999999993,14.3189123190276,-41.));
#1857=CARTESIAN_POINT('',(-20.4999999999993,14.3189123190276,6.));
#1858=CARTESIAN_POINT('',(-20.4999999999993,14.3189123190276,-35.));
#1859=CARTESIAN_POINT('',(-20.4999999999993,-20.5000000000051,-35.));
#1860=CARTESIAN_POINT('',(-20.4999999999993,19.5,-35.));
#1861=CARTESIAN_POINT('',(-20.4999999999993,19.5,-30.));
#1862=CARTESIAN_POINT('',(-20.4999999999993,19.5,-30.));
#1863=CARTESIAN_POINT('',(-20.4999999999993,17.5,-30.));
#1864=CARTESIAN_POINT('',(-20.4999999999993,19.5,-5.));
#1865=CARTESIAN_POINT('',(-20.4999999999993,19.5,-5.));
#1866=CARTESIAN_POINT('',(-20.4999999999993,19.5,0.));
#1867=CARTESIAN_POINT('',(-20.4999999999993,19.5,0.));
#1868=CARTESIAN_POINT('',(-20.4999999999993,20.4999999999949,0.));
#1869=CARTESIAN_POINT('',(-20.4999999999993,-15.5000000000051,0.));
#1870=CARTESIAN_POINT('',(-20.4999999999993,-15.5000000000051,6.));
#1871=CARTESIAN_POINT('',(-20.4999999999993,20.4999999999949,6.));
#1872=CARTESIAN_POINT('',(20.4999999999993,17.5,-41.));
#1873=CARTESIAN_POINT('',(20.4999999999993,27.5,-41.));
#1874=CARTESIAN_POINT('',(20.4999999999993,14.3189123190276,-41.));
#1875=CARTESIAN_POINT('',(20.4999999999993,27.5,6.));
#1876=CARTESIAN_POINT('',(20.4999999999993,27.5,6.));
#1877=CARTESIAN_POINT('',(20.4999999999993,-20.5000000000051,6.));
#1878=CARTESIAN_POINT('',(20.4999999999993,-15.5000000000051,6.));
#1879=CARTESIAN_POINT('',(20.4999999999993,-15.5000000000051,6.));
#1880=CARTESIAN_POINT('',(20.4999999999993,-15.5000000000051,0.));
#1881=CARTESIAN_POINT('',(20.4999999999993,-20.5000000000051,0.));
#1882=CARTESIAN_POINT('',(20.4999999999993,19.5,0.));
#1883=CARTESIAN_POINT('',(20.4999999999993,19.5,0.));
#1884=CARTESIAN_POINT('',(20.4999999999993,19.5,-5.));
#1885=CARTESIAN_POINT('',(20.4999999999993,19.5,-5.));
#1886=CARTESIAN_POINT('',(20.4999999999993,17.5,-30.));
#1887=CARTESIAN_POINT('',(20.4999999999993,19.5,-30.));
#1888=CARTESIAN_POINT('',(20.4999999999993,19.5,-30.));
#1889=CARTESIAN_POINT('',(20.4999999999993,19.5,-35.));
#1890=CARTESIAN_POINT('',(20.4999999999993,17.5,-35.));
#1891=CARTESIAN_POINT('',(20.4999999999993,14.3189123190276,-35.));
#1892=CARTESIAN_POINT('',(20.4999999999993,14.3189123190276,6.));
#1893=CARTESIAN_POINT('',(20.4999999999993,-20.5000000000051,6.));
#1894=CARTESIAN_POINT('',(14.3189123190276,14.3189123190276,-41.));
#1895=CARTESIAN_POINT('',(11.2189123190276,14.3189123190276,-41.));
#1896=CARTESIAN_POINT('',(-14.3189123190276,14.3189123190276,-41.));
#1897=CARTESIAN_POINT('',(-17.4189123190276,14.3189123190276,-41.));
#1898=CARTESIAN_POINT('',(-19.4999999999993,28.5,-41.));
#1899=CARTESIAN_POINT('',(-19.4999999999993,28.5,-41.));
#1900=CARTESIAN_POINT('',(20.4999999999993,28.5,-41.));
#1901=CARTESIAN_POINT('',(19.4999999999993,28.5,-41.));
#1902=CARTESIAN_POINT('',(19.4999999999993,28.5,-41.));
#1903=CARTESIAN_POINT('',(15.4999999999993,14.3189123190276,-41.));
#1904=CARTESIAN_POINT('',(15.4999999999993,9.31891231902758,-41.));
#1905=CARTESIAN_POINT('',(-20.4999999999993,9.31891231902758,-41.));
#1906=CARTESIAN_POINT('',(-15.4999999999993,9.31891231902758,-41.));
#1907=CARTESIAN_POINT('',(-15.4999999999993,14.3189123190276,-41.));
#1908=CARTESIAN_POINT('',(0.,0.,-41.));
#1909=CARTESIAN_POINT('',(14.3189123190276,14.3189123190276,-35.));
#1910=CARTESIAN_POINT('',(12.6689123190276,14.3189123190276,-35.));
#1911=CARTESIAN_POINT('',(-14.3189123190276,14.3189123190276,-35.));
#1912=CARTESIAN_POINT('',(-15.9689123190276,14.3189123190276,-35.));
#1913=CARTESIAN_POINT('',(-20.4999999999993,9.31891231902758,-35.));
#1914=CARTESIAN_POINT('',(15.4999999999993,9.31891231902758,-35.));
#1915=CARTESIAN_POINT('',(-15.4999999999993,9.31891231902758,-35.));
#1916=CARTESIAN_POINT('',(15.4999999999993,14.3189123190276,-35.));
#1917=CARTESIAN_POINT('',(385.399999999986,19.5000000000001,-35.));
#1918=CARTESIAN_POINT('',(-15.4999999999993,14.3189123190276,-35.));
#1919=CARTESIAN_POINT('',(0.,0.,-35.));
#1920=CARTESIAN_POINT('',(14.3189123190276,14.3189123190276,-38.));
#1921=CARTESIAN_POINT('',(12.6689123190276,14.3189123190276,-38.));
#1922=CARTESIAN_POINT('',(14.3189123190276,14.3189123190276,-459.3));
#1923=CARTESIAN_POINT('',(-14.3189123190276,14.3189123190276,-38.));
#1924=CARTESIAN_POINT('',(-15.9689123190276,14.3189123190276,-38.));
#1925=CARTESIAN_POINT('',(-14.3189123190276,14.3189123190276,-459.3));
#1926=CARTESIAN_POINT('',(-20.4999999999993,-20.5000000000051,0.));
#1927=CARTESIAN_POINT('',(-15.4999999999993,-20.5000000000051,0.));
#1928=CARTESIAN_POINT('',(15.4999999999993,-20.5000000000051,0.));
#1929=CARTESIAN_POINT('',(15.4999999999993,-20.5000000000051,6.));
#1930=CARTESIAN_POINT('',(15.4999999999993,-20.5000000000051,6.));
#1931=CARTESIAN_POINT('',(-20.4999999999993,-20.5000000000051,6.));
#1932=CARTESIAN_POINT('',(-15.4999999999993,-20.5000000000051,6.));
#1933=CARTESIAN_POINT('',(-15.4999999999993,-20.5000000000051,6.));
#1934=CARTESIAN_POINT('',(-20.4999999999993,-20.5000000000051,6.));
#1935=CARTESIAN_POINT('',(9.26746285894314,-13.6515249022997,6.));
#1936=CARTESIAN_POINT('',(10.1132523964312,-14.4973144397878,6.));
#1937=CARTESIAN_POINT('',(12.1268812973493,-16.5109433407059,6.));
#1938=CARTESIAN_POINT('',(9.05259222465135,-15.5579746115676,6.));
#1939=CARTESIAN_POINT('',(8.29820953926374,-14.2614767272703,6.));
#1940=CARTESIAN_POINT('',(0.,0.,6.));
#1941=CARTESIAN_POINT('',(-8.29820953926374,-14.2614767272703,6.));
#1942=CARTESIAN_POINT('',(-9.05259222465136,-15.5579746115676,6.));
#1943=CARTESIAN_POINT('',(-10.1132523964312,-14.4973144397878,6.));
#1944=CARTESIAN_POINT('',(-12.1268812973493,-16.5109433407059,6.));
#1945=CARTESIAN_POINT('',(-12.1268812973538,-16.5109433407104,6.));
#1946=CARTESIAN_POINT('',(-14.3189123190276,-14.3189123190276,6.));
#1947=CARTESIAN_POINT('',(-16.5109433407059,-12.1268812973493,6.));
#1948=CARTESIAN_POINT('',(-13.6515249022997,-9.26746285894313,6.));
#1949=CARTESIAN_POINT('',(-14.4973144397878,-10.1132523964312,6.));
#1950=CARTESIAN_POINT('',(-15.5579746115676,-9.05259222465136,6.));
#1951=CARTESIAN_POINT('',(-14.2614767272703,-8.29820953926374,6.));
#1952=CARTESIAN_POINT('',(0.,0.,6.));
#1953=CARTESIAN_POINT('',(-14.2614767272703,8.29820953926374,6.));
#1954=CARTESIAN_POINT('',(-15.5579746115676,9.05259222465136,6.));
#1955=CARTESIAN_POINT('',(-14.4973144397878,10.1132523964312,6.));
#1956=CARTESIAN_POINT('',(-16.5109433407059,12.1268812973493,6.));
#1957=CARTESIAN_POINT('',(-16.5109433407059,12.1268812973493,6.));
#1958=CARTESIAN_POINT('',(-14.3189123190276,14.3189123190276,6.));
#1959=CARTESIAN_POINT('',(-12.1268812973493,16.5109433407059,6.));
#1960=CARTESIAN_POINT('',(-9.26746285894314,13.6515249022997,6.));
#1961=CARTESIAN_POINT('',(-10.1132523964312,14.4973144397878,6.));
#1962=CARTESIAN_POINT('',(-9.05259222465135,15.5579746115676,6.));
#1963=CARTESIAN_POINT('',(-8.29820953926374,14.2614767272703,6.));
#1964=CARTESIAN_POINT('',(0.,0.,6.));
#1965=CARTESIAN_POINT('',(8.29820953926374,14.2614767272703,6.));
#1966=CARTESIAN_POINT('',(9.05259222465136,15.5579746115676,6.));
#1967=CARTESIAN_POINT('',(10.1132523964312,14.4973144397878,6.));
#1968=CARTESIAN_POINT('',(12.1268812973493,16.5109433407059,6.));
#1969=CARTESIAN_POINT('',(12.1268812973493,16.5109433407059,6.));
#1970=CARTESIAN_POINT('',(14.3189123190276,14.3189123190276,6.));
#1971=CARTESIAN_POINT('',(16.5109433407059,12.1268812973493,6.));
#1972=CARTESIAN_POINT('',(13.6515249022997,9.26746285894313,6.));
#1973=CARTESIAN_POINT('',(14.4973144397878,10.1132523964312,6.));
#1974=CARTESIAN_POINT('',(15.5579746115676,9.05259222465136,6.));
#1975=CARTESIAN_POINT('',(14.2614767272703,8.29820953926374,6.));
#1976=CARTESIAN_POINT('',(0.,0.,6.));
#1977=CARTESIAN_POINT('',(14.2614767272703,-8.29820953926374,6.));
#1978=CARTESIAN_POINT('',(15.5579746115676,-9.05259222465136,6.));
#1979=CARTESIAN_POINT('',(14.4973144397878,-10.1132523964312,6.));
#1980=CARTESIAN_POINT('',(16.5109433407059,-12.1268812973493,6.));
#1981=CARTESIAN_POINT('',(16.5109433407059,-12.1268812973493,6.));
#1982=CARTESIAN_POINT('',(14.3189123190276,-14.3189123190276,6.));
#1983=CARTESIAN_POINT('',(-20.4999999999993,28.5,6.));
#1984=CARTESIAN_POINT('',(-19.4999999999993,28.5,6.));
#1985=CARTESIAN_POINT('',(19.4999999999993,28.5,6.));
#1986=CARTESIAN_POINT('',(-23.9999999999996,23.9999999999997,6.));
#1987=CARTESIAN_POINT('',(-15.4999999999993,-15.5000000000051,6.));
#1988=CARTESIAN_POINT('',(15.4999999999993,-15.5000000000051,6.));
#1989=CARTESIAN_POINT('',(23.9999999999996,23.9999999999997,6.));
#1990=CARTESIAN_POINT('',(0.,0.,6.));
#1991=CARTESIAN_POINT('',(-14.3189123190276,14.3189123190276,0.));
#1992=CARTESIAN_POINT('',(-12.6689123190276,14.3189123190276,0.));
#1993=CARTESIAN_POINT('',(14.3189123190276,14.3189123190276,0.));
#1994=CARTESIAN_POINT('',(15.9689123190276,14.3189123190276,0.));
#1995=CARTESIAN_POINT('',(0.,0.,0.));
#1996=CARTESIAN_POINT('',(16.5,0.,0.));
#1997=CARTESIAN_POINT('',(15.4999999999993,-15.5000000000051,0.));
#1998=CARTESIAN_POINT('',(-15.4999999999993,-15.5000000000051,0.));
#1999=CARTESIAN_POINT('',(385.399999999986,19.5000000000001,0.));
#2000=CARTESIAN_POINT('',(0.,0.,0.));
#2001=CARTESIAN_POINT('',(8.29820953926374,-14.2614767272703,-53.4));
#2002=CARTESIAN_POINT('',(8.29820953926374,-14.2614767272703,3.));
#2003=CARTESIAN_POINT('',(0.,0.,3.));
#2004=CARTESIAN_POINT('',(14.2614767272703,-8.29820953926374,3.));
#2005=CARTESIAN_POINT('',(14.2614767272703,-8.29820953926375,-53.4));
#2006=CARTESIAN_POINT('',(14.2614767272703,8.29820953926375,-53.4));
#2007=CARTESIAN_POINT('',(14.2614767272703,8.29820953926374,3.));
#2008=CARTESIAN_POINT('',(0.,0.,3.));
#2009=CARTESIAN_POINT('',(8.29820953926374,14.2614767272703,3.));
#2010=CARTESIAN_POINT('',(8.29820953926374,14.2614767272703,-53.4));
#2011=CARTESIAN_POINT('',(-8.29820953926374,14.2614767272703,-53.4));
#2012=CARTESIAN_POINT('',(-8.29820953926374,14.2614767272703,3.));
#2013=CARTESIAN_POINT('',(0.,0.,3.));
#2014=CARTESIAN_POINT('',(-14.2614767272703,8.29820953926374,3.));
#2015=CARTESIAN_POINT('',(-14.2614767272703,8.29820953926375,-53.4));
#2016=CARTESIAN_POINT('',(-14.2614767272703,-8.29820953926375,-53.4));
#2017=CARTESIAN_POINT('',(-14.2614767272703,-8.29820953926374,3.));
#2018=CARTESIAN_POINT('',(0.,0.,3.));
#2019=CARTESIAN_POINT('',(-8.29820953926374,-14.2614767272703,3.));
#2020=CARTESIAN_POINT('',(-8.29820953926374,-14.2614767272703,-53.4));
#2021=CARTESIAN_POINT('',(0.,0.,-53.4));
#2022=CARTESIAN_POINT('',(14.3189123190276,14.3189123190276,3.));
#2023=CARTESIAN_POINT('',(12.6689123190276,14.3189123190276,3.));
#2024=CARTESIAN_POINT('',(14.3189123190276,14.3189123190276,-459.3));
#2025=CARTESIAN_POINT('',(-14.3189123190276,14.3189123190276,3.));
#2026=CARTESIAN_POINT('',(-15.9689123190276,14.3189123190276,3.));
#2027=CARTESIAN_POINT('',(-14.3189123190276,14.3189123190276,-459.3));
#2028=CARTESIAN_POINT('',(-14.3189123190276,14.3189123190276,-38.));
#2029=CARTESIAN_POINT('',(-17.4189123190276,14.3189123190276,-38.));
#2030=CARTESIAN_POINT('',(-14.3189123190276,14.3189123190276,-38.));
#2031=CARTESIAN_POINT('',(-14.3189123190276,14.3189123190276,-38.));
#2032=CARTESIAN_POINT('',(14.3189123190276,14.3189123190276,-38.));
#2033=CARTESIAN_POINT('',(11.2189123190276,14.3189123190276,-38.));
#2034=CARTESIAN_POINT('',(14.3189123190276,14.3189123190276,-38.));
#2035=CARTESIAN_POINT('',(14.3189123190276,14.3189123190276,-38.));
#2036=CARTESIAN_POINT('',(15.4999999999993,9.31891231902758,18.3999999999998));
#2037=CARTESIAN_POINT('',(-15.4999999999993,9.31891231902758,18.3999999999998));
#2038=CARTESIAN_POINT('',(-20.4999999999993,9.31891231902758,18.3999999999998));
#2039=CARTESIAN_POINT('',(15.4999999999993,-15.5000000000051,6.));
#2040=CARTESIAN_POINT('',(-15.4999999999993,-15.5000000000051,6.));
#2041=CARTESIAN_POINT('',(15.4999999999993,14.3189123190276,6.));
#2042=CARTESIAN_POINT('',(-15.4999999999993,14.3189123190276,18.3999999999998));
#2043=CARTESIAN_POINT('',(385.399999999986,19.5000000000001,-5.));
#2044=CARTESIAN_POINT('',(385.399999999986,19.5000000000001,0.));
#2045=CARTESIAN_POINT('',(385.399999999986,19.5000000000001,-5.));
#2046=CARTESIAN_POINT('',(385.399999999986,19.5000000000001,-30.));
#2047=CARTESIAN_POINT('',(385.399999999986,17.5000000000001,-30.));
#2048=CARTESIAN_POINT('',(385.399999999986,19.5000000000001,-30.));
#2049=CARTESIAN_POINT('',(9.26746285894314,-13.6515249022997,3.));
#2050=CARTESIAN_POINT('',(12.1268812973493,-16.5109433407059,3.));
#2051=CARTESIAN_POINT('',(10.1132523964312,-14.4973144397878,3.));
#2052=CARTESIAN_POINT('',(14.3189123190276,-14.3189123190276,3.));
#2053=CARTESIAN_POINT('',(16.5109433407059,-12.1268812973493,3.));
#2054=CARTESIAN_POINT('',(16.5109433407059,-12.1268812973493,3.));
#2055=CARTESIAN_POINT('',(14.4973144397878,-10.1132523964312,3.));
#2056=CARTESIAN_POINT('',(15.5579746115676,-9.05259222465136,3.));
#2057=CARTESIAN_POINT('',(9.05259222465135,-15.5579746115676,3.));
#2058=CARTESIAN_POINT('',(14.3189123190276,-14.3189123190276,3.));
#2059=CARTESIAN_POINT('',(10.1132523964312,-14.4973144397878,3.));
#2060=CARTESIAN_POINT('',(12.1268812973493,-16.5109433407059,3.));
#2061=CARTESIAN_POINT('',(9.26746285894314,-13.6515249022997,3.));
#2062=CARTESIAN_POINT('',(16.5109433407059,-12.1268812973493,3.));
#2063=CARTESIAN_POINT('',(14.3189123190276,-14.3189123190276,3.));
#2064=CARTESIAN_POINT('',(14.4973144397878,-10.1132523964312,3.));
#2065=CARTESIAN_POINT('',(16.5109433407059,-12.1268812973493,3.));
#2066=CARTESIAN_POINT('',(-16.5109433407059,12.1268812973493,3.));
#2067=CARTESIAN_POINT('',(-14.4973144397878,10.1132523964312,3.));
#2068=CARTESIAN_POINT('',(-16.5109433407059,12.1268812973493,3.));
#2069=CARTESIAN_POINT('',(-15.5579746115676,9.05259222465136,3.));
#2070=CARTESIAN_POINT('',(-9.05259222465135,15.5579746115676,3.));
#2071=CARTESIAN_POINT('',(-10.1132523964312,14.4973144397878,3.));
#2072=CARTESIAN_POINT('',(-9.26746285894314,13.6515249022997,3.));
#2073=CARTESIAN_POINT('',(-12.1268812973493,16.5109433407059,3.));
#2074=CARTESIAN_POINT('',(-14.3189123190276,14.3189123190276,3.));
#2075=CARTESIAN_POINT('',(0.,0.,3.));
#2076=CARTESIAN_POINT('',(-14.4973144397878,10.1132523964312,3.));
#2077=CARTESIAN_POINT('',(-16.5109433407059,12.1268812973493,3.));
#2078=CARTESIAN_POINT('',(-16.5109433407059,12.1268812973493,3.));
#2079=CARTESIAN_POINT('',(-10.1132523964312,14.4973144397878,3.));
#2080=CARTESIAN_POINT('',(-12.1268812973493,16.5109433407059,3.));
#2081=CARTESIAN_POINT('',(-9.26746285894314,13.6515249022997,3.));
#2082=CARTESIAN_POINT('',(-14.3189123190276,14.3189123190276,3.));
#2083=CARTESIAN_POINT('',(-13.6515249022997,-9.26746285894313,3.));
#2084=CARTESIAN_POINT('',(-16.5109433407059,-12.1268812973493,3.));
#2085=CARTESIAN_POINT('',(-14.4973144397878,-10.1132523964312,3.));
#2086=CARTESIAN_POINT('',(-14.3189123190276,-14.3189123190276,3.));
#2087=CARTESIAN_POINT('',(-12.1268812973538,-16.5109433407104,3.));
#2088=CARTESIAN_POINT('',(-12.1268812973493,-16.5109433407059,3.));
#2089=CARTESIAN_POINT('',(-10.1132523964312,-14.4973144397878,3.));
#2090=CARTESIAN_POINT('',(-9.05259222465136,-15.5579746115676,3.));
#2091=CARTESIAN_POINT('',(-15.5579746115676,-9.05259222465136,3.));
#2092=CARTESIAN_POINT('',(-14.3189123190276,-14.3189123190276,3.));
#2093=CARTESIAN_POINT('',(-14.4973144397878,-10.1132523964312,3.));
#2094=CARTESIAN_POINT('',(-16.5109433407059,-12.1268812973493,3.));
#2095=CARTESIAN_POINT('',(-13.6515249022997,-9.26746285894313,3.));
#2096=CARTESIAN_POINT('',(-12.1268812973538,-16.5109433407104,3.));
#2097=CARTESIAN_POINT('',(-14.3189123190276,-14.3189123190276,3.));
#2098=CARTESIAN_POINT('',(-10.1132523964312,-14.4973144397878,3.));
#2099=CARTESIAN_POINT('',(-12.1268812973493,-16.5109433407059,3.));
#2100=CARTESIAN_POINT('',(12.1268812973493,16.5109433407059,3.));
#2101=CARTESIAN_POINT('',(10.1132523964312,14.4973144397878,3.));
#2102=CARTESIAN_POINT('',(12.1268812973493,16.5109433407059,3.));
#2103=CARTESIAN_POINT('',(9.05259222465136,15.5579746115676,3.));
#2104=CARTESIAN_POINT('',(15.5579746115676,9.05259222465136,3.));
#2105=CARTESIAN_POINT('',(14.4973144397878,10.1132523964312,3.));
#2106=CARTESIAN_POINT('',(13.6515249022997,9.26746285894313,3.));
#2107=CARTESIAN_POINT('',(16.5109433407059,12.1268812973493,3.));
#2108=CARTESIAN_POINT('',(14.3189123190276,14.3189123190276,3.));
#2109=CARTESIAN_POINT('',(0.,0.,3.));
#2110=CARTESIAN_POINT('',(10.1132523964312,14.4973144397878,3.));
#2111=CARTESIAN_POINT('',(12.1268812973493,16.5109433407059,3.));
#2112=CARTESIAN_POINT('',(12.1268812973493,16.5109433407059,3.));
#2113=CARTESIAN_POINT('',(14.4973144397878,10.1132523964312,3.));
#2114=CARTESIAN_POINT('',(16.5109433407059,12.1268812973493,3.));
#2115=CARTESIAN_POINT('',(13.6515249022997,9.26746285894313,3.));
#2116=CARTESIAN_POINT('',(14.3189123190276,14.3189123190276,3.));
#2117=CARTESIAN_POINT('',(9.05259222465135,-15.5579746115676,-53.4));
#2118=CARTESIAN_POINT('',(9.05259222465136,15.5579746115676,-53.4));
#2119=CARTESIAN_POINT('',(15.5579746115676,9.05259222465136,-53.4));
#2120=CARTESIAN_POINT('',(15.5579746115676,-9.05259222465136,-53.4));
#2121=CARTESIAN_POINT('',(-9.05259222465136,-15.5579746115676,-53.4));
#2122=CARTESIAN_POINT('',(-15.5579746115676,-9.05259222465136,-53.4));
#2123=CARTESIAN_POINT('',(-15.5579746115676,9.05259222465136,-53.4));
#2124=CARTESIAN_POINT('',(-9.05259222465135,15.5579746115676,-53.4));
#2125=CARTESIAN_POINT('',(-19.4999999999993,28.5,-10.5));
#2126=CARTESIAN_POINT('',(19.4999999999993,28.5,-10.5));
#2127=CARTESIAN_POINT('',(14.,28.5,-10.5));
#2128=CARTESIAN_POINT('',(14.,21.5,-24.5));
#2129=CARTESIAN_POINT('',(14.,21.5,-21.4));
#2130=CARTESIAN_POINT('',(14.,21.5,-24.5));
#2131=CARTESIAN_POINT('',(14.,21.5,-24.5));
#2132=CARTESIAN_POINT('',(-14.0000000000001,21.5,-24.4999999999999));
#2133=CARTESIAN_POINT('',(-14.0000000000001,21.5,-21.3999999999999));
#2134=CARTESIAN_POINT('',(-14.0000000000001,21.5,-24.4999999999999));
#2135=CARTESIAN_POINT('',(-14.0000000000001,21.5,-24.4999999999999));
#2136=CARTESIAN_POINT('',(-14.,21.5,-10.5));
#2137=CARTESIAN_POINT('',(-14.,21.5,-7.39999999999999));
#2138=CARTESIAN_POINT('',(-14.,21.5,-10.5));
#2139=CARTESIAN_POINT('',(-14.,21.5,-10.5));
#2140=CARTESIAN_POINT('',(14.,21.5,-10.5));
#2141=CARTESIAN_POINT('',(14.,21.5,-7.39999999999999));
#2142=CARTESIAN_POINT('',(14.,21.5,-10.5));
#2143=CARTESIAN_POINT('',(14.,21.5,-10.5));
#2144=CARTESIAN_POINT('',(-19.4999999999993,28.5,-10.5));
#2145=CARTESIAN_POINT('',(19.4999999999993,28.5,-10.5));
#2146=MECHANICAL_DESIGN_GEOMETRIC_PRESENTATION_REPRESENTATION('',(#86),
#2147);
#2147=(
GEOMETRIC_REPRESENTATION_CONTEXT(3)
GLOBAL_UNCERTAINTY_ASSIGNED_CONTEXT((#2148))
GLOBAL_UNIT_ASSIGNED_CONTEXT((#2154,#2150,#2149))
REPRESENTATION_CONTEXT('WMD1018','TOP_LEVEL_ASSEMBLY_PART')
);
#2148=UNCERTAINTY_MEASURE_WITH_UNIT(LENGTH_MEASURE(2.E-5),#2154,
'DISTANCE_ACCURACY_VALUE','Maximum Tolerance applied to model');
#2149=(
NAMED_UNIT(*)
SI_UNIT($,.STERADIAN.)
SOLID_ANGLE_UNIT()
);
#2150=(
CONVERSION_BASED_UNIT('DEGREE',#2152)
NAMED_UNIT(#2151)
PLANE_ANGLE_UNIT()
);
#2151=DIMENSIONAL_EXPONENTS(0.,0.,0.,0.,0.,0.,0.);
#2152=PLANE_ANGLE_MEASURE_WITH_UNIT(PLANE_ANGLE_MEASURE(0.0174532925),#2153);
#2153=(
NAMED_UNIT(*)
PLANE_ANGLE_UNIT()
SI_UNIT($,.RADIAN.)
);
#2154=(
LENGTH_UNIT()
NAMED_UNIT(*)
SI_UNIT(.MILLI.,.METRE.)
);
ENDSEC;
END-ISO-10303-21;
