ISO-10303-21;
HEADER;
/* Generated by software containing ST-Developer
 * from STEP Tools, Inc. (www.steptools.com) 
 */
/* OPTION: using custom schema-name function */

FILE_DESCRIPTION(
/* description */ (''),
/* implementation_level */ '2;1');

FILE_NAME(
/* name */ 'WMD1008.stp',
/* time_stamp */ '2026-09-10T10:28:46+08:00',
/* author */ (''),
/* organization */ (''),
/* preprocessor_version */ 'ST-DEVELOPER v20',
/* originating_system */ 'SIEMENS PLM Software NX2406.1700',
/* authorisation */ '');

FILE_SCHEMA (('AP203_CONFIGURATION_CONTROLLED_3D_DESIGN_OF_MECHANICAL_PARTS_AND_ASSEMBLIES_MIM_LF { 1 0 10303 403 2 1 2}'));
ENDSEC;

DATA;
#10=PROPERTY_DEFINITION_REPRESENTATION(#14,#12);
#11=PROPERTY_DEFINITION_REPRESENTATION(#15,#13);
#12=REPRESENTATION('',(#16),#1983);
#13=REPRESENTATION('',(#17),#1983);
#14=PROPERTY_DEFINITION('pmi validation property','',#73);
#15=PROPERTY_DEFINITION('pmi validation property','',#73);
#16=VALUE_REPRESENTATION_ITEM('number of annotations',COUNT_MEASURE(0.));
#17=VALUE_REPRESENTATION_ITEM('number of views',COUNT_MEASURE(0.));
#18=SHAPE_REPRESENTATION_RELATIONSHIP('None',
'relationship between WMD1008_objects-None and WMD1008_objects-None',#84,
#19);
#19=ADVANCED_BREP_SHAPE_REPRESENTATION('WMD1008_objects-None',(#94),#1983);
#20=APPLIED_APPROVAL_ASSIGNMENT(#32,(#74));
#21=APPLIED_APPROVAL_ASSIGNMENT(#33,(#76));
#22=APPLIED_APPROVAL_ASSIGNMENT(#34,(#46));
#23=APPROVAL_PERSON_ORGANIZATION(#38,#32,#26);
#24=APPROVAL_PERSON_ORGANIZATION(#39,#33,#27);
#25=APPROVAL_PERSON_ORGANIZATION(#40,#34,#28);
#26=APPROVAL_ROLE('approver');
#27=APPROVAL_ROLE('approver');
#28=APPROVAL_ROLE('approver');
#29=APPROVAL_DATE_TIME(#54,#32);
#30=APPROVAL_DATE_TIME(#55,#33);
#31=APPROVAL_DATE_TIME(#56,#34);
#32=APPROVAL(#35,' ');
#33=APPROVAL(#36,' ');
#34=APPROVAL(#37,' ');
#35=APPROVAL_STATUS('not_yet_approved');
#36=APPROVAL_STATUS('not_yet_approved');
#37=APPROVAL_STATUS('not_yet_approved');
#38=PERSON_AND_ORGANIZATION(#44,#41);
#39=PERSON_AND_ORGANIZATION(#44,#42);
#40=PERSON_AND_ORGANIZATION(#44,#43);
#41=ORGANIZATION(' ',' ',' ');
#42=ORGANIZATION(' ',' ',' ');
#43=ORGANIZATION(' ',' ',' ');
#44=PERSON(' ',' ',' ',(' '),$,$);
#45=APPLIED_SECURITY_CLASSIFICATION_ASSIGNMENT(#46,(#76));
#46=SECURITY_CLASSIFICATION(' ',' ',#47);
#47=SECURITY_CLASSIFICATION_LEVEL('confidential');
#48=APPLIED_DATE_AND_TIME_ASSIGNMENT(#52,#50,(#74));
#49=APPLIED_DATE_AND_TIME_ASSIGNMENT(#53,#51,(#46));
#50=DATE_TIME_ROLE('creation_date');
#51=DATE_TIME_ROLE('classification_date');
#52=DATE_AND_TIME(#67,#57);
#53=DATE_AND_TIME(#68,#58);
#54=DATE_AND_TIME(#69,#59);
#55=DATE_AND_TIME(#70,#60);
#56=DATE_AND_TIME(#71,#61);
#57=LOCAL_TIME(0,0,0.,#62);
#58=LOCAL_TIME(0,0,0.,#63);
#59=LOCAL_TIME(0,0,0.,#64);
#60=LOCAL_TIME(0,0,0.,#65);
#61=LOCAL_TIME(0,0,0.,#66);
#62=COORDINATED_UNIVERSAL_TIME_OFFSET(0,0,.BEHIND.);
#63=COORDINATED_UNIVERSAL_TIME_OFFSET(0,0,.BEHIND.);
#64=COORDINATED_UNIVERSAL_TIME_OFFSET(0,0,.BEHIND.);
#65=COORDINATED_UNIVERSAL_TIME_OFFSET(0,0,.BEHIND.);
#66=COORDINATED_UNIVERSAL_TIME_OFFSET(0,0,.BEHIND.);
#67=CALENDAR_DATE(0,1,1);
#68=CALENDAR_DATE(0,1,1);
#69=CALENDAR_DATE(0,1,1);
#70=CALENDAR_DATE(0,1,1);
#71=CALENDAR_DATE(0,1,1);
#72=SHAPE_DEFINITION_REPRESENTATION(#73,#84);
#73=PRODUCT_DEFINITION_SHAPE('','',#74);
#74=PRODUCT_DEFINITION(' ','',#76,#75);
#75=PRODUCT_DEFINITION_CONTEXT('part definition',#83,'design');
#76=PRODUCT_DEFINITION_FORMATION_WITH_SPECIFIED_SOURCE(' ',' ',#78,
 .NOT_KNOWN.);
#77=PRODUCT_RELATED_PRODUCT_CATEGORY('detail','',(#78));
#78=PRODUCT('WMD1008_objects','WMD1008_objects',' ',(#81));
#79=PRODUCT_CATEGORY('part',' ');
#80=PRODUCT_CATEGORY(' ','');
#81=PRODUCT_CONTEXT(' ',#83,'mechanical');
#82=APPLICATION_PROTOCOL_DEFINITION('international standard',
'config_control_design',2010,#83);
#83=APPLICATION_CONTEXT(
'configuration controlled 3D designs of mechanical parts and assemblie
s');
#84=SHAPE_REPRESENTATION('WMD1008_objects-None',(#1132),#1983);
#85=PRESENTATION_LAYER_ASSIGNMENT('1','Layer 1',(#94));
#86=STYLED_ITEM('',(#87),#94);
#87=PRESENTATION_STYLE_ASSIGNMENT((#88));
#88=SURFACE_STYLE_USAGE(.BOTH.,#89);
#89=SURFACE_SIDE_STYLE('',(#90));
#90=SURFACE_STYLE_FILL_AREA(#91);
#91=FILL_AREA_STYLE('',(#92));
#92=FILL_AREA_STYLE_COLOUR('',#93);
#93=COLOUR_RGB('silver gray',0.6,0.6,0.6);
#94=MANIFOLD_SOLID_BREP('',#95);
#95=CLOSED_SHELL('',(#190,#191,#192,#193,#194,#195,#196,#197,#198,#199,
#200,#201,#202,#203,#204,#205,#206,#207,#208,#209,#210,#211,#212,#213,#214,
#215,#216,#217,#218,#219,#220,#221,#222,#223,#224,#225,#226,#227,#228,#229,
#230,#231,#232,#233,#234,#235,#236,#237,#238,#239,#240,#241,#242,#243,#244,
#245,#246,#247,#248,#249,#250,#251));
#96=TOROIDAL_SURFACE('',#1247,23.5,2.);
#97=TOROIDAL_SURFACE('',#1249,23.5,2.);
#98=TOROIDAL_SURFACE('',#1251,20.6715728752538,2.);
#99=TOROIDAL_SURFACE('',#1253,20.6715728752538,2.);
#100=TOROIDAL_SURFACE('',#1256,20.6715728752538,2.);
#101=TOROIDAL_SURFACE('',#1258,20.6715728752538,2.);
#102=TOROIDAL_SURFACE('',#1261,20.6715728752538,2.);
#103=TOROIDAL_SURFACE('',#1262,20.6715728752538,2.);
#104=CONICAL_SURFACE('',#1197,25.5,45.);
#105=CONICAL_SURFACE('',#1206,25.5,45.);
#106=CONICAL_SURFACE('',#1241,15.,45.);
#107=CONICAL_SURFACE('',#1242,15.,45.);
#108=B_SPLINE_CURVE_WITH_KNOTS('',3,(#1731,#1732,#1733,#1734),
 .UNSPECIFIED.,.F.,.F.,(4,4),(0.,1.),.UNSPECIFIED.);
#109=B_SPLINE_CURVE_WITH_KNOTS('',3,(#1738,#1739,#1740,#1741),
 .UNSPECIFIED.,.F.,.F.,(4,4),(0.,1.),.UNSPECIFIED.);
#110=B_SPLINE_CURVE_WITH_KNOTS('',3,(#1745,#1746,#1747,#1748),
 .UNSPECIFIED.,.F.,.F.,(4,4),(0.,1.),.UNSPECIFIED.);
#111=B_SPLINE_CURVE_WITH_KNOTS('',3,(#1752,#1753,#1754,#1755),
 .UNSPECIFIED.,.F.,.F.,(4,4),(0.,1.),.UNSPECIFIED.);
#112=B_SPLINE_CURVE_WITH_KNOTS('',3,(#1774,#1775,#1776,#1777),
 .UNSPECIFIED.,.F.,.F.,(4,4),(0.,1.),.UNSPECIFIED.);
#113=B_SPLINE_CURVE_WITH_KNOTS('',3,(#1781,#1782,#1783,#1784),
 .UNSPECIFIED.,.F.,.F.,(4,4),(0.,1.),.UNSPECIFIED.);
#114=B_SPLINE_CURVE_WITH_KNOTS('',3,(#1788,#1789,#1790,#1791),
 .UNSPECIFIED.,.F.,.F.,(4,4),(0.,1.),.UNSPECIFIED.);
#115=B_SPLINE_CURVE_WITH_KNOTS('',3,(#1795,#1796,#1797,#1798),
 .UNSPECIFIED.,.F.,.F.,(4,4),(0.,1.),.UNSPECIFIED.);
#116=B_SPLINE_CURVE_WITH_KNOTS('',3,(#1811,#1812,#1813,#1814,#1815,#1816,
#1817,#1818,#1819,#1820),.UNSPECIFIED.,.F.,.F.,(4,3,3,4),(0.,0.434280367669155,
0.868725874364959,1.),.UNSPECIFIED.);
#117=B_SPLINE_CURVE_WITH_KNOTS('',3,(#1822,#1823,#1824,#1825,#1826,#1827,
#1828,#1829,#1830,#1831),.UNSPECIFIED.,.F.,.F.,(4,3,3,4),(0.,0.43146777730108,
0.862734918695168,1.),.UNSPECIFIED.);
#118=B_SPLINE_CURVE_WITH_KNOTS('',3,(#1839,#1840,#1841,#1842,#1843,#1844,
#1845,#1846,#1847,#1848),.UNSPECIFIED.,.F.,.F.,(4,3,3,4),(0.,0.434280367669576,
0.868725874365819,1.),.UNSPECIFIED.);
#119=B_SPLINE_CURVE_WITH_KNOTS('',3,(#1851,#1852,#1853,#1854,#1855,#1856,
#1857,#1858,#1859,#1860),.UNSPECIFIED.,.F.,.F.,(4,3,3,4),(0.,0.431467777300945,
0.862734918694921,1.),.UNSPECIFIED.);
#120=B_SPLINE_CURVE_WITH_KNOTS('',3,(#1864,#1865,#1866,#1867,#1868,#1869,
#1870,#1871,#1872,#1873),.UNSPECIFIED.,.F.,.F.,(4,3,3,4),(0.,0.434280367669363,
0.868725874365385,1.),.UNSPECIFIED.);
#121=B_SPLINE_CURVE_WITH_KNOTS('',3,(#1878,#1879,#1880,#1881,#1882,#1883,
#1884,#1885,#1886,#1887),.UNSPECIFIED.,.F.,.F.,(4,3,3,4),(0.,0.431467777301011,
0.862734918695047,1.),.UNSPECIFIED.);
#122=B_SPLINE_CURVE_WITH_KNOTS('',3,(#1895,#1896,#1897,#1898,#1899,#1900,
#1901,#1902,#1903,#1904),.UNSPECIFIED.,.F.,.F.,(4,3,3,4),(0.,0.431467777301014,
0.862734918695051,1.),.UNSPECIFIED.);
#123=B_SPLINE_CURVE_WITH_KNOTS('',3,(#1913,#1914,#1915,#1916,#1917,#1918,
#1919,#1920,#1921,#1922),.UNSPECIFIED.,.F.,.F.,(4,3,3,4),(0.,0.434280367669367,
0.86872587436539,1.),.UNSPECIFIED.);
#124=FACE_OUTER_BOUND('',#364,.T.);
#125=FACE_OUTER_BOUND('',#365,.T.);
#126=FACE_OUTER_BOUND('',#366,.T.);
#127=FACE_OUTER_BOUND('',#367,.T.);
#128=FACE_OUTER_BOUND('',#368,.T.);
#129=FACE_OUTER_BOUND('',#369,.T.);
#130=FACE_OUTER_BOUND('',#370,.T.);
#131=FACE_OUTER_BOUND('',#371,.T.);
#132=FACE_OUTER_BOUND('',#372,.T.);
#133=FACE_OUTER_BOUND('',#373,.T.);
#134=FACE_OUTER_BOUND('',#376,.T.);
#135=FACE_OUTER_BOUND('',#377,.T.);
#136=FACE_OUTER_BOUND('',#378,.T.);
#137=FACE_OUTER_BOUND('',#381,.T.);
#138=FACE_OUTER_BOUND('',#382,.T.);
#139=FACE_OUTER_BOUND('',#383,.T.);
#140=FACE_OUTER_BOUND('',#384,.T.);
#141=FACE_OUTER_BOUND('',#385,.T.);
#142=FACE_OUTER_BOUND('',#386,.T.);
#143=FACE_OUTER_BOUND('',#389,.T.);
#144=FACE_OUTER_BOUND('',#390,.T.);
#145=FACE_OUTER_BOUND('',#391,.T.);
#146=FACE_OUTER_BOUND('',#397,.T.);
#147=FACE_OUTER_BOUND('',#398,.T.);
#148=FACE_OUTER_BOUND('',#399,.T.);
#149=FACE_OUTER_BOUND('',#400,.T.);
#150=FACE_OUTER_BOUND('',#404,.T.);
#151=FACE_OUTER_BOUND('',#405,.T.);
#152=FACE_OUTER_BOUND('',#406,.T.);
#153=FACE_OUTER_BOUND('',#407,.T.);
#154=FACE_OUTER_BOUND('',#412,.T.);
#155=FACE_OUTER_BOUND('',#413,.T.);
#156=FACE_OUTER_BOUND('',#414,.T.);
#157=FACE_OUTER_BOUND('',#415,.T.);
#158=FACE_OUTER_BOUND('',#416,.T.);
#159=FACE_OUTER_BOUND('',#417,.T.);
#160=FACE_OUTER_BOUND('',#418,.T.);
#161=FACE_OUTER_BOUND('',#419,.T.);
#162=FACE_OUTER_BOUND('',#420,.T.);
#163=FACE_OUTER_BOUND('',#421,.T.);
#164=FACE_OUTER_BOUND('',#422,.T.);
#165=FACE_OUTER_BOUND('',#423,.T.);
#166=CYLINDRICAL_SURFACE('',#1152,1.65);
#167=CYLINDRICAL_SURFACE('',#1155,1.65);
#168=CYLINDRICAL_SURFACE('',#1158,1.65);
#169=CYLINDRICAL_SURFACE('',#1161,1.65);
#170=CYLINDRICAL_SURFACE('',#1171,15.);
#171=CYLINDRICAL_SURFACE('',#1174,15.);
#172=CYLINDRICAL_SURFACE('',#1176,1.65);
#173=CYLINDRICAL_SURFACE('',#1178,1.65);
#174=CYLINDRICAL_SURFACE('',#1180,1.65);
#175=CYLINDRICAL_SURFACE('',#1182,1.65);
#176=CYLINDRICAL_SURFACE('',#1184,25.5);
#177=CYLINDRICAL_SURFACE('',#1187,25.5);
#178=CYLINDRICAL_SURFACE('',#1209,3.1);
#179=CYLINDRICAL_SURFACE('',#1216,3.1);
#180=CYLINDRICAL_SURFACE('',#1220,3.1);
#181=CYLINDRICAL_SURFACE('',#1224,3.1);
#182=CYLINDRICAL_SURFACE('',#1230,3.1);
#183=CYLINDRICAL_SURFACE('',#1232,3.1);
#184=CYLINDRICAL_SURFACE('',#1237,3.1);
#185=CYLINDRICAL_SURFACE('',#1239,3.1);
#186=CYLINDRICAL_SURFACE('',#1245,2.);
#187=CYLINDRICAL_SURFACE('',#1250,2.);
#188=CYLINDRICAL_SURFACE('',#1255,2.);
#189=CYLINDRICAL_SURFACE('',#1260,2.);
#190=ADVANCED_FACE('',(#278,#279,#280,#281,#282),#252,.F.);
#191=ADVANCED_FACE('',(#283,#284),#166,.F.);
#192=ADVANCED_FACE('',(#285,#286),#167,.F.);
#193=ADVANCED_FACE('',(#287,#288),#168,.F.);
#194=ADVANCED_FACE('',(#289,#290),#169,.F.);
#195=ADVANCED_FACE('',(#291,#292,#293,#294,#295,#296,#297,#298,#299),#253,
 .T.);
#196=ADVANCED_FACE('',(#300,#301),#170,.F.);
#197=ADVANCED_FACE('',(#302,#303),#171,.F.);
#198=ADVANCED_FACE('',(#304,#305),#172,.F.);
#199=ADVANCED_FACE('',(#306,#307),#173,.F.);
#200=ADVANCED_FACE('',(#308,#309),#174,.F.);
#201=ADVANCED_FACE('',(#310,#311),#175,.F.);
#202=ADVANCED_FACE('',(#124),#176,.T.);
#203=ADVANCED_FACE('',(#125),#254,.T.);
#204=ADVANCED_FACE('',(#126),#177,.T.);
#205=ADVANCED_FACE('',(#127),#255,.T.);
#206=ADVANCED_FACE('',(#128),#256,.T.);
#207=ADVANCED_FACE('',(#129),#257,.T.);
#208=ADVANCED_FACE('',(#130),#104,.T.);
#209=ADVANCED_FACE('',(#131),#258,.T.);
#210=ADVANCED_FACE('',(#132),#259,.T.);
#211=ADVANCED_FACE('',(#133),#105,.T.);
#212=ADVANCED_FACE('',(#312,#313),#260,.T.);
#213=ADVANCED_FACE('',(#134),#178,.F.);
#214=ADVANCED_FACE('',(#135),#261,.F.);
#215=ADVANCED_FACE('',(#136),#262,.F.);
#216=ADVANCED_FACE('',(#314,#315),#263,.T.);
#217=ADVANCED_FACE('',(#137),#264,.F.);
#218=ADVANCED_FACE('',(#138),#265,.F.);
#219=ADVANCED_FACE('',(#139),#179,.F.);
#220=ADVANCED_FACE('',(#140),#266,.F.);
#221=ADVANCED_FACE('',(#141),#267,.F.);
#222=ADVANCED_FACE('',(#142),#180,.F.);
#223=ADVANCED_FACE('',(#316,#317),#268,.T.);
#224=ADVANCED_FACE('',(#143),#269,.F.);
#225=ADVANCED_FACE('',(#144),#181,.F.);
#226=ADVANCED_FACE('',(#145),#270,.F.);
#227=ADVANCED_FACE('',(#318,#319),#271,.T.);
#228=ADVANCED_FACE('',(#320,#321,#322),#272,.F.);
#229=ADVANCED_FACE('',(#146),#182,.F.);
#230=ADVANCED_FACE('',(#147),#273,.T.);
#231=ADVANCED_FACE('',(#148),#183,.F.);
#232=ADVANCED_FACE('',(#149),#274,.T.);
#233=ADVANCED_FACE('',(#323,#324,#325),#275,.F.);
#234=ADVANCED_FACE('',(#150),#184,.F.);
#235=ADVANCED_FACE('',(#151),#276,.T.);
#236=ADVANCED_FACE('',(#152),#185,.F.);
#237=ADVANCED_FACE('',(#153),#277,.T.);
#238=ADVANCED_FACE('',(#326,#327),#106,.F.);
#239=ADVANCED_FACE('',(#328,#329),#107,.F.);
#240=ADVANCED_FACE('',(#154),#186,.T.);
#241=ADVANCED_FACE('',(#155),#96,.T.);
#242=ADVANCED_FACE('',(#156),#97,.T.);
#243=ADVANCED_FACE('',(#157),#187,.T.);
#244=ADVANCED_FACE('',(#158),#98,.T.);
#245=ADVANCED_FACE('',(#159),#99,.T.);
#246=ADVANCED_FACE('',(#160),#188,.T.);
#247=ADVANCED_FACE('',(#161),#100,.T.);
#248=ADVANCED_FACE('',(#162),#101,.T.);
#249=ADVANCED_FACE('',(#163),#189,.T.);
#250=ADVANCED_FACE('',(#164),#102,.T.);
#251=ADVANCED_FACE('',(#165),#103,.T.);
#252=PLANE('',#1149);
#253=PLANE('',#1168);
#254=PLANE('',#1185);
#255=PLANE('',#1188);
#256=PLANE('',#1189);
#257=PLANE('',#1190);
#258=PLANE('',#1198);
#259=PLANE('',#1199);
#260=PLANE('',#1208);
#261=PLANE('',#1210);
#262=PLANE('',#1211);
#263=PLANE('',#1213);
#264=PLANE('',#1214);
#265=PLANE('',#1215);
#266=PLANE('',#1217);
#267=PLANE('',#1218);
#268=PLANE('',#1221);
#269=PLANE('',#1222);
#270=PLANE('',#1225);
#271=PLANE('',#1226);
#272=PLANE('',#1229);
#273=PLANE('',#1231);
#274=PLANE('',#1233);
#275=PLANE('',#1236);
#276=PLANE('',#1238);
#277=PLANE('',#1240);
#278=FACE_BOUND('',#330,.T.);
#279=FACE_BOUND('',#331,.T.);
#280=FACE_BOUND('',#332,.T.);
#281=FACE_BOUND('',#333,.T.);
#282=FACE_BOUND('',#334,.T.);
#283=FACE_BOUND('',#335,.T.);
#284=FACE_BOUND('',#336,.T.);
#285=FACE_BOUND('',#337,.T.);
#286=FACE_BOUND('',#338,.T.);
#287=FACE_BOUND('',#339,.T.);
#288=FACE_BOUND('',#340,.T.);
#289=FACE_BOUND('',#341,.T.);
#290=FACE_BOUND('',#342,.T.);
#291=FACE_BOUND('',#343,.T.);
#292=FACE_BOUND('',#344,.T.);
#293=FACE_BOUND('',#345,.T.);
#294=FACE_BOUND('',#346,.T.);
#295=FACE_BOUND('',#347,.T.);
#296=FACE_BOUND('',#348,.T.);
#297=FACE_BOUND('',#349,.T.);
#298=FACE_BOUND('',#350,.T.);
#299=FACE_BOUND('',#351,.T.);
#300=FACE_BOUND('',#352,.T.);
#301=FACE_BOUND('',#353,.T.);
#302=FACE_BOUND('',#354,.T.);
#303=FACE_BOUND('',#355,.T.);
#304=FACE_BOUND('',#356,.T.);
#305=FACE_BOUND('',#357,.T.);
#306=FACE_BOUND('',#358,.T.);
#307=FACE_BOUND('',#359,.T.);
#308=FACE_BOUND('',#360,.T.);
#309=FACE_BOUND('',#361,.T.);
#310=FACE_BOUND('',#362,.T.);
#311=FACE_BOUND('',#363,.T.);
#312=FACE_BOUND('',#374,.T.);
#313=FACE_BOUND('',#375,.T.);
#314=FACE_BOUND('',#379,.T.);
#315=FACE_BOUND('',#380,.T.);
#316=FACE_BOUND('',#387,.T.);
#317=FACE_BOUND('',#388,.T.);
#318=FACE_BOUND('',#392,.T.);
#319=FACE_BOUND('',#393,.T.);
#320=FACE_BOUND('',#394,.T.);
#321=FACE_BOUND('',#395,.T.);
#322=FACE_BOUND('',#396,.T.);
#323=FACE_BOUND('',#401,.T.);
#324=FACE_BOUND('',#402,.T.);
#325=FACE_BOUND('',#403,.T.);
#326=FACE_BOUND('',#408,.T.);
#327=FACE_BOUND('',#409,.T.);
#328=FACE_BOUND('',#410,.T.);
#329=FACE_BOUND('',#411,.T.);
#330=EDGE_LOOP('',(#492,#493,#494,#495,#496,#497,#498,#499,#500,#501,#502,
#503,#504,#505,#506,#507,#508,#509,#510,#511));
#331=EDGE_LOOP('',(#512));
#332=EDGE_LOOP('',(#513));
#333=EDGE_LOOP('',(#514,#515,#516,#517));
#334=EDGE_LOOP('',(#518,#519,#520,#521));
#335=EDGE_LOOP('',(#522));
#336=EDGE_LOOP('',(#523));
#337=EDGE_LOOP('',(#524));
#338=EDGE_LOOP('',(#525));
#339=EDGE_LOOP('',(#526));
#340=EDGE_LOOP('',(#527));
#341=EDGE_LOOP('',(#528));
#342=EDGE_LOOP('',(#529));
#343=EDGE_LOOP('',(#530,#531,#532,#533));
#344=EDGE_LOOP('',(#534));
#345=EDGE_LOOP('',(#535));
#346=EDGE_LOOP('',(#536));
#347=EDGE_LOOP('',(#537));
#348=EDGE_LOOP('',(#538));
#349=EDGE_LOOP('',(#539));
#350=EDGE_LOOP('',(#540));
#351=EDGE_LOOP('',(#541));
#352=EDGE_LOOP('',(#542));
#353=EDGE_LOOP('',(#543));
#354=EDGE_LOOP('',(#544));
#355=EDGE_LOOP('',(#545));
#356=EDGE_LOOP('',(#546));
#357=EDGE_LOOP('',(#547));
#358=EDGE_LOOP('',(#548));
#359=EDGE_LOOP('',(#549));
#360=EDGE_LOOP('',(#550));
#361=EDGE_LOOP('',(#551));
#362=EDGE_LOOP('',(#552));
#363=EDGE_LOOP('',(#553));
#364=EDGE_LOOP('',(#554,#555,#556,#557));
#365=EDGE_LOOP('',(#558,#559,#560,#561));
#366=EDGE_LOOP('',(#562,#563,#564,#565));
#367=EDGE_LOOP('',(#566,#567,#568,#569));
#368=EDGE_LOOP('',(#570));
#369=EDGE_LOOP('',(#571));
#370=EDGE_LOOP('',(#572,#573,#574,#575,#576,#577,#578,#579,#580,#581,#582,
#583));
#371=EDGE_LOOP('',(#584,#585,#586,#587));
#372=EDGE_LOOP('',(#588,#589,#590,#591));
#373=EDGE_LOOP('',(#592,#593,#594,#595,#596,#597,#598,#599,#600,#601,#602,
#603));
#374=EDGE_LOOP('',(#604,#605,#606,#607));
#375=EDGE_LOOP('',(#608));
#376=EDGE_LOOP('',(#609,#610,#611,#612));
#377=EDGE_LOOP('',(#613,#614,#615,#616,#617));
#378=EDGE_LOOP('',(#618,#619,#620,#621,#622));
#379=EDGE_LOOP('',(#623,#624,#625,#626));
#380=EDGE_LOOP('',(#627));
#381=EDGE_LOOP('',(#628,#629,#630,#631,#632));
#382=EDGE_LOOP('',(#633,#634,#635,#636,#637));
#383=EDGE_LOOP('',(#638,#639,#640,#641));
#384=EDGE_LOOP('',(#642,#643,#644,#645,#646));
#385=EDGE_LOOP('',(#647,#648,#649,#650,#651));
#386=EDGE_LOOP('',(#652,#653,#654,#655));
#387=EDGE_LOOP('',(#656));
#388=EDGE_LOOP('',(#657,#658,#659,#660));
#389=EDGE_LOOP('',(#661,#662,#663,#664,#665));
#390=EDGE_LOOP('',(#666,#667,#668,#669));
#391=EDGE_LOOP('',(#670,#671,#672,#673,#674));
#392=EDGE_LOOP('',(#675));
#393=EDGE_LOOP('',(#676,#677,#678,#679));
#394=EDGE_LOOP('',(#680));
#395=EDGE_LOOP('',(#681,#682,#683,#684));
#396=EDGE_LOOP('',(#685));
#397=EDGE_LOOP('',(#686,#687,#688,#689));
#398=EDGE_LOOP('',(#690,#691,#692,#693));
#399=EDGE_LOOP('',(#694,#695,#696,#697));
#400=EDGE_LOOP('',(#698,#699,#700,#701));
#401=EDGE_LOOP('',(#702,#703,#704,#705));
#402=EDGE_LOOP('',(#706));
#403=EDGE_LOOP('',(#707));
#404=EDGE_LOOP('',(#708,#709,#710,#711));
#405=EDGE_LOOP('',(#712,#713,#714,#715));
#406=EDGE_LOOP('',(#716,#717,#718,#719));
#407=EDGE_LOOP('',(#720,#721,#722,#723));
#408=EDGE_LOOP('',(#724));
#409=EDGE_LOOP('',(#725));
#410=EDGE_LOOP('',(#726));
#411=EDGE_LOOP('',(#727));
#412=EDGE_LOOP('',(#728,#729,#730,#731));
#413=EDGE_LOOP('',(#732,#733,#734,#735));
#414=EDGE_LOOP('',(#736,#737,#738,#739));
#415=EDGE_LOOP('',(#740,#741,#742,#743));
#416=EDGE_LOOP('',(#744,#745,#746,#747));
#417=EDGE_LOOP('',(#748,#749,#750,#751));
#418=EDGE_LOOP('',(#752,#753,#754,#755));
#419=EDGE_LOOP('',(#756,#757,#758,#759));
#420=EDGE_LOOP('',(#760,#761,#762,#763));
#421=EDGE_LOOP('',(#764,#765,#766,#767));
#422=EDGE_LOOP('',(#768,#769,#770,#771));
#423=EDGE_LOOP('',(#772,#773,#774,#775));
#424=CIRCLE('',#1133,20.6715728752538);
#425=CIRCLE('',#1134,3.1);
#426=CIRCLE('',#1135,20.6715728752538);
#427=CIRCLE('',#1136,20.6715728752538);
#428=CIRCLE('',#1137,3.1);
#429=CIRCLE('',#1138,20.6715728752538);
#430=CIRCLE('',#1139,3.1);
#431=CIRCLE('',#1140,20.6715728752538);
#432=CIRCLE('',#1141,20.6715728752538);
#433=CIRCLE('',#1142,3.1);
#434=CIRCLE('',#1143,16.);
#435=CIRCLE('',#1144,16.);
#436=CIRCLE('',#1145,3.1);
#437=CIRCLE('',#1146,3.1);
#438=CIRCLE('',#1147,3.1);
#439=CIRCLE('',#1148,3.1);
#440=CIRCLE('',#1150,1.65);
#441=CIRCLE('',#1151,1.65);
#442=CIRCLE('',#1153,1.65);
#443=CIRCLE('',#1154,1.65);
#444=CIRCLE('',#1156,1.65);
#445=CIRCLE('',#1157,1.65);
#446=CIRCLE('',#1159,1.65);
#447=CIRCLE('',#1160,1.65);
#448=CIRCLE('',#1162,25.5);
#449=CIRCLE('',#1163,25.5);
#450=CIRCLE('',#1164,1.65);
#451=CIRCLE('',#1165,1.65);
#452=CIRCLE('',#1166,1.65);
#453=CIRCLE('',#1167,1.65);
#454=CIRCLE('',#1169,15.);
#455=CIRCLE('',#1170,15.);
#456=CIRCLE('',#1172,15.);
#457=CIRCLE('',#1173,15.);
#458=CIRCLE('',#1175,1.65);
#459=CIRCLE('',#1177,1.65);
#460=CIRCLE('',#1179,1.65);
#461=CIRCLE('',#1181,1.65);
#462=CIRCLE('',#1183,25.5);
#463=CIRCLE('',#1186,25.5);
#464=CIRCLE('',#1191,24.9142135623731);
#465=CIRCLE('',#1192,22.0857864376269);
#466=CIRCLE('',#1193,24.5);
#467=CIRCLE('',#1194,22.0857864376269);
#468=CIRCLE('',#1195,24.5);
#469=CIRCLE('',#1196,22.0857864376269);
#470=CIRCLE('',#1200,24.9142135623731);
#471=CIRCLE('',#1201,22.0857864376269);
#472=CIRCLE('',#1202,24.5);
#473=CIRCLE('',#1203,22.0857864376269);
#474=CIRCLE('',#1204,24.5);
#475=CIRCLE('',#1205,22.0857864376269);
#476=CIRCLE('',#1207,3.1);
#477=CIRCLE('',#1212,3.1);
#478=CIRCLE('',#1219,3.1);
#479=CIRCLE('',#1223,3.1);
#480=CIRCLE('',#1227,3.1);
#481=CIRCLE('',#1228,3.1);
#482=CIRCLE('',#1234,3.1);
#483=CIRCLE('',#1235,3.1);
#484=CIRCLE('',#1243,2.);
#485=CIRCLE('',#1244,2.);
#486=CIRCLE('',#1246,2.);
#487=CIRCLE('',#1248,2.);
#488=CIRCLE('',#1252,2.);
#489=CIRCLE('',#1254,2.);
#490=CIRCLE('',#1257,2.);
#491=CIRCLE('',#1259,2.);
#492=ORIENTED_EDGE('',*,*,#874,.F.);
#493=ORIENTED_EDGE('',*,*,#875,.T.);
#494=ORIENTED_EDGE('',*,*,#876,.F.);
#495=ORIENTED_EDGE('',*,*,#877,.F.);
#496=ORIENTED_EDGE('',*,*,#878,.F.);
#497=ORIENTED_EDGE('',*,*,#879,.T.);
#498=ORIENTED_EDGE('',*,*,#880,.T.);
#499=ORIENTED_EDGE('',*,*,#881,.T.);
#500=ORIENTED_EDGE('',*,*,#882,.F.);
#501=ORIENTED_EDGE('',*,*,#883,.F.);
#502=ORIENTED_EDGE('',*,*,#884,.F.);
#503=ORIENTED_EDGE('',*,*,#885,.T.);
#504=ORIENTED_EDGE('',*,*,#886,.F.);
#505=ORIENTED_EDGE('',*,*,#887,.F.);
#506=ORIENTED_EDGE('',*,*,#888,.F.);
#507=ORIENTED_EDGE('',*,*,#889,.T.);
#508=ORIENTED_EDGE('',*,*,#890,.T.);
#509=ORIENTED_EDGE('',*,*,#891,.T.);
#510=ORIENTED_EDGE('',*,*,#892,.F.);
#511=ORIENTED_EDGE('',*,*,#893,.F.);
#512=ORIENTED_EDGE('',*,*,#894,.T.);
#513=ORIENTED_EDGE('',*,*,#895,.T.);
#514=ORIENTED_EDGE('',*,*,#896,.T.);
#515=ORIENTED_EDGE('',*,*,#897,.T.);
#516=ORIENTED_EDGE('',*,*,#898,.T.);
#517=ORIENTED_EDGE('',*,*,#899,.T.);
#518=ORIENTED_EDGE('',*,*,#900,.T.);
#519=ORIENTED_EDGE('',*,*,#901,.T.);
#520=ORIENTED_EDGE('',*,*,#902,.T.);
#521=ORIENTED_EDGE('',*,*,#903,.T.);
#522=ORIENTED_EDGE('',*,*,#904,.T.);
#523=ORIENTED_EDGE('',*,*,#905,.T.);
#524=ORIENTED_EDGE('',*,*,#906,.F.);
#525=ORIENTED_EDGE('',*,*,#907,.F.);
#526=ORIENTED_EDGE('',*,*,#908,.F.);
#527=ORIENTED_EDGE('',*,*,#909,.F.);
#528=ORIENTED_EDGE('',*,*,#910,.T.);
#529=ORIENTED_EDGE('',*,*,#911,.T.);
#530=ORIENTED_EDGE('',*,*,#912,.T.);
#531=ORIENTED_EDGE('',*,*,#913,.T.);
#532=ORIENTED_EDGE('',*,*,#914,.T.);
#533=ORIENTED_EDGE('',*,*,#915,.T.);
#534=ORIENTED_EDGE('',*,*,#916,.F.);
#535=ORIENTED_EDGE('',*,*,#917,.F.);
#536=ORIENTED_EDGE('',*,*,#910,.F.);
#537=ORIENTED_EDGE('',*,*,#904,.F.);
#538=ORIENTED_EDGE('',*,*,#918,.T.);
#539=ORIENTED_EDGE('',*,*,#906,.T.);
#540=ORIENTED_EDGE('',*,*,#908,.T.);
#541=ORIENTED_EDGE('',*,*,#919,.T.);
#542=ORIENTED_EDGE('',*,*,#920,.T.);
#543=ORIENTED_EDGE('',*,*,#921,.F.);
#544=ORIENTED_EDGE('',*,*,#922,.T.);
#545=ORIENTED_EDGE('',*,*,#923,.F.);
#546=ORIENTED_EDGE('',*,*,#924,.T.);
#547=ORIENTED_EDGE('',*,*,#918,.F.);
#548=ORIENTED_EDGE('',*,*,#925,.F.);
#549=ORIENTED_EDGE('',*,*,#917,.T.);
#550=ORIENTED_EDGE('',*,*,#926,.F.);
#551=ORIENTED_EDGE('',*,*,#916,.T.);
#552=ORIENTED_EDGE('',*,*,#927,.T.);
#553=ORIENTED_EDGE('',*,*,#919,.F.);
#554=ORIENTED_EDGE('',*,*,#928,.F.);
#555=ORIENTED_EDGE('',*,*,#929,.T.);
#556=ORIENTED_EDGE('',*,*,#930,.T.);
#557=ORIENTED_EDGE('',*,*,#913,.F.);
#558=ORIENTED_EDGE('',*,*,#930,.F.);
#559=ORIENTED_EDGE('',*,*,#931,.T.);
#560=ORIENTED_EDGE('',*,*,#932,.T.);
#561=ORIENTED_EDGE('',*,*,#914,.F.);
#562=ORIENTED_EDGE('',*,*,#932,.F.);
#563=ORIENTED_EDGE('',*,*,#933,.T.);
#564=ORIENTED_EDGE('',*,*,#934,.T.);
#565=ORIENTED_EDGE('',*,*,#915,.F.);
#566=ORIENTED_EDGE('',*,*,#934,.F.);
#567=ORIENTED_EDGE('',*,*,#935,.T.);
#568=ORIENTED_EDGE('',*,*,#928,.T.);
#569=ORIENTED_EDGE('',*,*,#912,.F.);
#570=ORIENTED_EDGE('',*,*,#923,.T.);
#571=ORIENTED_EDGE('',*,*,#921,.T.);
#572=ORIENTED_EDGE('',*,*,#936,.F.);
#573=ORIENTED_EDGE('',*,*,#937,.T.);
#574=ORIENTED_EDGE('',*,*,#938,.F.);
#575=ORIENTED_EDGE('',*,*,#939,.T.);
#576=ORIENTED_EDGE('',*,*,#940,.F.);
#577=ORIENTED_EDGE('',*,*,#941,.T.);
#578=ORIENTED_EDGE('',*,*,#942,.F.);
#579=ORIENTED_EDGE('',*,*,#943,.T.);
#580=ORIENTED_EDGE('',*,*,#944,.F.);
#581=ORIENTED_EDGE('',*,*,#945,.T.);
#582=ORIENTED_EDGE('',*,*,#946,.F.);
#583=ORIENTED_EDGE('',*,*,#947,.T.);
#584=ORIENTED_EDGE('',*,*,#948,.F.);
#585=ORIENTED_EDGE('',*,*,#949,.T.);
#586=ORIENTED_EDGE('',*,*,#936,.T.);
#587=ORIENTED_EDGE('',*,*,#950,.T.);
#588=ORIENTED_EDGE('',*,*,#938,.T.);
#589=ORIENTED_EDGE('',*,*,#951,.T.);
#590=ORIENTED_EDGE('',*,*,#952,.F.);
#591=ORIENTED_EDGE('',*,*,#953,.T.);
#592=ORIENTED_EDGE('',*,*,#952,.T.);
#593=ORIENTED_EDGE('',*,*,#954,.T.);
#594=ORIENTED_EDGE('',*,*,#948,.T.);
#595=ORIENTED_EDGE('',*,*,#955,.T.);
#596=ORIENTED_EDGE('',*,*,#956,.F.);
#597=ORIENTED_EDGE('',*,*,#957,.T.);
#598=ORIENTED_EDGE('',*,*,#958,.F.);
#599=ORIENTED_EDGE('',*,*,#959,.T.);
#600=ORIENTED_EDGE('',*,*,#960,.F.);
#601=ORIENTED_EDGE('',*,*,#961,.T.);
#602=ORIENTED_EDGE('',*,*,#962,.F.);
#603=ORIENTED_EDGE('',*,*,#963,.T.);
#604=ORIENTED_EDGE('',*,*,#964,.F.);
#605=ORIENTED_EDGE('',*,*,#965,.F.);
#606=ORIENTED_EDGE('',*,*,#966,.F.);
#607=ORIENTED_EDGE('',*,*,#961,.F.);
#608=ORIENTED_EDGE('',*,*,#909,.T.);
#609=ORIENTED_EDGE('',*,*,#883,.T.);
#610=ORIENTED_EDGE('',*,*,#967,.T.);
#611=ORIENTED_EDGE('',*,*,#965,.T.);
#612=ORIENTED_EDGE('',*,*,#968,.F.);
#613=ORIENTED_EDGE('',*,*,#882,.T.);
#614=ORIENTED_EDGE('',*,*,#969,.T.);
#615=ORIENTED_EDGE('',*,*,#962,.T.);
#616=ORIENTED_EDGE('',*,*,#966,.T.);
#617=ORIENTED_EDGE('',*,*,#967,.F.);
#618=ORIENTED_EDGE('',*,*,#960,.T.);
#619=ORIENTED_EDGE('',*,*,#970,.T.);
#620=ORIENTED_EDGE('',*,*,#884,.T.);
#621=ORIENTED_EDGE('',*,*,#968,.T.);
#622=ORIENTED_EDGE('',*,*,#964,.T.);
#623=ORIENTED_EDGE('',*,*,#971,.F.);
#624=ORIENTED_EDGE('',*,*,#972,.F.);
#625=ORIENTED_EDGE('',*,*,#973,.F.);
#626=ORIENTED_EDGE('',*,*,#957,.F.);
#627=ORIENTED_EDGE('',*,*,#907,.T.);
#628=ORIENTED_EDGE('',*,*,#886,.T.);
#629=ORIENTED_EDGE('',*,*,#974,.T.);
#630=ORIENTED_EDGE('',*,*,#958,.T.);
#631=ORIENTED_EDGE('',*,*,#973,.T.);
#632=ORIENTED_EDGE('',*,*,#975,.F.);
#633=ORIENTED_EDGE('',*,*,#956,.T.);
#634=ORIENTED_EDGE('',*,*,#976,.T.);
#635=ORIENTED_EDGE('',*,*,#888,.T.);
#636=ORIENTED_EDGE('',*,*,#977,.T.);
#637=ORIENTED_EDGE('',*,*,#971,.T.);
#638=ORIENTED_EDGE('',*,*,#887,.T.);
#639=ORIENTED_EDGE('',*,*,#975,.T.);
#640=ORIENTED_EDGE('',*,*,#972,.T.);
#641=ORIENTED_EDGE('',*,*,#977,.F.);
#642=ORIENTED_EDGE('',*,*,#892,.T.);
#643=ORIENTED_EDGE('',*,*,#978,.T.);
#644=ORIENTED_EDGE('',*,*,#946,.T.);
#645=ORIENTED_EDGE('',*,*,#979,.T.);
#646=ORIENTED_EDGE('',*,*,#980,.F.);
#647=ORIENTED_EDGE('',*,*,#944,.T.);
#648=ORIENTED_EDGE('',*,*,#981,.T.);
#649=ORIENTED_EDGE('',*,*,#874,.T.);
#650=ORIENTED_EDGE('',*,*,#982,.T.);
#651=ORIENTED_EDGE('',*,*,#983,.T.);
#652=ORIENTED_EDGE('',*,*,#893,.T.);
#653=ORIENTED_EDGE('',*,*,#980,.T.);
#654=ORIENTED_EDGE('',*,*,#984,.T.);
#655=ORIENTED_EDGE('',*,*,#982,.F.);
#656=ORIENTED_EDGE('',*,*,#905,.F.);
#657=ORIENTED_EDGE('',*,*,#983,.F.);
#658=ORIENTED_EDGE('',*,*,#984,.F.);
#659=ORIENTED_EDGE('',*,*,#979,.F.);
#660=ORIENTED_EDGE('',*,*,#945,.F.);
#661=ORIENTED_EDGE('',*,*,#940,.T.);
#662=ORIENTED_EDGE('',*,*,#985,.T.);
#663=ORIENTED_EDGE('',*,*,#878,.T.);
#664=ORIENTED_EDGE('',*,*,#986,.T.);
#665=ORIENTED_EDGE('',*,*,#987,.T.);
#666=ORIENTED_EDGE('',*,*,#877,.T.);
#667=ORIENTED_EDGE('',*,*,#988,.T.);
#668=ORIENTED_EDGE('',*,*,#989,.T.);
#669=ORIENTED_EDGE('',*,*,#986,.F.);
#670=ORIENTED_EDGE('',*,*,#876,.T.);
#671=ORIENTED_EDGE('',*,*,#990,.T.);
#672=ORIENTED_EDGE('',*,*,#942,.T.);
#673=ORIENTED_EDGE('',*,*,#991,.T.);
#674=ORIENTED_EDGE('',*,*,#988,.F.);
#675=ORIENTED_EDGE('',*,*,#911,.F.);
#676=ORIENTED_EDGE('',*,*,#987,.F.);
#677=ORIENTED_EDGE('',*,*,#989,.F.);
#678=ORIENTED_EDGE('',*,*,#991,.F.);
#679=ORIENTED_EDGE('',*,*,#941,.F.);
#680=ORIENTED_EDGE('',*,*,#926,.T.);
#681=ORIENTED_EDGE('',*,*,#992,.T.);
#682=ORIENTED_EDGE('',*,*,#993,.T.);
#683=ORIENTED_EDGE('',*,*,#994,.T.);
#684=ORIENTED_EDGE('',*,*,#995,.T.);
#685=ORIENTED_EDGE('',*,*,#927,.F.);
#686=ORIENTED_EDGE('',*,*,#896,.F.);
#687=ORIENTED_EDGE('',*,*,#996,.T.);
#688=ORIENTED_EDGE('',*,*,#992,.F.);
#689=ORIENTED_EDGE('',*,*,#997,.F.);
#690=ORIENTED_EDGE('',*,*,#897,.F.);
#691=ORIENTED_EDGE('',*,*,#997,.T.);
#692=ORIENTED_EDGE('',*,*,#995,.F.);
#693=ORIENTED_EDGE('',*,*,#998,.F.);
#694=ORIENTED_EDGE('',*,*,#898,.F.);
#695=ORIENTED_EDGE('',*,*,#998,.T.);
#696=ORIENTED_EDGE('',*,*,#994,.F.);
#697=ORIENTED_EDGE('',*,*,#999,.F.);
#698=ORIENTED_EDGE('',*,*,#899,.F.);
#699=ORIENTED_EDGE('',*,*,#999,.T.);
#700=ORIENTED_EDGE('',*,*,#993,.F.);
#701=ORIENTED_EDGE('',*,*,#996,.F.);
#702=ORIENTED_EDGE('',*,*,#1000,.T.);
#703=ORIENTED_EDGE('',*,*,#1001,.T.);
#704=ORIENTED_EDGE('',*,*,#1002,.T.);
#705=ORIENTED_EDGE('',*,*,#1003,.T.);
#706=ORIENTED_EDGE('',*,*,#925,.T.);
#707=ORIENTED_EDGE('',*,*,#924,.F.);
#708=ORIENTED_EDGE('',*,*,#900,.F.);
#709=ORIENTED_EDGE('',*,*,#1004,.T.);
#710=ORIENTED_EDGE('',*,*,#1000,.F.);
#711=ORIENTED_EDGE('',*,*,#1005,.F.);
#712=ORIENTED_EDGE('',*,*,#901,.F.);
#713=ORIENTED_EDGE('',*,*,#1005,.T.);
#714=ORIENTED_EDGE('',*,*,#1003,.F.);
#715=ORIENTED_EDGE('',*,*,#1006,.F.);
#716=ORIENTED_EDGE('',*,*,#902,.F.);
#717=ORIENTED_EDGE('',*,*,#1006,.T.);
#718=ORIENTED_EDGE('',*,*,#1002,.F.);
#719=ORIENTED_EDGE('',*,*,#1007,.F.);
#720=ORIENTED_EDGE('',*,*,#903,.F.);
#721=ORIENTED_EDGE('',*,*,#1007,.T.);
#722=ORIENTED_EDGE('',*,*,#1001,.F.);
#723=ORIENTED_EDGE('',*,*,#1004,.F.);
#724=ORIENTED_EDGE('',*,*,#894,.F.);
#725=ORIENTED_EDGE('',*,*,#920,.F.);
#726=ORIENTED_EDGE('',*,*,#895,.F.);
#727=ORIENTED_EDGE('',*,*,#922,.F.);
#728=ORIENTED_EDGE('',*,*,#1008,.F.);
#729=ORIENTED_EDGE('',*,*,#951,.F.);
#730=ORIENTED_EDGE('',*,*,#1009,.F.);
#731=ORIENTED_EDGE('',*,*,#931,.F.);
#732=ORIENTED_EDGE('',*,*,#1009,.T.);
#733=ORIENTED_EDGE('',*,*,#937,.F.);
#734=ORIENTED_EDGE('',*,*,#1010,.F.);
#735=ORIENTED_EDGE('',*,*,#933,.F.);
#736=ORIENTED_EDGE('',*,*,#1008,.T.);
#737=ORIENTED_EDGE('',*,*,#929,.F.);
#738=ORIENTED_EDGE('',*,*,#1011,.F.);
#739=ORIENTED_EDGE('',*,*,#954,.F.);
#740=ORIENTED_EDGE('',*,*,#1010,.T.);
#741=ORIENTED_EDGE('',*,*,#949,.F.);
#742=ORIENTED_EDGE('',*,*,#1011,.T.);
#743=ORIENTED_EDGE('',*,*,#935,.F.);
#744=ORIENTED_EDGE('',*,*,#981,.F.);
#745=ORIENTED_EDGE('',*,*,#943,.F.);
#746=ORIENTED_EDGE('',*,*,#990,.F.);
#747=ORIENTED_EDGE('',*,*,#875,.F.);
#748=ORIENTED_EDGE('',*,*,#969,.F.);
#749=ORIENTED_EDGE('',*,*,#881,.F.);
#750=ORIENTED_EDGE('',*,*,#1012,.F.);
#751=ORIENTED_EDGE('',*,*,#963,.F.);
#752=ORIENTED_EDGE('',*,*,#1012,.T.);
#753=ORIENTED_EDGE('',*,*,#880,.F.);
#754=ORIENTED_EDGE('',*,*,#1013,.F.);
#755=ORIENTED_EDGE('',*,*,#953,.F.);
#756=ORIENTED_EDGE('',*,*,#985,.F.);
#757=ORIENTED_EDGE('',*,*,#939,.F.);
#758=ORIENTED_EDGE('',*,*,#1013,.T.);
#759=ORIENTED_EDGE('',*,*,#879,.F.);
#760=ORIENTED_EDGE('',*,*,#976,.F.);
#761=ORIENTED_EDGE('',*,*,#955,.F.);
#762=ORIENTED_EDGE('',*,*,#1014,.F.);
#763=ORIENTED_EDGE('',*,*,#889,.F.);
#764=ORIENTED_EDGE('',*,*,#1014,.T.);
#765=ORIENTED_EDGE('',*,*,#950,.F.);
#766=ORIENTED_EDGE('',*,*,#1015,.F.);
#767=ORIENTED_EDGE('',*,*,#890,.F.);
#768=ORIENTED_EDGE('',*,*,#1015,.T.);
#769=ORIENTED_EDGE('',*,*,#947,.F.);
#770=ORIENTED_EDGE('',*,*,#978,.F.);
#771=ORIENTED_EDGE('',*,*,#891,.F.);
#772=ORIENTED_EDGE('',*,*,#970,.F.);
#773=ORIENTED_EDGE('',*,*,#959,.F.);
#774=ORIENTED_EDGE('',*,*,#974,.F.);
#775=ORIENTED_EDGE('',*,*,#885,.F.);
#776=VERTEX_POINT('',#1585);
#777=VERTEX_POINT('',#1586);
#778=VERTEX_POINT('',#1588);
#779=VERTEX_POINT('',#1590);
#780=VERTEX_POINT('',#1592);
#781=VERTEX_POINT('',#1594);
#782=VERTEX_POINT('',#1596);
#783=VERTEX_POINT('',#1598);
#784=VERTEX_POINT('',#1600);
#785=VERTEX_POINT('',#1602);
#786=VERTEX_POINT('',#1604);
#787=VERTEX_POINT('',#1606);
#788=VERTEX_POINT('',#1608);
#789=VERTEX_POINT('',#1610);
#790=VERTEX_POINT('',#1612);
#791=VERTEX_POINT('',#1614);
#792=VERTEX_POINT('',#1616);
#793=VERTEX_POINT('',#1618);
#794=VERTEX_POINT('',#1620);
#795=VERTEX_POINT('',#1622);
#796=VERTEX_POINT('',#1625);
#797=VERTEX_POINT('',#1627);
#798=VERTEX_POINT('',#1629);
#799=VERTEX_POINT('',#1630);
#800=VERTEX_POINT('',#1632);
#801=VERTEX_POINT('',#1634);
#802=VERTEX_POINT('',#1637);
#803=VERTEX_POINT('',#1638);
#804=VERTEX_POINT('',#1640);
#805=VERTEX_POINT('',#1642);
#806=VERTEX_POINT('',#1646);
#807=VERTEX_POINT('',#1648);
#808=VERTEX_POINT('',#1651);
#809=VERTEX_POINT('',#1653);
#810=VERTEX_POINT('',#1656);
#811=VERTEX_POINT('',#1658);
#812=VERTEX_POINT('',#1661);
#813=VERTEX_POINT('',#1663);
#814=VERTEX_POINT('',#1666);
#815=VERTEX_POINT('',#1667);
#816=VERTEX_POINT('',#1669);
#817=VERTEX_POINT('',#1671);
#818=VERTEX_POINT('',#1674);
#819=VERTEX_POINT('',#1676);
#820=VERTEX_POINT('',#1678);
#821=VERTEX_POINT('',#1680);
#822=VERTEX_POINT('',#1683);
#823=VERTEX_POINT('',#1685);
#824=VERTEX_POINT('',#1688);
#825=VERTEX_POINT('',#1690);
#826=VERTEX_POINT('',#1693);
#827=VERTEX_POINT('',#1696);
#828=VERTEX_POINT('',#1699);
#829=VERTEX_POINT('',#1702);
#830=VERTEX_POINT('',#1705);
#831=VERTEX_POINT('',#1707);
#832=VERTEX_POINT('',#1711);
#833=VERTEX_POINT('',#1715);
#834=VERTEX_POINT('',#1723);
#835=VERTEX_POINT('',#1724);
#836=VERTEX_POINT('',#1726);
#837=VERTEX_POINT('',#1728);
#838=VERTEX_POINT('',#1730);
#839=VERTEX_POINT('',#1735);
#840=VERTEX_POINT('',#1737);
#841=VERTEX_POINT('',#1742);
#842=VERTEX_POINT('',#1744);
#843=VERTEX_POINT('',#1749);
#844=VERTEX_POINT('',#1751);
#845=VERTEX_POINT('',#1756);
#846=VERTEX_POINT('',#1760);
#847=VERTEX_POINT('',#1761);
#848=VERTEX_POINT('',#1766);
#849=VERTEX_POINT('',#1768);
#850=VERTEX_POINT('',#1773);
#851=VERTEX_POINT('',#1778);
#852=VERTEX_POINT('',#1780);
#853=VERTEX_POINT('',#1785);
#854=VERTEX_POINT('',#1787);
#855=VERTEX_POINT('',#1792);
#856=VERTEX_POINT('',#1794);
#857=VERTEX_POINT('',#1799);
#858=VERTEX_POINT('',#1803);
#859=VERTEX_POINT('',#1805);
#860=VERTEX_POINT('',#1834);
#861=VERTEX_POINT('',#1836);
#862=VERTEX_POINT('',#1875);
#863=VERTEX_POINT('',#1889);
#864=VERTEX_POINT('',#1906);
#865=VERTEX_POINT('',#1910);
#866=VERTEX_POINT('',#1927);
#867=VERTEX_POINT('',#1928);
#868=VERTEX_POINT('',#1930);
#869=VERTEX_POINT('',#1932);
#870=VERTEX_POINT('',#1944);
#871=VERTEX_POINT('',#1945);
#872=VERTEX_POINT('',#1947);
#873=VERTEX_POINT('',#1949);
#874=EDGE_CURVE('',#776,#777,#1016,.T.);
#875=EDGE_CURVE('',#776,#778,#424,.T.);
#876=EDGE_CURVE('',#779,#778,#1017,.T.);
#877=EDGE_CURVE('',#780,#779,#425,.T.);
#878=EDGE_CURVE('',#781,#780,#1018,.T.);
#879=EDGE_CURVE('',#781,#782,#426,.T.);
#880=EDGE_CURVE('',#782,#783,#1019,.T.);
#881=EDGE_CURVE('',#783,#784,#427,.T.);
#882=EDGE_CURVE('',#785,#784,#1020,.T.);
#883=EDGE_CURVE('',#786,#785,#428,.T.);
#884=EDGE_CURVE('',#787,#786,#1021,.T.);
#885=EDGE_CURVE('',#787,#788,#429,.T.);
#886=EDGE_CURVE('',#789,#788,#1022,.T.);
#887=EDGE_CURVE('',#790,#789,#430,.T.);
#888=EDGE_CURVE('',#791,#790,#1023,.T.);
#889=EDGE_CURVE('',#791,#792,#431,.T.);
#890=EDGE_CURVE('',#792,#793,#1024,.T.);
#891=EDGE_CURVE('',#793,#794,#432,.T.);
#892=EDGE_CURVE('',#795,#794,#1025,.T.);
#893=EDGE_CURVE('',#777,#795,#433,.T.);
#894=EDGE_CURVE('',#796,#796,#434,.T.);
#895=EDGE_CURVE('',#797,#797,#435,.T.);
#896=EDGE_CURVE('',#798,#799,#436,.T.);
#897=EDGE_CURVE('',#799,#800,#1026,.T.);
#898=EDGE_CURVE('',#800,#801,#437,.T.);
#899=EDGE_CURVE('',#801,#798,#1027,.T.);
#900=EDGE_CURVE('',#802,#803,#438,.T.);
#901=EDGE_CURVE('',#803,#804,#1028,.T.);
#902=EDGE_CURVE('',#804,#805,#439,.T.);
#903=EDGE_CURVE('',#805,#802,#1029,.T.);
#904=EDGE_CURVE('',#806,#806,#440,.T.);
#905=EDGE_CURVE('',#807,#807,#441,.T.);
#906=EDGE_CURVE('',#808,#808,#442,.T.);
#907=EDGE_CURVE('',#809,#809,#443,.T.);
#908=EDGE_CURVE('',#810,#810,#444,.T.);
#909=EDGE_CURVE('',#811,#811,#445,.T.);
#910=EDGE_CURVE('',#812,#812,#446,.T.);
#911=EDGE_CURVE('',#813,#813,#447,.T.);
#912=EDGE_CURVE('',#814,#815,#1030,.T.);
#913=EDGE_CURVE('',#815,#816,#448,.T.);
#914=EDGE_CURVE('',#816,#817,#1031,.T.);
#915=EDGE_CURVE('',#817,#814,#449,.T.);
#916=EDGE_CURVE('',#818,#818,#450,.T.);
#917=EDGE_CURVE('',#819,#819,#451,.T.);
#918=EDGE_CURVE('',#820,#820,#452,.T.);
#919=EDGE_CURVE('',#821,#821,#453,.T.);
#920=EDGE_CURVE('',#822,#822,#454,.T.);
#921=EDGE_CURVE('',#823,#823,#455,.T.);
#922=EDGE_CURVE('',#824,#824,#456,.T.);
#923=EDGE_CURVE('',#825,#825,#457,.T.);
#924=EDGE_CURVE('',#826,#826,#458,.T.);
#925=EDGE_CURVE('',#827,#827,#459,.T.);
#926=EDGE_CURVE('',#828,#828,#460,.T.);
#927=EDGE_CURVE('',#829,#829,#461,.T.);
#928=EDGE_CURVE('',#830,#815,#1032,.T.);
#929=EDGE_CURVE('',#830,#831,#462,.T.);
#930=EDGE_CURVE('',#831,#816,#1033,.T.);
#931=EDGE_CURVE('',#831,#832,#1034,.T.);
#932=EDGE_CURVE('',#832,#817,#1035,.T.);
#933=EDGE_CURVE('',#832,#833,#463,.T.);
#934=EDGE_CURVE('',#833,#814,#1036,.T.);
#935=EDGE_CURVE('',#833,#830,#1037,.T.);
#936=EDGE_CURVE('',#834,#835,#1038,.T.);
#937=EDGE_CURVE('',#834,#836,#464,.T.);
#938=EDGE_CURVE('',#837,#836,#1039,.T.);
#939=EDGE_CURVE('',#837,#838,#465,.T.);
#940=EDGE_CURVE('',#839,#838,#108,.T.);
#941=EDGE_CURVE('',#839,#840,#466,.T.);
#942=EDGE_CURVE('',#841,#840,#109,.T.);
#943=EDGE_CURVE('',#841,#842,#467,.T.);
#944=EDGE_CURVE('',#843,#842,#110,.T.);
#945=EDGE_CURVE('',#843,#844,#468,.T.);
#946=EDGE_CURVE('',#845,#844,#111,.T.);
#947=EDGE_CURVE('',#845,#835,#469,.T.);
#948=EDGE_CURVE('',#846,#847,#1040,.T.);
#949=EDGE_CURVE('',#846,#834,#1041,.T.);
#950=EDGE_CURVE('',#835,#847,#1042,.T.);
#951=EDGE_CURVE('',#836,#848,#1043,.T.);
#952=EDGE_CURVE('',#849,#848,#1044,.T.);
#953=EDGE_CURVE('',#849,#837,#1045,.T.);
#954=EDGE_CURVE('',#848,#846,#470,.T.);
#955=EDGE_CURVE('',#847,#850,#471,.T.);
#956=EDGE_CURVE('',#851,#850,#112,.T.);
#957=EDGE_CURVE('',#851,#852,#472,.T.);
#958=EDGE_CURVE('',#853,#852,#113,.T.);
#959=EDGE_CURVE('',#853,#854,#473,.T.);
#960=EDGE_CURVE('',#855,#854,#114,.T.);
#961=EDGE_CURVE('',#855,#856,#474,.T.);
#962=EDGE_CURVE('',#857,#856,#115,.T.);
#963=EDGE_CURVE('',#857,#849,#475,.T.);
#964=EDGE_CURVE('',#858,#855,#1046,.T.);
#965=EDGE_CURVE('',#859,#858,#476,.T.);
#966=EDGE_CURVE('',#856,#859,#1047,.T.);
#967=EDGE_CURVE('',#785,#859,#1048,.T.);
#968=EDGE_CURVE('',#786,#858,#1049,.T.);
#969=EDGE_CURVE('',#784,#857,#116,.T.);
#970=EDGE_CURVE('',#854,#787,#117,.T.);
#971=EDGE_CURVE('',#860,#851,#1050,.T.);
#972=EDGE_CURVE('',#861,#860,#477,.T.);
#973=EDGE_CURVE('',#852,#861,#1051,.T.);
#974=EDGE_CURVE('',#788,#853,#118,.T.);
#975=EDGE_CURVE('',#789,#861,#1052,.T.);
#976=EDGE_CURVE('',#850,#791,#119,.T.);
#977=EDGE_CURVE('',#790,#860,#1053,.T.);
#978=EDGE_CURVE('',#794,#845,#120,.T.);
#979=EDGE_CURVE('',#844,#862,#1054,.T.);
#980=EDGE_CURVE('',#795,#862,#1055,.T.);
#981=EDGE_CURVE('',#842,#776,#121,.T.);
#982=EDGE_CURVE('',#777,#863,#1056,.T.);
#983=EDGE_CURVE('',#863,#843,#1057,.T.);
#984=EDGE_CURVE('',#862,#863,#478,.T.);
#985=EDGE_CURVE('',#838,#781,#122,.T.);
#986=EDGE_CURVE('',#780,#864,#1058,.T.);
#987=EDGE_CURVE('',#864,#839,#1059,.T.);
#988=EDGE_CURVE('',#779,#865,#1060,.T.);
#989=EDGE_CURVE('',#865,#864,#479,.T.);
#990=EDGE_CURVE('',#778,#841,#123,.T.);
#991=EDGE_CURVE('',#840,#865,#1061,.T.);
#992=EDGE_CURVE('',#866,#867,#480,.T.);
#993=EDGE_CURVE('',#867,#868,#1062,.T.);
#994=EDGE_CURVE('',#868,#869,#481,.T.);
#995=EDGE_CURVE('',#869,#866,#1063,.T.);
#996=EDGE_CURVE('',#798,#867,#1064,.T.);
#997=EDGE_CURVE('',#799,#866,#1065,.T.);
#998=EDGE_CURVE('',#800,#869,#1066,.T.);
#999=EDGE_CURVE('',#801,#868,#1067,.T.);
#1000=EDGE_CURVE('',#870,#871,#482,.T.);
#1001=EDGE_CURVE('',#871,#872,#1068,.T.);
#1002=EDGE_CURVE('',#872,#873,#483,.T.);
#1003=EDGE_CURVE('',#873,#870,#1069,.T.);
#1004=EDGE_CURVE('',#802,#871,#1070,.T.);
#1005=EDGE_CURVE('',#803,#870,#1071,.T.);
#1006=EDGE_CURVE('',#804,#873,#1072,.T.);
#1007=EDGE_CURVE('',#805,#872,#1073,.T.);
#1008=EDGE_CURVE('',#848,#831,#484,.T.);
#1009=EDGE_CURVE('',#832,#836,#485,.T.);
#1010=EDGE_CURVE('',#833,#834,#486,.T.);
#1011=EDGE_CURVE('',#846,#830,#487,.T.);
#1012=EDGE_CURVE('',#849,#783,#488,.T.);
#1013=EDGE_CURVE('',#837,#782,#489,.T.);
#1014=EDGE_CURVE('',#792,#847,#490,.T.);
#1015=EDGE_CURVE('',#793,#835,#491,.T.);
#1016=LINE('',#1584,#1074);
#1017=LINE('',#1589,#1075);
#1018=LINE('',#1593,#1076);
#1019=LINE('',#1597,#1077);
#1020=LINE('',#1601,#1078);
#1021=LINE('',#1605,#1079);
#1022=LINE('',#1609,#1080);
#1023=LINE('',#1613,#1081);
#1024=LINE('',#1617,#1082);
#1025=LINE('',#1621,#1083);
#1026=LINE('',#1631,#1084);
#1027=LINE('',#1635,#1085);
#1028=LINE('',#1639,#1086);
#1029=LINE('',#1643,#1087);
#1030=LINE('',#1665,#1088);
#1031=LINE('',#1670,#1089);
#1032=LINE('',#1704,#1090);
#1033=LINE('',#1708,#1091);
#1034=LINE('',#1710,#1092);
#1035=LINE('',#1712,#1093);
#1036=LINE('',#1716,#1094);
#1037=LINE('',#1718,#1095);
#1038=LINE('',#1722,#1096);
#1039=LINE('',#1727,#1097);
#1040=LINE('',#1759,#1098);
#1041=LINE('',#1762,#1099);
#1042=LINE('',#1763,#1100);
#1043=LINE('',#1765,#1101);
#1044=LINE('',#1767,#1102);
#1045=LINE('',#1769,#1103);
#1046=LINE('',#1802,#1104);
#1047=LINE('',#1806,#1105);
#1048=LINE('',#1808,#1106);
#1049=LINE('',#1809,#1107);
#1050=LINE('',#1833,#1108);
#1051=LINE('',#1837,#1109);
#1052=LINE('',#1849,#1110);
#1053=LINE('',#1861,#1111);
#1054=LINE('',#1874,#1112);
#1055=LINE('',#1876,#1113);
#1056=LINE('',#1888,#1114);
#1057=LINE('',#1890,#1115);
#1058=LINE('',#1905,#1116);
#1059=LINE('',#1907,#1117);
#1060=LINE('',#1909,#1118);
#1061=LINE('',#1923,#1119);
#1062=LINE('',#1929,#1120);
#1063=LINE('',#1933,#1121);
#1064=LINE('',#1935,#1122);
#1065=LINE('',#1936,#1123);
#1066=LINE('',#1938,#1124);
#1067=LINE('',#1940,#1125);
#1068=LINE('',#1946,#1126);
#1069=LINE('',#1950,#1127);
#1070=LINE('',#1952,#1128);
#1071=LINE('',#1953,#1129);
#1072=LINE('',#1955,#1130);
#1073=LINE('',#1957,#1131);
#1074=VECTOR('',#1265,1.);
#1075=VECTOR('',#1268,1.);
#1076=VECTOR('',#1271,1.);
#1077=VECTOR('',#1274,1.);
#1078=VECTOR('',#1277,1.);
#1079=VECTOR('',#1280,1.);
#1080=VECTOR('',#1283,1.);
#1081=VECTOR('',#1286,1.);
#1082=VECTOR('',#1289,1.);
#1083=VECTOR('',#1292,1.);
#1084=VECTOR('',#1301,1.);
#1085=VECTOR('',#1304,1.);
#1086=VECTOR('',#1307,1.);
#1087=VECTOR('',#1310,1.);
#1088=VECTOR('',#1337,1.);
#1089=VECTOR('',#1340,1.);
#1090=VECTOR('',#1381,1.);
#1091=VECTOR('',#1384,1.);
#1092=VECTOR('',#1387,1.);
#1093=VECTOR('',#1388,1.);
#1094=VECTOR('',#1393,1.);
#1095=VECTOR('',#1396,1.);
#1096=VECTOR('',#1403,1.);
#1097=VECTOR('',#1406,1.);
#1098=VECTOR('',#1419,1.);
#1099=VECTOR('',#1420,1.);
#1100=VECTOR('',#1421,1.);
#1101=VECTOR('',#1424,1.);
#1102=VECTOR('',#1425,1.);
#1103=VECTOR('',#1426,1.);
#1104=VECTOR('',#1443,1.);
#1105=VECTOR('',#1446,1.);
#1106=VECTOR('',#1449,1.);
#1107=VECTOR('',#1450,1.);
#1108=VECTOR('',#1457,1.);
#1109=VECTOR('',#1460,1.);
#1110=VECTOR('',#1463,1.);
#1111=VECTOR('',#1466,1.);
#1112=VECTOR('',#1471,1.);
#1113=VECTOR('',#1472,1.);
#1114=VECTOR('',#1475,1.);
#1115=VECTOR('',#1476,1.);
#1116=VECTOR('',#1485,1.);
#1117=VECTOR('',#1486,1.);
#1118=VECTOR('',#1489,1.);
#1119=VECTOR('',#1494,1.);
#1120=VECTOR('',#1501,1.);
#1121=VECTOR('',#1504,1.);
#1122=VECTOR('',#1507,1.);
#1123=VECTOR('',#1508,1.);
#1124=VECTOR('',#1511,1.);
#1125=VECTOR('',#1514,1.);
#1126=VECTOR('',#1521,1.);
#1127=VECTOR('',#1524,1.);
#1128=VECTOR('',#1527,1.);
#1129=VECTOR('',#1528,1.);
#1130=VECTOR('',#1531,1.);
#1131=VECTOR('',#1534,1.);
#1132=AXIS2_PLACEMENT_3D('',#1583,#1263,#1264);
#1133=AXIS2_PLACEMENT_3D('',#1587,#1266,#1267);
#1134=AXIS2_PLACEMENT_3D('',#1591,#1269,#1270);
#1135=AXIS2_PLACEMENT_3D('',#1595,#1272,#1273);
#1136=AXIS2_PLACEMENT_3D('',#1599,#1275,#1276);
#1137=AXIS2_PLACEMENT_3D('',#1603,#1278,#1279);
#1138=AXIS2_PLACEMENT_3D('',#1607,#1281,#1282);
#1139=AXIS2_PLACEMENT_3D('',#1611,#1284,#1285);
#1140=AXIS2_PLACEMENT_3D('',#1615,#1287,#1288);
#1141=AXIS2_PLACEMENT_3D('',#1619,#1290,#1291);
#1142=AXIS2_PLACEMENT_3D('',#1623,#1293,#1294);
#1143=AXIS2_PLACEMENT_3D('',#1624,#1295,#1296);
#1144=AXIS2_PLACEMENT_3D('',#1626,#1297,#1298);
#1145=AXIS2_PLACEMENT_3D('',#1628,#1299,#1300);
#1146=AXIS2_PLACEMENT_3D('',#1633,#1302,#1303);
#1147=AXIS2_PLACEMENT_3D('',#1636,#1305,#1306);
#1148=AXIS2_PLACEMENT_3D('',#1641,#1308,#1309);
#1149=AXIS2_PLACEMENT_3D('',#1644,#1311,#1312);
#1150=AXIS2_PLACEMENT_3D('',#1645,#1313,#1314);
#1151=AXIS2_PLACEMENT_3D('',#1647,#1315,#1316);
#1152=AXIS2_PLACEMENT_3D('',#1649,#1317,#1318);
#1153=AXIS2_PLACEMENT_3D('',#1650,#1319,#1320);
#1154=AXIS2_PLACEMENT_3D('',#1652,#1321,#1322);
#1155=AXIS2_PLACEMENT_3D('',#1654,#1323,#1324);
#1156=AXIS2_PLACEMENT_3D('',#1655,#1325,#1326);
#1157=AXIS2_PLACEMENT_3D('',#1657,#1327,#1328);
#1158=AXIS2_PLACEMENT_3D('',#1659,#1329,#1330);
#1159=AXIS2_PLACEMENT_3D('',#1660,#1331,#1332);
#1160=AXIS2_PLACEMENT_3D('',#1662,#1333,#1334);
#1161=AXIS2_PLACEMENT_3D('',#1664,#1335,#1336);
#1162=AXIS2_PLACEMENT_3D('',#1668,#1338,#1339);
#1163=AXIS2_PLACEMENT_3D('',#1672,#1341,#1342);
#1164=AXIS2_PLACEMENT_3D('',#1673,#1343,#1344);
#1165=AXIS2_PLACEMENT_3D('',#1675,#1345,#1346);
#1166=AXIS2_PLACEMENT_3D('',#1677,#1347,#1348);
#1167=AXIS2_PLACEMENT_3D('',#1679,#1349,#1350);
#1168=AXIS2_PLACEMENT_3D('',#1681,#1351,#1352);
#1169=AXIS2_PLACEMENT_3D('',#1682,#1353,#1354);
#1170=AXIS2_PLACEMENT_3D('',#1684,#1355,#1356);
#1171=AXIS2_PLACEMENT_3D('',#1686,#1357,#1358);
#1172=AXIS2_PLACEMENT_3D('',#1687,#1359,#1360);
#1173=AXIS2_PLACEMENT_3D('',#1689,#1361,#1362);
#1174=AXIS2_PLACEMENT_3D('',#1691,#1363,#1364);
#1175=AXIS2_PLACEMENT_3D('',#1692,#1365,#1366);
#1176=AXIS2_PLACEMENT_3D('',#1694,#1367,#1368);
#1177=AXIS2_PLACEMENT_3D('',#1695,#1369,#1370);
#1178=AXIS2_PLACEMENT_3D('',#1697,#1371,#1372);
#1179=AXIS2_PLACEMENT_3D('',#1698,#1373,#1374);
#1180=AXIS2_PLACEMENT_3D('',#1700,#1375,#1376);
#1181=AXIS2_PLACEMENT_3D('',#1701,#1377,#1378);
#1182=AXIS2_PLACEMENT_3D('',#1703,#1379,#1380);
#1183=AXIS2_PLACEMENT_3D('',#1706,#1382,#1383);
#1184=AXIS2_PLACEMENT_3D('',#1709,#1385,#1386);
#1185=AXIS2_PLACEMENT_3D('',#1713,#1389,#1390);
#1186=AXIS2_PLACEMENT_3D('',#1714,#1391,#1392);
#1187=AXIS2_PLACEMENT_3D('',#1717,#1394,#1395);
#1188=AXIS2_PLACEMENT_3D('',#1719,#1397,#1398);
#1189=AXIS2_PLACEMENT_3D('',#1720,#1399,#1400);
#1190=AXIS2_PLACEMENT_3D('',#1721,#1401,#1402);
#1191=AXIS2_PLACEMENT_3D('',#1725,#1404,#1405);
#1192=AXIS2_PLACEMENT_3D('',#1729,#1407,#1408);
#1193=AXIS2_PLACEMENT_3D('',#1736,#1409,#1410);
#1194=AXIS2_PLACEMENT_3D('',#1743,#1411,#1412);
#1195=AXIS2_PLACEMENT_3D('',#1750,#1413,#1414);
#1196=AXIS2_PLACEMENT_3D('',#1757,#1415,#1416);
#1197=AXIS2_PLACEMENT_3D('',#1758,#1417,#1418);
#1198=AXIS2_PLACEMENT_3D('',#1764,#1422,#1423);
#1199=AXIS2_PLACEMENT_3D('',#1770,#1427,#1428);
#1200=AXIS2_PLACEMENT_3D('',#1771,#1429,#1430);
#1201=AXIS2_PLACEMENT_3D('',#1772,#1431,#1432);
#1202=AXIS2_PLACEMENT_3D('',#1779,#1433,#1434);
#1203=AXIS2_PLACEMENT_3D('',#1786,#1435,#1436);
#1204=AXIS2_PLACEMENT_3D('',#1793,#1437,#1438);
#1205=AXIS2_PLACEMENT_3D('',#1800,#1439,#1440);
#1206=AXIS2_PLACEMENT_3D('',#1801,#1441,#1442);
#1207=AXIS2_PLACEMENT_3D('',#1804,#1444,#1445);
#1208=AXIS2_PLACEMENT_3D('',#1807,#1447,#1448);
#1209=AXIS2_PLACEMENT_3D('',#1810,#1451,#1452);
#1210=AXIS2_PLACEMENT_3D('',#1821,#1453,#1454);
#1211=AXIS2_PLACEMENT_3D('',#1832,#1455,#1456);
#1212=AXIS2_PLACEMENT_3D('',#1835,#1458,#1459);
#1213=AXIS2_PLACEMENT_3D('',#1838,#1461,#1462);
#1214=AXIS2_PLACEMENT_3D('',#1850,#1464,#1465);
#1215=AXIS2_PLACEMENT_3D('',#1862,#1467,#1468);
#1216=AXIS2_PLACEMENT_3D('',#1863,#1469,#1470);
#1217=AXIS2_PLACEMENT_3D('',#1877,#1473,#1474);
#1218=AXIS2_PLACEMENT_3D('',#1891,#1477,#1478);
#1219=AXIS2_PLACEMENT_3D('',#1892,#1479,#1480);
#1220=AXIS2_PLACEMENT_3D('',#1893,#1481,#1482);
#1221=AXIS2_PLACEMENT_3D('',#1894,#1483,#1484);
#1222=AXIS2_PLACEMENT_3D('',#1908,#1487,#1488);
#1223=AXIS2_PLACEMENT_3D('',#1911,#1490,#1491);
#1224=AXIS2_PLACEMENT_3D('',#1912,#1492,#1493);
#1225=AXIS2_PLACEMENT_3D('',#1924,#1495,#1496);
#1226=AXIS2_PLACEMENT_3D('',#1925,#1497,#1498);
#1227=AXIS2_PLACEMENT_3D('',#1926,#1499,#1500);
#1228=AXIS2_PLACEMENT_3D('',#1931,#1502,#1503);
#1229=AXIS2_PLACEMENT_3D('',#1934,#1505,#1506);
#1230=AXIS2_PLACEMENT_3D('',#1937,#1509,#1510);
#1231=AXIS2_PLACEMENT_3D('',#1939,#1512,#1513);
#1232=AXIS2_PLACEMENT_3D('',#1941,#1515,#1516);
#1233=AXIS2_PLACEMENT_3D('',#1942,#1517,#1518);
#1234=AXIS2_PLACEMENT_3D('',#1943,#1519,#1520);
#1235=AXIS2_PLACEMENT_3D('',#1948,#1522,#1523);
#1236=AXIS2_PLACEMENT_3D('',#1951,#1525,#1526);
#1237=AXIS2_PLACEMENT_3D('',#1954,#1529,#1530);
#1238=AXIS2_PLACEMENT_3D('',#1956,#1532,#1533);
#1239=AXIS2_PLACEMENT_3D('',#1958,#1535,#1536);
#1240=AXIS2_PLACEMENT_3D('',#1959,#1537,#1538);
#1241=AXIS2_PLACEMENT_3D('',#1960,#1539,#1540);
#1242=AXIS2_PLACEMENT_3D('',#1961,#1541,#1542);
#1243=AXIS2_PLACEMENT_3D('',#1962,#1543,#1544);
#1244=AXIS2_PLACEMENT_3D('',#1963,#1545,#1546);
#1245=AXIS2_PLACEMENT_3D('',#1964,#1547,#1548);
#1246=AXIS2_PLACEMENT_3D('',#1965,#1549,#1550);
#1247=AXIS2_PLACEMENT_3D('',#1966,#1551,#1552);
#1248=AXIS2_PLACEMENT_3D('',#1967,#1553,#1554);
#1249=AXIS2_PLACEMENT_3D('',#1968,#1555,#1556);
#1250=AXIS2_PLACEMENT_3D('',#1969,#1557,#1558);
#1251=AXIS2_PLACEMENT_3D('',#1970,#1559,#1560);
#1252=AXIS2_PLACEMENT_3D('',#1971,#1561,#1562);
#1253=AXIS2_PLACEMENT_3D('',#1972,#1563,#1564);
#1254=AXIS2_PLACEMENT_3D('',#1973,#1565,#1566);
#1255=AXIS2_PLACEMENT_3D('',#1974,#1567,#1568);
#1256=AXIS2_PLACEMENT_3D('',#1975,#1569,#1570);
#1257=AXIS2_PLACEMENT_3D('',#1976,#1571,#1572);
#1258=AXIS2_PLACEMENT_3D('',#1977,#1573,#1574);
#1259=AXIS2_PLACEMENT_3D('',#1978,#1575,#1576);
#1260=AXIS2_PLACEMENT_3D('',#1979,#1577,#1578);
#1261=AXIS2_PLACEMENT_3D('',#1980,#1579,#1580);
#1262=AXIS2_PLACEMENT_3D('',#1981,#1581,#1582);
#1263=DIRECTION('',(0.,0.,1.));
#1264=DIRECTION('',(1.,0.,0.));
#1265=DIRECTION('',(-0.707106781183931,-0.707106781189163,0.));
#1266=DIRECTION('',(0.,0.,-1.));
#1267=DIRECTION('',(1.,0.,0.));
#1268=DIRECTION('',(0.707106781183931,-0.707106781189163,0.));
#1269=DIRECTION('',(0.,0.,-1.));
#1270=DIRECTION('',(-0.999999999999999,0.,0.));
#1271=DIRECTION('',(-0.707106781183933,0.707106781189162,0.));
#1272=DIRECTION('',(0.,0.,-1.));
#1273=DIRECTION('',(1.,0.,0.));
#1274=DIRECTION('',(-1.,0.,0.));
#1275=DIRECTION('',(0.,0.,-1.));
#1276=DIRECTION('',(1.,0.,0.));
#1277=DIRECTION('',(-0.707106781183933,-0.707106781189162,0.));
#1278=DIRECTION('',(0.,0.,-1.));
#1279=DIRECTION('',(0.999999999999999,0.,0.));
#1280=DIRECTION('',(0.707106781183931,0.707106781189163,0.));
#1281=DIRECTION('',(0.,0.,-1.));
#1282=DIRECTION('',(1.,0.,0.));
#1283=DIRECTION('',(-0.707106781183931,0.707106781189163,0.));
#1284=DIRECTION('',(0.,0.,-1.));
#1285=DIRECTION('',(0.999999999999999,0.,0.));
#1286=DIRECTION('',(0.707106781183933,-0.707106781189162,0.));
#1287=DIRECTION('',(0.,0.,-1.));
#1288=DIRECTION('',(1.,0.,0.));
#1289=DIRECTION('',(1.,0.,0.));
#1290=DIRECTION('',(0.,0.,-1.));
#1291=DIRECTION('',(1.,0.,0.));
#1292=DIRECTION('',(0.707106781183933,0.707106781189162,0.));
#1293=DIRECTION('',(0.,0.,-1.));
#1294=DIRECTION('',(-0.999999999999999,0.,0.));
#1295=DIRECTION('',(0.,0.,1.));
#1296=DIRECTION('',(1.,0.,0.));
#1297=DIRECTION('',(0.,0.,1.));
#1298=DIRECTION('',(1.,0.,0.));
#1299=DIRECTION('',(0.,0.,1.));
#1300=DIRECTION('',(1.,0.,0.));
#1301=DIRECTION('',(1.,0.,0.));
#1302=DIRECTION('',(0.,0.,1.));
#1303=DIRECTION('',(1.,0.,0.));
#1304=DIRECTION('',(-1.,0.,0.));
#1305=DIRECTION('',(0.,0.,1.));
#1306=DIRECTION('',(1.,0.,0.));
#1307=DIRECTION('',(1.,0.,0.));
#1308=DIRECTION('',(0.,0.,1.));
#1309=DIRECTION('',(1.,0.,0.));
#1310=DIRECTION('',(-1.,0.,0.));
#1311=DIRECTION('',(0.,0.,1.));
#1312=DIRECTION('',(1.,0.,0.));
#1313=DIRECTION('',(0.,0.,1.));
#1314=DIRECTION('',(0.,-1.,0.));
#1315=DIRECTION('',(0.,0.,-1.));
#1316=DIRECTION('',(-0.999999999999999,0.,0.));
#1317=DIRECTION('',(0.,0.,-1.));
#1318=DIRECTION('',(-0.999999999999999,0.,0.));
#1319=DIRECTION('',(0.,0.,-1.));
#1320=DIRECTION('',(0.,-1.,0.));
#1321=DIRECTION('',(0.,0.,1.));
#1322=DIRECTION('',(-0.999999999999999,0.,0.));
#1323=DIRECTION('',(0.,0.,-1.));
#1324=DIRECTION('',(-0.999999999999999,0.,0.));
#1325=DIRECTION('',(0.,0.,-1.));
#1326=DIRECTION('',(0.999999999999999,0.,0.));
#1327=DIRECTION('',(0.,0.,1.));
#1328=DIRECTION('',(-0.999999999999999,0.,0.));
#1329=DIRECTION('',(0.,0.,-1.));
#1330=DIRECTION('',(-0.999999999999999,0.,0.));
#1331=DIRECTION('',(0.,0.,1.));
#1332=DIRECTION('',(-0.999999999999999,0.,0.));
#1333=DIRECTION('',(0.,0.,-1.));
#1334=DIRECTION('',(-0.999999999999999,0.,0.));
#1335=DIRECTION('',(0.,0.,-1.));
#1336=DIRECTION('',(-0.999999999999999,0.,0.));
#1337=DIRECTION('',(-1.,0.,0.));
#1338=DIRECTION('',(0.,0.,1.));
#1339=DIRECTION('',(1.,0.,0.));
#1340=DIRECTION('',(1.,0.,0.));
#1341=DIRECTION('',(0.,0.,1.));
#1342=DIRECTION('',(1.,0.,0.));
#1343=DIRECTION('',(0.,0.,1.));
#1344=DIRECTION('',(0.,1.,0.));
#1345=DIRECTION('',(0.,0.,1.));
#1346=DIRECTION('',(1.,0.,0.));
#1347=DIRECTION('',(0.,0.,-1.));
#1348=DIRECTION('',(-1.,0.,0.));
#1349=DIRECTION('',(0.,0.,-1.));
#1350=DIRECTION('',(0.,1.,0.));
#1351=DIRECTION('',(0.,0.,1.));
#1352=DIRECTION('',(1.,0.,0.));
#1353=DIRECTION('',(0.,0.,-1.));
#1354=DIRECTION('',(1.,0.,0.));
#1355=DIRECTION('',(0.,0.,-1.));
#1356=DIRECTION('',(1.,1.22464679914735E-16,0.));
#1357=DIRECTION('',(0.,0.,-1.));
#1358=DIRECTION('',(-1.,0.,0.));
#1359=DIRECTION('',(0.,0.,-1.));
#1360=DIRECTION('',(1.,0.,0.));
#1361=DIRECTION('',(0.,0.,-1.));
#1362=DIRECTION('',(1.,1.22464679914735E-16,0.));
#1363=DIRECTION('',(0.,0.,-1.));
#1364=DIRECTION('',(-1.,0.,0.));
#1365=DIRECTION('',(0.,0.,-1.));
#1366=DIRECTION('',(1.,0.,0.));
#1367=DIRECTION('',(0.,0.,-1.));
#1368=DIRECTION('',(-1.,0.,0.));
#1369=DIRECTION('',(0.,0.,1.));
#1370=DIRECTION('',(1.,0.,0.));
#1371=DIRECTION('',(0.,0.,-1.));
#1372=DIRECTION('',(-1.,0.,0.));
#1373=DIRECTION('',(0.,0.,1.));
#1374=DIRECTION('',(1.,0.,0.));
#1375=DIRECTION('',(0.,0.,-1.));
#1376=DIRECTION('',(-1.,0.,0.));
#1377=DIRECTION('',(0.,0.,-1.));
#1378=DIRECTION('',(1.,0.,0.));
#1379=DIRECTION('',(0.,0.,-1.));
#1380=DIRECTION('',(-1.,0.,0.));
#1381=DIRECTION('',(0.,0.,1.));
#1382=DIRECTION('',(0.,0.,1.));
#1383=DIRECTION('',(-1.,0.,0.));
#1384=DIRECTION('',(0.,0.,1.));
#1385=DIRECTION('',(0.,0.,1.));
#1386=DIRECTION('',(1.,0.,0.));
#1387=DIRECTION('',(1.,0.,0.));
#1388=DIRECTION('',(0.,0.,1.));
#1389=DIRECTION('',(0.,-1.,0.));
#1390=DIRECTION('',(0.,0.,-1.));
#1391=DIRECTION('',(0.,0.,1.));
#1392=DIRECTION('',(-1.,0.,0.));
#1393=DIRECTION('',(0.,0.,1.));
#1394=DIRECTION('',(0.,0.,1.));
#1395=DIRECTION('',(1.,0.,0.));
#1396=DIRECTION('',(-1.,0.,0.));
#1397=DIRECTION('',(0.,1.,0.));
#1398=DIRECTION('',(0.,0.,1.));
#1399=DIRECTION('',(0.,0.,-1.));
#1400=DIRECTION('',(-1.,0.,0.));
#1401=DIRECTION('',(0.,0.,-1.));
#1402=DIRECTION('',(-1.,0.,0.));
#1403=DIRECTION('',(0.,-0.707106781186548,-0.707106781186548));
#1404=DIRECTION('',(0.,0.,-1.));
#1405=DIRECTION('',(-1.,0.,0.));
#1406=DIRECTION('',(0.,-0.707106781186548,0.707106781186548));
#1407=DIRECTION('',(0.,0.,1.));
#1408=DIRECTION('',(1.,0.,0.));
#1409=DIRECTION('',(0.,0.,1.));
#1410=DIRECTION('',(-1.,0.,0.));
#1411=DIRECTION('',(0.,0.,1.));
#1412=DIRECTION('',(1.,0.,0.));
#1413=DIRECTION('',(0.,0.,1.));
#1414=DIRECTION('',(-1.,0.,0.));
#1415=DIRECTION('',(0.,0.,1.));
#1416=DIRECTION('',(1.,0.,0.));
#1417=DIRECTION('',(0.,0.,1.));
#1418=DIRECTION('',(1.,0.,3.38317596484994E-18));
#1419=DIRECTION('',(0.,-0.707106781186548,-0.707106781186548));
#1420=DIRECTION('',(1.,0.,0.));
#1421=DIRECTION('',(-1.,0.,0.));
#1422=DIRECTION('',(0.,0.707106781186548,-0.707106781186548));
#1423=DIRECTION('',(1.,0.,0.));
#1424=DIRECTION('',(-1.,0.,0.));
#1425=DIRECTION('',(-2.82248652143076E-12,-0.707106781186548,0.707106781186548));
#1426=DIRECTION('',(1.,0.,0.));
#1427=DIRECTION('',(0.,-0.707106781186548,-0.707106781186548));
#1428=DIRECTION('',(-1.,0.,0.));
#1429=DIRECTION('',(0.,0.,-1.));
#1430=DIRECTION('',(-1.,0.,0.));
#1431=DIRECTION('',(0.,0.,1.));
#1432=DIRECTION('',(1.,0.,0.));
#1433=DIRECTION('',(0.,0.,1.));
#1434=DIRECTION('',(-1.,0.,0.));
#1435=DIRECTION('',(0.,0.,1.));
#1436=DIRECTION('',(1.,0.,0.));
#1437=DIRECTION('',(0.,0.,1.));
#1438=DIRECTION('',(-1.,0.,0.));
#1439=DIRECTION('',(0.,0.,1.));
#1440=DIRECTION('',(1.,0.,0.));
#1441=DIRECTION('',(0.,0.,1.));
#1442=DIRECTION('',(1.,0.,3.38317596484994E-18));
#1443=DIRECTION('',(-0.707106781183931,-0.707106781189163,0.));
#1444=DIRECTION('',(0.,0.,1.));
#1445=DIRECTION('',(0.999999999999999,0.,0.));
#1446=DIRECTION('',(0.707106781183933,0.707106781189162,0.));
#1447=DIRECTION('',(0.,0.,-1.));
#1448=DIRECTION('',(-1.,0.,0.));
#1449=DIRECTION('',(0.,0.,1.));
#1450=DIRECTION('',(0.,0.,1.));
#1451=DIRECTION('',(0.,0.,-1.));
#1452=DIRECTION('',(-0.999999999999999,0.,0.));
#1453=DIRECTION('',(0.707106781189162,-0.707106781183933,0.));
#1454=DIRECTION('',(0.707106781183933,0.707106781189162,0.));
#1455=DIRECTION('',(-0.707106781189163,0.707106781183932,0.));
#1456=DIRECTION('',(-0.707106781183932,-0.707106781189163,0.));
#1457=DIRECTION('',(-0.707106781183933,0.707106781189162,0.));
#1458=DIRECTION('',(0.,0.,1.));
#1459=DIRECTION('',(0.999999999999999,0.,0.));
#1460=DIRECTION('',(0.707106781183931,-0.707106781189163,0.));
#1461=DIRECTION('',(0.,0.,-1.));
#1462=DIRECTION('',(-1.,0.,0.));
#1463=DIRECTION('',(0.,0.,1.));
#1464=DIRECTION('',(-0.707106781189163,-0.707106781183932,0.));
#1465=DIRECTION('',(0.707106781183932,-0.707106781189163,0.));
#1466=DIRECTION('',(0.,0.,1.));
#1467=DIRECTION('',(0.707106781189162,0.707106781183933,0.));
#1468=DIRECTION('',(-0.707106781183933,0.707106781189162,0.));
#1469=DIRECTION('',(0.,0.,-1.));
#1470=DIRECTION('',(-0.999999999999999,0.,0.));
#1471=DIRECTION('',(-0.707106781183933,-0.707106781189162,0.));
#1472=DIRECTION('',(0.,0.,1.));
#1473=DIRECTION('',(-0.707106781189162,0.707106781183933,0.));
#1474=DIRECTION('',(-0.707106781183933,-0.707106781189162,0.));
#1475=DIRECTION('',(0.,0.,1.));
#1476=DIRECTION('',(0.707106781183931,0.707106781189163,0.));
#1477=DIRECTION('',(0.707106781189163,-0.707106781183932,0.));
#1478=DIRECTION('',(0.707106781183932,0.707106781189163,0.));
#1479=DIRECTION('',(0.,0.,1.));
#1480=DIRECTION('',(-0.999999999999999,0.,0.));
#1481=DIRECTION('',(0.,0.,-1.));
#1482=DIRECTION('',(-0.999999999999999,0.,0.));
#1483=DIRECTION('',(0.,0.,-1.));
#1484=DIRECTION('',(-1.,0.,0.));
#1485=DIRECTION('',(0.,0.,1.));
#1486=DIRECTION('',(0.707106781183933,-0.707106781189162,0.));
#1487=DIRECTION('',(-0.707106781189162,-0.707106781183933,0.));
#1488=DIRECTION('',(0.707106781183933,-0.707106781189162,0.));
#1489=DIRECTION('',(0.,0.,1.));
#1490=DIRECTION('',(0.,0.,1.));
#1491=DIRECTION('',(-0.999999999999999,0.,0.));
#1492=DIRECTION('',(0.,0.,-1.));
#1493=DIRECTION('',(-0.999999999999999,0.,0.));
#1494=DIRECTION('',(-0.707106781183931,0.707106781189163,0.));
#1495=DIRECTION('',(0.707106781189163,0.707106781183932,0.));
#1496=DIRECTION('',(-0.707106781183932,0.707106781189163,0.));
#1497=DIRECTION('',(0.,0.,-1.));
#1498=DIRECTION('',(-1.,0.,0.));
#1499=DIRECTION('',(0.,0.,-1.));
#1500=DIRECTION('',(1.,0.,0.));
#1501=DIRECTION('',(1.,0.,0.));
#1502=DIRECTION('',(0.,0.,-1.));
#1503=DIRECTION('',(1.,0.,0.));
#1504=DIRECTION('',(-1.,0.,0.));
#1505=DIRECTION('',(0.,0.,1.));
#1506=DIRECTION('',(1.,0.,0.));
#1507=DIRECTION('',(0.,0.,1.));
#1508=DIRECTION('',(0.,0.,1.));
#1509=DIRECTION('',(0.,0.,-1.));
#1510=DIRECTION('',(-1.,0.,0.));
#1511=DIRECTION('',(0.,0.,1.));
#1512=DIRECTION('',(0.,1.,0.));
#1513=DIRECTION('',(0.,0.,1.));
#1514=DIRECTION('',(0.,0.,1.));
#1515=DIRECTION('',(0.,0.,-1.));
#1516=DIRECTION('',(-1.,0.,0.));
#1517=DIRECTION('',(0.,-1.,0.));
#1518=DIRECTION('',(0.,0.,-1.));
#1519=DIRECTION('',(0.,0.,-1.));
#1520=DIRECTION('',(1.,0.,0.));
#1521=DIRECTION('',(1.,0.,0.));
#1522=DIRECTION('',(0.,0.,-1.));
#1523=DIRECTION('',(1.,0.,0.));
#1524=DIRECTION('',(-1.,0.,0.));
#1525=DIRECTION('',(0.,0.,1.));
#1526=DIRECTION('',(1.,0.,0.));
#1527=DIRECTION('',(0.,0.,1.));
#1528=DIRECTION('',(0.,0.,1.));
#1529=DIRECTION('',(0.,0.,-1.));
#1530=DIRECTION('',(-1.,0.,0.));
#1531=DIRECTION('',(0.,0.,1.));
#1532=DIRECTION('',(0.,1.,0.));
#1533=DIRECTION('',(0.,0.,1.));
#1534=DIRECTION('',(0.,0.,1.));
#1535=DIRECTION('',(0.,0.,-1.));
#1536=DIRECTION('',(-1.,0.,0.));
#1537=DIRECTION('',(0.,-1.,0.));
#1538=DIRECTION('',(0.,0.,-1.));
#1539=DIRECTION('',(0.,0.,-1.));
#1540=DIRECTION('',(-1.,0.,0.));
#1541=DIRECTION('',(0.,0.,-1.));
#1542=DIRECTION('',(-1.,0.,0.));
#1543=DIRECTION('',(-1.,1.16920362280837E-12,-1.16920362280837E-12));
#1544=DIRECTION('',(-1.16920362280837E-12,0.,1.));
#1545=DIRECTION('',(1.,0.,0.));
#1546=DIRECTION('',(0.,0.,-1.));
#1547=DIRECTION('',(1.,0.,0.));
#1548=DIRECTION('',(0.,0.,-1.));
#1549=DIRECTION('',(-1.,0.,0.));
#1550=DIRECTION('',(0.,0.,1.));
#1551=DIRECTION('',(0.,0.,-1.));
#1552=DIRECTION('',(-1.,0.,0.));
#1553=DIRECTION('',(1.,0.,0.));
#1554=DIRECTION('',(0.,0.,-1.));
#1555=DIRECTION('',(0.,0.,-1.));
#1556=DIRECTION('',(-1.,0.,0.));
#1557=DIRECTION('',(-1.,0.,0.));
#1558=DIRECTION('',(0.,0.,1.));
#1559=DIRECTION('',(0.,0.,1.));
#1560=DIRECTION('',(1.,0.,0.));
#1561=DIRECTION('',(1.,-3.99146942231016E-12,0.));
#1562=DIRECTION('',(3.99159871822263E-12,0.999999999999999,0.));
#1563=DIRECTION('',(0.,0.,1.));
#1564=DIRECTION('',(1.,0.,0.));
#1565=DIRECTION('',(1.,0.,0.));
#1566=DIRECTION('',(0.,0.,-1.));
#1567=DIRECTION('',(1.,0.,0.));
#1568=DIRECTION('',(0.,0.,-1.));
#1569=DIRECTION('',(0.,0.,1.));
#1570=DIRECTION('',(1.,0.,0.));
#1571=DIRECTION('',(1.,0.,0.));
#1572=DIRECTION('',(0.,0.,-1.));
#1573=DIRECTION('',(0.,0.,1.));
#1574=DIRECTION('',(1.,0.,0.));
#1575=DIRECTION('',(1.,0.,0.));
#1576=DIRECTION('',(0.,0.,-1.));
#1577=DIRECTION('',(-1.,0.,0.));
#1578=DIRECTION('',(0.,0.,1.));
#1579=DIRECTION('',(0.,0.,1.));
#1580=DIRECTION('',(1.,0.,0.));
#1581=DIRECTION('',(0.,0.,1.));
#1582=DIRECTION('',(1.,0.,0.));
#1583=CARTESIAN_POINT('',(0.,0.,0.));
#1584=CARTESIAN_POINT('',(37.5895168785185,15.7054548352943,0.));
#1585=CARTESIAN_POINT('',(34.1437424278459,12.2596803845962,0.));
#1586=CARTESIAN_POINT('',(34.0109433406082,12.1268812973575,0.));
#1587=CARTESIAN_POINT('',(17.5,1.06581410364015E-14,0.));
#1588=CARTESIAN_POINT('',(34.1437424278459,-12.2596803845961,0.));
#1589=CARTESIAN_POINT('',(34.0109433406082,-12.1268812973575,0.));
#1590=CARTESIAN_POINT('',(34.0109433406099,-12.1268812973591,0.));
#1591=CARTESIAN_POINT('',(31.8189123189218,-14.3189123190276,0.));
#1592=CARTESIAN_POINT('',(29.6268812972354,-16.5109433406978,0.));
#1593=CARTESIAN_POINT('',(33.2054548351588,-20.0895168786476,0.));
#1594=CARTESIAN_POINT('',(29.7596803844732,-16.6437424279365,0.));
#1595=CARTESIAN_POINT('',(17.5,1.06581410364015E-14,0.));
#1596=CARTESIAN_POINT('',(17.5,-20.6715728752538,0.));
#1597=CARTESIAN_POINT('',(-17.49999999998,-20.6715728752538,0.));
#1598=CARTESIAN_POINT('',(-17.4999999999767,-20.6715728752538,0.));
#1599=CARTESIAN_POINT('',(-17.4999999998942,0.,0.));
#1600=CARTESIAN_POINT('',(-29.7596803844283,-16.6437424278916,0.));
#1601=CARTESIAN_POINT('',(-29.6268812972354,-16.5109433406978,0.));
#1602=CARTESIAN_POINT('',(-29.6268812972399,-16.5109433407023,0.));
#1603=CARTESIAN_POINT('',(-31.8189123189218,-14.3189123190276,0.));
#1604=CARTESIAN_POINT('',(-34.0109433406099,-12.1268812973591,0.));
#1605=CARTESIAN_POINT('',(-37.5895168785185,-15.7054548352943,0.));
#1606=CARTESIAN_POINT('',(-34.143742427785,-12.2596803845352,0.));
#1607=CARTESIAN_POINT('',(-17.4999999998942,0.,0.));
#1608=CARTESIAN_POINT('',(-34.143742427785,12.2596803845352,0.));
#1609=CARTESIAN_POINT('',(-34.0109433406082,12.1268812973575,0.));
#1610=CARTESIAN_POINT('',(-34.0109433406082,12.1268812973575,0.));
#1611=CARTESIAN_POINT('',(-31.8189123189218,14.3189123190276,0.));
#1612=CARTESIAN_POINT('',(-29.6268812972354,16.5109433406978,0.));
#1613=CARTESIAN_POINT('',(-33.2054548351588,20.0895168786476,0.));
#1614=CARTESIAN_POINT('',(-29.7596803844283,16.6437424278916,0.));
#1615=CARTESIAN_POINT('',(-17.4999999998942,0.,0.));
#1616=CARTESIAN_POINT('',(-17.4999999998942,20.6715728752538,0.));
#1617=CARTESIAN_POINT('',(17.5,20.6715728752538,0.));
#1618=CARTESIAN_POINT('',(17.5,20.6715728752538,0.));
#1619=CARTESIAN_POINT('',(17.5,1.06581410364015E-14,0.));
#1620=CARTESIAN_POINT('',(29.7596803844732,16.6437424279365,0.));
#1621=CARTESIAN_POINT('',(29.6268812972354,16.5109433406978,0.));
#1622=CARTESIAN_POINT('',(29.6268812972354,16.5109433406978,0.));
#1623=CARTESIAN_POINT('',(31.8189123189218,14.3189123190276,0.));
#1624=CARTESIAN_POINT('',(17.5,1.09605888523498E-14,0.));
#1625=CARTESIAN_POINT('',(33.5,1.09605888523498E-14,0.));
#1626=CARTESIAN_POINT('',(-17.5,-1.0539526846846E-14,0.));
#1627=CARTESIAN_POINT('',(-1.5,-1.0539526846846E-14,0.));
#1628=CARTESIAN_POINT('',(-3.1810876808667,-14.3189123190276,0.));
#1629=CARTESIAN_POINT('',(-3.18108768084763,-11.2189123190276,0.));
#1630=CARTESIAN_POINT('',(-3.18108768084763,-17.4189123190276,0.));
#1631=CARTESIAN_POINT('',(-3.1810876808667,-17.4189123190276,0.));
#1632=CARTESIAN_POINT('',(3.18108768086659,-17.4189123190276,0.));
#1633=CARTESIAN_POINT('',(3.18108768086659,-14.3189123190276,0.));
#1634=CARTESIAN_POINT('',(3.18108768088566,-11.2189123190276,0.));
#1635=CARTESIAN_POINT('',(3.18108768086659,-11.2189123190276,0.));
#1636=CARTESIAN_POINT('',(-3.18108768086664,14.3189123190275,0.));
#1637=CARTESIAN_POINT('',(-3.18108768084757,17.4189123190276,0.));
#1638=CARTESIAN_POINT('',(-3.18108768084757,11.2189123190275,0.));
#1639=CARTESIAN_POINT('',(-3.18108768086664,11.2189123190276,0.));
#1640=CARTESIAN_POINT('',(3.18108768086663,11.2189123190276,0.));
#1641=CARTESIAN_POINT('',(3.18108768086663,14.3189123190276,0.));
#1642=CARTESIAN_POINT('',(3.1810876808857,17.4189123190276,0.));
#1643=CARTESIAN_POINT('',(3.18108768086663,17.4189123190276,0.));
#1644=CARTESIAN_POINT('',(-17.5,0.,0.));
#1645=CARTESIAN_POINT('',(31.8189123189218,14.3189123190276,6.));
#1646=CARTESIAN_POINT('',(31.8189123189218,12.6689123190276,6.));
#1647=CARTESIAN_POINT('',(31.8189123189218,14.3189123190276,3.));
#1648=CARTESIAN_POINT('',(30.1689123189218,14.3189123190276,3.));
#1649=CARTESIAN_POINT('',(31.8189123189218,14.3189123190276,6.));
#1650=CARTESIAN_POINT('',(-31.8189123189218,14.3189123190276,6.));
#1651=CARTESIAN_POINT('',(-31.8189123189218,12.6689123190276,6.));
#1652=CARTESIAN_POINT('',(-31.8189123189218,14.3189123190276,3.));
#1653=CARTESIAN_POINT('',(-33.4689123189218,14.3189123190276,3.));
#1654=CARTESIAN_POINT('',(-31.8189123189218,14.3189123190276,6.));
#1655=CARTESIAN_POINT('',(-31.8189123189218,-14.3189123190276,6.));
#1656=CARTESIAN_POINT('',(-30.1689123189218,-14.3189123190276,6.));
#1657=CARTESIAN_POINT('',(-31.8189123189218,-14.3189123190276,3.));
#1658=CARTESIAN_POINT('',(-33.4689123189218,-14.3189123190276,3.));
#1659=CARTESIAN_POINT('',(-31.8189123189218,-14.3189123190276,6.));
#1660=CARTESIAN_POINT('',(31.8189123189218,-14.3189123190276,6.));
#1661=CARTESIAN_POINT('',(30.1689123189218,-14.3189123190276,6.));
#1662=CARTESIAN_POINT('',(31.8189123189218,-14.3189123190276,3.));
#1663=CARTESIAN_POINT('',(30.1689123189218,-14.3189123190276,3.));
#1664=CARTESIAN_POINT('',(31.8189123189218,-14.3189123190276,6.));
#1665=CARTESIAN_POINT('',(17.5,25.5,6.));
#1666=CARTESIAN_POINT('',(17.5,25.5,6.));
#1667=CARTESIAN_POINT('',(-17.4999999998942,25.5,6.));
#1668=CARTESIAN_POINT('',(-17.4999999998942,0.,6.));
#1669=CARTESIAN_POINT('',(-17.499999999996,-25.5,6.));
#1670=CARTESIAN_POINT('',(-17.499999999996,-25.5,6.));
#1671=CARTESIAN_POINT('',(17.5,-25.5,6.));
#1672=CARTESIAN_POINT('',(17.5,1.06581410364015E-14,6.));
#1673=CARTESIAN_POINT('',(3.18108768086659,-14.3189123190276,6.));
#1674=CARTESIAN_POINT('',(3.18108768086659,-12.6689123190276,6.));
#1675=CARTESIAN_POINT('',(3.18108768086664,14.3189123190276,6.));
#1676=CARTESIAN_POINT('',(4.83108768086664,14.3189123190276,6.));
#1677=CARTESIAN_POINT('',(-3.18108768086664,14.3189123190275,6.));
#1678=CARTESIAN_POINT('',(-4.83108768086664,14.3189123190275,6.));
#1679=CARTESIAN_POINT('',(-3.1810876808667,-14.3189123190276,6.));
#1680=CARTESIAN_POINT('',(-3.1810876808667,-12.6689123190276,6.));
#1681=CARTESIAN_POINT('',(-17.5,0.,6.));
#1682=CARTESIAN_POINT('',(17.5,1.09605888523498E-14,1.));
#1683=CARTESIAN_POINT('',(32.5,1.09605888523498E-14,1.));
#1684=CARTESIAN_POINT('',(17.5,8.81745695384188E-15,3.));
#1685=CARTESIAN_POINT('',(32.5,1.06544271525629E-14,3.));
#1686=CARTESIAN_POINT('',(17.5,1.09605888523498E-14,59.4));
#1687=CARTESIAN_POINT('',(-17.5,-1.0539526846846E-14,1.));
#1688=CARTESIAN_POINT('',(-2.5,-1.0539526846846E-14,1.));
#1689=CARTESIAN_POINT('',(-17.5,-8.39639494833818E-15,3.));
#1690=CARTESIAN_POINT('',(-2.5,-6.55942474961715E-15,3.));
#1691=CARTESIAN_POINT('',(-17.5,-1.0539526846846E-14,59.4));
#1692=CARTESIAN_POINT('',(-3.18108768086664,14.3189123190275,3.));
#1693=CARTESIAN_POINT('',(-1.53108768086664,14.3189123190275,3.));
#1694=CARTESIAN_POINT('',(-3.18108768086664,14.3189123190275,6.));
#1695=CARTESIAN_POINT('',(3.18108768086664,14.3189123190276,3.));
#1696=CARTESIAN_POINT('',(4.83108768086664,14.3189123190276,3.));
#1697=CARTESIAN_POINT('',(3.18108768086664,14.3189123190276,6.));
#1698=CARTESIAN_POINT('',(3.18108768086659,-14.3189123190276,3.));
#1699=CARTESIAN_POINT('',(4.83108768086659,-14.3189123190276,3.));
#1700=CARTESIAN_POINT('',(3.18108768086659,-14.3189123190276,6.));
#1701=CARTESIAN_POINT('',(-3.1810876808667,-14.3189123190276,3.));
#1702=CARTESIAN_POINT('',(-1.5310876808667,-14.3189123190276,3.));
#1703=CARTESIAN_POINT('',(-3.1810876808667,-14.3189123190276,6.));
#1704=CARTESIAN_POINT('',(-17.4999999998942,25.5,0.));
#1705=CARTESIAN_POINT('',(-17.4999999998942,25.5,4.82842712474619));
#1706=CARTESIAN_POINT('',(-17.4999999998942,0.,4.82842712474619));
#1707=CARTESIAN_POINT('',(-17.499999999996,-25.5,4.82842712474619));
#1708=CARTESIAN_POINT('',(-17.499999999996,-25.5,0.));
#1709=CARTESIAN_POINT('',(-17.4999999998942,0.,0.));
#1710=CARTESIAN_POINT('',(-17.499999999996,-25.5,4.82842712474619));
#1711=CARTESIAN_POINT('',(17.5,-25.5,4.82842712474619));
#1712=CARTESIAN_POINT('',(17.5,-25.5,0.));
#1713=CARTESIAN_POINT('',(-17.499999999996,-25.5,0.));
#1714=CARTESIAN_POINT('',(17.5,1.06581410364015E-14,4.82842712474619));
#1715=CARTESIAN_POINT('',(17.5,25.5,4.82842712474619));
#1716=CARTESIAN_POINT('',(17.5,25.5,0.));
#1717=CARTESIAN_POINT('',(17.5,1.06581410364015E-14,0.));
#1718=CARTESIAN_POINT('',(17.5,25.5,4.82842712474619));
#1719=CARTESIAN_POINT('',(17.5,25.5,0.));
#1720=CARTESIAN_POINT('',(-17.5,-8.39639494833818E-15,3.));
#1721=CARTESIAN_POINT('',(17.5,8.81745695384188E-15,3.));
#1722=CARTESIAN_POINT('',(17.5,25.5,4.));
#1723=CARTESIAN_POINT('',(17.5,24.9142135623731,3.4142135623731));
#1724=CARTESIAN_POINT('',(17.5,22.0857864376269,0.585786437626904));
#1725=CARTESIAN_POINT('',(17.5,1.06581410364015E-14,3.4142135623731));
#1726=CARTESIAN_POINT('',(17.5,-24.9142135623731,3.4142135623731));
#1727=CARTESIAN_POINT('',(17.5,-21.5,0.));
#1728=CARTESIAN_POINT('',(17.5,-22.0857864376269,0.585786437626905));
#1729=CARTESIAN_POINT('',(17.5,1.06581410364015E-14,0.585786437626908));
#1730=CARTESIAN_POINT('',(30.770374395404,-17.6544364388748,0.585786437626905));
#1731=CARTESIAN_POINT('',(32.4928460508393,-19.3769080943228,3.));
#1732=CARTESIAN_POINT('',(31.9189422435584,-18.8030042870377,2.19490070370207));
#1733=CARTESIAN_POINT('',(31.3448128541805,-18.2288748976556,1.39012277963774));
#1734=CARTESIAN_POINT('',(30.770374395404,-17.6544364388748,0.585786437626905));
#1735=CARTESIAN_POINT('',(32.4928460508393,-19.3769080943228,3.));
#1736=CARTESIAN_POINT('',(17.5,1.06581410364015E-14,3.));
#1737=CARTESIAN_POINT('',(36.876908094212,-14.9928460509825,3.));
#1738=CARTESIAN_POINT('',(35.1544364387768,-13.2703743955346,0.58578643762706));
#1739=CARTESIAN_POINT('',(35.7288748975533,-13.8448128543153,1.39012277963784));
#1740=CARTESIAN_POINT('',(36.3030042869311,-14.4189422436974,2.19490070370212));
#1741=CARTESIAN_POINT('',(36.876908094212,-14.9928460509825,3.));
#1742=CARTESIAN_POINT('',(35.1544364387768,-13.2703743955346,0.58578643762706));
#1743=CARTESIAN_POINT('',(17.5,1.06581410364015E-14,0.585786437626908));
#1744=CARTESIAN_POINT('',(35.1544364387767,13.2703743955345,0.585786437626903));
#1745=CARTESIAN_POINT('',(36.876908094212,14.9928460509825,3.));
#1746=CARTESIAN_POINT('',(36.3030042869311,14.4189422436973,2.19490070370207));
#1747=CARTESIAN_POINT('',(35.7288748975533,13.8448128543152,1.39012277963774));
#1748=CARTESIAN_POINT('',(35.1544364387767,13.2703743955345,0.585786437626903));
#1749=CARTESIAN_POINT('',(36.876908094212,14.9928460509825,3.));
#1750=CARTESIAN_POINT('',(17.5,1.06581410364015E-14,3.));
#1751=CARTESIAN_POINT('',(32.4928460508393,19.3769080943228,3.));
#1752=CARTESIAN_POINT('',(30.7703743954041,17.6544364388749,0.58578643762706));
#1753=CARTESIAN_POINT('',(31.3448128541806,18.2288748976556,1.39012277963784));
#1754=CARTESIAN_POINT('',(31.9189422435584,18.8030042870377,2.19490070370212));
#1755=CARTESIAN_POINT('',(32.4928460508393,19.3769080943228,3.));
#1756=CARTESIAN_POINT('',(30.7703743954041,17.6544364388749,0.58578643762706));
#1757=CARTESIAN_POINT('',(17.5,1.06581410364015E-14,0.585786437626908));
#1758=CARTESIAN_POINT('',(17.5,1.06581410364015E-14,4.));
#1759=CARTESIAN_POINT('',(-17.4999999998942,25.5,4.));
#1760=CARTESIAN_POINT('',(-17.4999999998942,24.9142135623731,3.41421356237309));
#1761=CARTESIAN_POINT('',(-17.4999999998942,22.0857864376269,0.5857864376269));
#1762=CARTESIAN_POINT('',(17.5,24.9142135623731,3.41421356237309));
#1763=CARTESIAN_POINT('',(-17.4999999998942,22.0857864376269,0.585786437626905));
#1764=CARTESIAN_POINT('',(17.5,25.5,4.));
#1765=CARTESIAN_POINT('',(-17.499999999996,-24.9142135623731,3.41421356237309));
#1766=CARTESIAN_POINT('',(-17.4999999999937,-24.9142135623731,3.4142135623731));
#1767=CARTESIAN_POINT('',(-17.49999999998,-21.5,0.));
#1768=CARTESIAN_POINT('',(-17.4999999999824,-22.0857864376269,0.585786437626905));
#1769=CARTESIAN_POINT('',(17.5,-22.0857864376269,0.585786437626905));
#1770=CARTESIAN_POINT('',(-17.499999999996,-25.5,4.));
#1771=CARTESIAN_POINT('',(-17.4999999998942,0.,3.41421356237309));
#1772=CARTESIAN_POINT('',(-17.4999999998942,0.,0.585786437626908));
#1773=CARTESIAN_POINT('',(-30.7703743953586,17.6544364388294,0.585786437626907));
#1774=CARTESIAN_POINT('',(-32.4928460507931,19.3769080942767,3.));
#1775=CARTESIAN_POINT('',(-31.9189422435125,18.8030042869918,2.19490070370209));
#1776=CARTESIAN_POINT('',(-31.3448128541349,18.2288748976099,1.39012277963776));
#1777=CARTESIAN_POINT('',(-30.7703743953586,17.6544364388294,0.585786437626907));
#1778=CARTESIAN_POINT('',(-32.4928460507931,19.3769080942767,3.));
#1779=CARTESIAN_POINT('',(-17.4999999998942,0.,3.));
#1780=CARTESIAN_POINT('',(-36.8769080941524,14.9928460509228,3.));
#1781=CARTESIAN_POINT('',(-35.1544364387165,13.2703743954742,0.585786437627059));
#1782=CARTESIAN_POINT('',(-35.7288748974932,13.8448128542552,1.39012277963782));
#1783=CARTESIAN_POINT('',(-36.3030042868713,14.4189422436375,2.1949007037021));
#1784=CARTESIAN_POINT('',(-36.8769080941524,14.9928460509228,3.));
#1785=CARTESIAN_POINT('',(-35.1544364387165,13.2703743954742,0.585786437627059));
#1786=CARTESIAN_POINT('',(-17.4999999998942,0.,0.585786437626908));
#1787=CARTESIAN_POINT('',(-35.1544364387164,-13.2703743954741,0.585786437626904));
#1788=CARTESIAN_POINT('',(-36.8769080941524,-14.9928460509228,3.));
#1789=CARTESIAN_POINT('',(-36.3030042868712,-14.4189422436375,2.19490070370205));
#1790=CARTESIAN_POINT('',(-35.7288748974931,-13.8448128542551,1.39012277963772));
#1791=CARTESIAN_POINT('',(-35.1544364387164,-13.2703743954741,0.585786437626904));
#1792=CARTESIAN_POINT('',(-36.8769080941524,-14.9928460509228,3.));
#1793=CARTESIAN_POINT('',(-17.4999999998942,0.,3.));
#1794=CARTESIAN_POINT('',(-32.4928460507931,-19.3769080942767,3.));
#1795=CARTESIAN_POINT('',(-30.7703743953587,-17.6544364388295,0.585786437627059));
#1796=CARTESIAN_POINT('',(-31.3448128541349,-18.22887489761,1.39012277963786));
#1797=CARTESIAN_POINT('',(-31.9189422435125,-18.8030042869918,2.19490070370214));
#1798=CARTESIAN_POINT('',(-32.4928460507931,-19.3769080942767,3.));
#1799=CARTESIAN_POINT('',(-30.7703743953587,-17.6544364388295,0.585786437627059));
#1800=CARTESIAN_POINT('',(-17.4999999998942,0.,0.585786437626908));
#1801=CARTESIAN_POINT('',(-17.4999999998942,0.,4.));
#1802=CARTESIAN_POINT('',(-37.5895168785185,-15.7054548352943,3.));
#1803=CARTESIAN_POINT('',(-34.0109433406099,-12.1268812973591,3.));
#1804=CARTESIAN_POINT('',(-31.8189123189218,-14.3189123190276,3.));
#1805=CARTESIAN_POINT('',(-29.6268812972399,-16.5109433407023,3.));
#1806=CARTESIAN_POINT('',(-29.6268812972354,-16.5109433406978,3.));
#1807=CARTESIAN_POINT('',(-31.8189123189218,-14.3189123190276,3.));
#1808=CARTESIAN_POINT('',(-29.6268812972399,-16.5109433407023,3.));
#1809=CARTESIAN_POINT('',(-34.0109433406099,-12.1268812973591,3.));
#1810=CARTESIAN_POINT('',(-31.8189123189218,-14.3189123190276,3.));
#1811=CARTESIAN_POINT('',(-29.7596803844283,-16.6437424278916,0.));
#1812=CARTESIAN_POINT('',(-29.9209366305548,-16.8049986740194,0.));
#1813=CARTESIAN_POINT('',(-30.0844213151234,-16.9684833585891,0.0391893585056746));
#1814=CARTESIAN_POINT('',(-30.2366213589677,-17.1206834024346,0.114538194842204));
#1815=CARTESIAN_POINT('',(-30.3888544094997,-17.2729164529676,0.189903371617549));
#1816=CARTESIAN_POINT('',(-30.5340155419362,-17.4180775854052,0.303572771452442));
#1817=CARTESIAN_POINT('',(-30.6598112552995,-17.5438732987695,0.446333376024613));
#1818=CARTESIAN_POINT('',(-30.6983261956107,-17.582388239081,0.49004246607925));
#1819=CARTESIAN_POINT('',(-30.7352823430795,-17.61934438655,0.536650081011818));
#1820=CARTESIAN_POINT('',(-30.7703743953587,-17.6544364388295,0.585786437627059));
#1821=CARTESIAN_POINT('',(-29.6268812972354,-16.5109433406978,3.));
#1822=CARTESIAN_POINT('',(-35.1544364387164,-13.2703743954741,0.585786437626904));
#1823=CARTESIAN_POINT('',(-35.0406037310248,-13.1565416877816,0.426396371890679));
#1824=CARTESIAN_POINT('',(-34.9056051688633,-13.0215431256192,0.292823222870743));
#1825=CARTESIAN_POINT('',(-34.7608252425285,-12.8767631992833,0.195877312193404));
#1826=CARTESIAN_POINT('',(-34.6160860383882,-12.732023995142,0.0989586694553369));
#1827=CARTESIAN_POINT('',(-34.4576026870918,-12.5735406438444,0.0359428217981732));
#1828=CARTESIAN_POINT('',(-34.2983771290296,-12.414315085781,0.0117242120113456));
#1829=CARTESIAN_POINT('',(-34.2470541933125,-12.3629921500635,0.00391786378198416));
#1830=CARTESIAN_POINT('',(-34.1953613513205,-12.3112993080711,1.34316837692839E-16));
#1831=CARTESIAN_POINT('',(-34.143742427785,-12.2596803845352,0.));
#1832=CARTESIAN_POINT('',(-37.5895168785185,-15.7054548352943,3.));
#1833=CARTESIAN_POINT('',(-33.2054548351588,20.0895168786476,3.));
#1834=CARTESIAN_POINT('',(-29.6268812972354,16.5109433406978,3.));
#1835=CARTESIAN_POINT('',(-31.8189123189218,14.3189123190276,3.));
#1836=CARTESIAN_POINT('',(-34.0109433406082,12.1268812973575,3.));
#1837=CARTESIAN_POINT('',(-34.0109433406082,12.1268812973575,3.));
#1838=CARTESIAN_POINT('',(-17.4999999998942,0.,3.));
#1839=CARTESIAN_POINT('',(-34.143742427785,12.2596803845352,0.));
#1840=CARTESIAN_POINT('',(-34.3049986739118,12.4209366306633,5.59469991610304E-16));
#1841=CARTESIAN_POINT('',(-34.4684833584807,12.5844213152333,0.0391893585057302));
#1842=CARTESIAN_POINT('',(-34.6206834023253,12.7366213590791,0.114538194842386));
#1843=CARTESIAN_POINT('',(-34.7729164528575,12.8888544096124,0.189903371617859));
#1844=CARTESIAN_POINT('',(-34.9180775852943,13.0340155420503,0.303572771452961));
#1845=CARTESIAN_POINT('',(-35.0438732986579,13.1598112554148,0.446333376025426));
#1846=CARTESIAN_POINT('',(-35.0823882389688,13.198326195726,0.490042466079824));
#1847=CARTESIAN_POINT('',(-35.1193443864374,13.2352823431949,0.53665008101212));
#1848=CARTESIAN_POINT('',(-35.1544364387165,13.2703743954742,0.585786437627059));
#1849=CARTESIAN_POINT('',(-34.0109433406082,12.1268812973575,3.));
#1850=CARTESIAN_POINT('',(-34.0109433406082,12.1268812973575,3.));
#1851=CARTESIAN_POINT('',(-30.7703743953586,17.6544364388294,0.585786437626907));
#1852=CARTESIAN_POINT('',(-30.6565416876672,17.5406037311372,0.426396371890789));
#1853=CARTESIAN_POINT('',(-30.5215431255059,17.4056051689749,0.29282322287089));
#1854=CARTESIAN_POINT('',(-30.3767631991713,17.2608252426392,0.195877312193548));
#1855=CARTESIAN_POINT('',(-30.2320239950313,17.1160860384981,0.0989586694554751));
#1856=CARTESIAN_POINT('',(-30.0735406437351,16.9576026872007,0.0359428217982694));
#1857=CARTESIAN_POINT('',(-29.9143150856731,16.7983771291376,0.0117242120113939));
#1858=CARTESIAN_POINT('',(-29.8629921499559,16.74705419342,0.00391786378200081));
#1859=CARTESIAN_POINT('',(-29.8112993079638,16.6953613514275,0.));
#1860=CARTESIAN_POINT('',(-29.7596803844283,16.6437424278916,0.));
#1861=CARTESIAN_POINT('',(-29.6268812972354,16.5109433406978,3.));
#1862=CARTESIAN_POINT('',(-33.2054548351588,20.0895168786476,3.));
#1863=CARTESIAN_POINT('',(-31.8189123189218,14.3189123190276,3.));
#1864=CARTESIAN_POINT('',(29.7596803844732,16.6437424279365,0.));
#1865=CARTESIAN_POINT('',(29.9209366305999,16.8049986740644,0.));
#1866=CARTESIAN_POINT('',(30.0844213151686,16.9684833586343,0.0391893585057022));
#1867=CARTESIAN_POINT('',(30.236621359013,17.1206834024799,0.114538194842294));
#1868=CARTESIAN_POINT('',(30.3888544095451,17.2729164530131,0.189903371617702));
#1869=CARTESIAN_POINT('',(30.5340155419817,17.4180775854508,0.303572771452698));
#1870=CARTESIAN_POINT('',(30.6598112553452,17.5438732988152,0.446333376025015));
#1871=CARTESIAN_POINT('',(30.6983261956563,17.5823882391266,0.490042466079533));
#1872=CARTESIAN_POINT('',(30.735282343125,17.6193443865955,0.536650081011968));
#1873=CARTESIAN_POINT('',(30.7703743954041,17.6544364388749,0.58578643762706));
#1874=CARTESIAN_POINT('',(29.6268812972354,16.5109433406978,3.));
#1875=CARTESIAN_POINT('',(29.6268812972354,16.5109433406978,3.));
#1876=CARTESIAN_POINT('',(29.6268812972354,16.5109433406978,3.));
#1877=CARTESIAN_POINT('',(29.6268812972354,16.5109433406978,3.));
#1878=CARTESIAN_POINT('',(35.1544364387767,13.2703743955345,0.585786437626903));
#1879=CARTESIAN_POINT('',(35.0406037310852,13.1565416878421,0.426396371890732));
#1880=CARTESIAN_POINT('',(34.9056051689239,13.0215431256798,0.292823222870816));
#1881=CARTESIAN_POINT('',(34.7608252425892,12.876763199344,0.195877312193476));
#1882=CARTESIAN_POINT('',(34.616086038449,12.7320239952028,0.0989586694554054));
#1883=CARTESIAN_POINT('',(34.4576026871527,12.5735406439053,0.0359428217982207));
#1884=CARTESIAN_POINT('',(34.2983771290906,12.414315085842,0.0117242120113695));
#1885=CARTESIAN_POINT('',(34.2470541933735,12.3629921501245,0.00391786378199251));
#1886=CARTESIAN_POINT('',(34.1953613513814,12.3112993081321,0.));
#1887=CARTESIAN_POINT('',(34.1437424278459,12.2596803845962,0.));
#1888=CARTESIAN_POINT('',(34.0109433406082,12.1268812973575,3.));
#1889=CARTESIAN_POINT('',(34.0109433406082,12.1268812973575,3.));
#1890=CARTESIAN_POINT('',(37.5895168785185,15.7054548352943,3.));
#1891=CARTESIAN_POINT('',(37.5895168785185,15.7054548352943,3.));
#1892=CARTESIAN_POINT('',(31.8189123189218,14.3189123190276,3.));
#1893=CARTESIAN_POINT('',(31.8189123189218,14.3189123190276,3.));
#1894=CARTESIAN_POINT('',(17.4999999998942,0.,3.));
#1895=CARTESIAN_POINT('',(30.770374395404,-17.6544364388748,0.585786437626905));
#1896=CARTESIAN_POINT('',(30.6565416877125,-17.5406037311825,0.426396371890734));
#1897=CARTESIAN_POINT('',(30.5215431255511,-17.4056051690201,0.292823222870815));
#1898=CARTESIAN_POINT('',(30.3767631992164,-17.2608252426843,0.195877312193474));
#1899=CARTESIAN_POINT('',(30.2320239950763,-17.1160860385431,0.0989586694554032));
#1900=CARTESIAN_POINT('',(30.0735406437799,-16.9576026872456,0.0359428217982206));
#1901=CARTESIAN_POINT('',(29.9143150857179,-16.7983771291824,0.0117242120113696));
#1902=CARTESIAN_POINT('',(29.8629921500007,-16.7470541934648,0.00391786378199287));
#1903=CARTESIAN_POINT('',(29.8112993080087,-16.6953613514724,1.79089116924083E-16));
#1904=CARTESIAN_POINT('',(29.7596803844732,-16.6437424279365,0.));
#1905=CARTESIAN_POINT('',(29.6268812972354,-16.5109433406978,3.));
#1906=CARTESIAN_POINT('',(29.6268812972354,-16.5109433406978,3.));
#1907=CARTESIAN_POINT('',(33.2054548351588,-20.0895168786476,3.));
#1908=CARTESIAN_POINT('',(33.2054548351588,-20.0895168786476,3.));
#1909=CARTESIAN_POINT('',(34.0109433406099,-12.1268812973591,3.));
#1910=CARTESIAN_POINT('',(34.0109433406099,-12.1268812973591,3.));
#1911=CARTESIAN_POINT('',(31.8189123189218,-14.3189123190276,3.));
#1912=CARTESIAN_POINT('',(31.8189123189218,-14.3189123190276,3.));
#1913=CARTESIAN_POINT('',(34.1437424278459,-12.2596803845961,0.));
#1914=CARTESIAN_POINT('',(34.3049986739726,-12.420936630724,0.));
#1915=CARTESIAN_POINT('',(34.4684833585413,-12.584421315294,0.0391893585057026));
#1916=CARTESIAN_POINT('',(34.6206834023858,-12.7366213591395,0.114538194842296));
#1917=CARTESIAN_POINT('',(34.7729164529178,-12.8888544096727,0.189903371617705));
#1918=CARTESIAN_POINT('',(34.9180775853545,-13.0340155421105,0.303572771452703));
#1919=CARTESIAN_POINT('',(35.0438732987179,-13.1598112554749,0.446333376025021));
#1920=CARTESIAN_POINT('',(35.082388239029,-13.1983261957862,0.490042466079538));
#1921=CARTESIAN_POINT('',(35.1193443864977,-13.2352823432552,0.53665008101197));
#1922=CARTESIAN_POINT('',(35.1544364387768,-13.2703743955346,0.58578643762706));
#1923=CARTESIAN_POINT('',(34.0109433406082,-12.1268812973575,3.));
#1924=CARTESIAN_POINT('',(34.0109433406082,-12.1268812973575,3.));
#1925=CARTESIAN_POINT('',(31.8189123189218,-14.3189123190276,3.));
#1926=CARTESIAN_POINT('',(-3.1810876808667,-14.3189123190276,3.));
#1927=CARTESIAN_POINT('',(-3.18108768084763,-17.4189123190276,3.));
#1928=CARTESIAN_POINT('',(-3.18108768084763,-11.2189123190276,3.));
#1929=CARTESIAN_POINT('',(3.18108768086659,-11.2189123190276,3.));
#1930=CARTESIAN_POINT('',(3.18108768088566,-11.2189123190276,3.));
#1931=CARTESIAN_POINT('',(3.18108768086659,-14.3189123190276,3.));
#1932=CARTESIAN_POINT('',(3.18108768086659,-17.4189123190276,3.));
#1933=CARTESIAN_POINT('',(-3.1810876808667,-17.4189123190276,3.));
#1934=CARTESIAN_POINT('',(-3.1810876808667,-14.3189123190276,3.));
#1935=CARTESIAN_POINT('',(-3.18108768084763,-11.2189123190276,3.));
#1936=CARTESIAN_POINT('',(-3.18108768084763,-17.4189123190276,3.));
#1937=CARTESIAN_POINT('',(-3.1810876808667,-14.3189123190276,3.));
#1938=CARTESIAN_POINT('',(3.18108768086659,-17.4189123190276,3.));
#1939=CARTESIAN_POINT('',(-3.1810876808667,-17.4189123190276,3.));
#1940=CARTESIAN_POINT('',(3.18108768088566,-11.2189123190276,3.));
#1941=CARTESIAN_POINT('',(3.18108768086659,-14.3189123190276,3.));
#1942=CARTESIAN_POINT('',(3.18108768086659,-11.2189123190276,3.));
#1943=CARTESIAN_POINT('',(-3.18108768086664,14.3189123190275,3.));
#1944=CARTESIAN_POINT('',(-3.18108768084757,11.2189123190275,3.));
#1945=CARTESIAN_POINT('',(-3.18108768084757,17.4189123190275,3.));
#1946=CARTESIAN_POINT('',(3.18108768086663,17.4189123190276,3.));
#1947=CARTESIAN_POINT('',(3.1810876808857,17.4189123190276,3.));
#1948=CARTESIAN_POINT('',(3.18108768086663,14.3189123190276,3.));
#1949=CARTESIAN_POINT('',(3.18108768086663,11.2189123190276,3.));
#1950=CARTESIAN_POINT('',(-3.18108768086664,11.2189123190276,3.));
#1951=CARTESIAN_POINT('',(-3.18108768086664,14.3189123190275,3.));
#1952=CARTESIAN_POINT('',(-3.18108768084757,17.4189123190275,3.));
#1953=CARTESIAN_POINT('',(-3.18108768084757,11.2189123190275,3.));
#1954=CARTESIAN_POINT('',(-3.18108768086664,14.3189123190275,3.));
#1955=CARTESIAN_POINT('',(3.18108768086663,11.2189123190276,3.));
#1956=CARTESIAN_POINT('',(-3.18108768086664,11.2189123190276,3.));
#1957=CARTESIAN_POINT('',(3.1810876808857,17.4189123190276,3.));
#1958=CARTESIAN_POINT('',(3.18108768086663,14.3189123190276,3.));
#1959=CARTESIAN_POINT('',(3.18108768086663,17.4189123190276,3.));
#1960=CARTESIAN_POINT('',(17.5,1.09605888523498E-14,1.));
#1961=CARTESIAN_POINT('',(-17.5,-1.0539526846846E-14,1.));
#1962=CARTESIAN_POINT('',(-17.4999999999937,-23.5,4.82842712474619));
#1963=CARTESIAN_POINT('',(17.5,-23.5,4.82842712474619));
#1964=CARTESIAN_POINT('',(-17.499999999996,-23.5,4.82842712474619));
#1965=CARTESIAN_POINT('',(17.5,23.5,4.82842712474619));
#1966=CARTESIAN_POINT('',(17.5,1.06581410364015E-14,4.82842712474619));
#1967=CARTESIAN_POINT('',(-17.4999999998942,23.5,4.82842712474619));
#1968=CARTESIAN_POINT('',(-17.4999999998942,0.,4.82842712474619));
#1969=CARTESIAN_POINT('',(17.5,23.5,4.82842712474619));
#1970=CARTESIAN_POINT('',(17.5,1.06581410364015E-14,2.));
#1971=CARTESIAN_POINT('',(-17.4999999999767,-20.6715728752538,2.));
#1972=CARTESIAN_POINT('',(-17.4999999998942,0.,2.));
#1973=CARTESIAN_POINT('',(17.5,-20.6715728752538,2.));
#1974=CARTESIAN_POINT('',(-17.5,-20.6715728752538,2.));
#1975=CARTESIAN_POINT('',(17.5,1.06581410364015E-14,2.));
#1976=CARTESIAN_POINT('',(-17.4999999998942,20.6715728752538,2.));
#1977=CARTESIAN_POINT('',(-17.4999999998942,0.,2.));
#1978=CARTESIAN_POINT('',(17.5,20.6715728752538,2.));
#1979=CARTESIAN_POINT('',(-17.5,20.6715728752538,2.));
#1980=CARTESIAN_POINT('',(17.5,1.06581410364015E-14,2.));
#1981=CARTESIAN_POINT('',(-17.4999999998942,0.,2.));
#1982=MECHANICAL_DESIGN_GEOMETRIC_PRESENTATION_REPRESENTATION('',(#86),
#1983);
#1983=(
GEOMETRIC_REPRESENTATION_CONTEXT(3)
GLOBAL_UNCERTAINTY_ASSIGNED_CONTEXT((#1984))
GLOBAL_UNIT_ASSIGNED_CONTEXT((#1990,#1986,#1985))
REPRESENTATION_CONTEXT('WMD1008','TOP_LEVEL_ASSEMBLY_PART')
);
#1984=UNCERTAINTY_MEASURE_WITH_UNIT(LENGTH_MEASURE(0.0508),#1990,
'DISTANCE_ACCURACY_VALUE','Maximum Tolerance applied to model');
#1985=(
NAMED_UNIT(*)
SI_UNIT($,.STERADIAN.)
SOLID_ANGLE_UNIT()
);
#1986=(
CONVERSION_BASED_UNIT('DEGREE',#1988)
NAMED_UNIT(#1987)
PLANE_ANGLE_UNIT()
);
#1987=DIMENSIONAL_EXPONENTS(0.,0.,0.,0.,0.,0.,0.);
#1988=PLANE_ANGLE_MEASURE_WITH_UNIT(PLANE_ANGLE_MEASURE(0.0174532925),#1989);
#1989=(
NAMED_UNIT(*)
PLANE_ANGLE_UNIT()
SI_UNIT($,.RADIAN.)
);
#1990=(
LENGTH_UNIT()
NAMED_UNIT(*)
SI_UNIT(.MILLI.,.METRE.)
);
ENDSEC;
END-ISO-10303-21;
