ISO-10303-21;
HEADER;
/* Generated by software containing ST-Developer
 * from STEP Tools, Inc. (www.steptools.com) 
 */
/* OPTION: using custom schema-name function */

FILE_DESCRIPTION(
/* description */ (''),
/* implementation_level */ '2;1');

FILE_NAME(
/* name */ 'WMD1005.stp',
/* time_stamp */ '2026-09-10T10:27:51+08:00',
/* author */ (''),
/* organization */ (''),
/* preprocessor_version */ 'ST-DEVELOPER v20',
/* originating_system */ 'SIEMENS PLM Software NX2406.1700',
/* authorisation */ '');

FILE_SCHEMA (('AP203_CONFIGURATION_CONTROLLED_3D_DESIGN_OF_MECHANICAL_PARTS_AND_ASSEMBLIES_MIM_LF { 1 0 10303 403 2 1 2}'));
ENDSEC;

DATA;
#10=PROPERTY_DEFINITION_REPRESENTATION(#14,#12);
#11=PROPERTY_DEFINITION_REPRESENTATION(#15,#13);
#12=REPRESENTATION('',(#16),#2104);
#13=REPRESENTATION('',(#17),#2104);
#14=PROPERTY_DEFINITION('pmi validation property','',#73);
#15=PROPERTY_DEFINITION('pmi validation property','',#73);
#16=VALUE_REPRESENTATION_ITEM('number of annotations',COUNT_MEASURE(0.));
#17=VALUE_REPRESENTATION_ITEM('number of views',COUNT_MEASURE(0.));
#18=SHAPE_REPRESENTATION_RELATIONSHIP('None',
'relationship between WMD1005_objects-None and WMD1005_objects-None',#84,
#19);
#19=ADVANCED_BREP_SHAPE_REPRESENTATION('WMD1005_objects-None',(#94),#2104);
#20=APPLIED_APPROVAL_ASSIGNMENT(#32,(#74));
#21=APPLIED_APPROVAL_ASSIGNMENT(#33,(#76));
#22=APPLIED_APPROVAL_ASSIGNMENT(#34,(#46));
#23=APPROVAL_PERSON_ORGANIZATION(#38,#32,#26);
#24=APPROVAL_PERSON_ORGANIZATION(#39,#33,#27);
#25=APPROVAL_PERSON_ORGANIZATION(#40,#34,#28);
#26=APPROVAL_ROLE('approver');
#27=APPROVAL_ROLE('approver');
#28=APPROVAL_ROLE('approver');
#29=APPROVAL_DATE_TIME(#54,#32);
#30=APPROVAL_DATE_TIME(#55,#33);
#31=APPROVAL_DATE_TIME(#56,#34);
#32=APPROVAL(#35,' ');
#33=APPROVAL(#36,' ');
#34=APPROVAL(#37,' ');
#35=APPROVAL_STATUS('not_yet_approved');
#36=APPROVAL_STATUS('not_yet_approved');
#37=APPROVAL_STATUS('not_yet_approved');
#38=PERSON_AND_ORGANIZATION(#44,#41);
#39=PERSON_AND_ORGANIZATION(#44,#42);
#40=PERSON_AND_ORGANIZATION(#44,#43);
#41=ORGANIZATION(' ',' ',' ');
#42=ORGANIZATION(' ',' ',' ');
#43=ORGANIZATION(' ',' ',' ');
#44=PERSON(' ',' ',' ',(' '),$,$);
#45=APPLIED_SECURITY_CLASSIFICATION_ASSIGNMENT(#46,(#76));
#46=SECURITY_CLASSIFICATION(' ',' ',#47);
#47=SECURITY_CLASSIFICATION_LEVEL('confidential');
#48=APPLIED_DATE_AND_TIME_ASSIGNMENT(#52,#50,(#74));
#49=APPLIED_DATE_AND_TIME_ASSIGNMENT(#53,#51,(#46));
#50=DATE_TIME_ROLE('creation_date');
#51=DATE_TIME_ROLE('classification_date');
#52=DATE_AND_TIME(#67,#57);
#53=DATE_AND_TIME(#68,#58);
#54=DATE_AND_TIME(#69,#59);
#55=DATE_AND_TIME(#70,#60);
#56=DATE_AND_TIME(#71,#61);
#57=LOCAL_TIME(0,0,0.,#62);
#58=LOCAL_TIME(0,0,0.,#63);
#59=LOCAL_TIME(0,0,0.,#64);
#60=LOCAL_TIME(0,0,0.,#65);
#61=LOCAL_TIME(0,0,0.,#66);
#62=COORDINATED_UNIVERSAL_TIME_OFFSET(0,0,.BEHIND.);
#63=COORDINATED_UNIVERSAL_TIME_OFFSET(0,0,.BEHIND.);
#64=COORDINATED_UNIVERSAL_TIME_OFFSET(0,0,.BEHIND.);
#65=COORDINATED_UNIVERSAL_TIME_OFFSET(0,0,.BEHIND.);
#66=COORDINATED_UNIVERSAL_TIME_OFFSET(0,0,.BEHIND.);
#67=CALENDAR_DATE(0,1,1);
#68=CALENDAR_DATE(0,1,1);
#69=CALENDAR_DATE(0,1,1);
#70=CALENDAR_DATE(0,1,1);
#71=CALENDAR_DATE(0,1,1);
#72=SHAPE_DEFINITION_REPRESENTATION(#73,#84);
#73=PRODUCT_DEFINITION_SHAPE('','',#74);
#74=PRODUCT_DEFINITION(' ','',#76,#75);
#75=PRODUCT_DEFINITION_CONTEXT('part definition',#83,'design');
#76=PRODUCT_DEFINITION_FORMATION_WITH_SPECIFIED_SOURCE(' ',' ',#78,
 .NOT_KNOWN.);
#77=PRODUCT_RELATED_PRODUCT_CATEGORY('detail','',(#78));
#78=PRODUCT('WMD1005_objects','WMD1005_objects',' ',(#81));
#79=PRODUCT_CATEGORY('part',' ');
#80=PRODUCT_CATEGORY(' ','');
#81=PRODUCT_CONTEXT(' ',#83,'mechanical');
#82=APPLICATION_PROTOCOL_DEFINITION('international standard',
'config_control_design',2010,#83);
#83=APPLICATION_CONTEXT(
'configuration controlled 3D designs of mechanical parts and assemblie
s');
#84=SHAPE_REPRESENTATION('WMD1005_objects-None',(#1202),#2104);
#85=PRESENTATION_LAYER_ASSIGNMENT('1','Layer 1',(#94));
#86=STYLED_ITEM('',(#87),#94);
#87=PRESENTATION_STYLE_ASSIGNMENT((#88));
#88=SURFACE_STYLE_USAGE(.BOTH.,#89);
#89=SURFACE_SIDE_STYLE('',(#90));
#90=SURFACE_STYLE_FILL_AREA(#91);
#91=FILL_AREA_STYLE('',(#92));
#92=FILL_AREA_STYLE_COLOUR('',#93);
#93=COLOUR_RGB('medium gray',0.490196078431373,0.490196078431373,0.490196078431373);
#94=MANIFOLD_SOLID_BREP('',#95);
#95=CLOSED_SHELL('',(#190,#191,#192,#193,#194,#195,#196,#197,#198,#199,
#200,#201,#202,#203,#204,#205,#206,#207,#208,#209,#210,#211,#212,#213,#214,
#215,#216,#217,#218,#219,#220,#221,#222,#223,#224,#225,#226,#227,#228,#229,
#230,#231,#232,#233,#234,#235,#236,#237,#238,#239,#240,#241,#242,#243,#244,
#245,#246,#247,#248,#249,#250,#251,#252));
#96=TOROIDAL_SURFACE('',#1343,16.9999999999947,1.5);
#97=(
BOUNDED_SURFACE()
B_SPLINE_SURFACE(3,2,((#2041,#2042,#2043),(#2044,#2045,#2046),(#2047,#2048,
#2049),(#2050,#2051,#2052),(#2053,#2054,#2055),(#2056,#2057,#2058),(#2059,
#2060,#2061),(#2062,#2063,#2064),(#2065,#2066,#2067),(#2068,#2069,#2070)),
 .UNSPECIFIED.,.F.,.F.,.F.)
B_SPLINE_SURFACE_WITH_KNOTS((4,2,2,2,4),(3,3),(0.,0.25,0.5,0.75,1.),(0.,
1.),.UNSPECIFIED.)
GEOMETRIC_REPRESENTATION_ITEM()
RATIONAL_B_SPLINE_SURFACE(((1.,0.660203368368194,1.),(1.,0.708010826697968,
1.),(1.,0.74462354570474,1.),(1.,0.795363405215235,1.),(1.,0.809899207308876,
1.),(1.,0.817670223237004,1.),(1.,0.810603378405657,1.),(1.,0.775234533855433,
1.),(1.,0.746993458868062,1.),(1.,0.707106781186547,1.)))
REPRESENTATION_ITEM('')
SURFACE()
);
#98=(
BOUNDED_SURFACE()
B_SPLINE_SURFACE(3,2,((#2073,#2074,#2075),(#2076,#2077,#2078),(#2079,#2080,
#2081),(#2082,#2083,#2084),(#2085,#2086,#2087),(#2088,#2089,#2090),(#2091,
#2092,#2093),(#2094,#2095,#2096),(#2097,#2098,#2099),(#2100,#2101,#2102)),
 .UNSPECIFIED.,.F.,.F.,.F.)
B_SPLINE_SURFACE_WITH_KNOTS((4,2,2,2,4),(3,3),(0.,0.25,0.5,0.75,1.),(0.,
1.),.UNSPECIFIED.)
GEOMETRIC_REPRESENTATION_ITEM()
RATIONAL_B_SPLINE_SURFACE(((1.,0.660203368368192,1.),(1.,0.708010826697965,
1.),(1.,0.74462354570474,1.),(1.,0.795363405215235,1.),(1.,0.80989920730923,
1.),(1.,0.817670223236648,1.),(1.,0.810603378405598,1.),(1.,0.775234533855491,
1.),(1.,0.746993458868017,1.),(1.,0.707106781186548,1.)))
REPRESENTATION_ITEM('')
SURFACE()
);
#99=CONICAL_SURFACE('',#1275,1.65,45.);
#100=CONICAL_SURFACE('',#1276,1.65,45.);
#101=CONICAL_SURFACE('',#1277,1.65,45.);
#102=CONICAL_SURFACE('',#1333,0.499999999999987,45.0000000000009);
#103=CONICAL_SURFACE('',#1334,26.3499999999999,44.9999999999998);
#104=CONICAL_SURFACE('',#1335,0.49999999999999,45.0000000000005);
#105=CONICAL_SURFACE('',#1337,0.499999999999991,45.0000000000008);
#106=CONICAL_SURFACE('',#1338,26.3499999999999,44.9999999999998);
#107=CONICAL_SURFACE('',#1339,0.49999999999999,45.0000000000005);
#108=B_SPLINE_CURVE_WITH_KNOTS('',3,(#1805,#1806,#1807,#1808),
 .UNSPECIFIED.,.F.,.F.,(4,4),(0.,1.),.UNSPECIFIED.);
#109=B_SPLINE_CURVE_WITH_KNOTS('',3,(#1817,#1818,#1819,#1820),
 .UNSPECIFIED.,.F.,.F.,(4,4),(0.,1.),.UNSPECIFIED.);
#110=B_SPLINE_CURVE_WITH_KNOTS('',3,(#1859,#1860,#1861,#1862,#1863,#1864),
 .UNSPECIFIED.,.F.,.F.,(4,2,4),(0.,0.5,1.),.UNSPECIFIED.);
#111=B_SPLINE_CURVE_WITH_KNOTS('',3,(#1867,#1868,#1869,#1870,#1871,#1872),
 .UNSPECIFIED.,.F.,.F.,(4,2,4),(0.,0.5,1.),.UNSPECIFIED.);
#112=B_SPLINE_CURVE_WITH_KNOTS('',3,(#1981,#1982,#1983,#1984),
 .UNSPECIFIED.,.F.,.F.,(4,4),(0.,1.),.UNSPECIFIED.);
#113=B_SPLINE_CURVE_WITH_KNOTS('',3,(#1987,#1988,#1989,#1990),
 .UNSPECIFIED.,.F.,.F.,(4,4),(0.,1.),.UNSPECIFIED.);
#114=ELLIPSE('',#1242,3.81009615384415,1.5);
#115=ELLIPSE('',#1244,3.81009615384415,1.5);
#116=ELLIPSE('',#1323,2.12132034355965,1.5);
#117=ELLIPSE('',#1325,2.12132034355964,1.5);
#118=CYLINDRICAL_SURFACE('',#1219,23.5);
#119=CYLINDRICAL_SURFACE('',#1221,26.3499999999999);
#120=CYLINDRICAL_SURFACE('',#1251,16.5);
#121=CYLINDRICAL_SURFACE('',#1253,1.65);
#122=CYLINDRICAL_SURFACE('',#1255,1.65);
#123=CYLINDRICAL_SURFACE('',#1259,15.4999999999947);
#124=CYLINDRICAL_SURFACE('',#1270,1.65);
#125=CYLINDRICAL_SURFACE('',#1272,1.65);
#126=CYLINDRICAL_SURFACE('',#1274,1.65);
#127=CYLINDRICAL_SURFACE('',#1279,13.6);
#128=CYLINDRICAL_SURFACE('',#1282,1.65);
#129=CYLINDRICAL_SURFACE('',#1284,1.65);
#130=CYLINDRICAL_SURFACE('',#1298,3.1);
#131=CYLINDRICAL_SURFACE('',#1306,3.1);
#132=CYLINDRICAL_SURFACE('',#1309,26.3499999999999);
#133=CYLINDRICAL_SURFACE('',#1311,1.5);
#134=CYLINDRICAL_SURFACE('',#1313,1.5);
#135=CYLINDRICAL_SURFACE('',#1317,1.5);
#136=CYLINDRICAL_SURFACE('',#1318,1.5);
#137=CYLINDRICAL_SURFACE('',#1319,1.5);
#138=CYLINDRICAL_SURFACE('',#1321,1.5);
#139=CYLINDRICAL_SURFACE('',#1322,1.5);
#140=CYLINDRICAL_SURFACE('',#1324,1.5);
#141=CYLINDRICAL_SURFACE('',#1326,1.5);
#142=CYLINDRICAL_SURFACE('',#1327,1.5);
#143=CYLINDRICAL_SURFACE('',#1328,1.5);
#144=CYLINDRICAL_SURFACE('',#1329,1.5);
#145=CYLINDRICAL_SURFACE('',#1330,1.5);
#146=CYLINDRICAL_SURFACE('',#1331,1.5);
#147=FACE_OUTER_BOUND('',#468,.T.);
#148=FACE_OUTER_BOUND('',#469,.T.);
#149=FACE_OUTER_BOUND('',#470,.T.);
#150=FACE_OUTER_BOUND('',#471,.T.);
#151=FACE_OUTER_BOUND('',#472,.T.);
#152=FACE_OUTER_BOUND('',#473,.T.);
#153=FACE_OUTER_BOUND('',#513,.T.);
#154=FACE_OUTER_BOUND('',#516,.T.);
#155=FACE_OUTER_BOUND('',#517,.T.);
#156=FACE_OUTER_BOUND('',#518,.T.);
#157=FACE_OUTER_BOUND('',#519,.T.);
#158=FACE_OUTER_BOUND('',#522,.T.);
#159=FACE_OUTER_BOUND('',#523,.T.);
#160=FACE_OUTER_BOUND('',#524,.T.);
#161=FACE_OUTER_BOUND('',#525,.T.);
#162=FACE_OUTER_BOUND('',#526,.T.);
#163=FACE_OUTER_BOUND('',#527,.T.);
#164=FACE_OUTER_BOUND('',#528,.T.);
#165=FACE_OUTER_BOUND('',#529,.T.);
#166=FACE_OUTER_BOUND('',#530,.T.);
#167=FACE_OUTER_BOUND('',#531,.T.);
#168=FACE_OUTER_BOUND('',#532,.T.);
#169=FACE_OUTER_BOUND('',#533,.T.);
#170=FACE_OUTER_BOUND('',#534,.T.);
#171=FACE_OUTER_BOUND('',#535,.T.);
#172=FACE_OUTER_BOUND('',#536,.T.);
#173=FACE_OUTER_BOUND('',#537,.T.);
#174=FACE_OUTER_BOUND('',#538,.T.);
#175=FACE_OUTER_BOUND('',#539,.T.);
#176=FACE_OUTER_BOUND('',#540,.T.);
#177=FACE_OUTER_BOUND('',#541,.T.);
#178=FACE_OUTER_BOUND('',#542,.T.);
#179=FACE_OUTER_BOUND('',#543,.T.);
#180=FACE_OUTER_BOUND('',#544,.T.);
#181=FACE_OUTER_BOUND('',#545,.T.);
#182=FACE_OUTER_BOUND('',#546,.T.);
#183=FACE_OUTER_BOUND('',#547,.T.);
#184=FACE_OUTER_BOUND('',#548,.T.);
#185=FACE_OUTER_BOUND('',#549,.T.);
#186=FACE_OUTER_BOUND('',#550,.T.);
#187=FACE_OUTER_BOUND('',#551,.T.);
#188=FACE_OUTER_BOUND('',#552,.T.);
#189=FACE_OUTER_BOUND('',#553,.T.);
#190=ADVANCED_FACE('',(#413,#414,#415,#416,#417,#418),#253,.F.);
#191=ADVANCED_FACE('',(#147),#118,.T.);
#192=ADVANCED_FACE('',(#148),#119,.T.);
#193=ADVANCED_FACE('',(#149),#254,.T.);
#194=ADVANCED_FACE('',(#150),#255,.T.);
#195=ADVANCED_FACE('',(#151),#256,.T.);
#196=ADVANCED_FACE('',(#152),#257,.T.);
#197=ADVANCED_FACE('',(#419,#420),#120,.F.);
#198=ADVANCED_FACE('',(#421,#422),#121,.F.);
#199=ADVANCED_FACE('',(#423,#424),#122,.F.);
#200=ADVANCED_FACE('',(#425,#426),#123,.T.);
#201=ADVANCED_FACE('',(#427,#428,#429,#430),#258,.T.);
#202=ADVANCED_FACE('',(#431,#432,#433,#434),#259,.F.);
#203=ADVANCED_FACE('',(#435,#436),#124,.F.);
#204=ADVANCED_FACE('',(#437,#438),#125,.F.);
#205=ADVANCED_FACE('',(#439,#440),#126,.F.);
#206=ADVANCED_FACE('',(#441,#442),#99,.F.);
#207=ADVANCED_FACE('',(#443,#444),#100,.F.);
#208=ADVANCED_FACE('',(#445,#446),#101,.F.);
#209=ADVANCED_FACE('',(#447,#448),#127,.F.);
#210=ADVANCED_FACE('',(#449,#450),#260,.T.);
#211=ADVANCED_FACE('',(#451,#452),#128,.F.);
#212=ADVANCED_FACE('',(#453,#454),#129,.F.);
#213=ADVANCED_FACE('',(#455,#456,#457),#261,.F.);
#214=ADVANCED_FACE('',(#153),#262,.F.);
#215=ADVANCED_FACE('',(#458,#459),#263,.T.);
#216=ADVANCED_FACE('',(#154),#264,.F.);
#217=ADVANCED_FACE('',(#155),#130,.F.);
#218=ADVANCED_FACE('',(#156),#265,.F.);
#219=ADVANCED_FACE('',(#157),#266,.F.);
#220=ADVANCED_FACE('',(#460,#461),#267,.T.);
#221=ADVANCED_FACE('',(#158),#268,.F.);
#222=ADVANCED_FACE('',(#159),#131,.F.);
#223=ADVANCED_FACE('',(#160),#269,.F.);
#224=ADVANCED_FACE('',(#161),#132,.T.);
#225=ADVANCED_FACE('',(#162),#133,.T.);
#226=ADVANCED_FACE('',(#163),#134,.T.);
#227=ADVANCED_FACE('',(#164),#270,.F.);
#228=ADVANCED_FACE('',(#165),#271,.F.);
#229=ADVANCED_FACE('',(#166),#135,.T.);
#230=ADVANCED_FACE('',(#167),#136,.T.);
#231=ADVANCED_FACE('',(#168),#137,.T.);
#232=ADVANCED_FACE('',(#169),#138,.T.);
#233=ADVANCED_FACE('',(#170),#139,.T.);
#234=ADVANCED_FACE('',(#171),#140,.T.);
#235=ADVANCED_FACE('',(#172),#141,.T.);
#236=ADVANCED_FACE('',(#173),#142,.T.);
#237=ADVANCED_FACE('',(#174),#143,.T.);
#238=ADVANCED_FACE('',(#175),#144,.T.);
#239=ADVANCED_FACE('',(#176),#145,.T.);
#240=ADVANCED_FACE('',(#177),#146,.T.);
#241=ADVANCED_FACE('',(#178),#272,.T.);
#242=ADVANCED_FACE('',(#179),#102,.T.);
#243=ADVANCED_FACE('',(#180),#103,.T.);
#244=ADVANCED_FACE('',(#181),#104,.T.);
#245=ADVANCED_FACE('',(#182),#273,.F.);
#246=ADVANCED_FACE('',(#183),#105,.T.);
#247=ADVANCED_FACE('',(#184),#106,.T.);
#248=ADVANCED_FACE('',(#185),#107,.T.);
#249=ADVANCED_FACE('',(#186),#274,.T.);
#250=ADVANCED_FACE('',(#187),#97,.T.);
#251=ADVANCED_FACE('',(#188),#96,.F.);
#252=ADVANCED_FACE('',(#189),#98,.T.);
#253=PLANE('',#1217);
#254=PLANE('',#1241);
#255=PLANE('',#1243);
#256=PLANE('',#1245);
#257=PLANE('',#1247);
#258=PLANE('',#1264);
#259=PLANE('',#1268);
#260=PLANE('',#1280);
#261=PLANE('',#1291);
#262=PLANE('',#1292);
#263=PLANE('',#1296);
#264=PLANE('',#1297);
#265=PLANE('',#1299);
#266=PLANE('',#1300);
#267=PLANE('',#1304);
#268=PLANE('',#1305);
#269=PLANE('',#1307);
#270=PLANE('',#1314);
#271=PLANE('',#1315);
#272=PLANE('',#1332);
#273=PLANE('',#1336);
#274=PLANE('',#1340);
#275=LINE('',#1713,#344);
#276=LINE('',#1721,#345);
#277=LINE('',#1729,#346);
#278=LINE('',#1733,#347);
#279=LINE('',#1737,#348);
#280=LINE('',#1739,#349);
#281=LINE('',#1743,#350);
#282=LINE('',#1748,#351);
#283=LINE('',#1756,#352);
#284=LINE('',#1764,#353);
#285=LINE('',#1768,#354);
#286=LINE('',#1776,#355);
#287=LINE('',#1780,#356);
#288=LINE('',#1788,#357);
#289=LINE('',#1792,#358);
#290=LINE('',#1800,#359);
#291=LINE('',#1810,#360);
#292=LINE('',#1812,#361);
#293=LINE('',#1814,#362);
#294=LINE('',#1824,#363);
#295=LINE('',#1826,#364);
#296=LINE('',#1831,#365);
#297=LINE('',#1833,#366);
#298=LINE('',#1835,#367);
#299=LINE('',#1839,#368);
#300=LINE('',#1840,#369);
#301=LINE('',#1844,#370);
#302=LINE('',#1845,#371);
#303=LINE('',#1849,#372);
#304=LINE('',#1891,#373);
#305=LINE('',#1892,#374);
#306=LINE('',#1918,#375);
#307=LINE('',#1922,#376);
#308=LINE('',#1927,#377);
#309=LINE('',#1931,#378);
#310=LINE('',#1935,#379);
#311=LINE('',#1936,#380);
#312=LINE('',#1938,#381);
#313=LINE('',#1943,#382);
#314=LINE('',#1948,#383);
#315=LINE('',#1949,#384);
#316=LINE('',#1951,#385);
#317=LINE('',#1953,#386);
#318=LINE('',#1955,#387);
#319=LINE('',#1956,#388);
#320=LINE('',#1958,#389);
#321=LINE('',#1963,#390);
#322=LINE('',#1968,#391);
#323=LINE('',#1969,#392);
#324=LINE('',#1971,#393);
#325=LINE('',#1973,#394);
#326=LINE('',#1975,#395);
#327=LINE('',#1979,#396);
#328=LINE('',#1993,#397);
#329=LINE('',#1995,#398);
#330=LINE('',#1997,#399);
#331=LINE('',#1998,#400);
#332=LINE('',#2000,#401);
#333=LINE('',#2002,#402);
#334=LINE('',#2004,#403);
#335=LINE('',#2005,#404);
#336=LINE('',#2023,#405);
#337=LINE('',#2025,#406);
#338=LINE('',#2027,#407);
#339=LINE('',#2029,#408);
#340=LINE('',#2031,#409);
#341=LINE('',#2033,#410);
#342=LINE('',#2035,#411);
#343=LINE('',#2037,#412);
#344=VECTOR('',#1360,1.);
#345=VECTOR('',#1367,1.);
#346=VECTOR('',#1374,1.);
#347=VECTOR('',#1379,1.);
#348=VECTOR('',#1382,1.);
#349=VECTOR('',#1385,1.);
#350=VECTOR('',#1388,1.);
#351=VECTOR('',#1393,1.);
#352=VECTOR('',#1400,1.);
#353=VECTOR('',#1407,1.);
#354=VECTOR('',#1410,1.);
#355=VECTOR('',#1417,1.);
#356=VECTOR('',#1420,1.);
#357=VECTOR('',#1427,1.);
#358=VECTOR('',#1430,1.);
#359=VECTOR('',#1437,1.);
#360=VECTOR('',#1442,1.);
#361=VECTOR('',#1443,1.);
#362=VECTOR('',#1446,1.);
#363=VECTOR('',#1449,1.);
#364=VECTOR('',#1452,1.);
#365=VECTOR('',#1455,1.);
#366=VECTOR('',#1456,1.);
#367=VECTOR('',#1459,1.);
#368=VECTOR('',#1462,1.);
#369=VECTOR('',#1463,1.);
#370=VECTOR('',#1466,1.);
#371=VECTOR('',#1467,1.);
#372=VECTOR('',#1470,1.);
#373=VECTOR('',#1505,1.);
#374=VECTOR('',#1506,1.);
#375=VECTOR('',#1543,1.);
#376=VECTOR('',#1546,1.);
#377=VECTOR('',#1551,1.);
#378=VECTOR('',#1554,1.);
#379=VECTOR('',#1559,1.);
#380=VECTOR('',#1560,1.);
#381=VECTOR('',#1563,1.);
#382=VECTOR('',#1566,1.);
#383=VECTOR('',#1573,1.);
#384=VECTOR('',#1574,1.);
#385=VECTOR('',#1577,1.);
#386=VECTOR('',#1580,1.);
#387=VECTOR('',#1583,1.);
#388=VECTOR('',#1584,1.);
#389=VECTOR('',#1587,1.);
#390=VECTOR('',#1590,1.);
#391=VECTOR('',#1597,1.);
#392=VECTOR('',#1598,1.);
#393=VECTOR('',#1601,1.);
#394=VECTOR('',#1604,1.);
#395=VECTOR('',#1607,1.);
#396=VECTOR('',#1610,1.);
#397=VECTOR('',#1621,1.);
#398=VECTOR('',#1622,1.);
#399=VECTOR('',#1623,1.);
#400=VECTOR('',#1624,1.);
#401=VECTOR('',#1627,1.);
#402=VECTOR('',#1628,1.);
#403=VECTOR('',#1629,1.);
#404=VECTOR('',#1630,1.);
#405=VECTOR('',#1665,1.);
#406=VECTOR('',#1668,1.);
#407=VECTOR('',#1671,1.);
#408=VECTOR('',#1674,1.);
#409=VECTOR('',#1677,1.);
#410=VECTOR('',#1680,1.);
#411=VECTOR('',#1683,1.);
#412=VECTOR('',#1686,1.);
#413=FACE_BOUND('',#462,.T.);
#414=FACE_BOUND('',#463,.T.);
#415=FACE_BOUND('',#464,.T.);
#416=FACE_BOUND('',#465,.T.);
#417=FACE_BOUND('',#466,.T.);
#418=FACE_BOUND('',#467,.T.);
#419=FACE_BOUND('',#474,.T.);
#420=FACE_BOUND('',#475,.T.);
#421=FACE_BOUND('',#476,.T.);
#422=FACE_BOUND('',#477,.T.);
#423=FACE_BOUND('',#478,.T.);
#424=FACE_BOUND('',#479,.T.);
#425=FACE_BOUND('',#480,.T.);
#426=FACE_BOUND('',#481,.T.);
#427=FACE_BOUND('',#482,.T.);
#428=FACE_BOUND('',#483,.T.);
#429=FACE_BOUND('',#484,.T.);
#430=FACE_BOUND('',#485,.T.);
#431=FACE_BOUND('',#486,.T.);
#432=FACE_BOUND('',#487,.T.);
#433=FACE_BOUND('',#488,.T.);
#434=FACE_BOUND('',#489,.T.);
#435=FACE_BOUND('',#490,.T.);
#436=FACE_BOUND('',#491,.T.);
#437=FACE_BOUND('',#492,.T.);
#438=FACE_BOUND('',#493,.T.);
#439=FACE_BOUND('',#494,.T.);
#440=FACE_BOUND('',#495,.T.);
#441=FACE_BOUND('',#496,.T.);
#442=FACE_BOUND('',#497,.T.);
#443=FACE_BOUND('',#498,.T.);
#444=FACE_BOUND('',#499,.T.);
#445=FACE_BOUND('',#500,.T.);
#446=FACE_BOUND('',#501,.T.);
#447=FACE_BOUND('',#502,.T.);
#448=FACE_BOUND('',#503,.T.);
#449=FACE_BOUND('',#504,.T.);
#450=FACE_BOUND('',#505,.T.);
#451=FACE_BOUND('',#506,.T.);
#452=FACE_BOUND('',#507,.T.);
#453=FACE_BOUND('',#508,.T.);
#454=FACE_BOUND('',#509,.T.);
#455=FACE_BOUND('',#510,.T.);
#456=FACE_BOUND('',#511,.T.);
#457=FACE_BOUND('',#512,.T.);
#458=FACE_BOUND('',#514,.T.);
#459=FACE_BOUND('',#515,.T.);
#460=FACE_BOUND('',#520,.T.);
#461=FACE_BOUND('',#521,.T.);
#462=EDGE_LOOP('',(#554));
#463=EDGE_LOOP('',(#555));
#464=EDGE_LOOP('',(#556));
#465=EDGE_LOOP('',(#557));
#466=EDGE_LOOP('',(#558));
#467=EDGE_LOOP('',(#559,#560,#561,#562,#563,#564,#565,#566,#567,#568,#569,
#570));
#468=EDGE_LOOP('',(#571,#572,#573,#574));
#469=EDGE_LOOP('',(#575,#576,#577,#578));
#470=EDGE_LOOP('',(#579,#580,#581,#582,#583,#584,#585,#586,#587,#588,#589,
#590,#591,#592,#593,#594,#595,#596,#597,#598,#599,#600,#601,#602,#603,#604,
#605,#606));
#471=EDGE_LOOP('',(#607,#608,#609,#610));
#472=EDGE_LOOP('',(#611,#612,#613,#614));
#473=EDGE_LOOP('',(#615,#616,#617,#618));
#474=EDGE_LOOP('',(#619));
#475=EDGE_LOOP('',(#620,#621,#622,#623,#624,#625,#626,#627,#628,#629,#630,
#631));
#476=EDGE_LOOP('',(#632));
#477=EDGE_LOOP('',(#633));
#478=EDGE_LOOP('',(#634));
#479=EDGE_LOOP('',(#635));
#480=EDGE_LOOP('',(#636));
#481=EDGE_LOOP('',(#637,#638,#639,#640,#641,#642));
#482=EDGE_LOOP('',(#643));
#483=EDGE_LOOP('',(#644));
#484=EDGE_LOOP('',(#645));
#485=EDGE_LOOP('',(#646));
#486=EDGE_LOOP('',(#647));
#487=EDGE_LOOP('',(#648));
#488=EDGE_LOOP('',(#649));
#489=EDGE_LOOP('',(#650,#651,#652,#653,#654,#655));
#490=EDGE_LOOP('',(#656));
#491=EDGE_LOOP('',(#657));
#492=EDGE_LOOP('',(#658));
#493=EDGE_LOOP('',(#659));
#494=EDGE_LOOP('',(#660));
#495=EDGE_LOOP('',(#661));
#496=EDGE_LOOP('',(#662));
#497=EDGE_LOOP('',(#663));
#498=EDGE_LOOP('',(#664));
#499=EDGE_LOOP('',(#665));
#500=EDGE_LOOP('',(#666));
#501=EDGE_LOOP('',(#667));
#502=EDGE_LOOP('',(#668));
#503=EDGE_LOOP('',(#669));
#504=EDGE_LOOP('',(#670));
#505=EDGE_LOOP('',(#671));
#506=EDGE_LOOP('',(#672));
#507=EDGE_LOOP('',(#673));
#508=EDGE_LOOP('',(#674));
#509=EDGE_LOOP('',(#675));
#510=EDGE_LOOP('',(#676,#677,#678,#679,#680,#681,#682,#683,#684,#685,#686,
#687));
#511=EDGE_LOOP('',(#688));
#512=EDGE_LOOP('',(#689));
#513=EDGE_LOOP('',(#690,#691,#692,#693));
#514=EDGE_LOOP('',(#694,#695,#696,#697,#698,#699));
#515=EDGE_LOOP('',(#700));
#516=EDGE_LOOP('',(#701,#702,#703,#704));
#517=EDGE_LOOP('',(#705,#706,#707,#708));
#518=EDGE_LOOP('',(#709,#710,#711,#712));
#519=EDGE_LOOP('',(#713,#714,#715,#716));
#520=EDGE_LOOP('',(#717,#718,#719,#720,#721,#722));
#521=EDGE_LOOP('',(#723));
#522=EDGE_LOOP('',(#724,#725,#726,#727));
#523=EDGE_LOOP('',(#728,#729,#730,#731));
#524=EDGE_LOOP('',(#732,#733,#734,#735));
#525=EDGE_LOOP('',(#736,#737,#738,#739));
#526=EDGE_LOOP('',(#740,#741,#742,#743,#744,#745,#746));
#527=EDGE_LOOP('',(#747,#748,#749,#750,#751,#752,#753));
#528=EDGE_LOOP('',(#754,#755,#756,#757,#758,#759));
#529=EDGE_LOOP('',(#760,#761,#762,#763,#764,#765));
#530=EDGE_LOOP('',(#766,#767,#768,#769));
#531=EDGE_LOOP('',(#770,#771,#772,#773));
#532=EDGE_LOOP('',(#774,#775,#776,#777));
#533=EDGE_LOOP('',(#778,#779,#780,#781));
#534=EDGE_LOOP('',(#782,#783,#784,#785));
#535=EDGE_LOOP('',(#786,#787,#788,#789,#790));
#536=EDGE_LOOP('',(#791,#792,#793,#794,#795));
#537=EDGE_LOOP('',(#796,#797,#798,#799));
#538=EDGE_LOOP('',(#800,#801,#802,#803));
#539=EDGE_LOOP('',(#804,#805,#806,#807));
#540=EDGE_LOOP('',(#808,#809,#810,#811));
#541=EDGE_LOOP('',(#812,#813,#814,#815));
#542=EDGE_LOOP('',(#816,#817,#818,#819));
#543=EDGE_LOOP('',(#820,#821,#822,#823));
#544=EDGE_LOOP('',(#824,#825,#826,#827));
#545=EDGE_LOOP('',(#828,#829,#830,#831));
#546=EDGE_LOOP('',(#832,#833,#834,#835));
#547=EDGE_LOOP('',(#836,#837,#838,#839));
#548=EDGE_LOOP('',(#840,#841,#842,#843));
#549=EDGE_LOOP('',(#844,#845,#846,#847));
#550=EDGE_LOOP('',(#848,#849,#850,#851));
#551=EDGE_LOOP('',(#852,#853,#854,#855));
#552=EDGE_LOOP('',(#856,#857,#858,#859));
#553=EDGE_LOOP('',(#860,#861,#862,#863));
#554=ORIENTED_EDGE('',*,*,#971,.F.);
#555=ORIENTED_EDGE('',*,*,#972,.T.);
#556=ORIENTED_EDGE('',*,*,#973,.T.);
#557=ORIENTED_EDGE('',*,*,#974,.T.);
#558=ORIENTED_EDGE('',*,*,#975,.T.);
#559=ORIENTED_EDGE('',*,*,#976,.T.);
#560=ORIENTED_EDGE('',*,*,#977,.T.);
#561=ORIENTED_EDGE('',*,*,#978,.F.);
#562=ORIENTED_EDGE('',*,*,#979,.T.);
#563=ORIENTED_EDGE('',*,*,#980,.F.);
#564=ORIENTED_EDGE('',*,*,#981,.T.);
#565=ORIENTED_EDGE('',*,*,#982,.F.);
#566=ORIENTED_EDGE('',*,*,#983,.T.);
#567=ORIENTED_EDGE('',*,*,#984,.T.);
#568=ORIENTED_EDGE('',*,*,#985,.T.);
#569=ORIENTED_EDGE('',*,*,#986,.F.);
#570=ORIENTED_EDGE('',*,*,#987,.T.);
#571=ORIENTED_EDGE('',*,*,#980,.T.);
#572=ORIENTED_EDGE('',*,*,#988,.T.);
#573=ORIENTED_EDGE('',*,*,#989,.F.);
#574=ORIENTED_EDGE('',*,*,#990,.T.);
#575=ORIENTED_EDGE('',*,*,#991,.T.);
#576=ORIENTED_EDGE('',*,*,#992,.T.);
#577=ORIENTED_EDGE('',*,*,#993,.T.);
#578=ORIENTED_EDGE('',*,*,#976,.F.);
#579=ORIENTED_EDGE('',*,*,#994,.T.);
#580=ORIENTED_EDGE('',*,*,#995,.T.);
#581=ORIENTED_EDGE('',*,*,#996,.T.);
#582=ORIENTED_EDGE('',*,*,#997,.T.);
#583=ORIENTED_EDGE('',*,*,#998,.T.);
#584=ORIENTED_EDGE('',*,*,#999,.T.);
#585=ORIENTED_EDGE('',*,*,#1000,.T.);
#586=ORIENTED_EDGE('',*,*,#1001,.T.);
#587=ORIENTED_EDGE('',*,*,#1002,.T.);
#588=ORIENTED_EDGE('',*,*,#1003,.T.);
#589=ORIENTED_EDGE('',*,*,#1004,.T.);
#590=ORIENTED_EDGE('',*,*,#1005,.F.);
#591=ORIENTED_EDGE('',*,*,#1006,.T.);
#592=ORIENTED_EDGE('',*,*,#1007,.F.);
#593=ORIENTED_EDGE('',*,*,#1008,.T.);
#594=ORIENTED_EDGE('',*,*,#1009,.F.);
#595=ORIENTED_EDGE('',*,*,#1010,.F.);
#596=ORIENTED_EDGE('',*,*,#1011,.F.);
#597=ORIENTED_EDGE('',*,*,#1012,.T.);
#598=ORIENTED_EDGE('',*,*,#1013,.F.);
#599=ORIENTED_EDGE('',*,*,#1014,.T.);
#600=ORIENTED_EDGE('',*,*,#1015,.F.);
#601=ORIENTED_EDGE('',*,*,#1016,.F.);
#602=ORIENTED_EDGE('',*,*,#1017,.F.);
#603=ORIENTED_EDGE('',*,*,#1018,.T.);
#604=ORIENTED_EDGE('',*,*,#1019,.F.);
#605=ORIENTED_EDGE('',*,*,#1020,.T.);
#606=ORIENTED_EDGE('',*,*,#1021,.F.);
#607=ORIENTED_EDGE('',*,*,#1022,.T.);
#608=ORIENTED_EDGE('',*,*,#1023,.T.);
#609=ORIENTED_EDGE('',*,*,#1024,.T.);
#610=ORIENTED_EDGE('',*,*,#1025,.F.);
#611=ORIENTED_EDGE('',*,*,#1026,.F.);
#612=ORIENTED_EDGE('',*,*,#1027,.T.);
#613=ORIENTED_EDGE('',*,*,#1028,.T.);
#614=ORIENTED_EDGE('',*,*,#1029,.F.);
#615=ORIENTED_EDGE('',*,*,#1030,.T.);
#616=ORIENTED_EDGE('',*,*,#1031,.T.);
#617=ORIENTED_EDGE('',*,*,#1032,.T.);
#618=ORIENTED_EDGE('',*,*,#1033,.T.);
#619=ORIENTED_EDGE('',*,*,#971,.T.);
#620=ORIENTED_EDGE('',*,*,#1007,.T.);
#621=ORIENTED_EDGE('',*,*,#1034,.T.);
#622=ORIENTED_EDGE('',*,*,#1035,.F.);
#623=ORIENTED_EDGE('',*,*,#1036,.T.);
#624=ORIENTED_EDGE('',*,*,#1019,.T.);
#625=ORIENTED_EDGE('',*,*,#1037,.T.);
#626=ORIENTED_EDGE('',*,*,#1038,.F.);
#627=ORIENTED_EDGE('',*,*,#1039,.T.);
#628=ORIENTED_EDGE('',*,*,#1013,.T.);
#629=ORIENTED_EDGE('',*,*,#1040,.T.);
#630=ORIENTED_EDGE('',*,*,#1041,.F.);
#631=ORIENTED_EDGE('',*,*,#1042,.T.);
#632=ORIENTED_EDGE('',*,*,#972,.F.);
#633=ORIENTED_EDGE('',*,*,#1043,.F.);
#634=ORIENTED_EDGE('',*,*,#974,.F.);
#635=ORIENTED_EDGE('',*,*,#1044,.F.);
#636=ORIENTED_EDGE('',*,*,#1045,.F.);
#637=ORIENTED_EDGE('',*,*,#1046,.T.);
#638=ORIENTED_EDGE('',*,*,#1026,.T.);
#639=ORIENTED_EDGE('',*,*,#1047,.T.);
#640=ORIENTED_EDGE('',*,*,#1024,.F.);
#641=ORIENTED_EDGE('',*,*,#1048,.T.);
#642=ORIENTED_EDGE('',*,*,#1049,.T.);
#643=ORIENTED_EDGE('',*,*,#1050,.F.);
#644=ORIENTED_EDGE('',*,*,#1051,.F.);
#645=ORIENTED_EDGE('',*,*,#1052,.F.);
#646=ORIENTED_EDGE('',*,*,#1053,.T.);
#647=ORIENTED_EDGE('',*,*,#1054,.T.);
#648=ORIENTED_EDGE('',*,*,#1055,.T.);
#649=ORIENTED_EDGE('',*,*,#1056,.T.);
#650=ORIENTED_EDGE('',*,*,#1029,.T.);
#651=ORIENTED_EDGE('',*,*,#1057,.T.);
#652=ORIENTED_EDGE('',*,*,#986,.T.);
#653=ORIENTED_EDGE('',*,*,#1058,.T.);
#654=ORIENTED_EDGE('',*,*,#1025,.T.);
#655=ORIENTED_EDGE('',*,*,#1047,.F.);
#656=ORIENTED_EDGE('',*,*,#1059,.T.);
#657=ORIENTED_EDGE('',*,*,#1050,.T.);
#658=ORIENTED_EDGE('',*,*,#1060,.T.);
#659=ORIENTED_EDGE('',*,*,#1051,.T.);
#660=ORIENTED_EDGE('',*,*,#1061,.T.);
#661=ORIENTED_EDGE('',*,*,#1052,.T.);
#662=ORIENTED_EDGE('',*,*,#1054,.F.);
#663=ORIENTED_EDGE('',*,*,#1060,.F.);
#664=ORIENTED_EDGE('',*,*,#1055,.F.);
#665=ORIENTED_EDGE('',*,*,#1059,.F.);
#666=ORIENTED_EDGE('',*,*,#1056,.F.);
#667=ORIENTED_EDGE('',*,*,#1061,.F.);
#668=ORIENTED_EDGE('',*,*,#1062,.T.);
#669=ORIENTED_EDGE('',*,*,#1053,.F.);
#670=ORIENTED_EDGE('',*,*,#1045,.T.);
#671=ORIENTED_EDGE('',*,*,#1062,.F.);
#672=ORIENTED_EDGE('',*,*,#1063,.T.);
#673=ORIENTED_EDGE('',*,*,#973,.F.);
#674=ORIENTED_EDGE('',*,*,#1064,.T.);
#675=ORIENTED_EDGE('',*,*,#975,.F.);
#676=ORIENTED_EDGE('',*,*,#989,.T.);
#677=ORIENTED_EDGE('',*,*,#1065,.T.);
#678=ORIENTED_EDGE('',*,*,#1066,.F.);
#679=ORIENTED_EDGE('',*,*,#1067,.T.);
#680=ORIENTED_EDGE('',*,*,#1068,.F.);
#681=ORIENTED_EDGE('',*,*,#1069,.T.);
#682=ORIENTED_EDGE('',*,*,#1035,.T.);
#683=ORIENTED_EDGE('',*,*,#1070,.T.);
#684=ORIENTED_EDGE('',*,*,#1071,.F.);
#685=ORIENTED_EDGE('',*,*,#1072,.T.);
#686=ORIENTED_EDGE('',*,*,#1073,.F.);
#687=ORIENTED_EDGE('',*,*,#1074,.T.);
#688=ORIENTED_EDGE('',*,*,#1064,.F.);
#689=ORIENTED_EDGE('',*,*,#1063,.F.);
#690=ORIENTED_EDGE('',*,*,#1071,.T.);
#691=ORIENTED_EDGE('',*,*,#1075,.T.);
#692=ORIENTED_EDGE('',*,*,#1005,.T.);
#693=ORIENTED_EDGE('',*,*,#1076,.T.);
#694=ORIENTED_EDGE('',*,*,#1077,.F.);
#695=ORIENTED_EDGE('',*,*,#1078,.F.);
#696=ORIENTED_EDGE('',*,*,#1079,.F.);
#697=ORIENTED_EDGE('',*,*,#1080,.T.);
#698=ORIENTED_EDGE('',*,*,#1038,.T.);
#699=ORIENTED_EDGE('',*,*,#1081,.T.);
#700=ORIENTED_EDGE('',*,*,#1044,.T.);
#701=ORIENTED_EDGE('',*,*,#1077,.T.);
#702=ORIENTED_EDGE('',*,*,#1082,.T.);
#703=ORIENTED_EDGE('',*,*,#1017,.T.);
#704=ORIENTED_EDGE('',*,*,#1083,.T.);
#705=ORIENTED_EDGE('',*,*,#1016,.T.);
#706=ORIENTED_EDGE('',*,*,#1084,.T.);
#707=ORIENTED_EDGE('',*,*,#1078,.T.);
#708=ORIENTED_EDGE('',*,*,#1083,.F.);
#709=ORIENTED_EDGE('',*,*,#1015,.T.);
#710=ORIENTED_EDGE('',*,*,#1085,.T.);
#711=ORIENTED_EDGE('',*,*,#1079,.T.);
#712=ORIENTED_EDGE('',*,*,#1084,.F.);
#713=ORIENTED_EDGE('',*,*,#1068,.T.);
#714=ORIENTED_EDGE('',*,*,#1086,.T.);
#715=ORIENTED_EDGE('',*,*,#1021,.T.);
#716=ORIENTED_EDGE('',*,*,#1087,.T.);
#717=ORIENTED_EDGE('',*,*,#1088,.F.);
#718=ORIENTED_EDGE('',*,*,#1089,.F.);
#719=ORIENTED_EDGE('',*,*,#1090,.F.);
#720=ORIENTED_EDGE('',*,*,#1091,.T.);
#721=ORIENTED_EDGE('',*,*,#1041,.T.);
#722=ORIENTED_EDGE('',*,*,#1092,.T.);
#723=ORIENTED_EDGE('',*,*,#1043,.T.);
#724=ORIENTED_EDGE('',*,*,#1088,.T.);
#725=ORIENTED_EDGE('',*,*,#1093,.T.);
#726=ORIENTED_EDGE('',*,*,#1011,.T.);
#727=ORIENTED_EDGE('',*,*,#1094,.T.);
#728=ORIENTED_EDGE('',*,*,#1010,.T.);
#729=ORIENTED_EDGE('',*,*,#1095,.T.);
#730=ORIENTED_EDGE('',*,*,#1089,.T.);
#731=ORIENTED_EDGE('',*,*,#1094,.F.);
#732=ORIENTED_EDGE('',*,*,#1009,.T.);
#733=ORIENTED_EDGE('',*,*,#1096,.T.);
#734=ORIENTED_EDGE('',*,*,#1090,.T.);
#735=ORIENTED_EDGE('',*,*,#1095,.F.);
#736=ORIENTED_EDGE('',*,*,#1097,.T.);
#737=ORIENTED_EDGE('',*,*,#1098,.T.);
#738=ORIENTED_EDGE('',*,*,#1099,.T.);
#739=ORIENTED_EDGE('',*,*,#984,.F.);
#740=ORIENTED_EDGE('',*,*,#1028,.F.);
#741=ORIENTED_EDGE('',*,*,#1100,.T.);
#742=ORIENTED_EDGE('',*,*,#1030,.F.);
#743=ORIENTED_EDGE('',*,*,#1101,.T.);
#744=ORIENTED_EDGE('',*,*,#991,.F.);
#745=ORIENTED_EDGE('',*,*,#987,.F.);
#746=ORIENTED_EDGE('',*,*,#1057,.F.);
#747=ORIENTED_EDGE('',*,*,#1032,.F.);
#748=ORIENTED_EDGE('',*,*,#1102,.T.);
#749=ORIENTED_EDGE('',*,*,#1022,.F.);
#750=ORIENTED_EDGE('',*,*,#1058,.F.);
#751=ORIENTED_EDGE('',*,*,#985,.F.);
#752=ORIENTED_EDGE('',*,*,#1099,.F.);
#753=ORIENTED_EDGE('',*,*,#1103,.T.);
#754=ORIENTED_EDGE('',*,*,#1104,.T.);
#755=ORIENTED_EDGE('',*,*,#1105,.T.);
#756=ORIENTED_EDGE('',*,*,#1106,.T.);
#757=ORIENTED_EDGE('',*,*,#1066,.T.);
#758=ORIENTED_EDGE('',*,*,#1107,.T.);
#759=ORIENTED_EDGE('',*,*,#978,.T.);
#760=ORIENTED_EDGE('',*,*,#1108,.T.);
#761=ORIENTED_EDGE('',*,*,#1109,.T.);
#762=ORIENTED_EDGE('',*,*,#1110,.T.);
#763=ORIENTED_EDGE('',*,*,#982,.T.);
#764=ORIENTED_EDGE('',*,*,#1111,.T.);
#765=ORIENTED_EDGE('',*,*,#1073,.T.);
#766=ORIENTED_EDGE('',*,*,#993,.F.);
#767=ORIENTED_EDGE('',*,*,#1112,.T.);
#768=ORIENTED_EDGE('',*,*,#1104,.F.);
#769=ORIENTED_EDGE('',*,*,#977,.F.);
#770=ORIENTED_EDGE('',*,*,#1107,.F.);
#771=ORIENTED_EDGE('',*,*,#1065,.F.);
#772=ORIENTED_EDGE('',*,*,#988,.F.);
#773=ORIENTED_EDGE('',*,*,#979,.F.);
#774=ORIENTED_EDGE('',*,*,#1074,.F.);
#775=ORIENTED_EDGE('',*,*,#1111,.F.);
#776=ORIENTED_EDGE('',*,*,#981,.F.);
#777=ORIENTED_EDGE('',*,*,#990,.F.);
#778=ORIENTED_EDGE('',*,*,#1110,.F.);
#779=ORIENTED_EDGE('',*,*,#1113,.T.);
#780=ORIENTED_EDGE('',*,*,#1097,.F.);
#781=ORIENTED_EDGE('',*,*,#983,.F.);
#782=ORIENTED_EDGE('',*,*,#1070,.F.);
#783=ORIENTED_EDGE('',*,*,#1034,.F.);
#784=ORIENTED_EDGE('',*,*,#1006,.F.);
#785=ORIENTED_EDGE('',*,*,#1075,.F.);
#786=ORIENTED_EDGE('',*,*,#1004,.F.);
#787=ORIENTED_EDGE('',*,*,#1114,.T.);
#788=ORIENTED_EDGE('',*,*,#1108,.F.);
#789=ORIENTED_EDGE('',*,*,#1072,.F.);
#790=ORIENTED_EDGE('',*,*,#1076,.F.);
#791=ORIENTED_EDGE('',*,*,#1106,.F.);
#792=ORIENTED_EDGE('',*,*,#1115,.T.);
#793=ORIENTED_EDGE('',*,*,#994,.F.);
#794=ORIENTED_EDGE('',*,*,#1086,.F.);
#795=ORIENTED_EDGE('',*,*,#1067,.F.);
#796=ORIENTED_EDGE('',*,*,#1069,.F.);
#797=ORIENTED_EDGE('',*,*,#1087,.F.);
#798=ORIENTED_EDGE('',*,*,#1020,.F.);
#799=ORIENTED_EDGE('',*,*,#1036,.F.);
#800=ORIENTED_EDGE('',*,*,#1081,.F.);
#801=ORIENTED_EDGE('',*,*,#1037,.F.);
#802=ORIENTED_EDGE('',*,*,#1018,.F.);
#803=ORIENTED_EDGE('',*,*,#1082,.F.);
#804=ORIENTED_EDGE('',*,*,#1080,.F.);
#805=ORIENTED_EDGE('',*,*,#1085,.F.);
#806=ORIENTED_EDGE('',*,*,#1014,.F.);
#807=ORIENTED_EDGE('',*,*,#1039,.F.);
#808=ORIENTED_EDGE('',*,*,#1091,.F.);
#809=ORIENTED_EDGE('',*,*,#1096,.F.);
#810=ORIENTED_EDGE('',*,*,#1008,.F.);
#811=ORIENTED_EDGE('',*,*,#1042,.F.);
#812=ORIENTED_EDGE('',*,*,#1092,.F.);
#813=ORIENTED_EDGE('',*,*,#1040,.F.);
#814=ORIENTED_EDGE('',*,*,#1012,.F.);
#815=ORIENTED_EDGE('',*,*,#1093,.F.);
#816=ORIENTED_EDGE('',*,*,#1114,.F.);
#817=ORIENTED_EDGE('',*,*,#1003,.F.);
#818=ORIENTED_EDGE('',*,*,#1116,.F.);
#819=ORIENTED_EDGE('',*,*,#1109,.F.);
#820=ORIENTED_EDGE('',*,*,#1116,.T.);
#821=ORIENTED_EDGE('',*,*,#1002,.F.);
#822=ORIENTED_EDGE('',*,*,#1117,.F.);
#823=ORIENTED_EDGE('',*,*,#1113,.F.);
#824=ORIENTED_EDGE('',*,*,#1117,.T.);
#825=ORIENTED_EDGE('',*,*,#1001,.F.);
#826=ORIENTED_EDGE('',*,*,#1118,.F.);
#827=ORIENTED_EDGE('',*,*,#1098,.F.);
#828=ORIENTED_EDGE('',*,*,#1118,.T.);
#829=ORIENTED_EDGE('',*,*,#1000,.F.);
#830=ORIENTED_EDGE('',*,*,#1119,.F.);
#831=ORIENTED_EDGE('',*,*,#1103,.F.);
#832=ORIENTED_EDGE('',*,*,#1119,.T.);
#833=ORIENTED_EDGE('',*,*,#999,.F.);
#834=ORIENTED_EDGE('',*,*,#1120,.F.);
#835=ORIENTED_EDGE('',*,*,#1033,.F.);
#836=ORIENTED_EDGE('',*,*,#1120,.T.);
#837=ORIENTED_EDGE('',*,*,#998,.F.);
#838=ORIENTED_EDGE('',*,*,#1121,.F.);
#839=ORIENTED_EDGE('',*,*,#1101,.F.);
#840=ORIENTED_EDGE('',*,*,#1121,.T.);
#841=ORIENTED_EDGE('',*,*,#997,.F.);
#842=ORIENTED_EDGE('',*,*,#1122,.F.);
#843=ORIENTED_EDGE('',*,*,#992,.F.);
#844=ORIENTED_EDGE('',*,*,#1122,.T.);
#845=ORIENTED_EDGE('',*,*,#996,.F.);
#846=ORIENTED_EDGE('',*,*,#1123,.F.);
#847=ORIENTED_EDGE('',*,*,#1112,.F.);
#848=ORIENTED_EDGE('',*,*,#1123,.T.);
#849=ORIENTED_EDGE('',*,*,#995,.F.);
#850=ORIENTED_EDGE('',*,*,#1115,.F.);
#851=ORIENTED_EDGE('',*,*,#1105,.F.);
#852=ORIENTED_EDGE('',*,*,#1027,.F.);
#853=ORIENTED_EDGE('',*,*,#1046,.F.);
#854=ORIENTED_EDGE('',*,*,#1124,.F.);
#855=ORIENTED_EDGE('',*,*,#1100,.F.);
#856=ORIENTED_EDGE('',*,*,#1124,.T.);
#857=ORIENTED_EDGE('',*,*,#1049,.F.);
#858=ORIENTED_EDGE('',*,*,#1125,.F.);
#859=ORIENTED_EDGE('',*,*,#1031,.F.);
#860=ORIENTED_EDGE('',*,*,#1023,.F.);
#861=ORIENTED_EDGE('',*,*,#1102,.F.);
#862=ORIENTED_EDGE('',*,*,#1125,.T.);
#863=ORIENTED_EDGE('',*,*,#1048,.F.);
#864=VERTEX_POINT('',#1699);
#865=VERTEX_POINT('',#1701);
#866=VERTEX_POINT('',#1703);
#867=VERTEX_POINT('',#1705);
#868=VERTEX_POINT('',#1707);
#869=VERTEX_POINT('',#1709);
#870=VERTEX_POINT('',#1710);
#871=VERTEX_POINT('',#1712);
#872=VERTEX_POINT('',#1714);
#873=VERTEX_POINT('',#1716);
#874=VERTEX_POINT('',#1718);
#875=VERTEX_POINT('',#1720);
#876=VERTEX_POINT('',#1722);
#877=VERTEX_POINT('',#1724);
#878=VERTEX_POINT('',#1726);
#879=VERTEX_POINT('',#1728);
#880=VERTEX_POINT('',#1730);
#881=VERTEX_POINT('',#1734);
#882=VERTEX_POINT('',#1736);
#883=VERTEX_POINT('',#1740);
#884=VERTEX_POINT('',#1742);
#885=VERTEX_POINT('',#1746);
#886=VERTEX_POINT('',#1747);
#887=VERTEX_POINT('',#1749);
#888=VERTEX_POINT('',#1751);
#889=VERTEX_POINT('',#1753);
#890=VERTEX_POINT('',#1755);
#891=VERTEX_POINT('',#1757);
#892=VERTEX_POINT('',#1759);
#893=VERTEX_POINT('',#1761);
#894=VERTEX_POINT('',#1763);
#895=VERTEX_POINT('',#1765);
#896=VERTEX_POINT('',#1767);
#897=VERTEX_POINT('',#1769);
#898=VERTEX_POINT('',#1771);
#899=VERTEX_POINT('',#1773);
#900=VERTEX_POINT('',#1775);
#901=VERTEX_POINT('',#1777);
#902=VERTEX_POINT('',#1779);
#903=VERTEX_POINT('',#1781);
#904=VERTEX_POINT('',#1783);
#905=VERTEX_POINT('',#1785);
#906=VERTEX_POINT('',#1787);
#907=VERTEX_POINT('',#1789);
#908=VERTEX_POINT('',#1791);
#909=VERTEX_POINT('',#1793);
#910=VERTEX_POINT('',#1795);
#911=VERTEX_POINT('',#1797);
#912=VERTEX_POINT('',#1799);
#913=VERTEX_POINT('',#1803);
#914=VERTEX_POINT('',#1804);
#915=VERTEX_POINT('',#1809);
#916=VERTEX_POINT('',#1811);
#917=VERTEX_POINT('',#1815);
#918=VERTEX_POINT('',#1816);
#919=VERTEX_POINT('',#1821);
#920=VERTEX_POINT('',#1823);
#921=VERTEX_POINT('',#1827);
#922=VERTEX_POINT('',#1828);
#923=VERTEX_POINT('',#1830);
#924=VERTEX_POINT('',#1832);
#925=VERTEX_POINT('',#1836);
#926=VERTEX_POINT('',#1838);
#927=VERTEX_POINT('',#1841);
#928=VERTEX_POINT('',#1843);
#929=VERTEX_POINT('',#1846);
#930=VERTEX_POINT('',#1848);
#931=VERTEX_POINT('',#1852);
#932=VERTEX_POINT('',#1855);
#933=VERTEX_POINT('',#1858);
#934=VERTEX_POINT('',#1865);
#935=VERTEX_POINT('',#1873);
#936=VERTEX_POINT('',#1877);
#937=VERTEX_POINT('',#1879);
#938=VERTEX_POINT('',#1881);
#939=VERTEX_POINT('',#1883);
#940=VERTEX_POINT('',#1886);
#941=VERTEX_POINT('',#1888);
#942=VERTEX_POINT('',#1890);
#943=VERTEX_POINT('',#1895);
#944=VERTEX_POINT('',#1898);
#945=VERTEX_POINT('',#1901);
#946=VERTEX_POINT('',#1907);
#947=VERTEX_POINT('',#1911);
#948=VERTEX_POINT('',#1914);
#949=VERTEX_POINT('',#1917);
#950=VERTEX_POINT('',#1919);
#951=VERTEX_POINT('',#1921);
#952=VERTEX_POINT('',#1923);
#953=VERTEX_POINT('',#1926);
#954=VERTEX_POINT('',#1928);
#955=VERTEX_POINT('',#1930);
#956=VERTEX_POINT('',#1932);
#957=VERTEX_POINT('',#1939);
#958=VERTEX_POINT('',#1940);
#959=VERTEX_POINT('',#1942);
#960=VERTEX_POINT('',#1944);
#961=VERTEX_POINT('',#1959);
#962=VERTEX_POINT('',#1960);
#963=VERTEX_POINT('',#1962);
#964=VERTEX_POINT('',#1964);
#965=VERTEX_POINT('',#1976);
#966=VERTEX_POINT('',#1978);
#967=VERTEX_POINT('',#1994);
#968=VERTEX_POINT('',#1996);
#969=VERTEX_POINT('',#2001);
#970=VERTEX_POINT('',#2003);
#971=EDGE_CURVE('',#864,#864,#1126,.T.);
#972=EDGE_CURVE('',#865,#865,#1127,.T.);
#973=EDGE_CURVE('',#866,#866,#1128,.T.);
#974=EDGE_CURVE('',#867,#867,#1129,.T.);
#975=EDGE_CURVE('',#868,#868,#1130,.T.);
#976=EDGE_CURVE('',#869,#870,#1131,.T.);
#977=EDGE_CURVE('',#870,#871,#1132,.T.);
#978=EDGE_CURVE('',#872,#871,#275,.T.);
#979=EDGE_CURVE('',#872,#873,#1133,.T.);
#980=EDGE_CURVE('',#874,#873,#1134,.T.);
#981=EDGE_CURVE('',#874,#875,#1135,.T.);
#982=EDGE_CURVE('',#876,#875,#276,.T.);
#983=EDGE_CURVE('',#876,#877,#1136,.T.);
#984=EDGE_CURVE('',#877,#878,#1137,.T.);
#985=EDGE_CURVE('',#878,#879,#1138,.T.);
#986=EDGE_CURVE('',#880,#879,#277,.T.);
#987=EDGE_CURVE('',#880,#869,#1139,.T.);
#988=EDGE_CURVE('',#873,#881,#278,.T.);
#989=EDGE_CURVE('',#882,#881,#1140,.T.);
#990=EDGE_CURVE('',#882,#874,#279,.T.);
#991=EDGE_CURVE('',#869,#883,#280,.T.);
#992=EDGE_CURVE('',#883,#884,#1141,.T.);
#993=EDGE_CURVE('',#884,#870,#281,.T.);
#994=EDGE_CURVE('',#885,#886,#1142,.T.);
#995=EDGE_CURVE('',#886,#887,#282,.T.);
#996=EDGE_CURVE('',#887,#888,#1143,.T.);
#997=EDGE_CURVE('',#888,#889,#1144,.T.);
#998=EDGE_CURVE('',#889,#890,#1145,.T.);
#999=EDGE_CURVE('',#890,#891,#283,.T.);
#1000=EDGE_CURVE('',#891,#892,#1146,.T.);
#1001=EDGE_CURVE('',#892,#893,#1147,.T.);
#1002=EDGE_CURVE('',#893,#894,#1148,.T.);
#1003=EDGE_CURVE('',#894,#895,#284,.T.);
#1004=EDGE_CURVE('',#895,#896,#1149,.T.);
#1005=EDGE_CURVE('',#897,#896,#285,.T.);
#1006=EDGE_CURVE('',#897,#898,#1150,.T.);
#1007=EDGE_CURVE('',#899,#898,#1151,.T.);
#1008=EDGE_CURVE('',#899,#900,#1152,.T.);
#1009=EDGE_CURVE('',#901,#900,#286,.T.);
#1010=EDGE_CURVE('',#902,#901,#1153,.T.);
#1011=EDGE_CURVE('',#903,#902,#287,.T.);
#1012=EDGE_CURVE('',#903,#904,#1154,.T.);
#1013=EDGE_CURVE('',#905,#904,#1155,.T.);
#1014=EDGE_CURVE('',#905,#906,#1156,.T.);
#1015=EDGE_CURVE('',#907,#906,#288,.T.);
#1016=EDGE_CURVE('',#908,#907,#1157,.T.);
#1017=EDGE_CURVE('',#909,#908,#289,.T.);
#1018=EDGE_CURVE('',#909,#910,#1158,.T.);
#1019=EDGE_CURVE('',#911,#910,#1159,.T.);
#1020=EDGE_CURVE('',#911,#912,#1160,.T.);
#1021=EDGE_CURVE('',#885,#912,#290,.T.);
#1022=EDGE_CURVE('',#913,#914,#114,.T.);
#1023=EDGE_CURVE('',#914,#915,#108,.T.);
#1024=EDGE_CURVE('',#915,#916,#291,.T.);
#1025=EDGE_CURVE('',#913,#916,#292,.T.);
#1026=EDGE_CURVE('',#917,#918,#293,.T.);
#1027=EDGE_CURVE('',#917,#919,#109,.T.);
#1028=EDGE_CURVE('',#919,#920,#115,.T.);
#1029=EDGE_CURVE('',#918,#920,#294,.T.);
#1030=EDGE_CURVE('',#921,#922,#295,.T.);
#1031=EDGE_CURVE('',#922,#923,#1161,.T.);
#1032=EDGE_CURVE('',#923,#924,#296,.T.);
#1033=EDGE_CURVE('',#924,#921,#297,.T.);
#1034=EDGE_CURVE('',#898,#925,#298,.T.);
#1035=EDGE_CURVE('',#926,#925,#1162,.T.);
#1036=EDGE_CURVE('',#926,#911,#299,.T.);
#1037=EDGE_CURVE('',#910,#927,#300,.T.);
#1038=EDGE_CURVE('',#928,#927,#1163,.T.);
#1039=EDGE_CURVE('',#928,#905,#301,.T.);
#1040=EDGE_CURVE('',#904,#929,#302,.T.);
#1041=EDGE_CURVE('',#930,#929,#1164,.T.);
#1042=EDGE_CURVE('',#930,#899,#303,.T.);
#1043=EDGE_CURVE('',#931,#931,#1165,.T.);
#1044=EDGE_CURVE('',#932,#932,#1166,.T.);
#1045=EDGE_CURVE('',#933,#933,#1167,.T.);
#1046=EDGE_CURVE('',#934,#917,#110,.T.);
#1047=EDGE_CURVE('',#918,#916,#1168,.T.);
#1048=EDGE_CURVE('',#915,#935,#111,.T.);
#1049=EDGE_CURVE('',#935,#934,#1169,.T.);
#1050=EDGE_CURVE('',#936,#936,#1170,.T.);
#1051=EDGE_CURVE('',#937,#937,#1171,.T.);
#1052=EDGE_CURVE('',#938,#938,#1172,.T.);
#1053=EDGE_CURVE('',#939,#939,#1173,.T.);
#1054=EDGE_CURVE('',#940,#940,#1174,.T.);
#1055=EDGE_CURVE('',#941,#941,#1175,.T.);
#1056=EDGE_CURVE('',#942,#942,#1176,.T.);
#1057=EDGE_CURVE('',#920,#880,#304,.T.);
#1058=EDGE_CURVE('',#879,#913,#305,.T.);
#1059=EDGE_CURVE('',#943,#943,#1177,.T.);
#1060=EDGE_CURVE('',#944,#944,#1178,.T.);
#1061=EDGE_CURVE('',#945,#945,#1179,.T.);
#1062=EDGE_CURVE('',#946,#946,#1180,.T.);
#1063=EDGE_CURVE('',#947,#947,#1181,.T.);
#1064=EDGE_CURVE('',#948,#948,#1182,.T.);
#1065=EDGE_CURVE('',#881,#949,#1183,.T.);
#1066=EDGE_CURVE('',#950,#949,#306,.T.);
#1067=EDGE_CURVE('',#950,#951,#1184,.T.);
#1068=EDGE_CURVE('',#952,#951,#307,.T.);
#1069=EDGE_CURVE('',#952,#926,#1185,.T.);
#1070=EDGE_CURVE('',#925,#953,#1186,.T.);
#1071=EDGE_CURVE('',#954,#953,#308,.T.);
#1072=EDGE_CURVE('',#954,#955,#1187,.T.);
#1073=EDGE_CURVE('',#956,#955,#309,.T.);
#1074=EDGE_CURVE('',#956,#882,#1188,.T.);
#1075=EDGE_CURVE('',#953,#897,#310,.T.);
#1076=EDGE_CURVE('',#896,#954,#311,.T.);
#1077=EDGE_CURVE('',#957,#958,#312,.T.);
#1078=EDGE_CURVE('',#959,#957,#1189,.T.);
#1079=EDGE_CURVE('',#960,#959,#313,.T.);
#1080=EDGE_CURVE('',#960,#928,#1190,.T.);
#1081=EDGE_CURVE('',#927,#958,#1191,.T.);
#1082=EDGE_CURVE('',#958,#909,#314,.T.);
#1083=EDGE_CURVE('',#908,#957,#315,.T.);
#1084=EDGE_CURVE('',#907,#959,#316,.T.);
#1085=EDGE_CURVE('',#906,#960,#317,.T.);
#1086=EDGE_CURVE('',#951,#885,#318,.T.);
#1087=EDGE_CURVE('',#912,#952,#319,.T.);
#1088=EDGE_CURVE('',#961,#962,#320,.T.);
#1089=EDGE_CURVE('',#963,#961,#1192,.T.);
#1090=EDGE_CURVE('',#964,#963,#321,.T.);
#1091=EDGE_CURVE('',#964,#930,#1193,.T.);
#1092=EDGE_CURVE('',#929,#962,#1194,.T.);
#1093=EDGE_CURVE('',#962,#903,#322,.T.);
#1094=EDGE_CURVE('',#902,#961,#323,.T.);
#1095=EDGE_CURVE('',#901,#963,#324,.T.);
#1096=EDGE_CURVE('',#900,#964,#325,.T.);
#1097=EDGE_CURVE('',#877,#965,#326,.T.);
#1098=EDGE_CURVE('',#965,#966,#1195,.T.);
#1099=EDGE_CURVE('',#966,#878,#327,.T.);
#1100=EDGE_CURVE('',#919,#922,#112,.T.);
#1101=EDGE_CURVE('',#921,#883,#1196,.T.);
#1102=EDGE_CURVE('',#923,#914,#113,.T.);
#1103=EDGE_CURVE('',#966,#924,#1197,.T.);
#1104=EDGE_CURVE('',#871,#967,#328,.T.);
#1105=EDGE_CURVE('',#967,#968,#329,.T.);
#1106=EDGE_CURVE('',#968,#950,#330,.T.);
#1107=EDGE_CURVE('',#949,#872,#331,.T.);
#1108=EDGE_CURVE('',#955,#969,#332,.T.);
#1109=EDGE_CURVE('',#969,#970,#333,.T.);
#1110=EDGE_CURVE('',#970,#876,#334,.T.);
#1111=EDGE_CURVE('',#875,#956,#335,.T.);
#1112=EDGE_CURVE('',#884,#967,#1198,.T.);
#1113=EDGE_CURVE('',#970,#965,#1199,.T.);
#1114=EDGE_CURVE('',#895,#969,#116,.T.);
#1115=EDGE_CURVE('',#968,#886,#117,.T.);
#1116=EDGE_CURVE('',#970,#894,#336,.T.);
#1117=EDGE_CURVE('',#965,#893,#337,.T.);
#1118=EDGE_CURVE('',#966,#892,#338,.T.);
#1119=EDGE_CURVE('',#924,#891,#339,.T.);
#1120=EDGE_CURVE('',#921,#890,#340,.T.);
#1121=EDGE_CURVE('',#883,#889,#341,.T.);
#1122=EDGE_CURVE('',#884,#888,#342,.T.);
#1123=EDGE_CURVE('',#967,#887,#343,.T.);
#1124=EDGE_CURVE('',#922,#934,#1200,.T.);
#1125=EDGE_CURVE('',#923,#935,#1201,.T.);
#1126=CIRCLE('',#1203,16.5);
#1127=CIRCLE('',#1204,1.65);
#1128=CIRCLE('',#1205,1.65);
#1129=CIRCLE('',#1206,1.65);
#1130=CIRCLE('',#1207,1.65);
#1131=CIRCLE('',#1208,26.3499999999999);
#1132=CIRCLE('',#1209,1.5);
#1133=CIRCLE('',#1210,1.5);
#1134=CIRCLE('',#1211,23.5);
#1135=CIRCLE('',#1212,1.5);
#1136=CIRCLE('',#1213,1.5);
#1137=CIRCLE('',#1214,26.3499999999999);
#1138=CIRCLE('',#1215,1.5);
#1139=CIRCLE('',#1216,1.5);
#1140=CIRCLE('',#1218,23.5);
#1141=CIRCLE('',#1220,26.3499999999999);
#1142=CIRCLE('',#1222,1.5);
#1143=CIRCLE('',#1223,0.499999999999991);
#1144=CIRCLE('',#1224,25.3499999999999);
#1145=CIRCLE('',#1225,0.499999999999991);
#1146=CIRCLE('',#1226,0.499999999999991);
#1147=CIRCLE('',#1227,25.3499999999999);
#1148=CIRCLE('',#1228,0.499999999999987);
#1149=CIRCLE('',#1229,1.5);
#1150=CIRCLE('',#1230,1.5);
#1151=CIRCLE('',#1231,16.5);
#1152=CIRCLE('',#1232,1.5);
#1153=CIRCLE('',#1233,3.1);
#1154=CIRCLE('',#1234,1.5);
#1155=CIRCLE('',#1235,16.5);
#1156=CIRCLE('',#1236,1.5);
#1157=CIRCLE('',#1237,3.1);
#1158=CIRCLE('',#1238,1.5);
#1159=CIRCLE('',#1239,16.5);
#1160=CIRCLE('',#1240,1.5);
#1161=CIRCLE('',#1246,16.9999999999947);
#1162=CIRCLE('',#1248,16.5);
#1163=CIRCLE('',#1249,16.5);
#1164=CIRCLE('',#1250,16.5);
#1165=CIRCLE('',#1252,1.65);
#1166=CIRCLE('',#1254,1.65);
#1167=CIRCLE('',#1256,15.4999999999947);
#1168=CIRCLE('',#1257,15.4999999999947);
#1169=CIRCLE('',#1258,15.4999999999947);
#1170=CIRCLE('',#1260,1.65);
#1171=CIRCLE('',#1261,1.65);
#1172=CIRCLE('',#1262,1.65);
#1173=CIRCLE('',#1263,13.6);
#1174=CIRCLE('',#1265,3.65);
#1175=CIRCLE('',#1266,3.65);
#1176=CIRCLE('',#1267,3.65);
#1177=CIRCLE('',#1269,1.65);
#1178=CIRCLE('',#1271,1.65);
#1179=CIRCLE('',#1273,1.65);
#1180=CIRCLE('',#1278,13.6);
#1181=CIRCLE('',#1281,1.65);
#1182=CIRCLE('',#1283,1.65);
#1183=CIRCLE('',#1285,1.5);
#1184=CIRCLE('',#1286,1.5);
#1185=CIRCLE('',#1287,1.5);
#1186=CIRCLE('',#1288,1.5);
#1187=CIRCLE('',#1289,1.5);
#1188=CIRCLE('',#1290,1.5);
#1189=CIRCLE('',#1293,3.1);
#1190=CIRCLE('',#1294,1.5);
#1191=CIRCLE('',#1295,1.5);
#1192=CIRCLE('',#1301,3.1);
#1193=CIRCLE('',#1302,1.5);
#1194=CIRCLE('',#1303,1.5);
#1195=CIRCLE('',#1308,26.3499999999999);
#1196=CIRCLE('',#1310,1.5);
#1197=CIRCLE('',#1312,1.5);
#1198=CIRCLE('',#1316,1.5);
#1199=CIRCLE('',#1320,1.5);
#1200=CIRCLE('',#1341,1.5);
#1201=CIRCLE('',#1342,1.5);
#1202=AXIS2_PLACEMENT_3D('',#1697,#1344,#1345);
#1203=AXIS2_PLACEMENT_3D('',#1698,#1346,#1347);
#1204=AXIS2_PLACEMENT_3D('',#1700,#1348,#1349);
#1205=AXIS2_PLACEMENT_3D('',#1702,#1350,#1351);
#1206=AXIS2_PLACEMENT_3D('',#1704,#1352,#1353);
#1207=AXIS2_PLACEMENT_3D('',#1706,#1354,#1355);
#1208=AXIS2_PLACEMENT_3D('',#1708,#1356,#1357);
#1209=AXIS2_PLACEMENT_3D('',#1711,#1358,#1359);
#1210=AXIS2_PLACEMENT_3D('',#1715,#1361,#1362);
#1211=AXIS2_PLACEMENT_3D('',#1717,#1363,#1364);
#1212=AXIS2_PLACEMENT_3D('',#1719,#1365,#1366);
#1213=AXIS2_PLACEMENT_3D('',#1723,#1368,#1369);
#1214=AXIS2_PLACEMENT_3D('',#1725,#1370,#1371);
#1215=AXIS2_PLACEMENT_3D('',#1727,#1372,#1373);
#1216=AXIS2_PLACEMENT_3D('',#1731,#1375,#1376);
#1217=AXIS2_PLACEMENT_3D('',#1732,#1377,#1378);
#1218=AXIS2_PLACEMENT_3D('',#1735,#1380,#1381);
#1219=AXIS2_PLACEMENT_3D('',#1738,#1383,#1384);
#1220=AXIS2_PLACEMENT_3D('',#1741,#1386,#1387);
#1221=AXIS2_PLACEMENT_3D('',#1744,#1389,#1390);
#1222=AXIS2_PLACEMENT_3D('',#1745,#1391,#1392);
#1223=AXIS2_PLACEMENT_3D('',#1750,#1394,#1395);
#1224=AXIS2_PLACEMENT_3D('',#1752,#1396,#1397);
#1225=AXIS2_PLACEMENT_3D('',#1754,#1398,#1399);
#1226=AXIS2_PLACEMENT_3D('',#1758,#1401,#1402);
#1227=AXIS2_PLACEMENT_3D('',#1760,#1403,#1404);
#1228=AXIS2_PLACEMENT_3D('',#1762,#1405,#1406);
#1229=AXIS2_PLACEMENT_3D('',#1766,#1408,#1409);
#1230=AXIS2_PLACEMENT_3D('',#1770,#1411,#1412);
#1231=AXIS2_PLACEMENT_3D('',#1772,#1413,#1414);
#1232=AXIS2_PLACEMENT_3D('',#1774,#1415,#1416);
#1233=AXIS2_PLACEMENT_3D('',#1778,#1418,#1419);
#1234=AXIS2_PLACEMENT_3D('',#1782,#1421,#1422);
#1235=AXIS2_PLACEMENT_3D('',#1784,#1423,#1424);
#1236=AXIS2_PLACEMENT_3D('',#1786,#1425,#1426);
#1237=AXIS2_PLACEMENT_3D('',#1790,#1428,#1429);
#1238=AXIS2_PLACEMENT_3D('',#1794,#1431,#1432);
#1239=AXIS2_PLACEMENT_3D('',#1796,#1433,#1434);
#1240=AXIS2_PLACEMENT_3D('',#1798,#1435,#1436);
#1241=AXIS2_PLACEMENT_3D('',#1801,#1438,#1439);
#1242=AXIS2_PLACEMENT_3D('',#1802,#1440,#1441);
#1243=AXIS2_PLACEMENT_3D('',#1813,#1444,#1445);
#1244=AXIS2_PLACEMENT_3D('',#1822,#1447,#1448);
#1245=AXIS2_PLACEMENT_3D('',#1825,#1450,#1451);
#1246=AXIS2_PLACEMENT_3D('',#1829,#1453,#1454);
#1247=AXIS2_PLACEMENT_3D('',#1834,#1457,#1458);
#1248=AXIS2_PLACEMENT_3D('',#1837,#1460,#1461);
#1249=AXIS2_PLACEMENT_3D('',#1842,#1464,#1465);
#1250=AXIS2_PLACEMENT_3D('',#1847,#1468,#1469);
#1251=AXIS2_PLACEMENT_3D('',#1850,#1471,#1472);
#1252=AXIS2_PLACEMENT_3D('',#1851,#1473,#1474);
#1253=AXIS2_PLACEMENT_3D('',#1853,#1475,#1476);
#1254=AXIS2_PLACEMENT_3D('',#1854,#1477,#1478);
#1255=AXIS2_PLACEMENT_3D('',#1856,#1479,#1480);
#1256=AXIS2_PLACEMENT_3D('',#1857,#1481,#1482);
#1257=AXIS2_PLACEMENT_3D('',#1866,#1483,#1484);
#1258=AXIS2_PLACEMENT_3D('',#1874,#1485,#1486);
#1259=AXIS2_PLACEMENT_3D('',#1875,#1487,#1488);
#1260=AXIS2_PLACEMENT_3D('',#1876,#1489,#1490);
#1261=AXIS2_PLACEMENT_3D('',#1878,#1491,#1492);
#1262=AXIS2_PLACEMENT_3D('',#1880,#1493,#1494);
#1263=AXIS2_PLACEMENT_3D('',#1882,#1495,#1496);
#1264=AXIS2_PLACEMENT_3D('',#1884,#1497,#1498);
#1265=AXIS2_PLACEMENT_3D('',#1885,#1499,#1500);
#1266=AXIS2_PLACEMENT_3D('',#1887,#1501,#1502);
#1267=AXIS2_PLACEMENT_3D('',#1889,#1503,#1504);
#1268=AXIS2_PLACEMENT_3D('',#1893,#1507,#1508);
#1269=AXIS2_PLACEMENT_3D('',#1894,#1509,#1510);
#1270=AXIS2_PLACEMENT_3D('',#1896,#1511,#1512);
#1271=AXIS2_PLACEMENT_3D('',#1897,#1513,#1514);
#1272=AXIS2_PLACEMENT_3D('',#1899,#1515,#1516);
#1273=AXIS2_PLACEMENT_3D('',#1900,#1517,#1518);
#1274=AXIS2_PLACEMENT_3D('',#1902,#1519,#1520);
#1275=AXIS2_PLACEMENT_3D('',#1903,#1521,#1522);
#1276=AXIS2_PLACEMENT_3D('',#1904,#1523,#1524);
#1277=AXIS2_PLACEMENT_3D('',#1905,#1525,#1526);
#1278=AXIS2_PLACEMENT_3D('',#1906,#1527,#1528);
#1279=AXIS2_PLACEMENT_3D('',#1908,#1529,#1530);
#1280=AXIS2_PLACEMENT_3D('',#1909,#1531,#1532);
#1281=AXIS2_PLACEMENT_3D('',#1910,#1533,#1534);
#1282=AXIS2_PLACEMENT_3D('',#1912,#1535,#1536);
#1283=AXIS2_PLACEMENT_3D('',#1913,#1537,#1538);
#1284=AXIS2_PLACEMENT_3D('',#1915,#1539,#1540);
#1285=AXIS2_PLACEMENT_3D('',#1916,#1541,#1542);
#1286=AXIS2_PLACEMENT_3D('',#1920,#1544,#1545);
#1287=AXIS2_PLACEMENT_3D('',#1924,#1547,#1548);
#1288=AXIS2_PLACEMENT_3D('',#1925,#1549,#1550);
#1289=AXIS2_PLACEMENT_3D('',#1929,#1552,#1553);
#1290=AXIS2_PLACEMENT_3D('',#1933,#1555,#1556);
#1291=AXIS2_PLACEMENT_3D('',#1934,#1557,#1558);
#1292=AXIS2_PLACEMENT_3D('',#1937,#1561,#1562);
#1293=AXIS2_PLACEMENT_3D('',#1941,#1564,#1565);
#1294=AXIS2_PLACEMENT_3D('',#1945,#1567,#1568);
#1295=AXIS2_PLACEMENT_3D('',#1946,#1569,#1570);
#1296=AXIS2_PLACEMENT_3D('',#1947,#1571,#1572);
#1297=AXIS2_PLACEMENT_3D('',#1950,#1575,#1576);
#1298=AXIS2_PLACEMENT_3D('',#1952,#1578,#1579);
#1299=AXIS2_PLACEMENT_3D('',#1954,#1581,#1582);
#1300=AXIS2_PLACEMENT_3D('',#1957,#1585,#1586);
#1301=AXIS2_PLACEMENT_3D('',#1961,#1588,#1589);
#1302=AXIS2_PLACEMENT_3D('',#1965,#1591,#1592);
#1303=AXIS2_PLACEMENT_3D('',#1966,#1593,#1594);
#1304=AXIS2_PLACEMENT_3D('',#1967,#1595,#1596);
#1305=AXIS2_PLACEMENT_3D('',#1970,#1599,#1600);
#1306=AXIS2_PLACEMENT_3D('',#1972,#1602,#1603);
#1307=AXIS2_PLACEMENT_3D('',#1974,#1605,#1606);
#1308=AXIS2_PLACEMENT_3D('',#1977,#1608,#1609);
#1309=AXIS2_PLACEMENT_3D('',#1980,#1611,#1612);
#1310=AXIS2_PLACEMENT_3D('',#1985,#1613,#1614);
#1311=AXIS2_PLACEMENT_3D('',#1986,#1615,#1616);
#1312=AXIS2_PLACEMENT_3D('',#1991,#1617,#1618);
#1313=AXIS2_PLACEMENT_3D('',#1992,#1619,#1620);
#1314=AXIS2_PLACEMENT_3D('',#1999,#1625,#1626);
#1315=AXIS2_PLACEMENT_3D('',#2006,#1631,#1632);
#1316=AXIS2_PLACEMENT_3D('',#2007,#1633,#1634);
#1317=AXIS2_PLACEMENT_3D('',#2008,#1635,#1636);
#1318=AXIS2_PLACEMENT_3D('',#2009,#1637,#1638);
#1319=AXIS2_PLACEMENT_3D('',#2010,#1639,#1640);
#1320=AXIS2_PLACEMENT_3D('',#2011,#1641,#1642);
#1321=AXIS2_PLACEMENT_3D('',#2012,#1643,#1644);
#1322=AXIS2_PLACEMENT_3D('',#2013,#1645,#1646);
#1323=AXIS2_PLACEMENT_3D('',#2014,#1647,#1648);
#1324=AXIS2_PLACEMENT_3D('',#2015,#1649,#1650);
#1325=AXIS2_PLACEMENT_3D('',#2016,#1651,#1652);
#1326=AXIS2_PLACEMENT_3D('',#2017,#1653,#1654);
#1327=AXIS2_PLACEMENT_3D('',#2018,#1655,#1656);
#1328=AXIS2_PLACEMENT_3D('',#2019,#1657,#1658);
#1329=AXIS2_PLACEMENT_3D('',#2020,#1659,#1660);
#1330=AXIS2_PLACEMENT_3D('',#2021,#1661,#1662);
#1331=AXIS2_PLACEMENT_3D('',#2022,#1663,#1664);
#1332=AXIS2_PLACEMENT_3D('',#2024,#1666,#1667);
#1333=AXIS2_PLACEMENT_3D('',#2026,#1669,#1670);
#1334=AXIS2_PLACEMENT_3D('',#2028,#1672,#1673);
#1335=AXIS2_PLACEMENT_3D('',#2030,#1675,#1676);
#1336=AXIS2_PLACEMENT_3D('',#2032,#1678,#1679);
#1337=AXIS2_PLACEMENT_3D('',#2034,#1681,#1682);
#1338=AXIS2_PLACEMENT_3D('',#2036,#1684,#1685);
#1339=AXIS2_PLACEMENT_3D('',#2038,#1687,#1688);
#1340=AXIS2_PLACEMENT_3D('',#2039,#1689,#1690);
#1341=AXIS2_PLACEMENT_3D('',#2040,#1691,#1692);
#1342=AXIS2_PLACEMENT_3D('',#2071,#1693,#1694);
#1343=AXIS2_PLACEMENT_3D('',#2072,#1695,#1696);
#1344=DIRECTION('',(0.,0.,1.));
#1345=DIRECTION('',(1.,0.,0.));
#1346=DIRECTION('',(0.,-1.,0.));
#1347=DIRECTION('',(0.,0.,1.));
#1348=DIRECTION('',(0.,1.,0.));
#1349=DIRECTION('',(0.,0.,1.));
#1350=DIRECTION('',(0.,1.,0.));
#1351=DIRECTION('',(0.,0.,0.999999999999999));
#1352=DIRECTION('',(0.,1.,0.));
#1353=DIRECTION('',(0.,0.,1.));
#1354=DIRECTION('',(0.,1.,0.));
#1355=DIRECTION('',(0.,0.,0.999999999999999));
#1356=DIRECTION('',(0.,-1.,0.));
#1357=DIRECTION('',(0.,0.,1.));
#1358=DIRECTION('',(0.,-1.,0.));
#1359=DIRECTION('',(0.,0.,1.));
#1360=DIRECTION('',(3.86016075811988E-15,0.,1.));
#1361=DIRECTION('',(0.,-1.,0.));
#1362=DIRECTION('',(0.,0.,1.));
#1363=DIRECTION('',(0.,1.,0.));
#1364=DIRECTION('',(0.,0.,1.));
#1365=DIRECTION('',(0.,-1.,0.));
#1366=DIRECTION('',(0.,0.,1.));
#1367=DIRECTION('',(3.86016075811988E-15,0.,-1.));
#1368=DIRECTION('',(0.,-1.,0.));
#1369=DIRECTION('',(0.,0.,1.));
#1370=DIRECTION('',(0.,-1.,0.));
#1371=DIRECTION('',(0.,0.,1.));
#1372=DIRECTION('',(0.,1.,0.));
#1373=DIRECTION('',(0.,0.,1.));
#1374=DIRECTION('',(1.,0.,0.));
#1375=DIRECTION('',(0.,1.,0.));
#1376=DIRECTION('',(0.,0.,1.));
#1377=DIRECTION('',(0.,1.,0.));
#1378=DIRECTION('',(0.,0.,1.));
#1379=DIRECTION('',(0.,1.,0.));
#1380=DIRECTION('',(0.,1.,0.));
#1381=DIRECTION('',(0.,0.,-1.));
#1382=DIRECTION('',(0.,-1.,0.));
#1383=DIRECTION('',(0.,1.,0.));
#1384=DIRECTION('',(0.,0.,1.));
#1385=DIRECTION('',(0.,1.,0.));
#1386=DIRECTION('',(0.,-1.,0.));
#1387=DIRECTION('',(0.,0.,1.));
#1388=DIRECTION('',(0.,-1.,0.));
#1389=DIRECTION('',(0.,1.,0.));
#1390=DIRECTION('',(0.,0.,1.));
#1391=DIRECTION('',(0.,1.,0.));
#1392=DIRECTION('',(0.,0.,1.));
#1393=DIRECTION('',(3.86016075811988E-15,0.,1.));
#1394=DIRECTION('',(0.,1.,0.));
#1395=DIRECTION('',(0.,0.,1.));
#1396=DIRECTION('',(0.,1.,0.));
#1397=DIRECTION('',(0.,0.,1.));
#1398=DIRECTION('',(0.,1.,0.));
#1399=DIRECTION('',(0.,0.,1.));
#1400=DIRECTION('',(1.,0.,0.));
#1401=DIRECTION('',(0.,1.,0.));
#1402=DIRECTION('',(0.,0.,1.));
#1403=DIRECTION('',(0.,1.,0.));
#1404=DIRECTION('',(0.,0.,1.));
#1405=DIRECTION('',(0.,1.,0.));
#1406=DIRECTION('',(0.,0.,1.));
#1407=DIRECTION('',(3.86016075811988E-15,0.,-1.));
#1408=DIRECTION('',(0.,1.,0.));
#1409=DIRECTION('',(0.,0.,1.));
#1410=DIRECTION('',(0.707106781186551,0.,-0.707106781186544));
#1411=DIRECTION('',(0.,1.,0.));
#1412=DIRECTION('',(0.,0.,1.));
#1413=DIRECTION('',(0.,1.,0.));
#1414=DIRECTION('',(-1.,0.,-2.10269512239613E-16));
#1415=DIRECTION('',(0.,1.,0.));
#1416=DIRECTION('',(0.,0.,1.));
#1417=DIRECTION('',(-0.707106781186543,0.,-0.707106781186552));
#1418=DIRECTION('',(0.,1.,0.));
#1419=DIRECTION('',(-1.,0.,-1.39897054514259E-16));
#1420=DIRECTION('',(0.707106781186544,0.,0.707106781186551));
#1421=DIRECTION('',(0.,1.,0.));
#1422=DIRECTION('',(0.,0.,1.));
#1423=DIRECTION('',(0.,1.,0.));
#1424=DIRECTION('',(-1.,0.,-2.10269512239613E-16));
#1425=DIRECTION('',(0.,1.,0.));
#1426=DIRECTION('',(0.,0.,1.));
#1427=DIRECTION('',(0.707106781186552,0.,-0.707106781186543));
#1428=DIRECTION('',(0.,1.,0.));
#1429=DIRECTION('',(0.,0.,-1.));
#1430=DIRECTION('',(-0.707106781186551,0.,0.707106781186544));
#1431=DIRECTION('',(0.,1.,0.));
#1432=DIRECTION('',(0.,0.,1.));
#1433=DIRECTION('',(0.,1.,0.));
#1434=DIRECTION('',(-1.,0.,-2.10269512239613E-16));
#1435=DIRECTION('',(0.,1.,0.));
#1436=DIRECTION('',(0.,0.,1.));
#1437=DIRECTION('',(0.707106781186543,0.,0.707106781186552));
#1438=DIRECTION('',(0.,1.,0.));
#1439=DIRECTION('',(0.,0.,1.));
#1440=DIRECTION('',(0.919242902208113,-0.393690851735223,0.));
#1441=DIRECTION('',(0.393690851735223,0.919242902208113,0.));
#1442=DIRECTION('',(0.,0.,-1.));
#1443=DIRECTION('',(-0.393690851735223,-0.919242902208113,0.));
#1444=DIRECTION('',(0.919242902208113,-0.393690851735223,0.));
#1445=DIRECTION('',(0.393690851735223,0.919242902208113,0.));
#1446=DIRECTION('',(0.,0.,-1.));
#1447=DIRECTION('',(-0.919242902208114,-0.393690851735223,0.));
#1448=DIRECTION('',(-0.393690851735223,0.919242902208113,0.));
#1449=DIRECTION('',(-0.393690851735223,0.919242902208113,0.));
#1450=DIRECTION('',(-0.919242902208113,-0.393690851735223,0.));
#1451=DIRECTION('',(0.393690851735223,-0.919242902208113,0.));
#1452=DIRECTION('',(0.,-1.,0.));
#1453=DIRECTION('',(0.,0.,-1.));
#1454=DIRECTION('',(1.,0.,0.));
#1455=DIRECTION('',(0.,1.,0.));
#1456=DIRECTION('',(-1.,0.,0.));
#1457=DIRECTION('',(0.,0.,1.));
#1458=DIRECTION('',(1.,0.,0.));
#1459=DIRECTION('',(0.,-1.,0.));
#1460=DIRECTION('',(0.,-1.,0.));
#1461=DIRECTION('',(1.22464679914735E-16,0.,1.));
#1462=DIRECTION('',(0.,1.,0.));
#1463=DIRECTION('',(0.,-1.,0.));
#1464=DIRECTION('',(0.,-1.,0.));
#1465=DIRECTION('',(0.,0.,-1.));
#1466=DIRECTION('',(0.,1.,0.));
#1467=DIRECTION('',(0.,-1.,0.));
#1468=DIRECTION('',(0.,-1.,0.));
#1469=DIRECTION('',(-1.,0.,2.10269512239613E-16));
#1470=DIRECTION('',(0.,1.,0.));
#1471=DIRECTION('',(0.,1.,0.));
#1472=DIRECTION('',(0.,0.,1.));
#1473=DIRECTION('',(0.,-1.,0.));
#1474=DIRECTION('',(0.,0.,1.));
#1475=DIRECTION('',(0.,1.,0.));
#1476=DIRECTION('',(0.,0.,1.));
#1477=DIRECTION('',(0.,-1.,0.));
#1478=DIRECTION('',(0.,0.,1.));
#1479=DIRECTION('',(0.,1.,0.));
#1480=DIRECTION('',(0.,0.,1.));
#1481=DIRECTION('',(0.,0.,1.));
#1482=DIRECTION('',(1.,0.,0.));
#1483=DIRECTION('',(0.,0.,1.));
#1484=DIRECTION('',(1.,0.,0.));
#1485=DIRECTION('',(0.,0.,1.));
#1486=DIRECTION('',(1.,0.,0.));
#1487=DIRECTION('',(0.,0.,-1.));
#1488=DIRECTION('',(-1.,0.,0.));
#1489=DIRECTION('',(0.,0.,1.));
#1490=DIRECTION('',(-0.499999999999999,0.866025403784439,0.));
#1491=DIRECTION('',(0.,0.,1.));
#1492=DIRECTION('',(1.,0.,0.));
#1493=DIRECTION('',(0.,0.,1.));
#1494=DIRECTION('',(-0.500000000000003,-0.866025403784437,0.));
#1495=DIRECTION('',(0.,0.,1.));
#1496=DIRECTION('',(1.,0.,0.));
#1497=DIRECTION('',(0.,0.,1.));
#1498=DIRECTION('',(1.,0.,0.));
#1499=DIRECTION('',(0.,0.,1.));
#1500=DIRECTION('',(1.,0.,0.));
#1501=DIRECTION('',(0.,0.,1.));
#1502=DIRECTION('',(1.,0.,0.));
#1503=DIRECTION('',(0.,0.,1.));
#1504=DIRECTION('',(1.,0.,0.));
#1505=DIRECTION('',(0.,1.,0.));
#1506=DIRECTION('',(0.,-1.,0.));
#1507=DIRECTION('',(0.,0.,1.));
#1508=DIRECTION('',(1.,0.,0.));
#1509=DIRECTION('',(0.,0.,-1.));
#1510=DIRECTION('',(1.,0.,0.));
#1511=DIRECTION('',(0.,0.,1.));
#1512=DIRECTION('',(1.,0.,0.));
#1513=DIRECTION('',(0.,0.,-1.));
#1514=DIRECTION('',(1.,0.,0.));
#1515=DIRECTION('',(0.,0.,1.));
#1516=DIRECTION('',(1.,0.,0.));
#1517=DIRECTION('',(0.,0.,-1.));
#1518=DIRECTION('',(1.,0.,0.));
#1519=DIRECTION('',(0.,0.,1.));
#1520=DIRECTION('',(1.,0.,0.));
#1521=DIRECTION('',(0.,0.,-1.));
#1522=DIRECTION('',(-1.,0.,0.));
#1523=DIRECTION('',(0.,0.,-1.));
#1524=DIRECTION('',(-1.,0.,0.));
#1525=DIRECTION('',(0.,0.,-1.));
#1526=DIRECTION('',(-1.,0.,0.));
#1527=DIRECTION('',(0.,0.,1.));
#1528=DIRECTION('',(1.,0.,0.));
#1529=DIRECTION('',(0.,0.,-1.));
#1530=DIRECTION('',(-1.,0.,0.));
#1531=DIRECTION('',(0.,0.,1.));
#1532=DIRECTION('',(1.,0.,0.));
#1533=DIRECTION('',(0.,1.,0.));
#1534=DIRECTION('',(0.,0.,-0.999999999999999));
#1535=DIRECTION('',(0.,1.,0.));
#1536=DIRECTION('',(0.,0.,0.999999999999999));
#1537=DIRECTION('',(0.,1.,0.));
#1538=DIRECTION('',(0.,0.,-0.999999999999999));
#1539=DIRECTION('',(0.,1.,0.));
#1540=DIRECTION('',(0.,0.,0.999999999999999));
#1541=DIRECTION('',(0.,1.,0.));
#1542=DIRECTION('',(0.,0.,-1.));
#1543=DIRECTION('',(-3.86016075811988E-15,0.,-1.));
#1544=DIRECTION('',(0.,-1.,0.));
#1545=DIRECTION('',(0.,0.,-1.));
#1546=DIRECTION('',(-0.707106781186543,0.,-0.707106781186552));
#1547=DIRECTION('',(0.,-1.,0.));
#1548=DIRECTION('',(0.,0.,-1.));
#1549=DIRECTION('',(0.,-1.,0.));
#1550=DIRECTION('',(0.,0.,-1.));
#1551=DIRECTION('',(-0.707106781186551,0.,0.707106781186544));
#1552=DIRECTION('',(0.,-1.,0.));
#1553=DIRECTION('',(0.,0.,-1.));
#1554=DIRECTION('',(-3.86016075811988E-15,0.,1.));
#1555=DIRECTION('',(0.,1.,0.));
#1556=DIRECTION('',(0.,0.,-1.));
#1557=DIRECTION('',(0.,-1.,0.));
#1558=DIRECTION('',(0.,0.,-1.));
#1559=DIRECTION('',(0.,1.,0.));
#1560=DIRECTION('',(0.,-1.,0.));
#1561=DIRECTION('',(0.707106781186544,0.,0.707106781186551));
#1562=DIRECTION('',(0.707106781186551,0.,-0.707106781186544));
#1563=DIRECTION('',(0.707106781186551,0.,-0.707106781186544));
#1564=DIRECTION('',(0.,-1.,0.));
#1565=DIRECTION('',(0.,0.,-1.));
#1566=DIRECTION('',(-0.707106781186552,0.,0.707106781186543));
#1567=DIRECTION('',(0.,-1.,0.));
#1568=DIRECTION('',(0.,0.,1.));
#1569=DIRECTION('',(0.,-1.,0.));
#1570=DIRECTION('',(0.,0.,1.));
#1571=DIRECTION('',(0.,1.,0.));
#1572=DIRECTION('',(0.,0.,1.));
#1573=DIRECTION('',(0.,1.,0.));
#1574=DIRECTION('',(0.,-1.,0.));
#1575=DIRECTION('',(-0.707106781186544,0.,-0.707106781186551));
#1576=DIRECTION('',(-0.707106781186551,0.,0.707106781186544));
#1577=DIRECTION('',(0.,-1.,0.));
#1578=DIRECTION('',(0.,1.,0.));
#1579=DIRECTION('',(0.,0.,1.));
#1580=DIRECTION('',(0.,-1.,0.));
#1581=DIRECTION('',(0.707106781186543,0.,0.707106781186552));
#1582=DIRECTION('',(0.707106781186552,0.,-0.707106781186543));
#1583=DIRECTION('',(0.,1.,0.));
#1584=DIRECTION('',(0.,-1.,0.));
#1585=DIRECTION('',(-0.707106781186552,0.,0.707106781186543));
#1586=DIRECTION('',(0.707106781186543,0.,0.707106781186552));
#1587=DIRECTION('',(-0.707106781186544,0.,-0.707106781186551));
#1588=DIRECTION('',(0.,-1.,0.));
#1589=DIRECTION('',(-1.,0.,-1.39897054514259E-16));
#1590=DIRECTION('',(0.707106781186543,0.,0.707106781186552));
#1591=DIRECTION('',(0.,-1.,0.));
#1592=DIRECTION('',(0.,0.,1.));
#1593=DIRECTION('',(0.,-1.,0.));
#1594=DIRECTION('',(0.,0.,1.));
#1595=DIRECTION('',(0.,1.,0.));
#1596=DIRECTION('',(0.,0.,1.));
#1597=DIRECTION('',(0.,1.,0.));
#1598=DIRECTION('',(0.,-1.,0.));
#1599=DIRECTION('',(-0.707106781186551,0.,0.707106781186544));
#1600=DIRECTION('',(0.707106781186544,0.,0.707106781186551));
#1601=DIRECTION('',(0.,-1.,0.));
#1602=DIRECTION('',(0.,1.,0.));
#1603=DIRECTION('',(0.,0.,1.));
#1604=DIRECTION('',(0.,-1.,0.));
#1605=DIRECTION('',(0.707106781186552,0.,-0.707106781186543));
#1606=DIRECTION('',(-0.707106781186543,0.,-0.707106781186552));
#1607=DIRECTION('',(0.,1.,0.));
#1608=DIRECTION('',(0.,-1.,0.));
#1609=DIRECTION('',(0.,0.,1.));
#1610=DIRECTION('',(0.,-1.,0.));
#1611=DIRECTION('',(0.,1.,0.));
#1612=DIRECTION('',(0.,0.,1.));
#1613=DIRECTION('',(0.,-1.,0.));
#1614=DIRECTION('',(0.,0.,1.));
#1615=DIRECTION('',(0.,1.,0.));
#1616=DIRECTION('',(0.,0.,1.));
#1617=DIRECTION('',(0.,-1.,0.));
#1618=DIRECTION('',(0.,0.,1.));
#1619=DIRECTION('',(0.,1.,0.));
#1620=DIRECTION('',(0.,0.,1.));
#1621=DIRECTION('',(0.,1.,0.));
#1622=DIRECTION('',(-3.86016075811988E-15,0.,-1.));
#1623=DIRECTION('',(0.,-1.,0.));
#1624=DIRECTION('',(0.,-1.,0.));
#1625=DIRECTION('',(1.,0.,-3.86016075811988E-15));
#1626=DIRECTION('',(-3.86149445752437E-15,0.,-1.));
#1627=DIRECTION('',(0.,1.,0.));
#1628=DIRECTION('',(-3.86016075811988E-15,0.,1.));
#1629=DIRECTION('',(0.,-1.,0.));
#1630=DIRECTION('',(0.,1.,0.));
#1631=DIRECTION('',(-1.,0.,-3.86016075811988E-15));
#1632=DIRECTION('',(-3.86149445752437E-15,0.,1.));
#1633=DIRECTION('',(0.,-1.,0.));
#1634=DIRECTION('',(0.,0.,1.));
#1635=DIRECTION('',(0.,1.,0.));
#1636=DIRECTION('',(0.,0.,1.));
#1637=DIRECTION('',(0.,1.,0.));
#1638=DIRECTION('',(0.,0.,1.));
#1639=DIRECTION('',(0.,1.,0.));
#1640=DIRECTION('',(0.,0.,1.));
#1641=DIRECTION('',(0.,-1.,0.));
#1642=DIRECTION('',(0.,0.,1.));
#1643=DIRECTION('',(0.,1.,0.));
#1644=DIRECTION('',(0.,0.,1.));
#1645=DIRECTION('',(0.,1.,0.));
#1646=DIRECTION('',(0.,0.,1.));
#1647=DIRECTION('',(-0.707106781186549,-0.707106781186547,-2.72954584853678E-15));
#1648=DIRECTION('',(0.707106781186546,-0.707106781186549,2.72954584853677E-15));
#1649=DIRECTION('',(0.,-1.,0.));
#1650=DIRECTION('',(0.,0.,-1.));
#1651=DIRECTION('',(0.707106781186547,-0.707106781186548,-2.72954584853677E-15));
#1652=DIRECTION('',(0.707106781186548,0.707106781186547,-2.72954584853677E-15));
#1653=DIRECTION('',(0.,1.,0.));
#1654=DIRECTION('',(0.,0.,1.));
#1655=DIRECTION('',(0.,1.,0.));
#1656=DIRECTION('',(0.,0.,1.));
#1657=DIRECTION('',(0.,1.,0.));
#1658=DIRECTION('',(0.,0.,1.));
#1659=DIRECTION('',(0.,1.,0.));
#1660=DIRECTION('',(0.,0.,1.));
#1661=DIRECTION('',(0.,1.,0.));
#1662=DIRECTION('',(0.,0.,1.));
#1663=DIRECTION('',(0.,1.,0.));
#1664=DIRECTION('',(0.,0.,1.));
#1665=DIRECTION('',(-0.707106781186547,0.707106781186547,-1.60995808751754E-15));
#1666=DIRECTION('',(0.707106781186549,0.707106781186546,2.72954584853678E-15));
#1667=DIRECTION('',(3.86149445752437E-15,0.,-1.));
#1668=DIRECTION('',(-0.483735021334871,0.707106781186536,-0.51575229435667));
#1669=DIRECTION('',(0.,-1.,0.));
#1670=DIRECTION('',(0.,-4.85479833356812E-17,-1.));
#1671=DIRECTION('',(-0.455744400066316,0.707106781186549,-0.540645023844844));
#1672=DIRECTION('',(0.,-1.,0.));
#1673=DIRECTION('',(0.,-4.05644891347432E-17,-1.));
#1674=DIRECTION('',(0.,0.707106781186542,-0.707106781186553));
#1675=DIRECTION('',(0.,-1.,0.));
#1676=DIRECTION('',(0.,-4.8547983335682E-17,-1.));
#1677=DIRECTION('',(0.,0.707106781186548,-0.707106781186547));
#1678=DIRECTION('',(0.,-0.707106781186547,-0.707106781186548));
#1679=DIRECTION('',(1.,0.,0.));
#1680=DIRECTION('',(0.455744400066321,0.707106781186537,-0.540645023844855));
#1681=DIRECTION('',(0.,-1.,0.));
#1682=DIRECTION('',(0.,-4.85479833356813E-17,-1.));
#1683=DIRECTION('',(0.483735021334861,0.707106781186551,-0.515752294356658));
#1684=DIRECTION('',(0.,-1.,0.));
#1685=DIRECTION('',(0.,-4.05644891347432E-17,-1.));
#1686=DIRECTION('',(0.707106781186554,0.707106781186541,-2.75992815003007E-15));
#1687=DIRECTION('',(0.,-1.,0.));
#1688=DIRECTION('',(0.,-4.8547983335682E-17,-1.));
#1689=DIRECTION('',(-0.707106781186547,0.707106781186548,2.72954584853677E-15));
#1690=DIRECTION('',(3.86149445752437E-15,0.,1.));
#1691=DIRECTION('',(-0.33522961195728,-0.942136458941576,4.35825662106563E-15));
#1692=DIRECTION('',(0.942136458941575,-0.33522961195728,0.));
#1693=DIRECTION('',(-0.335229611957275,0.942136458941578,0.));
#1694=DIRECTION('',(-0.942136458941578,-0.335229611957275,0.));
#1695=DIRECTION('',(0.,0.,1.));
#1696=DIRECTION('',(1.,0.,0.));
#1697=CARTESIAN_POINT('',(0.,0.,0.));
#1698=CARTESIAN_POINT('',(3.46944695195361E-14,15.5,-17.5));
#1699=CARTESIAN_POINT('',(3.46944695195361E-14,15.5,-1.));
#1700=CARTESIAN_POINT('',(14.3189123190276,15.5,-3.18108768097241));
#1701=CARTESIAN_POINT('',(14.3189123190276,15.5,-1.53108768097241));
#1702=CARTESIAN_POINT('',(-14.3189123190275,15.5,-31.8189123190276));
#1703=CARTESIAN_POINT('',(-14.3189123190275,15.5,-30.1689123190276));
#1704=CARTESIAN_POINT('',(-14.3189123190276,15.5,-3.18108768097249));
#1705=CARTESIAN_POINT('',(-14.3189123190276,15.5,-1.53108768097249));
#1706=CARTESIAN_POINT('',(14.3189123190276,15.5,-31.8189123190276));
#1707=CARTESIAN_POINT('',(14.3189123190276,15.5,-30.1689123190276));
#1708=CARTESIAN_POINT('',(3.46944695195361E-15,15.5,-17.5));
#1709=CARTESIAN_POINT('',(-16.9830996693259,15.5,2.64688128772637));
#1710=CARTESIAN_POINT('',(-18.0261569416499,15.5,1.7192654884364));
#1711=CARTESIAN_POINT('',(-17.,15.5,0.625189654180059));
#1712=CARTESIAN_POINT('',(-18.5,15.5,0.625189654180065));
#1713=CARTESIAN_POINT('',(-18.5,15.5,1.26359507130753));
#1714=CARTESIAN_POINT('',(-18.5000000000001,15.5,-31.4642400437688));
#1715=CARTESIAN_POINT('',(-17.0000000000001,15.5,-31.4642400437688));
#1716=CARTESIAN_POINT('',(-18.159090909091,15.5,-32.4163473194803));
#1717=CARTESIAN_POINT('',(0.,15.5,-17.5));
#1718=CARTESIAN_POINT('',(18.159090909091,15.5,-32.4163473194803));
#1719=CARTESIAN_POINT('',(17.0000000000001,15.5,-31.4642400437688));
#1720=CARTESIAN_POINT('',(18.5000000000001,15.5,-31.4642400437688));
#1721=CARTESIAN_POINT('',(18.5000000000001,15.5,-31.9913767461893));
#1722=CARTESIAN_POINT('',(18.5,15.5,0.625189654180069));
#1723=CARTESIAN_POINT('',(17.,15.5,0.625189654180066));
#1724=CARTESIAN_POINT('',(18.0261569416499,15.5,1.71926548843641));
#1725=CARTESIAN_POINT('',(3.46944695195361E-15,15.5,-17.5));
#1726=CARTESIAN_POINT('',(16.9830996693259,15.5,2.64688128772636));
#1727=CARTESIAN_POINT('',(16.0163198020018,15.5,1.5));
#1728=CARTESIAN_POINT('',(16.0163198020018,15.5,0.));
#1729=CARTESIAN_POINT('',(-23.5,15.5,0.));
#1730=CARTESIAN_POINT('',(-16.0163198020018,15.5,0.));
#1731=CARTESIAN_POINT('',(-16.0163198020018,15.5,1.5));
#1732=CARTESIAN_POINT('',(0.,15.5,0.));
#1733=CARTESIAN_POINT('',(-18.159090909091,-37.8999999999999,-32.4163473194803));
#1734=CARTESIAN_POINT('',(-18.159090909091,18.5,-32.4163473194803));
#1735=CARTESIAN_POINT('',(0.,18.5,-17.5));
#1736=CARTESIAN_POINT('',(18.159090909091,18.5,-32.4163473194803));
#1737=CARTESIAN_POINT('',(18.159090909091,-37.8999999999999,-32.4163473194803));
#1738=CARTESIAN_POINT('',(0.,-37.8999999999999,-17.5));
#1739=CARTESIAN_POINT('',(-16.9830996693259,-19.1999999999942,2.64688128772636));
#1740=CARTESIAN_POINT('',(-16.9830996693259,20.5,2.64688128772636));
#1741=CARTESIAN_POINT('',(3.46944695195361E-15,20.5,-17.5));
#1742=CARTESIAN_POINT('',(-18.0261569416499,20.5,1.7192654884364));
#1743=CARTESIAN_POINT('',(-18.0261569416499,-19.1999999999942,1.7192654884364));
#1744=CARTESIAN_POINT('',(3.46944695195361E-15,-19.1999999999942,-17.5));
#1745=CARTESIAN_POINT('',(-17.0000000000001,21.5,-27.994617613084));
#1746=CARTESIAN_POINT('',(-15.9393398282203,21.5,-29.0552777848638));
#1747=CARTESIAN_POINT('',(-17.5000000000001,21.5,-29.4088311754571));
#1748=CARTESIAN_POINT('',(-17.5,21.5,0.625189654180061));
#1749=CARTESIAN_POINT('',(-17.5,21.5,0.625189654180061));
#1750=CARTESIAN_POINT('',(-17.,21.5,0.625189654180059));
#1751=CARTESIAN_POINT('',(-17.3420523138833,21.5,0.98988159893218));
#1752=CARTESIAN_POINT('',(3.46944695195361E-15,21.5,-17.5));
#1753=CARTESIAN_POINT('',(-16.3385797577765,21.5,1.88229376257545));
#1754=CARTESIAN_POINT('',(-16.0163198020018,21.5,1.5));
#1755=CARTESIAN_POINT('',(-16.0163198020018,21.5,2.));
#1756=CARTESIAN_POINT('',(-23.5,21.5,2.));
#1757=CARTESIAN_POINT('',(16.0163198020018,21.5,1.99999999999999));
#1758=CARTESIAN_POINT('',(16.0163198020018,21.5,1.5));
#1759=CARTESIAN_POINT('',(16.3385797577765,21.5,1.88229376257546));
#1760=CARTESIAN_POINT('',(3.46944695195361E-15,21.5,-17.5));
#1761=CARTESIAN_POINT('',(17.3420523138833,21.5,0.98988159893217));
#1762=CARTESIAN_POINT('',(17.,21.5,0.625189654180066));
#1763=CARTESIAN_POINT('',(17.5,21.5,0.625189654180067));
#1764=CARTESIAN_POINT('',(17.5000000000001,21.5,-27.9946176130838));
#1765=CARTESIAN_POINT('',(17.5000000000001,21.5,-29.4088311754569));
#1766=CARTESIAN_POINT('',(17.0000000000001,21.5,-27.9946176130838));
#1767=CARTESIAN_POINT('',(15.9393398282203,21.5,-29.0552777848636));
#1768=CARTESIAN_POINT('',(13.6515249022998,21.5,-26.7674628589431));
#1769=CARTESIAN_POINT('',(14.4973144397878,21.5,-27.6132523964312));
#1770=CARTESIAN_POINT('',(15.5579746115676,21.5,-26.5525922246513));
#1771=CARTESIAN_POINT('',(14.2614767272703,21.5,-25.7982095392637));
#1772=CARTESIAN_POINT('',(3.46944695195361E-14,21.5,-17.5));
#1773=CARTESIAN_POINT('',(14.2614767272703,21.5,-9.20179046073625));
#1774=CARTESIAN_POINT('',(15.5579746115676,21.5,-8.44740777534863));
#1775=CARTESIAN_POINT('',(14.4973144397878,21.5,-7.38674760356882));
#1776=CARTESIAN_POINT('',(16.5109433407059,21.5,-5.3731187026507));
#1777=CARTESIAN_POINT('',(16.5109433407059,21.5,-5.3731187026507));
#1778=CARTESIAN_POINT('',(14.3189123190276,21.5,-3.18108768097241));
#1779=CARTESIAN_POINT('',(12.1268812973493,21.5,-0.989056659294127));
#1780=CARTESIAN_POINT('',(9.26746285894315,21.5,-3.84847509770027));
#1781=CARTESIAN_POINT('',(10.1132523964312,21.5,-3.00268556021222));
#1782=CARTESIAN_POINT('',(9.05259222465138,21.5,-1.9420253884324));
#1783=CARTESIAN_POINT('',(8.29820953926376,21.5,-3.2385232727297));
#1784=CARTESIAN_POINT('',(3.46944695195361E-14,21.5,-17.5));
#1785=CARTESIAN_POINT('',(-8.29820953926376,21.5,-3.23852327272974));
#1786=CARTESIAN_POINT('',(-9.05259222465137,21.5,-1.94202538843244));
#1787=CARTESIAN_POINT('',(-10.1132523964312,21.5,-3.00268556021227));
#1788=CARTESIAN_POINT('',(-12.1268812973493,21.5,-0.98905665929421));
#1789=CARTESIAN_POINT('',(-12.1268812973493,21.5,-0.989056659294211));
#1790=CARTESIAN_POINT('',(-14.3189123190276,21.5,-3.18108768097252));
#1791=CARTESIAN_POINT('',(-16.5109433407058,21.5,-5.37311870265083));
#1792=CARTESIAN_POINT('',(-13.6515249022997,21.5,-8.23253714105694));
#1793=CARTESIAN_POINT('',(-14.4973144397878,21.5,-7.38674760356887));
#1794=CARTESIAN_POINT('',(-15.5579746115676,21.5,-8.4474077753487));
#1795=CARTESIAN_POINT('',(-14.2614767272703,21.5,-9.20179046073631));
#1796=CARTESIAN_POINT('',(3.46944695195361E-14,21.5,-17.5));
#1797=CARTESIAN_POINT('',(-14.2614767272702,21.5,-25.7982095392638));
#1798=CARTESIAN_POINT('',(-15.5579746115675,21.5,-26.5525922246514));
#1799=CARTESIAN_POINT('',(-14.4973144397877,21.5,-27.6132523964312));
#1800=CARTESIAN_POINT('',(-16.5109433407058,21.5,-29.6268812973493));
#1801=CARTESIAN_POINT('',(-23.5,21.5,3.));
#1802=CARTESIAN_POINT('',(16.0163198020018,-1.97391353922523,1.5));
#1803=CARTESIAN_POINT('',(16.0163198020018,-1.97391353922523,0.));
#1804=CARTESIAN_POINT('',(16.4975196723969,-0.850342687998961,2.92072048085884));
#1805=CARTESIAN_POINT('',(16.4975196723969,-0.850342687998961,2.92072048085884));
#1806=CARTESIAN_POINT('',(15.7236909373798,-2.65718317985678,3.18281727753002));
#1807=CARTESIAN_POINT('',(15.0005903843343,-4.34557661861735,3.9856619650955));
#1808=CARTESIAN_POINT('',(14.2482649842209,-6.10220820189378,4.47464800982681));
#1809=CARTESIAN_POINT('',(14.2482649842209,-6.10220820189388,4.47464800982681));
#1810=CARTESIAN_POINT('',(14.2482649842209,-6.10220820189388,3.));
#1811=CARTESIAN_POINT('',(14.2482649842209,-6.10220820189388,0.));
#1812=CARTESIAN_POINT('',(23.5,15.5,0.));
#1813=CARTESIAN_POINT('',(23.5,15.5,3.));
#1814=CARTESIAN_POINT('',(-14.2482649842209,-6.10220820189387,3.));
#1815=CARTESIAN_POINT('',(-14.2482649842209,-6.10220820189387,4.47464800982681));
#1816=CARTESIAN_POINT('',(-14.2482649842209,-6.10220820189387,0.));
#1817=CARTESIAN_POINT('',(-14.2482649842209,-6.10220820189385,4.47464800982681));
#1818=CARTESIAN_POINT('',(-15.0005903843274,-4.34557661863346,3.98566196502687));
#1819=CARTESIAN_POINT('',(-15.7236909373797,-2.65718317985657,3.18281727753003));
#1820=CARTESIAN_POINT('',(-16.4975196723969,-0.850342687998661,2.92072048085883));
#1821=CARTESIAN_POINT('',(-16.4975196723969,-0.850342687998661,2.92072048085883));
#1822=CARTESIAN_POINT('',(-16.0163198020018,-1.97391353922525,1.5));
#1823=CARTESIAN_POINT('',(-16.0163198020018,-1.97391353922525,0.));
#1824=CARTESIAN_POINT('',(-14.2482649842209,-6.10220820189388,0.));
#1825=CARTESIAN_POINT('',(-14.2482649842209,-6.10220820189388,3.));
#1826=CARTESIAN_POINT('',(-16.0163198020018,-0.715814229443685,3.));
#1827=CARTESIAN_POINT('',(-16.0163198020018,20.5,3.));
#1828=CARTESIAN_POINT('',(-16.0163198020018,5.69890340327191,3.));
#1829=CARTESIAN_POINT('',(0.,0.,3.));
#1830=CARTESIAN_POINT('',(16.0163198020018,5.69890340327189,3.));
#1831=CARTESIAN_POINT('',(16.0163198020018,21.5,3.));
#1832=CARTESIAN_POINT('',(16.0163198020018,20.5,3.));
#1833=CARTESIAN_POINT('',(1.77635683940025E-15,20.5,3.));
#1834=CARTESIAN_POINT('',(1.77635683940025E-15,-8.88178419700125E-16,3.));
#1835=CARTESIAN_POINT('',(14.2614767272703,-37.9,-25.7982095392637));
#1836=CARTESIAN_POINT('',(14.2614767272703,18.5,-25.7982095392637));
#1837=CARTESIAN_POINT('',(3.19744231092045E-14,18.5,-17.5));
#1838=CARTESIAN_POINT('',(-14.2614767272702,18.5,-25.7982095392638));
#1839=CARTESIAN_POINT('',(-14.2614767272702,-37.9,-25.7982095392638));
#1840=CARTESIAN_POINT('',(-14.2614767272703,-37.9,-9.20179046073631));
#1841=CARTESIAN_POINT('',(-14.2614767272703,18.5,-9.20179046073632));
#1842=CARTESIAN_POINT('',(3.19744231092045E-14,18.5,-17.5000000000001));
#1843=CARTESIAN_POINT('',(-8.29820953926373,18.5,-3.23852327272978));
#1844=CARTESIAN_POINT('',(-8.29820953926376,-37.9,-3.23852327272973));
#1845=CARTESIAN_POINT('',(8.29820953926376,-37.9,-3.2385232727297));
#1846=CARTESIAN_POINT('',(8.29820953926376,18.5,-3.2385232727297));
#1847=CARTESIAN_POINT('',(2.77555756156289E-14,18.5,-17.5));
#1848=CARTESIAN_POINT('',(14.2614767272703,18.5,-9.20179046073625));
#1849=CARTESIAN_POINT('',(14.2614767272703,-37.9,-9.20179046073625));
#1850=CARTESIAN_POINT('',(3.46944695195361E-14,-37.9,-17.5));
#1851=CARTESIAN_POINT('',(14.3189123190276,18.5,-3.18108768097241));
#1852=CARTESIAN_POINT('',(14.3189123190276,18.5,-1.53108768097241));
#1853=CARTESIAN_POINT('',(14.3189123190276,-37.8999999999999,-3.18108768097241));
#1854=CARTESIAN_POINT('',(-14.3189123190276,18.5,-3.18108768097249));
#1855=CARTESIAN_POINT('',(-14.3189123190276,18.5,-1.53108768097249));
#1856=CARTESIAN_POINT('',(-14.3189123190276,-37.8999999999999,-3.18108768097249));
#1857=CARTESIAN_POINT('',(0.,0.,10.4));
#1858=CARTESIAN_POINT('',(15.4999999999947,0.,10.4));
#1859=CARTESIAN_POINT('',(-14.6031151135895,5.196058985336,4.5));
#1860=CARTESIAN_POINT('',(-15.2555237089456,3.36251593935278,4.5));
#1861=CARTESIAN_POINT('',(-15.5529613886481,1.44467196944189,4.31418890898757));
#1862=CARTESIAN_POINT('',(-15.4317879616722,-2.41694132366842,4.35987731180365));
#1863=CARTESIAN_POINT('',(-15.0128588409719,-4.31693055880818,4.58436518955642));
#1864=CARTESIAN_POINT('',(-14.2482649842209,-6.10220820189387,4.47464800982681));
#1865=CARTESIAN_POINT('',(-14.6031151135895,5.196058985336,4.5));
#1866=CARTESIAN_POINT('',(0.,0.,0.));
#1867=CARTESIAN_POINT('',(14.2482649842209,-6.10220820189388,4.47464800982681));
#1868=CARTESIAN_POINT('',(15.0128588409719,-4.31693055880819,4.58436518955643));
#1869=CARTESIAN_POINT('',(15.4317879616722,-2.41694132366843,4.35987731180365));
#1870=CARTESIAN_POINT('',(15.5529613886481,1.44467196944188,4.31418890898758));
#1871=CARTESIAN_POINT('',(15.2555237089456,3.36251593935276,4.50000000000001));
#1872=CARTESIAN_POINT('',(14.6031151135895,5.19605898533598,4.5));
#1873=CARTESIAN_POINT('',(14.6031151135895,5.19605898533598,4.5));
#1874=CARTESIAN_POINT('',(0.,0.,4.5));
#1875=CARTESIAN_POINT('',(0.,0.,9.4));
#1876=CARTESIAN_POINT('',(-8.66025403784441,-5.,9.4));
#1877=CARTESIAN_POINT('',(-9.48525403784441,-3.57105808375567,9.4));
#1878=CARTESIAN_POINT('',(0.,10.,9.4));
#1879=CARTESIAN_POINT('',(1.65,10.,9.4));
#1880=CARTESIAN_POINT('',(8.66025403784439,-5.00000000000003,9.4));
#1881=CARTESIAN_POINT('',(7.83525403784438,-6.42894191624435,9.4));
#1882=CARTESIAN_POINT('',(0.,0.,9.4));
#1883=CARTESIAN_POINT('',(13.6,0.,9.4));
#1884=CARTESIAN_POINT('',(0.,0.,9.4));
#1885=CARTESIAN_POINT('',(0.,10.,0.));
#1886=CARTESIAN_POINT('',(3.65,10.,0.));
#1887=CARTESIAN_POINT('',(-8.66025403784441,-5.,0.));
#1888=CARTESIAN_POINT('',(-5.01025403784441,-5.,0.));
#1889=CARTESIAN_POINT('',(8.66025403784439,-5.00000000000003,0.));
#1890=CARTESIAN_POINT('',(12.3102540378444,-5.00000000000003,0.));
#1891=CARTESIAN_POINT('',(-16.0163198020018,0.,0.));
#1892=CARTESIAN_POINT('',(16.0163198020018,0.,0.));
#1893=CARTESIAN_POINT('',(0.,0.,0.));
#1894=CARTESIAN_POINT('',(-8.66025403784441,-5.,2.));
#1895=CARTESIAN_POINT('',(-7.01025403784441,-5.,2.));
#1896=CARTESIAN_POINT('',(-8.66025403784441,-5.,-83.66));
#1897=CARTESIAN_POINT('',(0.,10.,2.));
#1898=CARTESIAN_POINT('',(1.65,10.,2.));
#1899=CARTESIAN_POINT('',(0.,10.,-83.66));
#1900=CARTESIAN_POINT('',(8.66025403784439,-5.00000000000003,2.));
#1901=CARTESIAN_POINT('',(10.3102540378444,-5.00000000000003,2.));
#1902=CARTESIAN_POINT('',(8.66025403784439,-5.00000000000003,-83.66));
#1903=CARTESIAN_POINT('',(0.,10.,2.));
#1904=CARTESIAN_POINT('',(-8.66025403784441,-5.,2.));
#1905=CARTESIAN_POINT('',(8.66025403784439,-5.00000000000003,2.));
#1906=CARTESIAN_POINT('',(0.,0.,10.4));
#1907=CARTESIAN_POINT('',(13.6,0.,10.4));
#1908=CARTESIAN_POINT('',(0.,0.,10.4));
#1909=CARTESIAN_POINT('',(0.,0.,10.4));
#1910=CARTESIAN_POINT('',(-14.3189123190275,18.5,-31.8189123190276));
#1911=CARTESIAN_POINT('',(-14.3189123190275,18.5,-33.4689123190276));
#1912=CARTESIAN_POINT('',(-14.3189123190275,-37.8999999999999,-31.8189123190276));
#1913=CARTESIAN_POINT('',(14.3189123190276,18.5,-31.8189123190276));
#1914=CARTESIAN_POINT('',(14.3189123190276,18.5,-33.4689123190276));
#1915=CARTESIAN_POINT('',(14.3189123190276,-37.8999999999999,-31.8189123190276));
#1916=CARTESIAN_POINT('',(-17.0000000000001,18.5,-31.4642400437688));
#1917=CARTESIAN_POINT('',(-18.5000000000001,18.5,-31.4642400437688));
#1918=CARTESIAN_POINT('',(-18.5,18.5,1.26359507130753));
#1919=CARTESIAN_POINT('',(-18.5000000000001,18.5,-27.994617613084));
#1920=CARTESIAN_POINT('',(-17.0000000000001,18.5,-27.994617613084));
#1921=CARTESIAN_POINT('',(-15.9393398282203,18.5,-29.0552777848638));
#1922=CARTESIAN_POINT('',(-16.5109433407058,18.5,-29.6268812973493));
#1923=CARTESIAN_POINT('',(-14.4973144397877,18.5,-27.6132523964312));
#1924=CARTESIAN_POINT('',(-15.5579746115675,18.5,-26.5525922246514));
#1925=CARTESIAN_POINT('',(15.5579746115676,18.5,-26.5525922246513));
#1926=CARTESIAN_POINT('',(14.4973144397878,18.5,-27.6132523964312));
#1927=CARTESIAN_POINT('',(13.6515249022998,18.5,-26.7674628589431));
#1928=CARTESIAN_POINT('',(15.9393398282203,18.5,-29.0552777848636));
#1929=CARTESIAN_POINT('',(17.0000000000001,18.5,-27.9946176130838));
#1930=CARTESIAN_POINT('',(18.5000000000001,18.5,-27.9946176130838));
#1931=CARTESIAN_POINT('',(18.5000000000001,18.5,-31.9913767461893));
#1932=CARTESIAN_POINT('',(18.5000000000001,18.5,-31.4642400437688));
#1933=CARTESIAN_POINT('',(17.0000000000001,18.5,-31.4642400437688));
#1934=CARTESIAN_POINT('',(3.19744231092045E-14,18.5,-17.5));
#1935=CARTESIAN_POINT('',(14.4973144397878,18.5,-27.6132523964312));
#1936=CARTESIAN_POINT('',(15.9393398282203,18.5,-29.0552777848636));
#1937=CARTESIAN_POINT('',(13.6515249022998,18.5,-26.7674628589431));
#1938=CARTESIAN_POINT('',(-13.6515249022997,18.5,-8.23253714105694));
#1939=CARTESIAN_POINT('',(-16.5109433407058,18.5,-5.37311870265083));
#1940=CARTESIAN_POINT('',(-14.4973144397878,18.5,-7.38674760356887));
#1941=CARTESIAN_POINT('',(-14.3189123190276,18.5,-3.18108768097252));
#1942=CARTESIAN_POINT('',(-12.1268812973493,18.5,-0.989056659294211));
#1943=CARTESIAN_POINT('',(-12.1268812973493,18.5,-0.98905665929421));
#1944=CARTESIAN_POINT('',(-10.1132523964312,18.5,-3.00268556021227));
#1945=CARTESIAN_POINT('',(-9.05259222465137,18.5,-1.94202538843244));
#1946=CARTESIAN_POINT('',(-15.5579746115676,18.5,-8.4474077753487));
#1947=CARTESIAN_POINT('',(-14.3189123190276,18.5,-3.18108768097252));
#1948=CARTESIAN_POINT('',(-14.4973144397878,18.5,-7.38674760356887));
#1949=CARTESIAN_POINT('',(-16.5109433407058,18.5,-5.37311870265083));
#1950=CARTESIAN_POINT('',(-13.6515249022997,18.5,-8.23253714105694));
#1951=CARTESIAN_POINT('',(-12.1268812973493,18.5,-0.989056659294211));
#1952=CARTESIAN_POINT('',(-14.3189123190276,18.5,-3.18108768097252));
#1953=CARTESIAN_POINT('',(-10.1132523964312,18.5,-3.00268556021227));
#1954=CARTESIAN_POINT('',(-12.1268812973493,18.5,-0.98905665929421));
#1955=CARTESIAN_POINT('',(-15.9393398282203,18.5,-29.0552777848638));
#1956=CARTESIAN_POINT('',(-14.4973144397877,18.5,-27.6132523964312));
#1957=CARTESIAN_POINT('',(-16.5109433407058,18.5,-29.6268812973493));
#1958=CARTESIAN_POINT('',(9.26746285894315,18.5,-3.84847509770027));
#1959=CARTESIAN_POINT('',(12.1268812973493,18.5,-0.989056659294127));
#1960=CARTESIAN_POINT('',(10.1132523964312,18.5,-3.00268556021222));
#1961=CARTESIAN_POINT('',(14.3189123190276,18.5,-3.18108768097241));
#1962=CARTESIAN_POINT('',(16.5109433407059,18.5,-5.3731187026507));
#1963=CARTESIAN_POINT('',(16.5109433407059,18.5,-5.3731187026507));
#1964=CARTESIAN_POINT('',(14.4973144397878,18.5,-7.38674760356882));
#1965=CARTESIAN_POINT('',(15.5579746115676,18.5,-8.44740777534863));
#1966=CARTESIAN_POINT('',(9.05259222465138,18.5,-1.9420253884324));
#1967=CARTESIAN_POINT('',(14.3189123190276,18.5,-3.18108768097241));
#1968=CARTESIAN_POINT('',(10.1132523964312,18.5,-3.00268556021221));
#1969=CARTESIAN_POINT('',(12.1268812973493,18.5,-0.989056659294127));
#1970=CARTESIAN_POINT('',(9.26746285894315,18.5,-3.84847509770027));
#1971=CARTESIAN_POINT('',(16.5109433407059,18.5,-5.3731187026507));
#1972=CARTESIAN_POINT('',(14.3189123190276,18.5,-3.18108768097241));
#1973=CARTESIAN_POINT('',(14.4973144397878,18.5,-7.38674760356882));
#1974=CARTESIAN_POINT('',(16.5109433407059,18.5,-5.3731187026507));
#1975=CARTESIAN_POINT('',(18.0261569416499,-19.1999999999942,1.71926548843641));
#1976=CARTESIAN_POINT('',(18.0261569416499,20.5,1.71926548843641));
#1977=CARTESIAN_POINT('',(3.46944695195361E-15,20.5,-17.5));
#1978=CARTESIAN_POINT('',(16.9830996693259,20.5,2.64688128772636));
#1979=CARTESIAN_POINT('',(16.9830996693259,-19.1999999999942,2.64688128772636));
#1980=CARTESIAN_POINT('',(3.46944695195361E-15,-19.1999999999942,-17.5));
#1981=CARTESIAN_POINT('',(-16.4975196723969,-0.850342687998661,2.92072048085883));
#1982=CARTESIAN_POINT('',(-16.5525172673342,1.34592183722638,2.90209272408864));
#1983=CARTESIAN_POINT('',(-16.4012841926198,3.53507911771544,3.00000000000001));
#1984=CARTESIAN_POINT('',(-16.0163198020018,5.69890340327191,3.));
#1985=CARTESIAN_POINT('',(-16.0163198020018,20.5,1.5));
#1986=CARTESIAN_POINT('',(-16.0163198020018,-19.1999999999942,1.5));
#1987=CARTESIAN_POINT('',(16.0163198020018,5.69890340327189,3.));
#1988=CARTESIAN_POINT('',(16.4012841926198,3.53507911771533,3.00000000000001));
#1989=CARTESIAN_POINT('',(16.5525172673342,1.34592183722618,2.90209272408863));
#1990=CARTESIAN_POINT('',(16.4975196723969,-0.850342687998961,2.92072048085884));
#1991=CARTESIAN_POINT('',(16.0163198020018,20.5,1.5));
#1992=CARTESIAN_POINT('',(16.0163198020018,-19.1999999999942,1.5));
#1993=CARTESIAN_POINT('',(-18.5,-37.8999999999999,0.625189654180065));
#1994=CARTESIAN_POINT('',(-18.5,20.5,0.625189654180065));
#1995=CARTESIAN_POINT('',(-18.5000000000001,20.5,-27.994617613084));
#1996=CARTESIAN_POINT('',(-18.5000000000001,20.5,-27.994617613084));
#1997=CARTESIAN_POINT('',(-18.5000000000001,-37.8999999999999,-27.994617613084));
#1998=CARTESIAN_POINT('',(-18.5000000000001,-37.8999999999999,-31.4642400437688));
#1999=CARTESIAN_POINT('',(-18.5,-37.8999999999999,1.26359507130753));
#2000=CARTESIAN_POINT('',(18.5000000000001,-37.8999999999999,-27.9946176130838));
#2001=CARTESIAN_POINT('',(18.5000000000001,20.5,-27.9946176130838));
#2002=CARTESIAN_POINT('',(18.5,20.5,0.625189654180069));
#2003=CARTESIAN_POINT('',(18.5,20.5,0.625189654180069));
#2004=CARTESIAN_POINT('',(18.5,-37.8999999999999,0.625189654180069));
#2005=CARTESIAN_POINT('',(18.5000000000001,-37.8999999999999,-31.4642400437688));
#2006=CARTESIAN_POINT('',(18.5000000000001,-37.8999999999999,-31.9913767461893));
#2007=CARTESIAN_POINT('',(-17.,20.5,0.625189654180059));
#2008=CARTESIAN_POINT('',(-17.,-19.1999999999942,0.625189654180059));
#2009=CARTESIAN_POINT('',(-17.0000000000001,-37.8999999999999,-31.4642400437688));
#2010=CARTESIAN_POINT('',(17.0000000000001,-37.8999999999999,-31.4642400437688));
#2011=CARTESIAN_POINT('',(17.,20.5,0.625189654180066));
#2012=CARTESIAN_POINT('',(17.,-19.1999999999942,0.625189654180066));
#2013=CARTESIAN_POINT('',(15.5579746115676,-37.9,-26.5525922246513));
#2014=CARTESIAN_POINT('',(17.0000000000001,22.,-27.9946176130838));
#2015=CARTESIAN_POINT('',(17.0000000000001,18.5,-27.9946176130838));
#2016=CARTESIAN_POINT('',(-17.0000000000001,22.,-27.994617613084));
#2017=CARTESIAN_POINT('',(-17.0000000000001,18.5,-27.994617613084));
#2018=CARTESIAN_POINT('',(-15.5579746115675,-37.9,-26.5525922246514));
#2019=CARTESIAN_POINT('',(-15.5579746115676,-37.9,-8.4474077753487));
#2020=CARTESIAN_POINT('',(-9.05259222465137,-37.9,-1.94202538843244));
#2021=CARTESIAN_POINT('',(15.5579746115676,-37.9,-8.44740777534863));
#2022=CARTESIAN_POINT('',(9.05259222465138,-37.9,-1.9420253884324));
#2023=CARTESIAN_POINT('',(18.5,20.5,0.625189654180069));
#2024=CARTESIAN_POINT('',(18.5000000000001,20.5,-31.9913767461893));
#2025=CARTESIAN_POINT('',(18.0261569416499,20.5,1.71926548843641));
#2026=CARTESIAN_POINT('',(17.,21.5,0.625189654180066));
#2027=CARTESIAN_POINT('',(16.9830996693259,20.5,2.64688128772636));
#2028=CARTESIAN_POINT('',(3.46944695195361E-15,20.5,-17.5));
#2029=CARTESIAN_POINT('',(16.0163198020018,20.5,3.));
#2030=CARTESIAN_POINT('',(16.0163198020018,21.5,1.5));
#2031=CARTESIAN_POINT('',(-16.0163198020018,20.5,3.));
#2032=CARTESIAN_POINT('',(-23.5,21.5,2.));
#2033=CARTESIAN_POINT('',(-16.9830996693259,20.5,2.64688128772636));
#2034=CARTESIAN_POINT('',(-16.0163198020018,21.5,1.5));
#2035=CARTESIAN_POINT('',(-18.0261569416499,20.5,1.71926548843641));
#2036=CARTESIAN_POINT('',(3.46944695195361E-15,20.5,-17.5));
#2037=CARTESIAN_POINT('',(-18.5,20.5,0.625189654180065));
#2038=CARTESIAN_POINT('',(-17.,21.5,0.625189654180059));
#2039=CARTESIAN_POINT('',(-18.5,20.5,1.26359507130753));
#2040=CARTESIAN_POINT('',(-16.0163198020018,5.69890340327192,4.5));
#2041=CARTESIAN_POINT('',(-14.2207170251303,-6.1661339014819,4.47053866949016));
#2042=CARTESIAN_POINT('',(-14.2587867711609,-6.07833511310516,2.76673422275521));
#2043=CARTESIAN_POINT('',(-15.8066176244597,-6.76285653710938,2.98526933474508));
#2044=CARTESIAN_POINT('',(-14.6072953091303,-5.27458330062608,4.53040082331591));
#2045=CARTESIAN_POINT('',(-14.5691395424359,-5.34846427118335,3.02145945252892));
#2046=CARTESIAN_POINT('',(-16.0185874187691,-5.78514099638985,3.01519692188366));
#2047=CARTESIAN_POINT('',(-14.9121588904423,-4.33738283544409,4.49016388302659));
#2048=CARTESIAN_POINT('',(-14.8908258507216,-4.41691228854794,3.1455871070581));
#2049=CARTESIAN_POINT('',(-16.185795421709,-4.75712956142443,2.99508194260028));
#2050=CARTESIAN_POINT('',(-15.3356696170806,-2.45002245515322,4.40007605684844));
#2051=CARTESIAN_POINT('',(-15.3197771462768,-2.53539575830732,3.25727426892019));
#2052=CARTESIAN_POINT('',(-16.4180432392574,-2.6871214024567,2.95003802733724));
#2053=CARTESIAN_POINT('',(-15.458459634012,-1.49332172380096,4.34980217906124));
#2054=CARTESIAN_POINT('',(-15.4563367015328,-1.5331297590704,3.2637509717838));
#2055=CARTESIAN_POINT('',(-16.4853797004768,-1.63783672933776,2.92490108971475));
#2056=CARTESIAN_POINT('',(-15.5239365499985,0.448751622584577,4.32515064611493));
#2057=CARTESIAN_POINT('',(-15.5248971576847,0.454304707286795,3.26886304409331));
#2058=CARTESIAN_POINT('',(-16.5212863959829,0.492179198971361,2.91257532287334));
#2059=CARTESIAN_POINT('',(-15.4641253179535,1.42908515536779,4.35247960443485));
#2060=CARTESIAN_POINT('',(-15.4581196451935,1.48661821489783,3.26906852417904));
#2061=CARTESIAN_POINT('',(-16.4884866880292,1.56738371878276,2.92623980143704));
#2062=CARTESIAN_POINT('',(-15.1673997624407,3.33638137462992,4.44030233136866));
#2063=CARTESIAN_POINT('',(-15.1518865518477,3.41630402289612,3.21920000247891));
#2064=CARTESIAN_POINT('',(-16.3257662225764,3.65925699153747,2.97015116646471));
#2065=CARTESIAN_POINT('',(-14.9312648172966,4.27382005170399,4.49999999291862));
#2066=CARTESIAN_POINT('',(-14.895186746545,4.37521463760716,3.16081070167894));
#2067=CARTESIAN_POINT('',(-16.1962895351969,4.68732183983202,3.));
#2068=CARTESIAN_POINT('',(-14.6031151135894,5.196058985336,4.5));
#2069=CARTESIAN_POINT('',(-14.6031151135895,5.196058985336,3.));
#2070=CARTESIAN_POINT('',(-16.0163198020018,5.69890340327191,3.));
#2071=CARTESIAN_POINT('',(16.0163198020018,5.69890340327189,4.5));
#2072=CARTESIAN_POINT('',(0.,0.,4.5));
#2073=CARTESIAN_POINT('',(15.8066176244597,-6.7628565371094,2.98526933474508));
#2074=CARTESIAN_POINT('',(14.2587867711609,-6.07833511310517,2.7667342227552));
#2075=CARTESIAN_POINT('',(14.2207170251303,-6.16613390148191,4.47053866949016));
#2076=CARTESIAN_POINT('',(16.0185874187617,-5.78514099638812,3.01519692188261));
#2077=CARTESIAN_POINT('',(14.5691395424321,-5.34846427118237,3.02145945253251));
#2078=CARTESIAN_POINT('',(14.6072953091304,-5.27458330062575,4.53040082331446));
#2079=CARTESIAN_POINT('',(16.1857954217091,-4.75712956142463,2.99508194260027));
#2080=CARTESIAN_POINT('',(14.8908258507207,-4.41691228854839,3.14558710705762));
#2081=CARTESIAN_POINT('',(14.9121588904422,-4.33738283544449,4.49016388302659));
#2082=CARTESIAN_POINT('',(16.4180432392574,-2.68712140245644,2.95003802733725));
#2083=CARTESIAN_POINT('',(15.3197771462777,-2.53539575830684,3.25727426892064));
#2084=CARTESIAN_POINT('',(15.3356696170807,-2.45002245515274,4.40007605684844));
#2085=CARTESIAN_POINT('',(16.4853797004771,-1.63783672933807,2.92490108971466));
#2086=CARTESIAN_POINT('',(15.4563367015347,-1.53312975907034,3.26375097178334));
#2087=CARTESIAN_POINT('',(15.4584596340119,-1.49332172380115,4.34980217906032));
#2088=CARTESIAN_POINT('',(16.5212863959827,0.492179198971621,2.91257532287343));
#2089=CARTESIAN_POINT('',(15.5248971576829,0.454304707287542,3.26886304409377));
#2090=CARTESIAN_POINT('',(15.5239365499985,0.44875162258472,4.32515064611586));
#2091=CARTESIAN_POINT('',(16.4884866880292,1.56738371878277,2.92623980143705));
#2092=CARTESIAN_POINT('',(15.4581196451927,1.48661821489754,3.26906852417904));
#2093=CARTESIAN_POINT('',(15.4641253179535,1.4290851553678,4.35247960443485));
#2094=CARTESIAN_POINT('',(16.3257662225764,3.65925699153747,2.97015116646472));
#2095=CARTESIAN_POINT('',(15.1518865518486,3.41630402289629,3.21920000247891));
#2096=CARTESIAN_POINT('',(15.1673997624407,3.33638137462992,4.44030233136866));
#2097=CARTESIAN_POINT('',(16.1962895352024,4.68732183983294,3.));
#2098=CARTESIAN_POINT('',(14.8951867465488,4.37521463760739,3.16081070167355));
#2099=CARTESIAN_POINT('',(14.9312648172966,4.27382005170395,4.49999999291862));
#2100=CARTESIAN_POINT('',(16.0163198020018,5.69890340327189,3.));
#2101=CARTESIAN_POINT('',(14.6031151135895,5.19605898533598,3.));
#2102=CARTESIAN_POINT('',(14.6031151135895,5.19605898533598,4.5));
#2103=MECHANICAL_DESIGN_GEOMETRIC_PRESENTATION_REPRESENTATION('',(#86),
#2104);
#2104=(
GEOMETRIC_REPRESENTATION_CONTEXT(3)
GLOBAL_UNCERTAINTY_ASSIGNED_CONTEXT((#2105))
GLOBAL_UNIT_ASSIGNED_CONTEXT((#2111,#2107,#2106))
REPRESENTATION_CONTEXT('WMD1005','TOP_LEVEL_ASSEMBLY_PART')
);
#2105=UNCERTAINTY_MEASURE_WITH_UNIT(LENGTH_MEASURE(0.0508),#2111,
'DISTANCE_ACCURACY_VALUE','Maximum Tolerance applied to model');
#2106=(
NAMED_UNIT(*)
SI_UNIT($,.STERADIAN.)
SOLID_ANGLE_UNIT()
);
#2107=(
CONVERSION_BASED_UNIT('DEGREE',#2109)
NAMED_UNIT(#2108)
PLANE_ANGLE_UNIT()
);
#2108=DIMENSIONAL_EXPONENTS(0.,0.,0.,0.,0.,0.,0.);
#2109=PLANE_ANGLE_MEASURE_WITH_UNIT(PLANE_ANGLE_MEASURE(0.0174532925),#2110);
#2110=(
NAMED_UNIT(*)
PLANE_ANGLE_UNIT()
SI_UNIT($,.RADIAN.)
);
#2111=(
LENGTH_UNIT()
NAMED_UNIT(*)
SI_UNIT(.MILLI.,.METRE.)
);
ENDSEC;
END-ISO-10303-21;
