ISO-10303-21;
HEADER;
/* Generated by software containing ST-Developer
 * from STEP Tools, Inc. (www.steptools.com) 
 */
/* OPTION: using custom schema-name function */

FILE_DESCRIPTION(
/* description */ (''),
/* implementation_level */ '2;1');

FILE_NAME(
/* name */ 'WMD1007.stp',
/* time_stamp */ '2026-09-10T10:28:32+08:00',
/* author */ (''),
/* organization */ (''),
/* preprocessor_version */ 'ST-DEVELOPER v20',
/* originating_system */ 'SIEMENS PLM Software NX2406.1700',
/* authorisation */ '');

FILE_SCHEMA (('AP203_CONFIGURATION_CONTROLLED_3D_DESIGN_OF_MECHANICAL_PARTS_AND_ASSEMBLIES_MIM_LF { 1 0 10303 403 2 1 2}'));
ENDSEC;

DATA;
#10=PROPERTY_DEFINITION_REPRESENTATION(#14,#12);
#11=PROPERTY_DEFINITION_REPRESENTATION(#15,#13);
#12=REPRESENTATION('',(#16),#2037);
#13=REPRESENTATION('',(#17),#2037);
#14=PROPERTY_DEFINITION('pmi validation property','',#73);
#15=PROPERTY_DEFINITION('pmi validation property','',#73);
#16=VALUE_REPRESENTATION_ITEM('number of annotations',COUNT_MEASURE(0.));
#17=VALUE_REPRESENTATION_ITEM('number of views',COUNT_MEASURE(0.));
#18=SHAPE_REPRESENTATION_RELATIONSHIP('None',
'relationship between WMD1007_objects-None and WMD1007_objects-None',#84,
#19);
#19=ADVANCED_BREP_SHAPE_REPRESENTATION('WMD1007_objects-None',(#94),#2037);
#20=APPLIED_APPROVAL_ASSIGNMENT(#32,(#74));
#21=APPLIED_APPROVAL_ASSIGNMENT(#33,(#76));
#22=APPLIED_APPROVAL_ASSIGNMENT(#34,(#46));
#23=APPROVAL_PERSON_ORGANIZATION(#38,#32,#26);
#24=APPROVAL_PERSON_ORGANIZATION(#39,#33,#27);
#25=APPROVAL_PERSON_ORGANIZATION(#40,#34,#28);
#26=APPROVAL_ROLE('approver');
#27=APPROVAL_ROLE('approver');
#28=APPROVAL_ROLE('approver');
#29=APPROVAL_DATE_TIME(#54,#32);
#30=APPROVAL_DATE_TIME(#55,#33);
#31=APPROVAL_DATE_TIME(#56,#34);
#32=APPROVAL(#35,' ');
#33=APPROVAL(#36,' ');
#34=APPROVAL(#37,' ');
#35=APPROVAL_STATUS('not_yet_approved');
#36=APPROVAL_STATUS('not_yet_approved');
#37=APPROVAL_STATUS('not_yet_approved');
#38=PERSON_AND_ORGANIZATION(#44,#41);
#39=PERSON_AND_ORGANIZATION(#44,#42);
#40=PERSON_AND_ORGANIZATION(#44,#43);
#41=ORGANIZATION(' ',' ',' ');
#42=ORGANIZATION(' ',' ',' ');
#43=ORGANIZATION(' ',' ',' ');
#44=PERSON(' ',' ',' ',(' '),$,$);
#45=APPLIED_SECURITY_CLASSIFICATION_ASSIGNMENT(#46,(#76));
#46=SECURITY_CLASSIFICATION(' ',' ',#47);
#47=SECURITY_CLASSIFICATION_LEVEL('confidential');
#48=APPLIED_DATE_AND_TIME_ASSIGNMENT(#52,#50,(#74));
#49=APPLIED_DATE_AND_TIME_ASSIGNMENT(#53,#51,(#46));
#50=DATE_TIME_ROLE('creation_date');
#51=DATE_TIME_ROLE('classification_date');
#52=DATE_AND_TIME(#67,#57);
#53=DATE_AND_TIME(#68,#58);
#54=DATE_AND_TIME(#69,#59);
#55=DATE_AND_TIME(#70,#60);
#56=DATE_AND_TIME(#71,#61);
#57=LOCAL_TIME(0,0,0.,#62);
#58=LOCAL_TIME(0,0,0.,#63);
#59=LOCAL_TIME(0,0,0.,#64);
#60=LOCAL_TIME(0,0,0.,#65);
#61=LOCAL_TIME(0,0,0.,#66);
#62=COORDINATED_UNIVERSAL_TIME_OFFSET(0,0,.BEHIND.);
#63=COORDINATED_UNIVERSAL_TIME_OFFSET(0,0,.BEHIND.);
#64=COORDINATED_UNIVERSAL_TIME_OFFSET(0,0,.BEHIND.);
#65=COORDINATED_UNIVERSAL_TIME_OFFSET(0,0,.BEHIND.);
#66=COORDINATED_UNIVERSAL_TIME_OFFSET(0,0,.BEHIND.);
#67=CALENDAR_DATE(0,1,1);
#68=CALENDAR_DATE(0,1,1);
#69=CALENDAR_DATE(0,1,1);
#70=CALENDAR_DATE(0,1,1);
#71=CALENDAR_DATE(0,1,1);
#72=SHAPE_DEFINITION_REPRESENTATION(#73,#84);
#73=PRODUCT_DEFINITION_SHAPE('','',#74);
#74=PRODUCT_DEFINITION(' ','',#76,#75);
#75=PRODUCT_DEFINITION_CONTEXT('part definition',#83,'design');
#76=PRODUCT_DEFINITION_FORMATION_WITH_SPECIFIED_SOURCE(' ',' ',#78,
 .NOT_KNOWN.);
#77=PRODUCT_RELATED_PRODUCT_CATEGORY('detail','',(#78));
#78=PRODUCT('WMD1007_objects','WMD1007_objects',' ',(#81));
#79=PRODUCT_CATEGORY('part',' ');
#80=PRODUCT_CATEGORY(' ','');
#81=PRODUCT_CONTEXT(' ',#83,'mechanical');
#82=APPLICATION_PROTOCOL_DEFINITION('international standard',
'config_control_design',2010,#83);
#83=APPLICATION_CONTEXT(
'configuration controlled 3D designs of mechanical parts and assemblie
s');
#84=SHAPE_REPRESENTATION('WMD1007_objects-None',(#1210),#2037);
#85=PRESENTATION_LAYER_ASSIGNMENT('1','Layer 1',(#94));
#86=STYLED_ITEM('',(#87),#94);
#87=PRESENTATION_STYLE_ASSIGNMENT((#88));
#88=SURFACE_STYLE_USAGE(.BOTH.,#89);
#89=SURFACE_SIDE_STYLE('',(#90));
#90=SURFACE_STYLE_FILL_AREA(#91);
#91=FILL_AREA_STYLE('',(#92));
#92=FILL_AREA_STYLE_COLOUR('',#93);
#93=COLOUR_RGB('silver gray',0.6,0.6,0.6);
#94=MANIFOLD_SOLID_BREP('',#95);
#95=CLOSED_SHELL('',(#167,#168,#169,#170,#171,#172,#173,#174,#175,#176,
#177,#178,#179,#180,#181,#182,#183,#184,#185,#186,#187,#188,#189,#190,#191,
#192,#193,#194,#195,#196,#197,#198,#199,#200,#201,#202,#203,#204,#205,#206,
#207,#208,#209,#210,#211,#212,#213,#214,#215,#216,#217,#218,#219,#220,#221,
#222,#223,#224,#225));
#96=TOROIDAL_SURFACE('',#1346,23.5,2.);
#97=TOROIDAL_SURFACE('',#1348,23.5,2.);
#98=PLANE('',#1255);
#99=PLANE('',#1264);
#100=PLANE('',#1283);
#101=PLANE('',#1286);
#102=PLANE('',#1287);
#103=PLANE('',#1290);
#104=PLANE('',#1291);
#105=PLANE('',#1292);
#106=PLANE('',#1295);
#107=PLANE('',#1298);
#108=PLANE('',#1302);
#109=PLANE('',#1303);
#110=PLANE('',#1305);
#111=PLANE('',#1309);
#112=PLANE('',#1310);
#113=PLANE('',#1311);
#114=PLANE('',#1318);
#115=PLANE('',#1319);
#116=PLANE('',#1321);
#117=PLANE('',#1322);
#118=PLANE('',#1327);
#119=PLANE('',#1328);
#120=PLANE('',#1329);
#121=FACE_BOUND('',#304,.T.);
#122=FACE_BOUND('',#305,.T.);
#123=FACE_BOUND('',#306,.T.);
#124=FACE_BOUND('',#307,.T.);
#125=FACE_BOUND('',#308,.T.);
#126=FACE_BOUND('',#309,.T.);
#127=FACE_BOUND('',#310,.T.);
#128=FACE_BOUND('',#311,.T.);
#129=FACE_BOUND('',#312,.T.);
#130=FACE_BOUND('',#313,.T.);
#131=FACE_BOUND('',#314,.T.);
#132=FACE_BOUND('',#315,.T.);
#133=FACE_BOUND('',#316,.T.);
#134=FACE_BOUND('',#317,.T.);
#135=FACE_BOUND('',#318,.T.);
#136=FACE_BOUND('',#319,.T.);
#137=FACE_BOUND('',#320,.T.);
#138=FACE_BOUND('',#321,.T.);
#139=FACE_BOUND('',#322,.T.);
#140=FACE_BOUND('',#323,.T.);
#141=FACE_BOUND('',#324,.T.);
#142=FACE_BOUND('',#325,.T.);
#143=FACE_BOUND('',#326,.T.);
#144=FACE_BOUND('',#327,.T.);
#145=FACE_BOUND('',#328,.T.);
#146=FACE_BOUND('',#329,.T.);
#147=FACE_BOUND('',#330,.T.);
#148=FACE_BOUND('',#331,.T.);
#149=FACE_BOUND('',#332,.T.);
#150=FACE_BOUND('',#333,.T.);
#151=FACE_BOUND('',#334,.T.);
#152=FACE_BOUND('',#335,.T.);
#153=FACE_BOUND('',#336,.T.);
#154=FACE_BOUND('',#348,.T.);
#155=FACE_BOUND('',#349,.T.);
#156=FACE_BOUND('',#350,.T.);
#157=FACE_BOUND('',#351,.T.);
#158=FACE_BOUND('',#355,.T.);
#159=FACE_BOUND('',#356,.T.);
#160=FACE_BOUND('',#360,.T.);
#161=FACE_BOUND('',#361,.T.);
#162=FACE_BOUND('',#362,.T.);
#163=FACE_BOUND('',#363,.T.);
#164=FACE_BOUND('',#364,.T.);
#165=FACE_BOUND('',#370,.T.);
#166=FACE_BOUND('',#371,.T.);
#167=ADVANCED_FACE('',(#260),#226,.F.);
#168=ADVANCED_FACE('',(#261),#227,.F.);
#169=ADVANCED_FACE('',(#121,#122),#228,.F.);
#170=ADVANCED_FACE('',(#123,#124),#229,.F.);
#171=ADVANCED_FACE('',(#125,#126),#230,.F.);
#172=ADVANCED_FACE('',(#127,#128),#231,.F.);
#173=ADVANCED_FACE('',(#129,#130),#98,.T.);
#174=ADVANCED_FACE('',(#131,#132,#133,#134,#135,#136,#137,#138,#139,#140,
#141),#99,.F.);
#175=ADVANCED_FACE('',(#142,#143),#232,.F.);
#176=ADVANCED_FACE('',(#144,#145),#233,.F.);
#177=ADVANCED_FACE('',(#146,#147),#234,.F.);
#178=ADVANCED_FACE('',(#148,#149),#235,.F.);
#179=ADVANCED_FACE('',(#150,#151),#236,.F.);
#180=ADVANCED_FACE('',(#152,#153),#237,.F.);
#181=ADVANCED_FACE('',(#262),#238,.T.);
#182=ADVANCED_FACE('',(#263),#100,.T.);
#183=ADVANCED_FACE('',(#264),#239,.T.);
#184=ADVANCED_FACE('',(#265),#101,.T.);
#185=ADVANCED_FACE('',(#266),#102,.F.);
#186=ADVANCED_FACE('',(#267),#240,.F.);
#187=ADVANCED_FACE('',(#268),#103,.F.);
#188=ADVANCED_FACE('',(#269),#104,.F.);
#189=ADVANCED_FACE('',(#270),#105,.F.);
#190=ADVANCED_FACE('',(#271),#241,.F.);
#191=ADVANCED_FACE('',(#272),#106,.F.);
#192=ADVANCED_FACE('',(#154,#155),#107,.T.);
#193=ADVANCED_FACE('',(#156,#157),#108,.T.);
#194=ADVANCED_FACE('',(#273),#109,.F.);
#195=ADVANCED_FACE('',(#274),#242,.F.);
#196=ADVANCED_FACE('',(#275),#110,.F.);
#197=ADVANCED_FACE('',(#158,#159),#111,.F.);
#198=ADVANCED_FACE('',(#276),#112,.F.);
#199=ADVANCED_FACE('',(#277),#113,.F.);
#200=ADVANCED_FACE('',(#278),#243,.F.);
#201=ADVANCED_FACE('',(#160,#161,#162,#163,#164),#114,.F.);
#202=ADVANCED_FACE('',(#279),#115,.F.);
#203=ADVANCED_FACE('',(#280),#244,.F.);
#204=ADVANCED_FACE('',(#281),#116,.F.);
#205=ADVANCED_FACE('',(#282),#117,.F.);
#206=ADVANCED_FACE('',(#283),#245,.F.);
#207=ADVANCED_FACE('',(#165,#166),#118,.F.);
#208=ADVANCED_FACE('',(#284),#119,.F.);
#209=ADVANCED_FACE('',(#285),#120,.F.);
#210=ADVANCED_FACE('',(#286),#246,.T.);
#211=ADVANCED_FACE('',(#287),#247,.T.);
#212=ADVANCED_FACE('',(#288),#248,.T.);
#213=ADVANCED_FACE('',(#289),#249,.T.);
#214=ADVANCED_FACE('',(#290),#250,.T.);
#215=ADVANCED_FACE('',(#291),#251,.T.);
#216=ADVANCED_FACE('',(#292),#252,.T.);
#217=ADVANCED_FACE('',(#293),#253,.T.);
#218=ADVANCED_FACE('',(#294),#254,.T.);
#219=ADVANCED_FACE('',(#295),#255,.T.);
#220=ADVANCED_FACE('',(#296),#256,.T.);
#221=ADVANCED_FACE('',(#297),#257,.T.);
#222=ADVANCED_FACE('',(#298),#258,.T.);
#223=ADVANCED_FACE('',(#299),#96,.T.);
#224=ADVANCED_FACE('',(#300),#97,.T.);
#225=ADVANCED_FACE('',(#301),#259,.T.);
#226=CYLINDRICAL_SURFACE('',#1213,3.1);
#227=CYLINDRICAL_SURFACE('',#1216,3.1);
#228=CYLINDRICAL_SURFACE('',#1219,1.65);
#229=CYLINDRICAL_SURFACE('',#1222,1.65);
#230=CYLINDRICAL_SURFACE('',#1225,1.65);
#231=CYLINDRICAL_SURFACE('',#1228,1.65);
#232=CYLINDRICAL_SURFACE('',#1268,16.5);
#233=CYLINDRICAL_SURFACE('',#1272,16.5);
#234=CYLINDRICAL_SURFACE('',#1274,1.65);
#235=CYLINDRICAL_SURFACE('',#1276,1.65);
#236=CYLINDRICAL_SURFACE('',#1278,1.65);
#237=CYLINDRICAL_SURFACE('',#1280,1.65);
#238=CYLINDRICAL_SURFACE('',#1282,25.5);
#239=CYLINDRICAL_SURFACE('',#1285,25.5);
#240=CYLINDRICAL_SURFACE('',#1289,3.1);
#241=CYLINDRICAL_SURFACE('',#1294,3.1);
#242=CYLINDRICAL_SURFACE('',#1304,3.1);
#243=CYLINDRICAL_SURFACE('',#1312,3.1);
#244=CYLINDRICAL_SURFACE('',#1320,3.1);
#245=CYLINDRICAL_SURFACE('',#1324,3.1);
#246=CYLINDRICAL_SURFACE('',#1330,1.5);
#247=CYLINDRICAL_SURFACE('',#1331,1.5);
#248=CYLINDRICAL_SURFACE('',#1332,1.5);
#249=CYLINDRICAL_SURFACE('',#1333,1.5);
#250=CYLINDRICAL_SURFACE('',#1334,1.5);
#251=CYLINDRICAL_SURFACE('',#1335,1.5);
#252=CYLINDRICAL_SURFACE('',#1336,1.5);
#253=CYLINDRICAL_SURFACE('',#1337,1.5);
#254=CYLINDRICAL_SURFACE('',#1338,1.5);
#255=CYLINDRICAL_SURFACE('',#1339,1.5);
#256=CYLINDRICAL_SURFACE('',#1340,1.5);
#257=CYLINDRICAL_SURFACE('',#1341,1.5);
#258=CYLINDRICAL_SURFACE('',#1344,2.);
#259=CYLINDRICAL_SURFACE('',#1349,2.);
#260=FACE_OUTER_BOUND('',#302,.T.);
#261=FACE_OUTER_BOUND('',#303,.T.);
#262=FACE_OUTER_BOUND('',#337,.T.);
#263=FACE_OUTER_BOUND('',#338,.T.);
#264=FACE_OUTER_BOUND('',#339,.T.);
#265=FACE_OUTER_BOUND('',#340,.T.);
#266=FACE_OUTER_BOUND('',#341,.T.);
#267=FACE_OUTER_BOUND('',#342,.T.);
#268=FACE_OUTER_BOUND('',#343,.T.);
#269=FACE_OUTER_BOUND('',#344,.T.);
#270=FACE_OUTER_BOUND('',#345,.T.);
#271=FACE_OUTER_BOUND('',#346,.T.);
#272=FACE_OUTER_BOUND('',#347,.T.);
#273=FACE_OUTER_BOUND('',#352,.T.);
#274=FACE_OUTER_BOUND('',#353,.T.);
#275=FACE_OUTER_BOUND('',#354,.T.);
#276=FACE_OUTER_BOUND('',#357,.T.);
#277=FACE_OUTER_BOUND('',#358,.T.);
#278=FACE_OUTER_BOUND('',#359,.T.);
#279=FACE_OUTER_BOUND('',#365,.T.);
#280=FACE_OUTER_BOUND('',#366,.T.);
#281=FACE_OUTER_BOUND('',#367,.T.);
#282=FACE_OUTER_BOUND('',#368,.T.);
#283=FACE_OUTER_BOUND('',#369,.T.);
#284=FACE_OUTER_BOUND('',#372,.T.);
#285=FACE_OUTER_BOUND('',#373,.T.);
#286=FACE_OUTER_BOUND('',#374,.T.);
#287=FACE_OUTER_BOUND('',#375,.T.);
#288=FACE_OUTER_BOUND('',#376,.T.);
#289=FACE_OUTER_BOUND('',#377,.T.);
#290=FACE_OUTER_BOUND('',#378,.T.);
#291=FACE_OUTER_BOUND('',#379,.T.);
#292=FACE_OUTER_BOUND('',#380,.T.);
#293=FACE_OUTER_BOUND('',#381,.T.);
#294=FACE_OUTER_BOUND('',#382,.T.);
#295=FACE_OUTER_BOUND('',#383,.T.);
#296=FACE_OUTER_BOUND('',#384,.T.);
#297=FACE_OUTER_BOUND('',#385,.T.);
#298=FACE_OUTER_BOUND('',#386,.T.);
#299=FACE_OUTER_BOUND('',#387,.T.);
#300=FACE_OUTER_BOUND('',#388,.T.);
#301=FACE_OUTER_BOUND('',#389,.T.);
#302=EDGE_LOOP('',(#470,#471,#472,#473));
#303=EDGE_LOOP('',(#474,#475,#476,#477));
#304=EDGE_LOOP('',(#478));
#305=EDGE_LOOP('',(#479));
#306=EDGE_LOOP('',(#480));
#307=EDGE_LOOP('',(#481));
#308=EDGE_LOOP('',(#482));
#309=EDGE_LOOP('',(#483));
#310=EDGE_LOOP('',(#484));
#311=EDGE_LOOP('',(#485));
#312=EDGE_LOOP('',(#486,#487,#488,#489));
#313=EDGE_LOOP('',(#490,#491,#492,#493,#494,#495,#496,#497,#498,#499,#500,
#501,#502,#503,#504,#505,#506,#507,#508,#509,#510,#511,#512,#513,#514,#515,
#516,#517,#518,#519,#520,#521,#522,#523,#524,#525,#526,#527,#528,#529));
#314=EDGE_LOOP('',(#530,#531,#532,#533));
#315=EDGE_LOOP('',(#534));
#316=EDGE_LOOP('',(#535));
#317=EDGE_LOOP('',(#536));
#318=EDGE_LOOP('',(#537));
#319=EDGE_LOOP('',(#538));
#320=EDGE_LOOP('',(#539));
#321=EDGE_LOOP('',(#540));
#322=EDGE_LOOP('',(#541));
#323=EDGE_LOOP('',(#542));
#324=EDGE_LOOP('',(#543));
#325=EDGE_LOOP('',(#544,#545,#546,#547,#548,#549,#550,#551,#552,#553,#554,
#555));
#326=EDGE_LOOP('',(#556));
#327=EDGE_LOOP('',(#557,#558,#559,#560,#561,#562,#563,#564,#565,#566,#567,
#568));
#328=EDGE_LOOP('',(#569));
#329=EDGE_LOOP('',(#570));
#330=EDGE_LOOP('',(#571));
#331=EDGE_LOOP('',(#572));
#332=EDGE_LOOP('',(#573));
#333=EDGE_LOOP('',(#574));
#334=EDGE_LOOP('',(#575));
#335=EDGE_LOOP('',(#576));
#336=EDGE_LOOP('',(#577));
#337=EDGE_LOOP('',(#578,#579,#580,#581));
#338=EDGE_LOOP('',(#582,#583,#584,#585));
#339=EDGE_LOOP('',(#586,#587,#588,#589));
#340=EDGE_LOOP('',(#590,#591,#592,#593));
#341=EDGE_LOOP('',(#594,#595,#596,#597));
#342=EDGE_LOOP('',(#598,#599,#600,#601));
#343=EDGE_LOOP('',(#602,#603,#604,#605));
#344=EDGE_LOOP('',(#606,#607,#608,#609));
#345=EDGE_LOOP('',(#610,#611,#612,#613));
#346=EDGE_LOOP('',(#614,#615,#616,#617));
#347=EDGE_LOOP('',(#618,#619,#620,#621));
#348=EDGE_LOOP('',(#622));
#349=EDGE_LOOP('',(#623,#624,#625,#626,#627,#628));
#350=EDGE_LOOP('',(#629,#630,#631,#632,#633,#634));
#351=EDGE_LOOP('',(#635));
#352=EDGE_LOOP('',(#636,#637,#638,#639));
#353=EDGE_LOOP('',(#640,#641,#642,#643));
#354=EDGE_LOOP('',(#644,#645,#646,#647));
#355=EDGE_LOOP('',(#648,#649,#650,#651,#652,#653));
#356=EDGE_LOOP('',(#654));
#357=EDGE_LOOP('',(#655,#656,#657,#658));
#358=EDGE_LOOP('',(#659,#660,#661,#662));
#359=EDGE_LOOP('',(#663,#664,#665,#666));
#360=EDGE_LOOP('',(#667,#668,#669,#670,#671,#672,#673,#674,#675,#676,#677,
#678,#679,#680,#681,#682));
#361=EDGE_LOOP('',(#683));
#362=EDGE_LOOP('',(#684));
#363=EDGE_LOOP('',(#685));
#364=EDGE_LOOP('',(#686));
#365=EDGE_LOOP('',(#687,#688,#689,#690));
#366=EDGE_LOOP('',(#691,#692,#693,#694));
#367=EDGE_LOOP('',(#695,#696,#697,#698));
#368=EDGE_LOOP('',(#699,#700,#701,#702));
#369=EDGE_LOOP('',(#703,#704,#705,#706));
#370=EDGE_LOOP('',(#707));
#371=EDGE_LOOP('',(#708,#709,#710,#711,#712,#713));
#372=EDGE_LOOP('',(#714,#715,#716,#717));
#373=EDGE_LOOP('',(#718,#719,#720,#721));
#374=EDGE_LOOP('',(#722,#723,#724,#725));
#375=EDGE_LOOP('',(#726,#727,#728,#729));
#376=EDGE_LOOP('',(#730,#731,#732,#733));
#377=EDGE_LOOP('',(#734,#735,#736,#737));
#378=EDGE_LOOP('',(#738,#739,#740,#741));
#379=EDGE_LOOP('',(#742,#743,#744,#745));
#380=EDGE_LOOP('',(#746,#747,#748,#749));
#381=EDGE_LOOP('',(#750,#751,#752,#753));
#382=EDGE_LOOP('',(#754,#755,#756,#757));
#383=EDGE_LOOP('',(#758,#759,#760,#761));
#384=EDGE_LOOP('',(#762,#763,#764,#765));
#385=EDGE_LOOP('',(#766,#767,#768,#769));
#386=EDGE_LOOP('',(#770,#771,#772,#773));
#387=EDGE_LOOP('',(#774,#775,#776,#777));
#388=EDGE_LOOP('',(#778,#779,#780,#781));
#389=EDGE_LOOP('',(#782,#783,#784,#785));
#390=CIRCLE('',#1211,3.1);
#391=CIRCLE('',#1212,3.1);
#392=CIRCLE('',#1214,3.1);
#393=CIRCLE('',#1215,3.1);
#394=CIRCLE('',#1217,1.65);
#395=CIRCLE('',#1218,1.65);
#396=CIRCLE('',#1220,1.65);
#397=CIRCLE('',#1221,1.65);
#398=CIRCLE('',#1223,1.65);
#399=CIRCLE('',#1224,1.65);
#400=CIRCLE('',#1226,1.65);
#401=CIRCLE('',#1227,1.65);
#402=CIRCLE('',#1229,23.5);
#403=CIRCLE('',#1230,23.5);
#404=CIRCLE('',#1231,16.5);
#405=CIRCLE('',#1232,1.5);
#406=CIRCLE('',#1233,3.1);
#407=CIRCLE('',#1234,1.5);
#408=CIRCLE('',#1235,16.5);
#409=CIRCLE('',#1236,1.5);
#410=CIRCLE('',#1237,3.1);
#411=CIRCLE('',#1238,1.5);
#412=CIRCLE('',#1239,16.5);
#413=CIRCLE('',#1240,1.5);
#414=CIRCLE('',#1241,3.1);
#415=CIRCLE('',#1242,1.5);
#416=CIRCLE('',#1243,16.5);
#417=CIRCLE('',#1244,1.5);
#418=CIRCLE('',#1245,3.1);
#419=CIRCLE('',#1246,1.5);
#420=CIRCLE('',#1247,16.5);
#421=CIRCLE('',#1248,1.5);
#422=CIRCLE('',#1249,3.1);
#423=CIRCLE('',#1250,1.5);
#424=CIRCLE('',#1251,16.5);
#425=CIRCLE('',#1252,1.5);
#426=CIRCLE('',#1253,3.1);
#427=CIRCLE('',#1254,1.5);
#428=CIRCLE('',#1256,25.5);
#429=CIRCLE('',#1257,25.5);
#430=CIRCLE('',#1258,1.65);
#431=CIRCLE('',#1259,1.65);
#432=CIRCLE('',#1260,16.5);
#433=CIRCLE('',#1261,16.5);
#434=CIRCLE('',#1262,1.65);
#435=CIRCLE('',#1263,1.65);
#436=CIRCLE('',#1265,16.5);
#437=CIRCLE('',#1266,16.5);
#438=CIRCLE('',#1267,16.5);
#439=CIRCLE('',#1269,16.5);
#440=CIRCLE('',#1270,16.5);
#441=CIRCLE('',#1271,16.5);
#442=CIRCLE('',#1273,1.65);
#443=CIRCLE('',#1275,1.65);
#444=CIRCLE('',#1277,1.65);
#445=CIRCLE('',#1279,1.65);
#446=CIRCLE('',#1281,25.5);
#447=CIRCLE('',#1284,25.5);
#448=CIRCLE('',#1288,3.1);
#449=CIRCLE('',#1293,3.1);
#450=CIRCLE('',#1296,1.5);
#451=CIRCLE('',#1297,1.5);
#452=CIRCLE('',#1299,3.1);
#453=CIRCLE('',#1300,1.5);
#454=CIRCLE('',#1301,1.5);
#455=CIRCLE('',#1306,1.5);
#456=CIRCLE('',#1307,1.5);
#457=CIRCLE('',#1308,3.1);
#458=CIRCLE('',#1313,1.5);
#459=CIRCLE('',#1314,3.1);
#460=CIRCLE('',#1315,1.5);
#461=CIRCLE('',#1316,1.5);
#462=CIRCLE('',#1317,1.5);
#463=CIRCLE('',#1323,3.1);
#464=CIRCLE('',#1325,1.5);
#465=CIRCLE('',#1326,1.5);
#466=CIRCLE('',#1342,2.);
#467=CIRCLE('',#1343,2.);
#468=CIRCLE('',#1345,2.);
#469=CIRCLE('',#1347,2.);
#470=ORIENTED_EDGE('',*,*,#896,.F.);
#471=ORIENTED_EDGE('',*,*,#897,.T.);
#472=ORIENTED_EDGE('',*,*,#898,.F.);
#473=ORIENTED_EDGE('',*,*,#899,.F.);
#474=ORIENTED_EDGE('',*,*,#900,.F.);
#475=ORIENTED_EDGE('',*,*,#901,.T.);
#476=ORIENTED_EDGE('',*,*,#902,.F.);
#477=ORIENTED_EDGE('',*,*,#903,.F.);
#478=ORIENTED_EDGE('',*,*,#904,.T.);
#479=ORIENTED_EDGE('',*,*,#905,.T.);
#480=ORIENTED_EDGE('',*,*,#906,.F.);
#481=ORIENTED_EDGE('',*,*,#907,.F.);
#482=ORIENTED_EDGE('',*,*,#908,.F.);
#483=ORIENTED_EDGE('',*,*,#909,.F.);
#484=ORIENTED_EDGE('',*,*,#910,.T.);
#485=ORIENTED_EDGE('',*,*,#911,.T.);
#486=ORIENTED_EDGE('',*,*,#912,.T.);
#487=ORIENTED_EDGE('',*,*,#913,.T.);
#488=ORIENTED_EDGE('',*,*,#914,.T.);
#489=ORIENTED_EDGE('',*,*,#915,.T.);
#490=ORIENTED_EDGE('',*,*,#916,.T.);
#491=ORIENTED_EDGE('',*,*,#917,.T.);
#492=ORIENTED_EDGE('',*,*,#918,.T.);
#493=ORIENTED_EDGE('',*,*,#919,.T.);
#494=ORIENTED_EDGE('',*,*,#920,.T.);
#495=ORIENTED_EDGE('',*,*,#921,.T.);
#496=ORIENTED_EDGE('',*,*,#922,.T.);
#497=ORIENTED_EDGE('',*,*,#923,.T.);
#498=ORIENTED_EDGE('',*,*,#924,.T.);
#499=ORIENTED_EDGE('',*,*,#925,.T.);
#500=ORIENTED_EDGE('',*,*,#926,.T.);
#501=ORIENTED_EDGE('',*,*,#927,.T.);
#502=ORIENTED_EDGE('',*,*,#928,.T.);
#503=ORIENTED_EDGE('',*,*,#929,.T.);
#504=ORIENTED_EDGE('',*,*,#930,.T.);
#505=ORIENTED_EDGE('',*,*,#931,.T.);
#506=ORIENTED_EDGE('',*,*,#932,.F.);
#507=ORIENTED_EDGE('',*,*,#899,.T.);
#508=ORIENTED_EDGE('',*,*,#933,.T.);
#509=ORIENTED_EDGE('',*,*,#934,.T.);
#510=ORIENTED_EDGE('',*,*,#935,.T.);
#511=ORIENTED_EDGE('',*,*,#936,.T.);
#512=ORIENTED_EDGE('',*,*,#937,.T.);
#513=ORIENTED_EDGE('',*,*,#938,.T.);
#514=ORIENTED_EDGE('',*,*,#939,.T.);
#515=ORIENTED_EDGE('',*,*,#940,.T.);
#516=ORIENTED_EDGE('',*,*,#941,.T.);
#517=ORIENTED_EDGE('',*,*,#942,.T.);
#518=ORIENTED_EDGE('',*,*,#943,.T.);
#519=ORIENTED_EDGE('',*,*,#944,.T.);
#520=ORIENTED_EDGE('',*,*,#945,.T.);
#521=ORIENTED_EDGE('',*,*,#946,.T.);
#522=ORIENTED_EDGE('',*,*,#947,.T.);
#523=ORIENTED_EDGE('',*,*,#948,.T.);
#524=ORIENTED_EDGE('',*,*,#949,.T.);
#525=ORIENTED_EDGE('',*,*,#950,.T.);
#526=ORIENTED_EDGE('',*,*,#951,.F.);
#527=ORIENTED_EDGE('',*,*,#903,.T.);
#528=ORIENTED_EDGE('',*,*,#952,.T.);
#529=ORIENTED_EDGE('',*,*,#953,.T.);
#530=ORIENTED_EDGE('',*,*,#954,.F.);
#531=ORIENTED_EDGE('',*,*,#955,.F.);
#532=ORIENTED_EDGE('',*,*,#956,.F.);
#533=ORIENTED_EDGE('',*,*,#957,.F.);
#534=ORIENTED_EDGE('',*,*,#904,.F.);
#535=ORIENTED_EDGE('',*,*,#958,.F.);
#536=ORIENTED_EDGE('',*,*,#959,.T.);
#537=ORIENTED_EDGE('',*,*,#960,.F.);
#538=ORIENTED_EDGE('',*,*,#961,.F.);
#539=ORIENTED_EDGE('',*,*,#962,.F.);
#540=ORIENTED_EDGE('',*,*,#906,.T.);
#541=ORIENTED_EDGE('',*,*,#963,.T.);
#542=ORIENTED_EDGE('',*,*,#908,.T.);
#543=ORIENTED_EDGE('',*,*,#910,.F.);
#544=ORIENTED_EDGE('',*,*,#964,.T.);
#545=ORIENTED_EDGE('',*,*,#965,.T.);
#546=ORIENTED_EDGE('',*,*,#966,.T.);
#547=ORIENTED_EDGE('',*,*,#928,.F.);
#548=ORIENTED_EDGE('',*,*,#967,.T.);
#549=ORIENTED_EDGE('',*,*,#968,.T.);
#550=ORIENTED_EDGE('',*,*,#969,.T.);
#551=ORIENTED_EDGE('',*,*,#922,.F.);
#552=ORIENTED_EDGE('',*,*,#970,.T.);
#553=ORIENTED_EDGE('',*,*,#971,.T.);
#554=ORIENTED_EDGE('',*,*,#972,.T.);
#555=ORIENTED_EDGE('',*,*,#916,.F.);
#556=ORIENTED_EDGE('',*,*,#961,.T.);
#557=ORIENTED_EDGE('',*,*,#973,.T.);
#558=ORIENTED_EDGE('',*,*,#974,.T.);
#559=ORIENTED_EDGE('',*,*,#975,.T.);
#560=ORIENTED_EDGE('',*,*,#947,.F.);
#561=ORIENTED_EDGE('',*,*,#976,.T.);
#562=ORIENTED_EDGE('',*,*,#977,.T.);
#563=ORIENTED_EDGE('',*,*,#978,.T.);
#564=ORIENTED_EDGE('',*,*,#941,.F.);
#565=ORIENTED_EDGE('',*,*,#979,.T.);
#566=ORIENTED_EDGE('',*,*,#980,.T.);
#567=ORIENTED_EDGE('',*,*,#981,.T.);
#568=ORIENTED_EDGE('',*,*,#935,.F.);
#569=ORIENTED_EDGE('',*,*,#960,.T.);
#570=ORIENTED_EDGE('',*,*,#982,.T.);
#571=ORIENTED_EDGE('',*,*,#959,.F.);
#572=ORIENTED_EDGE('',*,*,#983,.F.);
#573=ORIENTED_EDGE('',*,*,#958,.T.);
#574=ORIENTED_EDGE('',*,*,#984,.F.);
#575=ORIENTED_EDGE('',*,*,#962,.T.);
#576=ORIENTED_EDGE('',*,*,#985,.T.);
#577=ORIENTED_EDGE('',*,*,#963,.F.);
#578=ORIENTED_EDGE('',*,*,#986,.T.);
#579=ORIENTED_EDGE('',*,*,#987,.T.);
#580=ORIENTED_EDGE('',*,*,#988,.F.);
#581=ORIENTED_EDGE('',*,*,#954,.T.);
#582=ORIENTED_EDGE('',*,*,#989,.T.);
#583=ORIENTED_EDGE('',*,*,#990,.T.);
#584=ORIENTED_EDGE('',*,*,#986,.F.);
#585=ORIENTED_EDGE('',*,*,#957,.T.);
#586=ORIENTED_EDGE('',*,*,#991,.T.);
#587=ORIENTED_EDGE('',*,*,#992,.T.);
#588=ORIENTED_EDGE('',*,*,#989,.F.);
#589=ORIENTED_EDGE('',*,*,#956,.T.);
#590=ORIENTED_EDGE('',*,*,#988,.T.);
#591=ORIENTED_EDGE('',*,*,#993,.T.);
#592=ORIENTED_EDGE('',*,*,#991,.F.);
#593=ORIENTED_EDGE('',*,*,#955,.T.);
#594=ORIENTED_EDGE('',*,*,#994,.T.);
#595=ORIENTED_EDGE('',*,*,#995,.T.);
#596=ORIENTED_EDGE('',*,*,#933,.F.);
#597=ORIENTED_EDGE('',*,*,#898,.T.);
#598=ORIENTED_EDGE('',*,*,#996,.T.);
#599=ORIENTED_EDGE('',*,*,#997,.T.);
#600=ORIENTED_EDGE('',*,*,#931,.F.);
#601=ORIENTED_EDGE('',*,*,#998,.T.);
#602=ORIENTED_EDGE('',*,*,#930,.F.);
#603=ORIENTED_EDGE('',*,*,#999,.T.);
#604=ORIENTED_EDGE('',*,*,#1000,.T.);
#605=ORIENTED_EDGE('',*,*,#998,.F.);
#606=ORIENTED_EDGE('',*,*,#1001,.T.);
#607=ORIENTED_EDGE('',*,*,#1002,.T.);
#608=ORIENTED_EDGE('',*,*,#952,.F.);
#609=ORIENTED_EDGE('',*,*,#902,.T.);
#610=ORIENTED_EDGE('',*,*,#1003,.T.);
#611=ORIENTED_EDGE('',*,*,#1004,.T.);
#612=ORIENTED_EDGE('',*,*,#926,.F.);
#613=ORIENTED_EDGE('',*,*,#1005,.T.);
#614=ORIENTED_EDGE('',*,*,#925,.F.);
#615=ORIENTED_EDGE('',*,*,#1006,.T.);
#616=ORIENTED_EDGE('',*,*,#1007,.T.);
#617=ORIENTED_EDGE('',*,*,#1005,.F.);
#618=ORIENTED_EDGE('',*,*,#924,.F.);
#619=ORIENTED_EDGE('',*,*,#1008,.T.);
#620=ORIENTED_EDGE('',*,*,#1009,.T.);
#621=ORIENTED_EDGE('',*,*,#1006,.F.);
#622=ORIENTED_EDGE('',*,*,#907,.T.);
#623=ORIENTED_EDGE('',*,*,#1003,.F.);
#624=ORIENTED_EDGE('',*,*,#1007,.F.);
#625=ORIENTED_EDGE('',*,*,#1009,.F.);
#626=ORIENTED_EDGE('',*,*,#1010,.T.);
#627=ORIENTED_EDGE('',*,*,#968,.F.);
#628=ORIENTED_EDGE('',*,*,#1011,.T.);
#629=ORIENTED_EDGE('',*,*,#1012,.F.);
#630=ORIENTED_EDGE('',*,*,#1013,.F.);
#631=ORIENTED_EDGE('',*,*,#1014,.F.);
#632=ORIENTED_EDGE('',*,*,#1015,.T.);
#633=ORIENTED_EDGE('',*,*,#980,.F.);
#634=ORIENTED_EDGE('',*,*,#1016,.T.);
#635=ORIENTED_EDGE('',*,*,#905,.F.);
#636=ORIENTED_EDGE('',*,*,#1012,.T.);
#637=ORIENTED_EDGE('',*,*,#1017,.T.);
#638=ORIENTED_EDGE('',*,*,#939,.F.);
#639=ORIENTED_EDGE('',*,*,#1018,.T.);
#640=ORIENTED_EDGE('',*,*,#938,.F.);
#641=ORIENTED_EDGE('',*,*,#1019,.T.);
#642=ORIENTED_EDGE('',*,*,#1013,.T.);
#643=ORIENTED_EDGE('',*,*,#1018,.F.);
#644=ORIENTED_EDGE('',*,*,#937,.F.);
#645=ORIENTED_EDGE('',*,*,#1020,.T.);
#646=ORIENTED_EDGE('',*,*,#1014,.T.);
#647=ORIENTED_EDGE('',*,*,#1019,.F.);
#648=ORIENTED_EDGE('',*,*,#1021,.F.);
#649=ORIENTED_EDGE('',*,*,#1022,.T.);
#650=ORIENTED_EDGE('',*,*,#977,.F.);
#651=ORIENTED_EDGE('',*,*,#1023,.T.);
#652=ORIENTED_EDGE('',*,*,#1024,.F.);
#653=ORIENTED_EDGE('',*,*,#1025,.F.);
#654=ORIENTED_EDGE('',*,*,#984,.T.);
#655=ORIENTED_EDGE('',*,*,#943,.F.);
#656=ORIENTED_EDGE('',*,*,#1026,.T.);
#657=ORIENTED_EDGE('',*,*,#1021,.T.);
#658=ORIENTED_EDGE('',*,*,#1027,.F.);
#659=ORIENTED_EDGE('',*,*,#1024,.T.);
#660=ORIENTED_EDGE('',*,*,#1028,.T.);
#661=ORIENTED_EDGE('',*,*,#945,.F.);
#662=ORIENTED_EDGE('',*,*,#1029,.T.);
#663=ORIENTED_EDGE('',*,*,#944,.F.);
#664=ORIENTED_EDGE('',*,*,#1027,.T.);
#665=ORIENTED_EDGE('',*,*,#1025,.T.);
#666=ORIENTED_EDGE('',*,*,#1029,.F.);
#667=ORIENTED_EDGE('',*,*,#965,.F.);
#668=ORIENTED_EDGE('',*,*,#1030,.T.);
#669=ORIENTED_EDGE('',*,*,#1001,.F.);
#670=ORIENTED_EDGE('',*,*,#901,.F.);
#671=ORIENTED_EDGE('',*,*,#1031,.F.);
#672=ORIENTED_EDGE('',*,*,#1032,.F.);
#673=ORIENTED_EDGE('',*,*,#1033,.F.);
#674=ORIENTED_EDGE('',*,*,#1034,.T.);
#675=ORIENTED_EDGE('',*,*,#974,.F.);
#676=ORIENTED_EDGE('',*,*,#1035,.T.);
#677=ORIENTED_EDGE('',*,*,#994,.F.);
#678=ORIENTED_EDGE('',*,*,#897,.F.);
#679=ORIENTED_EDGE('',*,*,#1036,.F.);
#680=ORIENTED_EDGE('',*,*,#996,.F.);
#681=ORIENTED_EDGE('',*,*,#1000,.F.);
#682=ORIENTED_EDGE('',*,*,#1037,.T.);
#683=ORIENTED_EDGE('',*,*,#983,.T.);
#684=ORIENTED_EDGE('',*,*,#985,.F.);
#685=ORIENTED_EDGE('',*,*,#909,.T.);
#686=ORIENTED_EDGE('',*,*,#911,.F.);
#687=ORIENTED_EDGE('',*,*,#949,.F.);
#688=ORIENTED_EDGE('',*,*,#1038,.T.);
#689=ORIENTED_EDGE('',*,*,#1033,.T.);
#690=ORIENTED_EDGE('',*,*,#1039,.F.);
#691=ORIENTED_EDGE('',*,*,#1032,.T.);
#692=ORIENTED_EDGE('',*,*,#1040,.T.);
#693=ORIENTED_EDGE('',*,*,#950,.F.);
#694=ORIENTED_EDGE('',*,*,#1039,.T.);
#695=ORIENTED_EDGE('',*,*,#918,.F.);
#696=ORIENTED_EDGE('',*,*,#1041,.T.);
#697=ORIENTED_EDGE('',*,*,#1042,.T.);
#698=ORIENTED_EDGE('',*,*,#1043,.F.);
#699=ORIENTED_EDGE('',*,*,#1044,.T.);
#700=ORIENTED_EDGE('',*,*,#1045,.T.);
#701=ORIENTED_EDGE('',*,*,#920,.F.);
#702=ORIENTED_EDGE('',*,*,#1046,.T.);
#703=ORIENTED_EDGE('',*,*,#919,.F.);
#704=ORIENTED_EDGE('',*,*,#1043,.T.);
#705=ORIENTED_EDGE('',*,*,#1047,.T.);
#706=ORIENTED_EDGE('',*,*,#1046,.F.);
#707=ORIENTED_EDGE('',*,*,#982,.F.);
#708=ORIENTED_EDGE('',*,*,#1042,.F.);
#709=ORIENTED_EDGE('',*,*,#1048,.T.);
#710=ORIENTED_EDGE('',*,*,#971,.F.);
#711=ORIENTED_EDGE('',*,*,#1049,.T.);
#712=ORIENTED_EDGE('',*,*,#1044,.F.);
#713=ORIENTED_EDGE('',*,*,#1047,.F.);
#714=ORIENTED_EDGE('',*,*,#1031,.T.);
#715=ORIENTED_EDGE('',*,*,#900,.T.);
#716=ORIENTED_EDGE('',*,*,#951,.T.);
#717=ORIENTED_EDGE('',*,*,#1040,.F.);
#718=ORIENTED_EDGE('',*,*,#1036,.T.);
#719=ORIENTED_EDGE('',*,*,#896,.T.);
#720=ORIENTED_EDGE('',*,*,#932,.T.);
#721=ORIENTED_EDGE('',*,*,#997,.F.);
#722=ORIENTED_EDGE('',*,*,#917,.F.);
#723=ORIENTED_EDGE('',*,*,#972,.F.);
#724=ORIENTED_EDGE('',*,*,#1048,.F.);
#725=ORIENTED_EDGE('',*,*,#1041,.F.);
#726=ORIENTED_EDGE('',*,*,#921,.F.);
#727=ORIENTED_EDGE('',*,*,#1045,.F.);
#728=ORIENTED_EDGE('',*,*,#1049,.F.);
#729=ORIENTED_EDGE('',*,*,#970,.F.);
#730=ORIENTED_EDGE('',*,*,#923,.F.);
#731=ORIENTED_EDGE('',*,*,#969,.F.);
#732=ORIENTED_EDGE('',*,*,#1010,.F.);
#733=ORIENTED_EDGE('',*,*,#1008,.F.);
#734=ORIENTED_EDGE('',*,*,#927,.F.);
#735=ORIENTED_EDGE('',*,*,#1004,.F.);
#736=ORIENTED_EDGE('',*,*,#1011,.F.);
#737=ORIENTED_EDGE('',*,*,#967,.F.);
#738=ORIENTED_EDGE('',*,*,#953,.F.);
#739=ORIENTED_EDGE('',*,*,#1002,.F.);
#740=ORIENTED_EDGE('',*,*,#1030,.F.);
#741=ORIENTED_EDGE('',*,*,#964,.F.);
#742=ORIENTED_EDGE('',*,*,#948,.F.);
#743=ORIENTED_EDGE('',*,*,#975,.F.);
#744=ORIENTED_EDGE('',*,*,#1034,.F.);
#745=ORIENTED_EDGE('',*,*,#1038,.F.);
#746=ORIENTED_EDGE('',*,*,#946,.F.);
#747=ORIENTED_EDGE('',*,*,#1028,.F.);
#748=ORIENTED_EDGE('',*,*,#1023,.F.);
#749=ORIENTED_EDGE('',*,*,#976,.F.);
#750=ORIENTED_EDGE('',*,*,#942,.F.);
#751=ORIENTED_EDGE('',*,*,#978,.F.);
#752=ORIENTED_EDGE('',*,*,#1022,.F.);
#753=ORIENTED_EDGE('',*,*,#1026,.F.);
#754=ORIENTED_EDGE('',*,*,#940,.F.);
#755=ORIENTED_EDGE('',*,*,#1017,.F.);
#756=ORIENTED_EDGE('',*,*,#1016,.F.);
#757=ORIENTED_EDGE('',*,*,#979,.F.);
#758=ORIENTED_EDGE('',*,*,#936,.F.);
#759=ORIENTED_EDGE('',*,*,#981,.F.);
#760=ORIENTED_EDGE('',*,*,#1015,.F.);
#761=ORIENTED_EDGE('',*,*,#1020,.F.);
#762=ORIENTED_EDGE('',*,*,#934,.F.);
#763=ORIENTED_EDGE('',*,*,#995,.F.);
#764=ORIENTED_EDGE('',*,*,#1035,.F.);
#765=ORIENTED_EDGE('',*,*,#973,.F.);
#766=ORIENTED_EDGE('',*,*,#929,.F.);
#767=ORIENTED_EDGE('',*,*,#966,.F.);
#768=ORIENTED_EDGE('',*,*,#1037,.F.);
#769=ORIENTED_EDGE('',*,*,#999,.F.);
#770=ORIENTED_EDGE('',*,*,#1050,.F.);
#771=ORIENTED_EDGE('',*,*,#993,.F.);
#772=ORIENTED_EDGE('',*,*,#1051,.F.);
#773=ORIENTED_EDGE('',*,*,#915,.F.);
#774=ORIENTED_EDGE('',*,*,#1051,.T.);
#775=ORIENTED_EDGE('',*,*,#987,.F.);
#776=ORIENTED_EDGE('',*,*,#1052,.F.);
#777=ORIENTED_EDGE('',*,*,#912,.F.);
#778=ORIENTED_EDGE('',*,*,#1050,.T.);
#779=ORIENTED_EDGE('',*,*,#914,.F.);
#780=ORIENTED_EDGE('',*,*,#1053,.F.);
#781=ORIENTED_EDGE('',*,*,#992,.F.);
#782=ORIENTED_EDGE('',*,*,#1052,.T.);
#783=ORIENTED_EDGE('',*,*,#990,.F.);
#784=ORIENTED_EDGE('',*,*,#1053,.T.);
#785=ORIENTED_EDGE('',*,*,#913,.F.);
#786=VERTEX_POINT('',#1710);
#787=VERTEX_POINT('',#1711);
#788=VERTEX_POINT('',#1713);
#789=VERTEX_POINT('',#1715);
#790=VERTEX_POINT('',#1719);
#791=VERTEX_POINT('',#1720);
#792=VERTEX_POINT('',#1722);
#793=VERTEX_POINT('',#1724);
#794=VERTEX_POINT('',#1728);
#795=VERTEX_POINT('',#1730);
#796=VERTEX_POINT('',#1733);
#797=VERTEX_POINT('',#1735);
#798=VERTEX_POINT('',#1738);
#799=VERTEX_POINT('',#1740);
#800=VERTEX_POINT('',#1743);
#801=VERTEX_POINT('',#1745);
#802=VERTEX_POINT('',#1748);
#803=VERTEX_POINT('',#1749);
#804=VERTEX_POINT('',#1751);
#805=VERTEX_POINT('',#1753);
#806=VERTEX_POINT('',#1756);
#807=VERTEX_POINT('',#1757);
#808=VERTEX_POINT('',#1759);
#809=VERTEX_POINT('',#1761);
#810=VERTEX_POINT('',#1763);
#811=VERTEX_POINT('',#1765);
#812=VERTEX_POINT('',#1767);
#813=VERTEX_POINT('',#1769);
#814=VERTEX_POINT('',#1771);
#815=VERTEX_POINT('',#1773);
#816=VERTEX_POINT('',#1775);
#817=VERTEX_POINT('',#1777);
#818=VERTEX_POINT('',#1779);
#819=VERTEX_POINT('',#1781);
#820=VERTEX_POINT('',#1783);
#821=VERTEX_POINT('',#1785);
#822=VERTEX_POINT('',#1787);
#823=VERTEX_POINT('',#1790);
#824=VERTEX_POINT('',#1792);
#825=VERTEX_POINT('',#1794);
#826=VERTEX_POINT('',#1796);
#827=VERTEX_POINT('',#1798);
#828=VERTEX_POINT('',#1800);
#829=VERTEX_POINT('',#1802);
#830=VERTEX_POINT('',#1804);
#831=VERTEX_POINT('',#1806);
#832=VERTEX_POINT('',#1808);
#833=VERTEX_POINT('',#1810);
#834=VERTEX_POINT('',#1812);
#835=VERTEX_POINT('',#1814);
#836=VERTEX_POINT('',#1816);
#837=VERTEX_POINT('',#1818);
#838=VERTEX_POINT('',#1820);
#839=VERTEX_POINT('',#1822);
#840=VERTEX_POINT('',#1824);
#841=VERTEX_POINT('',#1827);
#842=VERTEX_POINT('',#1831);
#843=VERTEX_POINT('',#1832);
#844=VERTEX_POINT('',#1834);
#845=VERTEX_POINT('',#1836);
#846=VERTEX_POINT('',#1839);
#847=VERTEX_POINT('',#1841);
#848=VERTEX_POINT('',#1843);
#849=VERTEX_POINT('',#1845);
#850=VERTEX_POINT('',#1847);
#851=VERTEX_POINT('',#1849);
#852=VERTEX_POINT('',#1852);
#853=VERTEX_POINT('',#1854);
#854=VERTEX_POINT('',#1857);
#855=VERTEX_POINT('',#1859);
#856=VERTEX_POINT('',#1862);
#857=VERTEX_POINT('',#1864);
#858=VERTEX_POINT('',#1868);
#859=VERTEX_POINT('',#1870);
#860=VERTEX_POINT('',#1873);
#861=VERTEX_POINT('',#1875);
#862=VERTEX_POINT('',#1878);
#863=VERTEX_POINT('',#1880);
#864=VERTEX_POINT('',#1884);
#865=VERTEX_POINT('',#1887);
#866=VERTEX_POINT('',#1890);
#867=VERTEX_POINT('',#1893);
#868=VERTEX_POINT('',#1896);
#869=VERTEX_POINT('',#1898);
#870=VERTEX_POINT('',#1902);
#871=VERTEX_POINT('',#1906);
#872=VERTEX_POINT('',#1912);
#873=VERTEX_POINT('',#1916);
#874=VERTEX_POINT('',#1917);
#875=VERTEX_POINT('',#1922);
#876=VERTEX_POINT('',#1926);
#877=VERTEX_POINT('',#1930);
#878=VERTEX_POINT('',#1931);
#879=VERTEX_POINT('',#1936);
#880=VERTEX_POINT('',#1940);
#881=VERTEX_POINT('',#1947);
#882=VERTEX_POINT('',#1948);
#883=VERTEX_POINT('',#1950);
#884=VERTEX_POINT('',#1952);
#885=VERTEX_POINT('',#1964);
#886=VERTEX_POINT('',#1965);
#887=VERTEX_POINT('',#1968);
#888=VERTEX_POINT('',#1970);
#889=VERTEX_POINT('',#1982);
#890=VERTEX_POINT('',#1984);
#891=VERTEX_POINT('',#1986);
#892=VERTEX_POINT('',#1998);
#893=VERTEX_POINT('',#2000);
#894=VERTEX_POINT('',#2004);
#895=VERTEX_POINT('',#2005);
#896=EDGE_CURVE('',#786,#787,#1054,.T.);
#897=EDGE_CURVE('',#786,#788,#390,.T.);
#898=EDGE_CURVE('',#789,#788,#1055,.T.);
#899=EDGE_CURVE('',#787,#789,#391,.T.);
#900=EDGE_CURVE('',#790,#791,#1056,.T.);
#901=EDGE_CURVE('',#790,#792,#392,.T.);
#902=EDGE_CURVE('',#793,#792,#1057,.T.);
#903=EDGE_CURVE('',#791,#793,#393,.T.);
#904=EDGE_CURVE('',#794,#794,#394,.T.);
#905=EDGE_CURVE('',#795,#795,#395,.T.);
#906=EDGE_CURVE('',#796,#796,#396,.T.);
#907=EDGE_CURVE('',#797,#797,#397,.T.);
#908=EDGE_CURVE('',#798,#798,#398,.T.);
#909=EDGE_CURVE('',#799,#799,#399,.T.);
#910=EDGE_CURVE('',#800,#800,#400,.T.);
#911=EDGE_CURVE('',#801,#801,#401,.T.);
#912=EDGE_CURVE('',#802,#803,#402,.T.);
#913=EDGE_CURVE('',#803,#804,#1058,.T.);
#914=EDGE_CURVE('',#804,#805,#403,.T.);
#915=EDGE_CURVE('',#805,#802,#1059,.T.);
#916=EDGE_CURVE('',#806,#807,#404,.T.);
#917=EDGE_CURVE('',#807,#808,#405,.T.);
#918=EDGE_CURVE('',#808,#809,#1060,.T.);
#919=EDGE_CURVE('',#809,#810,#406,.T.);
#920=EDGE_CURVE('',#810,#811,#1061,.T.);
#921=EDGE_CURVE('',#811,#812,#407,.T.);
#922=EDGE_CURVE('',#812,#813,#408,.T.);
#923=EDGE_CURVE('',#813,#814,#409,.T.);
#924=EDGE_CURVE('',#814,#815,#1062,.T.);
#925=EDGE_CURVE('',#815,#816,#410,.T.);
#926=EDGE_CURVE('',#816,#817,#1063,.T.);
#927=EDGE_CURVE('',#817,#818,#411,.T.);
#928=EDGE_CURVE('',#818,#819,#412,.T.);
#929=EDGE_CURVE('',#819,#820,#413,.T.);
#930=EDGE_CURVE('',#820,#821,#1064,.T.);
#931=EDGE_CURVE('',#821,#822,#414,.T.);
#932=EDGE_CURVE('',#787,#822,#1065,.T.);
#933=EDGE_CURVE('',#789,#823,#1066,.T.);
#934=EDGE_CURVE('',#823,#824,#415,.T.);
#935=EDGE_CURVE('',#824,#825,#416,.T.);
#936=EDGE_CURVE('',#825,#826,#417,.T.);
#937=EDGE_CURVE('',#826,#827,#1067,.T.);
#938=EDGE_CURVE('',#827,#828,#418,.T.);
#939=EDGE_CURVE('',#828,#829,#1068,.T.);
#940=EDGE_CURVE('',#829,#830,#419,.T.);
#941=EDGE_CURVE('',#830,#831,#420,.T.);
#942=EDGE_CURVE('',#831,#832,#421,.T.);
#943=EDGE_CURVE('',#832,#833,#1069,.T.);
#944=EDGE_CURVE('',#833,#834,#422,.T.);
#945=EDGE_CURVE('',#834,#835,#1070,.T.);
#946=EDGE_CURVE('',#835,#836,#423,.T.);
#947=EDGE_CURVE('',#836,#837,#424,.T.);
#948=EDGE_CURVE('',#837,#838,#425,.T.);
#949=EDGE_CURVE('',#838,#839,#1071,.T.);
#950=EDGE_CURVE('',#839,#840,#426,.T.);
#951=EDGE_CURVE('',#791,#840,#1072,.T.);
#952=EDGE_CURVE('',#793,#841,#1073,.T.);
#953=EDGE_CURVE('',#841,#806,#427,.T.);
#954=EDGE_CURVE('',#842,#843,#428,.T.);
#955=EDGE_CURVE('',#844,#842,#1074,.T.);
#956=EDGE_CURVE('',#845,#844,#429,.T.);
#957=EDGE_CURVE('',#843,#845,#1075,.T.);
#958=EDGE_CURVE('',#846,#846,#430,.T.);
#959=EDGE_CURVE('',#847,#847,#431,.T.);
#960=EDGE_CURVE('',#848,#848,#432,.T.);
#961=EDGE_CURVE('',#849,#849,#433,.T.);
#962=EDGE_CURVE('',#850,#850,#434,.T.);
#963=EDGE_CURVE('',#851,#851,#435,.T.);
#964=EDGE_CURVE('',#806,#852,#1076,.T.);
#965=EDGE_CURVE('',#852,#853,#436,.T.);
#966=EDGE_CURVE('',#853,#819,#1077,.T.);
#967=EDGE_CURVE('',#818,#854,#1078,.T.);
#968=EDGE_CURVE('',#854,#855,#437,.T.);
#969=EDGE_CURVE('',#855,#813,#1079,.T.);
#970=EDGE_CURVE('',#812,#856,#1080,.T.);
#971=EDGE_CURVE('',#856,#857,#438,.T.);
#972=EDGE_CURVE('',#857,#807,#1081,.T.);
#973=EDGE_CURVE('',#824,#858,#1082,.T.);
#974=EDGE_CURVE('',#858,#859,#439,.T.);
#975=EDGE_CURVE('',#859,#837,#1083,.T.);
#976=EDGE_CURVE('',#836,#860,#1084,.T.);
#977=EDGE_CURVE('',#860,#861,#440,.T.);
#978=EDGE_CURVE('',#861,#831,#1085,.T.);
#979=EDGE_CURVE('',#830,#862,#1086,.T.);
#980=EDGE_CURVE('',#862,#863,#441,.T.);
#981=EDGE_CURVE('',#863,#825,#1087,.T.);
#982=EDGE_CURVE('',#864,#864,#442,.T.);
#983=EDGE_CURVE('',#865,#865,#443,.T.);
#984=EDGE_CURVE('',#866,#866,#444,.T.);
#985=EDGE_CURVE('',#867,#867,#445,.T.);
#986=EDGE_CURVE('',#843,#868,#1088,.T.);
#987=EDGE_CURVE('',#868,#869,#446,.T.);
#988=EDGE_CURVE('',#842,#869,#1089,.T.);
#989=EDGE_CURVE('',#845,#870,#1090,.T.);
#990=EDGE_CURVE('',#870,#868,#1091,.T.);
#991=EDGE_CURVE('',#844,#871,#1092,.T.);
#992=EDGE_CURVE('',#871,#870,#447,.T.);
#993=EDGE_CURVE('',#869,#871,#1093,.T.);
#994=EDGE_CURVE('',#788,#872,#1094,.T.);
#995=EDGE_CURVE('',#872,#823,#1095,.T.);
#996=EDGE_CURVE('',#873,#874,#448,.T.);
#997=EDGE_CURVE('',#874,#822,#1096,.T.);
#998=EDGE_CURVE('',#821,#873,#1097,.T.);
#999=EDGE_CURVE('',#820,#875,#1098,.T.);
#1000=EDGE_CURVE('',#875,#873,#1099,.T.);
#1001=EDGE_CURVE('',#792,#876,#1100,.T.);
#1002=EDGE_CURVE('',#876,#841,#1101,.T.);
#1003=EDGE_CURVE('',#877,#878,#1102,.T.);
#1004=EDGE_CURVE('',#878,#817,#1103,.T.);
#1005=EDGE_CURVE('',#816,#877,#1104,.T.);
#1006=EDGE_CURVE('',#815,#879,#1105,.T.);
#1007=EDGE_CURVE('',#879,#877,#449,.T.);
#1008=EDGE_CURVE('',#814,#880,#1106,.T.);
#1009=EDGE_CURVE('',#880,#879,#1107,.T.);
#1010=EDGE_CURVE('',#880,#855,#450,.T.);
#1011=EDGE_CURVE('',#854,#878,#451,.T.);
#1012=EDGE_CURVE('',#881,#882,#1108,.T.);
#1013=EDGE_CURVE('',#883,#881,#452,.T.);
#1014=EDGE_CURVE('',#884,#883,#1109,.T.);
#1015=EDGE_CURVE('',#884,#863,#453,.T.);
#1016=EDGE_CURVE('',#862,#882,#454,.T.);
#1017=EDGE_CURVE('',#882,#829,#1110,.T.);
#1018=EDGE_CURVE('',#828,#881,#1111,.T.);
#1019=EDGE_CURVE('',#827,#883,#1112,.T.);
#1020=EDGE_CURVE('',#826,#884,#1113,.T.);
#1021=EDGE_CURVE('',#885,#886,#1114,.T.);
#1022=EDGE_CURVE('',#885,#861,#455,.T.);
#1023=EDGE_CURVE('',#860,#887,#456,.T.);
#1024=EDGE_CURVE('',#888,#887,#1115,.T.);
#1025=EDGE_CURVE('',#886,#888,#457,.T.);
#1026=EDGE_CURVE('',#832,#885,#1116,.T.);
#1027=EDGE_CURVE('',#833,#886,#1117,.T.);
#1028=EDGE_CURVE('',#887,#835,#1118,.T.);
#1029=EDGE_CURVE('',#834,#888,#1119,.T.);
#1030=EDGE_CURVE('',#852,#876,#458,.T.);
#1031=EDGE_CURVE('',#889,#790,#1120,.T.);
#1032=EDGE_CURVE('',#890,#889,#459,.T.);
#1033=EDGE_CURVE('',#891,#890,#1121,.T.);
#1034=EDGE_CURVE('',#891,#859,#460,.T.);
#1035=EDGE_CURVE('',#858,#872,#461,.T.);
#1036=EDGE_CURVE('',#874,#786,#1122,.T.);
#1037=EDGE_CURVE('',#875,#853,#462,.T.);
#1038=EDGE_CURVE('',#838,#891,#1123,.T.);
#1039=EDGE_CURVE('',#839,#890,#1124,.T.);
#1040=EDGE_CURVE('',#889,#840,#1125,.T.);
#1041=EDGE_CURVE('',#808,#892,#1126,.T.);
#1042=EDGE_CURVE('',#892,#893,#1127,.T.);
#1043=EDGE_CURVE('',#809,#893,#1128,.T.);
#1044=EDGE_CURVE('',#894,#895,#1129,.T.);
#1045=EDGE_CURVE('',#895,#811,#1130,.T.);
#1046=EDGE_CURVE('',#810,#894,#1131,.T.);
#1047=EDGE_CURVE('',#893,#894,#463,.T.);
#1048=EDGE_CURVE('',#892,#857,#464,.T.);
#1049=EDGE_CURVE('',#856,#895,#465,.T.);
#1050=EDGE_CURVE('',#871,#805,#466,.T.);
#1051=EDGE_CURVE('',#802,#869,#467,.T.);
#1052=EDGE_CURVE('',#803,#868,#468,.T.);
#1053=EDGE_CURVE('',#870,#804,#469,.T.);
#1054=LINE('',#1709,#1132);
#1055=LINE('',#1714,#1133);
#1056=LINE('',#1718,#1134);
#1057=LINE('',#1723,#1135);
#1058=LINE('',#1750,#1136);
#1059=LINE('',#1754,#1137);
#1060=LINE('',#1760,#1138);
#1061=LINE('',#1764,#1139);
#1062=LINE('',#1772,#1140);
#1063=LINE('',#1776,#1141);
#1064=LINE('',#1784,#1142);
#1065=LINE('',#1788,#1143);
#1066=LINE('',#1789,#1144);
#1067=LINE('',#1797,#1145);
#1068=LINE('',#1801,#1146);
#1069=LINE('',#1809,#1147);
#1070=LINE('',#1813,#1148);
#1071=LINE('',#1821,#1149);
#1072=LINE('',#1825,#1150);
#1073=LINE('',#1826,#1151);
#1074=LINE('',#1833,#1152);
#1075=LINE('',#1837,#1153);
#1076=LINE('',#1851,#1154);
#1077=LINE('',#1855,#1155);
#1078=LINE('',#1856,#1156);
#1079=LINE('',#1860,#1157);
#1080=LINE('',#1861,#1158);
#1081=LINE('',#1865,#1159);
#1082=LINE('',#1867,#1160);
#1083=LINE('',#1871,#1161);
#1084=LINE('',#1872,#1162);
#1085=LINE('',#1876,#1163);
#1086=LINE('',#1877,#1164);
#1087=LINE('',#1881,#1165);
#1088=LINE('',#1895,#1166);
#1089=LINE('',#1899,#1167);
#1090=LINE('',#1901,#1168);
#1091=LINE('',#1903,#1169);
#1092=LINE('',#1905,#1170);
#1093=LINE('',#1909,#1171);
#1094=LINE('',#1911,#1172);
#1095=LINE('',#1913,#1173);
#1096=LINE('',#1918,#1174);
#1097=LINE('',#1919,#1175);
#1098=LINE('',#1921,#1176);
#1099=LINE('',#1923,#1177);
#1100=LINE('',#1925,#1178);
#1101=LINE('',#1927,#1179);
#1102=LINE('',#1929,#1180);
#1103=LINE('',#1932,#1181);
#1104=LINE('',#1933,#1182);
#1105=LINE('',#1935,#1183);
#1106=LINE('',#1939,#1184);
#1107=LINE('',#1941,#1185);
#1108=LINE('',#1946,#1186);
#1109=LINE('',#1951,#1187);
#1110=LINE('',#1956,#1188);
#1111=LINE('',#1957,#1189);
#1112=LINE('',#1959,#1190);
#1113=LINE('',#1961,#1191);
#1114=LINE('',#1963,#1192);
#1115=LINE('',#1969,#1193);
#1116=LINE('',#1973,#1194);
#1117=LINE('',#1974,#1195);
#1118=LINE('',#1976,#1196);
#1119=LINE('',#1977,#1197);
#1120=LINE('',#1981,#1198);
#1121=LINE('',#1985,#1199);
#1122=LINE('',#1989,#1200);
#1123=LINE('',#1992,#1201);
#1124=LINE('',#1993,#1202);
#1125=LINE('',#1995,#1203);
#1126=LINE('',#1997,#1204);
#1127=LINE('',#1999,#1205);
#1128=LINE('',#2001,#1206);
#1129=LINE('',#2003,#1207);
#1130=LINE('',#2006,#1208);
#1131=LINE('',#2007,#1209);
#1132=VECTOR('',#1352,1.);
#1133=VECTOR('',#1355,1.);
#1134=VECTOR('',#1360,1.);
#1135=VECTOR('',#1363,1.);
#1136=VECTOR('',#1394,1.);
#1137=VECTOR('',#1397,1.);
#1138=VECTOR('',#1402,1.);
#1139=VECTOR('',#1405,1.);
#1140=VECTOR('',#1412,1.);
#1141=VECTOR('',#1415,1.);
#1142=VECTOR('',#1422,1.);
#1143=VECTOR('',#1425,1.);
#1144=VECTOR('',#1426,1.);
#1145=VECTOR('',#1433,1.);
#1146=VECTOR('',#1436,1.);
#1147=VECTOR('',#1443,1.);
#1148=VECTOR('',#1446,1.);
#1149=VECTOR('',#1453,1.);
#1150=VECTOR('',#1456,1.);
#1151=VECTOR('',#1457,1.);
#1152=VECTOR('',#1464,1.);
#1153=VECTOR('',#1467,1.);
#1154=VECTOR('',#1482,1.);
#1155=VECTOR('',#1485,1.);
#1156=VECTOR('',#1486,1.);
#1157=VECTOR('',#1489,1.);
#1158=VECTOR('',#1490,1.);
#1159=VECTOR('',#1493,1.);
#1160=VECTOR('',#1496,1.);
#1161=VECTOR('',#1499,1.);
#1162=VECTOR('',#1500,1.);
#1163=VECTOR('',#1503,1.);
#1164=VECTOR('',#1504,1.);
#1165=VECTOR('',#1507,1.);
#1166=VECTOR('',#1526,1.);
#1167=VECTOR('',#1529,1.);
#1168=VECTOR('',#1532,1.);
#1169=VECTOR('',#1533,1.);
#1170=VECTOR('',#1536,1.);
#1171=VECTOR('',#1541,1.);
#1172=VECTOR('',#1544,1.);
#1173=VECTOR('',#1545,1.);
#1174=VECTOR('',#1550,1.);
#1175=VECTOR('',#1551,1.);
#1176=VECTOR('',#1554,1.);
#1177=VECTOR('',#1555,1.);
#1178=VECTOR('',#1558,1.);
#1179=VECTOR('',#1559,1.);
#1180=VECTOR('',#1562,1.);
#1181=VECTOR('',#1563,1.);
#1182=VECTOR('',#1564,1.);
#1183=VECTOR('',#1567,1.);
#1184=VECTOR('',#1572,1.);
#1185=VECTOR('',#1573,1.);
#1186=VECTOR('',#1582,1.);
#1187=VECTOR('',#1585,1.);
#1188=VECTOR('',#1592,1.);
#1189=VECTOR('',#1593,1.);
#1190=VECTOR('',#1596,1.);
#1191=VECTOR('',#1599,1.);
#1192=VECTOR('',#1602,1.);
#1193=VECTOR('',#1607,1.);
#1194=VECTOR('',#1612,1.);
#1195=VECTOR('',#1613,1.);
#1196=VECTOR('',#1616,1.);
#1197=VECTOR('',#1617,1.);
#1198=VECTOR('',#1624,1.);
#1199=VECTOR('',#1627,1.);
#1200=VECTOR('',#1632,1.);
#1201=VECTOR('',#1637,1.);
#1202=VECTOR('',#1638,1.);
#1203=VECTOR('',#1641,1.);
#1204=VECTOR('',#1644,1.);
#1205=VECTOR('',#1645,1.);
#1206=VECTOR('',#1646,1.);
#1207=VECTOR('',#1649,1.);
#1208=VECTOR('',#1650,1.);
#1209=VECTOR('',#1651,1.);
#1210=AXIS2_PLACEMENT_3D('',#1708,#1350,#1351);
#1211=AXIS2_PLACEMENT_3D('',#1712,#1353,#1354);
#1212=AXIS2_PLACEMENT_3D('',#1716,#1356,#1357);
#1213=AXIS2_PLACEMENT_3D('',#1717,#1358,#1359);
#1214=AXIS2_PLACEMENT_3D('',#1721,#1361,#1362);
#1215=AXIS2_PLACEMENT_3D('',#1725,#1364,#1365);
#1216=AXIS2_PLACEMENT_3D('',#1726,#1366,#1367);
#1217=AXIS2_PLACEMENT_3D('',#1727,#1368,#1369);
#1218=AXIS2_PLACEMENT_3D('',#1729,#1370,#1371);
#1219=AXIS2_PLACEMENT_3D('',#1731,#1372,#1373);
#1220=AXIS2_PLACEMENT_3D('',#1732,#1374,#1375);
#1221=AXIS2_PLACEMENT_3D('',#1734,#1376,#1377);
#1222=AXIS2_PLACEMENT_3D('',#1736,#1378,#1379);
#1223=AXIS2_PLACEMENT_3D('',#1737,#1380,#1381);
#1224=AXIS2_PLACEMENT_3D('',#1739,#1382,#1383);
#1225=AXIS2_PLACEMENT_3D('',#1741,#1384,#1385);
#1226=AXIS2_PLACEMENT_3D('',#1742,#1386,#1387);
#1227=AXIS2_PLACEMENT_3D('',#1744,#1388,#1389);
#1228=AXIS2_PLACEMENT_3D('',#1746,#1390,#1391);
#1229=AXIS2_PLACEMENT_3D('',#1747,#1392,#1393);
#1230=AXIS2_PLACEMENT_3D('',#1752,#1395,#1396);
#1231=AXIS2_PLACEMENT_3D('',#1755,#1398,#1399);
#1232=AXIS2_PLACEMENT_3D('',#1758,#1400,#1401);
#1233=AXIS2_PLACEMENT_3D('',#1762,#1403,#1404);
#1234=AXIS2_PLACEMENT_3D('',#1766,#1406,#1407);
#1235=AXIS2_PLACEMENT_3D('',#1768,#1408,#1409);
#1236=AXIS2_PLACEMENT_3D('',#1770,#1410,#1411);
#1237=AXIS2_PLACEMENT_3D('',#1774,#1413,#1414);
#1238=AXIS2_PLACEMENT_3D('',#1778,#1416,#1417);
#1239=AXIS2_PLACEMENT_3D('',#1780,#1418,#1419);
#1240=AXIS2_PLACEMENT_3D('',#1782,#1420,#1421);
#1241=AXIS2_PLACEMENT_3D('',#1786,#1423,#1424);
#1242=AXIS2_PLACEMENT_3D('',#1791,#1427,#1428);
#1243=AXIS2_PLACEMENT_3D('',#1793,#1429,#1430);
#1244=AXIS2_PLACEMENT_3D('',#1795,#1431,#1432);
#1245=AXIS2_PLACEMENT_3D('',#1799,#1434,#1435);
#1246=AXIS2_PLACEMENT_3D('',#1803,#1437,#1438);
#1247=AXIS2_PLACEMENT_3D('',#1805,#1439,#1440);
#1248=AXIS2_PLACEMENT_3D('',#1807,#1441,#1442);
#1249=AXIS2_PLACEMENT_3D('',#1811,#1444,#1445);
#1250=AXIS2_PLACEMENT_3D('',#1815,#1447,#1448);
#1251=AXIS2_PLACEMENT_3D('',#1817,#1449,#1450);
#1252=AXIS2_PLACEMENT_3D('',#1819,#1451,#1452);
#1253=AXIS2_PLACEMENT_3D('',#1823,#1454,#1455);
#1254=AXIS2_PLACEMENT_3D('',#1828,#1458,#1459);
#1255=AXIS2_PLACEMENT_3D('',#1829,#1460,#1461);
#1256=AXIS2_PLACEMENT_3D('',#1830,#1462,#1463);
#1257=AXIS2_PLACEMENT_3D('',#1835,#1465,#1466);
#1258=AXIS2_PLACEMENT_3D('',#1838,#1468,#1469);
#1259=AXIS2_PLACEMENT_3D('',#1840,#1470,#1471);
#1260=AXIS2_PLACEMENT_3D('',#1842,#1472,#1473);
#1261=AXIS2_PLACEMENT_3D('',#1844,#1474,#1475);
#1262=AXIS2_PLACEMENT_3D('',#1846,#1476,#1477);
#1263=AXIS2_PLACEMENT_3D('',#1848,#1478,#1479);
#1264=AXIS2_PLACEMENT_3D('',#1850,#1480,#1481);
#1265=AXIS2_PLACEMENT_3D('',#1853,#1483,#1484);
#1266=AXIS2_PLACEMENT_3D('',#1858,#1487,#1488);
#1267=AXIS2_PLACEMENT_3D('',#1863,#1491,#1492);
#1268=AXIS2_PLACEMENT_3D('',#1866,#1494,#1495);
#1269=AXIS2_PLACEMENT_3D('',#1869,#1497,#1498);
#1270=AXIS2_PLACEMENT_3D('',#1874,#1501,#1502);
#1271=AXIS2_PLACEMENT_3D('',#1879,#1505,#1506);
#1272=AXIS2_PLACEMENT_3D('',#1882,#1508,#1509);
#1273=AXIS2_PLACEMENT_3D('',#1883,#1510,#1511);
#1274=AXIS2_PLACEMENT_3D('',#1885,#1512,#1513);
#1275=AXIS2_PLACEMENT_3D('',#1886,#1514,#1515);
#1276=AXIS2_PLACEMENT_3D('',#1888,#1516,#1517);
#1277=AXIS2_PLACEMENT_3D('',#1889,#1518,#1519);
#1278=AXIS2_PLACEMENT_3D('',#1891,#1520,#1521);
#1279=AXIS2_PLACEMENT_3D('',#1892,#1522,#1523);
#1280=AXIS2_PLACEMENT_3D('',#1894,#1524,#1525);
#1281=AXIS2_PLACEMENT_3D('',#1897,#1527,#1528);
#1282=AXIS2_PLACEMENT_3D('',#1900,#1530,#1531);
#1283=AXIS2_PLACEMENT_3D('',#1904,#1534,#1535);
#1284=AXIS2_PLACEMENT_3D('',#1907,#1537,#1538);
#1285=AXIS2_PLACEMENT_3D('',#1908,#1539,#1540);
#1286=AXIS2_PLACEMENT_3D('',#1910,#1542,#1543);
#1287=AXIS2_PLACEMENT_3D('',#1914,#1546,#1547);
#1288=AXIS2_PLACEMENT_3D('',#1915,#1548,#1549);
#1289=AXIS2_PLACEMENT_3D('',#1920,#1552,#1553);
#1290=AXIS2_PLACEMENT_3D('',#1924,#1556,#1557);
#1291=AXIS2_PLACEMENT_3D('',#1928,#1560,#1561);
#1292=AXIS2_PLACEMENT_3D('',#1934,#1565,#1566);
#1293=AXIS2_PLACEMENT_3D('',#1937,#1568,#1569);
#1294=AXIS2_PLACEMENT_3D('',#1938,#1570,#1571);
#1295=AXIS2_PLACEMENT_3D('',#1942,#1574,#1575);
#1296=AXIS2_PLACEMENT_3D('',#1943,#1576,#1577);
#1297=AXIS2_PLACEMENT_3D('',#1944,#1578,#1579);
#1298=AXIS2_PLACEMENT_3D('',#1945,#1580,#1581);
#1299=AXIS2_PLACEMENT_3D('',#1949,#1583,#1584);
#1300=AXIS2_PLACEMENT_3D('',#1953,#1586,#1587);
#1301=AXIS2_PLACEMENT_3D('',#1954,#1588,#1589);
#1302=AXIS2_PLACEMENT_3D('',#1955,#1590,#1591);
#1303=AXIS2_PLACEMENT_3D('',#1958,#1594,#1595);
#1304=AXIS2_PLACEMENT_3D('',#1960,#1597,#1598);
#1305=AXIS2_PLACEMENT_3D('',#1962,#1600,#1601);
#1306=AXIS2_PLACEMENT_3D('',#1966,#1603,#1604);
#1307=AXIS2_PLACEMENT_3D('',#1967,#1605,#1606);
#1308=AXIS2_PLACEMENT_3D('',#1971,#1608,#1609);
#1309=AXIS2_PLACEMENT_3D('',#1972,#1610,#1611);
#1310=AXIS2_PLACEMENT_3D('',#1975,#1614,#1615);
#1311=AXIS2_PLACEMENT_3D('',#1978,#1618,#1619);
#1312=AXIS2_PLACEMENT_3D('',#1979,#1620,#1621);
#1313=AXIS2_PLACEMENT_3D('',#1980,#1622,#1623);
#1314=AXIS2_PLACEMENT_3D('',#1983,#1625,#1626);
#1315=AXIS2_PLACEMENT_3D('',#1987,#1628,#1629);
#1316=AXIS2_PLACEMENT_3D('',#1988,#1630,#1631);
#1317=AXIS2_PLACEMENT_3D('',#1990,#1633,#1634);
#1318=AXIS2_PLACEMENT_3D('',#1991,#1635,#1636);
#1319=AXIS2_PLACEMENT_3D('',#1994,#1639,#1640);
#1320=AXIS2_PLACEMENT_3D('',#1996,#1642,#1643);
#1321=AXIS2_PLACEMENT_3D('',#2002,#1647,#1648);
#1322=AXIS2_PLACEMENT_3D('',#2008,#1652,#1653);
#1323=AXIS2_PLACEMENT_3D('',#2009,#1654,#1655);
#1324=AXIS2_PLACEMENT_3D('',#2010,#1656,#1657);
#1325=AXIS2_PLACEMENT_3D('',#2011,#1658,#1659);
#1326=AXIS2_PLACEMENT_3D('',#2012,#1660,#1661);
#1327=AXIS2_PLACEMENT_3D('',#2013,#1662,#1663);
#1328=AXIS2_PLACEMENT_3D('',#2014,#1664,#1665);
#1329=AXIS2_PLACEMENT_3D('',#2015,#1666,#1667);
#1330=AXIS2_PLACEMENT_3D('',#2016,#1668,#1669);
#1331=AXIS2_PLACEMENT_3D('',#2017,#1670,#1671);
#1332=AXIS2_PLACEMENT_3D('',#2018,#1672,#1673);
#1333=AXIS2_PLACEMENT_3D('',#2019,#1674,#1675);
#1334=AXIS2_PLACEMENT_3D('',#2020,#1676,#1677);
#1335=AXIS2_PLACEMENT_3D('',#2021,#1678,#1679);
#1336=AXIS2_PLACEMENT_3D('',#2022,#1680,#1681);
#1337=AXIS2_PLACEMENT_3D('',#2023,#1682,#1683);
#1338=AXIS2_PLACEMENT_3D('',#2024,#1684,#1685);
#1339=AXIS2_PLACEMENT_3D('',#2025,#1686,#1687);
#1340=AXIS2_PLACEMENT_3D('',#2026,#1688,#1689);
#1341=AXIS2_PLACEMENT_3D('',#2027,#1690,#1691);
#1342=AXIS2_PLACEMENT_3D('',#2028,#1692,#1693);
#1343=AXIS2_PLACEMENT_3D('',#2029,#1694,#1695);
#1344=AXIS2_PLACEMENT_3D('',#2030,#1696,#1697);
#1345=AXIS2_PLACEMENT_3D('',#2031,#1698,#1699);
#1346=AXIS2_PLACEMENT_3D('',#2032,#1700,#1701);
#1347=AXIS2_PLACEMENT_3D('',#2033,#1702,#1703);
#1348=AXIS2_PLACEMENT_3D('',#2034,#1704,#1705);
#1349=AXIS2_PLACEMENT_3D('',#2035,#1706,#1707);
#1350=DIRECTION('',(0.,0.,1.));
#1351=DIRECTION('',(1.,0.,0.));
#1352=DIRECTION('',(0.,0.,1.));
#1353=DIRECTION('',(0.,0.,-1.));
#1354=DIRECTION('',(-1.,0.,0.));
#1355=DIRECTION('',(0.,0.,-1.));
#1356=DIRECTION('',(0.,0.,-1.));
#1357=DIRECTION('',(-1.,0.,0.));
#1358=DIRECTION('',(0.,0.,1.));
#1359=DIRECTION('',(1.,0.,0.));
#1360=DIRECTION('',(0.,0.,1.));
#1361=DIRECTION('',(0.,0.,-1.));
#1362=DIRECTION('',(-1.39897054514259E-16,-1.,0.));
#1363=DIRECTION('',(0.,0.,-1.));
#1364=DIRECTION('',(0.,0.,-1.));
#1365=DIRECTION('',(-1.39897054514259E-16,-1.,0.));
#1366=DIRECTION('',(0.,0.,1.));
#1367=DIRECTION('',(1.,0.,0.));
#1368=DIRECTION('',(0.,0.,-1.));
#1369=DIRECTION('',(0.999999999999999,0.,0.));
#1370=DIRECTION('',(0.,0.,1.));
#1371=DIRECTION('',(0.999999999999999,0.,0.));
#1372=DIRECTION('',(0.,0.,-1.));
#1373=DIRECTION('',(-0.999999999999999,0.,0.));
#1374=DIRECTION('',(0.,0.,1.));
#1375=DIRECTION('',(-0.999999999999999,0.,0.));
#1376=DIRECTION('',(0.,0.,-1.));
#1377=DIRECTION('',(0.999999999999999,0.,0.));
#1378=DIRECTION('',(0.,0.,-1.));
#1379=DIRECTION('',(-0.999999999999999,0.,0.));
#1380=DIRECTION('',(0.,0.,1.));
#1381=DIRECTION('',(0.,1.,0.));
#1382=DIRECTION('',(0.,0.,-1.));
#1383=DIRECTION('',(1.,0.,0.));
#1384=DIRECTION('',(0.,0.,-1.));
#1385=DIRECTION('',(-1.,0.,0.));
#1386=DIRECTION('',(0.,0.,-1.));
#1387=DIRECTION('',(0.,1.,0.));
#1388=DIRECTION('',(0.,0.,1.));
#1389=DIRECTION('',(1.,0.,0.));
#1390=DIRECTION('',(0.,0.,-1.));
#1391=DIRECTION('',(-1.,0.,0.));
#1392=DIRECTION('',(0.,0.,1.));
#1393=DIRECTION('',(1.,0.,0.));
#1394=DIRECTION('',(1.,0.,0.));
#1395=DIRECTION('',(0.,0.,1.));
#1396=DIRECTION('',(1.,0.,0.));
#1397=DIRECTION('',(-1.,0.,0.));
#1398=DIRECTION('',(0.,0.,-1.));
#1399=DIRECTION('',(1.,0.,0.));
#1400=DIRECTION('',(0.,0.,1.));
#1401=DIRECTION('',(1.,0.,0.));
#1402=DIRECTION('',(0.707106781186545,0.70710678118655,0.));
#1403=DIRECTION('',(0.,0.,-1.));
#1404=DIRECTION('',(-1.,0.,0.));
#1405=DIRECTION('',(-0.707106781186545,-0.70710678118655,0.));
#1406=DIRECTION('',(0.,0.,1.));
#1407=DIRECTION('',(1.,0.,0.));
#1408=DIRECTION('',(0.,0.,-1.));
#1409=DIRECTION('',(1.,0.,0.));
#1410=DIRECTION('',(0.,0.,1.));
#1411=DIRECTION('',(1.,0.,0.));
#1412=DIRECTION('',(0.707106781186552,-0.707106781186543,0.));
#1413=DIRECTION('',(0.,0.,-1.));
#1414=DIRECTION('',(0.,1.,0.));
#1415=DIRECTION('',(-0.707106781186551,0.707106781186545,0.));
#1416=DIRECTION('',(0.,0.,1.));
#1417=DIRECTION('',(1.,0.,0.));
#1418=DIRECTION('',(0.,0.,-1.));
#1419=DIRECTION('',(1.,0.,0.));
#1420=DIRECTION('',(0.,0.,1.));
#1421=DIRECTION('',(1.,0.,0.));
#1422=DIRECTION('',(-0.707106781186545,-0.70710678118655,0.));
#1423=DIRECTION('',(0.,0.,-1.));
#1424=DIRECTION('',(1.,0.,0.));
#1425=DIRECTION('',(1.,0.,0.));
#1426=DIRECTION('',(-0.707106781186546,0.707106781186549,0.));
#1427=DIRECTION('',(0.,0.,1.));
#1428=DIRECTION('',(1.,0.,0.));
#1429=DIRECTION('',(0.,0.,-1.));
#1430=DIRECTION('',(1.,0.,0.));
#1431=DIRECTION('',(0.,0.,1.));
#1432=DIRECTION('',(1.,0.,0.));
#1433=DIRECTION('',(-0.70710678118655,-0.707106781186545,0.));
#1434=DIRECTION('',(0.,0.,-1.));
#1435=DIRECTION('',(0.,1.,0.));
#1436=DIRECTION('',(0.70710678118655,0.707106781186545,0.));
#1437=DIRECTION('',(0.,0.,1.));
#1438=DIRECTION('',(1.,0.,0.));
#1439=DIRECTION('',(0.,0.,-1.));
#1440=DIRECTION('',(1.,0.,0.));
#1441=DIRECTION('',(0.,0.,1.));
#1442=DIRECTION('',(1.,0.,0.));
#1443=DIRECTION('',(-0.707106781186545,0.70710678118655,0.));
#1444=DIRECTION('',(0.,0.,-1.));
#1445=DIRECTION('',(0.999999999999999,0.,0.));
#1446=DIRECTION('',(0.707106781186546,-0.707106781186549,0.));
#1447=DIRECTION('',(0.,0.,1.));
#1448=DIRECTION('',(1.,0.,0.));
#1449=DIRECTION('',(0.,0.,-1.));
#1450=DIRECTION('',(1.,0.,0.));
#1451=DIRECTION('',(0.,0.,1.));
#1452=DIRECTION('',(1.,0.,0.));
#1453=DIRECTION('',(0.70710678118655,0.707106781186545,0.));
#1454=DIRECTION('',(0.,0.,-1.));
#1455=DIRECTION('',(-1.39897054514259E-16,-1.,0.));
#1456=DIRECTION('',(-1.,0.,0.));
#1457=DIRECTION('',(0.70710678118655,-0.707106781186545,0.));
#1458=DIRECTION('',(0.,0.,1.));
#1459=DIRECTION('',(1.,0.,0.));
#1460=DIRECTION('',(0.,0.,1.));
#1461=DIRECTION('',(1.,0.,0.));
#1462=DIRECTION('',(0.,0.,1.));
#1463=DIRECTION('',(1.,0.,0.));
#1464=DIRECTION('',(-1.,0.,0.));
#1465=DIRECTION('',(0.,0.,1.));
#1466=DIRECTION('',(1.,0.,0.));
#1467=DIRECTION('',(1.,0.,0.));
#1468=DIRECTION('',(0.,0.,-1.));
#1469=DIRECTION('',(-1.,0.,0.));
#1470=DIRECTION('',(0.,0.,1.));
#1471=DIRECTION('',(0.,-1.,0.));
#1472=DIRECTION('',(0.,0.,-1.));
#1473=DIRECTION('',(1.,1.22464679914735E-16,0.));
#1474=DIRECTION('',(0.,0.,-1.));
#1475=DIRECTION('',(1.,1.22464679914735E-16,0.));
#1476=DIRECTION('',(0.,0.,-1.));
#1477=DIRECTION('',(0.,-1.,0.));
#1478=DIRECTION('',(0.,0.,1.));
#1479=DIRECTION('',(1.,0.,0.));
#1480=DIRECTION('',(0.,0.,1.));
#1481=DIRECTION('',(1.,0.,0.));
#1482=DIRECTION('',(0.,0.,-1.));
#1483=DIRECTION('',(0.,0.,1.));
#1484=DIRECTION('',(1.,1.22464679914735E-16,0.));
#1485=DIRECTION('',(0.,0.,1.));
#1486=DIRECTION('',(0.,0.,-1.));
#1487=DIRECTION('',(0.,0.,1.));
#1488=DIRECTION('',(0.,1.,0.));
#1489=DIRECTION('',(0.,0.,1.));
#1490=DIRECTION('',(0.,0.,-1.));
#1491=DIRECTION('',(0.,0.,1.));
#1492=DIRECTION('',(-1.,0.,0.));
#1493=DIRECTION('',(0.,0.,1.));
#1494=DIRECTION('',(0.,0.,-1.));
#1495=DIRECTION('',(-1.,0.,0.));
#1496=DIRECTION('',(0.,0.,-1.));
#1497=DIRECTION('',(0.,0.,1.));
#1498=DIRECTION('',(2.10269512239613E-16,-1.,0.));
#1499=DIRECTION('',(0.,0.,1.));
#1500=DIRECTION('',(0.,0.,-1.));
#1501=DIRECTION('',(0.,0.,1.));
#1502=DIRECTION('',(1.,1.22464679914735E-16,0.));
#1503=DIRECTION('',(0.,0.,1.));
#1504=DIRECTION('',(0.,0.,-1.));
#1505=DIRECTION('',(0.,0.,1.));
#1506=DIRECTION('',(0.,1.,0.));
#1507=DIRECTION('',(0.,0.,1.));
#1508=DIRECTION('',(0.,0.,-1.));
#1509=DIRECTION('',(-1.,0.,0.));
#1510=DIRECTION('',(0.,0.,1.));
#1511=DIRECTION('',(-0.999999999999999,0.,0.));
#1512=DIRECTION('',(0.,0.,-1.));
#1513=DIRECTION('',(-0.999999999999999,0.,0.));
#1514=DIRECTION('',(0.,0.,-1.));
#1515=DIRECTION('',(-1.,0.,0.));
#1516=DIRECTION('',(0.,0.,-1.));
#1517=DIRECTION('',(-1.,0.,0.));
#1518=DIRECTION('',(0.,0.,-1.));
#1519=DIRECTION('',(-0.999999999999999,0.,0.));
#1520=DIRECTION('',(0.,0.,-1.));
#1521=DIRECTION('',(-0.999999999999999,0.,0.));
#1522=DIRECTION('',(0.,0.,1.));
#1523=DIRECTION('',(-1.,0.,0.));
#1524=DIRECTION('',(0.,0.,-1.));
#1525=DIRECTION('',(-1.,0.,0.));
#1526=DIRECTION('',(0.,0.,1.));
#1527=DIRECTION('',(0.,0.,-1.));
#1528=DIRECTION('',(1.,0.,0.));
#1529=DIRECTION('',(0.,0.,1.));
#1530=DIRECTION('',(0.,0.,1.));
#1531=DIRECTION('',(1.,0.,0.));
#1532=DIRECTION('',(0.,0.,1.));
#1533=DIRECTION('',(-1.,0.,0.));
#1534=DIRECTION('',(0.,-1.,0.));
#1535=DIRECTION('',(0.,0.,-1.));
#1536=DIRECTION('',(0.,0.,1.));
#1537=DIRECTION('',(0.,0.,-1.));
#1538=DIRECTION('',(1.,0.,0.));
#1539=DIRECTION('',(0.,0.,1.));
#1540=DIRECTION('',(1.,0.,0.));
#1541=DIRECTION('',(1.,0.,0.));
#1542=DIRECTION('',(0.,1.,0.));
#1543=DIRECTION('',(0.,0.,1.));
#1544=DIRECTION('',(-0.707106781186546,0.707106781186549,0.));
#1545=DIRECTION('',(0.,0.,1.));
#1546=DIRECTION('',(-0.707106781186549,-0.707106781186546,0.));
#1547=DIRECTION('',(0.707106781186546,-0.707106781186549,0.));
#1548=DIRECTION('',(0.,0.,-1.));
#1549=DIRECTION('',(1.,0.,0.));
#1550=DIRECTION('',(0.,0.,1.));
#1551=DIRECTION('',(0.,0.,-1.));
#1552=DIRECTION('',(0.,0.,1.));
#1553=DIRECTION('',(1.,0.,0.));
#1554=DIRECTION('',(0.,0.,-1.));
#1555=DIRECTION('',(-0.707106781186545,-0.70710678118655,0.));
#1556=DIRECTION('',(0.707106781186549,-0.707106781186545,0.));
#1557=DIRECTION('',(0.707106781186545,0.70710678118655,0.));
#1558=DIRECTION('',(0.70710678118655,-0.707106781186545,0.));
#1559=DIRECTION('',(0.,0.,1.));
#1560=DIRECTION('',(0.707106781186545,0.707106781186549,0.));
#1561=DIRECTION('',(-0.70710678118655,0.707106781186545,0.));
#1562=DIRECTION('',(-0.707106781186551,0.707106781186545,0.));
#1563=DIRECTION('',(0.,0.,1.));
#1564=DIRECTION('',(0.,0.,-1.));
#1565=DIRECTION('',(-0.707106781186544,-0.70710678118655,0.));
#1566=DIRECTION('',(0.707106781186551,-0.707106781186545,0.));
#1567=DIRECTION('',(0.,0.,-1.));
#1568=DIRECTION('',(0.,0.,-1.));
#1569=DIRECTION('',(0.,1.,0.));
#1570=DIRECTION('',(0.,0.,1.));
#1571=DIRECTION('',(0.999999999999999,0.,0.));
#1572=DIRECTION('',(0.,0.,-1.));
#1573=DIRECTION('',(0.707106781186552,-0.707106781186543,0.));
#1574=DIRECTION('',(0.707106781186543,0.707106781186552,0.));
#1575=DIRECTION('',(-0.707106781186552,0.707106781186543,0.));
#1576=DIRECTION('',(0.,0.,-1.));
#1577=DIRECTION('',(1.,0.,0.));
#1578=DIRECTION('',(0.,0.,-1.));
#1579=DIRECTION('',(1.,0.,0.));
#1580=DIRECTION('',(0.,0.,1.));
#1581=DIRECTION('',(1.,0.,0.));
#1582=DIRECTION('',(0.70710678118655,0.707106781186545,0.));
#1583=DIRECTION('',(0.,0.,-1.));
#1584=DIRECTION('',(0.,1.,0.));
#1585=DIRECTION('',(-0.70710678118655,-0.707106781186545,0.));
#1586=DIRECTION('',(0.,0.,-1.));
#1587=DIRECTION('',(1.,0.,0.));
#1588=DIRECTION('',(0.,0.,-1.));
#1589=DIRECTION('',(1.,0.,0.));
#1590=DIRECTION('',(0.,0.,1.));
#1591=DIRECTION('',(1.,0.,0.));
#1592=DIRECTION('',(0.,0.,1.));
#1593=DIRECTION('',(0.,0.,-1.));
#1594=DIRECTION('',(-0.707106781186545,0.70710678118655,0.));
#1595=DIRECTION('',(-0.70710678118655,-0.707106781186545,0.));
#1596=DIRECTION('',(0.,0.,-1.));
#1597=DIRECTION('',(0.,0.,1.));
#1598=DIRECTION('',(0.999999999999999,0.,0.));
#1599=DIRECTION('',(0.,0.,-1.));
#1600=DIRECTION('',(0.707106781186545,-0.70710678118655,0.));
#1601=DIRECTION('',(0.70710678118655,0.707106781186545,0.));
#1602=DIRECTION('',(-0.707106781186545,0.70710678118655,0.));
#1603=DIRECTION('',(0.,0.,-1.));
#1604=DIRECTION('',(-1.,0.,0.));
#1605=DIRECTION('',(0.,0.,-1.));
#1606=DIRECTION('',(-1.,0.,0.));
#1607=DIRECTION('',(0.707106781186546,-0.707106781186549,0.));
#1608=DIRECTION('',(0.,0.,-1.));
#1609=DIRECTION('',(0.999999999999999,0.,0.));
#1610=DIRECTION('',(0.,0.,-1.));
#1611=DIRECTION('',(-1.,0.,0.));
#1612=DIRECTION('',(0.,0.,-1.));
#1613=DIRECTION('',(0.,0.,-1.));
#1614=DIRECTION('',(-0.70710678118655,-0.707106781186545,0.));
#1615=DIRECTION('',(0.707106781186545,-0.70710678118655,0.));
#1616=DIRECTION('',(0.,0.,1.));
#1617=DIRECTION('',(0.,0.,-1.));
#1618=DIRECTION('',(0.707106781186549,0.707106781186545,0.));
#1619=DIRECTION('',(-0.707106781186546,0.707106781186549,0.));
#1620=DIRECTION('',(0.,0.,1.));
#1621=DIRECTION('',(0.999999999999999,0.,0.));
#1622=DIRECTION('',(0.,0.,-1.));
#1623=DIRECTION('',(-1.,0.,0.));
#1624=DIRECTION('',(1.,0.,0.));
#1625=DIRECTION('',(0.,0.,-1.));
#1626=DIRECTION('',(-1.39897054514259E-16,-1.,0.));
#1627=DIRECTION('',(0.70710678118655,0.707106781186545,0.));
#1628=DIRECTION('',(0.,0.,-1.));
#1629=DIRECTION('',(-1.,0.,0.));
#1630=DIRECTION('',(0.,0.,-1.));
#1631=DIRECTION('',(1.,0.,0.));
#1632=DIRECTION('',(-1.,0.,0.));
#1633=DIRECTION('',(0.,0.,-1.));
#1634=DIRECTION('',(1.,0.,0.));
#1635=DIRECTION('',(0.,0.,-1.));
#1636=DIRECTION('',(-1.,0.,0.));
#1637=DIRECTION('',(0.,0.,-1.));
#1638=DIRECTION('',(0.,0.,-1.));
#1639=DIRECTION('',(-0.707106781186545,0.70710678118655,0.));
#1640=DIRECTION('',(-0.70710678118655,-0.707106781186545,0.));
#1641=DIRECTION('',(0.,0.,1.));
#1642=DIRECTION('',(0.,0.,1.));
#1643=DIRECTION('',(1.,0.,0.));
#1644=DIRECTION('',(0.,0.,-1.));
#1645=DIRECTION('',(0.707106781186545,0.70710678118655,0.));
#1646=DIRECTION('',(0.,0.,-1.));
#1647=DIRECTION('',(-0.707106781186549,0.707106781186545,0.));
#1648=DIRECTION('',(-0.707106781186545,-0.70710678118655,0.));
#1649=DIRECTION('',(-0.707106781186545,-0.70710678118655,0.));
#1650=DIRECTION('',(0.,0.,1.));
#1651=DIRECTION('',(0.,0.,-1.));
#1652=DIRECTION('',(0.70710678118655,-0.707106781186545,0.));
#1653=DIRECTION('',(0.707106781186545,0.70710678118655,0.));
#1654=DIRECTION('',(0.,0.,-1.));
#1655=DIRECTION('',(-1.,0.,0.));
#1656=DIRECTION('',(0.,0.,1.));
#1657=DIRECTION('',(0.999999999999999,0.,0.));
#1658=DIRECTION('',(0.,0.,-1.));
#1659=DIRECTION('',(-1.,0.,0.));
#1660=DIRECTION('',(0.,0.,-1.));
#1661=DIRECTION('',(-1.,0.,0.));
#1662=DIRECTION('',(0.,0.,-1.));
#1663=DIRECTION('',(-1.,0.,0.));
#1664=DIRECTION('',(0.,1.,0.));
#1665=DIRECTION('',(0.,0.,1.));
#1666=DIRECTION('',(0.,-1.,0.));
#1667=DIRECTION('',(0.,0.,-1.));
#1668=DIRECTION('',(0.,0.,-1.));
#1669=DIRECTION('',(-1.,0.,0.));
#1670=DIRECTION('',(0.,0.,-1.));
#1671=DIRECTION('',(-1.,0.,0.));
#1672=DIRECTION('',(0.,0.,-1.));
#1673=DIRECTION('',(-1.,0.,0.));
#1674=DIRECTION('',(0.,0.,-1.));
#1675=DIRECTION('',(-1.,0.,0.));
#1676=DIRECTION('',(0.,0.,-1.));
#1677=DIRECTION('',(-1.,0.,0.));
#1678=DIRECTION('',(0.,0.,-1.));
#1679=DIRECTION('',(-1.,0.,0.));
#1680=DIRECTION('',(0.,0.,-1.));
#1681=DIRECTION('',(-1.,0.,0.));
#1682=DIRECTION('',(0.,0.,-1.));
#1683=DIRECTION('',(-1.,0.,0.));
#1684=DIRECTION('',(0.,0.,-1.));
#1685=DIRECTION('',(-1.,0.,0.));
#1686=DIRECTION('',(0.,0.,-1.));
#1687=DIRECTION('',(-1.,0.,0.));
#1688=DIRECTION('',(0.,0.,-1.));
#1689=DIRECTION('',(-1.,0.,0.));
#1690=DIRECTION('',(0.,0.,-1.));
#1691=DIRECTION('',(-1.,0.,0.));
#1692=DIRECTION('',(1.,0.,0.));
#1693=DIRECTION('',(0.,0.,-1.));
#1694=DIRECTION('',(-1.,0.,0.));
#1695=DIRECTION('',(0.,0.,1.));
#1696=DIRECTION('',(-1.,0.,0.));
#1697=DIRECTION('',(0.,0.,1.));
#1698=DIRECTION('',(1.,0.,0.));
#1699=DIRECTION('',(0.,0.,-1.));
#1700=DIRECTION('',(0.,0.,1.));
#1701=DIRECTION('',(1.,0.,0.));
#1702=DIRECTION('',(-1.,0.,0.));
#1703=DIRECTION('',(0.,0.,1.));
#1704=DIRECTION('',(0.,0.,1.));
#1705=DIRECTION('',(1.,0.,0.));
#1706=DIRECTION('',(1.,0.,0.));
#1707=DIRECTION('',(0.,0.,-1.));
#1708=CARTESIAN_POINT('',(0.,0.,0.));
#1709=CARTESIAN_POINT('',(-3.18108768086663,-17.4189123190275,-23.7));
#1710=CARTESIAN_POINT('',(-3.18108768086663,-17.4189123190275,3.));
#1711=CARTESIAN_POINT('',(-3.18108768086663,-17.4189123190275,6.));
#1712=CARTESIAN_POINT('',(-3.18108768086663,-14.3189123190275,3.));
#1713=CARTESIAN_POINT('',(-5.37311870254494,-16.5109433407058,3.));
#1714=CARTESIAN_POINT('',(-5.37311870254494,-16.5109433407058,3.));
#1715=CARTESIAN_POINT('',(-5.37311870254494,-16.5109433407058,6.));
#1716=CARTESIAN_POINT('',(-3.18108768086663,-14.3189123190275,6.));
#1717=CARTESIAN_POINT('',(-3.18108768086663,-14.3189123190275,3.));
#1718=CARTESIAN_POINT('',(3.18108768086665,17.4189123190276,-23.7));
#1719=CARTESIAN_POINT('',(3.18108768086665,17.4189123190276,3.));
#1720=CARTESIAN_POINT('',(3.18108768086665,17.4189123190276,6.));
#1721=CARTESIAN_POINT('',(3.1810876808666,14.3189123190276,3.));
#1722=CARTESIAN_POINT('',(5.37311870254491,16.5109433407059,3.));
#1723=CARTESIAN_POINT('',(5.37311870254491,16.5109433407059,3.));
#1724=CARTESIAN_POINT('',(5.37311870254491,16.5109433407059,6.));
#1725=CARTESIAN_POINT('',(3.1810876808666,14.3189123190276,6.));
#1726=CARTESIAN_POINT('',(3.1810876808666,14.3189123190276,3.));
#1727=CARTESIAN_POINT('',(-31.8189123189218,-14.3189123190276,0.));
#1728=CARTESIAN_POINT('',(-30.1689123189218,-14.3189123190276,0.));
#1729=CARTESIAN_POINT('',(-31.8189123189218,-14.3189123190276,3.));
#1730=CARTESIAN_POINT('',(-30.1689123189218,-14.3189123190276,3.));
#1731=CARTESIAN_POINT('',(-31.8189123189218,-14.3189123190276,6.));
#1732=CARTESIAN_POINT('',(31.8189123189218,-14.3189123190276,0.));
#1733=CARTESIAN_POINT('',(30.1689123189218,-14.3189123190276,0.));
#1734=CARTESIAN_POINT('',(31.8189123189218,-14.3189123190276,3.));
#1735=CARTESIAN_POINT('',(33.4689123189218,-14.3189123190276,3.));
#1736=CARTESIAN_POINT('',(31.8189123189218,-14.3189123190276,6.));
#1737=CARTESIAN_POINT('',(3.18108768086659,-14.3189123190276,0.));
#1738=CARTESIAN_POINT('',(3.18108768086659,-12.6689123190276,0.));
#1739=CARTESIAN_POINT('',(3.18108768086659,-14.3189123190276,3.));
#1740=CARTESIAN_POINT('',(4.83108768086659,-14.3189123190276,3.));
#1741=CARTESIAN_POINT('',(3.18108768086659,-14.3189123190276,6.));
#1742=CARTESIAN_POINT('',(-3.1810876808667,-14.3189123190276,0.));
#1743=CARTESIAN_POINT('',(-3.1810876808667,-12.6689123190276,0.));
#1744=CARTESIAN_POINT('',(-3.1810876808667,-14.3189123190276,3.));
#1745=CARTESIAN_POINT('',(-1.5310876808667,-14.3189123190276,3.));
#1746=CARTESIAN_POINT('',(-3.1810876808667,-14.3189123190276,6.));
#1747=CARTESIAN_POINT('',(-17.4999999998942,0.,6.));
#1748=CARTESIAN_POINT('',(-17.4999999998942,23.5,6.));
#1749=CARTESIAN_POINT('',(-17.499999999996,-23.5,6.));
#1750=CARTESIAN_POINT('',(-17.5,-23.5,6.));
#1751=CARTESIAN_POINT('',(17.5,-23.5,6.));
#1752=CARTESIAN_POINT('',(17.5,1.06581410364015E-14,6.));
#1753=CARTESIAN_POINT('',(17.5,23.5,6.));
#1754=CARTESIAN_POINT('',(-17.5,23.5,6.));
#1755=CARTESIAN_POINT('',(17.5,1.09605888523497E-14,6.));
#1756=CARTESIAN_POINT('',(9.20179046067494,14.2614767272346,6.));
#1757=CARTESIAN_POINT('',(25.7982095392025,14.261476727306,6.));
#1758=CARTESIAN_POINT('',(26.5525922245845,15.5579746116065,6.));
#1759=CARTESIAN_POINT('',(27.6132523963643,14.4973144398267,6.));
#1760=CARTESIAN_POINT('',(29.626881297248,16.5109433407104,6.));
#1761=CARTESIAN_POINT('',(29.626881297248,16.5109433407104,6.));
#1762=CARTESIAN_POINT('',(31.8189123189218,14.3189123190276,6.));
#1763=CARTESIAN_POINT('',(34.0109433406001,12.1268812973493,6.));
#1764=CARTESIAN_POINT('',(31.1515249021939,9.26746285894312,6.));
#1765=CARTESIAN_POINT('',(31.9973144397489,10.113252396498,6.));
#1766=CARTESIAN_POINT('',(33.0579746115287,9.05259222471823,6.));
#1767=CARTESIAN_POINT('',(31.7614767272346,8.29820953932505,6.));
#1768=CARTESIAN_POINT('',(17.5,1.09605888523497E-14,6.));
#1769=CARTESIAN_POINT('',(31.7614767272346,-8.29820953932504,6.));
#1770=CARTESIAN_POINT('',(33.0579746115287,-9.05259222471823,6.));
#1771=CARTESIAN_POINT('',(31.9973144397489,-10.1132523964981,6.));
#1772=CARTESIAN_POINT('',(34.0109433406046,-12.1268812973538,6.));
#1773=CARTESIAN_POINT('',(34.0109433406046,-12.1268812973538,6.));
#1774=CARTESIAN_POINT('',(31.8189123189218,-14.3189123190276,6.));
#1775=CARTESIAN_POINT('',(29.6268812972435,-16.5109433407059,6.));
#1776=CARTESIAN_POINT('',(26.7674628588374,-13.6515249022997,6.));
#1777=CARTESIAN_POINT('',(27.6132523963643,-14.4973144398267,6.));
#1778=CARTESIAN_POINT('',(26.5525922245845,-15.5579746116065,6.));
#1779=CARTESIAN_POINT('',(25.7982095392024,-14.261476727306,6.));
#1780=CARTESIAN_POINT('',(17.5,1.09605888523497E-14,6.));
#1781=CARTESIAN_POINT('',(9.20179046067497,-14.2614767272346,6.));
#1782=CARTESIAN_POINT('',(8.44740777528179,-15.5579746115287,6.));
#1783=CARTESIAN_POINT('',(7.38674760350197,-14.4973144397489,6.));
#1784=CARTESIAN_POINT('',(5.37311870254044,-16.5109433407104,6.));
#1785=CARTESIAN_POINT('',(5.37311870254045,-16.5109433407104,6.));
#1786=CARTESIAN_POINT('',(3.18108768086665,-14.3189123190276,6.));
#1787=CARTESIAN_POINT('',(3.18108768086665,-17.4189123190276,6.));
#1788=CARTESIAN_POINT('',(-3.18108768086663,-17.4189123190275,6.));
#1789=CARTESIAN_POINT('',(-8.23253714095107,-13.6515249022997,6.));
#1790=CARTESIAN_POINT('',(-7.3867476035019,-14.4973144397488,6.));
#1791=CARTESIAN_POINT('',(-8.44740777528173,-15.5579746115287,6.));
#1792=CARTESIAN_POINT('',(-9.20179046067492,-14.2614767272346,6.));
#1793=CARTESIAN_POINT('',(-17.5,-1.0539526846846E-14,6.));
#1794=CARTESIAN_POINT('',(-25.7982095392024,-14.261476727306,6.));
#1795=CARTESIAN_POINT('',(-26.5525922245845,-15.5579746116065,6.));
#1796=CARTESIAN_POINT('',(-27.6132523963643,-14.4973144398267,6.));
#1797=CARTESIAN_POINT('',(-29.6268812972435,-16.5109433407059,6.));
#1798=CARTESIAN_POINT('',(-29.6268812972435,-16.5109433407059,6.));
#1799=CARTESIAN_POINT('',(-31.8189123189218,-14.3189123190276,6.));
#1800=CARTESIAN_POINT('',(-34.0109433406001,-12.1268812973493,6.));
#1801=CARTESIAN_POINT('',(-31.1515249021939,-9.26746285894315,6.));
#1802=CARTESIAN_POINT('',(-31.9973144397489,-10.1132523964981,6.));
#1803=CARTESIAN_POINT('',(-33.0579746115287,-9.05259222471826,6.));
#1804=CARTESIAN_POINT('',(-31.7614767272346,-8.29820953932508,6.));
#1805=CARTESIAN_POINT('',(-17.5,-1.0539526846846E-14,6.));
#1806=CARTESIAN_POINT('',(-31.7614767272346,8.29820953932503,6.));
#1807=CARTESIAN_POINT('',(-33.0579746115287,9.05259222471822,6.));
#1808=CARTESIAN_POINT('',(-31.9973144397489,10.113252396498,6.));
#1809=CARTESIAN_POINT('',(-34.0109433406001,12.1268812973493,6.));
#1810=CARTESIAN_POINT('',(-34.0109433406001,12.1268812973493,6.));
#1811=CARTESIAN_POINT('',(-31.8189123189218,14.3189123190276,6.));
#1812=CARTESIAN_POINT('',(-29.626881297248,16.5109433407104,6.));
#1813=CARTESIAN_POINT('',(-26.7674628588374,13.6515249022997,6.));
#1814=CARTESIAN_POINT('',(-27.6132523963643,14.4973144398267,6.));
#1815=CARTESIAN_POINT('',(-26.5525922245845,15.5579746116065,6.));
#1816=CARTESIAN_POINT('',(-25.7982095392024,14.261476727306,6.));
#1817=CARTESIAN_POINT('',(-17.5,-1.0539526846846E-14,6.));
#1818=CARTESIAN_POINT('',(-9.20179046067502,14.2614767272346,6.));
#1819=CARTESIAN_POINT('',(-8.44740777528183,15.5579746115287,6.));
#1820=CARTESIAN_POINT('',(-7.38674760350202,14.4973144397489,6.));
#1821=CARTESIAN_POINT('',(-5.37311870254501,16.5109433407059,6.));
#1822=CARTESIAN_POINT('',(-5.37311870254501,16.5109433407059,6.));
#1823=CARTESIAN_POINT('',(-3.18108768086672,14.3189123190276,6.));
#1824=CARTESIAN_POINT('',(-3.18108768086663,17.4189123190276,6.));
#1825=CARTESIAN_POINT('',(3.18108768086665,17.4189123190275,6.));
#1826=CARTESIAN_POINT('',(8.23253714095107,13.6515249022997,6.));
#1827=CARTESIAN_POINT('',(7.38674760350193,14.4973144397489,6.));
#1828=CARTESIAN_POINT('',(8.44740777528175,15.5579746115287,6.));
#1829=CARTESIAN_POINT('',(-17.5,0.,6.));
#1830=CARTESIAN_POINT('',(-17.4999999998942,0.,0.));
#1831=CARTESIAN_POINT('',(-17.4999999998942,25.5,0.));
#1832=CARTESIAN_POINT('',(-17.499999999996,-25.5,0.));
#1833=CARTESIAN_POINT('',(17.5,25.5,0.));
#1834=CARTESIAN_POINT('',(17.5,25.5,0.));
#1835=CARTESIAN_POINT('',(17.5,1.06581410364015E-14,0.));
#1836=CARTESIAN_POINT('',(17.5,-25.5,0.));
#1837=CARTESIAN_POINT('',(-17.499999999996,-25.5,0.));
#1838=CARTESIAN_POINT('',(-3.18108768086664,14.3189123190275,0.));
#1839=CARTESIAN_POINT('',(-4.83108768086664,14.3189123190275,0.));
#1840=CARTESIAN_POINT('',(31.8189123189218,14.3189123190276,0.));
#1841=CARTESIAN_POINT('',(31.8189123189218,12.6689123190276,0.));
#1842=CARTESIAN_POINT('',(-17.5,-1.0539526846846E-14,0.));
#1843=CARTESIAN_POINT('',(-1.,-8.51885962825291E-15,0.));
#1844=CARTESIAN_POINT('',(17.5,1.09605888523497E-14,0.));
#1845=CARTESIAN_POINT('',(34.,1.29812560709429E-14,0.));
#1846=CARTESIAN_POINT('',(-31.8189123189218,14.3189123190276,0.));
#1847=CARTESIAN_POINT('',(-31.8189123189218,12.6689123190276,0.));
#1848=CARTESIAN_POINT('',(3.18108768086666,14.3189123190276,0.));
#1849=CARTESIAN_POINT('',(4.83108768086666,14.3189123190276,0.));
#1850=CARTESIAN_POINT('',(-17.5,0.,0.));
#1851=CARTESIAN_POINT('',(9.20179046067494,14.2614767272346,59.4));
#1852=CARTESIAN_POINT('',(9.20179046064819,14.2614767272806,3.));
#1853=CARTESIAN_POINT('',(17.4999999998942,-7.105427357601E-15,3.));
#1854=CARTESIAN_POINT('',(9.20179046067497,-14.2614767272346,3.));
#1855=CARTESIAN_POINT('',(9.20179046067497,-14.2614767272346,59.4));
#1856=CARTESIAN_POINT('',(25.7982095392024,-14.261476727306,59.4));
#1857=CARTESIAN_POINT('',(25.7982095391757,-14.26147672726,3.));
#1858=CARTESIAN_POINT('',(17.4999999998942,-6.93889390390723E-15,3.));
#1859=CARTESIAN_POINT('',(31.7614767272346,-8.29820953932504,3.));
#1860=CARTESIAN_POINT('',(31.7614767272346,-8.29820953932504,59.4));
#1861=CARTESIAN_POINT('',(31.7614767272346,8.29820953932505,59.4));
#1862=CARTESIAN_POINT('',(31.7614767271556,8.29820953927906,3.));
#1863=CARTESIAN_POINT('',(17.4999999998942,-7.105427357601E-15,3.));
#1864=CARTESIAN_POINT('',(25.7982095392025,14.261476727306,3.));
#1865=CARTESIAN_POINT('',(25.7982095392025,14.261476727306,59.4));
#1866=CARTESIAN_POINT('',(17.5,1.09605888523497E-14,59.4));
#1867=CARTESIAN_POINT('',(-9.20179046067492,-14.2614767272346,59.4));
#1868=CARTESIAN_POINT('',(-9.20179046064818,-14.2614767272806,3.));
#1869=CARTESIAN_POINT('',(-17.4999999998943,-6.93889390390723E-15,3.));
#1870=CARTESIAN_POINT('',(-9.20179046067502,14.2614767272346,3.));
#1871=CARTESIAN_POINT('',(-9.20179046067501,14.2614767272347,59.4));
#1872=CARTESIAN_POINT('',(-25.7982095392024,14.261476727306,59.4));
#1873=CARTESIAN_POINT('',(-25.7982095391757,14.26147672726,3.));
#1874=CARTESIAN_POINT('',(-17.4999999998942,-7.105427357601E-15,3.));
#1875=CARTESIAN_POINT('',(-31.7614767272346,8.29820953932503,3.));
#1876=CARTESIAN_POINT('',(-31.7614767272346,8.29820953932503,59.4));
#1877=CARTESIAN_POINT('',(-31.7614767272346,-8.29820953932508,59.4));
#1878=CARTESIAN_POINT('',(-31.7614767271556,-8.29820953927907,3.));
#1879=CARTESIAN_POINT('',(-17.4999999998942,-6.93889390390723E-15,3.));
#1880=CARTESIAN_POINT('',(-25.7982095392024,-14.261476727306,3.));
#1881=CARTESIAN_POINT('',(-25.7982095392024,-14.261476727306,59.4));
#1882=CARTESIAN_POINT('',(-17.5,-1.0539526846846E-14,59.4));
#1883=CARTESIAN_POINT('',(31.8189123189218,14.3189123190276,3.));
#1884=CARTESIAN_POINT('',(30.1689123189218,14.3189123190276,3.));
#1885=CARTESIAN_POINT('',(31.8189123189218,14.3189123190276,6.));
#1886=CARTESIAN_POINT('',(-3.18108768086664,14.3189123190275,3.));
#1887=CARTESIAN_POINT('',(-4.83108768086664,14.3189123190275,3.));
#1888=CARTESIAN_POINT('',(-3.18108768086664,14.3189123190275,6.));
#1889=CARTESIAN_POINT('',(-31.8189123189218,14.3189123190276,3.));
#1890=CARTESIAN_POINT('',(-33.4689123189218,14.3189123190276,3.));
#1891=CARTESIAN_POINT('',(-31.8189123189218,14.3189123190276,6.));
#1892=CARTESIAN_POINT('',(3.18108768086666,14.3189123190276,3.));
#1893=CARTESIAN_POINT('',(1.53108768086666,14.3189123190276,3.));
#1894=CARTESIAN_POINT('',(3.18108768086666,14.3189123190276,6.));
#1895=CARTESIAN_POINT('',(-17.499999999996,-25.5,0.));
#1896=CARTESIAN_POINT('',(-17.499999999996,-25.5,4.));
#1897=CARTESIAN_POINT('',(-17.4999999998942,0.,4.));
#1898=CARTESIAN_POINT('',(-17.4999999998942,25.5,4.));
#1899=CARTESIAN_POINT('',(-17.4999999998942,25.5,0.));
#1900=CARTESIAN_POINT('',(-17.4999999998942,0.,0.));
#1901=CARTESIAN_POINT('',(17.5,-25.5,0.));
#1902=CARTESIAN_POINT('',(17.5,-25.5,4.));
#1903=CARTESIAN_POINT('',(-17.499999999996,-25.5,4.));
#1904=CARTESIAN_POINT('',(-17.499999999996,-25.5,0.));
#1905=CARTESIAN_POINT('',(17.5,25.5,0.));
#1906=CARTESIAN_POINT('',(17.5,25.5,4.));
#1907=CARTESIAN_POINT('',(17.5,1.06581410364015E-14,4.));
#1908=CARTESIAN_POINT('',(17.5,1.06581410364015E-14,0.));
#1909=CARTESIAN_POINT('',(17.5,25.5,4.));
#1910=CARTESIAN_POINT('',(17.5,25.5,0.));
#1911=CARTESIAN_POINT('',(-8.23253714095107,-13.6515249022997,3.));
#1912=CARTESIAN_POINT('',(-7.3867476035019,-14.4973144397488,3.));
#1913=CARTESIAN_POINT('',(-7.3867476035019,-14.4973144397488,3.));
#1914=CARTESIAN_POINT('',(-8.23253714095107,-13.6515249022997,3.));
#1915=CARTESIAN_POINT('',(3.18108768086665,-14.3189123190276,3.));
#1916=CARTESIAN_POINT('',(5.37311870254045,-16.5109433407104,3.));
#1917=CARTESIAN_POINT('',(3.18108768086665,-17.4189123190275,3.));
#1918=CARTESIAN_POINT('',(3.18108768086665,-17.4189123190275,-23.7));
#1919=CARTESIAN_POINT('',(5.37311870254045,-16.5109433407104,3.));
#1920=CARTESIAN_POINT('',(3.18108768086665,-14.3189123190276,3.));
#1921=CARTESIAN_POINT('',(7.38674760350197,-14.4973144397489,3.));
#1922=CARTESIAN_POINT('',(7.38674760350197,-14.4973144397489,3.));
#1923=CARTESIAN_POINT('',(5.37311870254044,-16.5109433407104,3.));
#1924=CARTESIAN_POINT('',(5.37311870254044,-16.5109433407104,3.));
#1925=CARTESIAN_POINT('',(8.23253714095107,13.6515249022997,3.));
#1926=CARTESIAN_POINT('',(7.38674760350193,14.4973144397489,3.));
#1927=CARTESIAN_POINT('',(7.38674760350193,14.4973144397489,3.));
#1928=CARTESIAN_POINT('',(8.23253714095107,13.6515249022997,3.));
#1929=CARTESIAN_POINT('',(26.7674628588374,-13.6515249022997,3.));
#1930=CARTESIAN_POINT('',(29.6268812972435,-16.5109433407059,3.));
#1931=CARTESIAN_POINT('',(27.6132523963643,-14.4973144398267,3.));
#1932=CARTESIAN_POINT('',(27.6132523963643,-14.4973144398267,3.));
#1933=CARTESIAN_POINT('',(29.6268812972435,-16.5109433407059,3.));
#1934=CARTESIAN_POINT('',(26.7674628588374,-13.6515249022997,3.));
#1935=CARTESIAN_POINT('',(34.0109433406046,-12.1268812973538,3.));
#1936=CARTESIAN_POINT('',(34.0109433406046,-12.1268812973538,3.));
#1937=CARTESIAN_POINT('',(31.8189123189218,-14.3189123190276,3.));
#1938=CARTESIAN_POINT('',(31.8189123189218,-14.3189123190276,3.));
#1939=CARTESIAN_POINT('',(31.9973144397489,-10.1132523964981,3.));
#1940=CARTESIAN_POINT('',(31.9973144397489,-10.1132523964981,3.));
#1941=CARTESIAN_POINT('',(34.0109433406046,-12.1268812973538,3.));
#1942=CARTESIAN_POINT('',(34.0109433406046,-12.1268812973538,3.));
#1943=CARTESIAN_POINT('',(33.0579746115287,-9.05259222471823,3.));
#1944=CARTESIAN_POINT('',(26.5525922245845,-15.5579746116065,3.));
#1945=CARTESIAN_POINT('',(31.8189123189218,-14.3189123190276,3.));
#1946=CARTESIAN_POINT('',(-31.1515249021939,-9.26746285894315,3.));
#1947=CARTESIAN_POINT('',(-34.0109433406001,-12.1268812973493,3.));
#1948=CARTESIAN_POINT('',(-31.9973144397489,-10.1132523964981,3.));
#1949=CARTESIAN_POINT('',(-31.8189123189218,-14.3189123190276,3.));
#1950=CARTESIAN_POINT('',(-29.6268812972435,-16.5109433407059,3.));
#1951=CARTESIAN_POINT('',(-29.6268812972435,-16.5109433407059,3.));
#1952=CARTESIAN_POINT('',(-27.6132523963643,-14.4973144398267,3.));
#1953=CARTESIAN_POINT('',(-26.5525922245845,-15.5579746116065,3.));
#1954=CARTESIAN_POINT('',(-33.0579746115287,-9.05259222471826,3.));
#1955=CARTESIAN_POINT('',(-31.8189123189218,-14.3189123190276,3.));
#1956=CARTESIAN_POINT('',(-31.9973144397489,-10.1132523964981,3.));
#1957=CARTESIAN_POINT('',(-34.0109433406001,-12.1268812973493,3.));
#1958=CARTESIAN_POINT('',(-31.1515249021939,-9.26746285894315,3.));
#1959=CARTESIAN_POINT('',(-29.6268812972435,-16.5109433407059,3.));
#1960=CARTESIAN_POINT('',(-31.8189123189218,-14.3189123190276,3.));
#1961=CARTESIAN_POINT('',(-27.6132523963643,-14.4973144398267,3.));
#1962=CARTESIAN_POINT('',(-29.6268812972435,-16.5109433407059,3.));
#1963=CARTESIAN_POINT('',(-34.0109433406001,12.1268812973493,3.));
#1964=CARTESIAN_POINT('',(-31.9973144397489,10.113252396498,3.));
#1965=CARTESIAN_POINT('',(-34.0109433406001,12.1268812973493,3.));
#1966=CARTESIAN_POINT('',(-33.0579746115287,9.05259222471822,3.));
#1967=CARTESIAN_POINT('',(-26.5525922245845,15.5579746116065,3.));
#1968=CARTESIAN_POINT('',(-27.6132523963643,14.4973144398267,3.));
#1969=CARTESIAN_POINT('',(-26.7674628588374,13.6515249022997,3.));
#1970=CARTESIAN_POINT('',(-29.626881297248,16.5109433407104,3.));
#1971=CARTESIAN_POINT('',(-31.8189123189218,14.3189123190276,3.));
#1972=CARTESIAN_POINT('',(-17.4999999998942,-7.105427357601E-15,3.));
#1973=CARTESIAN_POINT('',(-31.9973144397489,10.113252396498,3.));
#1974=CARTESIAN_POINT('',(-34.0109433406001,12.1268812973493,3.));
#1975=CARTESIAN_POINT('',(-34.0109433406001,12.1268812973493,3.));
#1976=CARTESIAN_POINT('',(-27.6132523963643,14.4973144398267,3.));
#1977=CARTESIAN_POINT('',(-29.626881297248,16.5109433407104,3.));
#1978=CARTESIAN_POINT('',(-26.7674628588374,13.6515249022997,3.));
#1979=CARTESIAN_POINT('',(-31.8189123189218,14.3189123190276,3.));
#1980=CARTESIAN_POINT('',(8.44740777528175,15.5579746115287,3.));
#1981=CARTESIAN_POINT('',(3.18108768086665,17.4189123190275,3.));
#1982=CARTESIAN_POINT('',(-3.18108768086663,17.4189123190275,3.));
#1983=CARTESIAN_POINT('',(-3.18108768086672,14.3189123190276,3.));
#1984=CARTESIAN_POINT('',(-5.37311870254501,16.5109433407059,3.));
#1985=CARTESIAN_POINT('',(-5.37311870254501,16.5109433407059,3.));
#1986=CARTESIAN_POINT('',(-7.38674760350202,14.4973144397489,3.));
#1987=CARTESIAN_POINT('',(-8.44740777528183,15.5579746115287,3.));
#1988=CARTESIAN_POINT('',(-8.44740777528173,-15.5579746115287,3.));
#1989=CARTESIAN_POINT('',(-3.18108768086663,-17.4189123190275,3.));
#1990=CARTESIAN_POINT('',(8.44740777528179,-15.5579746115287,3.));
#1991=CARTESIAN_POINT('',(-17.4999999998943,-6.93889390390723E-15,3.));
#1992=CARTESIAN_POINT('',(-7.38674760350202,14.4973144397489,3.));
#1993=CARTESIAN_POINT('',(-5.37311870254501,16.5109433407059,3.));
#1994=CARTESIAN_POINT('',(-5.37311870254501,16.5109433407059,3.));
#1995=CARTESIAN_POINT('',(-3.18108768086663,17.4189123190275,-23.7));
#1996=CARTESIAN_POINT('',(-3.18108768086672,14.3189123190276,3.));
#1997=CARTESIAN_POINT('',(27.6132523963643,14.4973144398267,3.));
#1998=CARTESIAN_POINT('',(27.6132523963643,14.4973144398267,3.));
#1999=CARTESIAN_POINT('',(29.626881297248,16.5109433407104,3.));
#2000=CARTESIAN_POINT('',(29.626881297248,16.5109433407104,3.));
#2001=CARTESIAN_POINT('',(29.626881297248,16.5109433407104,3.));
#2002=CARTESIAN_POINT('',(29.626881297248,16.5109433407104,3.));
#2003=CARTESIAN_POINT('',(31.1515249021939,9.26746285894312,3.));
#2004=CARTESIAN_POINT('',(34.0109433406001,12.1268812973493,3.));
#2005=CARTESIAN_POINT('',(31.9973144397489,10.113252396498,3.));
#2006=CARTESIAN_POINT('',(31.9973144397489,10.113252396498,3.));
#2007=CARTESIAN_POINT('',(34.0109433406001,12.1268812973493,3.));
#2008=CARTESIAN_POINT('',(31.1515249021939,9.26746285894312,3.));
#2009=CARTESIAN_POINT('',(31.8189123189218,14.3189123190276,3.));
#2010=CARTESIAN_POINT('',(31.8189123189218,14.3189123190276,3.));
#2011=CARTESIAN_POINT('',(26.5525922245845,15.5579746116065,3.));
#2012=CARTESIAN_POINT('',(33.0579746115287,9.05259222471823,3.));
#2013=CARTESIAN_POINT('',(17.4999999998942,-7.105427357601E-15,3.));
#2014=CARTESIAN_POINT('',(3.18108768086665,17.4189123190275,-23.7));
#2015=CARTESIAN_POINT('',(-3.18108768086663,-17.4189123190275,-23.7));
#2016=CARTESIAN_POINT('',(26.5525922245845,15.5579746116065,59.4));
#2017=CARTESIAN_POINT('',(33.0579746115287,9.05259222471823,59.4));
#2018=CARTESIAN_POINT('',(33.0579746115287,-9.05259222471823,59.4));
#2019=CARTESIAN_POINT('',(26.5525922245845,-15.5579746116065,59.4));
#2020=CARTESIAN_POINT('',(8.44740777528175,15.5579746115287,59.4));
#2021=CARTESIAN_POINT('',(-8.44740777528183,15.5579746115287,59.4));
#2022=CARTESIAN_POINT('',(-26.5525922245845,15.5579746116065,59.4));
#2023=CARTESIAN_POINT('',(-33.0579746115287,9.05259222471822,59.4));
#2024=CARTESIAN_POINT('',(-33.0579746115287,-9.05259222471826,59.4));
#2025=CARTESIAN_POINT('',(-26.5525922245845,-15.5579746116065,59.4));
#2026=CARTESIAN_POINT('',(-8.44740777528173,-15.5579746115287,59.4));
#2027=CARTESIAN_POINT('',(8.44740777528179,-15.5579746115287,59.4));
#2028=CARTESIAN_POINT('',(17.5,23.5,4.));
#2029=CARTESIAN_POINT('',(-17.4999999998942,23.5,4.));
#2030=CARTESIAN_POINT('',(-17.5,23.5,4.));
#2031=CARTESIAN_POINT('',(-17.499999999996,-23.5,4.));
#2032=CARTESIAN_POINT('',(-17.4999999998942,0.,4.));
#2033=CARTESIAN_POINT('',(17.5,-23.5,4.));
#2034=CARTESIAN_POINT('',(17.5,1.06581410364015E-14,4.));
#2035=CARTESIAN_POINT('',(-17.5,-23.5,4.));
#2036=MECHANICAL_DESIGN_GEOMETRIC_PRESENTATION_REPRESENTATION('',(#86),
#2037);
#2037=(
GEOMETRIC_REPRESENTATION_CONTEXT(3)
GLOBAL_UNCERTAINTY_ASSIGNED_CONTEXT((#2038))
GLOBAL_UNIT_ASSIGNED_CONTEXT((#2044,#2040,#2039))
REPRESENTATION_CONTEXT('WMD1007','TOP_LEVEL_ASSEMBLY_PART')
);
#2038=UNCERTAINTY_MEASURE_WITH_UNIT(LENGTH_MEASURE(2.E-5),#2044,
'DISTANCE_ACCURACY_VALUE','Maximum Tolerance applied to model');
#2039=(
NAMED_UNIT(*)
SI_UNIT($,.STERADIAN.)
SOLID_ANGLE_UNIT()
);
#2040=(
CONVERSION_BASED_UNIT('DEGREE',#2042)
NAMED_UNIT(#2041)
PLANE_ANGLE_UNIT()
);
#2041=DIMENSIONAL_EXPONENTS(0.,0.,0.,0.,0.,0.,0.);
#2042=PLANE_ANGLE_MEASURE_WITH_UNIT(PLANE_ANGLE_MEASURE(0.0174532925),#2043);
#2043=(
NAMED_UNIT(*)
PLANE_ANGLE_UNIT()
SI_UNIT($,.RADIAN.)
);
#2044=(
LENGTH_UNIT()
NAMED_UNIT(*)
SI_UNIT(.MILLI.,.METRE.)
);
ENDSEC;
END-ISO-10303-21;
